<svg width="172" height="327" viewBox="0 0 172 327" fill="none" xmlns="http://www.w3.org/2000/svg">
<path d="M161 204.5C161 203.119 162.119 202 163.5 202H171V207H163.5C162.119 207 161 205.881 161 204.5V204.5Z" fill="#333333" fill-opacity="0.05"/>
<path d="M161 235.5C161 234.672 161.672 234 162.5 234H171V237H162.5C161.672 237 161 236.328 161 235.5V235.5Z" fill="#333333" fill-opacity="0.05"/>
<path d="M161 242.5C161 241.672 161.672 241 162.5 241H171V244H162.5C161.672 244 161 243.328 161 242.5V242.5Z" fill="#333333" fill-opacity="0.05"/>
<path d="M161 213.5C161 212.119 162.119 211 163.5 211H171V216H163.5C162.119 216 161 214.881 161 213.5V213.5Z" fill="#333333" fill-opacity="0.1"/>
<path d="M162.575 278.471C163.709 277.822 165.105 277.822 166.239 278.471L171.002 281.419C171.002 282.509 171.002 295.563 171.002 296.861V305.036C171.002 306.334 171.002 306.489 171.002 307.216V309.759H164.957C162.208 309.759 157.079 309.759 155.796 309.759L149.738 306.811C148.605 306.162 147.906 304.963 147.906 303.665V288.967C147.906 287.669 148.605 286.469 149.738 285.82L162.575 278.471Z" fill="#EAEAEA"/>
<path d="M159.717 299.352H157.785C157.657 299.352 157.534 299.302 157.443 299.212C157.353 299.122 157.302 299 157.302 298.873V296.958C157.302 296.83 157.251 296.709 157.16 296.619C157.07 296.529 156.947 296.479 156.819 296.479C156.691 296.479 156.568 296.529 156.477 296.619C156.387 296.709 156.336 296.83 156.336 296.958V298.873C156.336 299.254 156.489 299.62 156.76 299.889C157.032 300.159 157.401 300.31 157.785 300.31H159.717C159.845 300.31 159.968 300.26 160.058 300.17C160.149 300.08 160.2 299.958 160.2 299.831C160.2 299.704 160.149 299.582 160.058 299.492C159.968 299.403 159.845 299.352 159.717 299.352ZM166.479 296.479C166.351 296.479 166.228 296.529 166.137 296.619C166.047 296.709 165.996 296.83 165.996 296.958V298.873C165.996 299 165.945 299.122 165.854 299.212C165.764 299.302 165.641 299.352 165.513 299.352H163.581C163.453 299.352 163.33 299.403 163.239 299.492C163.149 299.582 163.098 299.704 163.098 299.831C163.098 299.958 163.149 300.08 163.239 300.17C163.33 300.26 163.453 300.31 163.581 300.31H165.513C165.897 300.31 166.266 300.159 166.537 299.889C166.809 299.62 166.962 299.254 166.962 298.873V296.958C166.962 296.83 166.911 296.709 166.82 296.619C166.73 296.529 166.607 296.479 166.479 296.479ZM165.513 289.773H163.581C163.453 289.773 163.33 289.824 163.239 289.914C163.149 290.004 163.098 290.125 163.098 290.252C163.098 290.379 163.149 290.501 163.239 290.591C163.33 290.681 163.453 290.731 163.581 290.731H165.513C165.641 290.731 165.764 290.782 165.854 290.872C165.945 290.961 165.996 291.083 165.996 291.21V293.126C165.996 293.253 166.047 293.375 166.137 293.465C166.228 293.554 166.351 293.605 166.479 293.605C166.607 293.605 166.73 293.554 166.82 293.465C166.911 293.375 166.962 293.253 166.962 293.126V291.21C166.962 290.829 166.809 290.464 166.537 290.194C166.266 289.925 165.897 289.773 165.513 289.773ZM156.819 293.605C156.947 293.605 157.07 293.554 157.16 293.465C157.251 293.375 157.302 293.253 157.302 293.126V291.21C157.302 291.083 157.353 290.961 157.443 290.872C157.534 290.782 157.657 290.731 157.785 290.731H159.717C159.845 290.731 159.968 290.681 160.058 290.591C160.149 290.501 160.2 290.379 160.2 290.252C160.2 290.125 160.149 290.004 160.058 289.914C159.968 289.824 159.845 289.773 159.717 289.773H157.785C157.401 289.773 157.032 289.925 156.76 290.194C156.489 290.464 156.336 290.829 156.336 291.21V293.126C156.336 293.253 156.387 293.375 156.477 293.465C156.568 293.554 156.691 293.605 156.819 293.605ZM160.683 291.689H158.751C158.623 291.689 158.5 291.74 158.409 291.829C158.319 291.919 158.268 292.041 158.268 292.168V294.084C158.268 294.211 158.319 294.333 158.409 294.423C158.5 294.512 158.623 294.563 158.751 294.563H160.683C160.811 294.563 160.934 294.512 161.024 294.423C161.115 294.333 161.166 294.211 161.166 294.084V292.168C161.166 292.041 161.115 291.919 161.024 291.829C160.934 291.74 160.811 291.689 160.683 291.689ZM160.2 293.605H159.234V292.647H160.2V293.605ZM162.615 294.563H164.547C164.675 294.563 164.798 294.512 164.888 294.423C164.979 294.333 165.03 294.211 165.03 294.084V292.168C165.03 292.041 164.979 291.919 164.888 291.829C164.798 291.74 164.675 291.689 164.547 291.689H162.615C162.487 291.689 162.364 291.74 162.273 291.829C162.183 291.919 162.132 292.041 162.132 292.168V294.084C162.132 294.211 162.183 294.333 162.273 294.423C162.364 294.512 162.487 294.563 162.615 294.563ZM163.098 292.647H164.064V293.605H163.098V292.647ZM160.683 295.521H158.751C158.623 295.521 158.5 295.571 158.409 295.661C158.319 295.751 158.268 295.873 158.268 296V297.915C158.268 298.042 158.319 298.164 158.409 298.254C158.5 298.344 158.623 298.394 158.751 298.394H160.683C160.811 298.394 160.934 298.344 161.024 298.254C161.115 298.164 161.166 298.042 161.166 297.915V296C161.166 295.873 161.115 295.751 161.024 295.661C160.934 295.571 160.811 295.521 160.683 295.521ZM160.2 297.436H159.234V296.479H160.2V297.436ZM162.615 296.958C162.743 296.958 162.866 296.907 162.956 296.817C163.047 296.727 163.098 296.606 163.098 296.479C163.226 296.479 163.349 296.428 163.439 296.338C163.53 296.248 163.581 296.127 163.581 296C163.581 295.873 163.53 295.751 163.439 295.661C163.349 295.571 163.226 295.521 163.098 295.521H162.615C162.487 295.521 162.364 295.571 162.273 295.661C162.183 295.751 162.132 295.873 162.132 296V296.479C162.132 296.606 162.183 296.727 162.273 296.817C162.364 296.907 162.487 296.958 162.615 296.958ZM164.547 295.521C164.419 295.521 164.296 295.571 164.205 295.661C164.115 295.751 164.064 295.873 164.064 296V297.436C163.936 297.436 163.813 297.487 163.722 297.577C163.632 297.667 163.581 297.788 163.581 297.915C163.581 298.042 163.632 298.164 163.722 298.254C163.813 298.344 163.936 298.394 164.064 298.394H164.547C164.675 298.394 164.798 298.344 164.888 298.254C164.979 298.164 165.03 298.042 165.03 297.915V296C165.03 295.873 164.979 295.751 164.888 295.661C164.798 295.571 164.675 295.521 164.547 295.521ZM162.615 297.436C162.519 297.436 162.426 297.465 162.347 297.517C162.267 297.57 162.205 297.645 162.169 297.732C162.132 297.82 162.123 297.916 162.141 298.009C162.16 298.102 162.206 298.187 162.273 298.254C162.341 298.321 162.427 298.367 162.521 298.385C162.614 298.404 162.711 298.394 162.8 298.358C162.888 298.322 162.963 298.26 163.016 298.181C163.07 298.103 163.098 298.01 163.098 297.915C163.098 297.788 163.047 297.667 162.956 297.577C162.866 297.487 162.743 297.436 162.615 297.436Z" fill="white"/>
<rect x="0.5" y="0.5" width="170.444" height="325.794" rx="19.5" stroke="#333333" stroke-opacity="0.1"/>
<rect x="12.9453" y="58.6328" width="145.571" height="74.7527" rx="9.5" stroke="#333333" stroke-opacity="0.1"/>
<rect x="12.9453" y="192.531" width="131.358" height="61.5401" rx="9.5" stroke="#333333" stroke-opacity="0.1"/>
<rect x="12.9453" y="138.789" width="69.1765" height="27.1871" rx="4.5" stroke="#333333" stroke-opacity="0.1"/>
<rect x="89.3281" y="138.789" width="69.1765" height="27.1871" rx="4.5" stroke="#333333" stroke-opacity="0.1"/>
<rect x="21.3125" y="66.9453" width="51.522" height="58.1358" rx="10" fill="#333333" fill-opacity="0.05"/>
<rect x="78.1719" y="69.5781" width="25.761" height="4.40423" rx="2.20211" fill="#333333" fill-opacity="0.05"/>
<rect x="23.9766" y="202.602" width="25.761" height="4.40423" rx="2.20211" fill="#333333" fill-opacity="0.05"/>
<rect x="21.3125" y="147.094" width="47.0804" height="4.40423" rx="2.20211" fill="#333333" fill-opacity="0.05"/>
<rect x="97.7188" y="147.094" width="47.0804" height="4.40423" rx="2.20211" fill="#333333" fill-opacity="0.05"/>
<rect x="78.1719" y="117.156" width="25.761" height="4.40423" rx="2.20211" fill="#333333" fill-opacity="0.1"/>
<rect x="110.156" y="236.062" width="25.761" height="4.40423" rx="2.20211" fill="#333333" fill-opacity="0.1"/>
<rect x="133.25" y="177.938" width="25.761" height="4.40423" rx="2.20211" fill="#333333" fill-opacity="0.1"/>
<rect x="116.367" y="110.102" width="35.5324" height="13.2127" rx="5" fill="#333333" fill-opacity="0.1"/>
<rect x="78.1719" y="87.2031" width="59.5168" height="2.64254" rx="1.32127" fill="#333333" fill-opacity="0.05"/>
<rect x="23.9766" y="233.414" width="59.5168" height="2.64254" rx="1.32127" fill="#333333" fill-opacity="0.05"/>
<rect x="21.3125" y="154.156" width="21.3194" height="2.64254" rx="1.32127" fill="#333333" fill-opacity="0.05"/>
<rect x="97.7188" y="154.156" width="21.3194" height="2.64254" rx="1.32127" fill="#333333" fill-opacity="0.05"/>
<rect x="78.1719" y="92.4922" width="52.4103" height="2.64254" rx="1.32127" fill="#333333" fill-opacity="0.05"/>
<rect x="23.9766" y="240.469" width="59.5168" height="2.64254" rx="1.32127" fill="#333333" fill-opacity="0.05"/>
<rect x="78.1719" y="97.7734" width="39.0856" height="2.64254" rx="1.32127" fill="#333333" fill-opacity="0.05"/>
<rect x="78.1719" y="78.3984" width="69.2882" height="4.40423" rx="2.20211" fill="#333333" fill-opacity="0.1"/>
<rect x="23.9766" y="211.398" width="69.2882" height="4.40423" rx="2.20211" fill="#333333" fill-opacity="0.1"/>
<path d="M160.125 192.531H170.944V254.071H160.125C154.878 254.071 150.625 249.818 150.625 244.571V202.031C150.625 196.785 154.878 192.531 160.125 192.531Z" stroke="#333333" stroke-opacity="0.1"/>
<path opacity="0.3" d="M14.7053 183.523L12.7853 177.843H13.7853L15.5153 183.033H15.0153L16.8053 177.843H17.7153L19.4653 183.033H18.9853L20.7353 177.843H21.6753L19.7553 183.523H18.7253L17.1053 178.773H17.3753L15.7453 183.523H14.7053ZM22.9856 183.523V177.843H23.9556V180.243H27.0656V177.843H28.0356V183.523H27.0656V181.043H23.9556V183.523H22.9856ZM28.9978 183.523L31.5978 177.843H32.5578L35.1678 183.523H34.1878L31.9178 178.353H32.2478L29.9478 183.523H28.9978ZM30.1878 182.173L30.4478 181.403H33.5678L33.8278 182.173H30.1878ZM36.7886 183.523V178.643H34.8486V177.843H39.6986V178.643H37.7586V183.523H36.7886ZM40.7699 180.263L41.1999 178.503L41.3099 179.083C41.1233 179.083 40.9666 179.023 40.8399 178.903C40.7133 178.783 40.6499 178.63 40.6499 178.443C40.6499 178.25 40.7099 178.09 40.8299 177.963C40.9566 177.837 41.1133 177.773 41.2999 177.773C41.4933 177.773 41.6533 177.837 41.7799 177.963C41.9066 178.09 41.9699 178.25 41.9699 178.443C41.9699 178.497 41.9633 178.553 41.9499 178.613C41.9433 178.673 41.9299 178.743 41.9099 178.823C41.8899 178.903 41.8566 179.007 41.8099 179.133L41.3999 180.263H40.7699ZM47.4634 181.903C47.4634 182.25 47.3701 182.55 47.1834 182.803C47.0034 183.057 46.7401 183.253 46.3934 183.393C46.0534 183.533 45.6401 183.603 45.1534 183.603C44.7134 183.603 44.2834 183.543 43.8634 183.423C43.4501 183.297 43.1268 183.13 42.8934 182.923L43.2734 182.163C43.5001 182.343 43.7834 182.493 44.1234 182.613C44.4634 182.727 44.8201 182.783 45.1934 182.783C45.6734 182.783 46.0101 182.707 46.2034 182.553C46.3968 182.393 46.4934 182.207 46.4934 181.993C46.4934 181.807 46.4301 181.66 46.3034 181.553C46.1834 181.44 46.0201 181.353 45.8134 181.293C45.6068 181.227 45.3801 181.167 45.1334 181.113C44.8934 181.06 44.6501 181 44.4034 180.933C44.1634 180.867 43.9401 180.777 43.7334 180.663C43.5334 180.55 43.3701 180.397 43.2434 180.203C43.1168 180.003 43.0534 179.753 43.0534 179.453C43.0534 179.113 43.1468 178.817 43.3334 178.563C43.5201 178.31 43.7834 178.113 44.1234 177.973C44.4634 177.833 44.8701 177.763 45.3434 177.763C45.6901 177.763 46.0334 177.803 46.3734 177.883C46.7134 177.957 47.0068 178.08 47.2534 178.253L46.9034 179.033C46.6634 178.867 46.4034 178.75 46.1234 178.683C45.8501 178.617 45.5801 178.583 45.3134 178.583C44.8601 178.583 44.5301 178.663 44.3234 178.823C44.1234 178.977 44.0234 179.167 44.0234 179.393C44.0234 179.58 44.0868 179.73 44.2134 179.843C44.3401 179.95 44.5034 180.037 44.7034 180.103C44.9101 180.163 45.1368 180.22 45.3834 180.273C45.6301 180.327 45.8734 180.387 46.1134 180.453C46.3534 180.52 46.5768 180.61 46.7834 180.723C46.9901 180.837 47.1534 180.99 47.2734 181.183C47.4001 181.37 47.4634 181.61 47.4634 181.903ZM51.4915 183.523V177.843H52.4615V180.243H55.5715V177.843H56.5415V183.523H55.5715V181.043H52.4615V183.523H51.4915ZM57.5037 183.523L60.1037 177.843H61.0637L63.6737 183.523H62.6937L60.4237 178.353H60.7537L58.4537 183.523H57.5037ZM58.6937 182.173L58.9537 181.403H62.0737L62.3337 182.173H58.6937ZM64.636 183.523V177.843H66.956C67.456 177.843 67.886 177.923 68.246 178.083C68.606 178.237 68.886 178.463 69.086 178.763C69.286 179.057 69.386 179.417 69.386 179.843C69.386 180.263 69.286 180.623 69.086 180.923C68.886 181.223 68.606 181.453 68.246 181.613C67.886 181.773 67.456 181.853 66.956 181.853H65.176L65.606 181.393V183.523H64.636ZM65.606 181.503L65.236 181.043H66.896C67.3893 181.043 67.7627 180.94 68.016 180.733C68.276 180.527 68.406 180.23 68.406 179.843C68.406 179.457 68.276 179.16 68.016 178.953C67.7627 178.747 67.3893 178.643 66.896 178.643H65.236L65.606 178.183V181.503ZM70.8665 183.523V177.843H73.1865C73.6865 177.843 74.1165 177.923 74.4765 178.083C74.8365 178.237 75.1165 178.463 75.3165 178.763C75.5165 179.057 75.6165 179.417 75.6165 179.843C75.6165 180.263 75.5165 180.623 75.3165 180.923C75.1165 181.223 74.8365 181.453 74.4765 181.613C74.1165 181.773 73.6865 181.853 73.1865 181.853H71.4065L71.8365 181.393V183.523H70.8665ZM71.8365 181.503L71.4665 181.043H73.1265C73.6198 181.043 73.9932 180.94 74.2465 180.733C74.5065 180.527 74.6365 180.23 74.6365 179.843C74.6365 179.457 74.5065 179.16 74.2465 178.953C73.9932 178.747 73.6198 178.643 73.1265 178.643H71.4665L71.8365 178.183V181.503ZM77.907 180.243H80.897V181.033H77.907V180.243ZM78.067 182.713H81.357V183.523H77.097V177.843H81.247V178.643H78.067V182.713ZM82.8001 183.523V177.843H83.6001L87.2501 182.323H86.8801V177.843H87.8501V183.523H87.0501L83.3901 179.043H83.7701V183.523H82.8001ZM89.7923 183.523V177.843H90.7623V183.523H89.7923ZM92.6927 183.523V177.843H93.4927L97.1427 182.323H96.7727V177.843H97.7427V183.523H96.9427L93.2827 179.043H93.6627V183.523H92.6927ZM104.475 182.873C104.288 183.027 104.078 183.16 103.845 183.273C103.612 183.38 103.362 183.463 103.095 183.523C102.828 183.577 102.558 183.603 102.285 183.603C101.685 183.603 101.148 183.477 100.675 183.223C100.202 182.97 99.8282 182.623 99.5548 182.183C99.2882 181.737 99.1548 181.237 99.1548 180.683C99.1548 180.117 99.2882 179.617 99.5548 179.183C99.8282 178.743 100.195 178.397 100.655 178.143C101.122 177.89 101.652 177.763 102.245 177.763C102.738 177.763 103.178 177.837 103.565 177.983C103.952 178.13 104.275 178.353 104.535 178.653L103.915 179.283C103.695 179.05 103.445 178.88 103.165 178.773C102.892 178.66 102.592 178.603 102.265 178.603C101.858 178.603 101.492 178.693 101.165 178.873C100.845 179.047 100.592 179.29 100.405 179.603C100.225 179.917 100.135 180.277 100.135 180.683C100.135 181.077 100.228 181.433 100.415 181.753C100.602 182.067 100.858 182.313 101.185 182.493C101.512 182.673 101.882 182.763 102.295 182.763C102.615 182.763 102.908 182.717 103.175 182.623C103.442 182.523 103.688 182.37 103.915 182.163L104.475 182.873ZM103.535 182.883V180.653H104.475V182.873L103.535 182.883Z" fill="#172659"/>
<path d="M43.6233 24.1676L29.4964 16.1042C28.8897 15.7569 28.1423 15.7569 27.5346 16.1042L13.4078 24.1676C12.7971 24.5159 12.4219 25.16 12.4219 25.8586V35.889C12.4219 36.5856 12.7971 37.2288 13.4048 37.5781L27.5316 45.6681C28.1403 46.0164 28.8897 46.0164 29.4994 45.6681L43.6263 37.5781C44.235 37.2278 44.6092 36.5856 44.6092 35.889V25.8586C44.6092 25.16 44.234 24.5159 43.6233 24.1676Z" stroke="#EDEDED" stroke-width="2.0081" stroke-miterlimit="10"/>
<path d="M43.1677 32.3911C43.1478 30.5279 42.4802 29.7264 41.1281 30.4943C40.9684 30.5843 40.704 30.7693 40.4725 30.9484L40.4525 28.8972C40.4515 28.7676 40.3767 28.7013 40.2899 28.7508L39.3219 29.2999C39.2331 29.3494 39.1543 29.5018 39.1563 29.6314L39.2391 37.9461C39.2421 38.1361 39.274 38.2004 39.4906 38.1489C39.9486 38.0559 40.5822 37.8392 41.1989 37.4909C42.4962 36.7557 43.1967 35.2359 43.1767 33.3153L43.1677 32.3911ZM41.182 35.9137C40.9185 36.0631 40.678 36.163 40.5264 36.2145L40.4884 32.5138C40.68 32.3703 40.9515 32.1922 41.144 32.0834C41.7128 31.7608 41.8615 32.2961 41.8705 33.1253L41.8795 34.0505C41.8895 34.8925 41.7508 35.5911 41.182 35.9137Z" fill="#EAEAEA"/>
<path d="M38.4599 36.0149C38.4888 38.8023 37.0828 39.8245 36.5779 40.1114L36.4661 40.1738C35.9612 40.4597 34.5512 41.0336 34.5223 38.2462L34.4844 34.6059C34.4844 34.4743 34.5462 34.32 34.635 34.2695L35.62 33.7114C35.7078 33.6619 35.7796 33.7401 35.7816 33.8697L35.8195 37.5101C35.8305 38.6371 36.073 38.7618 36.4502 38.548L36.5619 38.4857C36.9391 38.272 37.1756 37.8752 37.1647 36.7481L37.1267 33.1078C37.1257 32.9782 37.1966 32.8179 37.2854 32.7684L38.2703 32.2104C38.3581 32.1599 38.423 32.242 38.424 32.3716L38.4599 36.0149Z" fill="#EAEAEA"/>
<path d="M33.792 41.338C33.792 41.4676 33.7212 41.616 33.6334 41.6655L32.6565 42.2186C32.5687 42.2691 32.4948 42.2038 32.4948 42.0722L32.4529 37.9332C32.4449 37.2573 32.2513 37.0931 31.7474 37.3781C31.5059 37.5146 31.2664 37.6858 31.0988 37.8411L31.1507 42.8212C31.1517 42.9508 31.0808 43.1112 30.992 43.1606L30.0241 43.7108C29.9353 43.7603 29.8554 43.687 29.8534 43.5564L29.7656 34.9459C29.7646 34.8163 29.8355 34.6679 29.9243 34.6184L30.9002 34.0633C30.989 34.0138 31.0619 34.0801 31.0629 34.2097L31.0838 36.3332C31.2994 36.1402 31.5877 35.8938 31.8991 35.7167C33.1384 35.0122 33.7322 35.596 33.7491 37.1831L33.792 41.338Z" fill="#EAEAEA"/>
<path d="M48.8961 25.3426C49.1526 24.9933 49.2923 24.5708 49.2933 24.1245V24.0552C49.2933 23.6515 49.1835 23.3804 48.966 23.2498C48.7056 23.0935 48.3373 23.1499 47.8075 23.4279C47.5251 23.5763 47.2277 23.7584 47.109 23.8326C47.0162 23.894 46.9513 24.0166 46.9513 24.1294L46.9453 28.5732C46.9453 28.6702 46.9772 28.7414 47.0411 28.783C47.0631 28.7978 47.102 28.8157 47.1529 28.8157C47.1808 28.8157 47.2117 28.8107 47.2467 28.7959C47.4652 28.7147 47.7147 28.6029 47.9502 28.4802C48.8383 28.0152 49.3083 27.277 49.3093 26.3469V26.24C49.3093 25.864 49.2215 25.5939 49.0468 25.4385C49.0009 25.397 48.951 25.3653 48.8961 25.3426ZM48.7734 24.2284C48.7724 24.7766 48.5389 25.1654 48.0589 25.4168L47.4672 25.7265L47.4692 24.2284C47.4981 24.2116 47.5291 24.1938 47.561 24.175C47.6837 24.1027 47.8234 24.0216 47.9552 23.9533C48.3114 23.7673 48.5469 23.7059 48.6577 23.7713C48.7335 23.8168 48.7744 23.9543 48.7744 24.1591L48.7734 24.2284ZM47.4672 26.3568L48.2076 25.9689C48.4132 25.861 48.5708 25.8294 48.6537 25.8789C48.7405 25.9313 48.7894 26.0956 48.7884 26.3429V26.4508C48.7874 27.3136 48.2884 27.6916 47.8005 27.9469C47.6718 28.0142 47.568 28.0617 47.4642 28.1072L47.4672 26.3568Z" fill="#EAEAEA"/>
<path d="M50.5378 26.7841C50.8022 26.9425 51.1096 26.8158 51.3181 26.706C51.4129 26.6565 51.5436 26.5754 51.6654 26.4893C51.6344 27.0374 51.4887 27.2057 51.1265 27.3956C50.8531 27.5391 50.5567 27.642 50.4659 27.6687L50.42 27.6895C50.3182 27.743 50.2574 27.8449 50.2574 27.9646V27.9963C50.2574 28.0289 50.2574 28.1298 50.3382 28.1922C50.3741 28.2199 50.417 28.2337 50.4659 28.2337C50.4899 28.2337 50.5148 28.2308 50.5418 28.2238C50.6366 28.2001 50.9419 28.0952 51.2752 27.9201C51.837 27.6252 52.1863 27.2225 52.1873 26.1222L52.1912 22.847C52.1912 22.752 52.1513 22.6728 52.0805 22.6313C52.0166 22.5927 51.9368 22.5917 51.8669 22.6283L51.849 22.6382C51.7472 22.6916 51.6724 22.8232 51.6724 22.9519L51.6684 25.8441C51.5167 25.9678 51.2832 26.1182 51.1694 26.1776C51.0018 26.2656 50.887 26.2934 50.8311 26.2597C50.7803 26.229 50.6605 26.0866 50.6615 25.4305L50.6635 23.6475C50.6635 23.5525 50.6236 23.4743 50.5527 23.4318C50.4889 23.3932 50.4091 23.3922 50.3382 23.4288L50.3192 23.4387C50.2175 23.4921 50.1436 23.6237 50.1426 23.7524L50.1406 25.5354C50.1406 26.2251 50.2664 26.6219 50.5378 26.7841Z" fill="#EAEAEA"/>
<path d="M49.0931 30.467C49.0352 30.4245 48.9624 30.4106 48.8935 30.4314L48.8766 30.4373C48.66 30.5214 48.204 30.75 47.9675 30.8747C47.2321 31.2596 46.8888 31.8513 46.8878 32.7349L46.8828 36.1744C46.8828 36.2842 46.9307 36.3752 47.0135 36.4257C47.0524 36.4495 47.0974 36.4613 47.1423 36.4613C47.1852 36.4613 47.2281 36.4504 47.268 36.4297L47.5005 36.308C47.6172 36.2466 47.6981 36.1031 47.6991 35.9587L47.7011 34.0114L48.9953 33.3336C49.112 33.2722 49.1929 33.1287 49.1929 32.9833V32.7428C49.1929 32.633 49.145 32.542 49.0622 32.4915C48.9853 32.446 48.8905 32.444 48.8077 32.4875L47.7021 33.0664L47.7031 32.5182C47.7031 32.0888 47.7569 31.9522 48.1581 31.7425L49.0382 31.2814C49.135 31.2309 49.1949 31.124 49.1949 31.0043V30.6877C49.1949 30.5957 49.1579 30.5155 49.0931 30.467Z" fill="#EAEAEA"/>
<path d="M50.1698 30.737C50.2087 30.7607 50.2536 30.7726 50.2985 30.7726C50.3414 30.7726 50.3843 30.7617 50.4242 30.7409L50.6567 30.6192C50.7735 30.5579 50.8553 30.4144 50.8553 30.2689L50.8563 29.7633C50.8563 29.6535 50.8084 29.5624 50.7256 29.512C50.6488 29.4665 50.554 29.4645 50.4711 29.508L50.2386 29.6297C50.1219 29.6911 50.041 29.8345 50.04 29.98L50.0391 30.4856C50.0391 30.5955 50.086 30.6875 50.1698 30.737Z" fill="#EAEAEA"/>
<path d="M50.1698 34.7597C50.2087 34.7834 50.2536 34.7953 50.2985 34.7953C50.3414 34.7953 50.3843 34.7844 50.4242 34.7636L50.6438 34.6488C50.7605 34.5875 50.8413 34.444 50.8423 34.2996L50.8463 31.0758C50.8463 30.966 50.7984 30.8749 50.7156 30.8245C50.6388 30.779 50.544 30.777 50.4612 30.8205L50.2416 30.9353C50.1249 30.9966 50.044 31.1401 50.043 31.2846L50.0391 34.5083C50.0391 34.6182 50.087 34.7092 50.1698 34.7597Z" fill="#EAEAEA"/>
<path d="M53.24 30.2446C53.251 30.2851 53.2649 30.3712 53.2649 30.5523L53.2619 32.8093C53.2619 32.9231 53.3088 33.0161 53.3907 33.0656C53.4645 33.1101 53.5563 33.1111 53.6381 33.0686L53.8756 32.9439C53.9904 32.8835 54.0642 32.749 54.0642 32.5986L54.0672 30.3415C54.0682 29.8498 53.9525 29.5411 53.713 29.3986C53.5154 29.2798 53.2609 29.2967 52.9756 29.4461L52.6522 29.6153C52.314 29.7924 51.7472 30.2525 51.7452 31.3469L51.7422 33.6039C51.7422 33.7177 51.7891 33.8107 51.8709 33.8602C51.9088 33.8829 51.9517 33.8938 51.9947 33.8938C52.0366 33.8938 52.0785 33.8839 52.1174 33.8631L52.3539 33.7394C52.4686 33.6791 52.5435 33.5435 52.5435 33.3941L52.5465 31.1371C52.5475 30.674 52.6323 30.5543 52.8378 30.4474L53.1612 30.2782C53.1971 30.2614 53.223 30.2505 53.24 30.2446Z" fill="#EAEAEA"/>
<path d="M56.3694 31.6614C56.4842 31.5792 56.5421 31.4734 56.5431 31.3457V31.131C56.5431 30.9974 56.4702 30.9331 56.4273 30.9074C56.3724 30.8747 56.2806 30.849 56.1529 30.9163L55.7837 31.1102C55.7687 31.1181 55.7558 31.1251 55.7438 31.13C55.7418 31.1053 55.7408 31.0736 55.7408 31.0331L55.7438 28.9531L56.3485 28.6365C56.4642 28.5762 56.5421 28.4416 56.5421 28.3021V28.0873C56.5421 27.9805 56.4962 27.8914 56.4174 27.8439C56.3405 27.7984 56.2477 27.7974 56.1619 27.8429L55.7448 28.0616V27.7222C55.7448 27.6114 55.6979 27.5204 55.6161 27.4709C55.5432 27.4274 55.4524 27.4254 55.3646 27.4709L55.1101 27.6579C55.0064 27.7381 54.9415 27.8627 54.9415 27.9825L54.9375 31.2448C54.9375 31.507 54.9654 31.8721 55.2169 32.0215C55.2917 32.0661 55.3726 32.0839 55.4524 32.0839C55.6161 32.0839 55.7807 32.0107 55.9054 31.9454C56.0851 31.8504 56.2776 31.7287 56.3694 31.6614Z" fill="#EAEAEA"/>
<path d="M59.0798 26.6543C58.9212 26.5593 58.6478 26.4901 58.2476 26.6989C57.5671 27.0551 57.127 27.9446 57.126 28.9658L57.125 29.4081C57.124 30.0611 57.2717 30.4678 57.575 30.6489C57.6599 30.7004 57.7776 30.7429 57.9313 30.7429C58.081 30.7429 58.2646 30.7013 58.4851 30.5866C58.8174 30.4124 59.0519 30.2452 59.3004 30.0483C59.4491 29.9325 59.468 29.8009 59.468 29.699V29.4843C59.468 29.3448 59.3852 29.2794 59.3503 29.2587C59.2754 29.2141 59.1846 29.2141 59.1028 29.2577L59.0529 29.2864C58.8553 29.4318 58.554 29.6337 58.2985 29.7673C58.1907 29.8237 58.1049 29.8415 58.064 29.8167C58.0421 29.8039 57.9353 29.7168 57.9293 29.2735L59.3503 28.5294C59.47 28.4671 59.5438 28.3295 59.5438 28.1692V27.9041C59.5448 27.2688 59.3842 26.8364 59.0798 26.6543ZM58.4352 27.5379C58.5071 27.5003 58.559 27.4875 58.5899 27.4875C58.6029 27.4875 58.6128 27.4895 58.6188 27.4934C58.6298 27.5003 58.7246 27.5696 58.7366 27.9793L57.9502 28.3909C58.0051 27.9773 58.1758 27.6735 58.4352 27.5379Z" fill="#EAEAEA"/>
<path d="M62.1791 24.8769C62.1142 24.8275 62.0324 24.8156 61.9346 24.8413C61.745 24.8928 61.5225 24.9818 61.3239 25.0867C60.6483 25.44 60.2452 26.2701 60.2432 27.3071L60.2422 27.7999C60.2412 28.4342 60.3999 28.8646 60.6992 29.0447C60.78 29.0931 60.8918 29.1347 61.0345 29.1347C61.1652 29.1347 61.3219 29.1001 61.5055 29.0031C61.7759 28.8616 61.9975 28.6993 62.1052 28.6152L62.1062 28.6142C62.224 28.5222 62.2739 28.4203 62.2739 28.2719V28.0443C62.2739 27.9444 62.23 27.8602 62.1541 27.8147C62.0803 27.7702 61.9855 27.7702 61.9037 27.8128L61.8647 27.8345C61.6592 27.975 61.5265 28.0542 61.3189 28.163C61.2351 28.2066 61.1862 28.2105 61.1682 28.1996C61.1632 28.1967 61.0435 28.1185 61.0435 27.5881L61.0445 27.0954C61.0455 26.4789 61.2021 26.0841 61.5095 25.9228C61.717 25.814 61.8488 25.7556 62.0513 25.6814L62.0942 25.6606C62.206 25.6022 62.2779 25.4795 62.2789 25.3499V25.1223C62.2798 25.0739 62.2798 24.9541 62.1791 24.8769Z" fill="#EAEAEA"/>
<path d="M64.9485 23.5791C64.716 23.4396 64.4146 23.4653 64.0524 23.6543C63.9726 23.6959 63.8947 23.7434 63.8229 23.7919L63.8239 22.9923C63.8239 22.8845 63.777 22.7945 63.6952 22.746C63.6193 22.7005 63.5245 22.6995 63.4427 22.742L63.2102 22.8637C63.0795 22.932 63.0216 23.0834 63.0216 23.2021L63.0156 27.7092C63.0156 27.8191 63.0635 27.9101 63.1463 27.9606C63.1853 27.9843 63.2302 27.9962 63.2751 27.9962C63.318 27.9962 63.3609 27.9853 63.4008 27.9645L63.6193 27.8497C63.7361 27.7884 63.8179 27.6449 63.8179 27.4995L63.8219 24.7625C63.9466 24.6577 64.1033 24.5518 64.24 24.4795C64.3827 24.4043 64.4486 24.4093 64.4625 24.4172C64.4635 24.4172 64.5384 24.4667 64.5384 24.7893L64.5354 26.9137C64.5354 27.0235 64.5833 27.1146 64.6661 27.165C64.7419 27.2105 64.8377 27.2125 64.9206 27.169L65.1391 27.0542C65.2558 26.9928 65.3367 26.8494 65.3377 26.7049L65.3407 24.5805C65.3397 24.0719 65.2079 23.7345 64.9485 23.5791Z" fill="#EAEAEA"/>
<path d="M48.1327 39.7701L47.8403 39.6761C47.4302 39.5455 47.3364 39.4534 47.3364 39.1823C47.3374 38.7123 47.5689 38.3917 48.1107 38.1077C48.2435 38.0385 48.4181 37.9692 48.5588 37.9128C48.6586 37.8732 48.7384 37.8416 48.7853 37.8168C48.8941 37.7594 48.9569 37.6605 48.9569 37.5437V37.4616C48.9569 37.3538 48.9 37.2993 48.8671 37.2766C48.8332 37.2538 48.7623 37.2212 48.6616 37.2607L48.5757 37.2944C48.3911 37.3666 48.1816 37.4478 47.966 37.5606C47.2017 37.9613 46.8135 38.5401 46.8125 39.2832C46.8115 39.9512 47.2017 40.1352 47.6357 40.2787L47.9371 40.3796C48.4271 40.5448 48.5159 40.5755 48.5149 40.9248C48.5149 41.3186 48.4271 41.8173 47.7505 42.1716C47.5888 42.2567 47.4501 42.3091 47.3035 42.3655C47.2306 42.3932 47.1568 42.4219 47.0789 42.4545L47.057 42.4654L47.1318 42.605L47.048 42.4704C46.9392 42.5278 46.8764 42.6247 46.8764 42.7375V42.8197C46.8764 42.9275 46.9332 42.9829 46.9672 43.0067C47.0021 43.0304 47.042 43.0423 47.0859 43.0423C47.1149 43.0423 47.1458 43.0364 47.1757 43.0255C47.2087 43.0126 47.2436 42.9998 47.2795 42.9869C47.4442 42.9255 47.6487 42.8494 47.9002 42.7178C48.6586 42.321 49.0437 41.6808 49.0447 40.817C49.0447 40.1134 48.6306 39.9264 48.1327 39.7701Z" fill="#EAEAEA"/>
<path d="M51.6436 37.0449C51.5398 37.0696 51.1746 37.1646 50.8403 37.3397C50.2086 37.6702 49.8604 38.4321 49.8594 39.484V39.8758C49.8584 40.5516 49.9941 40.9613 50.2735 41.1285C50.3593 41.1799 50.4541 41.2057 50.5569 41.2057C50.6866 41.2057 50.8303 41.1651 50.985 41.084C51.3163 40.9108 51.6755 40.6278 51.7773 40.5457L51.7823 40.5417C51.8711 40.4635 51.905 40.3893 51.905 40.2676L51.909 37.2833C51.909 37.2388 51.909 37.1458 51.8342 37.0835C51.7863 37.0439 51.7254 37.03 51.6436 37.0449ZM51.3861 40.2043C51.2584 40.2983 51.0379 40.4527 50.8373 40.5575C50.7495 40.6031 50.6307 40.6496 50.5609 40.608C50.493 40.5674 50.3793 40.4042 50.3793 39.7709V39.3791C50.3803 38.5528 50.5689 38.0858 50.99 37.8661C51.1267 37.7939 51.2714 37.7365 51.3901 37.695L51.3861 40.2043Z" fill="#EAEAEA"/>
<path d="M54.8044 35.4188C54.7435 35.3822 54.6677 35.3812 54.6018 35.4159L54.5559 35.4396C54.4442 35.498 54.3933 35.6365 54.3933 35.7404L54.3903 37.7827C54.3893 38.3824 54.2027 38.797 53.8485 38.982L53.7616 39.0275C53.6978 39.0611 53.581 39.1106 53.5152 39.072C53.4812 39.0522 53.3705 38.9493 53.3715 38.4833L53.3745 36.441C53.3745 36.345 53.3345 36.2658 53.2657 36.2243C53.2048 36.1877 53.129 36.1867 53.0631 36.2213L53.0172 36.2451C52.9055 36.3034 52.8546 36.442 52.8546 36.5459L52.8516 38.5882C52.8506 39.1077 52.9753 39.4461 53.2228 39.5945C53.3096 39.6459 53.4094 39.6726 53.5162 39.6726C53.6409 39.6726 53.7756 39.637 53.9103 39.5668L53.9971 39.5213C54.4372 39.2907 54.9082 38.6861 54.9092 37.6788L54.9122 35.6375C54.9142 35.5386 54.8743 35.4604 54.8044 35.4188Z" fill="#EAEAEA"/>
<path d="M57.7085 32.5907C57.6476 32.5541 57.5718 32.5531 57.5059 32.5878L57.46 32.6115C57.3483 32.6699 57.2974 32.8084 57.2974 32.9113L57.2964 34.0344C57.1048 34.0898 56.8882 34.1798 56.7475 34.254C56.0979 34.5944 55.7676 35.3069 55.7666 36.3725L55.7656 36.7901C55.7646 37.4659 55.9003 37.8756 56.1797 38.0428C56.2656 38.0942 56.3604 38.12 56.4631 38.12C56.5929 38.12 56.7366 38.0794 56.8912 37.9983C57.2225 37.8251 57.5818 37.5421 57.6845 37.46L57.6895 37.456C57.7793 37.3779 57.8123 37.3036 57.8123 37.1819L57.8182 32.8074C57.8172 32.7114 57.7783 32.6323 57.7085 32.5907ZM57.2924 37.1196C57.1656 37.2126 56.9451 37.367 56.7435 37.4728C56.6557 37.5184 56.537 37.5649 56.4671 37.5233C56.3993 37.4827 56.2855 37.3195 56.2855 36.6862L56.2865 36.2686C56.2875 35.4602 56.4761 35.0011 56.8962 34.7805C57.002 34.725 57.1567 34.6568 57.2964 34.6053L57.2924 37.1196Z" fill="#EAEAEA"/>
<path d="M59.2412 33.0923C59.1774 33.0537 59.0995 33.0528 59.0307 33.0884L59.0038 33.1022C58.893 33.1606 58.8321 33.3031 58.8321 33.407L58.8281 36.5991C58.8281 36.6901 58.869 36.7683 58.9389 36.8098C58.9718 36.8296 59.0087 36.8395 59.0457 36.8395C59.0806 36.8395 59.1155 36.8306 59.1484 36.8138L59.1754 36.799C59.2861 36.7406 59.347 36.5981 59.347 36.4942L59.351 33.3021C59.351 33.2121 59.3101 33.1339 59.2412 33.0923Z" fill="#EAEAEA"/>
<path d="M59.2382 31.7717C59.1754 31.7341 59.0966 31.7321 59.0277 31.7677L59.0008 31.7816C58.889 31.8399 58.8291 31.9824 58.8291 32.0863L58.8281 32.5544C58.8281 32.6474 58.868 32.7245 58.9369 32.7661C58.9698 32.7859 59.0057 32.7958 59.0437 32.7958C59.0796 32.7958 59.1155 32.7869 59.1494 32.7691L59.1764 32.7552C59.2772 32.7028 59.348 32.5771 59.348 32.4505L59.349 31.9824C59.349 31.8914 59.3081 31.8122 59.2382 31.7717Z" fill="#EAEAEA"/>
</svg>
