<svg width="193" height="372" viewBox="0 0 193 372" fill="none" xmlns="http://www.w3.org/2000/svg">
<rect x="0.5" y="0.5" width="192" height="370" rx="19.5" stroke="#333333" stroke-opacity="0.1"/>
<rect x="14.5" y="66.5" width="164" height="85" rx="9.5" stroke="#333333" stroke-opacity="0.1"/>
<rect x="14.5" y="218.5" width="148" height="70" rx="9.5" stroke="#333333" stroke-opacity="0.1"/>
<rect x="14.5" y="157.5" width="78" height="31" rx="4.5" stroke="#333333" stroke-opacity="0.1"/>
<rect x="100.5" y="157.5" width="78" height="31" rx="4.5" stroke="#333333" stroke-opacity="0.1"/>
<rect x="24" y="76" width="58" height="66" rx="10" fill="#333333" fill-opacity="0.05"/>
<rect x="88" y="79" width="29" height="5" rx="2.5" fill="#333333" fill-opacity="0.05"/>
<rect x="27" y="230" width="29" height="5" rx="2.5" fill="#333333" fill-opacity="0.05"/>
<rect x="24" y="167" width="53" height="5" rx="2.5" fill="#333333" fill-opacity="0.05"/>
<rect x="110" y="167" width="53" height="5" rx="2.5" fill="#333333" fill-opacity="0.05"/>
<rect x="88" y="133" width="29" height="5" rx="2.5" fill="#333333" fill-opacity="0.1"/>
<rect x="124" y="268" width="29" height="5" rx="2.5" fill="#333333" fill-opacity="0.1"/>
<rect x="150" y="202" width="29" height="5" rx="2.5" fill="#333333" fill-opacity="0.1"/>
<rect x="131" y="125" width="40" height="15" rx="5" fill="#333333" fill-opacity="0.1"/>
<rect x="88" y="99" width="67" height="3" rx="1.5" fill="#333333" fill-opacity="0.05"/>
<rect x="27" y="265" width="67" height="3" rx="1.5" fill="#333333" fill-opacity="0.05"/>
<rect x="24" y="175" width="24" height="3" rx="1.5" fill="#333333" fill-opacity="0.05"/>
<rect x="110" y="175" width="24" height="3" rx="1.5" fill="#333333" fill-opacity="0.05"/>
<rect x="88" y="105" width="59" height="3" rx="1.5" fill="#333333" fill-opacity="0.05"/>
<rect x="27" y="273" width="67" height="3" rx="1.5" fill="#333333" fill-opacity="0.05"/>
<rect x="88" y="111" width="44" height="3" rx="1.5" fill="#333333" fill-opacity="0.05"/>
<rect x="88" y="89" width="78" height="5" rx="2.5" fill="#333333" fill-opacity="0.1"/>
<rect x="27" y="240" width="78" height="5" rx="2.5" fill="#333333" fill-opacity="0.1"/>
<path d="M169.5 228C169.5 222.753 173.753 218.5 179 218.5H192.5V288.5H179C173.753 288.5 169.5 284.247 169.5 279V228Z" stroke="#333333" stroke-opacity="0.1"/>
<path opacity="0.3" d="M16.19 207L14.28 201.28H15.58L17.25 206.4H16.59L18.34 201.28H19.52L21.19 206.4H20.56L22.27 201.28H23.49L21.58 207H20.23L18.72 202.47H19.07L17.55 207H16.19ZM24.6356 207V201.28H25.8956V203.58H28.6456V201.28H29.9056V207H28.6456V204.62H25.8956V207H24.6356ZM30.7273 207L33.3273 201.28H34.5773L37.1673 207H35.9173L33.7373 201.92H34.1573L31.9573 207H30.7273ZM32.0173 205.76L32.3573 204.8H35.3373L35.6773 205.76H32.0173ZM38.6837 207V202.31H36.8037V201.28H41.8237V202.31H39.9437V207H38.6837ZM42.871 203.97L43.361 202.04L43.521 202.79C43.2877 202.79 43.0943 202.717 42.941 202.57C42.7877 202.423 42.711 202.237 42.711 202.01C42.711 201.777 42.7877 201.587 42.941 201.44C43.0943 201.287 43.2843 201.21 43.511 201.21C43.751 201.21 43.9477 201.287 44.101 201.44C44.2543 201.587 44.331 201.777 44.331 202.01C44.331 202.077 44.3243 202.143 44.311 202.21C44.3043 202.277 44.2877 202.36 44.261 202.46C44.2343 202.56 44.1877 202.687 44.121 202.84L43.671 203.97H42.871ZM49.9301 205.31C49.9301 205.67 49.8301 205.983 49.6301 206.25C49.4367 206.517 49.1601 206.727 48.8001 206.88C48.4401 207.027 48.0001 207.1 47.4801 207.1C47.0334 207.1 46.5934 207.04 46.1601 206.92C45.7334 206.8 45.3901 206.643 45.1301 206.45L45.6001 205.47C45.8401 205.65 46.1334 205.793 46.4801 205.9C46.8267 206.007 47.1801 206.06 47.5401 206.06C47.9667 206.06 48.2634 205.997 48.4301 205.87C48.5967 205.743 48.6801 205.593 48.6801 205.42C48.6801 205.26 48.6167 205.133 48.4901 205.04C48.3701 204.947 48.2067 204.873 48.0001 204.82C47.8001 204.76 47.5801 204.707 47.3401 204.66C47.1001 204.607 46.8601 204.547 46.6201 204.48C46.3801 204.413 46.1601 204.32 45.9601 204.2C45.7601 204.08 45.5967 203.92 45.4701 203.72C45.3501 203.52 45.2901 203.267 45.2901 202.96C45.2901 202.607 45.3901 202.297 45.5901 202.03C45.7901 201.763 46.0701 201.557 46.4301 201.41C46.7967 201.263 47.2267 201.19 47.7201 201.19C48.0734 201.19 48.4267 201.23 48.7801 201.31C49.1401 201.383 49.4534 201.507 49.7201 201.68L49.2901 202.66C49.0367 202.493 48.7701 202.38 48.4901 202.32C48.2167 202.253 47.9467 202.22 47.6801 202.22C47.2801 202.22 46.9901 202.283 46.8101 202.41C46.6367 202.537 46.5501 202.697 46.5501 202.89C46.5501 203.05 46.6101 203.177 46.7301 203.27C46.8567 203.363 47.0201 203.44 47.2201 203.5C47.4201 203.553 47.6401 203.603 47.8801 203.65C48.1267 203.697 48.3667 203.757 48.6001 203.83C48.8401 203.897 49.0601 203.99 49.2601 204.11C49.4667 204.223 49.6301 204.377 49.7501 204.57C49.8701 204.763 49.9301 205.01 49.9301 205.31ZM53.8739 207V201.28H55.1339V203.58H57.8839V201.28H59.1439V207H57.8839V204.62H55.1339V207H53.8739ZM59.9656 207L62.5656 201.28H63.8156L66.4056 207H65.1556L62.9756 201.92H63.3956L61.1956 207H59.9656ZM61.2556 205.76L61.5956 204.8H64.5756L64.9156 205.76H61.2556ZM67.2235 207V201.28H69.6935C70.2068 201.28 70.6502 201.363 71.0235 201.53C71.3968 201.69 71.6835 201.923 71.8835 202.23C72.0902 202.537 72.1935 202.907 72.1935 203.34C72.1935 203.773 72.0902 204.147 71.8835 204.46C71.6835 204.767 71.3968 205.003 71.0235 205.17C70.6502 205.33 70.2068 205.41 69.6935 205.41H67.9235L68.4835 204.83V207H67.2235ZM68.4835 204.98L68.0235 204.39H69.6035C70.0435 204.39 70.3735 204.3 70.5935 204.12C70.8135 203.933 70.9235 203.673 70.9235 203.34C70.9235 203.007 70.8135 202.75 70.5935 202.57C70.3735 202.39 70.0435 202.3 69.6035 202.3H68.0235L68.4835 201.72V204.98ZM73.5126 207V201.28H75.9826C76.4959 201.28 76.9392 201.363 77.3126 201.53C77.6859 201.69 77.9726 201.923 78.1726 202.23C78.3792 202.537 78.4826 202.907 78.4826 203.34C78.4826 203.773 78.3792 204.147 78.1726 204.46C77.9726 204.767 77.6859 205.003 77.3126 205.17C76.9392 205.33 76.4959 205.41 75.9826 205.41H74.2126L74.7726 204.83V207H73.5126ZM74.7726 204.98L74.3126 204.39H75.8926C76.3326 204.39 76.6626 204.3 76.8826 204.12C77.1026 203.933 77.2126 203.673 77.2126 203.34C77.2126 203.007 77.1026 202.75 76.8826 202.57C76.6626 202.39 76.3326 202.3 75.8926 202.3H74.3126L74.7726 201.72V204.98ZM80.8916 203.61H83.7916V204.59H80.8916V203.61ZM81.0616 205.99H84.2416V207H79.8016V201.28H84.1316V202.3H81.0616V205.99ZM85.5438 207V201.28H86.5838L90.0338 205.46H89.5638V201.28H90.8138V207H89.7738L86.3238 202.82H86.8038V207H85.5438ZM92.5555 207V201.28H93.8155V207H92.5555ZM95.5536 207V201.28H96.5936L100.044 205.46H99.5736V201.28H100.824V207H99.7836L96.3336 202.82H96.8136V207H95.5536ZM107.565 206.37C107.372 206.523 107.149 206.657 106.895 206.77C106.649 206.877 106.389 206.957 106.115 207.01C105.842 207.07 105.565 207.1 105.285 207.1C104.672 207.1 104.122 206.973 103.635 206.72C103.155 206.46 102.779 206.107 102.505 205.66C102.232 205.213 102.095 204.707 102.095 204.14C102.095 203.573 102.232 203.07 102.505 202.63C102.779 202.183 103.152 201.833 103.625 201.58C104.105 201.32 104.649 201.19 105.255 201.19C105.789 201.19 106.255 201.27 106.655 201.43C107.055 201.583 107.389 201.823 107.655 202.15L106.835 202.94C106.629 202.707 106.395 202.537 106.135 202.43C105.875 202.317 105.589 202.26 105.275 202.26C104.909 202.26 104.579 202.34 104.285 202.5C103.999 202.66 103.772 202.883 103.605 203.17C103.445 203.45 103.365 203.773 103.365 204.14C103.365 204.507 103.449 204.833 103.615 205.12C103.782 205.407 104.012 205.63 104.305 205.79C104.599 205.95 104.935 206.03 105.315 206.03C105.615 206.03 105.889 205.983 106.135 205.89C106.389 205.797 106.625 205.657 106.845 205.47L107.565 206.37ZM106.375 206.38V204.09H107.565V206.37L106.375 206.38Z" fill="#172659"/>
<path d="M89.2987 25.3825L87.8944 24.5677C87.7538 24.4865 87.5771 24.5875 87.5771 24.7515V28.2542C87.5771 28.4183 87.7538 28.5192 87.8944 28.4381L89.2987 27.6233C89.3636 27.5854 89.4051 27.5151 89.4051 27.4394V25.5646C89.4051 25.4888 89.3654 25.4185 89.2987 25.3807" fill="#172659" fill-opacity="0.3"/>
<path d="M89.516 23.2567L91.1312 22.3247C91.1961 22.2868 91.2376 22.2183 91.2376 22.1426L91.2448 20.5093C91.2448 20.3453 91.0681 20.2443 90.9275 20.3255L87.8935 22.0777C87.7529 22.1588 87.7529 22.3625 87.8935 22.4437L89.3051 23.2585C89.37 23.2963 89.4511 23.2963 89.516 23.2585" fill="#172659" fill-opacity="0.3"/>
<path d="M89.3032 29.7375L87.8808 30.5596C87.7402 30.6407 87.7402 30.8426 87.8808 30.9255L90.9256 32.7102C91.0663 32.7931 91.2447 32.6904 91.2447 32.5263L91.2375 30.8624C91.2375 30.7867 91.1978 30.7182 91.1329 30.6803L89.5177 29.7393C89.4528 29.7015 89.3717 29.7015 89.305 29.7393" fill="#172659" fill-opacity="0.3"/>
<path d="M93.0742 32.1663L93.0796 33.7906C93.0796 33.8663 93.1193 33.9348 93.186 33.9727L96.649 35.9737C96.7139 36.0115 96.795 36.0115 96.8599 35.9737L100.321 33.9727C100.386 33.9348 100.426 33.8663 100.427 33.7906L100.435 32.1663C100.435 32.0023 100.258 31.8995 100.117 31.9825L96.8599 33.8573C96.795 33.8951 96.7139 33.8951 96.649 33.8573L93.3915 31.9825C93.2509 31.9013 93.0742 32.0041 93.0742 32.1663Z" fill="#172659" fill-opacity="0.3"/>
<path d="M100.433 25.561V27.4359C100.433 27.5116 100.394 27.5819 100.329 27.6197L96.8638 29.6316C96.7989 29.6694 96.716 29.6694 96.6511 29.6316L93.1863 27.6197C93.1214 27.5819 93.0799 27.5116 93.0799 27.4359V25.561C93.0799 25.4853 93.1196 25.415 93.1863 25.3772L96.6511 23.3888C96.716 23.3509 96.7971 23.3509 96.862 23.3888L100.327 25.3772C100.392 25.415 100.433 25.4853 100.433 25.561ZM91.252 24.501V28.4941C91.252 28.5698 91.2916 28.6401 91.3583 28.6779L96.6511 31.7353C96.716 31.7732 96.7971 31.7732 96.862 31.7353L102.155 28.6779C102.22 28.6401 102.261 28.5698 102.261 28.4941V24.501C102.261 24.4253 102.221 24.355 102.155 24.3172L96.862 21.2706C96.7971 21.2327 96.716 21.2327 96.6511 21.2706L91.3583 24.3172C91.2934 24.355 91.252 24.4253 91.252 24.501Z" fill="#172659" fill-opacity="0.3"/>
<path d="M104.216 27.623L105.62 28.4378C105.761 28.519 105.937 28.418 105.937 28.254V24.7513C105.937 24.589 105.761 24.4863 105.62 24.5674L104.216 25.3822C104.151 25.4201 104.109 25.4904 104.109 25.5661V27.4409C104.109 27.5167 104.149 27.587 104.216 27.6248" fill="#172659" fill-opacity="0.3"/>
<path d="M104.202 23.2582L105.614 22.4434C105.755 22.3623 105.755 22.1586 105.614 22.0775L102.58 20.3252C102.438 20.2441 102.261 20.3469 102.263 20.5091L102.27 22.1424C102.27 22.2181 102.311 22.2866 102.376 22.3244L103.992 23.2564C104.056 23.2943 104.138 23.2943 104.202 23.2564" fill="#172659" fill-opacity="0.3"/>
<path d="M103.99 29.7393L102.374 30.6803C102.31 30.7182 102.27 30.7867 102.27 30.8624L102.263 32.5263C102.263 32.6904 102.439 32.7931 102.582 32.7102L105.627 30.9255C105.767 30.8426 105.765 30.6407 105.627 30.5596L104.204 29.7393C104.139 29.7015 104.056 29.7015 103.992 29.7393" fill="#172659" fill-opacity="0.3"/>
<path d="M100.433 20.8375L100.425 19.2043C100.425 19.1286 100.384 19.0601 100.319 19.0222L96.856 17.0284C96.7911 16.9905 96.71 16.9905 96.6451 17.0284L93.1839 19.0222C93.119 19.0601 93.0775 19.1304 93.0775 19.2043L93.0703 20.8375C93.0703 21.0016 93.247 21.1025 93.3876 21.0214L96.6451 19.143C96.71 19.1051 96.7911 19.1051 96.856 19.143L100.114 21.0214C100.254 21.1025 100.431 20.9998 100.431 20.8375" fill="#172659" fill-opacity="0.3"/>
<path d="M70.7646 45.0879H67.0906V49.0016C67.0906 49.1332 66.9825 49.2413 66.8509 49.2413H66.2398C66.1082 49.2413 66 49.1332 66 49.0016V42.492C66 40.9002 66.8743 40.2656 68.549 40.2656C69.2557 40.2656 70.3806 40.2891 70.8836 40.3377C70.9557 40.3504 71.0025 40.4333 71.0025 40.5054V41.1039C71.0025 41.1868 70.9539 41.2481 70.8709 41.2481H68.5617C67.2926 41.2481 67.0888 41.5834 67.0888 42.492V44.1559H70.7628C70.8944 44.1559 71.0025 44.264 71.0025 44.3956V44.8499C71.0025 44.9815 70.8944 45.0897 70.7628 45.0897" fill="#172659" fill-opacity="0.3"/>
<path d="M73.1819 49.2438H72.6069C72.4753 49.2438 72.3671 49.1356 72.3671 49.004V42.9C72.3671 42.7684 72.4753 42.6602 72.6069 42.6602H73.1819C73.3135 42.6602 73.4217 42.7684 73.4217 42.9V49.004C73.4217 49.1356 73.3135 49.2438 73.1819 49.2438ZM73.2054 41.7102H72.5943C72.4627 41.7102 72.3545 41.602 72.3545 41.4704V40.5132C72.3545 40.3816 72.4627 40.2734 72.5943 40.2734H73.2054C73.337 40.2734 73.4451 40.3816 73.4451 40.5132V41.4704C73.4451 41.602 73.337 41.7102 73.2054 41.7102Z" fill="#172659" fill-opacity="0.3"/>
<path d="M79.777 49.2446H79.1551C79.0235 49.2446 78.9388 49.1364 78.9388 49.0048V44.7324C78.9388 43.8346 78.7116 43.4885 77.8968 43.4885H77.0477C76.2347 43.4885 76.0058 43.8364 76.0058 44.7324V49.0048C76.0058 49.1364 75.9228 49.2446 75.7894 49.2446H75.1675C75.0359 49.2446 74.9512 49.1364 74.9512 49.0048V44.7324C74.9512 42.89 76.2311 42.5781 77.0459 42.5781H77.895C78.708 42.5781 79.9898 42.89 79.9898 44.7324V49.0048C79.9898 49.1364 79.9068 49.2446 79.7752 49.2446" fill="#172659" fill-opacity="0.3"/>
<path d="M84.2993 49.2547C84.0722 49.2907 83.5818 49.3268 83.151 49.3268C82.0261 49.3268 81.3789 48.9554 81.3789 47.6629V41.4868C81.3789 41.366 81.4871 41.283 81.6187 41.2596L82.2046 41.1641H82.228C82.347 41.1641 82.4317 41.2722 82.4317 41.3912V42.6603H84.2993C84.4309 42.6603 84.5265 42.7432 84.5265 42.8766V43.2841C84.5265 43.403 84.4309 43.4986 84.2993 43.4986H82.4317V47.6629C82.4317 48.3569 82.6588 48.4759 83.3168 48.4759H84.2867C84.4543 48.4759 84.5373 48.5245 84.5373 48.6435V49.0509C84.5373 49.1591 84.4778 49.2312 84.2975 49.2547" fill="#172659" fill-opacity="0.3"/>
<path d="M95.5131 49.1959C95.1183 49.268 94.5793 49.3275 94.0168 49.3275C92.389 49.3275 91.4678 48.1792 91.4678 46.4197V45.4859C91.4678 43.7265 92.3781 42.5781 94.0168 42.5781C94.5666 42.5781 95.1183 42.6376 95.5131 42.7097C95.7042 42.7458 95.7528 42.8053 95.7528 42.9729V43.4038C95.7528 43.5227 95.6573 43.5822 95.5491 43.5822H95.5004C94.9741 43.5227 94.6027 43.4993 94.0168 43.4993C93.0596 43.4993 92.5206 44.1339 92.5206 45.4859V46.4197C92.5206 47.7609 93.0469 48.4063 94.0168 48.4063C94.6027 48.4063 94.9741 48.3829 95.5004 48.3216H95.5491C95.6573 48.3216 95.7528 48.3811 95.7528 48.5018V48.9327C95.7528 49.0877 95.7042 49.1598 95.5131 49.1959Z" fill="#172659" fill-opacity="0.3"/>
<path d="M101.651 49.2413H101.076C100.945 49.2413 100.836 49.1332 100.836 49.0016V44.9815C100.836 43.9882 100.357 43.4727 99.2806 43.4727C98.8011 43.4727 98.2747 43.5448 97.9052 43.6529V49.0016C97.9052 49.1332 97.797 49.2413 97.6654 49.2413H97.0904C96.9588 49.2413 96.8506 49.1332 96.8506 49.0016V40.4693C96.8506 40.3504 96.9353 40.2422 97.0669 40.2422H97.678C97.797 40.2422 97.9052 40.3377 97.9052 40.4693V42.7426C98.3126 42.647 98.8155 42.5749 99.2806 42.5749C101.076 42.5749 101.889 43.5574 101.889 44.9797V48.9998C101.889 49.1314 101.781 49.2395 101.649 49.2395" fill="#172659" fill-opacity="0.3"/>
<path d="M105.373 49.3117C104.594 49.3117 103.998 49.2287 103.518 49.1801C103.41 49.1674 103.302 49.1079 103.302 48.989V48.8339C103.302 48.715 103.41 48.6789 103.529 48.6789H103.577C104.199 48.7276 104.715 48.8105 105.373 48.8105C107.179 48.8105 107.599 48.0083 107.599 47.0276C107.599 46.1425 107.086 45.8306 105.757 45.005L105.003 44.5381C103.915 43.8674 103.125 43.2924 103.125 42.2288C103.125 40.6604 104.526 40.2891 105.925 40.2891C106.559 40.2891 107.194 40.3612 107.708 40.408C107.826 40.4207 107.911 40.4802 107.911 40.5883V40.7433C107.911 40.8623 107.816 40.911 107.684 40.911C107.421 40.911 106.523 40.792 105.912 40.792C104.333 40.792 103.662 41.2463 103.662 42.2396C103.662 42.9823 104.212 43.424 105.277 44.0712L106.044 44.5381C107.372 45.3403 108.149 45.9262 108.149 47.0276C108.149 48.1291 107.682 49.3135 105.373 49.3135" fill="#172659" fill-opacity="0.3"/>
<path d="M113.234 43.3779C112.803 43.3058 112.145 43.2229 111.57 43.2229C110.229 43.2229 109.751 44.1207 109.751 45.6638V46.4047C109.751 47.9478 110.231 48.8456 111.57 48.8456C112.145 48.8456 112.803 48.7627 113.234 48.6905V43.3761V43.3779ZM113.582 49.0871C113.056 49.1953 112.253 49.3143 111.572 49.3143C109.921 49.3143 109.227 48.1299 109.227 46.4065V45.6656C109.227 43.9422 109.921 42.7578 111.572 42.7578C112.253 42.7578 113.056 42.8768 113.582 42.985C113.726 43.021 113.762 43.0679 113.762 43.2121V48.8618C113.762 49.006 113.726 49.0529 113.582 49.0889" fill="#172659" fill-opacity="0.3"/>
<path d="M117.53 49.3095H117.303C116.49 49.3095 115.136 48.8786 115.136 46.9047V43.0396C115.136 42.9207 115.219 42.8125 115.339 42.8125H115.458C115.577 42.8125 115.662 42.9207 115.662 43.0396V46.9047C115.662 48.437 116.488 48.8192 117.303 48.8192H117.53C118.345 48.8192 119.17 48.437 119.17 46.9047V43.0396C119.17 42.9207 119.253 42.8125 119.374 42.8125H119.493C119.612 42.8125 119.697 42.9207 119.697 43.0396V46.9047C119.697 48.8786 118.345 49.3095 117.53 49.3095Z" fill="#172659" fill-opacity="0.3"/>
<path d="M124.903 43.3783C124.449 43.2828 123.706 43.2233 123.239 43.2233C121.923 43.2233 121.42 44.0363 121.42 45.6173V46.4069C121.42 47.95 121.9 48.8478 123.239 48.8478C123.814 48.8478 124.472 48.7648 124.903 48.6927V43.3783ZM125.251 49.0875C124.724 49.1957 123.922 49.3147 123.241 49.3147C121.59 49.3147 120.896 48.1303 120.896 46.4069V45.6173C120.896 43.7262 121.685 42.7564 123.241 42.7564C123.708 42.7564 124.425 42.8285 124.905 42.9367V40.5787C124.905 40.4597 124.988 40.3516 125.108 40.3516H125.227C125.346 40.3516 125.431 40.4597 125.431 40.5787V48.8604C125.431 49.0046 125.395 49.0515 125.251 49.0875Z" fill="#172659" fill-opacity="0.3"/>
<path d="M127.284 49.3117H127.212C127.093 49.3117 126.984 49.2035 126.984 49.0845V43.04C126.984 42.921 127.093 42.8129 127.212 42.8129H127.284C127.403 42.8129 127.511 42.921 127.511 43.04V49.0845C127.511 49.2035 127.403 49.3117 127.284 49.3117ZM127.284 41.6285H127.212C127.093 41.6285 126.984 41.5329 126.984 41.4013V40.5162C126.984 40.3972 127.093 40.2891 127.212 40.2891H127.284C127.403 40.2891 127.511 40.3972 127.511 40.5162V41.4013C127.511 41.5329 127.403 41.6285 127.284 41.6285Z" fill="#172659" fill-opacity="0.3"/>
<path d="M87.8289 42.5799C86.1181 42.5799 85.1807 43.8364 85.1807 45.5364V46.3746C85.1807 48.6731 86.6246 49.3311 88.0001 49.3311C88.8023 49.3311 89.3594 49.259 90.0426 49.1274C90.2337 49.0913 90.2661 49.0084 90.2661 48.8516V48.4442C90.2661 48.3252 90.2229 48.2044 90.1273 48.2044H90.0678C89.518 48.3919 88.7338 48.4081 88.0398 48.4081C86.9383 48.4081 86.311 47.8096 86.311 46.4341V45.4282C86.311 44.1952 86.9005 43.5011 87.9298 43.5011C88.9592 43.5011 89.5126 44.1483 89.5126 45.4282V45.567H87.0104C86.886 45.567 86.7851 45.668 86.7851 45.7924V46.0934C86.7851 46.2178 86.886 46.3188 87.0104 46.3188H90.2823C90.4266 46.3188 90.4536 46.18 90.4536 46.0249V45.522C90.4536 43.822 89.5757 42.5781 87.8289 42.5781" fill="#172659" fill-opacity="0.3"/>
<path d="M0 325H78C94.5685 325 108 338.431 108 355V371.08H20C8.95431 371.08 0 362.126 0 351.08V325Z" fill="#16275A"/>
<g clip-path="url(#clip0_6725_6330)">
<path d="M30.3337 354.036H27.667C27.4902 354.036 27.3206 353.966 27.1956 353.841C27.0706 353.716 27.0003 353.547 27.0003 353.37V350.703C27.0003 350.526 26.9301 350.357 26.8051 350.232C26.68 350.107 26.5105 350.036 26.3337 350.036C26.1568 350.036 25.9873 350.107 25.8623 350.232C25.7372 350.357 25.667 350.526 25.667 350.703V353.37C25.667 353.9 25.8777 354.409 26.2528 354.784C26.6279 355.159 27.1366 355.37 27.667 355.37H30.3337C30.5105 355.37 30.68 355.3 30.8051 355.175C30.9301 355.05 31.0003 354.88 31.0003 354.703C31.0003 354.526 30.9301 354.357 30.8051 354.232C30.68 354.107 30.5105 354.036 30.3337 354.036ZM39.667 350.036C39.4902 350.036 39.3206 350.107 39.1956 350.232C39.0706 350.357 39.0003 350.526 39.0003 350.703V353.37C39.0003 353.547 38.9301 353.716 38.8051 353.841C38.68 353.966 38.5105 354.036 38.3337 354.036H35.667C35.4902 354.036 35.3206 354.107 35.1956 354.232C35.0706 354.357 35.0003 354.526 35.0003 354.703C35.0003 354.88 35.0706 355.05 35.1956 355.175C35.3206 355.3 35.4902 355.37 35.667 355.37H38.3337C38.8641 355.37 39.3728 355.159 39.7479 354.784C40.1229 354.409 40.3337 353.9 40.3337 353.37V350.703C40.3337 350.526 40.2634 350.357 40.1384 350.232C40.0134 350.107 39.8438 350.036 39.667 350.036ZM38.3337 340.703H35.667C35.4902 340.703 35.3206 340.773 35.1956 340.898C35.0706 341.023 35.0003 341.193 35.0003 341.37C35.0003 341.547 35.0706 341.716 35.1956 341.841C35.3206 341.966 35.4902 342.036 35.667 342.036H38.3337C38.5105 342.036 38.68 342.107 38.8051 342.232C38.9301 342.357 39.0003 342.526 39.0003 342.703V345.37C39.0003 345.547 39.0706 345.716 39.1956 345.841C39.3206 345.966 39.4902 346.036 39.667 346.036C39.8438 346.036 40.0134 345.966 40.1384 345.841C40.2634 345.716 40.3337 345.547 40.3337 345.37V342.703C40.3337 342.173 40.1229 341.664 39.7479 341.289C39.3728 340.914 38.8641 340.703 38.3337 340.703ZM26.3337 346.036C26.5105 346.036 26.68 345.966 26.8051 345.841C26.9301 345.716 27.0003 345.547 27.0003 345.37V342.703C27.0003 342.526 27.0706 342.357 27.1956 342.232C27.3206 342.107 27.4902 342.036 27.667 342.036H30.3337C30.5105 342.036 30.68 341.966 30.8051 341.841C30.9301 341.716 31.0003 341.547 31.0003 341.37C31.0003 341.193 30.9301 341.023 30.8051 340.898C30.68 340.773 30.5105 340.703 30.3337 340.703H27.667C27.1366 340.703 26.6279 340.914 26.2528 341.289C25.8777 341.664 25.667 342.173 25.667 342.703V345.37C25.667 345.547 25.7372 345.716 25.8623 345.841C25.9873 345.966 26.1568 346.036 26.3337 346.036ZM31.667 343.37H29.0003C28.8235 343.37 28.6539 343.44 28.5289 343.565C28.4039 343.69 28.3337 343.86 28.3337 344.036V346.703C28.3337 346.88 28.4039 347.05 28.5289 347.175C28.6539 347.3 28.8235 347.37 29.0003 347.37H31.667C31.8438 347.37 32.0134 347.3 32.1384 347.175C32.2634 347.05 32.3337 346.88 32.3337 346.703V344.036C32.3337 343.86 32.2634 343.69 32.1384 343.565C32.0134 343.44 31.8438 343.37 31.667 343.37ZM31.0003 346.036H29.667V344.703H31.0003V346.036ZM34.3337 347.37H37.0003C37.1771 347.37 37.3467 347.3 37.4717 347.175C37.5968 347.05 37.667 346.88 37.667 346.703V344.036C37.667 343.86 37.5968 343.69 37.4717 343.565C37.3467 343.44 37.1771 343.37 37.0003 343.37H34.3337C34.1568 343.37 33.9873 343.44 33.8623 343.565C33.7372 343.69 33.667 343.86 33.667 344.036V346.703C33.667 346.88 33.7372 347.05 33.8623 347.175C33.9873 347.3 34.1568 347.37 34.3337 347.37ZM35.0003 344.703H36.3337V346.036H35.0003V344.703ZM31.667 348.703H29.0003C28.8235 348.703 28.6539 348.773 28.5289 348.898C28.4039 349.023 28.3337 349.193 28.3337 349.37V352.036C28.3337 352.213 28.4039 352.383 28.5289 352.508C28.6539 352.633 28.8235 352.703 29.0003 352.703H31.667C31.8438 352.703 32.0134 352.633 32.1384 352.508C32.2634 352.383 32.3337 352.213 32.3337 352.036V349.37C32.3337 349.193 32.2634 349.023 32.1384 348.898C32.0134 348.773 31.8438 348.703 31.667 348.703ZM31.0003 351.37H29.667V350.036H31.0003V351.37ZM34.3337 350.703C34.5105 350.703 34.68 350.633 34.8051 350.508C34.9301 350.383 35.0003 350.213 35.0003 350.036C35.1771 350.036 35.3467 349.966 35.4717 349.841C35.5968 349.716 35.667 349.547 35.667 349.37C35.667 349.193 35.5968 349.023 35.4717 348.898C35.3467 348.773 35.1771 348.703 35.0003 348.703H34.3337C34.1568 348.703 33.9873 348.773 33.8623 348.898C33.7372 349.023 33.667 349.193 33.667 349.37V350.036C33.667 350.213 33.7372 350.383 33.8623 350.508C33.9873 350.633 34.1568 350.703 34.3337 350.703ZM37.0003 348.703C36.8235 348.703 36.6539 348.773 36.5289 348.898C36.4039 349.023 36.3337 349.193 36.3337 349.37V351.37C36.1568 351.37 35.9873 351.44 35.8623 351.565C35.7372 351.69 35.667 351.86 35.667 352.036C35.667 352.213 35.7372 352.383 35.8623 352.508C35.9873 352.633 36.1568 352.703 36.3337 352.703H37.0003C37.1771 352.703 37.3467 352.633 37.4717 352.508C37.5968 352.383 37.667 352.213 37.667 352.036V349.37C37.667 349.193 37.5968 349.023 37.4717 348.898C37.3467 348.773 37.1771 348.703 37.0003 348.703ZM34.3337 351.37C34.2018 351.37 34.0729 351.409 33.9633 351.482C33.8536 351.555 33.7682 351.66 33.7177 351.781C33.6673 351.903 33.6541 352.037 33.6798 352.167C33.7055 352.296 33.769 352.415 33.8623 352.508C33.9555 352.601 34.0743 352.665 34.2036 352.69C34.3329 352.716 34.467 352.703 34.5888 352.652C34.7106 352.602 34.8147 352.516 34.888 352.407C34.9612 352.297 35.0003 352.168 35.0003 352.036C35.0003 351.86 34.9301 351.69 34.8051 351.565C34.68 351.44 34.5105 351.37 34.3337 351.37Z" fill="white"/>
</g>
<path d="M55.14 351.173C55.14 351.677 55 352.116 54.72 352.489C54.4493 352.862 54.062 353.156 53.558 353.371C53.054 353.576 52.438 353.679 51.71 353.679C51.0847 353.679 50.4687 353.595 49.862 353.427C49.2647 353.259 48.784 353.04 48.42 352.769L49.078 351.397C49.414 351.649 49.8247 351.85 50.31 351.999C50.7953 352.148 51.29 352.223 51.794 352.223C52.3913 352.223 52.8067 352.134 53.04 351.957C53.2733 351.78 53.39 351.57 53.39 351.327C53.39 351.103 53.3013 350.926 53.124 350.795C52.956 350.664 52.7273 350.562 52.438 350.487C52.158 350.403 51.85 350.328 51.514 350.263C51.178 350.188 50.842 350.104 50.506 350.011C50.17 349.918 49.862 349.787 49.582 349.619C49.302 349.451 49.0733 349.227 48.896 348.947C48.728 348.667 48.644 348.312 48.644 347.883C48.644 347.388 48.784 346.954 49.064 346.581C49.344 346.208 49.736 345.918 50.24 345.713C50.7533 345.508 51.3553 345.405 52.046 345.405C52.5407 345.405 53.0353 345.461 53.53 345.573C54.034 345.676 54.4727 345.848 54.846 346.091L54.244 347.463C53.8893 347.23 53.516 347.071 53.124 346.987C52.7413 346.894 52.3633 346.847 51.99 346.847C51.43 346.847 51.024 346.936 50.772 347.113C50.5293 347.29 50.408 347.514 50.408 347.785C50.408 348.009 50.492 348.186 50.66 348.317C50.8373 348.448 51.066 348.555 51.346 348.639C51.626 348.714 51.934 348.784 52.27 348.849C52.6153 348.914 52.9513 348.998 53.278 349.101C53.614 349.194 53.922 349.325 54.202 349.493C54.4913 349.652 54.72 349.866 54.888 350.137C55.056 350.408 55.14 350.753 55.14 351.173ZM60.5302 353.679C59.6902 353.679 58.9389 353.502 58.2762 353.147C57.6136 352.783 57.0909 352.288 56.7082 351.663C56.3256 351.038 56.1342 350.328 56.1342 349.535C56.1342 348.742 56.3256 348.037 56.7082 347.421C57.0909 346.796 57.6136 346.306 58.2762 345.951C58.9389 345.587 59.6902 345.405 60.5302 345.405C61.2582 345.405 61.8929 345.517 62.4342 345.741C62.9849 345.956 63.4516 346.296 63.8342 346.763L62.6862 347.855C62.4062 347.528 62.0889 347.29 61.7342 347.141C61.3796 346.982 60.9969 346.903 60.5862 346.903C60.0729 346.903 59.6109 347.015 59.2002 347.239C58.7989 347.463 58.4816 347.776 58.2482 348.177C58.0242 348.569 57.9122 349.022 57.9122 349.535C57.9122 350.048 58.0242 350.506 58.2482 350.907C58.4816 351.308 58.7989 351.621 59.2002 351.845C59.6109 352.069 60.0729 352.181 60.5862 352.181C60.9969 352.181 61.3796 352.102 61.7342 351.943C62.0889 351.784 62.4062 351.542 62.6862 351.215L63.8342 352.321C63.4516 352.778 62.9849 353.119 62.4342 353.343C61.8836 353.567 61.2489 353.679 60.5302 353.679ZM63.9398 353.539L67.5798 345.531H69.3298L72.9558 353.539H71.2058L68.1538 346.427H68.7418L65.6618 353.539H63.9398ZM65.7458 351.803L66.2218 350.459H70.3938L70.8698 351.803H65.7458ZM74.1008 353.539V345.531H75.5568L80.3868 351.383H79.7288V345.531H81.4788V353.539H80.0228L75.1928 347.687H75.8648V353.539H74.1008Z" fill="white"/>
<defs>
<clipPath id="clip0_6725_6330">
<rect width="16" height="16" fill="white" transform="translate(25 340.039)"/>
</clipPath>
</defs>
</svg>
