<svg width="172" height="327" viewBox="0 0 172 327" fill="none" xmlns="http://www.w3.org/2000/svg">
<path d="M161 204.5C161 203.119 162.119 202 163.5 202H171V207H163.5C162.119 207 161 205.881 161 204.5Z" fill="white" fill-opacity="0.05"/>
<path d="M161 235.5C161 234.672 161.672 234 162.5 234H171V237H162.5C161.672 237 161 236.328 161 235.5Z" fill="white" fill-opacity="0.05"/>
<path d="M161 242.5C161 241.672 161.672 241 162.5 241H171V244H162.5C161.672 244 161 243.328 161 242.5Z" fill="white" fill-opacity="0.05"/>
<path d="M161 213.5C161 212.119 162.119 211 163.5 211H171V216H163.5C162.119 216 161 214.881 161 213.5Z" fill="white" fill-opacity="0.1"/>
<path d="M9.4251 277.471C8.29142 276.822 6.89467 276.822 5.76099 277.471L0.997688 280.419C0.997688 281.509 0.997688 294.563 0.997688 295.861V304.036C0.997688 305.334 0.997688 305.489 0.997688 306.216V308.759H7.04347C9.79155 308.759 14.9213 308.759 16.2037 308.759L22.2617 305.811C23.3954 305.162 24.0938 303.963 24.0938 302.665V287.967C24.0938 286.669 23.3954 285.469 22.2617 284.82L9.4251 277.471Z" fill="#EAEAEA"/>
<path d="M12.2831 298.352H14.2151C14.3432 298.352 14.466 298.302 14.5566 298.212C14.6472 298.122 14.6981 298 14.6981 297.873V295.958C14.6981 295.83 14.749 295.709 14.8395 295.619C14.9301 295.529 15.053 295.479 15.1811 295.479C15.3092 295.479 15.432 295.529 15.5226 295.619C15.6132 295.709 15.6641 295.83 15.6641 295.958V297.873C15.6641 298.254 15.5114 298.62 15.2397 298.889C14.9679 299.159 14.5994 299.31 14.2151 299.31H12.2831C12.155 299.31 12.0321 299.26 11.9416 299.17C11.851 299.08 11.8001 298.958 11.8001 298.831C11.8001 298.704 11.851 298.582 11.9416 298.492C12.0321 298.403 12.155 298.352 12.2831 298.352ZM5.52114 295.479C5.64924 295.479 5.77209 295.529 5.86267 295.619C5.95325 295.709 6.00413 295.83 6.00413 295.958V297.873C6.00413 298 6.05502 298.122 6.1456 298.212C6.23618 298.302 6.35903 298.352 6.48713 298.352H8.41912C8.54722 298.352 8.67007 298.403 8.76065 298.492C8.85123 298.582 8.90211 298.704 8.90211 298.831C8.90211 298.958 8.85123 299.08 8.76065 299.17C8.67007 299.26 8.54722 299.31 8.41912 299.31H6.48713C6.10284 299.31 5.73428 299.159 5.46254 298.889C5.1908 298.62 5.03814 298.254 5.03814 297.873V295.958C5.03814 295.83 5.08903 295.709 5.17961 295.619C5.27019 295.529 5.39304 295.479 5.52114 295.479ZM6.48713 288.773H8.41912C8.54722 288.773 8.67007 288.824 8.76065 288.914C8.85123 289.004 8.90211 289.125 8.90211 289.252C8.90211 289.379 8.85123 289.501 8.76065 289.591C8.67007 289.681 8.54722 289.731 8.41912 289.731H6.48713C6.35903 289.731 6.23618 289.782 6.1456 289.872C6.05502 289.961 6.00413 290.083 6.00413 290.21V292.126C6.00413 292.253 5.95325 292.375 5.86267 292.465C5.77209 292.554 5.64924 292.605 5.52114 292.605C5.39304 292.605 5.27019 292.554 5.17961 292.465C5.08903 292.375 5.03814 292.253 5.03814 292.126V290.21C5.03814 289.829 5.1908 289.464 5.46254 289.194C5.73428 288.925 6.10284 288.773 6.48713 288.773ZM15.1811 292.605C15.053 292.605 14.9301 292.554 14.8395 292.465C14.749 292.375 14.6981 292.253 14.6981 292.126V290.21C14.6981 290.083 14.6472 289.961 14.5566 289.872C14.466 289.782 14.3432 289.731 14.2151 289.731H12.2831C12.155 289.731 12.0321 289.681 11.9416 289.591C11.851 289.501 11.8001 289.379 11.8001 289.252C11.8001 289.125 11.851 289.004 11.9416 288.914C12.0321 288.824 12.155 288.773 12.2831 288.773H14.2151C14.5994 288.773 14.9679 288.925 15.2397 289.194C15.5114 289.464 15.6641 289.829 15.6641 290.21V292.126C15.6641 292.253 15.6132 292.375 15.5226 292.465C15.432 292.554 15.3092 292.605 15.1811 292.605ZM11.3171 290.689H13.2491C13.3772 290.689 13.5 290.74 13.5906 290.829C13.6812 290.919 13.7321 291.041 13.7321 291.168V293.084C13.7321 293.211 13.6812 293.333 13.5906 293.423C13.5 293.512 13.3772 293.563 13.2491 293.563H11.3171C11.189 293.563 11.0661 293.512 10.9756 293.423C10.885 293.333 10.8341 293.211 10.8341 293.084V291.168C10.8341 291.041 10.885 290.919 10.9756 290.829C11.0661 290.74 11.189 290.689 11.3171 290.689ZM11.8001 292.605H12.7661V291.647H11.8001V292.605ZM9.38511 293.563H7.45312C7.32503 293.563 7.20217 293.512 7.11159 293.423C7.02101 293.333 6.97013 293.211 6.97013 293.084V291.168C6.97013 291.041 7.02101 290.919 7.11159 290.829C7.20217 290.74 7.32503 290.689 7.45312 290.689H9.38511C9.51321 290.689 9.63606 290.74 9.72664 290.829C9.81722 290.919 9.86811 291.041 9.86811 291.168V293.084C9.86811 293.211 9.81722 293.333 9.72664 293.423C9.63606 293.512 9.51321 293.563 9.38511 293.563ZM8.90211 291.647H7.93612V292.605H8.90211V291.647ZM11.3171 294.521H13.2491C13.3772 294.521 13.5 294.571 13.5906 294.661C13.6812 294.751 13.7321 294.873 13.7321 295V296.915C13.7321 297.042 13.6812 297.164 13.5906 297.254C13.5 297.344 13.3772 297.394 13.2491 297.394H11.3171C11.189 297.394 11.0661 297.344 10.9756 297.254C10.885 297.164 10.8341 297.042 10.8341 296.915V295C10.8341 294.873 10.885 294.751 10.9756 294.661C11.0661 294.571 11.189 294.521 11.3171 294.521ZM11.8001 296.436H12.7661V295.479H11.8001V296.436ZM9.38511 295.958C9.25701 295.958 9.13416 295.907 9.04358 295.817C8.953 295.727 8.90211 295.606 8.90211 295.479C8.77401 295.479 8.65116 295.428 8.56058 295.338C8.47 295.248 8.41912 295.127 8.41912 295C8.41912 294.873 8.47 294.751 8.56058 294.661C8.65116 294.571 8.77401 294.521 8.90211 294.521H9.38511C9.51321 294.521 9.63606 294.571 9.72664 294.661C9.81722 294.751 9.86811 294.873 9.86811 295V295.479C9.86811 295.606 9.81722 295.727 9.72664 295.817C9.63606 295.907 9.51321 295.958 9.38511 295.958ZM7.45312 294.521C7.58122 294.521 7.70407 294.571 7.79465 294.661C7.88523 294.751 7.93612 294.873 7.93612 295V296.436C8.06422 296.436 8.18707 296.487 8.27765 296.577C8.36823 296.667 8.41912 296.788 8.41912 296.915C8.41912 297.042 8.36823 297.164 8.27765 297.254C8.18707 297.344 8.06422 297.394 7.93612 297.394H7.45312C7.32503 297.394 7.20217 297.344 7.11159 297.254C7.02101 297.164 6.97013 297.042 6.97013 296.915V295C6.97013 294.873 7.02101 294.751 7.11159 294.661C7.20217 294.571 7.32503 294.521 7.45312 294.521ZM9.38511 296.436C9.48064 296.436 9.57402 296.465 9.65345 296.517C9.73288 296.57 9.79478 296.645 9.83134 296.732C9.8679 296.82 9.87746 296.916 9.85883 297.009C9.84019 297.102 9.79419 297.187 9.72664 297.254C9.65909 297.321 9.57303 297.367 9.47934 297.385C9.38565 297.404 9.28853 297.394 9.20027 297.358C9.11202 297.322 9.03658 297.26 8.98351 297.181C8.93044 297.103 8.90211 297.01 8.90211 296.915C8.90211 296.788 8.953 296.667 9.04358 296.577C9.13416 296.487 9.25701 296.436 9.38511 296.436Z" fill="black"/>
<rect x="0.5" y="0.5" width="170.444" height="325.794" rx="19.5" stroke="white" stroke-opacity="0.1"/>
<rect x="12.9453" y="58.6328" width="145.571" height="74.7527" rx="9.5" stroke="white" stroke-opacity="0.1"/>
<rect x="12.9453" y="192.531" width="131.358" height="61.5401" rx="9.5" stroke="white" stroke-opacity="0.1"/>
<rect x="12.9453" y="138.789" width="69.1765" height="27.1871" rx="4.5" stroke="white" stroke-opacity="0.1"/>
<rect x="89.3281" y="138.789" width="69.1765" height="27.1871" rx="4.5" stroke="white" stroke-opacity="0.1"/>
<rect x="21.3125" y="66.9453" width="51.522" height="58.1358" rx="10" fill="white" fill-opacity="0.05"/>
<rect x="78.1719" y="69.5781" width="25.761" height="4.40423" rx="2.20211" fill="white" fill-opacity="0.05"/>
<rect x="23.9766" y="202.602" width="25.761" height="4.40423" rx="2.20211" fill="white" fill-opacity="0.05"/>
<rect x="21.3125" y="147.094" width="47.0804" height="4.40423" rx="2.20211" fill="white" fill-opacity="0.05"/>
<rect x="97.7188" y="147.094" width="47.0804" height="4.40423" rx="2.20211" fill="white" fill-opacity="0.05"/>
<rect x="78.1719" y="117.156" width="25.761" height="4.40423" rx="2.20211" fill="white" fill-opacity="0.1"/>
<rect x="110.156" y="236.062" width="25.761" height="4.40423" rx="2.20211" fill="white" fill-opacity="0.1"/>
<rect x="133.25" y="177.938" width="25.761" height="4.40423" rx="2.20211" fill="white" fill-opacity="0.1"/>
<rect x="116.367" y="110.102" width="35.5324" height="13.2127" rx="5" fill="white" fill-opacity="0.1"/>
<rect x="78.1719" y="87.2031" width="59.5168" height="2.64254" rx="1.32127" fill="white" fill-opacity="0.05"/>
<rect x="23.9766" y="233.414" width="59.5168" height="2.64254" rx="1.32127" fill="white" fill-opacity="0.05"/>
<rect x="21.3125" y="154.156" width="21.3194" height="2.64254" rx="1.32127" fill="white" fill-opacity="0.05"/>
<rect x="97.7188" y="154.156" width="21.3194" height="2.64254" rx="1.32127" fill="white" fill-opacity="0.05"/>
<rect x="78.1719" y="92.4922" width="52.4103" height="2.64254" rx="1.32127" fill="white" fill-opacity="0.05"/>
<rect x="23.9766" y="240.469" width="59.5168" height="2.64254" rx="1.32127" fill="white" fill-opacity="0.05"/>
<rect x="78.1719" y="97.7734" width="39.0856" height="2.64254" rx="1.32127" fill="white" fill-opacity="0.05"/>
<rect x="78.1719" y="78.3984" width="69.2882" height="4.40423" rx="2.20211" fill="white" fill-opacity="0.1"/>
<rect x="23.9766" y="211.398" width="69.2882" height="4.40423" rx="2.20211" fill="white" fill-opacity="0.1"/>
<path d="M150.625 202.031C150.625 196.785 154.878 192.531 160.125 192.531H170.944V254.071H160.125C154.878 254.071 150.625 249.818 150.625 244.571V202.031Z" stroke="white" stroke-opacity="0.1"/>
<path opacity="0.3" d="M21.4553 177.873L19.5253 183.523H18.7753L17.1553 178.863L15.5353 183.523H14.7653L12.8353 177.873H13.5853L15.1753 182.593L16.8253 177.873H17.5053L19.1353 182.613L20.7553 177.873H21.4553ZM22.8996 177.873H23.6196V180.353H27.0496V177.873H27.7696V183.523H27.0496V180.963H23.6196V183.523H22.8996V177.873ZM33.3923 182.063H30.2223L29.5623 183.523H28.8423L31.4523 177.873H32.1623L34.7723 183.523H34.0523L33.3923 182.063ZM33.1323 181.483L31.8123 178.553L30.4823 181.483H33.1323ZM36.4773 178.473H34.4873V177.873H39.1873V178.473H37.1973V183.523H36.4773V178.473ZM40.7121 177.813C40.8654 177.813 40.9921 177.867 41.0921 177.973C41.1921 178.073 41.2421 178.2 41.2421 178.353C41.2421 178.433 41.2321 178.513 41.2121 178.593C41.1988 178.667 41.1688 178.77 41.1221 178.903L40.7621 180.043H40.2721L40.5521 178.843C40.4388 178.81 40.3488 178.75 40.2821 178.663C40.2154 178.577 40.1821 178.473 40.1821 178.353C40.1821 178.2 40.2321 178.073 40.3321 177.973C40.4321 177.867 40.5588 177.813 40.7121 177.813ZM44.4791 183.583C44.0458 183.583 43.6291 183.52 43.2291 183.393C42.8358 183.26 42.5258 183.087 42.2991 182.873L42.5991 182.313C42.8125 182.507 43.0891 182.667 43.4291 182.793C43.7758 182.913 44.1325 182.973 44.4991 182.973C44.9925 182.973 45.3558 182.887 45.5891 182.713C45.8291 182.54 45.9491 182.317 45.9491 182.043C45.9491 181.83 45.8825 181.66 45.7491 181.533C45.6158 181.4 45.4491 181.3 45.2491 181.233C45.0491 181.167 44.7791 181.093 44.4391 181.013C44.0125 180.913 43.6691 180.813 43.4091 180.713C43.1491 180.613 42.9258 180.46 42.7391 180.253C42.5591 180.04 42.4691 179.757 42.4691 179.403C42.4691 178.93 42.6591 178.547 43.0391 178.253C43.4191 177.953 43.9491 177.803 44.6291 177.803C44.9691 177.803 45.2991 177.847 45.6191 177.933C45.9458 178.02 46.2225 178.143 46.4491 178.303L46.1891 178.883C45.7558 178.577 45.2291 178.423 44.6091 178.423C44.1358 178.423 43.7791 178.513 43.5391 178.693C43.2991 178.867 43.1791 179.093 43.1791 179.373C43.1791 179.587 43.2458 179.76 43.3791 179.893C43.5125 180.02 43.6791 180.117 43.8791 180.183C44.0858 180.25 44.3625 180.323 44.7091 180.403C45.1291 180.503 45.4691 180.603 45.7291 180.703C45.9891 180.797 46.2091 180.947 46.3891 181.153C46.5758 181.36 46.6691 181.637 46.6691 181.983C46.6691 182.463 46.4758 182.85 46.0891 183.143C45.7091 183.437 45.1725 183.583 44.4791 183.583ZM50.7707 177.873H51.4907V180.353H54.9207V177.873H55.6407V183.523H54.9207V180.963H51.4907V183.523H50.7707V177.873ZM61.2634 182.063H58.0934L57.4334 183.523H56.7134L59.3234 177.873H60.0334L62.6434 183.523H61.9234L61.2634 182.063ZM61.0034 181.483L59.6834 178.553L58.3534 181.483H61.0034ZM65.9199 177.873C66.6533 177.873 67.2299 178.047 67.6499 178.393C68.0699 178.733 68.2799 179.21 68.2799 179.823C68.2799 180.437 68.0666 180.917 67.6399 181.263C67.2199 181.603 66.6466 181.773 65.9199 181.773H64.4399V183.523H63.7199V177.873H65.9199ZM65.8799 181.173C66.4199 181.173 66.8333 181.057 67.1199 180.823C67.4133 180.59 67.5599 180.257 67.5599 179.823C67.5599 179.39 67.4166 179.057 67.1299 178.823C66.8433 178.59 66.4266 178.473 65.8799 178.473H64.4399V181.173H65.8799ZM72.0918 177.873C72.8251 177.873 73.4018 178.047 73.8218 178.393C74.2418 178.733 74.4518 179.21 74.4518 179.823C74.4518 180.437 74.2385 180.917 73.8118 181.263C73.3918 181.603 72.8185 181.773 72.0918 181.773H70.6118V183.523H69.8918V177.873H72.0918ZM72.0518 181.173C72.5918 181.173 73.0051 181.057 73.2918 180.823C73.5851 180.59 73.7318 180.257 73.7318 179.823C73.7318 179.39 73.5885 179.057 73.3018 178.823C73.0151 178.59 72.5985 178.473 72.0518 178.473H70.6118V181.173H72.0518ZM80.1737 182.923V183.523H76.0637V177.873H80.0537V178.473H76.7837V180.363H79.7037V180.953H76.7837V182.923H80.1737ZM86.5977 177.873V183.523H85.9977L82.4477 179.113V183.523H81.7277V177.873H82.3277L85.8777 182.283V177.873H86.5977ZM88.7004 177.873H89.4204V183.523H88.7004V177.873ZM96.3927 177.873V183.523H95.7927L92.2427 179.113V183.523H91.5227V177.873H92.1227L95.6727 182.283V177.873H96.3927ZM102.415 180.693H103.105V182.863C102.845 183.097 102.529 183.277 102.155 183.403C101.789 183.523 101.402 183.583 100.995 183.583C100.415 183.583 99.892 183.46 99.4253 183.213C98.9586 182.96 98.592 182.613 98.3253 182.173C98.0586 181.733 97.9253 181.24 97.9253 180.693C97.9253 180.153 98.0553 179.663 98.3153 179.223C98.582 178.783 98.9453 178.437 99.4053 178.183C99.872 177.93 100.392 177.803 100.965 177.803C101.912 177.803 102.639 178.083 103.145 178.643L102.685 179.113C102.232 178.66 101.662 178.433 100.975 178.433C100.535 178.433 100.139 178.533 99.7853 178.733C99.432 178.927 99.152 179.197 98.9453 179.543C98.7453 179.883 98.6453 180.267 98.6453 180.693C98.6453 181.12 98.7453 181.507 98.9453 181.853C99.152 182.193 99.432 182.463 99.7853 182.663C100.145 182.857 100.552 182.953 101.005 182.953C101.552 182.953 102.022 182.82 102.415 182.553V180.693Z" fill="white"/>
<path d="M43.6233 24.1676L29.4964 16.1042C28.8897 15.7569 28.1423 15.7569 27.5346 16.1042L13.4078 24.1676C12.7971 24.5159 12.4219 25.16 12.4219 25.8586V35.889C12.4219 36.5856 12.7971 37.2288 13.4048 37.5781L27.5316 45.6681C28.1403 46.0164 28.8897 46.0164 29.4994 45.6681L43.6263 37.5781C44.235 37.2278 44.6092 36.5856 44.6092 35.889V25.8586C44.6092 25.16 44.234 24.5159 43.6233 24.1676Z" stroke="#EDEDED" stroke-width="2.0081" stroke-miterlimit="10"/>
<path d="M43.1677 32.3911C43.1478 30.5279 42.4802 29.7264 41.1281 30.4943C40.9684 30.5843 40.704 30.7693 40.4725 30.9484L40.4525 28.8972C40.4515 28.7676 40.3767 28.7013 40.2899 28.7508L39.3219 29.2999C39.2331 29.3494 39.1543 29.5018 39.1563 29.6314L39.2391 37.9461C39.2421 38.1361 39.274 38.2004 39.4906 38.1489C39.9486 38.0559 40.5822 37.8392 41.1989 37.4909C42.4962 36.7557 43.1967 35.2359 43.1767 33.3153L43.1677 32.3911ZM41.182 35.9137C40.9185 36.0631 40.678 36.163 40.5264 36.2145L40.4884 32.5138C40.68 32.3703 40.9515 32.1922 41.144 32.0834C41.7128 31.7608 41.8615 32.2961 41.8705 33.1253L41.8795 34.0505C41.8895 34.8925 41.7508 35.5911 41.182 35.9137Z" fill="#EAEAEA"/>
<path d="M38.4599 36.0149C38.4888 38.8023 37.0828 39.8245 36.5779 40.1114L36.4661 40.1738C35.9612 40.4597 34.5512 41.0336 34.5223 38.2462L34.4844 34.6059C34.4844 34.4743 34.5462 34.32 34.635 34.2695L35.62 33.7114C35.7078 33.6619 35.7796 33.7401 35.7816 33.8697L35.8195 37.5101C35.8305 38.6371 36.073 38.7618 36.4502 38.548L36.5619 38.4857C36.9391 38.272 37.1756 37.8752 37.1647 36.7481L37.1267 33.1078C37.1257 32.9782 37.1966 32.8179 37.2854 32.7684L38.2703 32.2104C38.3581 32.1599 38.423 32.242 38.424 32.3716L38.4599 36.0149Z" fill="#EAEAEA"/>
<path d="M33.792 41.338C33.792 41.4676 33.7212 41.616 33.6334 41.6655L32.6565 42.2186C32.5687 42.2691 32.4948 42.2038 32.4948 42.0722L32.4529 37.9332C32.4449 37.2573 32.2513 37.0931 31.7474 37.3781C31.5059 37.5146 31.2664 37.6858 31.0988 37.8411L31.1507 42.8212C31.1517 42.9508 31.0808 43.1111 30.992 43.1606L30.0241 43.7108C29.9353 43.7603 29.8554 43.687 29.8534 43.5564L29.7656 34.9459C29.7646 34.8163 29.8355 34.6679 29.9243 34.6184L30.9002 34.0633C30.989 34.0138 31.0619 34.0801 31.0629 34.2097L31.0838 36.3332C31.2994 36.1402 31.5877 35.8938 31.8991 35.7167C33.1384 35.0122 33.7322 35.596 33.7491 37.1831L33.792 41.338Z" fill="#EAEAEA"/>
<path d="M48.8961 25.3426C49.1526 24.9933 49.2923 24.5708 49.2933 24.1245V24.0552C49.2933 23.6515 49.1835 23.3804 48.966 23.2498C48.7056 23.0935 48.3373 23.1499 47.8075 23.4279C47.5251 23.5763 47.2277 23.7584 47.109 23.8326C47.0162 23.894 46.9513 24.0166 46.9513 24.1294L46.9453 28.5732C46.9453 28.6702 46.9772 28.7414 47.0411 28.783C47.0631 28.7978 47.102 28.8157 47.1529 28.8157C47.1808 28.8157 47.2117 28.8107 47.2467 28.7959C47.4652 28.7147 47.7147 28.6029 47.9502 28.4802C48.8383 28.0152 49.3083 27.277 49.3093 26.3469V26.24C49.3093 25.864 49.2215 25.5939 49.0468 25.4385C49.0009 25.397 48.951 25.3653 48.8961 25.3426ZM48.7734 24.2284C48.7724 24.7766 48.5389 25.1654 48.0589 25.4168L47.4672 25.7265L47.4692 24.2284C47.4981 24.2116 47.5291 24.1938 47.561 24.175C47.6837 24.1027 47.8234 24.0216 47.9552 23.9533C48.3114 23.7673 48.5469 23.7059 48.6577 23.7713C48.7335 23.8168 48.7744 23.9543 48.7744 24.1591L48.7734 24.2284ZM47.4672 26.3568L48.2076 25.9689C48.4132 25.861 48.5708 25.8294 48.6537 25.8789C48.7405 25.9313 48.7894 26.0956 48.7884 26.3429V26.4508C48.7874 27.3136 48.2884 27.6916 47.8005 27.9469C47.6718 28.0142 47.568 28.0617 47.4642 28.1072L47.4672 26.3568Z" fill="#EAEAEA"/>
<path d="M50.5378 26.7841C50.8022 26.9425 51.1096 26.8158 51.3181 26.706C51.4129 26.6565 51.5436 26.5754 51.6654 26.4893C51.6344 27.0374 51.4887 27.2057 51.1265 27.3956C50.8531 27.5391 50.5567 27.642 50.4659 27.6687L50.42 27.6895C50.3182 27.743 50.2574 27.8449 50.2574 27.9646V27.9963C50.2574 28.0289 50.2574 28.1298 50.3382 28.1922C50.3741 28.2199 50.417 28.2337 50.4659 28.2337C50.4899 28.2337 50.5148 28.2308 50.5418 28.2238C50.6366 28.2001 50.9419 28.0952 51.2752 27.9201C51.837 27.6252 52.1863 27.2225 52.1873 26.1222L52.1912 22.847C52.1912 22.752 52.1513 22.6728 52.0805 22.6313C52.0166 22.5927 51.9368 22.5917 51.8669 22.6283L51.849 22.6382C51.7472 22.6916 51.6724 22.8232 51.6724 22.9519L51.6684 25.8441C51.5167 25.9678 51.2832 26.1182 51.1694 26.1776C51.0018 26.2656 50.887 26.2934 50.8311 26.2597C50.7803 26.229 50.6605 26.0866 50.6615 25.4305L50.6635 23.6475C50.6635 23.5525 50.6236 23.4743 50.5527 23.4318C50.4889 23.3932 50.4091 23.3922 50.3382 23.4288L50.3192 23.4387C50.2175 23.4921 50.1436 23.6237 50.1426 23.7524L50.1406 25.5354C50.1406 26.2251 50.2664 26.6219 50.5378 26.7841Z" fill="#EAEAEA"/>
<path d="M49.0931 30.467C49.0352 30.4245 48.9624 30.4106 48.8935 30.4314L48.8766 30.4373C48.66 30.5214 48.204 30.75 47.9675 30.8747C47.2321 31.2596 46.8888 31.8513 46.8878 32.7349L46.8828 36.1744C46.8828 36.2842 46.9307 36.3752 47.0135 36.4257C47.0524 36.4495 47.0974 36.4613 47.1423 36.4613C47.1852 36.4613 47.2281 36.4504 47.268 36.4297L47.5005 36.308C47.6172 36.2466 47.6981 36.1031 47.6991 35.9587L47.7011 34.0114L48.9953 33.3336C49.112 33.2722 49.1929 33.1287 49.1929 32.9833V32.7428C49.1929 32.633 49.145 32.542 49.0622 32.4915C48.9853 32.446 48.8905 32.444 48.8077 32.4875L47.7021 33.0664L47.7031 32.5182C47.7031 32.0888 47.7569 31.9522 48.1581 31.7425L49.0382 31.2814C49.135 31.2309 49.1949 31.124 49.1949 31.0043V30.6877C49.1949 30.5957 49.1579 30.5155 49.0931 30.467Z" fill="#EAEAEA"/>
<path d="M50.1698 30.737C50.2087 30.7607 50.2536 30.7726 50.2985 30.7726C50.3414 30.7726 50.3843 30.7617 50.4242 30.7409L50.6567 30.6192C50.7735 30.5579 50.8553 30.4144 50.8553 30.2689L50.8563 29.7633C50.8563 29.6535 50.8084 29.5624 50.7256 29.512C50.6488 29.4665 50.554 29.4645 50.4711 29.508L50.2386 29.6297C50.1219 29.6911 50.041 29.8345 50.04 29.98L50.0391 30.4856C50.0391 30.5955 50.086 30.6875 50.1698 30.737Z" fill="#EAEAEA"/>
<path d="M50.1698 34.7597C50.2087 34.7834 50.2536 34.7953 50.2985 34.7953C50.3414 34.7953 50.3843 34.7844 50.4242 34.7636L50.6438 34.6488C50.7605 34.5875 50.8413 34.444 50.8423 34.2996L50.8463 31.0758C50.8463 30.966 50.7984 30.8749 50.7156 30.8245C50.6388 30.779 50.544 30.777 50.4612 30.8205L50.2416 30.9353C50.1249 30.9966 50.044 31.1401 50.043 31.2846L50.0391 34.5083C50.0391 34.6182 50.087 34.7092 50.1698 34.7597Z" fill="#EAEAEA"/>
<path d="M53.24 30.2446C53.251 30.2851 53.2649 30.3712 53.2649 30.5523L53.2619 32.8093C53.2619 32.9231 53.3088 33.0161 53.3907 33.0656C53.4645 33.1101 53.5563 33.1111 53.6381 33.0686L53.8756 32.9439C53.9904 32.8835 54.0642 32.749 54.0642 32.5986L54.0672 30.3415C54.0682 29.8498 53.9525 29.5411 53.713 29.3986C53.5154 29.2798 53.2609 29.2967 52.9756 29.4461L52.6522 29.6153C52.314 29.7924 51.7472 30.2525 51.7452 31.3469L51.7422 33.6039C51.7422 33.7177 51.7891 33.8107 51.8709 33.8602C51.9088 33.8829 51.9517 33.8938 51.9947 33.8938C52.0366 33.8938 52.0785 33.8839 52.1174 33.8631L52.3539 33.7394C52.4686 33.6791 52.5435 33.5435 52.5435 33.3941L52.5465 31.1371C52.5475 30.674 52.6323 30.5543 52.8378 30.4474L53.1612 30.2782C53.1971 30.2614 53.223 30.2505 53.24 30.2446Z" fill="#EAEAEA"/>
<path d="M56.3694 31.6614C56.4842 31.5792 56.5421 31.4734 56.5431 31.3457V31.131C56.5431 30.9974 56.4702 30.9331 56.4273 30.9074C56.3724 30.8747 56.2806 30.849 56.1529 30.9163L55.7837 31.1102C55.7687 31.1181 55.7558 31.1251 55.7438 31.13C55.7418 31.1053 55.7408 31.0736 55.7408 31.0331L55.7438 28.9531L56.3485 28.6365C56.4642 28.5762 56.5421 28.4416 56.5421 28.3021V28.0873C56.5421 27.9805 56.4962 27.8914 56.4174 27.8439C56.3405 27.7984 56.2477 27.7974 56.1619 27.8429L55.7448 28.0616V27.7222C55.7448 27.6114 55.6979 27.5204 55.6161 27.4709C55.5432 27.4274 55.4524 27.4254 55.3646 27.4709L55.1101 27.6579C55.0064 27.7381 54.9415 27.8627 54.9415 27.9825L54.9375 31.2448C54.9375 31.507 54.9654 31.8721 55.2169 32.0215C55.2917 32.0661 55.3726 32.0839 55.4524 32.0839C55.6161 32.0839 55.7807 32.0107 55.9054 31.9454C56.0851 31.8504 56.2776 31.7287 56.3694 31.6614Z" fill="#EAEAEA"/>
<path d="M59.0798 26.6543C58.9212 26.5593 58.6478 26.4901 58.2476 26.6989C57.5671 27.0551 57.127 27.9446 57.126 28.9658L57.125 29.4081C57.124 30.0611 57.2717 30.4678 57.575 30.6489C57.6599 30.7004 57.7776 30.7429 57.9313 30.7429C58.081 30.7429 58.2646 30.7013 58.4851 30.5866C58.8174 30.4124 59.0519 30.2452 59.3004 30.0483C59.4491 29.9325 59.468 29.8009 59.468 29.699V29.4843C59.468 29.3448 59.3852 29.2794 59.3503 29.2587C59.2754 29.2141 59.1846 29.2141 59.1028 29.2577L59.0529 29.2864C58.8553 29.4318 58.554 29.6337 58.2985 29.7673C58.1907 29.8237 58.1049 29.8415 58.064 29.8167C58.0421 29.8039 57.9353 29.7168 57.9293 29.2735L59.3503 28.5294C59.47 28.4671 59.5438 28.3295 59.5438 28.1692V27.9041C59.5448 27.2688 59.3842 26.8364 59.0798 26.6543ZM58.4352 27.5379C58.5071 27.5003 58.559 27.4875 58.5899 27.4875C58.6029 27.4875 58.6128 27.4895 58.6188 27.4934C58.6298 27.5003 58.7246 27.5696 58.7366 27.9793L57.9502 28.3909C58.0051 27.9773 58.1758 27.6735 58.4352 27.5379Z" fill="#EAEAEA"/>
<path d="M62.1791 24.8769C62.1142 24.8275 62.0324 24.8156 61.9346 24.8413C61.745 24.8928 61.5225 24.9818 61.3239 25.0867C60.6483 25.44 60.2452 26.2701 60.2432 27.3071L60.2422 27.7999C60.2412 28.4342 60.3999 28.8646 60.6992 29.0447C60.78 29.0931 60.8918 29.1347 61.0345 29.1347C61.1652 29.1347 61.3219 29.1001 61.5055 29.0031C61.7759 28.8616 61.9975 28.6993 62.1052 28.6152L62.1062 28.6142C62.224 28.5222 62.2739 28.4203 62.2739 28.2719V28.0443C62.2739 27.9444 62.23 27.8602 62.1541 27.8147C62.0803 27.7702 61.9855 27.7702 61.9037 27.8128L61.8647 27.8345C61.6592 27.975 61.5265 28.0542 61.3189 28.163C61.2351 28.2066 61.1862 28.2105 61.1682 28.1996C61.1632 28.1967 61.0435 28.1185 61.0435 27.5881L61.0445 27.0954C61.0455 26.4789 61.2021 26.0841 61.5095 25.9228C61.717 25.814 61.8488 25.7556 62.0513 25.6814L62.0942 25.6606C62.206 25.6022 62.2779 25.4795 62.2789 25.3499V25.1223C62.2798 25.0739 62.2798 24.9541 62.1791 24.8769Z" fill="#EAEAEA"/>
<path d="M64.9485 23.5791C64.716 23.4396 64.4146 23.4653 64.0524 23.6543C63.9726 23.6959 63.8947 23.7434 63.8229 23.7919L63.8239 22.9923C63.8239 22.8845 63.777 22.7945 63.6952 22.746C63.6193 22.7005 63.5245 22.6995 63.4427 22.742L63.2102 22.8637C63.0795 22.932 63.0216 23.0834 63.0216 23.2021L63.0156 27.7092C63.0156 27.8191 63.0635 27.9101 63.1463 27.9606C63.1853 27.9843 63.2302 27.9962 63.2751 27.9962C63.318 27.9962 63.3609 27.9853 63.4008 27.9645L63.6193 27.8497C63.7361 27.7884 63.8179 27.6449 63.8179 27.4995L63.8219 24.7625C63.9466 24.6577 64.1033 24.5518 64.24 24.4795C64.3827 24.4043 64.4486 24.4093 64.4625 24.4172C64.4635 24.4172 64.5384 24.4667 64.5384 24.7893L64.5354 26.9137C64.5354 27.0235 64.5833 27.1146 64.6661 27.165C64.7419 27.2105 64.8377 27.2125 64.9206 27.169L65.1391 27.0542C65.2558 26.9928 65.3367 26.8494 65.3377 26.7049L65.3407 24.5805C65.3397 24.0719 65.2079 23.7345 64.9485 23.5791Z" fill="#EAEAEA"/>
<path d="M48.1327 39.7701L47.8403 39.6761C47.4302 39.5455 47.3364 39.4534 47.3364 39.1823C47.3374 38.7123 47.5689 38.3917 48.1107 38.1077C48.2435 38.0385 48.4181 37.9692 48.5588 37.9128C48.6586 37.8732 48.7384 37.8416 48.7853 37.8168C48.8941 37.7594 48.9569 37.6605 48.9569 37.5437V37.4616C48.9569 37.3538 48.9 37.2993 48.8671 37.2766C48.8332 37.2538 48.7623 37.2212 48.6616 37.2607L48.5757 37.2944C48.3911 37.3666 48.1816 37.4478 47.966 37.5606C47.2017 37.9613 46.8135 38.5401 46.8125 39.2832C46.8115 39.9512 47.2017 40.1352 47.6357 40.2787L47.9371 40.3796C48.4271 40.5448 48.5159 40.5755 48.5149 40.9248C48.5149 41.3186 48.4271 41.8173 47.7505 42.1716C47.5888 42.2567 47.4501 42.3091 47.3035 42.3655C47.2306 42.3932 47.1568 42.4219 47.0789 42.4545L47.057 42.4654L47.1318 42.605L47.048 42.4704C46.9392 42.5278 46.8764 42.6247 46.8764 42.7375V42.8197C46.8764 42.9275 46.9332 42.9829 46.9672 43.0067C47.0021 43.0304 47.042 43.0423 47.0859 43.0423C47.1149 43.0423 47.1458 43.0364 47.1757 43.0255C47.2087 43.0126 47.2436 42.9998 47.2795 42.9869C47.4442 42.9255 47.6487 42.8494 47.9002 42.7178C48.6586 42.321 49.0437 41.6808 49.0447 40.817C49.0447 40.1134 48.6306 39.9264 48.1327 39.7701Z" fill="#EAEAEA"/>
<path d="M51.6436 37.0449C51.5398 37.0696 51.1746 37.1646 50.8403 37.3397C50.2086 37.6702 49.8604 38.4321 49.8594 39.484V39.8758C49.8584 40.5516 49.9941 40.9613 50.2735 41.1285C50.3593 41.1799 50.4541 41.2057 50.5569 41.2057C50.6866 41.2057 50.8303 41.1651 50.985 41.084C51.3163 40.9108 51.6755 40.6278 51.7773 40.5457L51.7823 40.5417C51.8711 40.4635 51.905 40.3893 51.905 40.2676L51.909 37.2833C51.909 37.2388 51.909 37.1458 51.8342 37.0835C51.7863 37.0439 51.7254 37.03 51.6436 37.0449ZM51.3861 40.2043C51.2584 40.2983 51.0379 40.4527 50.8373 40.5575C50.7495 40.6031 50.6307 40.6496 50.5609 40.608C50.493 40.5674 50.3793 40.4042 50.3793 39.7709V39.3791C50.3803 38.5528 50.5689 38.0858 50.99 37.8661C51.1267 37.7939 51.2714 37.7365 51.3901 37.695L51.3861 40.2043Z" fill="#EAEAEA"/>
<path d="M54.8044 35.4188C54.7435 35.3822 54.6677 35.3812 54.6018 35.4159L54.5559 35.4396C54.4442 35.498 54.3933 35.6365 54.3933 35.7404L54.3903 37.7827C54.3893 38.3824 54.2027 38.797 53.8485 38.982L53.7616 39.0275C53.6978 39.0611 53.581 39.1106 53.5152 39.072C53.4812 39.0522 53.3705 38.9493 53.3715 38.4833L53.3745 36.441C53.3745 36.345 53.3345 36.2658 53.2657 36.2243C53.2048 36.1877 53.129 36.1867 53.0631 36.2213L53.0172 36.2451C52.9055 36.3034 52.8546 36.442 52.8546 36.5459L52.8516 38.5882C52.8506 39.1077 52.9753 39.4461 53.2228 39.5945C53.3096 39.6459 53.4094 39.6726 53.5162 39.6726C53.6409 39.6726 53.7756 39.637 53.9103 39.5668L53.9971 39.5213C54.4372 39.2907 54.9082 38.6861 54.9092 37.6788L54.9122 35.6375C54.9142 35.5386 54.8743 35.4604 54.8044 35.4188Z" fill="#EAEAEA"/>
<path d="M57.7085 32.5907C57.6476 32.5541 57.5718 32.5531 57.5059 32.5878L57.46 32.6115C57.3483 32.6699 57.2974 32.8084 57.2974 32.9113L57.2964 34.0344C57.1048 34.0898 56.8882 34.1798 56.7475 34.254C56.0979 34.5944 55.7676 35.3069 55.7666 36.3725L55.7656 36.7901C55.7646 37.4659 55.9003 37.8756 56.1797 38.0428C56.2656 38.0942 56.3604 38.12 56.4631 38.12C56.5929 38.12 56.7366 38.0794 56.8912 37.9983C57.2225 37.8251 57.5818 37.5421 57.6845 37.46L57.6895 37.456C57.7793 37.3779 57.8123 37.3036 57.8123 37.1819L57.8182 32.8074C57.8172 32.7114 57.7783 32.6323 57.7085 32.5907ZM57.2924 37.1196C57.1656 37.2126 56.9451 37.367 56.7435 37.4728C56.6557 37.5184 56.537 37.5649 56.4671 37.5233C56.3993 37.4827 56.2855 37.3195 56.2855 36.6862L56.2865 36.2686C56.2875 35.4602 56.4761 35.0011 56.8962 34.7805C57.002 34.725 57.1567 34.6568 57.2964 34.6053L57.2924 37.1196Z" fill="#EAEAEA"/>
<path d="M59.2412 33.0923C59.1774 33.0537 59.0995 33.0528 59.0307 33.0884L59.0038 33.1022C58.893 33.1606 58.8321 33.3031 58.8321 33.407L58.8281 36.5991C58.8281 36.6901 58.869 36.7683 58.9389 36.8098C58.9718 36.8296 59.0087 36.8395 59.0457 36.8395C59.0806 36.8395 59.1155 36.8306 59.1484 36.8138L59.1754 36.799C59.2861 36.7406 59.347 36.5981 59.347 36.4942L59.351 33.3021C59.351 33.2121 59.3101 33.1339 59.2412 33.0923Z" fill="#EAEAEA"/>
<path d="M59.2382 31.7717C59.1754 31.7341 59.0966 31.7321 59.0277 31.7677L59.0008 31.7816C58.889 31.8399 58.8291 31.9824 58.8291 32.0863L58.8281 32.5544C58.8281 32.6474 58.868 32.7245 58.9369 32.7661C58.9698 32.7859 59.0057 32.7958 59.0437 32.7958C59.0796 32.7958 59.1155 32.7869 59.1494 32.7691L59.1764 32.7552C59.2772 32.7028 59.348 32.5771 59.348 32.4505L59.349 31.9824C59.349 31.8914 59.3081 31.8122 59.2382 31.7717Z" fill="#EAEAEA"/>
</svg>
