<svg width="172" height="327" viewBox="0 0 172 327" fill="none" xmlns="http://www.w3.org/2000/svg">
<rect x="1" y="1" width="169.444" height="324.794" rx="19" fill="#1D1D1D" fill-opacity="0.05" stroke="#16275A" stroke-width="2"/>
<rect x="12.0469" y="58.6328" width="145.571" height="74.7527" rx="9.5" stroke="white" stroke-opacity="0.1"/>
<rect x="12.0469" y="192.531" width="131.358" height="61.5401" rx="9.5" stroke="white" stroke-opacity="0.1"/>
<rect x="12.0469" y="138.789" width="69.1765" height="27.1871" rx="4.5" stroke="white" stroke-opacity="0.1"/>
<rect x="88.4375" y="138.789" width="69.1765" height="27.1871" rx="4.5" stroke="white" stroke-opacity="0.1"/>
<rect x="20.4297" y="66.9453" width="51.522" height="58.1358" rx="10" fill="white" fill-opacity="0.05"/>
<rect x="77.2812" y="69.5781" width="25.761" height="4.40423" rx="2.20211" fill="white" fill-opacity="0.05"/>
<rect x="23.1016" y="202.602" width="25.761" height="4.40423" rx="2.20211" fill="white" fill-opacity="0.05"/>
<rect x="20.4297" y="147.094" width="47.0804" height="4.40423" rx="2.20211" fill="white" fill-opacity="0.05"/>
<rect x="96.8281" y="147.094" width="47.0804" height="4.40423" rx="2.20211" fill="white" fill-opacity="0.05"/>
<rect x="77.2812" y="117.156" width="25.761" height="4.40423" rx="2.20211" fill="white" fill-opacity="0.1"/>
<rect x="109.266" y="236.062" width="25.761" height="4.40423" rx="2.20211" fill="white" fill-opacity="0.1"/>
<rect x="132.359" y="177.938" width="25.761" height="4.40423" rx="2.20211" fill="white" fill-opacity="0.1"/>
<rect x="115.477" y="110.102" width="35.5324" height="13.2127" rx="5" fill="white" fill-opacity="0.1"/>
<rect x="77.2812" y="87.2031" width="59.5168" height="2.64254" rx="1.32127" fill="white" fill-opacity="0.05"/>
<rect x="23.1016" y="233.414" width="59.5168" height="2.64254" rx="1.32127" fill="white" fill-opacity="0.05"/>
<rect x="20.4297" y="154.156" width="21.3194" height="2.64254" rx="1.32127" fill="white" fill-opacity="0.05"/>
<rect x="96.8281" y="154.156" width="21.3194" height="2.64254" rx="1.32127" fill="white" fill-opacity="0.05"/>
<rect x="77.2812" y="92.4922" width="52.4103" height="2.64254" rx="1.32127" fill="white" fill-opacity="0.05"/>
<rect x="23.1016" y="240.469" width="59.5168" height="2.64254" rx="1.32127" fill="white" fill-opacity="0.05"/>
<rect x="77.2812" y="97.7734" width="39.0856" height="2.64254" rx="1.32127" fill="white" fill-opacity="0.05"/>
<rect x="77.2812" y="78.3984" width="69.2882" height="4.40423" rx="2.20211" fill="white" fill-opacity="0.1"/>
<rect x="23.1016" y="211.398" width="69.2882" height="4.40423" rx="2.20211" fill="white" fill-opacity="0.1"/>
<path d="M149.734 202.031C149.734 196.785 153.988 192.531 159.234 192.531H170.054V254.071H159.234C153.988 254.071 149.734 249.818 149.734 244.571V202.031Z" stroke="white" stroke-opacity="0.1"/>
<path opacity="0.3" d="M20.5569 177.873L18.6269 183.523H17.8769L16.2569 178.863L14.6369 183.523H13.8669L11.9369 177.873H12.6869L14.2769 182.593L15.9269 177.873H16.6069L18.2369 182.613L19.8569 177.873H20.5569ZM22.0012 177.873H22.7212V180.353H26.1512V177.873H26.8712V183.523H26.1512V180.963H22.7212V183.523H22.0012V177.873ZM32.4938 182.063H29.3238L28.6638 183.523H27.9438L30.5538 177.873H31.2638L33.8738 183.523H33.1538L32.4938 182.063ZM32.2338 181.483L30.9138 178.553L29.5838 181.483H32.2338ZM35.5788 178.473H33.5888V177.873H38.2888V178.473H36.2988V183.523H35.5788V178.473ZM39.8137 177.813C39.967 177.813 40.0937 177.867 40.1937 177.973C40.2937 178.073 40.3437 178.2 40.3437 178.353C40.3437 178.433 40.3337 178.513 40.3137 178.593C40.3003 178.667 40.2703 178.77 40.2237 178.903L39.8637 180.043H39.3737L39.6537 178.843C39.5403 178.81 39.4503 178.75 39.3837 178.663C39.317 178.577 39.2837 178.473 39.2837 178.353C39.2837 178.2 39.3337 178.073 39.4337 177.973C39.5337 177.867 39.6603 177.813 39.8137 177.813ZM43.5807 183.583C43.1474 183.583 42.7307 183.52 42.3307 183.393C41.9374 183.26 41.6274 183.087 41.4007 182.873L41.7007 182.313C41.914 182.507 42.1907 182.667 42.5307 182.793C42.8774 182.913 43.234 182.973 43.6007 182.973C44.094 182.973 44.4574 182.887 44.6907 182.713C44.9307 182.54 45.0507 182.317 45.0507 182.043C45.0507 181.83 44.984 181.66 44.8507 181.533C44.7174 181.4 44.5507 181.3 44.3507 181.233C44.1507 181.167 43.8807 181.093 43.5407 181.013C43.114 180.913 42.7707 180.813 42.5107 180.713C42.2507 180.613 42.0274 180.46 41.8407 180.253C41.6607 180.04 41.5707 179.757 41.5707 179.403C41.5707 178.93 41.7607 178.547 42.1407 178.253C42.5207 177.953 43.0507 177.803 43.7307 177.803C44.0707 177.803 44.4007 177.847 44.7207 177.933C45.0474 178.02 45.324 178.143 45.5507 178.303L45.2907 178.883C44.8574 178.577 44.3307 178.423 43.7107 178.423C43.2374 178.423 42.8807 178.513 42.6407 178.693C42.4007 178.867 42.2807 179.093 42.2807 179.373C42.2807 179.587 42.3474 179.76 42.4807 179.893C42.614 180.02 42.7807 180.117 42.9807 180.183C43.1874 180.25 43.464 180.323 43.8107 180.403C44.2307 180.503 44.5707 180.603 44.8307 180.703C45.0907 180.797 45.3107 180.947 45.4907 181.153C45.6774 181.36 45.7707 181.637 45.7707 181.983C45.7707 182.463 45.5774 182.85 45.1907 183.143C44.8107 183.437 44.274 183.583 43.5807 183.583ZM49.8723 177.873H50.5923V180.353H54.0223V177.873H54.7423V183.523H54.0223V180.963H50.5923V183.523H49.8723V177.873ZM60.3649 182.063H57.1949L56.5349 183.523H55.8149L58.4249 177.873H59.1349L61.7449 183.523H61.0249L60.3649 182.063ZM60.1049 181.483L58.7849 178.553L57.4549 181.483H60.1049ZM65.0215 177.873C65.7548 177.873 66.3315 178.047 66.7515 178.393C67.1715 178.733 67.3815 179.21 67.3815 179.823C67.3815 180.437 67.1682 180.917 66.7415 181.263C66.3215 181.603 65.7482 181.773 65.0215 181.773H63.5415V183.523H62.8215V177.873H65.0215ZM64.9815 181.173C65.5215 181.173 65.9348 181.057 66.2215 180.823C66.5148 180.59 66.6615 180.257 66.6615 179.823C66.6615 179.39 66.5182 179.057 66.2315 178.823C65.9448 178.59 65.5282 178.473 64.9815 178.473H63.5415V181.173H64.9815ZM71.1934 177.873C71.9267 177.873 72.5034 178.047 72.9234 178.393C73.3434 178.733 73.5534 179.21 73.5534 179.823C73.5534 180.437 73.34 180.917 72.9134 181.263C72.4934 181.603 71.92 181.773 71.1934 181.773H69.7134V183.523H68.9934V177.873H71.1934ZM71.1534 181.173C71.6934 181.173 72.1067 181.057 72.3934 180.823C72.6867 180.59 72.8334 180.257 72.8334 179.823C72.8334 179.39 72.69 179.057 72.4034 178.823C72.1167 178.59 71.7 178.473 71.1534 178.473H69.7134V181.173H71.1534ZM79.2752 182.923V183.523H75.1652V177.873H79.1552V178.473H75.8852V180.363H78.8052V180.953H75.8852V182.923H79.2752ZM85.6993 177.873V183.523H85.0993L81.5493 179.113V183.523H80.8293V177.873H81.4293L84.9793 182.283V177.873H85.6993ZM87.802 177.873H88.522V183.523H87.802V177.873ZM95.4942 177.873V183.523H94.8942L91.3442 179.113V183.523H90.6242V177.873H91.2242L94.7742 182.283V177.873H95.4942ZM101.517 180.693H102.207V182.863C101.947 183.097 101.63 183.277 101.257 183.403C100.89 183.523 100.504 183.583 100.097 183.583C99.5169 183.583 98.9935 183.46 98.5269 183.213C98.0602 182.96 97.6935 182.613 97.4269 182.173C97.1602 181.733 97.0269 181.24 97.0269 180.693C97.0269 180.153 97.1569 179.663 97.4169 179.223C97.6835 178.783 98.0469 178.437 98.5069 178.183C98.9735 177.93 99.4935 177.803 100.067 177.803C101.014 177.803 101.74 178.083 102.247 178.643L101.787 179.113C101.334 178.66 100.764 178.433 100.077 178.433C99.6369 178.433 99.2402 178.533 98.8869 178.733C98.5335 178.927 98.2535 179.197 98.0469 179.543C97.8469 179.883 97.7469 180.267 97.7469 180.693C97.7469 181.12 97.8469 181.507 98.0469 181.853C98.2535 182.193 98.5335 182.463 98.8869 182.663C99.2469 182.857 99.6535 182.953 100.107 182.953C100.654 182.953 101.124 182.82 101.517 182.553V180.693Z" fill="white"/>
<path d="M160.669 278.487C161.802 277.838 163.199 277.838 164.333 278.487L169.096 281.435C169.096 282.525 169.096 295.578 169.096 296.876V305.051C169.096 306.349 169.096 306.505 169.096 307.231V309.775H163.05C160.302 309.775 155.172 309.775 153.89 309.775L147.832 306.827C146.698 306.178 146 304.978 146 303.68V288.982C146 287.684 146.698 286.485 147.832 285.836L160.669 278.487Z" fill="black"/>
<path d="M157.811 299.368H155.879C155.751 299.368 155.628 299.317 155.537 299.228C155.447 299.138 155.396 299.016 155.396 298.889V296.973C155.396 296.846 155.345 296.724 155.254 296.634C155.164 296.545 155.041 296.494 154.913 296.494C154.785 296.494 154.662 296.545 154.571 296.634C154.481 296.724 154.43 296.846 154.43 296.973V298.889C154.43 299.27 154.582 299.635 154.854 299.905C155.126 300.174 155.494 300.326 155.879 300.326H157.811C157.939 300.326 158.062 300.275 158.152 300.185C158.243 300.096 158.294 299.974 158.294 299.847C158.294 299.72 158.243 299.598 158.152 299.508C158.062 299.418 157.939 299.368 157.811 299.368ZM164.573 296.494C164.445 296.494 164.322 296.545 164.231 296.634C164.141 296.724 164.09 296.846 164.09 296.973V298.889C164.09 299.016 164.039 299.138 163.948 299.228C163.858 299.317 163.735 299.368 163.607 299.368H161.675C161.547 299.368 161.424 299.418 161.333 299.508C161.243 299.598 161.192 299.72 161.192 299.847C161.192 299.974 161.243 300.096 161.333 300.185C161.424 300.275 161.547 300.326 161.675 300.326H163.607C163.991 300.326 164.359 300.174 164.631 299.905C164.903 299.635 165.056 299.27 165.056 298.889V296.973C165.056 296.846 165.005 296.724 164.914 296.634C164.824 296.545 164.701 296.494 164.573 296.494ZM163.607 289.789H161.675C161.547 289.789 161.424 289.84 161.333 289.929C161.243 290.019 161.192 290.141 161.192 290.268C161.192 290.395 161.243 290.517 161.333 290.607C161.424 290.696 161.547 290.747 161.675 290.747H163.607C163.735 290.747 163.858 290.797 163.948 290.887C164.039 290.977 164.09 291.099 164.09 291.226V293.142C164.09 293.269 164.141 293.39 164.231 293.48C164.322 293.57 164.445 293.621 164.573 293.621C164.701 293.621 164.824 293.57 164.914 293.48C165.005 293.39 165.056 293.269 165.056 293.142V291.226C165.056 290.845 164.903 290.479 164.631 290.21C164.359 289.94 163.991 289.789 163.607 289.789ZM154.913 293.621C155.041 293.621 155.164 293.57 155.254 293.48C155.345 293.39 155.396 293.269 155.396 293.142V291.226C155.396 291.099 155.447 290.977 155.537 290.887C155.628 290.797 155.751 290.747 155.879 290.747H157.811C157.939 290.747 158.062 290.696 158.152 290.607C158.243 290.517 158.294 290.395 158.294 290.268C158.294 290.141 158.243 290.019 158.152 289.929C158.062 289.84 157.939 289.789 157.811 289.789H155.879C155.494 289.789 155.126 289.94 154.854 290.21C154.582 290.479 154.43 290.845 154.43 291.226V293.142C154.43 293.269 154.481 293.39 154.571 293.48C154.662 293.57 154.785 293.621 154.913 293.621ZM158.777 291.705H156.845C156.717 291.705 156.594 291.755 156.503 291.845C156.413 291.935 156.362 292.057 156.362 292.184V294.1C156.362 294.227 156.413 294.348 156.503 294.438C156.594 294.528 156.717 294.578 156.845 294.578H158.777C158.905 294.578 159.028 294.528 159.118 294.438C159.209 294.348 159.26 294.227 159.26 294.1V292.184C159.26 292.057 159.209 291.935 159.118 291.845C159.028 291.755 158.905 291.705 158.777 291.705ZM158.294 293.621H157.328V292.663H158.294V293.621ZM160.709 294.578H162.641C162.769 294.578 162.892 294.528 162.982 294.438C163.073 294.348 163.124 294.227 163.124 294.1V292.184C163.124 292.057 163.073 291.935 162.982 291.845C162.892 291.755 162.769 291.705 162.641 291.705H160.709C160.581 291.705 160.458 291.755 160.367 291.845C160.277 291.935 160.226 292.057 160.226 292.184V294.1C160.226 294.227 160.277 294.348 160.367 294.438C160.458 294.528 160.581 294.578 160.709 294.578ZM161.192 292.663H162.158V293.621H161.192V292.663ZM158.777 295.536H156.845C156.717 295.536 156.594 295.587 156.503 295.677C156.413 295.766 156.362 295.888 156.362 296.015V297.931C156.362 298.058 156.413 298.18 156.503 298.27C156.594 298.359 156.717 298.41 156.845 298.41H158.777C158.905 298.41 159.028 298.359 159.118 298.27C159.209 298.18 159.26 298.058 159.26 297.931V296.015C159.26 295.888 159.209 295.766 159.118 295.677C159.028 295.587 158.905 295.536 158.777 295.536ZM158.294 297.452H157.328V296.494H158.294V297.452ZM160.709 296.973C160.837 296.973 160.96 296.923 161.05 296.833C161.141 296.743 161.192 296.621 161.192 296.494C161.32 296.494 161.443 296.444 161.533 296.354C161.624 296.264 161.675 296.142 161.675 296.015C161.675 295.888 161.624 295.766 161.533 295.677C161.443 295.587 161.32 295.536 161.192 295.536H160.709C160.581 295.536 160.458 295.587 160.367 295.677C160.277 295.766 160.226 295.888 160.226 296.015V296.494C160.226 296.621 160.277 296.743 160.367 296.833C160.458 296.923 160.581 296.973 160.709 296.973ZM162.641 295.536C162.513 295.536 162.39 295.587 162.299 295.677C162.209 295.766 162.158 295.888 162.158 296.015V297.452C162.03 297.452 161.907 297.503 161.816 297.592C161.726 297.682 161.675 297.804 161.675 297.931C161.675 298.058 161.726 298.18 161.816 298.27C161.907 298.359 162.03 298.41 162.158 298.41H162.641C162.769 298.41 162.892 298.359 162.982 298.27C163.073 298.18 163.124 298.058 163.124 297.931V296.015C163.124 295.888 163.073 295.766 162.982 295.677C162.892 295.587 162.769 295.536 162.641 295.536ZM160.709 297.452C160.613 297.452 160.52 297.48 160.44 297.533C160.361 297.585 160.299 297.66 160.262 297.748C160.226 297.835 160.216 297.932 160.235 298.024C160.254 298.117 160.3 298.203 160.367 298.27C160.435 298.337 160.521 298.382 160.614 298.401C160.708 298.419 160.805 298.41 160.893 298.373C160.982 298.337 161.057 298.276 161.11 298.197C161.163 298.118 161.192 298.026 161.192 297.931C161.192 297.804 161.141 297.682 161.05 297.592C160.96 297.503 160.837 297.452 160.709 297.452Z" fill="white"/>
<path d="M42.7483 24.1676L28.6214 16.1042C28.0147 15.7569 27.2673 15.7569 26.6596 16.1042L12.5328 24.1676C11.9221 24.5159 11.5469 25.16 11.5469 25.8586V35.889C11.5469 36.5856 11.9221 37.2288 12.5298 37.5781L26.6566 45.6681C27.2653 46.0164 28.0147 46.0164 28.6244 45.6681L42.7513 37.5781C43.36 37.2278 43.7342 36.5856 43.7342 35.889V25.8586C43.7342 25.16 43.359 24.5159 42.7483 24.1676Z" stroke="black" stroke-width="2.0081" stroke-miterlimit="10"/>
<path d="M42.2849 32.3911C42.265 30.5279 41.5974 29.7264 40.2453 30.4943C40.0856 30.5843 39.8212 30.7693 39.5897 30.9484L39.5697 28.8972C39.5687 28.7676 39.4939 28.7013 39.4071 28.7508L38.4391 29.2999C38.3503 29.3494 38.2715 29.5018 38.2735 29.6314L38.3563 37.9461C38.3593 38.1361 38.3912 38.2004 38.6078 38.1489C39.0658 38.0559 39.6994 37.8392 40.3161 37.4909C41.6133 36.7557 42.3139 35.2359 42.2939 33.3153L42.2849 32.3911ZM40.2992 35.9137C40.0357 36.0631 39.7952 36.163 39.6435 36.2145L39.6056 32.5138C39.7972 32.3703 40.0686 32.1922 40.2612 32.0834C40.83 31.7608 40.9787 32.2961 40.9877 33.1253L40.9967 34.0505C41.0066 34.8925 40.8679 35.5911 40.2992 35.9137Z" fill="black"/>
<path d="M37.5771 36.0149C37.606 38.8023 36.2 39.8245 35.6951 40.1114L35.5833 40.1738C35.0784 40.4597 33.6684 41.0336 33.6395 38.2462L33.6016 34.6059C33.6016 34.4743 33.6634 34.32 33.7522 34.2695L34.7371 33.7114C34.825 33.6619 34.8968 33.7401 34.8988 33.8697L34.9367 37.5101C34.9477 38.6371 35.1902 38.7618 35.5674 38.548L35.6791 38.4857C36.0563 38.272 36.2928 37.8752 36.2818 36.7481L36.2439 33.1078C36.2429 32.9782 36.3138 32.8179 36.4026 32.7684L37.3875 32.2104C37.4753 32.1599 37.5402 32.242 37.5412 32.3716L37.5771 36.0149Z" fill="black"/>
<path d="M32.9092 41.338C32.9092 41.4676 32.8384 41.616 32.7506 41.6655L31.7737 42.2186C31.6858 42.2691 31.612 42.2038 31.612 42.0722L31.5701 37.9332C31.5621 37.2573 31.3685 37.0931 30.8646 37.3781C30.6231 37.5146 30.3836 37.6858 30.216 37.8411L30.2679 42.8212C30.2689 42.9508 30.198 43.1111 30.1092 43.1606L29.1413 43.7108C29.0525 43.7603 28.9726 43.687 28.9706 43.5564L28.8828 34.9459C28.8818 34.8163 28.9527 34.6679 29.0415 34.6184L30.0174 34.0633C30.1062 34.0138 30.1791 34.0801 30.1801 34.2097L30.201 36.3332C30.4166 36.1402 30.7049 35.8938 31.0163 35.7167C32.2556 35.0122 32.8494 35.596 32.8663 37.1831L32.9092 41.338Z" fill="black"/>
<path d="M47.9977 25.3426C48.2542 24.9933 48.3939 24.5708 48.3949 24.1245V24.0552C48.3949 23.6515 48.2851 23.3804 48.0676 23.2498C47.8071 23.0935 47.4389 23.1499 46.909 23.4279C46.6266 23.5763 46.3293 23.7584 46.2105 23.8326C46.1177 23.894 46.0529 24.0166 46.0529 24.1294L46.0469 28.5732C46.0469 28.6702 46.0788 28.7414 46.1427 28.783C46.1646 28.7978 46.2035 28.8157 46.2544 28.8157C46.2824 28.8157 46.3133 28.8107 46.3482 28.7959C46.5668 28.7147 46.8162 28.6029 47.0517 28.4802C47.9398 28.0152 48.4098 27.277 48.4108 26.3469V26.24C48.4108 25.864 48.323 25.5939 48.1484 25.4385C48.1025 25.397 48.0526 25.3653 47.9977 25.3426ZM47.875 24.2284C47.874 24.7766 47.6405 25.1654 47.1605 25.4168L46.5688 25.7265L46.5708 24.2284C46.5997 24.2116 46.6306 24.1938 46.6626 24.175C46.7853 24.1027 46.925 24.0216 47.0567 23.9533C47.413 23.7673 47.6485 23.7059 47.7592 23.7713C47.8351 23.8168 47.876 23.9543 47.876 24.1591L47.875 24.2284ZM46.5688 26.3568L47.3092 25.9689C47.5147 25.861 47.6724 25.8294 47.7552 25.8789C47.842 25.9313 47.8909 26.0956 47.8899 26.3429V26.4508C47.8889 27.3136 47.39 27.6916 46.902 27.9469C46.7733 28.0142 46.6695 28.0617 46.5658 28.1072L46.5688 26.3568Z" fill="black"/>
<path d="M49.6393 26.7841C49.9038 26.9425 50.2111 26.8158 50.4197 26.706C50.5145 26.6565 50.6452 26.5754 50.7669 26.4893C50.736 27.0374 50.5903 27.2057 50.2281 27.3956C49.9547 27.5391 49.6583 27.642 49.5675 27.6687L49.5216 27.6895C49.4198 27.743 49.3589 27.8449 49.3589 27.9646V27.9963C49.3589 28.0289 49.3589 28.1298 49.4398 28.1922C49.4757 28.2199 49.5186 28.2337 49.5675 28.2337C49.5914 28.2337 49.6164 28.2308 49.6433 28.2238C49.7381 28.2001 50.0435 28.0952 50.3768 27.9201C50.9386 27.6252 51.2878 27.2225 51.2888 26.1222L51.2928 22.847C51.2928 22.752 51.2529 22.6728 51.182 22.6313C51.1182 22.5927 51.0383 22.5917 50.9685 22.6283L50.9505 22.6382C50.8488 22.6916 50.7739 22.8232 50.7739 22.9519L50.7699 25.8441C50.6182 25.9678 50.3847 26.1182 50.271 26.1776C50.1033 26.2656 49.9886 26.2934 49.9327 26.2597C49.8818 26.229 49.7621 26.0866 49.7631 25.4305L49.7651 23.6475C49.7651 23.5525 49.7252 23.4743 49.6543 23.4318C49.5904 23.3932 49.5106 23.3922 49.4398 23.4288L49.4208 23.4387C49.319 23.4921 49.2452 23.6237 49.2442 23.7524L49.2422 25.5354C49.2422 26.2251 49.3679 26.6219 49.6393 26.7841Z" fill="black"/>
<path d="M48.1946 30.467C48.1368 30.4245 48.0639 30.4106 47.9951 30.4314L47.9781 30.4373C47.7616 30.5214 47.3056 30.75 47.0691 30.8747C46.3336 31.2596 45.9904 31.8513 45.9894 32.7349L45.9844 36.1744C45.9844 36.2842 46.0323 36.3752 46.1151 36.4257C46.154 36.4495 46.1989 36.4613 46.2438 36.4613C46.2867 36.4613 46.3296 36.4504 46.3696 36.4297L46.6021 36.308C46.7188 36.2466 46.7996 36.1031 46.8006 35.9587L46.8026 34.0114L48.0969 33.3336C48.2136 33.2722 48.2944 33.1287 48.2944 32.9833V32.7428C48.2944 32.633 48.2465 32.542 48.1637 32.4915C48.0869 32.446 47.9921 32.444 47.9093 32.4875L46.8036 33.0664L46.8046 32.5182C46.8046 32.0888 46.8585 31.9522 47.2596 31.7425L48.1398 31.2814C48.2366 31.2309 48.2964 31.124 48.2964 31.0043V30.6877C48.2964 30.5957 48.2595 30.5155 48.1946 30.467Z" fill="black"/>
<path d="M49.2713 30.737C49.3103 30.7607 49.3552 30.7726 49.4001 30.7726C49.443 30.7726 49.4859 30.7617 49.5258 30.7409L49.7583 30.6192C49.8751 30.5579 49.9569 30.4144 49.9569 30.2689L49.9579 29.7633C49.9579 29.6535 49.91 29.5624 49.8272 29.512C49.7503 29.4665 49.6555 29.4645 49.5727 29.508L49.3402 29.6297C49.2234 29.6911 49.1426 29.8345 49.1416 29.98L49.1406 30.4856C49.1406 30.5955 49.1875 30.6875 49.2713 30.737Z" fill="black"/>
<path d="M49.2713 34.7597C49.3103 34.7834 49.3552 34.7953 49.4001 34.7953C49.443 34.7953 49.4859 34.7844 49.5258 34.7636L49.7453 34.6488C49.8621 34.5875 49.9429 34.444 49.9439 34.2996L49.9479 31.0758C49.9479 30.966 49.9 30.8749 49.8172 30.8245C49.7403 30.779 49.6455 30.777 49.5627 30.8205L49.3432 30.9353C49.2264 30.9966 49.1456 31.1401 49.1446 31.2846L49.1406 34.5083C49.1406 34.6182 49.1885 34.7092 49.2713 34.7597Z" fill="black"/>
<path d="M52.3416 30.2446C52.3525 30.2851 52.3665 30.3712 52.3665 30.5523L52.3635 32.8093C52.3635 32.9231 52.4104 33.0161 52.4922 33.0656C52.5661 33.1101 52.6579 33.1111 52.7397 33.0686L52.9772 32.9439C53.092 32.8835 53.1658 32.749 53.1658 32.5986L53.1688 30.3415C53.1698 29.8498 53.054 29.5411 52.8145 29.3986C52.617 29.2798 52.3625 29.2967 52.0771 29.4461L51.7538 29.6153C51.4155 29.7924 50.8487 30.2525 50.8467 31.3469L50.8438 33.6039C50.8438 33.7177 50.8907 33.8107 50.9725 33.8602C51.0104 33.8829 51.0533 33.8938 51.0962 33.8938C51.1381 33.8938 51.18 33.8839 51.219 33.8631L51.4554 33.7394C51.5702 33.6791 51.645 33.5435 51.645 33.3941L51.648 31.1371C51.649 30.674 51.7338 30.5543 51.9394 30.4474L52.2627 30.2782C52.2986 30.2614 52.3246 30.2505 52.3416 30.2446Z" fill="black"/>
<path d="M55.471 31.6614C55.5858 31.5792 55.6436 31.4734 55.6446 31.3457V31.131C55.6446 30.9974 55.5718 30.9331 55.5289 30.9074C55.474 30.8747 55.3822 30.849 55.2545 30.9163L54.8853 31.1102C54.8703 31.1181 54.8573 31.1251 54.8454 31.13C54.8434 31.1053 54.8424 31.0736 54.8424 31.0331L54.8454 28.9531L55.4501 28.6365C55.5658 28.5762 55.6436 28.4416 55.6436 28.3021V28.0873C55.6436 27.9805 55.5977 27.8914 55.5189 27.8439C55.4421 27.7984 55.3493 27.7974 55.2635 27.8429L54.8463 28.0616V27.7222C54.8463 27.6114 54.7994 27.5204 54.7176 27.4709C54.6448 27.4274 54.554 27.4254 54.4662 27.4709L54.2117 27.6579C54.1079 27.7381 54.0431 27.8627 54.0431 27.9825L54.0391 31.2448C54.0391 31.507 54.067 31.8721 54.3185 32.0215C54.3933 32.0661 54.4741 32.0839 54.554 32.0839C54.7176 32.0839 54.8823 32.0107 55.007 31.9454C55.1866 31.8504 55.3792 31.7287 55.471 31.6614Z" fill="black"/>
<path d="M58.1814 26.6543C58.0227 26.5593 57.7493 26.4901 57.3492 26.6989C56.6686 27.0551 56.2286 27.9446 56.2276 28.9658L56.2266 29.4081C56.2256 30.0611 56.3733 30.4678 56.6766 30.6489C56.7614 30.7004 56.8792 30.7429 57.0329 30.7429C57.1825 30.7429 57.3661 30.7013 57.5867 30.5866C57.919 30.4124 58.1535 30.2452 58.4019 30.0483C58.5506 29.9325 58.5696 29.8009 58.5696 29.699V29.4843C58.5696 29.3448 58.4868 29.2794 58.4518 29.2587C58.377 29.2141 58.2862 29.2141 58.2044 29.2577L58.1545 29.2864C57.9569 29.4318 57.6555 29.6337 57.4001 29.7673C57.2923 29.8237 57.2065 29.8415 57.1656 29.8167C57.1436 29.8039 57.0368 29.7168 57.0309 29.2735L58.4518 28.5294C58.5716 28.4671 58.6454 28.3295 58.6454 28.1692V27.9041C58.6464 27.2688 58.4858 26.8364 58.1814 26.6543ZM57.5368 27.5379C57.6086 27.5003 57.6605 27.4875 57.6914 27.4875C57.7044 27.4875 57.7144 27.4895 57.7204 27.4934C57.7314 27.5003 57.8262 27.5696 57.8381 27.9793L57.0518 28.3909C57.1067 27.9773 57.2773 27.6735 57.5368 27.5379Z" fill="black"/>
<path d="M61.2806 24.8769C61.2158 24.8275 61.1339 24.8156 61.0361 24.8413C60.8465 24.8928 60.624 24.9818 60.4254 25.0867C59.7499 25.44 59.3467 26.2701 59.3448 27.3071L59.3438 27.7999C59.3428 28.4342 59.5014 28.8646 59.8008 29.0447C59.8816 29.0931 59.9934 29.1347 60.1361 29.1347C60.2668 29.1347 60.4235 29.1001 60.6071 29.0031C60.8775 28.8616 61.099 28.6993 61.2068 28.6152L61.2078 28.6142C61.3255 28.5222 61.3754 28.4203 61.3754 28.2719V28.0443C61.3754 27.9444 61.3315 27.8602 61.2557 27.8147C61.1818 27.7702 61.087 27.7702 61.0052 27.8128L60.9663 27.8345C60.7607 27.975 60.628 28.0542 60.4205 28.163C60.3366 28.2066 60.2877 28.2105 60.2698 28.1996C60.2648 28.1967 60.145 28.1185 60.145 27.5881L60.146 27.0954C60.147 26.4789 60.3037 26.0841 60.611 25.9228C60.8186 25.814 60.9503 25.7556 61.1529 25.6814L61.1958 25.6606C61.3076 25.6022 61.3794 25.4795 61.3804 25.3499V25.1223C61.3814 25.0739 61.3814 24.9541 61.2806 24.8769Z" fill="black"/>
<path d="M64.0501 23.5791C63.8176 23.4396 63.5162 23.4653 63.154 23.6543C63.0741 23.6959 62.9963 23.7434 62.9245 23.7919L62.9255 22.9923C62.9255 22.8845 62.8786 22.7945 62.7967 22.746C62.7209 22.7005 62.6261 22.6995 62.5443 22.742L62.3118 22.8637C62.181 22.932 62.1232 23.0834 62.1232 23.2021L62.1172 27.7092C62.1172 27.8191 62.1651 27.9101 62.2479 27.9606C62.2868 27.9843 62.3317 27.9962 62.3766 27.9962C62.4195 27.9962 62.4624 27.9853 62.5024 27.9645L62.7209 27.8497C62.8376 27.7884 62.9195 27.6449 62.9195 27.4995L62.9235 24.7625C63.0482 24.6577 63.2049 24.5518 63.3416 24.4795C63.4843 24.4043 63.5501 24.4093 63.5641 24.4172C63.5651 24.4172 63.6399 24.4667 63.6399 24.7893L63.6369 26.9137C63.6369 27.0235 63.6848 27.1146 63.7677 27.165C63.8435 27.2105 63.9393 27.2125 64.0221 27.169L64.2407 27.0542C64.3574 26.9928 64.4382 26.8494 64.4392 26.7049L64.4422 24.5805C64.4412 24.0719 64.3095 23.7345 64.0501 23.5791Z" fill="black"/>
<path d="M47.2342 39.7701L46.9419 39.6761C46.5318 39.5455 46.4379 39.4534 46.4379 39.1823C46.4389 38.7123 46.6705 38.3917 47.2123 38.1077C47.345 38.0385 47.5196 37.9692 47.6603 37.9128C47.7601 37.8732 47.84 37.8416 47.8869 37.8168C47.9956 37.7594 48.0585 37.6605 48.0585 37.5437V37.4616C48.0585 37.3538 48.0016 37.2993 47.9687 37.2766C47.9348 37.2538 47.8639 37.2212 47.7631 37.2607L47.6773 37.2944C47.4927 37.3666 47.2831 37.4478 47.0676 37.5606C46.3032 37.9613 45.9151 38.5401 45.9141 39.2832C45.9131 39.9512 46.3032 40.1352 46.7373 40.2787L47.0387 40.3796C47.5286 40.5448 47.6174 40.5755 47.6164 40.9248C47.6164 41.3186 47.5286 41.8173 46.8521 42.1716C46.6904 42.2567 46.5517 42.3091 46.405 42.3655C46.3322 42.3932 46.2583 42.4219 46.1805 42.4545L46.1586 42.4654L46.2334 42.605L46.1496 42.4704C46.0408 42.5278 45.9779 42.6247 45.9779 42.7375V42.8197C45.9779 42.9275 46.0348 42.9829 46.0687 43.0067C46.1037 43.0304 46.1436 43.0423 46.1875 43.0423C46.2164 43.0423 46.2474 43.0364 46.2773 43.0255C46.3102 43.0126 46.3452 42.9998 46.3811 42.9869C46.5457 42.9255 46.7503 42.8494 47.0017 42.7178C47.7601 42.321 48.1453 41.6808 48.1463 40.817C48.1463 40.1134 47.7322 39.9264 47.2342 39.7701Z" fill="black"/>
<path d="M50.7451 37.0449C50.6414 37.0696 50.2761 37.1646 49.9419 37.3397C49.3102 37.6702 48.9619 38.4321 48.9609 39.484V39.8758C48.9599 40.5516 49.0957 40.9613 49.3751 41.1285C49.4609 41.1799 49.5557 41.2057 49.6585 41.2057C49.7882 41.2057 49.9319 41.1651 50.0865 41.084C50.4178 40.9108 50.7771 40.6278 50.8789 40.5457L50.8838 40.5417C50.9727 40.4635 51.0066 40.3893 51.0066 40.2676L51.0106 37.2833C51.0106 37.2388 51.0106 37.1458 50.9357 37.0835C50.8878 37.0439 50.827 37.03 50.7451 37.0449ZM50.4877 40.2043C50.36 40.2983 50.1394 40.4527 49.9389 40.5575C49.851 40.6031 49.7323 40.6496 49.6624 40.608C49.5946 40.5674 49.4808 40.4042 49.4808 39.7709V39.3791C49.4818 38.5528 49.6704 38.0858 50.0915 37.8661C50.2282 37.7939 50.3729 37.7365 50.4917 37.695L50.4877 40.2043Z" fill="black"/>
<path d="M53.906 35.4188C53.8451 35.3822 53.7693 35.3812 53.7034 35.4159L53.6575 35.4396C53.5457 35.498 53.4948 35.6365 53.4948 35.7404L53.4919 37.7827C53.4909 38.3824 53.3043 38.797 52.95 38.982L52.8632 39.0275C52.7993 39.0611 52.6826 39.1106 52.6167 39.072C52.5828 39.0522 52.472 38.9493 52.473 38.4833L52.476 36.441C52.476 36.345 52.4361 36.2658 52.3672 36.2243C52.3064 36.1877 52.2305 36.1867 52.1647 36.2213L52.1188 36.2451C52.007 36.3034 51.9561 36.442 51.9561 36.5459L51.9531 38.5882C51.9521 39.1077 52.0769 39.4461 52.3243 39.5945C52.4112 39.6459 52.5109 39.6726 52.6177 39.6726C52.7425 39.6726 52.8772 39.637 53.0119 39.5668L53.0987 39.5213C53.5388 39.2907 54.0097 38.6861 54.0107 37.6788L54.0137 35.6375C54.0157 35.5386 53.9758 35.4604 53.906 35.4188Z" fill="black"/>
<path d="M56.81 32.5907C56.7492 32.5541 56.6733 32.5531 56.6075 32.5878L56.5616 32.6115C56.4498 32.6699 56.3989 32.8084 56.3989 32.9113L56.3979 34.0344C56.2063 34.0898 55.9898 34.1798 55.8491 34.254C55.1995 34.5944 54.8692 35.3069 54.8682 36.3725L54.8672 36.7901C54.8662 37.4659 55.0019 37.8756 55.2813 38.0428C55.3671 38.0942 55.4619 38.12 55.5647 38.12C55.6944 38.12 55.8381 38.0794 55.9928 37.9983C56.3241 37.8251 56.6833 37.5421 56.7861 37.46L56.7911 37.456C56.8809 37.3779 56.9138 37.3036 56.9138 37.1819L56.9198 32.8074C56.9188 32.7114 56.8799 32.6323 56.81 32.5907ZM56.3939 37.1196C56.2672 37.2126 56.0467 37.367 55.8451 37.4728C55.7573 37.5184 55.6386 37.5649 55.5687 37.5233C55.5008 37.4827 55.3871 37.3195 55.3871 36.6862L55.3881 36.2686C55.3891 35.4602 55.5777 35.0011 55.9978 34.7805C56.1036 34.725 56.2582 34.6568 56.3979 34.6053L56.3939 37.1196Z" fill="black"/>
<path d="M58.3428 33.0923C58.2789 33.0537 58.2011 33.0528 58.1323 33.0884L58.1053 33.1022C57.9946 33.1606 57.9337 33.3031 57.9337 33.407L57.9297 36.5991C57.9297 36.6901 57.9706 36.7683 58.0404 36.8098C58.0734 36.8296 58.1103 36.8395 58.1472 36.8395C58.1822 36.8395 58.2171 36.8306 58.25 36.8138L58.2769 36.799C58.3877 36.7406 58.4486 36.5981 58.4486 36.4942L58.4526 33.3021C58.4526 33.2121 58.4117 33.1339 58.3428 33.0923Z" fill="black"/>
<path d="M58.3398 31.7717C58.2769 31.7341 58.1981 31.7321 58.1293 31.7677L58.1023 31.7816C57.9906 31.8399 57.9307 31.9824 57.9307 32.0863L57.9297 32.5544C57.9297 32.6474 57.9696 32.7245 58.0385 32.7661C58.0714 32.7859 58.1073 32.7958 58.1452 32.7958C58.1812 32.7958 58.2171 32.7869 58.251 32.7691L58.2779 32.7552C58.3787 32.7028 58.4496 32.5771 58.4496 32.4505L58.4506 31.9824C58.4506 31.8914 58.4097 31.8122 58.3398 31.7717Z" fill="black"/>
</svg>
