<svg width="172" height="327" viewBox="0 0 172 327" fill="none" xmlns="http://www.w3.org/2000/svg">
<rect x="12.0469" y="58.6328" width="145.571" height="74.7527" rx="9.5" stroke="#333333" stroke-opacity="0.1"/>
<rect x="12.0469" y="192.531" width="131.358" height="61.5401" rx="9.5" stroke="#333333" stroke-opacity="0.1"/>
<rect x="12.0469" y="138.789" width="69.1765" height="27.1871" rx="4.5" stroke="#333333" stroke-opacity="0.1"/>
<rect x="88.4375" y="138.789" width="69.1765" height="27.1871" rx="4.5" stroke="#333333" stroke-opacity="0.1"/>
<rect x="20.4297" y="66.9453" width="51.522" height="58.1358" rx="10" fill="#333333" fill-opacity="0.05"/>
<rect x="77.2812" y="69.5781" width="25.761" height="4.40423" rx="2.20211" fill="#333333" fill-opacity="0.05"/>
<rect x="23.1016" y="202.602" width="25.761" height="4.40423" rx="2.20211" fill="#333333" fill-opacity="0.05"/>
<rect x="20.4297" y="147.094" width="47.0804" height="4.40423" rx="2.20211" fill="#333333" fill-opacity="0.05"/>
<rect x="96.8281" y="147.094" width="47.0804" height="4.40423" rx="2.20211" fill="#333333" fill-opacity="0.05"/>
<rect x="77.2812" y="117.156" width="25.761" height="4.40423" rx="2.20211" fill="#333333" fill-opacity="0.1"/>
<rect x="109.266" y="236.062" width="25.761" height="4.40423" rx="2.20211" fill="#333333" fill-opacity="0.1"/>
<rect x="132.359" y="177.938" width="25.761" height="4.40423" rx="2.20211" fill="#333333" fill-opacity="0.1"/>
<rect x="115.477" y="110.102" width="35.5324" height="13.2127" rx="5" fill="#333333" fill-opacity="0.1"/>
<rect x="77.2812" y="87.2031" width="59.5168" height="2.64254" rx="1.32127" fill="#333333" fill-opacity="0.05"/>
<rect x="23.1016" y="233.414" width="59.5168" height="2.64254" rx="1.32127" fill="#333333" fill-opacity="0.05"/>
<rect x="20.4297" y="154.156" width="21.3194" height="2.64254" rx="1.32127" fill="#333333" fill-opacity="0.05"/>
<rect x="96.8281" y="154.156" width="21.3194" height="2.64254" rx="1.32127" fill="#333333" fill-opacity="0.05"/>
<rect x="77.2812" y="92.4922" width="52.4103" height="2.64254" rx="1.32127" fill="#333333" fill-opacity="0.05"/>
<rect x="23.1016" y="240.469" width="59.5168" height="2.64254" rx="1.32127" fill="#333333" fill-opacity="0.05"/>
<rect x="77.2812" y="97.7734" width="39.0856" height="2.64254" rx="1.32127" fill="#333333" fill-opacity="0.05"/>
<rect x="77.2812" y="78.3984" width="69.2882" height="4.40423" rx="2.20211" fill="#333333" fill-opacity="0.1"/>
<rect x="23.1016" y="211.398" width="69.2882" height="4.40423" rx="2.20211" fill="#333333" fill-opacity="0.1"/>
<path d="M159.234 192.531H170.054V254.071H159.234C153.988 254.071 149.734 249.818 149.734 244.571V202.031C149.734 196.785 153.988 192.531 159.234 192.531Z" stroke="#333333" stroke-opacity="0.1"/>
<rect x="1" y="1" width="169.444" height="324.794" rx="19" stroke="#16275A" stroke-width="2"/>
<path opacity="0.3" d="M13.8069 183.523L11.8869 177.843H12.8869L14.6169 183.033H14.1169L15.9069 177.843H16.8169L18.5669 183.033H18.0869L19.8369 177.843H20.7769L18.8569 183.523H17.8269L16.2069 178.773H16.4769L14.8469 183.523H13.8069ZM22.0872 183.523V177.843H23.0572V180.243H26.1672V177.843H27.1372V183.523H26.1672V181.043H23.0572V183.523H22.0872ZM28.0994 183.523L30.6994 177.843H31.6594L34.2694 183.523H33.2894L31.0194 178.353H31.3494L29.0494 183.523H28.0994ZM29.2894 182.173L29.5494 181.403H32.6694L32.9294 182.173H29.2894ZM35.8902 183.523V178.643H33.9502V177.843H38.8002V178.643H36.8602V183.523H35.8902ZM39.8715 180.263L40.3015 178.503L40.4115 179.083C40.2248 179.083 40.0682 179.023 39.9415 178.903C39.8148 178.783 39.7515 178.63 39.7515 178.443C39.7515 178.25 39.8115 178.09 39.9315 177.963C40.0582 177.837 40.2148 177.773 40.4015 177.773C40.5948 177.773 40.7548 177.837 40.8815 177.963C41.0082 178.09 41.0715 178.25 41.0715 178.443C41.0715 178.497 41.0648 178.553 41.0515 178.613C41.0448 178.673 41.0315 178.743 41.0115 178.823C40.9915 178.903 40.9582 179.007 40.9115 179.133L40.5015 180.263H39.8715ZM46.565 181.903C46.565 182.25 46.4717 182.55 46.285 182.803C46.105 183.057 45.8417 183.253 45.495 183.393C45.155 183.533 44.7417 183.603 44.255 183.603C43.815 183.603 43.385 183.543 42.965 183.423C42.5517 183.297 42.2283 183.13 41.995 182.923L42.375 182.163C42.6017 182.343 42.885 182.493 43.225 182.613C43.565 182.727 43.9217 182.783 44.295 182.783C44.775 182.783 45.1117 182.707 45.305 182.553C45.4983 182.393 45.595 182.207 45.595 181.993C45.595 181.807 45.5317 181.66 45.405 181.553C45.285 181.44 45.1217 181.353 44.915 181.293C44.7083 181.227 44.4817 181.167 44.235 181.113C43.995 181.06 43.7517 181 43.505 180.933C43.265 180.867 43.0417 180.777 42.835 180.663C42.635 180.55 42.4717 180.397 42.345 180.203C42.2183 180.003 42.155 179.753 42.155 179.453C42.155 179.113 42.2483 178.817 42.435 178.563C42.6217 178.31 42.885 178.113 43.225 177.973C43.565 177.833 43.9717 177.763 44.445 177.763C44.7917 177.763 45.135 177.803 45.475 177.883C45.815 177.957 46.1083 178.08 46.355 178.253L46.005 179.033C45.765 178.867 45.505 178.75 45.225 178.683C44.9517 178.617 44.6817 178.583 44.415 178.583C43.9617 178.583 43.6317 178.663 43.425 178.823C43.225 178.977 43.125 179.167 43.125 179.393C43.125 179.58 43.1883 179.73 43.315 179.843C43.4417 179.95 43.605 180.037 43.805 180.103C44.0117 180.163 44.2383 180.22 44.485 180.273C44.7317 180.327 44.975 180.387 45.215 180.453C45.455 180.52 45.6783 180.61 45.885 180.723C46.0917 180.837 46.255 180.99 46.375 181.183C46.5017 181.37 46.565 181.61 46.565 181.903ZM50.593 183.523V177.843H51.563V180.243H54.673V177.843H55.643V183.523H54.673V181.043H51.563V183.523H50.593ZM56.6052 183.523L59.2052 177.843H60.1652L62.7752 183.523H61.7952L59.5252 178.353H59.8552L57.5552 183.523H56.6052ZM57.7952 182.173L58.0552 181.403H61.1752L61.4352 182.173H57.7952ZM63.7376 183.523V177.843H66.0576C66.5576 177.843 66.9876 177.923 67.3476 178.083C67.7076 178.237 67.9876 178.463 68.1876 178.763C68.3876 179.057 68.4876 179.417 68.4876 179.843C68.4876 180.263 68.3876 180.623 68.1876 180.923C67.9876 181.223 67.7076 181.453 67.3476 181.613C66.9876 181.773 66.5576 181.853 66.0576 181.853H64.2776L64.7076 181.393V183.523H63.7376ZM64.7076 181.503L64.3376 181.043H65.9976C66.4909 181.043 66.8642 180.94 67.1176 180.733C67.3776 180.527 67.5076 180.23 67.5076 179.843C67.5076 179.457 67.3776 179.16 67.1176 178.953C66.8642 178.747 66.4909 178.643 65.9976 178.643H64.3376L64.7076 178.183V181.503ZM69.968 183.523V177.843H72.288C72.788 177.843 73.218 177.923 73.578 178.083C73.938 178.237 74.218 178.463 74.418 178.763C74.618 179.057 74.718 179.417 74.718 179.843C74.718 180.263 74.618 180.623 74.418 180.923C74.218 181.223 73.938 181.453 73.578 181.613C73.218 181.773 72.788 181.853 72.288 181.853H70.508L70.938 181.393V183.523H69.968ZM70.938 181.503L70.568 181.043H72.228C72.7214 181.043 73.0947 180.94 73.348 180.733C73.608 180.527 73.738 180.23 73.738 179.843C73.738 179.457 73.608 179.16 73.348 178.953C73.0947 178.747 72.7214 178.643 72.228 178.643H70.568L70.938 178.183V181.503ZM77.0085 180.243H79.9985V181.033H77.0085V180.243ZM77.1685 182.713H80.4585V183.523H76.1985V177.843H80.3485V178.643H77.1685V182.713ZM81.9016 183.523V177.843H82.7016L86.3516 182.323H85.9816V177.843H86.9516V183.523H86.1516L82.4916 179.043H82.8716V183.523H81.9016ZM88.8938 183.523V177.843H89.8638V183.523H88.8938ZM91.7942 183.523V177.843H92.5942L96.2442 182.323H95.8742V177.843H96.8442V183.523H96.0442L92.3842 179.043H92.7642V183.523H91.7942ZM103.576 182.873C103.39 183.027 103.18 183.16 102.946 183.273C102.713 183.38 102.463 183.463 102.196 183.523C101.93 183.577 101.66 183.603 101.386 183.603C100.786 183.603 100.25 183.477 99.7764 183.223C99.3031 182.97 98.9297 182.623 98.6564 182.183C98.3897 181.737 98.2564 181.237 98.2564 180.683C98.2564 180.117 98.3897 179.617 98.6564 179.183C98.9297 178.743 99.2964 178.397 99.7564 178.143C100.223 177.89 100.753 177.763 101.346 177.763C101.84 177.763 102.28 177.837 102.666 177.983C103.053 178.13 103.376 178.353 103.636 178.653L103.016 179.283C102.796 179.05 102.546 178.88 102.266 178.773C101.993 178.66 101.693 178.603 101.366 178.603C100.96 178.603 100.593 178.693 100.266 178.873C99.9464 179.047 99.6931 179.29 99.5064 179.603C99.3264 179.917 99.2364 180.277 99.2364 180.683C99.2364 181.077 99.3297 181.433 99.5164 181.753C99.7031 182.067 99.9597 182.313 100.286 182.493C100.613 182.673 100.983 182.763 101.396 182.763C101.716 182.763 102.01 182.717 102.276 182.623C102.543 182.523 102.79 182.37 103.016 182.163L103.576 182.873ZM102.636 182.883V180.653H103.576V182.873L102.636 182.883Z" fill="#172659"/>
<path d="M161.669 278.487C162.802 277.838 164.199 277.838 165.333 278.487L170.096 281.435C170.096 282.525 170.096 295.578 170.096 296.876V305.051C170.096 306.349 170.096 306.505 170.096 307.231V309.775H164.05C161.302 309.775 156.172 309.775 154.89 309.775L148.832 306.827C147.698 306.178 147 304.978 147 303.68V288.982C147 287.684 147.698 286.485 148.832 285.836L161.669 278.487Z" fill="black"/>
<path d="M158.811 299.368H156.879C156.751 299.368 156.628 299.317 156.537 299.228C156.447 299.138 156.396 299.016 156.396 298.889V296.973C156.396 296.846 156.345 296.724 156.254 296.634C156.164 296.545 156.041 296.494 155.913 296.494C155.785 296.494 155.662 296.545 155.571 296.634C155.481 296.724 155.43 296.846 155.43 296.973V298.889C155.43 299.27 155.582 299.635 155.854 299.905C156.126 300.174 156.494 300.326 156.879 300.326H158.811C158.939 300.326 159.062 300.275 159.152 300.185C159.243 300.096 159.294 299.974 159.294 299.847C159.294 299.72 159.243 299.598 159.152 299.508C159.062 299.418 158.939 299.368 158.811 299.368ZM165.573 296.494C165.445 296.494 165.322 296.545 165.231 296.634C165.141 296.724 165.09 296.846 165.09 296.973V298.889C165.09 299.016 165.039 299.138 164.948 299.228C164.858 299.317 164.735 299.368 164.607 299.368H162.675C162.547 299.368 162.424 299.418 162.333 299.508C162.243 299.598 162.192 299.72 162.192 299.847C162.192 299.974 162.243 300.096 162.333 300.185C162.424 300.275 162.547 300.326 162.675 300.326H164.607C164.991 300.326 165.359 300.174 165.631 299.905C165.903 299.635 166.056 299.27 166.056 298.889V296.973C166.056 296.846 166.005 296.724 165.914 296.634C165.824 296.545 165.701 296.494 165.573 296.494ZM164.607 289.789H162.675C162.547 289.789 162.424 289.84 162.333 289.929C162.243 290.019 162.192 290.141 162.192 290.268C162.192 290.395 162.243 290.517 162.333 290.607C162.424 290.696 162.547 290.747 162.675 290.747H164.607C164.735 290.747 164.858 290.797 164.948 290.887C165.039 290.977 165.09 291.099 165.09 291.226V293.142C165.09 293.269 165.141 293.39 165.231 293.48C165.322 293.57 165.445 293.621 165.573 293.621C165.701 293.621 165.824 293.57 165.914 293.48C166.005 293.39 166.056 293.269 166.056 293.142V291.226C166.056 290.845 165.903 290.479 165.631 290.21C165.359 289.94 164.991 289.789 164.607 289.789ZM155.913 293.621C156.041 293.621 156.164 293.57 156.254 293.48C156.345 293.39 156.396 293.269 156.396 293.142V291.226C156.396 291.099 156.447 290.977 156.537 290.887C156.628 290.797 156.751 290.747 156.879 290.747H158.811C158.939 290.747 159.062 290.696 159.152 290.607C159.243 290.517 159.294 290.395 159.294 290.268C159.294 290.141 159.243 290.019 159.152 289.929C159.062 289.84 158.939 289.789 158.811 289.789H156.879C156.494 289.789 156.126 289.94 155.854 290.21C155.582 290.479 155.43 290.845 155.43 291.226V293.142C155.43 293.269 155.481 293.39 155.571 293.48C155.662 293.57 155.785 293.621 155.913 293.621ZM159.777 291.705H157.845C157.717 291.705 157.594 291.755 157.503 291.845C157.413 291.935 157.362 292.057 157.362 292.184V294.1C157.362 294.227 157.413 294.348 157.503 294.438C157.594 294.528 157.717 294.578 157.845 294.578H159.777C159.905 294.578 160.028 294.528 160.118 294.438C160.209 294.348 160.26 294.227 160.26 294.1V292.184C160.26 292.057 160.209 291.935 160.118 291.845C160.028 291.755 159.905 291.705 159.777 291.705ZM159.294 293.621H158.328V292.663H159.294V293.621ZM161.709 294.578H163.641C163.769 294.578 163.892 294.528 163.982 294.438C164.073 294.348 164.124 294.227 164.124 294.1V292.184C164.124 292.057 164.073 291.935 163.982 291.845C163.892 291.755 163.769 291.705 163.641 291.705H161.709C161.581 291.705 161.458 291.755 161.367 291.845C161.277 291.935 161.226 292.057 161.226 292.184V294.1C161.226 294.227 161.277 294.348 161.367 294.438C161.458 294.528 161.581 294.578 161.709 294.578ZM162.192 292.663H163.158V293.621H162.192V292.663ZM159.777 295.536H157.845C157.717 295.536 157.594 295.587 157.503 295.677C157.413 295.766 157.362 295.888 157.362 296.015V297.931C157.362 298.058 157.413 298.18 157.503 298.27C157.594 298.359 157.717 298.41 157.845 298.41H159.777C159.905 298.41 160.028 298.359 160.118 298.27C160.209 298.18 160.26 298.058 160.26 297.931V296.015C160.26 295.888 160.209 295.766 160.118 295.677C160.028 295.587 159.905 295.536 159.777 295.536ZM159.294 297.452H158.328V296.494H159.294V297.452ZM161.709 296.973C161.837 296.973 161.96 296.923 162.05 296.833C162.141 296.743 162.192 296.621 162.192 296.494C162.32 296.494 162.443 296.444 162.533 296.354C162.624 296.264 162.675 296.142 162.675 296.015C162.675 295.888 162.624 295.766 162.533 295.677C162.443 295.587 162.32 295.536 162.192 295.536H161.709C161.581 295.536 161.458 295.587 161.367 295.677C161.277 295.766 161.226 295.888 161.226 296.015V296.494C161.226 296.621 161.277 296.743 161.367 296.833C161.458 296.923 161.581 296.973 161.709 296.973ZM163.641 295.536C163.513 295.536 163.39 295.587 163.299 295.677C163.209 295.766 163.158 295.888 163.158 296.015V297.452C163.03 297.452 162.907 297.503 162.816 297.592C162.726 297.682 162.675 297.804 162.675 297.931C162.675 298.058 162.726 298.18 162.816 298.27C162.907 298.359 163.03 298.41 163.158 298.41H163.641C163.769 298.41 163.892 298.359 163.982 298.27C164.073 298.18 164.124 298.058 164.124 297.931V296.015C164.124 295.888 164.073 295.766 163.982 295.677C163.892 295.587 163.769 295.536 163.641 295.536ZM161.709 297.452C161.613 297.452 161.52 297.48 161.44 297.533C161.361 297.585 161.299 297.66 161.262 297.748C161.226 297.835 161.216 297.932 161.235 298.024C161.254 298.117 161.3 298.203 161.367 298.27C161.435 298.337 161.521 298.382 161.614 298.401C161.708 298.419 161.805 298.41 161.893 298.373C161.982 298.337 162.057 298.276 162.11 298.197C162.163 298.118 162.192 298.026 162.192 297.931C162.192 297.804 162.141 297.682 162.05 297.592C161.96 297.503 161.837 297.452 161.709 297.452Z" fill="white"/>
<path d="M42.7483 24.1676L28.6214 16.1042C28.0147 15.7569 27.2673 15.7569 26.6596 16.1042L12.5328 24.1676C11.9221 24.5159 11.5469 25.16 11.5469 25.8586V35.889C11.5469 36.5856 11.9221 37.2288 12.5298 37.5781L26.6566 45.6681C27.2653 46.0164 28.0147 46.0164 28.6244 45.6681L42.7513 37.5781C43.36 37.2278 43.7342 36.5856 43.7342 35.889V25.8586C43.7342 25.16 43.359 24.5159 42.7483 24.1676Z" stroke="black" stroke-width="2.0081" stroke-miterlimit="10"/>
<path d="M42.2849 32.3911C42.265 30.5279 41.5974 29.7264 40.2453 30.4943C40.0856 30.5843 39.8212 30.7693 39.5897 30.9484L39.5697 28.8972C39.5687 28.7676 39.4939 28.7013 39.4071 28.7508L38.4391 29.2999C38.3503 29.3494 38.2715 29.5018 38.2735 29.6314L38.3563 37.9461C38.3593 38.1361 38.3912 38.2004 38.6078 38.1489C39.0658 38.0559 39.6994 37.8392 40.3161 37.4909C41.6133 36.7557 42.3139 35.2359 42.2939 33.3153L42.2849 32.3911ZM40.2992 35.9137C40.0357 36.0631 39.7952 36.163 39.6435 36.2145L39.6056 32.5138C39.7972 32.3703 40.0686 32.1922 40.2612 32.0834C40.83 31.7608 40.9787 32.2961 40.9877 33.1253L40.9967 34.0505C41.0066 34.8925 40.8679 35.5911 40.2992 35.9137Z" fill="black"/>
<path d="M37.5771 36.0149C37.606 38.8023 36.2 39.8245 35.6951 40.1114L35.5833 40.1738C35.0784 40.4597 33.6684 41.0336 33.6395 38.2462L33.6016 34.6059C33.6016 34.4743 33.6634 34.32 33.7522 34.2695L34.7371 33.7114C34.825 33.6619 34.8968 33.7401 34.8988 33.8697L34.9367 37.5101C34.9477 38.6371 35.1902 38.7618 35.5674 38.548L35.6791 38.4857C36.0563 38.272 36.2928 37.8752 36.2818 36.7481L36.2439 33.1078C36.2429 32.9782 36.3138 32.8179 36.4026 32.7684L37.3875 32.2104C37.4753 32.1599 37.5402 32.242 37.5412 32.3716L37.5771 36.0149Z" fill="black"/>
<path d="M32.9092 41.338C32.9092 41.4676 32.8384 41.616 32.7506 41.6655L31.7737 42.2186C31.6858 42.2691 31.612 42.2038 31.612 42.0722L31.5701 37.9332C31.5621 37.2573 31.3685 37.0931 30.8646 37.3781C30.6231 37.5146 30.3836 37.6858 30.216 37.8411L30.2679 42.8212C30.2689 42.9508 30.198 43.1112 30.1092 43.1606L29.1413 43.7108C29.0525 43.7603 28.9726 43.687 28.9706 43.5564L28.8828 34.9459C28.8818 34.8163 28.9527 34.6679 29.0415 34.6184L30.0174 34.0633C30.1062 34.0138 30.1791 34.0801 30.1801 34.2097L30.201 36.3332C30.4166 36.1402 30.7049 35.8938 31.0163 35.7167C32.2556 35.0122 32.8494 35.596 32.8663 37.1831L32.9092 41.338Z" fill="black"/>
<path d="M47.9977 25.3426C48.2542 24.9933 48.3939 24.5708 48.3949 24.1245V24.0552C48.3949 23.6515 48.2851 23.3804 48.0676 23.2498C47.8071 23.0935 47.4389 23.1499 46.909 23.4279C46.6266 23.5763 46.3293 23.7584 46.2105 23.8326C46.1177 23.894 46.0529 24.0166 46.0529 24.1294L46.0469 28.5732C46.0469 28.6702 46.0788 28.7414 46.1427 28.783C46.1646 28.7978 46.2035 28.8157 46.2544 28.8157C46.2824 28.8157 46.3133 28.8107 46.3482 28.7959C46.5668 28.7147 46.8162 28.6029 47.0517 28.4802C47.9398 28.0152 48.4098 27.277 48.4108 26.3469V26.24C48.4108 25.864 48.323 25.5939 48.1484 25.4385C48.1025 25.397 48.0526 25.3653 47.9977 25.3426ZM47.875 24.2284C47.874 24.7766 47.6405 25.1654 47.1605 25.4168L46.5688 25.7265L46.5708 24.2284C46.5997 24.2116 46.6306 24.1938 46.6626 24.175C46.7853 24.1027 46.925 24.0216 47.0567 23.9533C47.413 23.7673 47.6485 23.7059 47.7592 23.7713C47.8351 23.8168 47.876 23.9543 47.876 24.1591L47.875 24.2284ZM46.5688 26.3568L47.3092 25.9689C47.5147 25.861 47.6724 25.8294 47.7552 25.8789C47.842 25.9313 47.8909 26.0956 47.8899 26.3429V26.4508C47.8889 27.3136 47.39 27.6916 46.902 27.9469C46.7733 28.0142 46.6695 28.0617 46.5658 28.1072L46.5688 26.3568Z" fill="black"/>
<path d="M49.6393 26.7841C49.9038 26.9425 50.2111 26.8158 50.4197 26.706C50.5145 26.6565 50.6452 26.5754 50.7669 26.4893C50.736 27.0374 50.5903 27.2057 50.2281 27.3956C49.9547 27.5391 49.6583 27.642 49.5675 27.6687L49.5216 27.6895C49.4198 27.743 49.3589 27.8449 49.3589 27.9646V27.9963C49.3589 28.0289 49.3589 28.1298 49.4398 28.1922C49.4757 28.2199 49.5186 28.2337 49.5675 28.2337C49.5914 28.2337 49.6164 28.2308 49.6433 28.2238C49.7381 28.2001 50.0435 28.0952 50.3768 27.9201C50.9386 27.6252 51.2878 27.2225 51.2888 26.1222L51.2928 22.847C51.2928 22.752 51.2529 22.6728 51.182 22.6313C51.1182 22.5927 51.0383 22.5917 50.9685 22.6283L50.9505 22.6382C50.8488 22.6916 50.7739 22.8232 50.7739 22.9519L50.7699 25.8441C50.6182 25.9678 50.3847 26.1182 50.271 26.1776C50.1033 26.2656 49.9886 26.2934 49.9327 26.2597C49.8818 26.229 49.7621 26.0866 49.7631 25.4305L49.7651 23.6475C49.7651 23.5525 49.7252 23.4743 49.6543 23.4318C49.5904 23.3932 49.5106 23.3922 49.4398 23.4288L49.4208 23.4387C49.319 23.4921 49.2452 23.6237 49.2442 23.7524L49.2422 25.5354C49.2422 26.2251 49.3679 26.6219 49.6393 26.7841Z" fill="black"/>
<path d="M48.1947 30.467C48.1368 30.4245 48.0639 30.4106 47.9951 30.4314L47.9781 30.4373C47.7616 30.5214 47.3056 30.75 47.0691 30.8747C46.3336 31.2596 45.9904 31.8513 45.9894 32.7349L45.9844 36.1744C45.9844 36.2842 46.0323 36.3752 46.1151 36.4257C46.154 36.4495 46.1989 36.4613 46.2438 36.4613C46.2867 36.4613 46.3296 36.4504 46.3696 36.4297L46.6021 36.308C46.7188 36.2466 46.7996 36.1031 46.8006 35.9587L46.8026 34.0114L48.0969 33.3336C48.2136 33.2722 48.2944 33.1287 48.2944 32.9833V32.7428C48.2944 32.633 48.2465 32.542 48.1637 32.4915C48.0869 32.446 47.9921 32.444 47.9093 32.4875L46.8036 33.0664L46.8046 32.5182C46.8046 32.0888 46.8585 31.9522 47.2596 31.7425L48.1398 31.2814C48.2366 31.2309 48.2964 31.124 48.2964 31.0043V30.6877C48.2964 30.5957 48.2595 30.5155 48.1947 30.467Z" fill="black"/>
<path d="M49.2713 30.737C49.3103 30.7607 49.3552 30.7726 49.4001 30.7726C49.443 30.7726 49.4859 30.7617 49.5258 30.7409L49.7583 30.6192C49.8751 30.5579 49.9569 30.4144 49.9569 30.2689L49.9579 29.7633C49.9579 29.6535 49.91 29.5624 49.8272 29.512C49.7503 29.4665 49.6555 29.4645 49.5727 29.508L49.3402 29.6297C49.2234 29.6911 49.1426 29.8345 49.1416 29.98L49.1406 30.4856C49.1406 30.5955 49.1875 30.6875 49.2713 30.737Z" fill="black"/>
<path d="M49.2713 34.7597C49.3103 34.7834 49.3552 34.7953 49.4001 34.7953C49.443 34.7953 49.4859 34.7844 49.5258 34.7636L49.7453 34.6488C49.8621 34.5875 49.9429 34.444 49.9439 34.2996L49.9479 31.0758C49.9479 30.966 49.9 30.8749 49.8172 30.8245C49.7403 30.779 49.6455 30.777 49.5627 30.8205L49.3432 30.9353C49.2264 30.9966 49.1456 31.1401 49.1446 31.2846L49.1406 34.5083C49.1406 34.6182 49.1885 34.7092 49.2713 34.7597Z" fill="black"/>
<path d="M52.3416 30.2446C52.3525 30.2851 52.3665 30.3712 52.3665 30.5523L52.3635 32.8093C52.3635 32.9231 52.4104 33.0161 52.4922 33.0656C52.5661 33.1101 52.6579 33.1111 52.7397 33.0686L52.9772 32.9439C53.092 32.8835 53.1658 32.749 53.1658 32.5986L53.1688 30.3415C53.1698 29.8498 53.054 29.5411 52.8145 29.3986C52.617 29.2798 52.3625 29.2967 52.0771 29.4461L51.7538 29.6153C51.4155 29.7924 50.8487 30.2525 50.8467 31.3469L50.8438 33.6039C50.8438 33.7177 50.8907 33.8107 50.9725 33.8602C51.0104 33.8829 51.0533 33.8938 51.0962 33.8938C51.1381 33.8938 51.18 33.8839 51.219 33.8631L51.4554 33.7394C51.5702 33.6791 51.645 33.5435 51.645 33.3941L51.648 31.1371C51.649 30.674 51.7338 30.5543 51.9394 30.4474L52.2627 30.2782C52.2986 30.2614 52.3246 30.2505 52.3416 30.2446Z" fill="black"/>
<path d="M55.471 31.6614C55.5858 31.5792 55.6436 31.4734 55.6446 31.3457V31.131C55.6446 30.9974 55.5718 30.9331 55.5289 30.9074C55.474 30.8747 55.3822 30.849 55.2545 30.9163L54.8853 31.1102C54.8703 31.1181 54.8573 31.1251 54.8454 31.13C54.8434 31.1053 54.8424 31.0736 54.8424 31.0331L54.8454 28.9531L55.4501 28.6365C55.5658 28.5762 55.6436 28.4416 55.6436 28.3021V28.0873C55.6436 27.9805 55.5977 27.8914 55.5189 27.8439C55.4421 27.7984 55.3493 27.7974 55.2635 27.8429L54.8463 28.0616V27.7222C54.8463 27.6114 54.7994 27.5204 54.7176 27.4709C54.6448 27.4274 54.554 27.4254 54.4662 27.4709L54.2117 27.6579C54.1079 27.7381 54.0431 27.8627 54.0431 27.9825L54.0391 31.2448C54.0391 31.507 54.067 31.8721 54.3185 32.0215C54.3933 32.0661 54.4741 32.0839 54.554 32.0839C54.7176 32.0839 54.8823 32.0107 55.007 31.9454C55.1866 31.8504 55.3792 31.7287 55.471 31.6614Z" fill="black"/>
<path d="M58.1814 26.6543C58.0227 26.5593 57.7493 26.4901 57.3492 26.6989C56.6686 27.0551 56.2286 27.9446 56.2276 28.9658L56.2266 29.4081C56.2256 30.0611 56.3733 30.4678 56.6766 30.6489C56.7614 30.7004 56.8792 30.7429 57.0329 30.7429C57.1825 30.7429 57.3661 30.7013 57.5867 30.5866C57.919 30.4124 58.1535 30.2452 58.4019 30.0483C58.5506 29.9325 58.5696 29.8009 58.5696 29.699V29.4843C58.5696 29.3448 58.4868 29.2794 58.4518 29.2587C58.377 29.2141 58.2862 29.2141 58.2044 29.2577L58.1545 29.2864C57.9569 29.4318 57.6555 29.6337 57.4001 29.7673C57.2923 29.8237 57.2065 29.8415 57.1656 29.8167C57.1436 29.8039 57.0368 29.7168 57.0309 29.2735L58.4518 28.5294C58.5716 28.4671 58.6454 28.3295 58.6454 28.1692V27.9041C58.6464 27.2688 58.4858 26.8364 58.1814 26.6543ZM57.5368 27.5379C57.6086 27.5003 57.6605 27.4875 57.6914 27.4875C57.7044 27.4875 57.7144 27.4895 57.7204 27.4934C57.7314 27.5003 57.8262 27.5696 57.8381 27.9793L57.0518 28.3909C57.1067 27.9773 57.2773 27.6735 57.5368 27.5379Z" fill="black"/>
<path d="M61.2806 24.8769C61.2158 24.8275 61.1339 24.8156 61.0361 24.8413C60.8465 24.8928 60.624 24.9818 60.4254 25.0867C59.7499 25.44 59.3467 26.2701 59.3448 27.3071L59.3438 27.7999C59.3428 28.4342 59.5014 28.8646 59.8008 29.0447C59.8816 29.0931 59.9934 29.1347 60.1361 29.1347C60.2668 29.1347 60.4235 29.1001 60.6071 29.0031C60.8775 28.8616 61.099 28.6993 61.2068 28.6152L61.2078 28.6142C61.3255 28.5222 61.3754 28.4203 61.3754 28.2719V28.0443C61.3754 27.9444 61.3315 27.8602 61.2557 27.8147C61.1818 27.7702 61.087 27.7702 61.0052 27.8128L60.9663 27.8345C60.7607 27.975 60.628 28.0542 60.4205 28.163C60.3366 28.2066 60.2877 28.2105 60.2698 28.1996C60.2648 28.1967 60.145 28.1185 60.145 27.5881L60.146 27.0954C60.147 26.4789 60.3037 26.0841 60.611 25.9228C60.8186 25.814 60.9503 25.7556 61.1529 25.6814L61.1958 25.6606C61.3076 25.6022 61.3794 25.4795 61.3804 25.3499V25.1223C61.3814 25.0739 61.3814 24.9541 61.2806 24.8769Z" fill="black"/>
<path d="M64.0501 23.5791C63.8176 23.4396 63.5162 23.4653 63.154 23.6543C63.0741 23.6959 62.9963 23.7434 62.9245 23.7919L62.9255 22.9923C62.9255 22.8845 62.8786 22.7945 62.7967 22.746C62.7209 22.7005 62.6261 22.6995 62.5443 22.742L62.3118 22.8637C62.181 22.932 62.1232 23.0834 62.1232 23.2021L62.1172 27.7092C62.1172 27.8191 62.1651 27.9101 62.2479 27.9606C62.2868 27.9843 62.3317 27.9962 62.3766 27.9962C62.4195 27.9962 62.4624 27.9853 62.5024 27.9645L62.7209 27.8497C62.8376 27.7884 62.9195 27.6449 62.9195 27.4995L62.9235 24.7625C63.0482 24.6577 63.2049 24.5518 63.3416 24.4795C63.4843 24.4043 63.5501 24.4093 63.5641 24.4172C63.5651 24.4172 63.6399 24.4667 63.6399 24.7893L63.6369 26.9137C63.6369 27.0235 63.6848 27.1146 63.7677 27.165C63.8435 27.2105 63.9393 27.2125 64.0221 27.169L64.2407 27.0542C64.3574 26.9928 64.4382 26.8494 64.4392 26.7049L64.4422 24.5805C64.4412 24.0719 64.3095 23.7345 64.0501 23.5791Z" fill="black"/>
<path d="M47.2342 39.7701L46.9419 39.6761C46.5318 39.5455 46.4379 39.4534 46.4379 39.1823C46.4389 38.7123 46.6705 38.3917 47.2123 38.1077C47.345 38.0385 47.5196 37.9692 47.6603 37.9128C47.7601 37.8732 47.84 37.8416 47.8869 37.8168C47.9956 37.7594 48.0585 37.6605 48.0585 37.5437V37.4616C48.0585 37.3538 48.0016 37.2993 47.9687 37.2766C47.9348 37.2538 47.8639 37.2212 47.7631 37.2607L47.6773 37.2944C47.4927 37.3666 47.2831 37.4478 47.0676 37.5606C46.3032 37.9613 45.9151 38.5401 45.9141 39.2832C45.9131 39.9512 46.3032 40.1352 46.7373 40.2787L47.0387 40.3796C47.5286 40.5448 47.6174 40.5755 47.6164 40.9248C47.6164 41.3186 47.5286 41.8173 46.8521 42.1716C46.6904 42.2567 46.5517 42.3091 46.405 42.3655C46.3322 42.3932 46.2583 42.4219 46.1805 42.4545L46.1586 42.4654L46.2334 42.605L46.1496 42.4704C46.0408 42.5278 45.9779 42.6247 45.9779 42.7375V42.8197C45.9779 42.9275 46.0348 42.9829 46.0687 43.0067C46.1037 43.0304 46.1436 43.0423 46.1875 43.0423C46.2164 43.0423 46.2474 43.0364 46.2773 43.0255C46.3102 43.0126 46.3452 42.9998 46.3811 42.9869C46.5457 42.9255 46.7503 42.8494 47.0017 42.7178C47.7601 42.321 48.1453 41.6808 48.1463 40.817C48.1463 40.1134 47.7322 39.9264 47.2342 39.7701Z" fill="black"/>
<path d="M50.7451 37.0449C50.6414 37.0696 50.2761 37.1646 49.9419 37.3397C49.3102 37.6702 48.9619 38.4321 48.9609 39.484V39.8758C48.9599 40.5516 49.0957 40.9613 49.3751 41.1285C49.4609 41.1799 49.5557 41.2057 49.6585 41.2057C49.7882 41.2057 49.9319 41.1651 50.0865 41.084C50.4178 40.9108 50.7771 40.6278 50.8789 40.5457L50.8838 40.5417C50.9727 40.4635 51.0066 40.3893 51.0066 40.2676L51.0106 37.2833C51.0106 37.2388 51.0106 37.1458 50.9357 37.0835C50.8878 37.0439 50.827 37.03 50.7451 37.0449ZM50.4877 40.2043C50.36 40.2983 50.1394 40.4527 49.9389 40.5575C49.851 40.6031 49.7323 40.6496 49.6624 40.608C49.5946 40.5674 49.4808 40.4042 49.4808 39.7709V39.3791C49.4818 38.5528 49.6704 38.0858 50.0915 37.8661C50.2282 37.7939 50.3729 37.7365 50.4917 37.695L50.4877 40.2043Z" fill="black"/>
<path d="M53.906 35.4188C53.8451 35.3822 53.7693 35.3812 53.7034 35.4159L53.6575 35.4396C53.5457 35.498 53.4948 35.6365 53.4948 35.7404L53.4919 37.7827C53.4909 38.3824 53.3043 38.797 52.95 38.982L52.8632 39.0275C52.7993 39.0611 52.6826 39.1106 52.6167 39.072C52.5828 39.0522 52.472 38.9493 52.473 38.4833L52.476 36.441C52.476 36.345 52.4361 36.2658 52.3672 36.2243C52.3064 36.1877 52.2305 36.1867 52.1647 36.2213L52.1188 36.2451C52.007 36.3034 51.9561 36.442 51.9561 36.5459L51.9531 38.5882C51.9521 39.1077 52.0769 39.4461 52.3243 39.5945C52.4112 39.6459 52.5109 39.6726 52.6177 39.6726C52.7425 39.6726 52.8772 39.637 53.0119 39.5668L53.0987 39.5213C53.5388 39.2907 54.0097 38.6861 54.0107 37.6788L54.0137 35.6375C54.0157 35.5386 53.9758 35.4604 53.906 35.4188Z" fill="black"/>
<path d="M56.81 32.5907C56.7492 32.5541 56.6733 32.5531 56.6075 32.5878L56.5616 32.6115C56.4498 32.6699 56.3989 32.8084 56.3989 32.9113L56.3979 34.0344C56.2063 34.0898 55.9898 34.1798 55.8491 34.254C55.1995 34.5944 54.8692 35.3069 54.8682 36.3725L54.8672 36.7901C54.8662 37.4659 55.0019 37.8756 55.2813 38.0428C55.3671 38.0942 55.4619 38.12 55.5647 38.12C55.6944 38.12 55.8381 38.0794 55.9928 37.9983C56.3241 37.8251 56.6833 37.5421 56.7861 37.46L56.7911 37.456C56.8809 37.3779 56.9138 37.3036 56.9138 37.1819L56.9198 32.8074C56.9188 32.7114 56.8799 32.6323 56.81 32.5907ZM56.3939 37.1196C56.2672 37.2126 56.0467 37.367 55.8451 37.4728C55.7573 37.5184 55.6386 37.5649 55.5687 37.5233C55.5008 37.4827 55.3871 37.3195 55.3871 36.6862L55.3881 36.2686C55.3891 35.4602 55.5777 35.0011 55.9978 34.7805C56.1036 34.725 56.2582 34.6568 56.3979 34.6053L56.3939 37.1196Z" fill="black"/>
<path d="M58.3428 33.0923C58.2789 33.0537 58.2011 33.0528 58.1323 33.0884L58.1053 33.1022C57.9946 33.1606 57.9337 33.3031 57.9337 33.407L57.9297 36.5991C57.9297 36.6901 57.9706 36.7683 58.0404 36.8098C58.0734 36.8296 58.1103 36.8395 58.1472 36.8395C58.1822 36.8395 58.2171 36.8306 58.25 36.8138L58.2769 36.799C58.3877 36.7406 58.4486 36.5981 58.4486 36.4942L58.4526 33.3021C58.4526 33.2121 58.4117 33.1339 58.3428 33.0923Z" fill="black"/>
<path d="M58.3398 31.7717C58.2769 31.7341 58.1981 31.7321 58.1293 31.7677L58.1023 31.7816C57.9906 31.8399 57.9307 31.9824 57.9307 32.0863L57.9297 32.5544C57.9297 32.6474 57.9696 32.7245 58.0385 32.7661C58.0714 32.7859 58.1073 32.7958 58.1452 32.7958C58.1812 32.7958 58.2171 32.7869 58.251 32.7691L58.2779 32.7552C58.3787 32.7028 58.4496 32.5771 58.4496 32.4505L58.4506 31.9824C58.4506 31.8914 58.4097 31.8122 58.3398 31.7717Z" fill="black"/>
</svg>
