<svg width="172" height="327" viewBox="0 0 172 327" fill="none" xmlns="http://www.w3.org/2000/svg">
<rect x="12.0547" y="58.6328" width="145.571" height="74.7527" rx="9.5" stroke="white" stroke-opacity="0.1"/>
<rect x="12.0547" y="192.531" width="131.358" height="61.5401" rx="9.5" stroke="white" stroke-opacity="0.1"/>
<rect x="12.0547" y="138.789" width="69.1765" height="27.1871" rx="4.5" stroke="white" stroke-opacity="0.1"/>
<rect x="88.4453" y="138.789" width="69.1765" height="27.1871" rx="4.5" stroke="white" stroke-opacity="0.1"/>
<rect x="20.4375" y="66.9453" width="51.522" height="58.1358" rx="10" fill="white" fill-opacity="0.05"/>
<rect x="77.2891" y="69.5781" width="25.761" height="4.40423" rx="2.20211" fill="white" fill-opacity="0.05"/>
<rect x="23.1094" y="202.602" width="25.761" height="4.40423" rx="2.20211" fill="white" fill-opacity="0.05"/>
<rect x="20.4375" y="147.094" width="47.0804" height="4.40423" rx="2.20211" fill="white" fill-opacity="0.05"/>
<rect x="96.8359" y="147.094" width="47.0804" height="4.40423" rx="2.20211" fill="white" fill-opacity="0.05"/>
<rect x="77.2891" y="117.156" width="25.761" height="4.40423" rx="2.20211" fill="white" fill-opacity="0.1"/>
<rect x="109.273" y="236.062" width="25.761" height="4.40423" rx="2.20211" fill="white" fill-opacity="0.1"/>
<rect x="132.367" y="177.938" width="25.761" height="4.40423" rx="2.20211" fill="white" fill-opacity="0.1"/>
<rect x="115.484" y="110.102" width="35.5324" height="13.2127" rx="5" fill="white" fill-opacity="0.1"/>
<rect x="77.2891" y="87.2031" width="59.5168" height="2.64254" rx="1.32127" fill="white" fill-opacity="0.05"/>
<rect x="23.1094" y="233.414" width="59.5168" height="2.64254" rx="1.32127" fill="white" fill-opacity="0.05"/>
<rect x="20.4375" y="154.156" width="21.3194" height="2.64254" rx="1.32127" fill="white" fill-opacity="0.05"/>
<rect x="96.8359" y="154.156" width="21.3194" height="2.64254" rx="1.32127" fill="white" fill-opacity="0.05"/>
<rect x="77.2891" y="92.4922" width="52.4103" height="2.64254" rx="1.32127" fill="white" fill-opacity="0.05"/>
<rect x="23.1094" y="240.469" width="59.5168" height="2.64254" rx="1.32127" fill="white" fill-opacity="0.05"/>
<rect x="77.2891" y="97.7734" width="39.0856" height="2.64254" rx="1.32127" fill="white" fill-opacity="0.05"/>
<rect x="77.2891" y="78.3984" width="69.2882" height="4.40423" rx="2.20211" fill="white" fill-opacity="0.1"/>
<rect x="23.1094" y="211.398" width="69.2882" height="4.40423" rx="2.20211" fill="white" fill-opacity="0.1"/>
<path d="M149.742 202.031C149.742 196.785 153.995 192.531 159.242 192.531H170.062V254.071H159.242C153.995 254.071 149.742 249.818 149.742 244.571V202.031Z" stroke="white" stroke-opacity="0.1"/>
<rect x="1.00781" y="1" width="169.444" height="324.794" rx="19" stroke="#16275A" stroke-width="2"/>
<path opacity="0.3" d="M13.8147 183.523L11.8947 177.843H12.8947L14.6247 183.033H14.1247L15.9147 177.843H16.8247L18.5747 183.033H18.0947L19.8447 177.843H20.7847L18.8647 183.523H17.8347L16.2147 178.773H16.4847L14.8547 183.523H13.8147ZM22.095 183.523V177.843H23.065V180.243H26.175V177.843H27.145V183.523H26.175V181.043H23.065V183.523H22.095ZM28.1072 183.523L30.7072 177.843H31.6672L34.2772 183.523H33.2972L31.0272 178.353H31.3572L29.0572 183.523H28.1072ZM29.2972 182.173L29.5572 181.403H32.6772L32.9372 182.173H29.2972ZM35.898 183.523V178.643H33.958V177.843H38.808V178.643H36.868V183.523H35.898ZM39.8793 180.263L40.3093 178.503L40.4193 179.083C40.2326 179.083 40.076 179.023 39.9493 178.903C39.8226 178.783 39.7593 178.63 39.7593 178.443C39.7593 178.25 39.8193 178.09 39.9393 177.963C40.066 177.837 40.2226 177.773 40.4093 177.773C40.6026 177.773 40.7626 177.837 40.8893 177.963C41.016 178.09 41.0793 178.25 41.0793 178.443C41.0793 178.497 41.0726 178.553 41.0593 178.613C41.0526 178.673 41.0393 178.743 41.0193 178.823C40.9993 178.903 40.966 179.007 40.9193 179.133L40.5093 180.263H39.8793ZM46.5728 181.903C46.5728 182.25 46.4795 182.55 46.2928 182.803C46.1128 183.057 45.8495 183.253 45.5028 183.393C45.1628 183.533 44.7495 183.603 44.2628 183.603C43.8228 183.603 43.3928 183.543 42.9728 183.423C42.5595 183.297 42.2361 183.13 42.0028 182.923L42.3828 182.163C42.6095 182.343 42.8928 182.493 43.2328 182.613C43.5728 182.727 43.9295 182.783 44.3028 182.783C44.7828 182.783 45.1195 182.707 45.3128 182.553C45.5061 182.393 45.6028 182.207 45.6028 181.993C45.6028 181.807 45.5395 181.66 45.4128 181.553C45.2928 181.44 45.1295 181.353 44.9228 181.293C44.7161 181.227 44.4895 181.167 44.2428 181.113C44.0028 181.06 43.7595 181 43.5128 180.933C43.2728 180.867 43.0495 180.777 42.8428 180.663C42.6428 180.55 42.4795 180.397 42.3528 180.203C42.2261 180.003 42.1628 179.753 42.1628 179.453C42.1628 179.113 42.2561 178.817 42.4428 178.563C42.6295 178.31 42.8928 178.113 43.2328 177.973C43.5728 177.833 43.9795 177.763 44.4528 177.763C44.7995 177.763 45.1428 177.803 45.4828 177.883C45.8228 177.957 46.1161 178.08 46.3628 178.253L46.0128 179.033C45.7728 178.867 45.5128 178.75 45.2328 178.683C44.9595 178.617 44.6895 178.583 44.4228 178.583C43.9695 178.583 43.6395 178.663 43.4328 178.823C43.2328 178.977 43.1328 179.167 43.1328 179.393C43.1328 179.58 43.1961 179.73 43.3228 179.843C43.4495 179.95 43.6128 180.037 43.8128 180.103C44.0195 180.163 44.2461 180.22 44.4928 180.273C44.7395 180.327 44.9828 180.387 45.2228 180.453C45.4628 180.52 45.6861 180.61 45.8928 180.723C46.0995 180.837 46.2628 180.99 46.3828 181.183C46.5095 181.37 46.5728 181.61 46.5728 181.903ZM50.6009 183.523V177.843H51.5709V180.243H54.6809V177.843H55.6509V183.523H54.6809V181.043H51.5709V183.523H50.6009ZM56.613 183.523L59.213 177.843H60.173L62.783 183.523H61.803L59.533 178.353H59.863L57.563 183.523H56.613ZM57.803 182.173L58.063 181.403H61.183L61.443 182.173H57.803ZM63.7454 183.523V177.843H66.0654C66.5654 177.843 66.9954 177.923 67.3554 178.083C67.7154 178.237 67.9954 178.463 68.1954 178.763C68.3954 179.057 68.4954 179.417 68.4954 179.843C68.4954 180.263 68.3954 180.623 68.1954 180.923C67.9954 181.223 67.7154 181.453 67.3554 181.613C66.9954 181.773 66.5654 181.853 66.0654 181.853H64.2854L64.7154 181.393V183.523H63.7454ZM64.7154 181.503L64.3454 181.043H66.0054C66.4987 181.043 66.8721 180.94 67.1254 180.733C67.3854 180.527 67.5154 180.23 67.5154 179.843C67.5154 179.457 67.3854 179.16 67.1254 178.953C66.8721 178.747 66.4987 178.643 66.0054 178.643H64.3454L64.7154 178.183V181.503ZM69.9759 183.523V177.843H72.2959C72.7959 177.843 73.2259 177.923 73.5859 178.083C73.9459 178.237 74.2259 178.463 74.4259 178.763C74.6259 179.057 74.7259 179.417 74.7259 179.843C74.7259 180.263 74.6259 180.623 74.4259 180.923C74.2259 181.223 73.9459 181.453 73.5859 181.613C73.2259 181.773 72.7959 181.853 72.2959 181.853H70.5159L70.9459 181.393V183.523H69.9759ZM70.9459 181.503L70.5759 181.043H72.2359C72.7292 181.043 73.1025 180.94 73.3559 180.733C73.6159 180.527 73.7459 180.23 73.7459 179.843C73.7459 179.457 73.6159 179.16 73.3559 178.953C73.1025 178.747 72.7292 178.643 72.2359 178.643H70.5759L70.9459 178.183V181.503ZM77.0163 180.243H80.0063V181.033H77.0163V180.243ZM77.1763 182.713H80.4663V183.523H76.2063V177.843H80.3563V178.643H77.1763V182.713ZM81.9095 183.523V177.843H82.7095L86.3595 182.323H85.9895V177.843H86.9595V183.523H86.1595L82.4995 179.043H82.8795V183.523H81.9095ZM88.9016 183.523V177.843H89.8716V183.523H88.9016ZM91.802 183.523V177.843H92.602L96.252 182.323H95.882V177.843H96.852V183.523H96.052L92.392 179.043H92.772V183.523H91.802ZM103.584 182.873C103.398 183.027 103.188 183.16 102.954 183.273C102.721 183.38 102.471 183.463 102.204 183.523C101.938 183.577 101.668 183.603 101.394 183.603C100.794 183.603 100.258 183.477 99.7842 183.223C99.3109 182.97 98.9376 182.623 98.6642 182.183C98.3976 181.737 98.2642 181.237 98.2642 180.683C98.2642 180.117 98.3976 179.617 98.6642 179.183C98.9376 178.743 99.3042 178.397 99.7642 178.143C100.231 177.89 100.761 177.763 101.354 177.763C101.848 177.763 102.288 177.837 102.674 177.983C103.061 178.13 103.384 178.353 103.644 178.653L103.024 179.283C102.804 179.05 102.554 178.88 102.274 178.773C102.001 178.66 101.701 178.603 101.374 178.603C100.968 178.603 100.601 178.693 100.274 178.873C99.9542 179.047 99.7009 179.29 99.5142 179.603C99.3342 179.917 99.2442 180.277 99.2442 180.683C99.2442 181.077 99.3376 181.433 99.5242 181.753C99.7109 182.067 99.9676 182.313 100.294 182.493C100.621 182.673 100.991 182.763 101.404 182.763C101.724 182.763 102.018 182.717 102.284 182.623C102.551 182.523 102.798 182.37 103.024 182.163L103.584 182.873ZM102.644 182.883V180.653H103.584V182.873L102.644 182.883Z" fill="white"/>
<path d="M10.4251 278.487C9.29142 277.838 7.89467 277.838 6.76099 278.487L1.99769 281.435C1.99769 282.525 1.99769 295.578 1.99769 296.876V305.051C1.99769 306.349 1.99769 306.505 1.99769 307.231V309.775H8.04347C10.7916 309.775 15.9213 309.775 17.2037 309.775L23.2617 306.827C24.3954 306.178 25.0938 304.978 25.0938 303.68V288.982C25.0938 287.684 24.3954 286.485 23.2617 285.836L10.4251 278.487Z" fill="black"/>
<path d="M13.2831 299.368H15.2151C15.3432 299.368 15.466 299.317 15.5566 299.228C15.6472 299.138 15.6981 299.016 15.6981 298.889V296.973C15.6981 296.846 15.749 296.724 15.8395 296.634C15.9301 296.545 16.053 296.494 16.1811 296.494C16.3092 296.494 16.432 296.545 16.5226 296.634C16.6132 296.724 16.6641 296.846 16.6641 296.973V298.889C16.6641 299.27 16.5114 299.635 16.2397 299.905C15.9679 300.174 15.5994 300.326 15.2151 300.326H13.2831C13.155 300.326 13.0321 300.275 12.9416 300.185C12.851 300.096 12.8001 299.974 12.8001 299.847C12.8001 299.72 12.851 299.598 12.9416 299.508C13.0321 299.418 13.155 299.368 13.2831 299.368ZM6.52114 296.494C6.64924 296.494 6.77209 296.545 6.86267 296.634C6.95325 296.724 7.00413 296.846 7.00413 296.973V298.889C7.00413 299.016 7.05502 299.138 7.1456 299.228C7.23618 299.317 7.35903 299.368 7.48713 299.368H9.41912C9.54722 299.368 9.67007 299.418 9.76065 299.508C9.85123 299.598 9.90211 299.72 9.90211 299.847C9.90211 299.974 9.85123 300.096 9.76065 300.185C9.67007 300.275 9.54722 300.326 9.41912 300.326H7.48713C7.10284 300.326 6.73428 300.174 6.46254 299.905C6.1908 299.635 6.03814 299.27 6.03814 298.889V296.973C6.03814 296.846 6.08903 296.724 6.17961 296.634C6.27019 296.545 6.39304 296.494 6.52114 296.494ZM7.48713 289.789H9.41912C9.54722 289.789 9.67007 289.84 9.76065 289.929C9.85123 290.019 9.90211 290.141 9.90211 290.268C9.90211 290.395 9.85123 290.517 9.76065 290.607C9.67007 290.696 9.54722 290.747 9.41912 290.747H7.48713C7.35903 290.747 7.23618 290.797 7.1456 290.887C7.05502 290.977 7.00413 291.099 7.00413 291.226V293.142C7.00413 293.269 6.95325 293.39 6.86267 293.48C6.77209 293.57 6.64924 293.621 6.52114 293.621C6.39304 293.621 6.27019 293.57 6.17961 293.48C6.08903 293.39 6.03814 293.269 6.03814 293.142V291.226C6.03814 290.845 6.1908 290.479 6.46254 290.21C6.73428 289.94 7.10284 289.789 7.48713 289.789ZM16.1811 293.621C16.053 293.621 15.9301 293.57 15.8395 293.48C15.749 293.39 15.6981 293.269 15.6981 293.142V291.226C15.6981 291.099 15.6472 290.977 15.5566 290.887C15.466 290.797 15.3432 290.747 15.2151 290.747H13.2831C13.155 290.747 13.0321 290.696 12.9416 290.607C12.851 290.517 12.8001 290.395 12.8001 290.268C12.8001 290.141 12.851 290.019 12.9416 289.929C13.0321 289.84 13.155 289.789 13.2831 289.789H15.2151C15.5994 289.789 15.9679 289.94 16.2397 290.21C16.5114 290.479 16.6641 290.845 16.6641 291.226V293.142C16.6641 293.269 16.6132 293.39 16.5226 293.48C16.432 293.57 16.3092 293.621 16.1811 293.621ZM12.3171 291.705H14.2491C14.3772 291.705 14.5 291.755 14.5906 291.845C14.6812 291.935 14.7321 292.057 14.7321 292.184V294.1C14.7321 294.227 14.6812 294.348 14.5906 294.438C14.5 294.528 14.3772 294.578 14.2491 294.578H12.3171C12.189 294.578 12.0661 294.528 11.9756 294.438C11.885 294.348 11.8341 294.227 11.8341 294.1V292.184C11.8341 292.057 11.885 291.935 11.9756 291.845C12.0661 291.755 12.189 291.705 12.3171 291.705ZM12.8001 293.621H13.7661V292.663H12.8001V293.621ZM10.3851 294.578H8.45312C8.32503 294.578 8.20217 294.528 8.11159 294.438C8.02101 294.348 7.97013 294.227 7.97013 294.1V292.184C7.97013 292.057 8.02101 291.935 8.11159 291.845C8.20217 291.755 8.32503 291.705 8.45312 291.705H10.3851C10.5132 291.705 10.6361 291.755 10.7266 291.845C10.8172 291.935 10.8681 292.057 10.8681 292.184V294.1C10.8681 294.227 10.8172 294.348 10.7266 294.438C10.6361 294.528 10.5132 294.578 10.3851 294.578ZM9.90211 292.663H8.93612V293.621H9.90211V292.663ZM12.3171 295.536H14.2491C14.3772 295.536 14.5 295.587 14.5906 295.677C14.6812 295.766 14.7321 295.888 14.7321 296.015V297.931C14.7321 298.058 14.6812 298.18 14.5906 298.27C14.5 298.359 14.3772 298.41 14.2491 298.41H12.3171C12.189 298.41 12.0661 298.359 11.9756 298.27C11.885 298.18 11.8341 298.058 11.8341 297.931V296.015C11.8341 295.888 11.885 295.766 11.9756 295.677C12.0661 295.587 12.189 295.536 12.3171 295.536ZM12.8001 297.452H13.7661V296.494H12.8001V297.452ZM10.3851 296.973C10.257 296.973 10.1342 296.923 10.0436 296.833C9.953 296.743 9.90211 296.621 9.90211 296.494C9.77401 296.494 9.65116 296.444 9.56058 296.354C9.47 296.264 9.41912 296.142 9.41912 296.015C9.41912 295.888 9.47 295.766 9.56058 295.677C9.65116 295.587 9.77401 295.536 9.90211 295.536H10.3851C10.5132 295.536 10.6361 295.587 10.7266 295.677C10.8172 295.766 10.8681 295.888 10.8681 296.015V296.494C10.8681 296.621 10.8172 296.743 10.7266 296.833C10.6361 296.923 10.5132 296.973 10.3851 296.973ZM8.45312 295.536C8.58122 295.536 8.70407 295.587 8.79465 295.677C8.88523 295.766 8.93612 295.888 8.93612 296.015V297.452C9.06422 297.452 9.18707 297.503 9.27765 297.592C9.36823 297.682 9.41912 297.804 9.41912 297.931C9.41912 298.058 9.36823 298.18 9.27765 298.27C9.18707 298.359 9.06422 298.41 8.93612 298.41H8.45312C8.32503 298.41 8.20217 298.359 8.11159 298.27C8.02101 298.18 7.97013 298.058 7.97013 297.931V296.015C7.97013 295.888 8.02101 295.766 8.11159 295.677C8.20217 295.587 8.32503 295.536 8.45312 295.536ZM10.3851 297.452C10.4806 297.452 10.574 297.48 10.6534 297.533C10.7329 297.585 10.7948 297.66 10.8313 297.748C10.8679 297.835 10.8775 297.932 10.8588 298.024C10.8402 298.117 10.7942 298.203 10.7266 298.27C10.6591 298.337 10.573 298.382 10.4793 298.401C10.3856 298.419 10.2885 298.41 10.2003 298.373C10.112 298.337 10.0366 298.276 9.98351 298.197C9.93044 298.118 9.90211 298.026 9.90211 297.931C9.90211 297.804 9.953 297.682 10.0436 297.592C10.1342 297.503 10.257 297.452 10.3851 297.452Z" fill="white"/>
<path d="M42.7561 24.1676L28.6293 16.1042C28.0226 15.7569 27.2751 15.7569 26.6674 16.1042L12.5406 24.1676C11.9299 24.5159 11.5547 25.16 11.5547 25.8586V35.889C11.5547 36.5856 11.9299 37.2288 12.5376 37.5781L26.6644 45.6681C27.2732 46.0164 28.0226 46.0164 28.6323 45.6681L42.7591 37.5781C43.3678 37.2278 43.742 36.5856 43.742 35.889V25.8586C43.742 25.16 43.3668 24.5159 42.7561 24.1676Z" stroke="black" stroke-width="2.0081" stroke-miterlimit="10"/>
<path d="M42.2927 32.3911C42.2728 30.5279 41.6052 29.7264 40.2531 30.4943C40.0934 30.5843 39.829 30.7693 39.5975 30.9484L39.5775 28.8972C39.5765 28.7676 39.5017 28.7013 39.4149 28.7508L38.4469 29.2999C38.3581 29.3494 38.2793 29.5018 38.2813 29.6314L38.3641 37.9461C38.3671 38.1361 38.399 38.2004 38.6156 38.1489C39.0736 38.0559 39.7072 37.8392 40.3239 37.4909C41.6212 36.7557 42.3217 35.2359 42.3017 33.3153L42.2927 32.3911ZM40.307 35.9137C40.0435 36.0631 39.803 36.163 39.6514 36.2145L39.6134 32.5138C39.805 32.3703 40.0765 32.1922 40.269 32.0834C40.8378 31.7608 40.9865 32.2961 40.9955 33.1253L41.0045 34.0505C41.0145 34.8925 40.8758 35.5911 40.307 35.9137Z" fill="black"/>
<path d="M37.5849 36.0149C37.6138 38.8023 36.2078 39.8245 35.7029 40.1114L35.5911 40.1738C35.0862 40.4597 33.6762 41.0336 33.6473 38.2462L33.6094 34.6059C33.6094 34.4743 33.6712 34.32 33.76 34.2695L34.745 33.7114C34.8328 33.6619 34.9046 33.7401 34.9066 33.8697L34.9445 37.5101C34.9555 38.6371 35.198 38.7618 35.5752 38.548L35.6869 38.4857C36.0641 38.272 36.3006 37.8752 36.2897 36.7481L36.2517 33.1078C36.2507 32.9782 36.3216 32.8179 36.4104 32.7684L37.3953 32.2104C37.4831 32.1599 37.548 32.242 37.549 32.3716L37.5849 36.0149Z" fill="black"/>
<path d="M32.917 41.338C32.917 41.4676 32.8462 41.616 32.7584 41.6655L31.7815 42.2186C31.6937 42.2691 31.6198 42.2038 31.6198 42.0722L31.5779 37.9332C31.5699 37.2573 31.3763 37.0931 30.8724 37.3781C30.6309 37.5146 30.3914 37.6858 30.2238 37.8411L30.2757 42.8212C30.2767 42.9508 30.2058 43.1111 30.117 43.1606L29.1491 43.7108C29.0603 43.7603 28.9804 43.687 28.9784 43.5564L28.8906 34.9459C28.8896 34.8163 28.9605 34.6679 29.0493 34.6184L30.0252 34.0633C30.114 34.0138 30.1869 34.0801 30.1879 34.2097L30.2088 36.3332C30.4244 36.1402 30.7127 35.8938 31.0241 35.7167C32.2634 35.0122 32.8572 35.596 32.8741 37.1831L32.917 41.338Z" fill="black"/>
<path d="M48.0055 25.3426C48.262 24.9933 48.4017 24.5708 48.4027 24.1245V24.0552C48.4027 23.6515 48.2929 23.3804 48.0754 23.2498C47.8149 23.0935 47.4467 23.1499 46.9168 23.4279C46.6345 23.5763 46.3371 23.7584 46.2183 23.8326C46.1255 23.894 46.0607 24.0166 46.0607 24.1294L46.0547 28.5732C46.0547 28.6702 46.0866 28.7414 46.1505 28.783C46.1724 28.7978 46.2113 28.8157 46.2622 28.8157C46.2902 28.8157 46.3211 28.8107 46.356 28.7959C46.5746 28.7147 46.824 28.6029 47.0595 28.4802C47.9476 28.0152 48.4176 27.277 48.4186 26.3469V26.24C48.4186 25.864 48.3308 25.5939 48.1562 25.4385C48.1103 25.397 48.0604 25.3653 48.0055 25.3426ZM47.8828 24.2284C47.8818 24.7766 47.6483 25.1654 47.1683 25.4168L46.5766 25.7265L46.5786 24.2284C46.6075 24.2116 46.6384 24.1938 46.6704 24.175C46.7931 24.1027 46.9328 24.0216 47.0645 23.9533C47.4208 23.7673 47.6563 23.7059 47.767 23.7713C47.8429 23.8168 47.8838 23.9543 47.8838 24.1591L47.8828 24.2284ZM46.5766 26.3568L47.317 25.9689C47.5226 25.861 47.6802 25.8294 47.763 25.8789C47.8499 25.9313 47.8988 26.0956 47.8978 26.3429V26.4508C47.8968 27.3136 47.3978 27.6916 46.9099 27.9469C46.7811 28.0142 46.6774 28.0617 46.5736 28.1072L46.5766 26.3568Z" fill="black"/>
<path d="M49.6472 26.7841C49.9116 26.9425 50.2189 26.8158 50.4275 26.706C50.5223 26.6565 50.653 26.5754 50.7747 26.4893C50.7438 27.0374 50.5981 27.2057 50.2359 27.3956C49.9625 27.5391 49.6661 27.642 49.5753 27.6687L49.5294 27.6895C49.4276 27.743 49.3667 27.8449 49.3667 27.9646V27.9963C49.3667 28.0289 49.3667 28.1298 49.4476 28.1922C49.4835 28.2199 49.5264 28.2337 49.5753 28.2337C49.5993 28.2337 49.6242 28.2308 49.6511 28.2238C49.7459 28.2001 50.0513 28.0952 50.3846 27.9201C50.9464 27.6252 51.2956 27.2225 51.2966 26.1222L51.3006 22.847C51.3006 22.752 51.2607 22.6728 51.1899 22.6313C51.126 22.5927 51.0462 22.5917 50.9763 22.6283L50.9584 22.6382C50.8566 22.6916 50.7817 22.8232 50.7817 22.9519L50.7777 25.8441C50.6261 25.9678 50.3926 26.1182 50.2788 26.1776C50.1112 26.2656 49.9964 26.2934 49.9405 26.2597C49.8896 26.229 49.7699 26.0866 49.7709 25.4305L49.7729 23.6475C49.7729 23.5525 49.733 23.4743 49.6621 23.4318C49.5983 23.3932 49.5184 23.3922 49.4476 23.4288L49.4286 23.4387C49.3268 23.4921 49.253 23.6237 49.252 23.7524L49.25 25.5354C49.25 26.2251 49.3757 26.6219 49.6472 26.7841Z" fill="black"/>
<path d="M48.2025 30.467C48.1446 30.4245 48.0717 30.4106 48.0029 30.4314L47.9859 30.4373C47.7694 30.5214 47.3134 30.75 47.0769 30.8747C46.3414 31.2596 45.9982 31.8513 45.9972 32.7349L45.9922 36.1744C45.9922 36.2842 46.0401 36.3752 46.1229 36.4257C46.1618 36.4495 46.2067 36.4613 46.2516 36.4613C46.2945 36.4613 46.3374 36.4504 46.3774 36.4297L46.6099 36.308C46.7266 36.2466 46.8074 36.1031 46.8084 35.9587L46.8104 34.0114L48.1047 33.3336C48.2214 33.2722 48.3022 33.1287 48.3022 32.9833V32.7428C48.3022 32.633 48.2544 32.542 48.1715 32.4915C48.0947 32.446 47.9999 32.444 47.9171 32.4875L46.8114 33.0664L46.8124 32.5182C46.8124 32.0888 46.8663 31.9522 47.2675 31.7425L48.1476 31.2814C48.2444 31.2309 48.3042 31.124 48.3042 31.0043V30.6877C48.3042 30.5957 48.2673 30.5155 48.2025 30.467Z" fill="black"/>
<path d="M49.2792 30.737C49.3181 30.7607 49.363 30.7726 49.4079 30.7726C49.4508 30.7726 49.4937 30.7617 49.5336 30.7409L49.7661 30.6192C49.8829 30.5579 49.9647 30.4144 49.9647 30.2689L49.9657 29.7633C49.9657 29.6535 49.9178 29.5624 49.835 29.512C49.7581 29.4665 49.6633 29.4645 49.5805 29.508L49.348 29.6297C49.2313 29.6911 49.1504 29.8345 49.1494 29.98L49.1484 30.4856C49.1484 30.5955 49.1953 30.6875 49.2792 30.737Z" fill="black"/>
<path d="M49.2792 34.7597C49.3181 34.7834 49.363 34.7953 49.4079 34.7953C49.4508 34.7953 49.4937 34.7844 49.5336 34.7636L49.7531 34.6488C49.8699 34.5875 49.9507 34.444 49.9517 34.2996L49.9557 31.0758C49.9557 30.966 49.9078 30.8749 49.825 30.8245C49.7481 30.779 49.6534 30.777 49.5705 30.8205L49.351 30.9353C49.2342 30.9966 49.1534 31.1401 49.1524 31.2846L49.1484 34.5083C49.1484 34.6182 49.1963 34.7092 49.2792 34.7597Z" fill="black"/>
<path d="M52.3494 30.2446C52.3603 30.2851 52.3743 30.3712 52.3743 30.5523L52.3713 32.8093C52.3713 32.9231 52.4182 33.0161 52.5 33.0656C52.5739 33.1101 52.6657 33.1111 52.7475 33.0686L52.985 32.9439C53.0998 32.8835 53.1736 32.749 53.1736 32.5986L53.1766 30.3415C53.1776 29.8498 53.0618 29.5411 52.8224 29.3986C52.6248 29.2798 52.3703 29.2967 52.0849 29.4461L51.7616 29.6153C51.4233 29.7924 50.8566 30.2525 50.8546 31.3469L50.8516 33.6039C50.8516 33.7177 50.8985 33.8107 50.9803 33.8602C51.0182 33.8829 51.0611 33.8938 51.104 33.8938C51.1459 33.8938 51.1878 33.8839 51.2268 33.8631L51.4633 33.7394C51.578 33.6791 51.6529 33.5435 51.6529 33.3941L51.6559 31.1371C51.6569 30.674 51.7417 30.5543 51.9472 30.4474L52.2705 30.2782C52.3065 30.2614 52.3324 30.2505 52.3494 30.2446Z" fill="black"/>
<path d="M55.4788 31.6614C55.5936 31.5792 55.6515 31.4734 55.6525 31.3457V31.131C55.6525 30.9974 55.5796 30.9331 55.5367 30.9074C55.4818 30.8747 55.39 30.849 55.2623 30.9163L54.8931 31.1102C54.8781 31.1181 54.8651 31.1251 54.8532 31.13C54.8512 31.1053 54.8502 31.0736 54.8502 31.0331L54.8532 28.9531L55.4579 28.6365C55.5736 28.5762 55.6515 28.4416 55.6515 28.3021V28.0873C55.6515 27.9805 55.6056 27.8914 55.5267 27.8439C55.4499 27.7984 55.3571 27.7974 55.2713 27.8429L54.8542 28.0616V27.7222C54.8542 27.6114 54.8073 27.5204 54.7254 27.4709C54.6526 27.4274 54.5618 27.4254 54.474 27.4709L54.2195 27.6579C54.1157 27.7381 54.0509 27.8627 54.0509 27.9825L54.0469 31.2448C54.0469 31.507 54.0748 31.8721 54.3263 32.0215C54.4011 32.0661 54.482 32.0839 54.5618 32.0839C54.7254 32.0839 54.8901 32.0107 55.0148 31.9454C55.1944 31.8504 55.387 31.7287 55.4788 31.6614Z" fill="black"/>
<path d="M58.1892 26.6543C58.0306 26.5593 57.7571 26.4901 57.357 26.6989C56.6764 27.0551 56.2364 27.9446 56.2354 28.9658L56.2344 29.4081C56.2334 30.0611 56.3811 30.4678 56.6844 30.6489C56.7692 30.7004 56.887 30.7429 57.0407 30.7429C57.1903 30.7429 57.3739 30.7013 57.5945 30.5866C57.9268 30.4124 58.1613 30.2452 58.4097 30.0483C58.5584 29.9325 58.5774 29.8009 58.5774 29.699V29.4843C58.5774 29.3448 58.4946 29.2794 58.4596 29.2587C58.3848 29.2141 58.294 29.2141 58.2122 29.2577L58.1623 29.2864C57.9647 29.4318 57.6633 29.6337 57.4079 29.7673C57.3001 29.8237 57.2143 29.8415 57.1734 29.8167C57.1514 29.8039 57.0447 29.7168 57.0387 29.2735L58.4596 28.5294C58.5794 28.4671 58.6532 28.3295 58.6532 28.1692V27.9041C58.6542 27.2688 58.4936 26.8364 58.1892 26.6543ZM57.5446 27.5379C57.6164 27.5003 57.6683 27.4875 57.6993 27.4875C57.7122 27.4875 57.7222 27.4895 57.7282 27.4934C57.7392 27.5003 57.834 27.5696 57.8459 27.9793L57.0596 28.3909C57.1145 27.9773 57.2851 27.6735 57.5446 27.5379Z" fill="black"/>
<path d="M61.2884 24.8769C61.2236 24.8275 61.1417 24.8156 61.044 24.8413C60.8544 24.8928 60.6318 24.9818 60.4333 25.0867C59.7577 25.44 59.3546 26.2701 59.3526 27.3071L59.3516 27.7999C59.3506 28.4342 59.5092 28.8646 59.8086 29.0447C59.8894 29.0931 60.0012 29.1347 60.1439 29.1347C60.2746 29.1347 60.4313 29.1001 60.6149 29.0031C60.8853 28.8616 61.1068 28.6993 61.2146 28.6152L61.2156 28.6142C61.3333 28.5222 61.3832 28.4203 61.3832 28.2719V28.0443C61.3832 27.9444 61.3393 27.8602 61.2635 27.8147C61.1896 27.7702 61.0949 27.7702 61.013 27.8128L60.9741 27.8345C60.7685 27.975 60.6358 28.0542 60.4283 28.163C60.3445 28.2066 60.2956 28.2105 60.2776 28.1996C60.2726 28.1967 60.1529 28.1185 60.1529 27.5881L60.1539 27.0954C60.1549 26.4789 60.3115 26.0841 60.6189 25.9228C60.8264 25.814 60.9581 25.7556 61.1607 25.6814L61.2036 25.6606C61.3154 25.6022 61.3872 25.4795 61.3882 25.3499V25.1223C61.3892 25.0739 61.3892 24.9541 61.2884 24.8769Z" fill="black"/>
<path d="M64.0579 23.5791C63.8254 23.4396 63.524 23.4653 63.1618 23.6543C63.082 23.6959 63.0041 23.7434 62.9323 23.7919L62.9333 22.9923C62.9333 22.8845 62.8864 22.7945 62.8045 22.746C62.7287 22.7005 62.6339 22.6995 62.5521 22.742L62.3196 22.8637C62.1889 22.932 62.131 23.0834 62.131 23.2021L62.125 27.7092C62.125 27.8191 62.1729 27.9101 62.2557 27.9606C62.2946 27.9843 62.3395 27.9962 62.3844 27.9962C62.4274 27.9962 62.4703 27.9853 62.5102 27.9645L62.7287 27.8497C62.8455 27.7884 62.9273 27.6449 62.9273 27.4995L62.9313 24.7625C63.056 24.6577 63.2127 24.5518 63.3494 24.4795C63.4921 24.4043 63.5579 24.4093 63.5719 24.4172C63.5729 24.4172 63.6478 24.4667 63.6478 24.7893L63.6448 26.9137C63.6448 27.0235 63.6927 27.1146 63.7755 27.165C63.8513 27.2105 63.9471 27.2125 64.0299 27.169L64.2485 27.0542C64.3652 26.9928 64.4461 26.8494 64.447 26.7049L64.45 24.5805C64.449 24.0719 64.3173 23.7345 64.0579 23.5791Z" fill="black"/>
<path d="M47.2421 39.7701L46.9497 39.6761C46.5396 39.5455 46.4458 39.4534 46.4458 39.1823C46.4468 38.7123 46.6783 38.3917 47.2201 38.1077C47.3528 38.0385 47.5275 37.9692 47.6682 37.9128C47.7679 37.8732 47.8478 37.8416 47.8947 37.8168C48.0034 37.7594 48.0663 37.6605 48.0663 37.5437V37.4616C48.0663 37.3538 48.0094 37.2993 47.9765 37.2766C47.9426 37.2538 47.8717 37.2212 47.7709 37.2607L47.6851 37.2944C47.5005 37.3666 47.291 37.4478 47.0754 37.5606C46.3111 37.9613 45.9229 38.5401 45.9219 39.2832C45.9209 39.9512 46.311 40.1352 46.7451 40.2787L47.0465 40.3796C47.5364 40.5448 47.6252 40.5755 47.6243 40.9248C47.6243 41.3186 47.5364 41.8173 46.8599 42.1716C46.6982 42.2567 46.5595 42.3091 46.4128 42.3655C46.34 42.3932 46.2661 42.4219 46.1883 42.4545L46.1664 42.4654L46.2412 42.605L46.1574 42.4704C46.0486 42.5278 45.9857 42.6247 45.9857 42.7375V42.8197C45.9857 42.9275 46.0426 42.9829 46.0766 43.0067C46.1115 43.0304 46.1514 43.0423 46.1953 43.0423C46.2242 43.0423 46.2552 43.0364 46.2851 43.0255C46.318 43.0126 46.353 42.9998 46.3889 42.9869C46.5535 42.9255 46.7581 42.8494 47.0096 42.7178C47.7679 42.321 48.1531 41.6808 48.1541 40.817C48.1541 40.1134 47.74 39.9264 47.2421 39.7701Z" fill="black"/>
<path d="M50.7529 37.0449C50.6492 37.0696 50.284 37.1646 49.9497 37.3397C49.318 37.6702 48.9698 38.4321 48.9688 39.484V39.8758C48.9678 40.5516 49.1035 40.9613 49.3829 41.1285C49.4687 41.1799 49.5635 41.2057 49.6663 41.2057C49.796 41.2057 49.9397 41.1651 50.0944 41.084C50.4257 40.9108 50.7849 40.6278 50.8867 40.5457L50.8917 40.5417C50.9805 40.4635 51.0144 40.3893 51.0144 40.2676L51.0184 37.2833C51.0184 37.2388 51.0184 37.1458 50.9435 37.0835C50.8956 37.0439 50.8348 37.03 50.7529 37.0449ZM50.4955 40.2043C50.3678 40.2983 50.1472 40.4527 49.9467 40.5575C49.8589 40.6031 49.7401 40.6496 49.6703 40.608C49.6024 40.5674 49.4887 40.4042 49.4887 39.7709V39.3791C49.4897 38.5528 49.6782 38.0858 50.0994 37.8661C50.2361 37.7939 50.3808 37.7365 50.4995 37.695L50.4955 40.2043Z" fill="black"/>
<path d="M53.9138 35.4188C53.8529 35.3822 53.7771 35.3812 53.7112 35.4159L53.6653 35.4396C53.5536 35.498 53.5027 35.6365 53.5027 35.7404L53.4997 37.7827C53.4987 38.3824 53.3121 38.797 52.9578 38.982L52.871 39.0275C52.8071 39.0611 52.6904 39.1106 52.6245 39.072C52.5906 39.0522 52.4798 38.9493 52.4808 38.4833L52.4838 36.441C52.4838 36.345 52.4439 36.2658 52.3751 36.2243C52.3142 36.1877 52.2384 36.1867 52.1725 36.2213L52.1266 36.2451C52.0148 36.3034 51.9639 36.442 51.9639 36.5459L51.9609 38.5882C51.9599 39.1077 52.0847 39.4461 52.3322 39.5945C52.419 39.6459 52.5188 39.6726 52.6255 39.6726C52.7503 39.6726 52.885 39.637 53.0197 39.5668L53.1065 39.5213C53.5466 39.2907 54.0176 38.6861 54.0186 37.6788L54.0216 35.6375C54.0235 35.5386 53.9836 35.4604 53.9138 35.4188Z" fill="black"/>
<path d="M56.8179 32.5907C56.757 32.5541 56.6811 32.5531 56.6153 32.5878L56.5694 32.6115C56.4576 32.6699 56.4067 32.8084 56.4067 32.9113L56.4057 34.0344C56.2141 34.0898 55.9976 34.1798 55.8569 34.254C55.2073 34.5944 54.877 35.3069 54.876 36.3725L54.875 36.7901C54.874 37.4659 55.0097 37.8756 55.2891 38.0428C55.3749 38.0942 55.4697 38.12 55.5725 38.12C55.7022 38.12 55.8459 38.0794 56.0006 37.9983C56.3319 37.8251 56.6911 37.5421 56.7939 37.46L56.7989 37.456C56.8887 37.3779 56.9216 37.3036 56.9216 37.1819L56.9276 32.8074C56.9266 32.7114 56.8877 32.6323 56.8179 32.5907ZM56.4017 37.1196C56.275 37.2126 56.0545 37.367 55.8529 37.4728C55.7651 37.5184 55.6464 37.5649 55.5765 37.5233C55.5087 37.4827 55.3949 37.3195 55.3949 36.6862L55.3959 36.2686C55.3969 35.4602 55.5855 35.0011 56.0056 34.7805C56.1114 34.725 56.266 34.6568 56.4057 34.6053L56.4017 37.1196Z" fill="black"/>
<path d="M58.3506 33.0923C58.2868 33.0537 58.2089 33.0528 58.1401 33.0884L58.1131 33.1022C58.0024 33.1606 57.9415 33.3031 57.9415 33.407L57.9375 36.5991C57.9375 36.6901 57.9784 36.7683 58.0483 36.8098C58.0812 36.8296 58.1181 36.8395 58.155 36.8395C58.19 36.8395 58.2249 36.8306 58.2578 36.8138L58.2848 36.799C58.3955 36.7406 58.4564 36.5981 58.4564 36.4942L58.4604 33.3021C58.4604 33.2121 58.4195 33.1339 58.3506 33.0923Z" fill="black"/>
<path d="M58.3476 31.7717C58.2848 31.7341 58.2059 31.7321 58.1371 31.7677L58.1101 31.7816C57.9984 31.8399 57.9385 31.9824 57.9385 32.0863L57.9375 32.5544C57.9375 32.6474 57.9774 32.7245 58.0463 32.7661C58.0792 32.7859 58.1151 32.7958 58.153 32.7958C58.189 32.7958 58.2249 32.7869 58.2588 32.7691L58.2858 32.7552C58.3865 32.7028 58.4574 32.5771 58.4574 32.4505L58.4584 31.9824C58.4584 31.8914 58.4175 31.8122 58.3476 31.7717Z" fill="black"/>
</svg>
