<svg width="40" height="38" viewBox="0 0 40 38" fill="none" xmlns="http://www.w3.org/2000/svg">
<rect width="40" height="38" rx="19" transform="matrix(-1 0 0 1 40 0)" fill="#333333" fill-opacity="0.1"/>
<path d="M16.7273 26.3636H13.4545C13.2376 26.3636 13.0294 26.2774 12.876 26.124C12.7226 25.9706 12.6364 25.7625 12.6364 25.5455V22.2727C12.6364 22.0557 12.5502 21.8476 12.3967 21.6942C12.2433 21.5407 12.0352 21.4545 11.8182 21.4545C11.6012 21.4545 11.3931 21.5407 11.2396 21.6942C11.0862 21.8476 11 22.0557 11 22.2727V25.5455C11 26.1964 11.2586 26.8208 11.7189 27.2811C12.1792 27.7414 12.8036 28 13.4545 28H16.7273C16.9443 28 17.1524 27.9138 17.3058 27.7604C17.4593 27.6069 17.5455 27.3988 17.5455 27.1818C17.5455 26.9648 17.4593 26.7567 17.3058 26.6033C17.1524 26.4498 16.9443 26.3636 16.7273 26.3636ZM28.1818 21.4545C27.9648 21.4545 27.7567 21.5407 27.6033 21.6942C27.4498 21.8476 27.3636 22.0557 27.3636 22.2727V25.5455C27.3636 25.7625 27.2774 25.9706 27.124 26.124C26.9706 26.2774 26.7625 26.3636 26.5455 26.3636H23.2727C23.0557 26.3636 22.8476 26.4498 22.6942 26.6033C22.5407 26.7567 22.4545 26.9648 22.4545 27.1818C22.4545 27.3988 22.5407 27.6069 22.6942 27.7604C22.8476 27.9138 23.0557 28 23.2727 28H26.5455C27.1964 28 27.8208 27.7414 28.2811 27.2811C28.7414 26.8208 29 26.1964 29 25.5455V22.2727C29 22.0557 28.9138 21.8476 28.7604 21.6942C28.6069 21.5407 28.3988 21.4545 28.1818 21.4545ZM26.5455 10H23.2727C23.0557 10 22.8476 10.0862 22.6942 10.2396C22.5407 10.3931 22.4545 10.6012 22.4545 10.8182C22.4545 11.0352 22.5407 11.2433 22.6942 11.3967C22.8476 11.5502 23.0557 11.6364 23.2727 11.6364H26.5455C26.7625 11.6364 26.9706 11.7226 27.124 11.876C27.2774 12.0294 27.3636 12.2376 27.3636 12.4545V15.7273C27.3636 15.9443 27.4498 16.1524 27.6033 16.3058C27.7567 16.4593 27.9648 16.5455 28.1818 16.5455C28.3988 16.5455 28.6069 16.4593 28.7604 16.3058C28.9138 16.1524 29 15.9443 29 15.7273V12.4545C29 11.8036 28.7414 11.1792 28.2811 10.7189C27.8208 10.2586 27.1964 10 26.5455 10ZM11.8182 16.5455C12.0352 16.5455 12.2433 16.4593 12.3967 16.3058C12.5502 16.1524 12.6364 15.9443 12.6364 15.7273V12.4545C12.6364 12.2376 12.7226 12.0294 12.876 11.876C13.0294 11.7226 13.2376 11.6364 13.4545 11.6364H16.7273C16.9443 11.6364 17.1524 11.5502 17.3058 11.3967C17.4593 11.2433 17.5455 11.0352 17.5455 10.8182C17.5455 10.6012 17.4593 10.3931 17.3058 10.2396C17.1524 10.0862 16.9443 10 16.7273 10H13.4545C12.8036 10 12.1792 10.2586 11.7189 10.7189C11.2586 11.1792 11 11.8036 11 12.4545V15.7273C11 15.9443 11.0862 16.1524 11.2396 16.3058C11.3931 16.4593 11.6012 16.5455 11.8182 16.5455ZM18.3636 13.2727H15.0909C14.8739 13.2727 14.6658 13.3589 14.5124 13.5124C14.3589 13.6658 14.2727 13.8739 14.2727 14.0909V17.3636C14.2727 17.5806 14.3589 17.7887 14.5124 17.9422C14.6658 18.0956 14.8739 18.1818 15.0909 18.1818H18.3636C18.5806 18.1818 18.7887 18.0956 18.9422 17.9422C19.0956 17.7887 19.1818 17.5806 19.1818 17.3636V14.0909C19.1818 13.8739 19.0956 13.6658 18.9422 13.5124C18.7887 13.3589 18.5806 13.2727 18.3636 13.2727ZM17.5455 16.5455H15.9091V14.9091H17.5455V16.5455ZM21.6364 18.1818H24.9091C25.1261 18.1818 25.3342 18.0956 25.4876 17.9422C25.6411 17.7887 25.7273 17.5806 25.7273 17.3636V14.0909C25.7273 13.8739 25.6411 13.6658 25.4876 13.5124C25.3342 13.3589 25.1261 13.2727 24.9091 13.2727H21.6364C21.4194 13.2727 21.2113 13.3589 21.0578 13.5124C20.9044 13.6658 20.8182 13.8739 20.8182 14.0909V17.3636C20.8182 17.5806 20.9044 17.7887 21.0578 17.9422C21.2113 18.0956 21.4194 18.1818 21.6364 18.1818ZM22.4545 14.9091H24.0909V16.5455H22.4545V14.9091ZM18.3636 19.8182H15.0909C14.8739 19.8182 14.6658 19.9044 14.5124 20.0578C14.3589 20.2113 14.2727 20.4194 14.2727 20.6364V23.9091C14.2727 24.1261 14.3589 24.3342 14.5124 24.4876C14.6658 24.6411 14.8739 24.7273 15.0909 24.7273H18.3636C18.5806 24.7273 18.7887 24.6411 18.9422 24.4876C19.0956 24.3342 19.1818 24.1261 19.1818 23.9091V20.6364C19.1818 20.4194 19.0956 20.2113 18.9422 20.0578C18.7887 19.9044 18.5806 19.8182 18.3636 19.8182ZM17.5455 23.0909H15.9091V21.4545H17.5455V23.0909ZM21.6364 22.2727C21.8534 22.2727 22.0615 22.1865 22.2149 22.0331C22.3683 21.8796 22.4545 21.6715 22.4545 21.4545C22.6715 21.4545 22.8796 21.3683 23.0331 21.2149C23.1865 21.0615 23.2727 20.8534 23.2727 20.6364C23.2727 20.4194 23.1865 20.2113 23.0331 20.0578C22.8796 19.9044 22.6715 19.8182 22.4545 19.8182H21.6364C21.4194 19.8182 21.2113 19.9044 21.0578 20.0578C20.9044 20.2113 20.8182 20.4194 20.8182 20.6364V21.4545C20.8182 21.6715 20.9044 21.8796 21.0578 22.0331C21.2113 22.1865 21.4194 22.2727 21.6364 22.2727ZM24.9091 19.8182C24.6921 19.8182 24.484 19.9044 24.3305 20.0578C24.1771 20.2113 24.0909 20.4194 24.0909 20.6364V23.0909C23.8739 23.0909 23.6658 23.1771 23.5124 23.3305C23.3589 23.484 23.2727 23.6921 23.2727 23.9091C23.2727 24.1261 23.3589 24.3342 23.5124 24.4876C23.6658 24.6411 23.8739 24.7273 24.0909 24.7273H24.9091C25.1261 24.7273 25.3342 24.6411 25.4876 24.4876C25.6411 24.3342 25.7273 24.1261 25.7273 23.9091V20.6364C25.7273 20.4194 25.6411 20.2113 25.4876 20.0578C25.3342 19.9044 25.1261 19.8182 24.9091 19.8182ZM21.6364 23.0909C21.4745 23.0909 21.3164 23.1389 21.1818 23.2288C21.0473 23.3187 20.9424 23.4465 20.8805 23.596C20.8185 23.7455 20.8023 23.91 20.8339 24.0687C20.8655 24.2274 20.9434 24.3732 21.0578 24.4876C21.1722 24.6021 21.318 24.68 21.4767 24.7116C21.6355 24.7431 21.8 24.7269 21.9495 24.665C22.099 24.6031 22.2268 24.4982 22.3167 24.3636C22.4066 24.2291 22.4545 24.0709 22.4545 23.9091C22.4545 23.6921 22.3683 23.484 22.2149 23.3305C22.0615 23.1771 21.8534 23.0909 21.6364 23.0909Z" fill="#333333"/>
</svg>
