<svg width="193" height="372" viewBox="0 0 193 372" fill="none" xmlns="http://www.w3.org/2000/svg">
<rect x="13.5" y="66.5" width="164" height="85" rx="9.5" stroke="#333333" stroke-opacity="0.1"/>
<rect x="13.5" y="218.5" width="148" height="70" rx="9.5" stroke="#333333" stroke-opacity="0.1"/>
<rect x="13.5" y="157.5" width="78" height="31" rx="4.5" stroke="#333333" stroke-opacity="0.1"/>
<rect x="99.5" y="157.5" width="78" height="31" rx="4.5" stroke="#333333" stroke-opacity="0.1"/>
<rect x="23" y="76" width="58" height="66" rx="10" fill="#333333" fill-opacity="0.05"/>
<rect x="87" y="79" width="29" height="5" rx="2.5" fill="#333333" fill-opacity="0.05"/>
<rect x="26" y="230" width="29" height="5" rx="2.5" fill="#333333" fill-opacity="0.05"/>
<rect x="23" y="167" width="53" height="5" rx="2.5" fill="#333333" fill-opacity="0.05"/>
<rect x="109" y="167" width="53" height="5" rx="2.5" fill="#333333" fill-opacity="0.05"/>
<rect x="87" y="133" width="29" height="5" rx="2.5" fill="#333333" fill-opacity="0.1"/>
<rect x="123" y="268" width="29" height="5" rx="2.5" fill="#333333" fill-opacity="0.1"/>
<rect x="149" y="202" width="29" height="5" rx="2.5" fill="#333333" fill-opacity="0.1"/>
<rect x="130" y="125" width="40" height="15" rx="5" fill="#333333" fill-opacity="0.1"/>
<rect x="87" y="99" width="67" height="3" rx="1.5" fill="#333333" fill-opacity="0.05"/>
<rect x="26" y="265" width="67" height="3" rx="1.5" fill="#333333" fill-opacity="0.05"/>
<rect x="23" y="175" width="24" height="3" rx="1.5" fill="#333333" fill-opacity="0.05"/>
<rect x="109" y="175" width="24" height="3" rx="1.5" fill="#333333" fill-opacity="0.05"/>
<rect x="87" y="105" width="59" height="3" rx="1.5" fill="#333333" fill-opacity="0.05"/>
<rect x="26" y="273" width="67" height="3" rx="1.5" fill="#333333" fill-opacity="0.05"/>
<rect x="87" y="111" width="44" height="3" rx="1.5" fill="#333333" fill-opacity="0.05"/>
<rect x="87" y="89" width="78" height="5" rx="2.5" fill="#333333" fill-opacity="0.1"/>
<rect x="26" y="240" width="78" height="5" rx="2.5" fill="#333333" fill-opacity="0.1"/>
<path d="M168.5 228C168.5 222.753 172.753 218.5 178 218.5H191.5V288.5H178C172.753 288.5 168.5 284.247 168.5 279V228Z" stroke="#333333" stroke-opacity="0.1"/>
<path d="M181 232.5C181 231.119 182.119 230 183.5 230H192V235H183.5C182.119 235 181 233.881 181 232.5Z" fill="#333333" fill-opacity="0.05"/>
<path d="M181 266.5C181 265.672 181.672 265 182.5 265H192V268H182.5C181.672 268 181 267.328 181 266.5Z" fill="#333333" fill-opacity="0.05"/>
<path d="M181 274.5C181 273.672 181.672 273 182.5 273H192V276H182.5C181.672 276 181 275.328 181 274.5Z" fill="#333333" fill-opacity="0.05"/>
<path d="M181 242.5C181 241.119 182.119 240 183.5 240H192V245H183.5C182.119 245 181 243.881 181 242.5Z" fill="#333333" fill-opacity="0.1"/>
<rect x="1" y="1" width="191" height="369" rx="19" stroke="#16275A" stroke-width="2"/>
<path opacity="0.3" d="M15.19 207L13.28 201.28H14.58L16.25 206.4H15.59L17.34 201.28H18.52L20.19 206.4H19.56L21.27 201.28H22.49L20.58 207H19.23L17.72 202.47H18.07L16.55 207H15.19ZM23.6356 207V201.28H24.8956V203.58H27.6456V201.28H28.9056V207H27.6456V204.62H24.8956V207H23.6356ZM29.7273 207L32.3273 201.28H33.5773L36.1673 207H34.9173L32.7373 201.92H33.1573L30.9573 207H29.7273ZM31.0173 205.76L31.3573 204.8H34.3373L34.6773 205.76H31.0173ZM37.6837 207V202.31H35.8037V201.28H40.8237V202.31H38.9437V207H37.6837ZM41.871 203.97L42.361 202.04L42.521 202.79C42.2877 202.79 42.0943 202.717 41.941 202.57C41.7877 202.423 41.711 202.237 41.711 202.01C41.711 201.777 41.7877 201.587 41.941 201.44C42.0943 201.287 42.2843 201.21 42.511 201.21C42.751 201.21 42.9477 201.287 43.101 201.44C43.2543 201.587 43.331 201.777 43.331 202.01C43.331 202.077 43.3243 202.143 43.311 202.21C43.3043 202.277 43.2877 202.36 43.261 202.46C43.2343 202.56 43.1877 202.687 43.121 202.84L42.671 203.97H41.871ZM48.9301 205.31C48.9301 205.67 48.8301 205.983 48.6301 206.25C48.4367 206.517 48.1601 206.727 47.8001 206.88C47.4401 207.027 47.0001 207.1 46.4801 207.1C46.0334 207.1 45.5934 207.04 45.1601 206.92C44.7334 206.8 44.3901 206.643 44.1301 206.45L44.6001 205.47C44.8401 205.65 45.1334 205.793 45.4801 205.9C45.8267 206.007 46.1801 206.06 46.5401 206.06C46.9667 206.06 47.2634 205.997 47.4301 205.87C47.5967 205.743 47.6801 205.593 47.6801 205.42C47.6801 205.26 47.6167 205.133 47.4901 205.04C47.3701 204.947 47.2067 204.873 47.0001 204.82C46.8001 204.76 46.5801 204.707 46.3401 204.66C46.1001 204.607 45.8601 204.547 45.6201 204.48C45.3801 204.413 45.1601 204.32 44.9601 204.2C44.7601 204.08 44.5967 203.92 44.4701 203.72C44.3501 203.52 44.2901 203.267 44.2901 202.96C44.2901 202.607 44.3901 202.297 44.5901 202.03C44.7901 201.763 45.0701 201.557 45.4301 201.41C45.7967 201.263 46.2267 201.19 46.7201 201.19C47.0734 201.19 47.4267 201.23 47.7801 201.31C48.1401 201.383 48.4534 201.507 48.7201 201.68L48.2901 202.66C48.0367 202.493 47.7701 202.38 47.4901 202.32C47.2167 202.253 46.9467 202.22 46.6801 202.22C46.2801 202.22 45.9901 202.283 45.8101 202.41C45.6367 202.537 45.5501 202.697 45.5501 202.89C45.5501 203.05 45.6101 203.177 45.7301 203.27C45.8567 203.363 46.0201 203.44 46.2201 203.5C46.4201 203.553 46.6401 203.603 46.8801 203.65C47.1267 203.697 47.3667 203.757 47.6001 203.83C47.8401 203.897 48.0601 203.99 48.2601 204.11C48.4667 204.223 48.6301 204.377 48.7501 204.57C48.8701 204.763 48.9301 205.01 48.9301 205.31ZM52.8739 207V201.28H54.1339V203.58H56.8839V201.28H58.1439V207H56.8839V204.62H54.1339V207H52.8739ZM58.9656 207L61.5656 201.28H62.8156L65.4056 207H64.1556L61.9756 201.92H62.3956L60.1956 207H58.9656ZM60.2556 205.76L60.5956 204.8H63.5756L63.9156 205.76H60.2556ZM66.2235 207V201.28H68.6935C69.2068 201.28 69.6502 201.363 70.0235 201.53C70.3968 201.69 70.6835 201.923 70.8835 202.23C71.0902 202.537 71.1935 202.907 71.1935 203.34C71.1935 203.773 71.0902 204.147 70.8835 204.46C70.6835 204.767 70.3968 205.003 70.0235 205.17C69.6502 205.33 69.2068 205.41 68.6935 205.41H66.9235L67.4835 204.83V207H66.2235ZM67.4835 204.98L67.0235 204.39H68.6035C69.0435 204.39 69.3735 204.3 69.5935 204.12C69.8135 203.933 69.9235 203.673 69.9235 203.34C69.9235 203.007 69.8135 202.75 69.5935 202.57C69.3735 202.39 69.0435 202.3 68.6035 202.3H67.0235L67.4835 201.72V204.98ZM72.5126 207V201.28H74.9826C75.4959 201.28 75.9392 201.363 76.3126 201.53C76.6859 201.69 76.9726 201.923 77.1726 202.23C77.3792 202.537 77.4826 202.907 77.4826 203.34C77.4826 203.773 77.3792 204.147 77.1726 204.46C76.9726 204.767 76.6859 205.003 76.3126 205.17C75.9392 205.33 75.4959 205.41 74.9826 205.41H73.2126L73.7726 204.83V207H72.5126ZM73.7726 204.98L73.3126 204.39H74.8926C75.3326 204.39 75.6626 204.3 75.8826 204.12C76.1026 203.933 76.2126 203.673 76.2126 203.34C76.2126 203.007 76.1026 202.75 75.8826 202.57C75.6626 202.39 75.3326 202.3 74.8926 202.3H73.3126L73.7726 201.72V204.98ZM79.8916 203.61H82.7916V204.59H79.8916V203.61ZM80.0616 205.99H83.2416V207H78.8016V201.28H83.1316V202.3H80.0616V205.99ZM84.5438 207V201.28H85.5838L89.0338 205.46H88.5638V201.28H89.8138V207H88.7738L85.3238 202.82H85.8038V207H84.5438ZM91.5555 207V201.28H92.8155V207H91.5555ZM94.5536 207V201.28H95.5936L99.0436 205.46H98.5736V201.28H99.8236V207H98.7836L95.3336 202.82H95.8136V207H94.5536ZM106.565 206.37C106.372 206.523 106.149 206.657 105.895 206.77C105.649 206.877 105.389 206.957 105.115 207.01C104.842 207.07 104.565 207.1 104.285 207.1C103.672 207.1 103.122 206.973 102.635 206.72C102.155 206.46 101.779 206.107 101.505 205.66C101.232 205.213 101.095 204.707 101.095 204.14C101.095 203.573 101.232 203.07 101.505 202.63C101.779 202.183 102.152 201.833 102.625 201.58C103.105 201.32 103.649 201.19 104.255 201.19C104.789 201.19 105.255 201.27 105.655 201.43C106.055 201.583 106.389 201.823 106.655 202.15L105.835 202.94C105.629 202.707 105.395 202.537 105.135 202.43C104.875 202.317 104.589 202.26 104.275 202.26C103.909 202.26 103.579 202.34 103.285 202.5C102.999 202.66 102.772 202.883 102.605 203.17C102.445 203.45 102.365 203.773 102.365 204.14C102.365 204.507 102.449 204.833 102.615 205.12C102.782 205.407 103.012 205.63 103.305 205.79C103.599 205.95 103.935 206.03 104.315 206.03C104.615 206.03 104.889 205.983 105.135 205.89C105.389 205.797 105.625 205.657 105.845 205.47L106.565 206.37ZM105.375 206.38V204.09H106.565V206.37L105.375 206.38Z" fill="#172659"/>
<path d="M89.2987 25.3825L87.8944 24.5677C87.7538 24.4865 87.5771 24.5875 87.5771 24.7515V28.2542C87.5771 28.4183 87.7538 28.5192 87.8944 28.4381L89.2987 27.6233C89.3636 27.5854 89.4051 27.5151 89.4051 27.4394V25.5646C89.4051 25.4888 89.3654 25.4185 89.2987 25.3807" fill="#172659"/>
<path d="M89.516 23.2567L91.1312 22.3247C91.1961 22.2868 91.2376 22.2183 91.2376 22.1426L91.2448 20.5093C91.2448 20.3453 91.0681 20.2443 90.9275 20.3255L87.8935 22.0777C87.7529 22.1588 87.7529 22.3625 87.8935 22.4437L89.3051 23.2585C89.37 23.2963 89.4511 23.2963 89.516 23.2585" fill="#172659"/>
<path d="M89.3032 29.7375L87.8808 30.5596C87.7402 30.6407 87.7402 30.8426 87.8808 30.9255L90.9256 32.7102C91.0663 32.7931 91.2447 32.6904 91.2447 32.5263L91.2375 30.8624C91.2375 30.7867 91.1978 30.7182 91.1329 30.6803L89.5177 29.7393C89.4528 29.7015 89.3717 29.7015 89.305 29.7393" fill="#172659"/>
<path d="M93.0742 32.1663L93.0796 33.7906C93.0796 33.8663 93.1193 33.9348 93.186 33.9727L96.649 35.9737C96.7139 36.0115 96.795 36.0115 96.8599 35.9737L100.321 33.9727C100.386 33.9348 100.426 33.8663 100.427 33.7906L100.435 32.1663C100.435 32.0023 100.258 31.8995 100.117 31.9825L96.8599 33.8573C96.795 33.8951 96.7139 33.8951 96.649 33.8573L93.3915 31.9825C93.2509 31.9013 93.0742 32.0041 93.0742 32.1663Z" fill="#172659"/>
<path d="M100.433 25.561V27.4359C100.433 27.5116 100.394 27.5819 100.329 27.6197L96.8638 29.6316C96.7989 29.6694 96.716 29.6694 96.6511 29.6316L93.1863 27.6197C93.1214 27.5819 93.0799 27.5116 93.0799 27.4359V25.561C93.0799 25.4853 93.1196 25.415 93.1863 25.3772L96.6511 23.3888C96.716 23.3509 96.7971 23.3509 96.862 23.3888L100.327 25.3772C100.392 25.415 100.433 25.4853 100.433 25.561ZM91.252 24.501V28.4941C91.252 28.5698 91.2916 28.6401 91.3583 28.6779L96.6511 31.7353C96.716 31.7732 96.7971 31.7732 96.862 31.7353L102.155 28.6779C102.22 28.6401 102.261 28.5698 102.261 28.4941V24.501C102.261 24.4253 102.221 24.355 102.155 24.3172L96.862 21.2706C96.7971 21.2327 96.716 21.2327 96.6511 21.2706L91.3583 24.3172C91.2934 24.355 91.252 24.4253 91.252 24.501Z" fill="#172659"/>
<path d="M104.216 27.623L105.62 28.4378C105.761 28.519 105.937 28.418 105.937 28.254V24.7513C105.937 24.589 105.761 24.4863 105.62 24.5674L104.216 25.3822C104.151 25.4201 104.109 25.4904 104.109 25.5661V27.4409C104.109 27.5167 104.149 27.587 104.216 27.6248" fill="#172659"/>
<path d="M104.202 23.2582L105.614 22.4434C105.755 22.3623 105.755 22.1586 105.614 22.0775L102.58 20.3252C102.438 20.2441 102.261 20.3469 102.263 20.5091L102.27 22.1424C102.27 22.2181 102.311 22.2866 102.376 22.3244L103.992 23.2564C104.056 23.2943 104.138 23.2943 104.202 23.2564" fill="#172659"/>
<path d="M103.99 29.7393L102.374 30.6803C102.31 30.7182 102.27 30.7867 102.27 30.8624L102.263 32.5263C102.263 32.6904 102.439 32.7931 102.582 32.7102L105.627 30.9255C105.767 30.8426 105.765 30.6407 105.627 30.5596L104.204 29.7393C104.139 29.7015 104.056 29.7015 103.992 29.7393" fill="#172659"/>
<path d="M100.433 20.8375L100.425 19.2043C100.425 19.1286 100.384 19.0601 100.319 19.0222L96.856 17.0284C96.7911 16.9905 96.71 16.9905 96.6451 17.0284L93.1839 19.0222C93.119 19.0601 93.0775 19.1304 93.0775 19.2043L93.0703 20.8375C93.0703 21.0016 93.247 21.1025 93.3876 21.0214L96.6451 19.143C96.71 19.1051 96.7911 19.1051 96.856 19.143L100.114 21.0214C100.254 21.1025 100.431 20.9998 100.431 20.8375" fill="#172659"/>
<path d="M70.7646 45.0879H67.0906V49.0016C67.0906 49.1332 66.9825 49.2413 66.8509 49.2413H66.2398C66.1082 49.2413 66 49.1332 66 49.0016V42.492C66 40.9002 66.8743 40.2656 68.549 40.2656C69.2557 40.2656 70.3806 40.2891 70.8836 40.3377C70.9557 40.3504 71.0025 40.4333 71.0025 40.5054V41.1039C71.0025 41.1868 70.9539 41.2481 70.8709 41.2481H68.5617C67.2926 41.2481 67.0888 41.5834 67.0888 42.492V44.1559H70.7628C70.8944 44.1559 71.0025 44.264 71.0025 44.3956V44.8499C71.0025 44.9815 70.8944 45.0897 70.7628 45.0897" fill="#172659"/>
<path d="M73.1819 49.2438H72.6069C72.4753 49.2438 72.3671 49.1356 72.3671 49.004V42.9C72.3671 42.7684 72.4753 42.6602 72.6069 42.6602H73.1819C73.3135 42.6602 73.4217 42.7684 73.4217 42.9V49.004C73.4217 49.1356 73.3135 49.2438 73.1819 49.2438ZM73.2054 41.7102H72.5943C72.4627 41.7102 72.3545 41.602 72.3545 41.4704V40.5132C72.3545 40.3816 72.4627 40.2734 72.5943 40.2734H73.2054C73.337 40.2734 73.4451 40.3816 73.4451 40.5132V41.4704C73.4451 41.602 73.337 41.7102 73.2054 41.7102Z" fill="#172659"/>
<path d="M79.777 49.2446H79.1551C79.0235 49.2446 78.9388 49.1364 78.9388 49.0048V44.7324C78.9388 43.8346 78.7116 43.4885 77.8968 43.4885H77.0477C76.2347 43.4885 76.0058 43.8364 76.0058 44.7324V49.0048C76.0058 49.1364 75.9228 49.2446 75.7894 49.2446H75.1675C75.0359 49.2446 74.9512 49.1364 74.9512 49.0048V44.7324C74.9512 42.89 76.2311 42.5781 77.0459 42.5781H77.895C78.708 42.5781 79.9898 42.89 79.9898 44.7324V49.0048C79.9898 49.1364 79.9068 49.2446 79.7752 49.2446" fill="#172659"/>
<path d="M84.2993 49.2547C84.0722 49.2907 83.5818 49.3268 83.151 49.3268C82.0261 49.3268 81.3789 48.9554 81.3789 47.6629V41.4868C81.3789 41.366 81.4871 41.283 81.6187 41.2596L82.2046 41.1641H82.228C82.347 41.1641 82.4317 41.2722 82.4317 41.3912V42.6603H84.2993C84.4309 42.6603 84.5265 42.7432 84.5265 42.8766V43.2841C84.5265 43.403 84.4309 43.4986 84.2993 43.4986H82.4317V47.6629C82.4317 48.3569 82.6588 48.4759 83.3168 48.4759H84.2867C84.4543 48.4759 84.5373 48.5245 84.5373 48.6435V49.0509C84.5373 49.1591 84.4778 49.2312 84.2975 49.2547" fill="#172659"/>
<path d="M95.5131 49.1959C95.1183 49.268 94.5793 49.3275 94.0168 49.3275C92.389 49.3275 91.4678 48.1792 91.4678 46.4197V45.4859C91.4678 43.7265 92.3781 42.5781 94.0168 42.5781C94.5666 42.5781 95.1183 42.6376 95.5131 42.7097C95.7042 42.7458 95.7528 42.8053 95.7528 42.9729V43.4038C95.7528 43.5227 95.6573 43.5822 95.5491 43.5822H95.5004C94.9741 43.5227 94.6027 43.4993 94.0168 43.4993C93.0596 43.4993 92.5206 44.1339 92.5206 45.4859V46.4197C92.5206 47.7609 93.0469 48.4063 94.0168 48.4063C94.6027 48.4063 94.9741 48.3829 95.5004 48.3216H95.5491C95.6573 48.3216 95.7528 48.3811 95.7528 48.5018V48.9327C95.7528 49.0877 95.7042 49.1598 95.5131 49.1959Z" fill="#172659"/>
<path d="M101.651 49.2413H101.076C100.945 49.2413 100.836 49.1332 100.836 49.0016V44.9815C100.836 43.9882 100.357 43.4727 99.2806 43.4727C98.8011 43.4727 98.2747 43.5448 97.9052 43.6529V49.0016C97.9052 49.1332 97.797 49.2413 97.6654 49.2413H97.0904C96.9588 49.2413 96.8506 49.1332 96.8506 49.0016V40.4693C96.8506 40.3504 96.9353 40.2422 97.0669 40.2422H97.678C97.797 40.2422 97.9052 40.3377 97.9052 40.4693V42.7426C98.3126 42.647 98.8155 42.5749 99.2806 42.5749C101.076 42.5749 101.889 43.5574 101.889 44.9797V48.9998C101.889 49.1314 101.781 49.2395 101.649 49.2395" fill="#172659"/>
<path d="M105.373 49.3117C104.594 49.3117 103.998 49.2287 103.518 49.1801C103.41 49.1674 103.302 49.1079 103.302 48.989V48.8339C103.302 48.715 103.41 48.6789 103.529 48.6789H103.577C104.199 48.7276 104.715 48.8105 105.373 48.8105C107.179 48.8105 107.599 48.0083 107.599 47.0276C107.599 46.1425 107.086 45.8306 105.757 45.005L105.003 44.5381C103.915 43.8674 103.125 43.2924 103.125 42.2288C103.125 40.6604 104.526 40.2891 105.925 40.2891C106.559 40.2891 107.194 40.3612 107.708 40.408C107.826 40.4207 107.911 40.4802 107.911 40.5883V40.7433C107.911 40.8623 107.816 40.911 107.684 40.911C107.421 40.911 106.523 40.792 105.912 40.792C104.333 40.792 103.662 41.2463 103.662 42.2396C103.662 42.9823 104.212 43.424 105.277 44.0712L106.044 44.5381C107.372 45.3403 108.149 45.9262 108.149 47.0276C108.149 48.1291 107.682 49.3135 105.373 49.3135" fill="#172659"/>
<path d="M113.234 43.3779C112.803 43.3058 112.145 43.2229 111.57 43.2229C110.229 43.2229 109.751 44.1207 109.751 45.6638V46.4047C109.751 47.9478 110.231 48.8456 111.57 48.8456C112.145 48.8456 112.803 48.7627 113.234 48.6905V43.3761V43.3779ZM113.582 49.0871C113.056 49.1953 112.253 49.3143 111.572 49.3143C109.921 49.3143 109.227 48.1299 109.227 46.4065V45.6656C109.227 43.9422 109.921 42.7578 111.572 42.7578C112.253 42.7578 113.056 42.8768 113.582 42.985C113.726 43.021 113.762 43.0679 113.762 43.2121V48.8618C113.762 49.006 113.726 49.0529 113.582 49.0889" fill="#172659"/>
<path d="M117.53 49.3095H117.303C116.49 49.3095 115.136 48.8786 115.136 46.9047V43.0396C115.136 42.9207 115.219 42.8125 115.339 42.8125H115.458C115.577 42.8125 115.662 42.9207 115.662 43.0396V46.9047C115.662 48.437 116.488 48.8192 117.303 48.8192H117.53C118.345 48.8192 119.17 48.437 119.17 46.9047V43.0396C119.17 42.9207 119.253 42.8125 119.374 42.8125H119.493C119.612 42.8125 119.697 42.9207 119.697 43.0396V46.9047C119.697 48.8786 118.345 49.3095 117.53 49.3095Z" fill="#172659"/>
<path d="M124.903 43.3783C124.449 43.2828 123.706 43.2233 123.239 43.2233C121.923 43.2233 121.42 44.0363 121.42 45.6173V46.4069C121.42 47.95 121.9 48.8478 123.239 48.8478C123.814 48.8478 124.472 48.7648 124.903 48.6927V43.3783ZM125.251 49.0875C124.724 49.1957 123.922 49.3147 123.241 49.3147C121.59 49.3147 120.896 48.1303 120.896 46.4069V45.6173C120.896 43.7262 121.685 42.7564 123.241 42.7564C123.708 42.7564 124.425 42.8285 124.905 42.9367V40.5787C124.905 40.4597 124.988 40.3516 125.108 40.3516H125.227C125.346 40.3516 125.431 40.4597 125.431 40.5787V48.8604C125.431 49.0046 125.395 49.0515 125.251 49.0875Z" fill="#172659"/>
<path d="M127.284 49.3117H127.212C127.093 49.3117 126.984 49.2035 126.984 49.0845V43.04C126.984 42.921 127.093 42.8129 127.212 42.8129H127.284C127.403 42.8129 127.511 42.921 127.511 43.04V49.0845C127.511 49.2035 127.403 49.3117 127.284 49.3117ZM127.284 41.6285H127.212C127.093 41.6285 126.984 41.5329 126.984 41.4013V40.5162C126.984 40.3972 127.093 40.2891 127.212 40.2891H127.284C127.403 40.2891 127.511 40.3972 127.511 40.5162V41.4013C127.511 41.5329 127.403 41.6285 127.284 41.6285Z" fill="#172659"/>
<path d="M87.8289 42.5799C86.1181 42.5799 85.1807 43.8364 85.1807 45.5364V46.3746C85.1807 48.6731 86.6246 49.3311 88.0001 49.3311C88.8023 49.3311 89.3594 49.259 90.0426 49.1274C90.2337 49.0913 90.2661 49.0084 90.2661 48.8516V48.4442C90.2661 48.3252 90.2229 48.2044 90.1273 48.2044H90.0678C89.518 48.3919 88.7338 48.4081 88.0398 48.4081C86.9383 48.4081 86.311 47.8096 86.311 46.4341V45.4282C86.311 44.1952 86.9005 43.5011 87.9298 43.5011C88.9592 43.5011 89.5126 44.1483 89.5126 45.4282V45.567H87.0104C86.886 45.567 86.7851 45.668 86.7851 45.7924V46.0934C86.7851 46.2178 86.886 46.3188 87.0104 46.3188H90.2823C90.4266 46.3188 90.4536 46.18 90.4536 46.0249V45.522C90.4536 43.822 89.5757 42.5781 87.8289 42.5781" fill="#172659"/>
<path d="M85 355C85 338.431 98.4315 325 115 325H193V351.08C193 362.126 184.046 371.08 173 371.08H85V355Z" fill="#16275A"/>
<g clip-path="url(#clip0_6725_6328)">
<path d="M115.334 354.036H112.667C112.49 354.036 112.321 353.966 112.196 353.841C112.071 353.716 112 353.547 112 353.37V350.703C112 350.526 111.93 350.357 111.805 350.232C111.68 350.107 111.51 350.036 111.334 350.036C111.157 350.036 110.987 350.107 110.862 350.232C110.737 350.357 110.667 350.526 110.667 350.703V353.37C110.667 353.9 110.878 354.409 111.253 354.784C111.628 355.159 112.137 355.37 112.667 355.37H115.334C115.51 355.37 115.68 355.3 115.805 355.175C115.93 355.05 116 354.88 116 354.703C116 354.526 115.93 354.357 115.805 354.232C115.68 354.107 115.51 354.036 115.334 354.036ZM124.667 350.036C124.49 350.036 124.321 350.107 124.196 350.232C124.071 350.357 124 350.526 124 350.703V353.37C124 353.547 123.93 353.716 123.805 353.841C123.68 353.966 123.51 354.036 123.334 354.036H120.667C120.49 354.036 120.321 354.107 120.196 354.232C120.071 354.357 120 354.526 120 354.703C120 354.88 120.071 355.05 120.196 355.175C120.321 355.3 120.49 355.37 120.667 355.37H123.334C123.864 355.37 124.373 355.159 124.748 354.784C125.123 354.409 125.334 353.9 125.334 353.37V350.703C125.334 350.526 125.263 350.357 125.138 350.232C125.013 350.107 124.844 350.036 124.667 350.036ZM123.334 340.703H120.667C120.49 340.703 120.321 340.773 120.196 340.898C120.071 341.023 120 341.193 120 341.37C120 341.547 120.071 341.716 120.196 341.841C120.321 341.966 120.49 342.036 120.667 342.036H123.334C123.51 342.036 123.68 342.107 123.805 342.232C123.93 342.357 124 342.526 124 342.703V345.37C124 345.547 124.071 345.716 124.196 345.841C124.321 345.966 124.49 346.036 124.667 346.036C124.844 346.036 125.013 345.966 125.138 345.841C125.263 345.716 125.334 345.547 125.334 345.37V342.703C125.334 342.173 125.123 341.664 124.748 341.289C124.373 340.914 123.864 340.703 123.334 340.703ZM111.334 346.036C111.51 346.036 111.68 345.966 111.805 345.841C111.93 345.716 112 345.547 112 345.37V342.703C112 342.526 112.071 342.357 112.196 342.232C112.321 342.107 112.49 342.036 112.667 342.036H115.334C115.51 342.036 115.68 341.966 115.805 341.841C115.93 341.716 116 341.547 116 341.37C116 341.193 115.93 341.023 115.805 340.898C115.68 340.773 115.51 340.703 115.334 340.703H112.667C112.137 340.703 111.628 340.914 111.253 341.289C110.878 341.664 110.667 342.173 110.667 342.703V345.37C110.667 345.547 110.737 345.716 110.862 345.841C110.987 345.966 111.157 346.036 111.334 346.036ZM116.667 343.37H114C113.824 343.37 113.654 343.44 113.529 343.565C113.404 343.69 113.334 343.86 113.334 344.036V346.703C113.334 346.88 113.404 347.05 113.529 347.175C113.654 347.3 113.824 347.37 114 347.37H116.667C116.844 347.37 117.013 347.3 117.138 347.175C117.263 347.05 117.334 346.88 117.334 346.703V344.036C117.334 343.86 117.263 343.69 117.138 343.565C117.013 343.44 116.844 343.37 116.667 343.37ZM116 346.036H114.667V344.703H116V346.036ZM119.334 347.37H122C122.177 347.37 122.347 347.3 122.472 347.175C122.597 347.05 122.667 346.88 122.667 346.703V344.036C122.667 343.86 122.597 343.69 122.472 343.565C122.347 343.44 122.177 343.37 122 343.37H119.334C119.157 343.37 118.987 343.44 118.862 343.565C118.737 343.69 118.667 343.86 118.667 344.036V346.703C118.667 346.88 118.737 347.05 118.862 347.175C118.987 347.3 119.157 347.37 119.334 347.37ZM120 344.703H121.334V346.036H120V344.703ZM116.667 348.703H114C113.824 348.703 113.654 348.773 113.529 348.898C113.404 349.023 113.334 349.193 113.334 349.37V352.036C113.334 352.213 113.404 352.383 113.529 352.508C113.654 352.633 113.824 352.703 114 352.703H116.667C116.844 352.703 117.013 352.633 117.138 352.508C117.263 352.383 117.334 352.213 117.334 352.036V349.37C117.334 349.193 117.263 349.023 117.138 348.898C117.013 348.773 116.844 348.703 116.667 348.703ZM116 351.37H114.667V350.036H116V351.37ZM119.334 350.703C119.51 350.703 119.68 350.633 119.805 350.508C119.93 350.383 120 350.213 120 350.036C120.177 350.036 120.347 349.966 120.472 349.841C120.597 349.716 120.667 349.547 120.667 349.37C120.667 349.193 120.597 349.023 120.472 348.898C120.347 348.773 120.177 348.703 120 348.703H119.334C119.157 348.703 118.987 348.773 118.862 348.898C118.737 349.023 118.667 349.193 118.667 349.37V350.036C118.667 350.213 118.737 350.383 118.862 350.508C118.987 350.633 119.157 350.703 119.334 350.703ZM122 348.703C121.824 348.703 121.654 348.773 121.529 348.898C121.404 349.023 121.334 349.193 121.334 349.37V351.37C121.157 351.37 120.987 351.44 120.862 351.565C120.737 351.69 120.667 351.86 120.667 352.036C120.667 352.213 120.737 352.383 120.862 352.508C120.987 352.633 121.157 352.703 121.334 352.703H122C122.177 352.703 122.347 352.633 122.472 352.508C122.597 352.383 122.667 352.213 122.667 352.036V349.37C122.667 349.193 122.597 349.023 122.472 348.898C122.347 348.773 122.177 348.703 122 348.703ZM119.334 351.37C119.202 351.37 119.073 351.409 118.963 351.482C118.854 351.555 118.768 351.66 118.718 351.781C118.667 351.903 118.654 352.037 118.68 352.167C118.706 352.296 118.769 352.415 118.862 352.508C118.955 352.601 119.074 352.665 119.204 352.69C119.333 352.716 119.467 352.703 119.589 352.652C119.711 352.602 119.815 352.516 119.888 352.407C119.961 352.297 120 352.168 120 352.036C120 351.86 119.93 351.69 119.805 351.565C119.68 351.44 119.51 351.37 119.334 351.37Z" fill="white"/>
</g>
<path d="M140.14 351.173C140.14 351.677 140 352.116 139.72 352.489C139.449 352.862 139.062 353.156 138.558 353.371C138.054 353.576 137.438 353.679 136.71 353.679C136.085 353.679 135.469 353.595 134.862 353.427C134.265 353.259 133.784 353.04 133.42 352.769L134.078 351.397C134.414 351.649 134.825 351.85 135.31 351.999C135.795 352.148 136.29 352.223 136.794 352.223C137.391 352.223 137.807 352.134 138.04 351.957C138.273 351.78 138.39 351.57 138.39 351.327C138.39 351.103 138.301 350.926 138.124 350.795C137.956 350.664 137.727 350.562 137.438 350.487C137.158 350.403 136.85 350.328 136.514 350.263C136.178 350.188 135.842 350.104 135.506 350.011C135.17 349.918 134.862 349.787 134.582 349.619C134.302 349.451 134.073 349.227 133.896 348.947C133.728 348.667 133.644 348.312 133.644 347.883C133.644 347.388 133.784 346.954 134.064 346.581C134.344 346.208 134.736 345.918 135.24 345.713C135.753 345.508 136.355 345.405 137.046 345.405C137.541 345.405 138.035 345.461 138.53 345.573C139.034 345.676 139.473 345.848 139.846 346.091L139.244 347.463C138.889 347.23 138.516 347.071 138.124 346.987C137.741 346.894 137.363 346.847 136.99 346.847C136.43 346.847 136.024 346.936 135.772 347.113C135.529 347.29 135.408 347.514 135.408 347.785C135.408 348.009 135.492 348.186 135.66 348.317C135.837 348.448 136.066 348.555 136.346 348.639C136.626 348.714 136.934 348.784 137.27 348.849C137.615 348.914 137.951 348.998 138.278 349.101C138.614 349.194 138.922 349.325 139.202 349.493C139.491 349.652 139.72 349.866 139.888 350.137C140.056 350.408 140.14 350.753 140.14 351.173ZM145.53 353.679C144.69 353.679 143.939 353.502 143.276 353.147C142.614 352.783 142.091 352.288 141.708 351.663C141.326 351.038 141.134 350.328 141.134 349.535C141.134 348.742 141.326 348.037 141.708 347.421C142.091 346.796 142.614 346.306 143.276 345.951C143.939 345.587 144.69 345.405 145.53 345.405C146.258 345.405 146.893 345.517 147.434 345.741C147.985 345.956 148.452 346.296 148.834 346.763L147.686 347.855C147.406 347.528 147.089 347.29 146.734 347.141C146.38 346.982 145.997 346.903 145.586 346.903C145.073 346.903 144.611 347.015 144.2 347.239C143.799 347.463 143.482 347.776 143.248 348.177C143.024 348.569 142.912 349.022 142.912 349.535C142.912 350.048 143.024 350.506 143.248 350.907C143.482 351.308 143.799 351.621 144.2 351.845C144.611 352.069 145.073 352.181 145.586 352.181C145.997 352.181 146.38 352.102 146.734 351.943C147.089 351.784 147.406 351.542 147.686 351.215L148.834 352.321C148.452 352.778 147.985 353.119 147.434 353.343C146.884 353.567 146.249 353.679 145.53 353.679ZM148.94 353.539L152.58 345.531H154.33L157.956 353.539H156.206L153.154 346.427H153.742L150.662 353.539H148.94ZM150.746 351.803L151.222 350.459H155.394L155.87 351.803H150.746ZM159.101 353.539V345.531H160.557L165.387 351.383H164.729V345.531H166.479V353.539H165.023L160.193 347.687H160.865V353.539H159.101Z" fill="white"/>
<defs>
<clipPath id="clip0_6725_6328">
<rect width="16" height="16" fill="white" transform="translate(110 340.039)"/>
</clipPath>
</defs>
</svg>
