<svg width="25" height="25" viewBox="0 0 25 25" fill="none" xmlns="http://www.w3.org/2000/svg">
<g clip-path="url(#clip0_1_2)">
<path opacity="0.1" d="M20.8125 0.796875H4.8125C2.60336 0.796875 0.8125 2.58774 0.8125 4.79688V20.7969C0.8125 23.006 2.60336 24.7969 4.8125 24.7969H20.8125C23.0216 24.7969 24.8125 23.006 24.8125 20.7969V4.79688C24.8125 2.58774 23.0216 0.796875 20.8125 0.796875Z" fill="#F05F23"/>
<path d="M12.8045 6.13281C9.12453 6.13281 6.14453 9.11948 6.14453 12.7995C6.14453 16.4795 9.12453 19.4661 12.8045 19.4661C16.4912 19.4661 19.4779 16.4795 19.4779 12.7995C19.4779 9.11948 16.4912 6.13281 12.8045 6.13281ZM12.8112 18.1328C9.86453 18.1328 7.47786 15.7461 7.47786 12.7995C7.47786 9.85281 9.86453 7.46615 12.8112 7.46615C15.7579 7.46615 18.1445 9.85281 18.1445 12.7995C18.1445 15.7461 15.7579 18.1328 12.8112 18.1328ZM12.6645 9.46615H12.6245C12.3579 9.46615 12.1445 9.67948 12.1445 9.94615V13.0928C12.1445 13.3261 12.2645 13.5461 12.4712 13.6661L15.2379 15.3261C15.4645 15.4595 15.7579 15.3928 15.8912 15.1661C15.9247 15.1122 15.9469 15.052 15.9567 14.9892C15.9664 14.9265 15.9634 14.8624 15.9479 14.8008C15.9323 14.7392 15.9045 14.6814 15.8662 14.6308C15.8278 14.5801 15.7796 14.5378 15.7245 14.5061L13.1445 12.9728V9.94615C13.1445 9.67948 12.9312 9.46615 12.6645 9.46615Z" fill="#F05F23"/>
</g>
<defs>
<clipPath id="clip0_1_2">
<rect width="25" height="25" fill="white"/>
</clipPath>
</defs>
</svg>
