<svg width="18" height="18" viewBox="0 0 18 18" fill="none" xmlns="http://www.w3.org/2000/svg">
<path d="M9.2474 0.671875C4.6474 0.671875 0.914062 4.40521 0.914062 9.00521C0.914062 13.6052 4.6474 17.3385 9.2474 17.3385C13.8474 17.3385 17.5807 13.6052 17.5807 9.00521C17.5807 4.40521 13.8474 0.671875 9.2474 0.671875ZM9.2474 13.1719C8.78906 13.1719 8.41406 12.7969 8.41406 12.3385V9.00521C8.41406 8.54687 8.78906 8.17187 9.2474 8.17187C9.70573 8.17187 10.0807 8.54687 10.0807 9.00521V12.3385C10.0807 12.7969 9.70573 13.1719 9.2474 13.1719ZM10.0807 6.50521H8.41406V4.83854H10.0807V6.50521Z" fill="#EF4050"/>
</svg>
