<svg width="18" height="17" viewBox="0 0 18 17" fill="none" xmlns="http://www.w3.org/2000/svg">
<path fill-rule="evenodd" clip-rule="evenodd" d="M7.35716 0.860759C7.35716 0.385375 6.9734 0 6.5 0C6.02661 0 5.64284 0.385375 5.64284 0.860759V1.50633H5.16505C3.25781 1.50633 1.67926 2.99545 1.56021 4.90697L1.37077 7.94842C1.29855 9.10804 0.910865 10.2255 0.249943 11.1792C-0.347224 12.0408 0.184404 13.2309 1.22236 13.356L4.14282 13.7079V14.6329C4.14282 15.9402 5.19816 17 6.5 17C7.80184 17 8.85719 15.9402 8.85719 14.6329V13.7079L11.7776 13.356C12.8156 13.2309 13.3472 12.0408 12.7501 11.1792C12.0891 10.2255 11.7015 9.10804 11.6292 7.94842L11.4398 4.90697C11.3207 2.99545 9.74219 1.50633 7.83495 1.50633H7.35716V0.860759ZM5.42855 14.6329C5.42855 15.2271 5.90826 15.7089 6.5 15.7089C7.09175 15.7089 7.57145 15.2271 7.57145 14.6329V13.9873H5.42855V14.6329Z" fill="black"/>
<circle cx="14" cy="7" r="4" fill="#EBB542"/>
</svg>
