<svg width="122" height="148" viewBox="0 0 122 148" fill="none" xmlns="http://www.w3.org/2000/svg">
<path d="M110.128 14.7991L93.6384 6.07906C89.7884 3.85906 85.0484 3.85906 81.1884 6.07906L10.8984 46.5291C7.02844 48.7591 4.64844 52.8791 4.64844 57.3391V121.509C4.64844 125.969 7.02844 130.079 10.8884 132.309L27.3784 141.209C31.2384 143.439 35.9984 143.439 39.8584 141.209L110.158 100.569C114.018 98.3391 116.398 94.2191 116.398 89.7691V25.6091C116.398 21.1491 114.018 17.0191 110.148 14.7991" fill="black"/>
<path d="M111.141 27.1821C111.141 24.6821 109.191 23.7721 106.791 25.1521L39.3908 63.8121C36.9908 65.1921 35.0408 68.3321 35.0508 70.8321L35.1108 132.072C35.1108 134.572 37.0708 135.482 39.4608 134.102L106.861 95.4321C109.261 94.0521 111.201 90.9121 111.201 88.4121L111.131 27.1721L111.141 27.1821Z" fill="white"/>
<path d="M59.4883 92.03L70.3383 100.51L89.4283 64.75" stroke="#0129FA" stroke-width="7" stroke-linecap="round" stroke-linejoin="round"/>
<path d="M75.9303 49.3974C60.5203 58.4574 48.0503 79.1274 48.0703 95.5774C48.0903 112.017 60.6003 118.007 76.0103 108.947C91.4203 99.8874 103.89 79.2174 103.87 62.7674C103.85 46.3274 91.3403 40.3374 75.9303 49.3974" stroke="#0129FA" stroke-width="3" stroke-linecap="round" stroke-linejoin="round"/>
</svg>
