<svg width="23" height="22" viewBox="0 0 23 22" fill="none" xmlns="http://www.w3.org/2000/svg">
<rect width="21.8692" height="21.8692" transform="translate(0.203125)" fill="#202020"/>
<path d="M3.03125 8.57812H19.2727" stroke="white" stroke-opacity="0.7" stroke-width="1.36682" stroke-linecap="round" stroke-linejoin="round"/>
<path d="M15.1875 12.1328H15.1965" stroke="white" stroke-opacity="0.7" stroke-width="1.36682" stroke-linecap="round" stroke-linejoin="round"/>
<path d="M11.1484 12.1328H11.1574" stroke="white" stroke-opacity="0.7" stroke-width="1.36682" stroke-linecap="round" stroke-linejoin="round"/>
<path d="M7.10156 12.1328H7.11056" stroke="white" stroke-opacity="0.7" stroke-width="1.36682" stroke-linecap="round" stroke-linejoin="round"/>
<path d="M15.1875 15.6719H15.1965" stroke="white" stroke-opacity="0.7" stroke-width="1.36682" stroke-linecap="round" stroke-linejoin="round"/>
<path d="M11.1484 15.6719H11.1574" stroke="white" stroke-opacity="0.7" stroke-width="1.36682" stroke-linecap="round" stroke-linejoin="round"/>
<path d="M7.10156 15.6719H7.11056" stroke="white" stroke-opacity="0.7" stroke-width="1.36682" stroke-linecap="round" stroke-linejoin="round"/>
<path d="M14.8359 1.82812V4.82693" stroke="white" stroke-opacity="0.7" stroke-width="1.36682" stroke-linecap="round" stroke-linejoin="round"/>
<path d="M7.47656 1.82812V4.82693" stroke="white" stroke-opacity="0.7" stroke-width="1.36682" stroke-linecap="round" stroke-linejoin="round"/>
<path fill-rule="evenodd" clip-rule="evenodd" d="M15.0082 3.26562H7.29269C4.61673 3.26562 2.94531 4.75631 2.94531 7.49642V15.7426C2.94531 18.5258 4.61673 20.0509 7.29269 20.0509H14.9998C17.6842 20.0509 19.3472 18.5516 19.3472 15.8115V7.49642C19.3556 4.75631 17.6926 3.26562 15.0082 3.26562Z" stroke="white" stroke-opacity="0.7" stroke-width="1.36682" stroke-linecap="round" stroke-linejoin="round"/>
</svg>
