<svg width="31" height="40" viewBox="0 0 31 40" fill="none" xmlns="http://www.w3.org/2000/svg">
<path d="M28.2046 4.01541L23.9809 1.64745C22.9948 1.0446 21.7807 1.0446 20.7921 1.64745L2.78834 12.6318C1.7971 13.2374 1.1875 14.3562 1.1875 15.5673V32.993C1.1875 34.2041 1.7971 35.3202 2.78578 35.9258L7.00944 38.3426C7.99813 38.9482 9.21733 38.9482 10.206 38.3426L28.2123 27.3067C29.201 26.7011 29.8106 25.5823 29.8106 24.3739V6.95091C29.8106 5.73978 29.201 4.61826 28.2097 4.01541" fill="black"/>
<path d="M28.4659 7.38247C28.4659 6.70359 27.9664 6.45647 27.3517 6.83122L10.0882 17.3295C9.47347 17.7043 8.97401 18.5569 8.97657 19.2358L8.99194 35.8658C8.99194 36.5447 9.49396 36.7918 10.1061 36.4171L27.3696 25.9161C27.9843 25.5413 28.4812 24.6887 28.4812 24.0098L28.4633 7.37976L28.4659 7.38247Z" fill="white"/>
<path d="M21.7966 22.1592C21.7966 22.1592 21.8043 22.1538 21.8094 22.1511C22.0732 21.9936 22.291 22.1321 22.291 22.4552C22.291 22.7838 22.0707 23.1857 21.8017 23.3513C21.5277 23.5143 21.31 23.3731 21.3125 23.0445C21.3125 22.7186 21.5354 22.3194 21.7992 22.1592H21.7966Z" fill="black"/>
<path d="M25.5816 19.7192C25.6994 19.6459 25.8172 19.6351 25.912 19.6948C25.9786 19.7383 26.0119 19.8333 26.0605 19.9039V20.1429C26.017 20.2705 25.9811 20.3981 25.9274 20.523C25.1513 22.3343 24.3701 24.1429 23.594 25.9514C23.4275 26.3397 23.2123 26.671 22.9408 26.9453C22.8665 27.0213 22.7923 27.0865 22.718 27.1571L22.426 27.3364C22.0213 27.5129 21.7242 27.3988 21.445 27.2277C21.0224 26.967 20.5844 26.7281 20.1541 26.481C20.0055 26.3968 19.9312 26.2393 19.9876 25.9514C20.0491 25.6391 20.2463 25.354 20.4538 25.2264C20.5511 25.1666 20.651 25.1422 20.7406 25.1666C20.7867 25.1775 20.8277 25.2019 20.8687 25.2264C21.3374 25.4952 21.8061 25.7668 22.2774 26.0356C22.3901 26.1008 22.4823 26.1116 22.5669 26.06C22.6616 26.003 22.7487 25.8645 22.8512 25.631C23.6145 23.855 24.3777 22.0791 25.141 20.3058C25.2614 20.0261 25.4253 19.8197 25.5841 19.722L25.5816 19.7192Z" fill="black"/>
<path d="M19.932 23.2969C20.1958 23.134 20.4161 23.2643 20.4237 23.582C20.4289 23.9079 20.2112 24.318 19.9422 24.4863C19.9422 24.4863 19.9371 24.4863 19.9371 24.489C19.6707 24.652 19.4479 24.5216 19.4453 24.1958C19.4453 23.8672 19.6656 23.4598 19.9345 23.2969H19.932Z" fill="black"/>
<path d="M16.2523 25.5467C16.5263 25.381 16.7441 25.5195 16.7415 25.8508C16.7415 26.1767 16.5187 26.5786 16.2523 26.7415C16.2523 26.7415 16.2472 26.7415 16.2472 26.7442C15.9833 26.9017 15.7656 26.7632 15.7656 26.4428C15.7656 26.1224 15.9859 25.7096 16.2523 25.5467Z" fill="black"/>
<path d="M24.4803 18.6674C24.4983 19.0883 24.4906 19.5282 24.488 19.9627C24.488 20.3103 24.2729 20.6986 24.0014 20.8642C23.7299 21.0299 23.5173 20.905 23.5096 20.5628C23.5045 20.1908 23.5096 19.816 23.5045 19.444C23.4993 18.6891 23.0818 18.4365 22.462 18.8113L15.5259 23.0584C14.8983 23.444 14.4834 24.2044 14.4834 24.9701C14.4885 26.5506 14.4911 28.1283 14.4962 29.7061C14.4962 30.48 14.9163 30.7298 15.5515 30.3415C16.1739 29.9613 16.7989 29.5811 17.4213 29.1982C18.0437 28.8154 18.6686 28.4352 19.291 28.0523C19.455 27.9518 19.5933 27.9111 19.706 27.979C19.9416 28.1256 19.8725 28.6551 19.5651 29.019C19.5293 29.0625 19.4908 29.1032 19.455 29.1467C18.0565 30.002 16.6605 30.8574 15.2646 31.7128C15.052 31.7617 14.8241 31.8513 14.6268 31.8541C13.9353 31.8513 13.5408 31.3951 13.5229 30.4583C13.4973 28.7882 13.4947 27.1046 13.5075 25.4101C13.5178 24.15 14.363 22.613 15.3927 21.945C15.4644 21.8989 15.5335 21.8554 15.6053 21.812C15.7487 21.7251 15.8921 21.6409 16.0458 21.5458V21.3775C16.0458 20.7529 16.0433 20.131 16.0407 19.5119C16.0407 17.7739 16.9935 15.7563 18.3869 14.556C18.5841 14.3849 18.7813 14.241 18.976 14.1215C20.2208 13.3612 21.3657 13.6246 21.7807 14.8602C21.8831 15.1643 21.9241 15.52 21.9241 15.9056L21.9292 17.9396C22.0547 17.8636 22.1777 17.7875 22.2981 17.7142C22.3595 17.6762 22.4185 17.6409 22.4799 17.6029C22.8795 17.3585 23.2458 17.2526 23.5711 17.315C24.1294 17.4236 24.4419 17.869 24.4778 18.6646L24.4803 18.6674ZM20.9431 18.5424C20.9431 17.7685 20.9431 17.0027 20.9329 16.2505C20.9329 16.0794 20.8919 15.9301 20.8458 15.7916C20.5717 14.9742 19.8187 14.8086 18.9734 15.3272C18.8607 15.3951 18.7455 15.4766 18.6302 15.5716C17.6928 16.3293 17.0217 17.7196 17.0217 18.8955C17.0217 19.5282 17.0243 20.1582 17.0268 20.7909C17.0268 20.8398 17.0294 20.8832 17.0319 20.9376L20.9431 18.5452" fill="black"/>
<path d="M18.0986 24.4221C18.0986 24.4221 18.1037 24.4194 18.1063 24.4167C18.3701 24.2592 18.5878 24.3977 18.5878 24.7208C18.5878 25.0467 18.3676 25.4513 18.0986 25.617C17.8245 25.7799 17.6068 25.6414 17.6094 25.3101C17.6094 24.9842 17.8322 24.5851 18.0986 24.4221Z" fill="black"/>
</svg>
