<svg width="31" height="40" viewBox="0 0 31 40" fill="none" xmlns="http://www.w3.org/2000/svg">
<path d="M28.2085 4.01541L23.9848 1.64745C22.9987 1.0446 21.7846 1.0446 20.796 1.64745L2.79225 12.6318C1.80101 13.2374 1.19141 14.3562 1.19141 15.5673V32.993C1.19141 34.2041 1.80101 35.3202 2.78969 35.9258L7.01335 38.3426C8.00203 38.9482 9.22123 38.9482 10.2099 38.3426L28.2162 27.3067C29.2049 26.7011 29.8145 25.5823 29.8145 24.3739V6.95091C29.8145 5.73978 29.2049 4.61826 28.2136 4.01541" fill="black"/>
<path d="M28.4659 7.38247C28.4659 6.70359 27.9664 6.45647 27.3517 6.83122L10.0882 17.3295C9.47347 17.7043 8.97401 18.5569 8.97657 19.2358L8.99194 35.8658C8.99194 36.5447 9.49396 36.7918 10.1061 36.4171L27.3696 25.9161C27.9843 25.5413 28.4812 24.6887 28.4812 24.0098L28.4633 7.37976L28.4659 7.38247Z" fill="white"/>
<path d="M24.4803 18.6701C24.4983 19.091 24.4906 19.5309 24.488 19.9654C24.488 20.313 24.2729 20.7013 24.0014 20.8669C23.7299 21.0326 23.5173 20.9077 23.5096 20.5655C23.5045 20.1962 23.5096 19.8187 23.5045 19.4467C23.4993 18.6945 23.0818 18.4392 22.462 18.8167C21.3068 19.5228 20.1491 20.2315 18.9939 20.9376C17.8388 21.6436 16.681 22.3524 15.5259 23.0611C14.8983 23.4467 14.4834 24.2071 14.4834 24.9729C14.4885 26.5506 14.4911 28.1283 14.4962 29.7061C14.4962 30.48 14.9163 30.7298 15.5515 30.3415C16.1739 29.9613 16.7989 29.5811 17.4213 29.1982C18.0437 28.8154 18.6686 28.4352 19.291 28.0523C19.4498 27.9545 19.5907 27.9111 19.706 27.979C19.9416 28.1283 19.8725 28.6551 19.5651 29.019C19.5293 29.0625 19.4908 29.1032 19.455 29.1467L15.2646 31.7128C15.052 31.7617 14.8241 31.854 14.6268 31.854C13.9353 31.8513 13.5408 31.3951 13.5229 30.4583C13.4973 28.7909 13.4947 27.1046 13.5075 25.4128C13.5178 24.15 14.363 22.613 15.3927 21.945C15.4644 21.8989 15.5335 21.8554 15.6053 21.812C15.7487 21.7251 15.8921 21.6409 16.0458 21.5458V21.3775C16.0458 20.7556 16.0433 20.131 16.0407 19.5119C16.0407 17.7739 16.9935 15.7563 18.3869 14.556C18.5841 14.3849 18.7813 14.241 18.976 14.1215C20.2208 13.3612 21.3657 13.6246 21.7807 14.8602C21.8831 15.1643 21.9241 15.52 21.9241 15.9056L21.9292 17.9423L22.4799 17.6056C22.8795 17.3612 23.2458 17.2526 23.5711 17.3177C24.1294 17.4264 24.4419 17.8717 24.4778 18.6674L24.4803 18.6701ZM20.9431 18.5452C20.9431 17.7712 20.9431 17.0054 20.9329 16.2532C20.9329 16.0822 20.8919 15.9328 20.8458 15.7943C20.5717 14.9796 19.8161 14.814 18.9709 15.3327C18.8582 15.4006 18.7455 15.482 18.6302 15.5743C17.6928 16.332 17.0217 17.7223 17.0217 18.8982C17.0217 19.5309 17.0243 20.1609 17.0268 20.7936C17.0268 20.8425 17.0294 20.8887 17.0319 20.9403L20.9431 18.5479" fill="#0129FA"/>
<path d="M19.9359 23.2969C20.1997 23.134 20.42 23.2643 20.4277 23.582C20.4328 23.9079 20.2151 24.318 19.9461 24.4863C19.9461 24.4863 19.941 24.4863 19.941 24.489C19.6746 24.652 19.4518 24.5216 19.4492 24.1958C19.4492 23.8672 19.6695 23.4598 19.9384 23.2969H19.9359Z" fill="#0129FA"/>
<path d="M21.7978 22.1553L21.8055 22.1499C22.0693 21.9951 22.2871 22.1309 22.2871 22.454C22.2871 22.7826 22.0668 23.1845 21.7978 23.3502C21.5238 23.5131 21.3061 23.3746 21.3086 23.0433C21.3086 22.7174 21.5315 22.3182 21.7978 22.1553Z" fill="#0129FA"/>
<path d="M25.579 19.7188C25.6968 19.6454 25.8147 19.6346 25.912 19.697C25.9786 19.7378 26.0119 19.8355 26.0605 19.9061V20.1451C26.017 20.2727 25.9811 20.4004 25.9274 20.5253C25.1513 22.3365 24.3701 24.1451 23.594 25.9537C23.4275 26.342 23.2123 26.676 22.9408 26.9475C22.8665 27.0209 22.7923 27.0888 22.718 27.1594L22.426 27.3386C22.0213 27.5151 21.7242 27.401 21.445 27.23C21.0224 26.9693 20.5844 26.7303 20.1541 26.4832C20.0055 26.399 19.9312 26.2415 19.9876 25.9537C20.0491 25.6441 20.2463 25.3562 20.4563 25.2286C20.5536 25.1689 20.6535 25.1444 20.7406 25.1689C20.7867 25.1797 20.8277 25.2042 20.8687 25.2286C21.3374 25.4974 21.8061 25.769 22.2774 26.0378C22.3901 26.103 22.4823 26.1139 22.5669 26.0623C22.6616 26.0052 22.7487 25.8668 22.8512 25.6332C23.6145 23.8573 24.3777 22.0813 25.141 20.308C25.2614 20.031 25.4228 19.822 25.5841 19.7242L25.579 19.7188Z" fill="#0129FA"/>
<path d="M16.2562 25.5467C16.5303 25.381 16.748 25.5195 16.7454 25.8508C16.7454 26.1767 16.5251 26.5759 16.2587 26.7388C16.2562 26.7388 16.2536 26.7415 16.2511 26.7442C15.9872 26.9017 15.7695 26.7659 15.7695 26.4428C15.7695 26.1196 15.9898 25.7096 16.2562 25.5467Z" fill="#0129FA"/>
<path d="M18.0947 24.4209L18.1024 24.4155C18.3662 24.2607 18.5839 24.3965 18.5839 24.7196C18.5839 25.0482 18.3636 25.4501 18.0947 25.6158C17.8206 25.7814 17.6029 25.6402 17.6055 25.3089C17.6055 24.9831 17.8283 24.5839 18.0947 24.4209Z" fill="#0129FA"/>
</svg>
