<svg width="23" height="23" viewBox="0 0 23 23" fill="none" xmlns="http://www.w3.org/2000/svg">
<g clip-path="url(#clip0_7889_23078)">
<path d="M12.2277 2.09375C6.57455 2.09375 1.97656 6.64915 1.97656 12.25C1.97656 17.8508 6.57455 22.4062 12.2277 22.4062C17.8809 22.4062 22.4789 17.8508 22.4789 12.25C22.4789 6.64915 17.8809 2.09375 12.2277 2.09375ZM12.2277 3.44791C17.1428 3.44791 21.1121 7.3804 21.1121 12.25C21.1121 17.1195 17.1428 21.052 12.2277 21.052C11.0606 21.0534 9.90469 20.8267 8.82614 20.3849C7.74759 19.9431 6.76761 19.2948 5.94234 18.4771C5.11707 17.6595 4.46271 16.6886 4.01673 15.62C3.57076 14.5515 3.34195 13.4063 3.34338 12.25C3.34338 7.3804 7.31264 3.44791 12.2277 3.44791ZM12.2168 5.47915C12.127 5.48057 12.0385 5.49948 11.9561 5.53482C11.8737 5.57015 11.7992 5.62122 11.7367 5.6851C11.6743 5.74898 11.6251 5.82443 11.5921 5.90712C11.5591 5.98982 11.5429 6.07815 11.5443 6.16707V12.25C11.5443 12.4295 11.6163 12.6018 11.7445 12.7287C11.8727 12.8557 12.0465 12.927 12.2277 12.927H18.3675C18.5487 12.927 18.7226 12.8557 18.8507 12.7287C18.9789 12.6018 19.0509 12.4295 19.0509 12.25C19.0509 12.0704 18.9789 11.8982 18.8507 11.7712C18.7226 11.6442 18.5487 11.5729 18.3675 11.5729H12.9111V6.16707C12.9126 6.07633 12.8957 5.98622 12.8613 5.90209C12.8269 5.81797 12.7758 5.74155 12.7111 5.67738C12.6463 5.61321 12.5692 5.56259 12.4842 5.52854C12.3993 5.49448 12.3084 5.47769 12.2168 5.47915Z" fill="#F05F23"/>
</g>
<defs>
<clipPath id="clip0_7889_23078">
<rect width="21.8692" height="21.6666" fill="white" transform="translate(0.625 0.734375)"/>
</clipPath>
</defs>
</svg>
