<svg width="21" height="20" viewBox="0 0 21 20" fill="none" xmlns="http://www.w3.org/2000/svg">
<path d="M10.1406 11.4L13.0406 14.3C13.224 14.4833 13.4573 14.575 13.7406 14.575C14.024 14.575 14.2573 14.4833 14.4406 14.3C14.624 14.1167 14.7156 13.8833 14.7156 13.6C14.7156 13.3167 14.624 13.0833 14.4406 12.9L11.5406 10L14.4406 7.1C14.624 6.91667 14.7156 6.68333 14.7156 6.4C14.7156 6.11667 14.624 5.88333 14.4406 5.7C14.2573 5.51667 14.024 5.425 13.7406 5.425C13.4573 5.425 13.224 5.51667 13.0406 5.7L10.1406 8.6L7.24063 5.7C7.05729 5.51667 6.82396 5.425 6.54062 5.425C6.25729 5.425 6.02396 5.51667 5.84062 5.7C5.65729 5.88333 5.56563 6.11667 5.56563 6.4C5.56563 6.68333 5.65729 6.91667 5.84062 7.1L8.74063 10L5.84062 12.9C5.65729 13.0833 5.56563 13.3167 5.56563 13.6C5.56563 13.8833 5.65729 14.1167 5.84062 14.3C6.02396 14.4833 6.25729 14.575 6.54062 14.575C6.82396 14.575 7.05729 14.4833 7.24063 14.3L10.1406 11.4ZM10.1406 20C8.75729 20 7.45729 19.7373 6.24063 19.212C5.02396 18.6867 3.96563 17.9743 3.06563 17.075C2.16563 16.175 1.45329 15.1167 0.928625 13.9C0.403958 12.6833 0.141292 11.3833 0.140625 10C0.140625 8.61667 0.403292 7.31667 0.928625 6.1C1.45396 4.88333 2.16629 3.825 3.06563 2.925C3.96563 2.025 5.02396 1.31267 6.24063 0.788C7.45729 0.263333 8.75729 0.000666667 10.1406 0C11.524 0 12.824 0.262667 14.0406 0.788C15.2573 1.31333 16.3156 2.02567 17.2156 2.925C18.1156 3.825 18.8283 4.88333 19.3536 6.1C19.879 7.31667 20.1413 8.61667 20.1406 10C20.1406 11.3833 19.878 12.6833 19.3526 13.9C18.8273 15.1167 18.115 16.175 17.2156 17.075C16.3156 17.975 15.2573 18.6877 14.0406 19.213C12.824 19.7383 11.524 20.0007 10.1406 20Z" fill="#808080"/>
</svg>
