<svg width="68" height="51" viewBox="0 0 68 51" fill="none" xmlns="http://www.w3.org/2000/svg">
<path d="M17 50.0377C12.3121 50.0377 8.30733 48.3959 4.98564 45.1121C1.66188 41.8284 0 37.815 0 33.0718C0 29.0062 1.21061 25.3837 3.63182 22.2042C6.05303 19.0248 9.22121 16.992 13.1364 16.1059C14.4242 11.3106 17 7.42748 20.8636 4.45649C24.7273 1.4855 29.1061 0 34 0C40.0273 0 45.1396 2.12348 49.3371 6.37043C53.5366 10.6195 55.6364 15.7932 55.6364 21.8915C59.1909 22.3085 62.1407 23.8586 64.4856 26.5419C66.8285 29.2273 68 32.3682 68 35.9646C68 39.8738 66.6482 43.1972 63.9447 45.9346C61.2391 48.67 57.9545 50.0377 54.0909 50.0377H37.0909C35.3909 50.0377 33.9361 49.4258 32.7265 48.202C31.5149 46.9761 30.9091 45.5031 30.9091 43.783V27.6771L25.9636 32.5245L21.6364 28.1462L34 15.6368L46.3636 28.1462L42.0364 32.5245L37.0909 27.6771V43.783H54.0909C56.2545 43.783 58.0833 43.0272 59.5773 41.5157C61.0712 40.0041 61.8182 38.1538 61.8182 35.9646C61.8182 33.7755 61.0712 31.9251 59.5773 30.4136C58.0833 28.902 56.2545 28.1462 54.0909 28.1462H49.4545V21.8915C49.4545 17.5653 47.9482 13.8771 44.9356 10.8269C41.921 7.77878 38.2758 6.25472 34 6.25472C29.7242 6.25472 26.0801 7.77878 23.0675 10.8269C20.0528 13.8771 18.5455 17.5653 18.5455 21.8915H17C14.0121 21.8915 11.4621 22.96 9.35 25.097C7.23788 27.2341 6.18182 29.8141 6.18182 32.8373C6.18182 35.8604 7.23788 38.4404 9.35 40.5775C11.4621 42.7145 14.0121 43.783 17 43.783H24.7273V50.0377H17Z" fill="#CACACA"/>
</svg>
