<svg width="81" height="98" viewBox="0 0 81 98" fill="none" xmlns="http://www.w3.org/2000/svg">
<path d="M73.7024 9.84673L62.6664 4.04524C60.0898 2.56825 56.9175 2.56825 54.3342 4.04524L7.29222 30.957C4.7022 32.4406 3.10938 35.1817 3.10938 38.149V80.8418C3.10938 83.8091 4.7022 86.5435 7.28553 88.0272L18.3216 93.9484C20.9049 95.4321 24.0905 95.4321 26.6739 93.9484L73.7225 66.9103C76.3059 65.4266 77.8987 62.6856 77.8987 59.7249V17.0387C77.8987 14.0714 76.3059 11.3237 73.7158 9.84673" fill="black"/>
<path d="M74.3846 18.0839C74.3846 16.4207 73.0796 15.8152 71.4734 16.7334L26.3655 42.4542C24.7593 43.3723 23.4543 45.4614 23.461 47.1247L23.5011 87.8682C23.5011 89.5315 24.8129 90.1369 26.4124 89.2188L71.5202 63.4913C73.1264 62.5731 74.4248 60.4841 74.4248 58.8208L74.3779 18.0773L74.3846 18.0839Z" fill="white"/>
<path d="M48.5152 64.6229C48.3339 64.7917 48.1875 65.1966 48.1875 65.534V68.1546C48.1875 68.492 48.3409 68.627 48.5221 68.4583C48.7034 68.2896 48.8568 67.8734 48.8568 67.536V64.9154C48.8568 64.5779 48.7034 64.443 48.5152 64.6117V64.6229ZM48.3688 68.2671C48.3688 68.2671 48.4106 68.2896 48.4385 68.2896C48.4106 68.2896 48.3897 68.2896 48.3688 68.2671ZM48.5221 68.2446C48.6406 68.1321 48.7382 67.8622 48.7382 67.6485C48.7382 67.8622 48.6406 68.1321 48.5221 68.2446Z" fill="#0129FA"/>
<path d="M53.7934 39.2575C53.8752 39.2575 53.9571 39.2367 54.039 39.1847C54.2028 39.0912 54.3665 38.8936 54.4586 38.6545L55.4924 35.9413C55.5538 35.775 55.5743 35.6191 55.5333 35.4839C55.5026 35.3592 55.4208 35.2864 55.3082 35.2656C55.2365 35.2656 55.1444 35.2864 55.0625 35.328C54.8988 35.4216 54.735 35.6295 54.6429 35.8582L53.6091 38.561C53.5477 38.7273 53.5272 38.8936 53.5682 39.0184C53.5989 39.1535 53.6808 39.2263 53.7934 39.2367V39.2575ZM55.3389 35.9413L54.3153 38.6442C54.2846 38.7169 54.2437 38.7897 54.2028 38.8417C54.2539 38.7793 54.2949 38.7169 54.3153 38.6442L55.3389 35.9413C55.3798 35.8374 55.39 35.7334 55.3798 35.6399C55.4003 35.7334 55.3798 35.8374 55.3389 35.9413ZM53.7319 38.8936C53.7319 38.8936 53.7626 38.9664 53.7831 38.9976C53.8036 39.0184 53.8343 39.0288 53.8752 39.0288C53.9264 39.0288 53.9776 39.0288 54.039 38.9872C53.9878 39.0184 53.9264 39.0392 53.8752 39.0288C53.8343 39.0288 53.8036 39.0184 53.7831 38.9976C53.7626 38.9768 53.7422 38.9456 53.7319 38.8936Z" fill="#0129FA"/>
<path d="M57.9136 41.2374L58.0423 41.1884C58.1214 41.1492 58.2006 41.0708 58.2699 40.9826L60.0016 38.8462C60.1105 38.7188 60.1897 38.5522 60.2193 38.3954C60.2589 38.2386 60.2391 38.1014 60.1699 38.023C60.0907 37.8956 59.9324 37.8956 59.7641 37.9838C59.685 38.0328 59.6058 38.1014 59.5266 38.1896L57.7949 40.326C57.5673 40.6004 57.498 40.9728 57.6266 41.1492C57.686 41.2374 57.7949 41.2668 57.9136 41.2374Z" fill="#0129FA"/>
<path d="M59.9973 53.3733L58.264 53.2266C58.195 53.2266 58.1162 53.2364 58.0375 53.2853C57.9981 53.3048 57.9587 53.3342 57.9094 53.3733C57.7912 53.4809 57.6829 53.6277 57.6238 53.7842C57.4958 54.1169 57.5746 54.3909 57.8011 54.4104L59.5344 54.5572C59.6132 54.5572 59.692 54.5474 59.7708 54.4985C59.9284 54.4104 60.0859 54.2245 60.1746 53.9995C60.2435 53.843 60.2534 53.6864 60.2238 53.569C60.1943 53.4516 60.1155 53.3733 60.0072 53.3733H59.9973ZM58.1852 53.432L58.0375 53.4712L58.1852 53.432ZM57.8897 54.205C57.7814 54.205 57.7223 54.0876 57.742 53.9506C57.7322 54.0876 57.7814 54.1952 57.8897 54.205L59.6231 54.3517L57.8897 54.205ZM59.9579 54.1365C59.9579 54.1365 60.017 54.0386 60.0367 53.9897C60.0367 53.9799 60.0367 53.9701 60.0367 53.9604C60.0367 53.9701 60.0367 53.9799 60.0367 53.9897C60.017 54.0386 59.9973 54.0876 59.9579 54.1365Z" fill="#0129FA"/>
<path d="M39.1461 63.8769C39.1461 63.8769 39.0568 63.9063 39.0171 63.9357C38.9376 63.9846 38.8582 64.0532 38.7887 64.1413L37.0416 66.2759C36.9324 66.4032 36.8629 66.5696 36.8332 66.7165C36.7935 66.8732 36.8133 67.0103 36.8729 67.0984C36.9424 67.1865 37.0416 67.2159 37.1607 67.1767L37.2799 67.1278C37.3593 67.0788 37.4486 67.0103 37.5181 66.9221L39.2553 64.7876C39.3645 64.6603 39.4439 64.4938 39.4737 64.3371C39.5035 64.1805 39.4936 64.0434 39.4241 63.9651C39.3546 63.8867 39.2553 63.8476 39.1362 63.8769H39.1461ZM37.4387 66.8046C37.3891 66.8634 37.3394 66.9123 37.2898 66.9417C37.3394 66.9123 37.3891 66.8634 37.4387 66.8046L39.1759 64.6701C39.1759 64.6701 39.1957 64.6309 39.2156 64.6113C39.2057 64.6309 39.1957 64.6505 39.1759 64.6701L37.4387 66.8046ZM39.3149 64.3861C39.3149 64.3861 39.3149 64.4155 39.3049 64.4253C39.3049 64.4155 39.3149 64.3959 39.3149 64.3861C39.3248 64.3371 39.3248 64.2882 39.3149 64.249C39.3149 64.2882 39.3149 64.3371 39.3149 64.3861Z" fill="#0129FA"/>
<path d="M48.5221 40.5331C48.7034 40.3921 48.8568 40.0443 48.8568 39.7623V37.5723C48.8568 37.2903 48.7034 37.1775 48.5152 37.3185C48.3339 37.4595 48.1875 37.7979 48.1875 38.0798V40.2699C48.1875 40.5519 48.3409 40.6646 48.5221 40.5237V40.5331ZM48.306 37.9953V40.1853C48.306 40.3639 48.4036 40.4391 48.5221 40.3451C48.5849 40.2981 48.6337 40.2229 48.6755 40.1289C48.6337 40.2229 48.5849 40.2981 48.5221 40.3451C48.4036 40.4391 48.313 40.3639 48.306 40.1853V37.9953Z" fill="#0129FA"/>
<path d="M61.7057 44.6501L59.4374 45.9533C59.1455 46.1204 58.8984 46.5325 58.8984 46.8667C58.8984 47.2008 59.1455 47.3345 59.4374 47.1674L61.7057 45.8642C61.9977 45.6971 62.2447 45.285 62.2447 44.9508C62.2447 44.6166 61.9977 44.483 61.7057 44.6501ZM59.4374 46.9446C59.2915 47.0226 59.1679 47.0003 59.1118 46.889C59.1679 47.0003 59.2915 47.0226 59.4374 46.9446L61.7057 45.6414L59.4374 46.9446Z" fill="#0129FA"/>
<path d="M37.0317 52.4104L38.7788 52.5572C38.8483 52.5572 38.9376 52.5474 39.0071 52.4985L39.1362 52.4104C39.2553 52.3126 39.3546 52.156 39.4241 51.9995C39.4935 51.843 39.5035 51.6864 39.4737 51.569C39.4439 51.4516 39.3645 51.3733 39.2553 51.3733L37.5082 51.2266C37.4387 51.2266 37.3593 51.2461 37.2799 51.2853C37.2402 51.3048 37.2005 51.3342 37.1607 51.3733C37.0317 51.4809 36.9324 51.6277 36.8729 51.7842C36.8133 51.9408 36.7935 52.0973 36.8332 52.2147C36.8629 52.3321 36.9424 52.4104 37.0515 52.4104H37.0317ZM39.0965 52.2539C39.0965 52.2539 39.0468 52.3028 39.0171 52.3126C39.0468 52.293 39.0667 52.2734 39.0965 52.2539C39.1759 52.1854 39.2355 52.0875 39.2752 51.9897C39.2355 52.0973 39.166 52.1952 39.0965 52.2539ZM36.9721 52.0778C36.992 52.156 37.0416 52.1952 37.1111 52.205C37.0416 52.205 36.992 52.156 36.9721 52.0778Z" fill="#0129FA"/>
<path d="M54.4484 59.9776C54.3563 59.8568 54.1925 59.8568 54.0185 59.9474C53.9366 59.9977 53.8548 60.0581 53.7831 60.1487C53.6705 60.2896 53.5989 60.4506 53.5682 60.6117C53.5272 60.7727 53.5477 60.9036 53.6091 61.0042L54.6531 62.4435C54.7452 62.5643 54.909 62.5744 55.0728 62.4838C55.1546 62.4335 55.2365 62.363 55.3184 62.2724C55.431 62.1315 55.5026 61.9705 55.5333 61.8195C55.5743 61.6584 55.5538 61.5175 55.4924 61.427L54.4484 59.9776ZM54.7964 62.2724L53.7626 60.8331C53.7217 60.7727 53.7115 60.6821 53.7217 60.5815C53.7012 60.6821 53.7217 60.7727 53.7626 60.8331L54.7964 62.2724C54.8578 62.3529 54.9602 62.3529 55.0728 62.2926C54.9602 62.3529 54.8578 62.3529 54.7964 62.2724Z" fill="#0129FA"/>
<path d="M43.2707 66.5312C43.1988 66.5312 43.1166 66.5487 43.0344 66.5835C42.9933 66.6009 42.942 66.6357 42.9009 66.6706C42.7776 66.7577 42.6749 66.8883 42.603 67.0276L41.5655 69.3005C41.5039 69.4398 41.4833 69.5704 41.5142 69.6836C41.5552 69.7881 41.6272 69.8491 41.7401 69.8578C41.8223 69.8578 41.9045 69.8491 41.9867 69.8055C42.151 69.7272 42.3154 69.553 42.4078 69.3614L43.4453 67.0973C43.5069 66.958 43.5275 66.8186 43.4864 66.7141C43.4556 66.6009 43.3734 66.54 43.2604 66.5312H43.2707ZM42.7571 67.0363C42.7776 66.9841 42.829 66.9405 42.8701 66.897C42.829 66.9405 42.7776 66.9841 42.7571 67.0363L41.7196 69.3092L42.7571 67.0363ZM43.3323 66.9754C43.3323 66.9754 43.3323 66.9492 43.3426 66.9405C43.3426 66.9492 43.3426 66.9667 43.3323 66.9754Z" fill="#0129FA"/>
<path d="M38.151 58.9211C38.151 58.5856 37.9039 58.4513 37.612 58.6191L35.3325 59.9278C35.0405 60.0956 34.8047 60.4983 34.8047 60.8339C34.8047 61.1694 35.0517 61.3037 35.3325 61.1359L37.612 59.8272C37.9039 59.6594 38.151 59.2455 38.151 58.9099V58.9211ZM35.0966 60.9569C35.0966 60.9569 35.164 60.9793 35.2089 60.9793C35.164 60.9793 35.1303 60.9793 35.0966 60.9569ZM35.3437 60.9345C35.3437 60.9345 35.2875 60.9569 35.2539 60.9681C35.2875 60.9681 35.31 60.9569 35.3437 60.9345L37.6232 59.6258L35.3437 60.9345Z" fill="#0129FA"/>
<path d="M42.8938 45.8838L43.0266 45.8337C43.1084 45.7836 43.1901 45.7234 43.2617 45.6333C43.3741 45.493 43.4558 45.3326 43.4865 45.1723C43.5274 45.0119 43.5069 44.8817 43.4456 44.7814L42.4032 43.3484C42.3112 43.2281 42.1477 43.2181 41.9842 43.3183C41.9024 43.3684 41.8207 43.4386 41.7389 43.5288C41.6265 43.6691 41.555 43.8294 41.5141 43.9898C41.4834 44.1501 41.5039 44.2804 41.5652 44.3706L42.6076 45.8136C42.6791 45.9038 42.7813 45.9339 42.904 45.8938L42.8938 45.8838ZM41.9842 43.4987C42.0353 43.4686 42.0966 43.4486 42.1375 43.4586C42.0864 43.4586 42.0353 43.4686 41.9842 43.4987L41.9127 43.5588L41.9842 43.4987ZM41.6776 43.9296C41.6572 44.0399 41.6776 44.1301 41.7083 44.1802L42.7507 45.6232L41.7083 44.1802C41.6674 44.1301 41.6572 44.0399 41.6776 43.9296Z" fill="#0129FA"/>
<path d="M63.5085 38.8036C61.5395 32.7199 55.8422 30.9028 49.3152 34.286C49.0354 34.4366 48.7555 34.5871 48.4756 34.7478C48.2757 34.8582 48.0758 34.9787 47.8859 35.0991C41.2391 39.2353 35.4618 47.7184 33.5027 56.2215C32.1834 61.9639 32.7231 66.853 35.042 69.9752C35.3319 70.3767 35.6617 70.7482 36.0116 71.0694C38.8202 73.7298 43.0782 73.8904 47.696 71.5011C47.766 71.471 48.1058 71.2903 48.5756 71.0192C48.8755 70.8486 49.1753 70.6679 49.4652 70.4771C54.3229 67.3549 58.6908 61.984 61.4695 55.7396C64.2282 49.5254 64.9778 43.3915 63.5285 38.8036H63.5085ZM61.6294 54.9465C64.0783 49.0636 64.728 43.2911 63.3486 38.9441C63.3486 38.9441 63.3486 38.9441 63.3486 38.9542C64.7379 43.2509 64.0883 49.0435 61.6294 54.9465ZM36.7912 68.9712C36.2015 68.3187 35.7017 67.5457 35.3219 66.6723C35.7117 67.5457 36.2015 68.3187 36.7912 68.9712C37.141 69.3527 37.5208 69.684 37.9206 69.9752C38.2505 70.2161 38.6003 70.4169 38.9701 70.5976C38.6103 70.4269 38.2605 70.2161 37.9206 69.9752C37.5208 69.6941 37.141 69.3527 36.7912 68.9712ZM48.5656 69.1319C48.4557 69.1921 48.3557 69.2523 48.2458 69.3126C44.3076 71.4911 40.6793 71.6617 38.0406 69.7744C37.6408 69.4832 37.271 69.1519 36.9311 68.7805C34.5822 66.2004 33.8526 61.723 34.9321 56.4926C36.5313 48.7122 41.7388 40.8817 47.8959 36.9965C48.1058 36.866 48.3057 36.7456 48.5256 36.6151C48.7755 36.4745 49.0454 36.3239 49.3152 36.1834C51.5442 35.0389 53.6732 34.557 55.6223 34.7578C59.9102 35.1995 62.579 39.0245 62.589 44.7367C62.6189 53.6917 56.3219 64.6444 48.5656 69.1419V69.1319ZM35.7117 53.0692C36.2314 51.5433 36.8711 50.0374 37.6108 48.5817C36.8611 50.0374 36.2214 51.5433 35.7117 53.0692ZM54.2029 34.5169C53.9431 34.537 53.6732 34.557 53.4033 34.5972C53.6732 34.557 53.9431 34.5269 54.2029 34.5169ZM48.5056 36.4143C48.7655 36.2637 49.0354 36.1231 49.3053 35.9826C49.0354 36.1231 48.7655 36.2737 48.4956 36.4243L48.5056 36.4143ZM49.3053 34.4767C49.825 34.2057 50.3448 33.9848 50.8445 33.774C50.3348 33.9748 49.825 34.2057 49.3053 34.4767C49.0154 34.6273 48.7255 34.7879 48.4457 34.9486C48.7355 34.7779 49.0154 34.6273 49.3053 34.4767ZM33.6527 56.1613L33.6827 56.0207L33.6527 56.1613C33.3228 57.5868 33.1129 58.9522 33.013 60.2573C33.1129 58.9522 33.3228 57.5868 33.6527 56.1613ZM48.0658 71.0995C47.9559 71.1598 47.8559 71.21 47.786 71.2501C47.8459 71.22 47.9459 71.1598 48.0658 71.0995Z" fill="#0129FA"/>
<path d="M54.8851 49.4707C54.8851 48.9081 54.4668 48.6871 53.9649 48.9684L49.3849 51.5099L49.364 43.2023C49.364 42.6398 48.9457 42.4188 48.4333 42.7C47.9314 42.9813 47.5132 43.6644 47.5236 44.2169L47.555 54.5537L53.9753 50.9976C54.4772 50.7163 54.8955 50.0332 54.8851 49.4807V49.4707ZM54.2577 49.0588C54.1635 49.0588 54.0694 49.099 53.9649 49.1593C54.0694 49.099 54.1635 49.0689 54.2577 49.0588ZM48.4333 42.8909C48.5379 42.8306 48.632 42.8005 48.7261 42.7905C48.632 42.7905 48.5379 42.8306 48.4333 42.8909C48.3497 42.9411 48.2765 43.0014 48.2033 43.0717C48.2765 43.0014 48.3497 42.9411 48.4333 42.8909ZM48.151 43.1119C48.151 43.1119 48.1092 43.1621 48.0883 43.1923C48.1092 43.1621 48.1301 43.132 48.151 43.1119ZM47.7328 54.2624L47.7014 44.1165L47.7328 54.2624L53.9753 50.7967C54.1845 50.6862 54.3622 50.4853 54.4982 50.2643C54.3622 50.4853 54.174 50.6862 53.9753 50.7967L47.7328 54.2624Z" fill="#0129FA"/>
</svg>
