<svg width="133" height="170" viewBox="0 0 133 170" fill="none" xmlns="http://www.w3.org/2000/svg">
<path fill-rule="evenodd" clip-rule="evenodd" d="M68.8002 79.5502C67.805 79.5502 66.6801 79.896 65.5118 80.5874C63.3052 81.8406 61.2283 84.0446 59.6707 86.7672C58.1131 89.4897 57.2477 92.3419 57.2477 94.8916C57.2477 97.1388 57.94 98.781 59.1948 99.5156C60.4495 100.25 62.2235 100.034 64.1705 98.8674C66.3339 97.6141 68.4108 95.4102 69.9684 92.6876C71.526 89.9651 72.3914 87.1129 72.3914 84.5632C72.3914 82.316 71.6991 80.6738 70.4444 79.9392C69.9684 79.6367 69.4059 79.507 68.8002 79.507V79.5502ZM60.8389 102.541C59.7572 102.541 58.7621 102.281 57.8535 101.763C55.7334 100.553 54.6084 98.0895 54.6084 94.8484C54.6084 91.8665 55.6036 88.539 57.3775 85.3843C59.1515 82.2728 61.5745 79.7231 64.1705 78.2538C66.9829 76.6548 69.7088 76.4387 71.7857 77.6056C73.9058 78.8156 75.074 81.2788 75.074 84.52C75.074 87.5018 74.0788 90.8726 72.3049 93.9409C70.5309 97.0524 68.1079 99.602 65.5118 101.071C63.9109 101.979 62.31 102.497 60.8389 102.497V102.541Z" fill="#17275A"/>
<path fill-rule="evenodd" clip-rule="evenodd" d="M79.7037 98.4726C79.4873 98.4726 79.271 98.4294 79.0546 98.2998L70.9636 93.6325C70.3146 93.2868 70.0982 92.4657 70.4876 91.8175C70.8338 91.1693 71.6559 90.9532 72.3049 91.3421L80.3959 96.0094C81.0449 96.3983 81.2613 97.1762 80.8719 97.8244C80.6123 98.2565 80.1796 98.4726 79.7037 98.4726Z" fill="#17275A"/>
<path fill-rule="evenodd" clip-rule="evenodd" d="M49.9356 115.201C49.7192 115.201 49.5029 115.158 49.2866 115.028C48.6376 114.639 48.4212 113.861 48.8106 113.213L56.7286 99.5571C57.118 98.9089 57.8968 98.6928 58.5459 99.0386C59.1949 99.4275 59.4112 100.205 59.0218 100.854L51.1471 114.51C50.8875 114.942 50.4548 115.158 49.9789 115.158L49.9356 115.201Z" fill="#17275A"/>
<path fill-rule="evenodd" clip-rule="evenodd" d="M62.8293 39.3145C67.7186 36.6351 72.8241 35.0362 78.0595 37.8019C74.252 35.598 68.7137 31.6222 64.8196 31.1468C60.7957 30.6715 57.0747 32.0976 53.6566 33.999C41.7579 41.2159 33.2342 55.693 32.1958 69.5218L41.4118 74.8373C42.4502 61.0516 50.974 46.5314 62.8726 39.3577L62.8293 39.3145Z" fill="#38D59F"/>
<path fill-rule="evenodd" clip-rule="evenodd" d="M33.5804 68.7859L40.2436 72.6321C41.9743 58.8465 50.5846 45.1905 62.137 38.1896H62.1803C64.6898 36.7636 67.7185 35.4239 70.9636 35.1214C68.6704 33.8249 66.3772 32.7446 64.6033 32.5285C60.7092 32.0531 56.9882 33.6953 54.2623 35.2078C43.2723 41.8629 34.8351 55.6053 33.5371 68.8291L33.5804 68.7859ZM41.3685 76.1325C41.1089 76.1325 40.8926 76.0893 40.7195 75.9596L31.5468 70.6442C31.1141 70.3849 30.8545 69.9095 30.8545 69.3909C31.9362 54.8707 40.8493 40.2208 52.9643 32.8742C56.1228 31.1456 60.3198 29.2441 64.9927 29.8491C68.3243 30.2813 72.4347 32.7878 76.0692 35.035C77.0211 35.64 77.9297 36.2018 78.7518 36.6339C79.3575 36.9796 79.6171 37.8007 79.271 38.4489C78.9249 39.054 78.1028 39.3132 77.497 38.9675C73.4731 36.85 69.3194 37.2821 63.5648 40.4368C52.3153 47.2648 43.7915 61.4394 42.7531 74.8793C42.7531 75.3546 42.4502 75.7436 42.0608 75.9596C41.8445 76.0461 41.6281 76.1325 41.4551 76.1325H41.3685Z" fill="#17275A"/>
<path fill-rule="evenodd" clip-rule="evenodd" d="M62.8294 39.3123L53.6566 33.9968L62.8294 39.3123ZM71.7858 7.46279C69.0166 5.86383 62.7428 1.67197 60.2333 1.36946C47.7289 -0.186279 34.1429 26.7367 44.7002 33.1325L53.8729 38.448C42.3205 31.1014 59.6708 1.11017 71.7858 7.46279Z" fill="white"/>
<path fill-rule="evenodd" clip-rule="evenodd" d="M59.1515 2.66771C52.8777 2.66771 46.2577 10.6193 43.5319 18.4412C41.282 24.8803 41.9743 29.9796 45.3924 32.054L49.2432 34.3011C47.8154 29.3314 49.6326 22.6763 52.7912 17.2312C55.9497 11.7429 60.8822 6.77315 65.9878 5.60634C63.6946 4.22346 61.2284 2.927 60.0169 2.75414C59.714 2.71093 59.4111 2.71093 59.1082 2.71093L59.1515 2.66771ZM53.8729 39.7895C53.6565 39.7895 53.3969 39.7462 53.2238 39.6166L44.0511 34.3011C39.4647 31.5354 38.3398 25.2692 41.0224 17.5337C44.2674 8.15603 52.4018 -0.919142 60.4063 0.0748047C62.5264 0.334095 66.1176 2.45163 70.2713 5.00132C71.1367 5.5199 71.8722 5.99527 72.478 6.34099C73.127 6.68672 73.3433 7.5078 72.9972 8.15603C72.651 8.80425 71.8289 9.02033 71.2232 8.6746C65.9878 5.95205 59.1948 11.57 55.1709 18.5276C51.147 25.4853 49.6759 34.1715 54.6517 37.3262C55.2574 37.7151 55.4738 38.5362 55.0844 39.1412C54.8248 39.5734 54.3921 39.7895 53.9594 39.7895H53.8729ZM62.8293 40.6538C62.6129 40.6538 62.3533 40.6106 62.1802 40.4809L53.0075 35.1655C52.5748 34.9494 52.3152 34.474 52.3152 33.9986C52.3152 33.5233 52.6181 33.0479 53.0508 32.8318C53.4402 32.6158 53.9161 32.6158 54.3055 32.8318L63.4783 38.1473C63.8677 38.3634 64.1273 38.7955 64.1706 39.2709C64.1706 39.703 63.9542 40.1784 63.5648 40.3945C63.5648 40.3945 63.0889 40.6538 62.8293 40.6538Z" fill="#17275A"/>
<path fill-rule="evenodd" clip-rule="evenodd" d="M78.0596 37.8022C73.9925 35.4685 68.5408 35.9871 62.8294 39.3147C56.9018 42.7287 51.4933 48.6059 47.5992 55.3475C44.008 61.5272 41.7148 68.4417 41.3687 74.7943L84.2902 50.032C83.944 44.0683 81.6076 39.8333 78.0596 37.7589V37.8022Z" fill="#38D59F"/>
<path fill-rule="evenodd" clip-rule="evenodd" d="M72.4348 37.7119C69.7089 37.7119 66.6802 38.6626 63.4784 40.4777C57.9401 43.6756 52.7048 49.2071 48.7674 56.0351C45.6954 61.3505 43.6618 67.0981 42.9263 72.3704L82.9056 49.3367C82.4296 44.4534 80.4826 40.7802 77.3673 38.9651C75.8962 38.144 74.252 37.7119 72.4348 37.7119ZM41.3686 76.1733C41.109 76.1733 40.8927 76.0869 40.6763 75.9572C40.2437 75.698 40.0273 75.2226 40.0273 74.7472C40.4168 68.3514 42.6667 61.2641 46.4742 54.6954C50.6712 47.4785 56.2527 41.6012 62.1804 38.144C68.3677 34.5572 74.252 34.0386 78.7519 36.6315C82.8623 39.0083 85.2853 43.7188 85.6747 49.9418C85.6747 50.4603 85.4584 50.9357 85.0257 51.195L42.0609 75.9572C42.0609 75.9572 41.6282 76.1301 41.4119 76.1301L41.3686 76.1733Z" fill="#17275A"/>
<path fill-rule="evenodd" clip-rule="evenodd" d="M62.8293 37.5394C66.334 35.5083 69.4925 32.0511 71.7857 28.1185C74.0789 24.1427 75.5067 19.6916 75.5067 15.6726C75.5067 11.6536 74.0789 8.80139 71.7857 7.50494C69.4925 6.16527 66.334 6.38134 62.8293 8.36923C59.3246 10.4003 56.166 13.8576 53.8729 17.8333C51.5797 21.8091 50.1519 26.2603 50.1519 30.2793C50.1519 34.2983 51.5797 37.1505 53.8729 38.4469C56.166 39.7434 59.3246 39.5705 62.8293 37.5394Z" fill="white"/>
<path fill-rule="evenodd" clip-rule="evenodd" d="M68.4972 7.9433C66.9828 7.9433 65.2954 8.46189 63.5214 9.49905C60.3196 11.3141 57.3342 14.512 55.0842 18.4446C52.7911 22.3771 51.5363 26.569 51.5363 30.2423C51.5363 33.6563 52.618 36.1195 54.565 37.2863C56.5554 38.4099 59.2379 38.1074 62.1801 36.3788C62.1801 36.3788 62.2234 36.3788 62.2667 36.3788C65.382 34.5638 68.3674 31.4091 70.6606 27.4765C72.9538 23.5439 74.2085 19.3521 74.2085 15.6788C74.2085 12.2648 73.1269 9.75834 71.1365 8.63474C70.3577 8.20259 69.4924 7.98652 68.4972 7.98652V7.9433ZM57.2044 40.6139C55.7765 40.6139 54.4352 40.2682 53.267 39.5767C50.4546 37.9778 48.897 34.6502 48.897 30.2423C48.897 26.0936 50.2815 21.4264 52.7911 17.1049C55.3006 12.7834 58.6322 9.23975 62.2234 7.16543C66.031 4.96146 69.7087 4.65896 72.5211 6.30113C75.3335 7.90009 76.8912 11.2709 76.8912 15.6356C76.8912 19.7842 75.5066 24.4082 72.9971 28.773C70.4875 33.1377 67.1559 36.6381 63.5647 38.7124C61.3581 39.9657 59.1947 40.6139 57.2476 40.6139H57.2044Z" fill="#17275A"/>
<path fill-rule="evenodd" clip-rule="evenodd" d="M64.8196 80.8018C64.084 80.8018 63.4783 80.1968 63.4783 79.4621V66.8865C63.4783 66.1519 64.084 65.5469 64.8196 65.5469C65.5551 65.5469 66.1609 66.1519 66.1609 66.8865V79.4621C66.1609 80.1968 65.5551 80.8018 64.8196 80.8018Z" fill="#17275A"/>
<path fill-rule="evenodd" clip-rule="evenodd" d="M31.9362 133.048C36.8255 130.369 41.9311 128.813 47.1664 131.535C43.3589 129.331 37.8206 125.399 33.9266 124.923C29.9027 124.405 26.1816 125.917 22.7635 127.776C10.8649 134.993 2.34116 149.47 1.30273 163.298L10.4755 168.614C11.5139 154.828 20.0809 140.308 31.9362 133.091V133.048Z" fill="#38D59F"/>
<path fill-rule="evenodd" clip-rule="evenodd" d="M2.68728 162.52L9.3505 166.366C11.0812 152.538 19.6915 138.925 31.2439 131.924H31.2872C33.7967 130.498 36.7822 129.158 40.0705 128.856C37.7773 127.559 35.4842 126.479 33.7535 126.263C29.8161 125.744 26.1384 127.43 23.3692 128.942C12.4225 135.597 3.94204 149.34 2.64401 162.563L2.68728 162.52ZM10.4755 169.867C10.2591 169.867 9.99951 169.824 9.82644 169.694L0.653706 164.379C0.221029 164.119 -0.0385835 163.644 0.00468415 163.125C1.08638 148.605 9.99951 133.955 22.1145 126.609C25.273 124.88 29.4267 122.979 34.1429 123.584C37.4745 124.016 41.5849 126.522 45.2194 128.769C46.1713 129.374 47.0799 129.936 47.902 130.411C48.551 130.757 48.7673 131.578 48.4212 132.183C48.075 132.832 47.253 133.048 46.6472 132.745C42.6233 130.628 38.4696 131.103 32.715 134.214C21.4654 141.042 12.8984 155.174 11.9033 168.657C11.9033 169.089 11.6004 169.521 11.211 169.737C10.9947 169.824 10.7783 169.867 10.6053 169.867H10.4755Z" fill="#17275A"/>
<path fill-rule="evenodd" clip-rule="evenodd" d="M31.9363 133.047L22.7636 127.731L31.9363 133.047ZM40.8927 101.197C38.0803 99.5982 31.8498 95.4496 29.297 95.1038C16.8359 93.5481 3.20657 120.471 13.7639 126.867L22.9366 132.182C11.3842 124.879 28.7345 94.8878 40.8494 101.197H40.8927Z" fill="white"/>
<path fill-rule="evenodd" clip-rule="evenodd" d="M28.2585 96.4041C21.9846 96.4041 15.3647 104.356 12.6388 112.134C10.3889 118.573 11.0812 123.673 14.4993 125.747L18.3934 127.994C16.9656 123.025 18.7828 116.369 21.9414 110.924C25.0999 105.436 30.0324 100.466 35.138 99.2995C32.8448 97.9598 30.3786 96.6202 29.2103 96.4905C28.9075 96.4473 28.6046 96.4473 28.3017 96.4473L28.2585 96.4041ZM22.9798 133.526C22.7635 133.526 22.5039 133.483 22.3308 133.353L13.158 128.038C8.57167 125.272 7.44671 119.006 10.1293 111.27C13.3744 101.892 21.5087 92.8604 29.4699 93.8112C31.5901 94.0705 35.1813 96.188 39.335 98.7377C40.2003 99.2563 40.9359 99.7316 41.5416 100.077C42.1906 100.423 42.407 101.244 42.0608 101.892C41.7147 102.497 40.8926 102.757 40.2869 102.411C35.0515 99.6452 28.2585 105.306 24.2346 112.264C20.2107 119.222 18.7396 127.908 23.7154 131.106C24.3211 131.495 24.4942 132.316 24.148 132.921C23.8884 133.31 23.4557 133.569 23.0231 133.569L22.9798 133.526ZM31.9362 134.39C31.7199 134.39 31.5035 134.304 31.2872 134.217L22.1144 128.902C21.725 128.686 21.4654 128.254 21.4654 127.821C21.4654 127.389 21.6385 126.957 21.9846 126.698C22.4173 126.395 22.9798 126.352 23.4557 126.611L32.6285 131.927C33.0179 132.143 33.2775 132.575 33.2775 133.05C33.2775 133.526 33.0612 133.958 32.6718 134.174C32.6718 134.174 32.1958 134.433 31.9362 134.433V134.39Z" fill="#17275A"/>
<path fill-rule="evenodd" clip-rule="evenodd" d="M47.1666 131.539C43.0994 129.206 37.6477 129.768 31.9363 133.052C26.0087 136.466 20.6435 142.386 16.7061 149.085C13.1149 155.264 10.8217 162.179 10.4756 168.531L53.4404 143.769C53.0942 137.806 50.7578 133.57 47.1666 131.496V131.539Z" fill="#38D59F"/>
<path fill-rule="evenodd" clip-rule="evenodd" d="M41.585 131.446C38.8592 131.446 35.8304 132.353 32.6286 134.212C27.0903 137.409 21.855 142.941 17.9176 149.769C14.8456 155.084 12.812 160.832 12.0765 166.104L52.0558 143.071C51.5798 138.144 49.6328 134.514 46.5175 132.699C45.0464 131.878 43.4023 131.446 41.585 131.446ZM10.4756 169.907C10.216 169.907 9.99963 169.864 9.78329 169.734C9.35061 169.475 9.13428 169 9.13428 168.524C9.48042 162.172 11.7736 155.041 15.5812 148.473C19.7781 141.256 25.3597 135.378 31.2873 131.964C37.4746 128.378 43.359 127.859 47.8588 130.452C51.926 132.785 54.3923 137.539 54.7817 143.762C54.7817 144.281 54.5653 144.756 54.1326 144.972L11.1679 169.734C11.1679 169.734 10.7352 169.907 10.5188 169.907H10.4756Z" fill="#17275A"/>
<path fill-rule="evenodd" clip-rule="evenodd" d="M31.9363 131.319C35.3977 129.288 38.5562 125.831 40.8494 121.898C43.1426 117.922 44.5704 113.471 44.5704 109.452C44.5704 105.433 43.1426 102.581 40.8494 101.241C38.5562 99.9448 35.3977 100.118 31.893 102.149C28.3883 104.18 25.2298 107.637 22.9366 111.613C20.6434 115.589 19.2156 120.04 19.2156 124.059C19.2156 128.078 20.6434 130.93 22.9366 132.226C25.2298 133.566 28.3883 133.35 31.893 131.362L31.9363 131.319Z" fill="white"/>
<path fill-rule="evenodd" clip-rule="evenodd" d="M37.6042 101.717C36.0898 101.717 34.4024 102.235 32.6284 103.272C29.4266 105.088 26.4411 108.285 24.148 112.218C21.8548 116.151 20.6 120.342 20.6 124.016C20.6 127.43 21.6817 129.936 23.6288 131.06C25.5758 132.183 28.3017 131.881 31.2439 130.152C34.4889 128.294 37.4311 125.096 39.7243 121.207C41.9742 117.274 43.229 113.082 43.229 109.409C43.229 105.995 42.1473 103.489 40.2003 102.365C39.4214 101.933 38.5561 101.674 37.5609 101.674L37.6042 101.717ZM26.2681 134.387C24.8403 134.387 23.4989 134.042 22.3307 133.35C19.5183 131.751 17.9607 128.424 17.9607 124.016C17.9607 119.867 19.3453 115.2 21.8548 110.878C24.3643 106.557 27.6959 103.013 31.2871 100.939C35.0947 98.7349 38.7292 98.4324 41.5848 100.075C44.3972 101.674 45.9549 105.001 45.9549 109.409C45.9549 113.558 44.5703 118.225 42.0608 122.546C39.5512 126.868 36.2196 130.368 32.6284 132.443C30.4218 133.739 28.2584 134.387 26.3113 134.387H26.2681Z" fill="#17275A"/>
<path fill-rule="evenodd" clip-rule="evenodd" d="M109.342 88.4505C114.231 85.7711 119.337 84.2154 124.572 86.9379C120.765 84.7339 115.226 80.8014 111.332 80.2828C107.352 79.7642 103.587 81.2768 100.169 83.135C88.2706 90.3519 79.7469 104.829 78.7085 118.658L87.8812 123.973C88.9197 110.188 97.4867 95.6674 109.342 88.4505Z" fill="#38D59F"/>
<path fill-rule="evenodd" clip-rule="evenodd" d="M80.0931 117.923L86.7563 121.769C88.487 107.94 97.0973 94.2842 108.65 87.3266C108.65 87.3266 108.65 87.3266 108.693 87.3266C111.203 85.9437 114.188 84.5609 117.476 84.3016C115.183 83.0051 112.89 81.8815 111.159 81.6654C107.222 81.1901 103.544 82.8322 100.775 84.3448C89.7851 90.9999 81.3479 104.742 80.0498 117.966L80.0931 117.923ZM87.8813 125.269C87.6217 125.269 87.4053 125.226 87.189 125.097L78.0163 119.781C77.5403 119.522 77.324 119.046 77.324 118.528C78.4057 104.008 87.3188 89.3577 99.4337 81.9679C102.592 80.2393 106.746 78.3379 111.462 78.9429C114.794 79.375 118.904 81.8815 122.539 84.1287C123.491 84.7337 124.399 85.2955 125.221 85.7709C125.827 86.1166 126.087 86.9377 125.74 87.5427C125.394 88.1909 124.572 88.407 123.967 88.0613C119.943 85.9869 115.789 86.4191 110.034 89.5306C98.7847 96.3586 90.261 110.533 89.2226 123.973C89.2226 124.448 88.9197 124.837 88.5303 125.053C88.314 125.14 88.0976 125.183 87.9246 125.183L87.8813 125.269Z" fill="#17275A"/>
<path fill-rule="evenodd" clip-rule="evenodd" d="M109.342 88.406L100.169 83.1338L109.342 88.406ZM118.255 56.5565C115.486 54.9576 109.256 50.8089 106.703 50.4632C94.2417 48.9075 80.6556 75.8305 91.1697 82.2263L100.342 87.5418C88.7899 80.2384 106.14 50.2471 118.255 56.5565Z" fill="white"/>
<path fill-rule="evenodd" clip-rule="evenodd" d="M105.664 51.7615C99.3904 51.7615 92.7704 59.713 90.0446 67.4917C87.7947 73.9308 88.4869 79.0302 91.9051 81.1045L95.7992 83.3517C94.3714 78.382 96.1886 71.7268 99.3471 66.2817C102.506 60.7934 107.438 55.8237 112.501 54.6569C110.207 53.3172 107.741 51.9775 106.53 51.8479C106.227 51.8047 105.924 51.8047 105.621 51.8047L105.664 51.7615ZM100.386 88.8832C100.169 88.8832 99.9529 88.7968 99.7365 88.7104L90.5638 83.3949C85.9774 80.6291 84.8525 74.363 87.5351 66.6275C90.7801 57.2498 98.9577 48.1746 106.919 49.1686C108.996 49.4278 112.63 51.5454 116.784 54.0951C117.649 54.6137 118.385 55.089 118.991 55.4347C119.64 55.7805 119.856 56.6016 119.51 57.2066C119.164 57.8548 118.342 58.0709 117.736 57.7683C112.544 55.0458 105.707 60.6638 101.684 67.6214C97.6597 74.579 96.1886 83.3085 101.164 86.4632C101.77 86.8521 101.986 87.6732 101.597 88.2782C101.337 88.6671 100.905 88.9264 100.472 88.9264L100.386 88.8832ZM109.342 89.7475C109.082 89.7475 108.866 89.6611 108.693 89.5747L99.5202 84.2592C99.0875 84.0431 98.8279 83.5678 98.8279 83.0492C98.8279 82.5738 99.1308 82.1417 99.5635 81.9256C99.9529 81.7095 100.429 81.7527 100.818 81.9256L109.991 87.2411C110.38 87.5003 110.64 87.8893 110.64 88.3646C110.64 88.84 110.424 89.2722 110.034 89.5314C109.818 89.7043 109.558 89.7907 109.299 89.7907L109.342 89.7475Z" fill="#17275A"/>
<path fill-rule="evenodd" clip-rule="evenodd" d="M124.572 86.9378C120.505 84.6041 115.053 85.166 109.342 88.4503C103.414 91.8643 98.006 97.7415 94.1119 104.483C90.5207 110.663 88.2275 117.577 87.8381 123.93L130.803 99.1676C130.457 93.204 128.12 88.9689 124.529 86.9378H124.572Z" fill="#38D59F"/>
<path fill-rule="evenodd" clip-rule="evenodd" d="M118.991 86.8052C116.265 86.8052 113.236 87.7127 110.034 89.5709C104.496 92.7688 99.2607 98.3004 95.3234 105.128C92.2514 110.444 90.2178 116.191 89.4823 121.464L129.462 98.3868C128.986 93.5035 127.039 89.8302 123.923 88.0152C122.452 87.1941 120.808 86.7619 118.991 86.7619V86.8052ZM87.8813 125.267C87.6217 125.267 87.4054 125.18 87.1891 125.094C86.7564 124.834 86.54 124.359 86.5833 123.884C86.9295 117.488 89.2226 110.401 92.9869 103.832C97.1839 96.615 102.722 90.7377 108.693 87.3237C114.88 83.7369 120.765 83.2183 125.265 85.8112C129.332 88.1448 131.798 92.8985 132.187 99.1215C132.187 99.64 131.971 100.115 131.538 100.375L88.5736 125.137C88.3573 125.267 88.141 125.31 87.9246 125.31L87.8813 125.267Z" fill="#17275A"/>
<path fill-rule="evenodd" clip-rule="evenodd" d="M109.342 86.6764C112.847 84.6453 116.005 81.1881 118.255 77.2555C120.548 73.2797 121.976 68.8286 121.976 64.7663C121.976 60.7041 120.548 57.8951 118.255 56.5987C115.962 55.259 112.803 55.4751 109.299 57.463C105.794 59.4941 102.636 62.9513 100.342 66.8839C98.0492 70.8597 96.6213 75.3108 96.6213 79.3298C96.6213 83.3488 98.0492 86.201 100.342 87.4975C102.636 88.8371 105.794 88.6211 109.299 86.6332L109.342 86.6764Z" fill="white"/>
<path fill-rule="evenodd" clip-rule="evenodd" d="M115.01 57.0761C113.496 57.0761 111.808 57.5947 110.034 58.6318C106.833 60.4469 103.847 63.6448 101.554 67.5774C99.2608 71.5099 98.006 75.7018 98.006 79.3751C98.006 82.7891 99.0877 85.2956 101.035 86.4191C103.025 87.5427 105.708 87.2402 108.65 85.5548C108.65 85.5548 108.65 85.5548 108.736 85.5548C111.852 83.7398 114.837 80.5851 117.13 76.6525C119.424 72.72 120.635 68.5281 120.635 64.8548C120.635 61.4408 119.553 58.9776 117.606 57.8108C116.827 57.3786 115.919 57.1625 114.967 57.1625L115.01 57.0761ZM103.717 89.7467C102.29 89.7467 100.948 89.401 99.7367 88.7096C96.9243 87.0674 95.3667 83.783 95.3667 79.3751C95.3667 75.2697 96.7513 70.6024 99.2608 66.2377C101.77 61.9162 105.102 58.3726 108.693 56.2982C112.501 54.0943 116.178 53.7918 118.991 55.4339C121.803 57.0329 123.361 60.3605 123.361 64.7684C123.361 68.917 121.976 73.5843 119.467 77.9058C116.957 82.2273 113.626 85.7709 110.034 87.8453C107.828 89.1417 105.664 89.7899 103.717 89.7899V89.7467Z" fill="#17275A"/>
</svg>
