<svg width="82" height="102" viewBox="0 0 82 102" fill="none" xmlns="http://www.w3.org/2000/svg">
<path d="M77.3992 7.62031L65.2991 1.22174C62.4741 -0.407248 58.996 -0.407248 56.1636 1.22174L4.58613 30.9032C1.7464 32.5395 0 35.5627 0 38.8353V85.9221C0 89.1947 1.7464 92.2106 4.57879 93.8469L16.6788 100.378C19.5112 102.014 23.004 102.014 25.8364 100.378L77.4212 70.5567C80.2536 68.9204 82 65.8972 82 62.6319V15.5525C82 12.2798 80.2536 9.24931 77.4139 7.62031" fill="black"/>
<path d="M78.142 16.7046C78.142 14.8701 76.7111 14.2024 74.9501 15.215L25.4932 43.5829C23.7322 44.5956 22.3013 46.8996 22.3086 48.7341L22.3526 93.6708C22.3526 95.5053 23.7909 96.173 25.5446 95.1604L75.0014 66.7851C76.7625 65.7725 78.186 63.4684 78.186 61.6339L78.1347 16.6972L78.142 16.7046Z" fill="white"/>
<path d="M67.4191 27.0618C68.0135 26.717 68.6152 26.6362 69.0701 26.8931C69.9873 27.414 69.9947 29.1091 69.0774 30.6794L55.2163 54.696L69.1728 62.6502C70.0901 63.1712 70.0974 64.8662 69.1802 66.4438C68.7252 67.229 68.1309 67.838 67.5365 68.1829C66.9422 68.5278 66.3405 68.6085 65.8855 68.3517L51.929 60.3975L38.0679 84.4141C37.6129 85.1993 37.0186 85.8083 36.4242 86.1532C35.8298 86.4981 35.2281 86.5788 34.7732 86.322C33.8633 85.801 33.856 84.0986 34.7659 82.5283L48.627 58.5117L34.6705 50.5575C33.7606 50.0365 33.7532 48.3415 34.6631 46.7712C35.1181 45.986 35.7124 45.377 36.3141 45.0321C36.9158 44.6872 37.5102 44.6065 37.9651 44.8633L51.9217 52.8175L65.7828 28.8009C66.2377 28.0157 66.8321 27.4067 67.4338 27.0618H67.4191Z" fill="#F05F23"/>
</svg>
