<svg width="12" height="12" viewBox="0 0 12 12" fill="none" xmlns="http://www.w3.org/2000/svg">
<circle cx="6" cy="6" r="6" fill="#EF4050"/>
<path d="M6 10C5.725 10 5.48967 9.92391 5.294 9.77172C5.098 9.61928 5 9.43611 5 9.22222C5 9.00833 5.098 8.82517 5.294 8.67272C5.48967 8.52054 5.725 8.44444 6 8.44444C6.275 8.44444 6.5105 8.52054 6.7065 8.67272C6.90217 8.82517 7 9.00833 7 9.22222C7 9.43611 6.90217 9.61928 6.7065 9.77172C6.5105 9.92391 6.275 10 6 10ZM5 7.66667V3H7V7.66667H5Z" fill="white"/>
</svg>
