<svg width="144" height="39" viewBox="0 0 144 39" fill="none" xmlns="http://www.w3.org/2000/svg">
<path d="M51.7282 31.5293H45.8217V37.8213C45.8217 38.0329 45.6477 38.2069 45.4362 38.2069H44.4534C44.2419 38.2069 44.0679 38.0329 44.0679 37.8213V27.3528C44.0679 24.7937 45.4737 23.7734 48.1659 23.7734C49.3021 23.7734 51.1106 23.811 51.9193 23.8894C52.0353 23.9099 52.1103 24.043 52.1103 24.159V25.1212C52.1103 25.2577 52.0353 25.3533 51.8988 25.3533H48.1864C46.1459 25.3533 45.8183 25.8924 45.8183 27.3528V30.0279H51.7248C51.9363 30.0279 52.1103 30.2019 52.1103 30.4135V31.1437C52.1103 31.3553 51.9363 31.5293 51.7248 31.5293" fill="white"/>
<path d="M55.6149 38.2042H54.6902C54.4787 38.2042 54.3047 38.0302 54.3047 37.8186V28.0052C54.3047 27.7937 54.4787 27.6197 54.6902 27.6197H55.6149C55.8265 27.6197 56.0005 27.7937 56.0005 28.0052V37.8186C56.0005 38.0302 55.8265 38.2042 55.6149 38.2042ZM55.6525 25.9272H54.6698C54.4582 25.9272 54.2842 25.7532 54.2842 25.5417V24.0028C54.2842 23.7912 54.4582 23.6172 54.6698 23.6172H55.6525C55.864 23.6172 56.038 23.7912 56.038 24.0028V25.5417C56.038 25.7532 55.864 25.9272 55.6525 25.9272Z" fill="white"/>
<path d="M66.2163 38.2098H65.2165C65.005 38.2098 64.8719 38.0358 64.8719 37.8242V30.9555C64.8719 29.5122 64.5068 28.956 63.1965 28.956H61.8282C60.5214 28.956 60.1529 29.5156 60.1529 30.9555V37.8242C60.1529 38.0358 60.0164 38.2098 59.8048 38.2098H58.8051C58.5935 38.2098 58.457 38.0358 58.457 37.8242V30.9555C58.457 27.9938 60.518 27.4922 61.8248 27.4922H63.1931C64.5 27.4922 66.5609 27.9938 66.5609 30.9555V37.8242C66.5609 38.0358 66.4278 38.2098 66.2163 38.2098" fill="white"/>
<path d="M73.4915 38.2259C73.1264 38.2839 72.3382 38.3419 71.6455 38.3419C69.8371 38.3419 68.7964 37.7448 68.7964 35.6668V25.7374C68.7964 25.5463 68.9704 25.4098 69.182 25.3723L70.1237 25.2188H70.1613C70.3523 25.2188 70.4888 25.3928 70.4888 25.5839V27.6243H73.4915C73.7031 27.6243 73.8566 27.7608 73.8566 27.9724V28.6275C73.8566 28.8186 73.7031 28.9755 73.4915 28.9755H70.4888V35.6736C70.4888 36.7894 70.8539 36.9839 71.9117 36.9839H73.4711C73.7406 36.9839 73.8737 37.0624 73.8737 37.2535V37.9086C73.8737 38.0826 73.7781 38.1986 73.4881 38.2362" fill="white"/>
<path d="M91.5212 38.1313C90.8865 38.2473 90.0198 38.3429 89.1156 38.3429C86.4985 38.3429 85.0176 36.4969 85.0176 33.6682V32.1669C85.0176 29.3382 86.4814 27.4922 89.1156 27.4922C89.9993 27.4922 90.8865 27.5877 91.5212 27.7038C91.8283 27.7618 91.9067 27.8573 91.9067 28.1269V28.8195C91.9067 29.0106 91.7532 29.1096 91.5792 29.1096H91.5007C90.6545 29.014 90.0573 28.9765 89.1156 28.9765C87.5767 28.9765 86.71 29.9967 86.71 32.1703V33.6716C86.71 35.8281 87.5562 36.8654 89.1156 36.8654C90.0573 36.8654 90.6545 36.8279 91.5007 36.7289H91.5792C91.7532 36.7289 91.9067 36.8245 91.9067 37.0189V37.7116C91.9067 37.9607 91.8317 38.0767 91.5212 38.1347" fill="white"/>
<path d="M101.392 38.2054H100.467C100.256 38.2054 100.082 38.0313 100.082 37.8198V31.3537C100.082 29.7568 99.3107 28.9277 97.5808 28.9277C96.8096 28.9277 95.9634 29.0437 95.3663 29.2177V37.8198C95.3663 38.0313 95.1922 38.2054 94.9807 38.2054H94.056C93.8444 38.2054 93.6704 38.0313 93.6704 37.8198V24.0995C93.6704 23.9084 93.8035 23.7344 94.015 23.7344H94.9977C95.1888 23.7344 95.3629 23.8879 95.3629 24.0995V27.7573C96.018 27.6038 96.8267 27.4878 97.5773 27.4878C100.464 27.4878 101.771 29.0642 101.771 31.3571V37.8232C101.771 38.0348 101.597 38.2088 101.385 38.2088" fill="white"/>
<path d="M107.374 38.3254C106.122 38.3254 105.16 38.1889 104.392 38.1139C104.218 38.0934 104.044 37.9978 104.044 37.8068V37.5577C104.044 37.3666 104.218 37.3086 104.409 37.3086H104.488C105.487 37.3871 106.316 37.5201 107.374 37.5201C110.281 37.5201 110.954 36.2303 110.954 34.6539C110.954 33.2311 110.128 32.7295 107.992 31.4021L106.781 30.6515C105.03 29.5732 103.761 28.6519 103.761 26.939C103.761 24.4174 106.013 23.8203 108.265 23.8203C109.285 23.8203 110.305 23.9363 111.131 24.0114C111.322 24.0319 111.459 24.1274 111.459 24.3014V24.5505C111.459 24.7416 111.305 24.8201 111.093 24.8201C110.67 24.8201 109.227 24.629 108.244 24.629C105.702 24.629 104.627 25.3592 104.627 26.9561C104.627 28.1503 105.511 28.8601 107.224 29.9008L108.456 30.6515C110.592 31.9413 111.841 32.883 111.841 34.6539C111.841 36.4248 111.09 38.3288 107.378 38.3288" fill="white"/>
<path d="M120.016 28.7732C119.323 28.6572 118.265 28.5241 117.341 28.5241C115.184 28.5241 114.417 29.9675 114.417 32.4515V33.6458C114.417 36.1298 115.188 37.5732 117.341 37.5732C118.265 37.5732 119.323 37.4401 120.016 37.3241V28.78V28.7732ZM120.575 37.9519C119.729 38.1259 118.439 38.317 117.344 38.317C114.69 38.317 113.574 36.413 113.574 33.6424V32.4481C113.574 29.6774 114.69 27.7734 117.344 27.7734C118.443 27.7734 119.729 27.9645 120.575 28.1385C120.808 28.1965 120.866 28.275 120.866 28.5036V37.5868C120.866 37.8188 120.808 37.8939 120.575 37.9519Z" fill="white"/>
<path d="M126.926 38.3186H126.56C125.254 38.3186 123.077 37.626 123.077 34.4492V28.2323C123.077 28.0412 123.213 27.8672 123.404 27.8672H123.595C123.786 27.8672 123.923 28.0412 123.923 28.2323V34.4492C123.923 36.9128 125.25 37.527 126.56 37.527H126.926C128.236 37.527 129.563 36.9128 129.563 34.4492V28.2323C129.563 28.0412 129.696 27.8672 129.891 27.8672H130.082C130.273 27.8672 130.409 28.0412 130.409 28.2323V34.4492C130.409 37.6226 128.236 38.3186 126.926 38.3186" fill="white"/>
<path d="M138.776 28.772C138.046 28.6184 136.852 28.5229 136.101 28.5229C133.985 28.5229 133.177 29.8332 133.177 32.3718V33.6411C133.177 36.1252 133.948 37.5686 136.101 37.5686C137.026 37.5686 138.083 37.4355 138.776 37.3195V28.7754V28.772ZM139.336 37.9507C138.49 38.1247 137.2 38.3158 136.104 38.3158C133.45 38.3158 132.334 36.4118 132.334 33.6411V32.3718C132.334 29.3316 133.603 27.7722 136.104 27.7722C136.855 27.7722 138.008 27.8882 138.78 28.0623V24.2714C138.78 24.0769 138.916 23.9062 139.107 23.9062H139.298C139.489 23.9062 139.626 24.0803 139.626 24.2714V37.589C139.626 37.8211 139.568 37.8961 139.336 37.9541" fill="white"/>
<path d="M142.605 38.321H142.489C142.294 38.321 142.124 38.147 142.124 37.9559V28.2381C142.124 28.047 142.298 27.873 142.489 27.873H142.605C142.796 27.873 142.97 28.047 142.97 28.2381V37.9559C142.97 38.147 142.796 38.321 142.605 38.321ZM142.605 25.9656H142.489C142.294 25.9656 142.124 25.812 142.124 25.6005V24.1776C142.124 23.9865 142.298 23.8125 142.489 23.8125H142.605C142.796 23.8125 142.97 23.9865 142.97 24.1776V25.6005C142.97 25.812 142.796 25.9656 142.605 25.9656Z" fill="white"/>
<path d="M79.1656 27.4922C76.412 27.4922 74.9072 29.5122 74.9072 32.2453V33.5931C74.9072 37.2885 77.2275 38.3463 79.442 38.3463C80.7318 38.3463 81.6292 38.2303 82.7245 38.0187C83.0316 37.9607 83.0828 37.8276 83.0828 37.5751V36.92C83.0828 36.7289 83.0145 36.5344 82.861 36.5344H82.7654C81.8817 36.8381 80.6226 36.862 79.5034 36.862C77.7325 36.862 76.7225 35.8998 76.7225 33.6887V32.0713C76.7225 30.0888 77.6711 28.9731 79.326 28.9731C80.9809 28.9731 81.8715 30.0104 81.8715 32.0713V32.2931H77.8485C77.6472 32.2931 77.4834 32.4569 77.4834 32.6582V33.1427C77.4834 33.344 77.6472 33.5078 77.8485 33.5078H83.1101C83.3421 33.5078 83.3865 33.286 83.3865 33.037V32.2283C83.3865 29.4951 81.9772 27.4956 79.1656 27.4956" fill="white"/>
<path d="M49.023 8.83371V5.08715H46.5082C44.8124 5.08715 43.973 6.32918 43.973 8.83371C43.973 11.3382 44.8124 12.6007 46.5082 12.6007C48.2041 12.6007 49.023 11.3382 49.023 8.83371ZM52.831 13.4401H52.2953C50.8587 13.4401 49.8795 12.8601 49.3403 11.717C48.8422 12.8601 47.8629 13.4401 46.3683 13.4401C44.1538 13.4401 43.0347 11.8978 43.0347 8.83371C43.0347 7.17198 43.4134 5.95043 44.1914 5.16905C44.7305 4.62651 45.4471 4.36719 46.3649 4.36719H49.627C49.8078 4.36719 49.9579 4.51391 49.9579 4.69817V9.93924C49.9579 11.7204 50.7769 12.6042 52.4318 12.6042H52.8105L52.831 13.4469V13.4401Z" fill="white"/>
<path d="M56.5426 10.0918C56.5426 12.0743 55.2664 13.4357 53.2499 13.4357H52.2944V12.5929H53.1304C54.7853 12.5929 55.6042 11.7126 55.6042 9.92802V4.69377C55.6042 4.50951 55.7544 4.35938 55.9386 4.35938H56.2082C56.3925 4.35938 56.5426 4.50951 56.5426 4.69377V10.0918V10.0918Z" fill="white"/>
<path d="M59.4023 6.37313C59.2624 6.24347 59.259 6.02167 59.3955 5.8886C60.0131 5.28123 60.774 4.98438 61.6714 4.98438C63.7255 4.98438 65.0836 6.26734 65.0836 8.34876V13.4363H59.1498C58.9656 13.4363 58.8154 13.2862 58.8154 13.1019V12.9279C58.8154 12.7436 58.9656 12.5969 59.1498 12.5969H64.1248V8.48866C64.1248 6.70751 63.3058 5.82376 61.6714 5.82376C60.9822 5.82376 60.4123 6.03532 59.9551 6.46525C59.8288 6.58468 59.6309 6.58468 59.5047 6.46525L59.4023 6.36971V6.37313Z" fill="white"/>
<path d="M72.3447 9.33524C72.3652 6.9126 71.6077 5.70811 70.0313 5.70811C68.3559 5.70811 67.5165 6.90919 67.5165 9.33524C67.5165 10.2565 67.7179 11.0174 68.1341 11.618C68.5914 12.2799 69.2499 12.6007 70.1098 12.6007H72.3038C72.3243 11.2188 72.3243 10.1166 72.3447 9.33524M67.752 16.4598C67.7929 16.2824 67.9704 16.1698 68.1478 16.2107C68.5334 16.3029 68.9531 16.3472 69.4103 16.3472C70.2497 16.3472 70.9082 16.0674 71.3859 15.4874C71.8261 14.9653 72.0854 14.2863 72.1639 13.4435H70.1098C68.9906 13.423 68.1137 13.0033 67.4756 12.2014C66.8955 11.461 66.6191 10.5193 66.6191 9.33524C66.6191 8.03179 66.8785 7.01155 67.3971 6.23017C67.9772 5.34983 68.8541 4.90625 70.0313 4.90625C72.1673 4.90625 73.2251 6.38712 73.2251 9.33182C73.2251 10.5534 73.2046 11.6555 73.1637 12.5973H74.9141V13.4401H73.1057C73.0067 14.5627 72.645 15.443 72.0274 16.0845C71.3893 16.784 70.5295 17.1457 69.4342 17.1457C68.9462 17.1457 68.4446 17.0604 67.9499 16.8898C67.7929 16.8352 67.7042 16.6646 67.7452 16.5008L67.7554 16.4564L67.752 16.4598Z" fill="white"/>
<path d="M97.6695 13.4357H83.9595V12.5929H85.8498V6.59434C85.8498 6.41009 85.9999 6.25995 86.1842 6.25995H86.4538C86.638 6.25995 86.7881 6.41009 86.7881 6.59434V12.5929H90.272V5.65941C90.272 5.47174 90.4255 5.32161 90.6132 5.32502L90.8827 5.33184C91.0636 5.33525 91.2103 5.48539 91.2103 5.66623V12.5929H94.7351V4.69377C94.7351 4.50951 94.8852 4.35938 95.0695 4.35938H95.339C95.5233 4.35938 95.6734 4.50951 95.6734 4.69377V12.5929H97.673V13.4357H97.6695Z" fill="white"/>
<path d="M101.56 10.097C101.56 12.0794 100.283 13.4409 98.2668 13.4409H96.9497V12.5981H98.1474C99.8023 12.5981 100.621 11.7178 100.621 9.93319V0.850015C100.621 0.665759 100.771 0.515625 100.956 0.515625H101.225C101.409 0.515625 101.56 0.665759 101.56 0.850015V10.0936V10.097Z" fill="white"/>
<path d="M104.474 13.4375H103.535V0.850015C103.535 0.665759 103.685 0.515625 103.87 0.515625H104.139C104.323 0.515625 104.474 0.665759 104.474 0.850015V13.4375Z" fill="white"/>
<path d="M115.338 7.43208H109.599C109.414 7.43208 109.264 7.28194 109.264 7.09768V6.60292C109.264 6.41866 109.414 6.26853 109.599 6.26853H111.202V5.8693C111.202 4.36795 112.141 3.18393 113.717 3.18393C114.236 3.18393 114.737 3.38184 115.205 3.77424C115.355 3.90049 115.365 4.13252 115.225 4.269L114.84 4.64775C114.71 4.774 114.509 4.76718 114.376 4.64775C114.133 4.42938 113.867 4.32701 113.581 4.32701C112.803 4.32701 112.424 4.78765 112.424 5.68846V6.26853H115.341C115.526 6.26853 115.676 6.41866 115.676 6.60292V7.09768C115.676 7.28194 115.526 7.43208 115.341 7.43208M121.988 13.4409H121.493C120.156 13.4409 119.18 12.9803 118.562 12.0385C117.904 12.9803 116.846 13.4409 115.41 13.4409H110.039C107.882 13.4409 106.446 12.059 106.446 9.99461V8.42843C106.446 8.17593 106.651 7.96778 106.903 7.96778L107.858 7.96096C108.114 7.96096 108.322 8.16569 108.322 8.4216V9.79329C108.322 11.0967 108.981 11.7553 110.298 11.7553H115.311C116.648 11.7553 117.307 11.0933 117.307 9.79329V0.850015C117.307 0.665759 117.457 0.515625 117.641 0.515625H118.829C119.013 0.515625 119.163 0.665759 119.163 0.850015V9.19276C119.163 10.8954 119.982 11.7587 121.616 11.7587H121.992V13.4409H121.988Z" fill="white"/>
<path d="M129.061 13.4376H128.205C127.028 13.4376 126.11 13.0759 125.431 12.3764C124.752 13.0759 123.814 13.4376 122.599 13.4376H121.848V11.7963H122.479C123.817 11.7963 124.476 11.1139 124.476 9.75243V5.36438C124.476 5.15624 124.663 4.99928 124.868 5.03682L126.076 5.2552C126.236 5.28249 126.349 5.4224 126.349 5.58277V9.81385C126.349 11.1378 127.007 11.7963 128.324 11.7963H129.058V13.4376H129.061Z" fill="white"/>
<path d="M136.138 13.441H135.285C134.108 13.441 133.19 13.0793 132.511 12.3798C131.832 13.0793 130.894 13.441 129.675 13.441H128.925V11.7997H129.556C130.894 11.7997 131.552 11.1173 131.552 9.75584V5.36438C131.552 5.15624 131.74 4.99928 131.941 5.03682L133.149 5.24496C133.309 5.27226 133.425 5.41215 133.425 5.57253V9.81384C133.425 11.1378 134.084 11.7963 135.401 11.7963H136.135V13.4376L136.138 13.441Z" fill="white"/>
<path d="M79.3123 12.1573C80.0323 11.8979 81.1651 11.4168 81.5848 10.6935C82.2297 9.58451 82.4584 8.15481 81.967 6.94349C81.4313 5.62639 80.0391 5.20329 78.7152 5.12481C77.1183 5.04633 76.023 6.10751 76.023 7.72829C76.023 8.5711 76.2823 9.39001 76.8215 10.1919C77.4391 11.1132 78.2784 11.7751 79.3157 12.1539M84.0825 13.4368H81.5678C81.1481 13.4368 80.0152 13.3174 79.2782 13.0581C78.78 13.3174 78.2 13.4368 77.5619 13.4368H74.9175V12.594C77.5517 12.6554 77.9611 12.594 78.1795 12.4132C76.064 11.1097 75.0881 9.40708 75.228 7.32566C75.286 6.42485 75.6272 5.70146 76.2039 5.18282C76.8624 4.60275 77.7393 4.34001 78.8585 4.36048C79.9948 4.38096 81.2027 4.71194 82.0421 5.51039C83.4035 6.8036 83.3285 9.08292 82.5266 10.6525C82.1274 11.4339 81.5883 12.0344 80.8922 12.4166C81.073 12.5974 82.1308 12.6554 84.086 12.5974V13.4402L84.0825 13.4368Z" fill="white"/>
<path d="M45.8733 1.97564H45.7675C45.5901 1.97564 45.4331 1.83574 45.4331 1.64125V0.33439C45.4331 0.156958 45.5935 0 45.7675 0H45.8733C46.0507 0 46.2077 0.16037 46.2077 0.33439V1.64125C46.2077 1.83574 46.0473 1.97564 45.8733 1.97564Z" fill="white"/>
<path d="M48.1697 1.97564H48.0639C47.8864 1.97564 47.7295 1.83574 47.7295 1.64125V0.33439C47.7295 0.156958 47.8864 0 48.0639 0H48.1697C48.3471 0 48.504 0.16037 48.504 0.33439V1.64125C48.504 1.83574 48.3471 1.97564 48.1697 1.97564Z" fill="white"/>
<path d="M53.2878 17.6631H53.182C53.0046 17.6631 52.8477 17.5232 52.8477 17.3287V16.0219C52.8477 15.8445 53.0046 15.6875 53.182 15.6875H53.2878C53.4653 15.6875 53.6222 15.8479 53.6222 16.0219V17.3287C53.6222 17.5232 53.4653 17.6631 53.2878 17.6631Z" fill="white"/>
<path d="M55.5842 17.6631H55.4784C55.301 17.6631 55.144 17.5232 55.144 17.3287V16.0219C55.144 15.8445 55.3044 15.6875 55.4784 15.6875H55.5842C55.7616 15.6875 55.9186 15.8479 55.9186 16.0219V17.3287C55.9186 17.5232 55.7582 17.6631 55.5842 17.6631Z" fill="white"/>
<path d="M143.069 5.04368C142.369 4.36124 141.335 4.02344 139.998 4.02344C137.602 4.02344 136.128 5.28594 136.128 7.22746C136.128 8.30912 136.35 9.08709 136.766 9.5682C137.264 10.1483 138.145 10.4247 139.421 10.4247H140.878C141.069 10.4247 141.223 10.2711 141.223 10.08V9.18263C141.223 8.99154 141.069 8.83799 140.878 8.83799H139.8C139.001 8.83799 138.503 8.7561 138.302 8.59573C138.104 8.41489 138.001 7.99178 138.001 7.29228C138.001 6.2311 138.653 5.70905 139.991 5.70905C141.407 5.70905 142.099 6.22769 142.099 7.29228V10.4383C142.099 11.0593 141.885 11.4619 141.468 11.6428C141.25 11.7213 140.776 11.7656 140.076 11.7656L136.005 11.8032V13.441H140.315C141.513 13.441 142.386 13.2431 142.946 12.82C143.645 12.3184 144 11.479 144 10.2984V7.23428C144 6.35395 143.683 5.63056 143.065 5.0505" fill="white"/>
<path d="M133.023 2.84129H132.04C131.829 2.84129 131.655 2.66726 131.655 2.45571V0.916826C131.655 0.705272 131.829 0.53125 132.04 0.53125H133.023C133.235 0.53125 133.409 0.705272 133.409 0.916826V2.45571C133.409 2.66726 133.235 2.84129 133.023 2.84129Z" fill="white"/>
<path d="M140.622 2.84129H139.639C139.428 2.84129 139.254 2.66726 139.254 2.45571V0.916826C139.254 0.705272 139.428 0.53125 139.639 0.53125H140.622C140.834 0.53125 141.008 0.705272 141.008 0.916826V2.45571C141.008 2.66726 140.834 2.84129 140.622 2.84129Z" fill="white"/>
<path d="M127.171 2.84129H126.188C125.977 2.84129 125.803 2.66726 125.803 2.45571V0.916826C125.803 0.705272 125.977 0.53125 126.188 0.53125H127.171C127.383 0.53125 127.557 0.705272 127.557 0.916826V2.45571C127.557 2.66726 127.383 2.84129 127.171 2.84129Z" fill="white"/>
<path d="M124.544 2.84129H123.561C123.35 2.84129 123.176 2.66726 123.176 2.45571V0.916826C123.176 0.705272 123.35 0.53125 123.561 0.53125H124.544C124.756 0.53125 124.93 0.705272 124.93 0.916826V2.45571C124.93 2.66726 124.756 2.84129 124.544 2.84129Z" fill="white"/>
<path d="M3.28591 17.03L0.607354 15.4774C0.337793 15.3205 0 15.515 0 15.8255V22.5065C0 22.817 0.337793 23.0115 0.607354 22.8545L3.28591 21.302C3.40875 21.2303 3.48722 21.0973 3.48722 20.9539V17.378C3.48722 17.2347 3.41216 17.1016 3.28591 17.03" fill="white"/>
<path d="M3.7057 12.9835L6.78687 11.2058C6.90971 11.1341 6.9882 11.001 6.9882 10.8577L7.00184 7.74243C7.00184 7.43192 6.66746 7.23402 6.3979 7.39098L0.61428 10.7315C0.344719 10.8884 0.344719 11.274 0.61428 11.431L3.30648 12.9835C3.43273 13.0552 3.58628 13.0552 3.70911 12.9835" fill="white"/>
<path d="M3.29961 25.335L0.586936 26.9012C0.317375 27.0547 0.317375 27.4437 0.586936 27.6007L6.39103 31.0026C6.66059 31.1595 7.00179 30.9651 6.99838 30.6511L6.98474 27.4778C6.98474 27.3345 6.90627 27.2014 6.78343 27.1298L3.70224 25.335C3.57599 25.2633 3.42244 25.2633 3.29619 25.335" fill="white"/>
<path d="M10.4888 29.969L10.499 33.0672C10.499 33.2106 10.5775 33.3436 10.7003 33.4153L17.3029 37.2335C17.4291 37.3051 17.5827 37.3051 17.7055 37.2335L24.3046 33.4153C24.4275 33.3436 24.506 33.2106 24.506 33.0672L24.5196 29.969C24.5196 29.6585 24.1852 29.4606 23.9156 29.6175L17.7055 33.1935C17.5827 33.2651 17.4257 33.2651 17.3029 33.1935L11.0893 29.6175C10.8198 29.4606 10.482 29.6585 10.4854 29.969" fill="white"/>
<path d="M24.5195 17.3767V20.9527C24.5195 21.096 24.441 21.2291 24.3182 21.3007L17.7123 25.1394C17.586 25.2111 17.4325 25.2111 17.3062 25.1394L10.7003 21.3007C10.5774 21.2291 10.4989 21.096 10.4989 20.9527V17.3767C10.4989 17.2334 10.5774 17.0969 10.7003 17.0253L17.3062 13.2344C17.429 13.1627 17.5826 13.1627 17.7088 13.2344L24.3148 17.0253C24.441 17.0969 24.5195 17.23 24.5195 17.3767M7.01172 15.3567V22.9727C7.01172 23.116 7.09019 23.2491 7.21302 23.3207L17.3062 29.1521C17.4325 29.2238 17.586 29.2238 17.7088 29.1521L27.802 23.3207C27.9283 23.2491 28.0034 23.116 28.0034 22.9727V15.3567C28.0034 15.2134 27.9249 15.0803 27.802 15.0053L17.7088 9.19437C17.586 9.12271 17.4325 9.12271 17.3062 9.19437L7.21302 15.0053C7.08677 15.0769 7.01172 15.21 7.01172 15.3567" fill="white"/>
<path d="M31.7331 21.3098L34.4116 22.8623C34.6812 23.0193 35.019 22.8248 35.019 22.5143V15.8333C35.019 15.5228 34.6812 15.3283 34.4116 15.4852L31.7331 17.0378C31.6102 17.1094 31.5317 17.2425 31.5317 17.3858V20.9618C31.5317 21.1051 31.6102 21.2381 31.7331 21.3098" fill="white"/>
<path d="M31.709 12.9835L34.4012 11.431C34.6708 11.274 34.6708 10.8884 34.4012 10.7315L28.6176 7.39098C28.3481 7.23402 28.0103 7.43192 28.0103 7.74243L28.0239 10.8577C28.0239 11.001 28.1024 11.1341 28.2252 11.2058L31.3064 12.9835C31.4327 13.0552 31.5862 13.0552 31.709 12.9835" fill="white"/>
<path d="M31.3064 25.3394L28.2252 27.1342C28.1024 27.2058 28.0239 27.3389 28.0239 27.4822L28.0103 30.6555C28.0103 30.9695 28.3481 31.1639 28.6176 31.007L34.4217 27.6051C34.6879 27.4481 34.6879 27.0625 34.4217 26.909L31.709 25.3428C31.5828 25.2711 31.4292 25.2711 31.303 25.3428" fill="white"/>
<path d="M24.5235 8.36511L24.5098 5.24981C24.5098 5.1065 24.4314 4.97342 24.3085 4.90177L17.706 1.10062C17.5831 1.02896 17.4262 1.02896 17.3033 1.10062L10.7008 4.90177C10.5746 4.97342 10.4995 5.1065 10.4995 5.24981L10.4858 8.36511C10.4858 8.67562 10.8202 8.87353 11.0898 8.71657L17.2999 5.13379C17.4262 5.06213 17.5797 5.06213 17.7026 5.13379L23.9127 8.71657C24.1823 8.87353 24.5201 8.67562 24.5166 8.36511" fill="white"/>
</svg>
