<svg width="81" height="47" viewBox="0 0 81 47" fill="none" xmlns="http://www.w3.org/2000/svg">
<g clip-path="url(#clip0_8867_27992)">
<path d="M47.1454 25.8161C47.1223 22.9163 46.0853 21.6868 44.0344 22.8699C43.7809 23.0091 43.3892 23.2874 43.0205 23.5658L42.9974 20.3876C42.9974 20.1789 42.8822 20.0861 42.7439 20.1557L41.2691 21.014C41.1308 21.0836 41.0156 21.3156 41.0156 21.5244L41.1308 34.4227C41.1308 34.7243 41.1769 34.8171 41.5226 34.7475C42.2139 34.6083 43.1818 34.2603 44.1266 33.7267C46.1084 32.59 47.1914 30.2238 47.1454 27.2544V25.8161ZM44.1035 31.2909C43.6887 31.5229 43.3431 31.6853 43.0896 31.7549L43.0205 26.0017C43.32 25.7697 43.7348 25.5145 44.0344 25.3289C44.9101 24.8185 45.1405 25.6537 45.1405 26.9528L45.1636 28.3911C45.1866 29.6902 44.9792 30.7805 44.1035 31.2909Z" fill="white"/>
<path d="M47.8423 13.0604L26.25 0.556423C25.3282 0.0228591 24.176 0.0228591 23.2543 0.556423L1.66193 13.0604C0.740165 13.5939 0.164062 14.5915 0.164062 15.6818V31.2479C0.164062 32.3383 0.740165 33.3358 1.66193 33.8694L23.2543 46.4197C24.176 46.9533 25.3282 46.9533 26.273 46.4197L47.8653 33.8694C48.7871 33.3358 49.3632 32.3383 49.3632 31.2479V15.6818C49.3402 14.6147 48.7641 13.6171 47.8423 13.0604Z" stroke="white" stroke-width="1.5678" stroke-miterlimit="10"/>
<path d="M39.9352 31.4595C39.9813 35.7744 37.8382 37.3751 37.0547 37.8159L36.8934 37.9087C36.1329 38.3494 33.9668 39.2542 33.9207 34.9161L33.8516 29.2557C33.8516 29.0469 33.9437 28.8149 34.082 28.7221L35.5799 27.8638C35.7181 27.7942 35.8334 27.9101 35.8334 28.1189L35.9025 33.7794C35.9255 35.5192 36.2942 35.728 36.8703 35.38L37.0316 35.2872C37.6078 34.9625 37.9765 34.3361 37.9534 32.5962L37.8843 26.959C37.8843 26.7502 37.9995 26.5182 38.1378 26.4255L39.6356 25.5671C39.7739 25.4975 39.8661 25.6135 39.8661 25.8223L39.9352 31.4595Z" fill="white"/>
<path d="M32.7926 39.7192C32.7926 39.9279 32.6774 40.1599 32.5391 40.2295L31.0413 41.0879C30.903 41.1575 30.7878 41.0647 30.7878 40.8559L30.7186 34.4299C30.6956 33.386 30.4191 33.1308 29.6356 33.5716C29.2669 33.7804 28.8982 34.0587 28.6447 34.2907L28.7138 42.0158C28.7138 42.2246 28.5986 42.4566 28.4603 42.5494L26.9855 43.4077C26.8472 43.4773 26.732 43.3613 26.732 43.1757L26.5938 29.8134C26.5938 29.6046 26.709 29.3727 26.8472 29.3031L28.3451 28.4447C28.4834 28.3751 28.5986 28.4679 28.5986 28.6767L28.6216 31.9709C28.9442 31.6693 29.3821 31.2981 29.866 31.0197C31.7556 29.9294 32.6774 30.8342 32.7004 33.2932L32.7926 39.7192Z" fill="white"/>
<path d="M55.8555 14.8933C56.2472 14.3597 56.4546 13.687 56.4546 12.991V12.875C56.4546 12.2487 56.2933 11.8311 55.9477 11.6223C55.5559 11.3903 54.9798 11.4599 54.1733 11.9007C53.7354 12.1327 53.2976 12.4111 53.1133 12.527C52.975 12.6198 52.8828 12.8054 52.8828 12.991V19.8809C52.8828 20.0433 52.9289 20.1361 53.0211 20.2057C53.0441 20.2289 53.1133 20.2521 53.1824 20.2521C53.2285 20.2521 53.2746 20.2521 53.3206 20.2289C53.6433 20.1129 54.035 19.9273 54.4037 19.7418C55.7633 19.0226 56.4777 17.8859 56.4777 16.4244V16.262C56.4777 15.682 56.3394 15.2645 56.0859 15.0093C56.0168 14.9629 55.9477 14.9165 55.8555 14.8933ZM55.6712 13.1534C55.6712 14.0117 55.3024 14.6149 54.5881 15.0093L53.6894 15.4964V13.1766C53.7354 13.1534 53.7815 13.1302 53.8276 13.0838C54.012 12.9678 54.2194 12.8518 54.4268 12.7358C54.9798 12.4575 55.3255 12.3415 55.5098 12.4575C55.6251 12.527 55.6942 12.7358 55.6942 13.0606L55.6712 13.1534ZM53.6663 16.4476L54.7955 15.8444C55.1181 15.682 55.3485 15.6356 55.4868 15.7052C55.6251 15.7748 55.6942 16.0532 55.6942 16.4244V16.5868C55.6942 17.9323 54.9337 18.5122 54.1733 18.9066C53.9659 19.0226 53.8276 19.0922 53.6663 19.1618V16.4476Z" fill="white"/>
<path d="M58.3743 17.1188C58.7891 17.374 59.25 17.1652 59.5726 17.0028C59.7109 16.9332 59.9183 16.794 60.1026 16.678C60.0565 17.5364 59.8261 17.7915 59.273 18.0931C58.8582 18.3251 58.3974 18.4643 58.2591 18.5107L58.19 18.5339C58.0287 18.6267 57.9365 18.7659 57.9365 18.9515V18.9979C57.9365 19.0443 57.9365 19.2066 58.0517 19.2994C58.0978 19.3458 58.1669 19.369 58.2361 19.369C58.2821 19.369 58.3052 19.369 58.3513 19.3458C58.4895 19.2994 58.9735 19.137 59.4804 18.8819C60.3331 18.4179 60.8631 17.7915 60.8631 16.0981V11.0176C60.8631 10.8784 60.7939 10.7392 60.7018 10.6928C60.6096 10.6232 60.4713 10.6232 60.3792 10.6928L60.3561 10.716C60.1948 10.8088 60.0796 10.9944 60.0796 11.2032V15.6805C59.8491 15.8661 59.4804 16.0981 59.3191 16.1908C59.0656 16.33 58.8813 16.3764 58.8122 16.3068C58.743 16.2604 58.5587 16.0285 58.5587 15.0309V12.2703C58.5587 12.1311 58.4895 11.9919 58.3974 11.9455C58.3052 11.8759 58.1669 11.8759 58.0747 11.9455L58.0517 11.9687C57.8904 12.0615 57.7752 12.2471 57.7752 12.4559V15.2165C57.7521 16.2604 57.9595 16.8636 58.3743 17.1188Z" fill="white"/>
<path d="M56.1613 22.8283C56.0691 22.7588 55.9539 22.7356 55.8617 22.782H55.8387C55.5161 22.9211 54.8017 23.2691 54.456 23.4547C53.3269 24.0579 52.7969 24.9626 52.7969 26.3313V31.6669C52.7969 31.8293 52.866 31.9685 53.0043 32.0613C53.0734 32.1077 53.1425 32.1077 53.2117 32.1077C53.2808 32.1077 53.3499 32.0845 53.396 32.0613L53.7417 31.8757C53.926 31.7829 54.0413 31.551 54.0413 31.3422V28.3264L56.023 27.2824C56.2074 27.1897 56.3226 26.9577 56.3226 26.7489V26.3777C56.3226 26.2153 56.2535 26.0761 56.1152 25.9833C56 25.9137 55.8617 25.9137 55.7235 25.9833L54.0413 26.8881V26.0297C54.0413 25.357 54.1334 25.1482 54.7326 24.8234L56.0691 24.1043C56.2074 24.0347 56.2996 23.8723 56.2996 23.6635V23.1763C56.3226 23.0139 56.2535 22.8979 56.1613 22.8283Z" fill="white"/>
<path d="M57.8168 23.2435C57.8859 23.2899 57.955 23.2899 58.0242 23.2899C58.0933 23.2899 58.1624 23.2667 58.2085 23.2435L58.5542 23.0579C58.7385 22.9651 58.8538 22.7332 58.8538 22.5244V21.7356C58.8538 21.5732 58.7846 21.4341 58.6464 21.3413C58.5311 21.2717 58.3929 21.2717 58.2546 21.3413L57.9089 21.5268C57.7246 21.6196 57.6094 21.8516 57.6094 22.0604V22.8492C57.6094 23.0115 57.6785 23.1739 57.8168 23.2435Z" fill="white"/>
<path d="M57.8168 29.5047C57.8859 29.5511 57.955 29.5511 58.0242 29.5511C58.0933 29.5511 58.1624 29.5279 58.2085 29.5047L58.5542 29.3191C58.7385 29.2263 58.8538 28.9943 58.8538 28.7856V23.7747C58.8538 23.6123 58.7846 23.4731 58.6464 23.3803C58.5311 23.3107 58.3929 23.3107 58.2546 23.3803L57.9089 23.5659C57.7246 23.6587 57.6094 23.8907 57.6094 24.0995V29.1103C57.6094 29.2727 57.6785 29.4119 57.8168 29.5047Z" fill="white"/>
<path d="M62.5165 22.501C62.5396 22.5706 62.5626 22.7097 62.5626 22.9881V26.4911C62.5626 26.6767 62.6317 26.8159 62.77 26.8855C62.8852 26.9551 63.0235 26.9551 63.1387 26.8855L63.5074 26.6999C63.6918 26.6071 63.807 26.3983 63.807 26.1663V22.6633C63.807 21.8978 63.6226 21.4106 63.277 21.2019C62.9774 21.0163 62.5857 21.0395 62.1478 21.2714L61.6639 21.5266C61.1569 21.805 60.2812 22.5242 60.2812 24.2176V27.7206C60.2812 27.9062 60.3504 28.0454 60.4886 28.115C60.5578 28.1614 60.6039 28.1614 60.673 28.1614C60.7421 28.1614 60.8113 28.1382 60.8574 28.115L61.2261 27.9294C61.4104 27.8366 61.5256 27.6278 61.5256 27.3958V23.8929C61.5256 23.1737 61.6639 22.9881 61.9635 22.8257L62.4474 22.5706C62.4474 22.5242 62.4935 22.501 62.5165 22.501Z" fill="white"/>
<path d="M67.2669 24.681C67.4513 24.5651 67.5204 24.3795 67.5204 24.1939V23.8691C67.5204 23.6603 67.4052 23.5675 67.3361 23.5211C67.2439 23.4747 67.1056 23.4283 66.9213 23.5443L66.3682 23.8459C66.3452 23.8691 66.3221 23.8691 66.2991 23.8691C66.2991 23.8227 66.2991 23.7763 66.2991 23.7299V20.5053L67.2208 20.0182C67.4052 19.9254 67.5204 19.7166 67.5204 19.5078V19.183C67.5204 19.0206 67.4513 18.8814 67.3361 18.8118C67.2208 18.7422 67.0826 18.7422 66.9443 18.8118L66.2991 19.1598V18.6263C66.2991 18.4639 66.2299 18.3015 66.0917 18.2319C65.9765 18.1623 65.8382 18.1623 65.6999 18.2319L65.3082 18.5335C65.1469 18.6495 65.0547 18.8582 65.0547 19.0438V24.1011C65.0547 24.5187 65.1008 25.0754 65.4695 25.3074C65.5847 25.377 65.6999 25.4002 65.8382 25.4002C66.0917 25.4002 66.3452 25.2842 66.5295 25.1914C66.8521 24.9826 67.1287 24.7738 67.2669 24.681Z" fill="white"/>
<path d="M71.4336 16.9131C71.1801 16.7739 70.7653 16.6579 70.1662 16.9827C69.1292 17.5394 68.4609 18.9081 68.4609 20.5088V21.2048C68.4609 22.2255 68.6914 22.8519 69.1523 23.1302C69.2905 23.1998 69.4518 23.2694 69.7053 23.2694C69.9358 23.2694 70.2123 23.1998 70.558 23.0374C71.0649 22.7591 71.4336 22.5039 71.8023 22.2023C72.0328 22.0167 72.0558 21.8079 72.0558 21.6687V21.344C72.0558 21.1352 71.9406 21.0192 71.8715 20.996C71.7562 20.9264 71.618 20.9264 71.5028 20.996L71.4336 21.0424C71.1341 21.2744 70.6732 21.5759 70.2814 21.7847C70.1201 21.8775 69.9818 21.9007 69.9127 21.8543C69.8897 21.8311 69.7053 21.6919 69.7053 21.0192L71.8715 19.8593C72.0558 19.7665 72.171 19.5577 72.171 19.3025V18.8849C72.148 17.8642 71.8945 17.1914 71.4336 16.9131ZM70.4427 18.2818C70.558 18.2122 70.6271 18.2122 70.6732 18.2122C70.6962 18.2122 70.7193 18.2122 70.7193 18.2122C70.7423 18.2122 70.8806 18.3282 70.9036 18.9777L69.7053 19.6273C69.7744 18.9777 70.051 18.4905 70.4427 18.2818Z" fill="white"/>
<path d="M76.1606 14.1721C76.0684 14.1025 75.9301 14.0793 75.7919 14.1257C75.4923 14.1953 75.1697 14.3345 74.8701 14.4969C73.8331 15.0536 73.2109 16.3296 73.2109 17.9534V18.719C73.2109 19.6933 73.4414 20.3661 73.9023 20.6445C74.0175 20.7141 74.2018 20.7836 74.4092 20.7836C74.6166 20.7836 74.8471 20.7373 75.1236 20.5749C75.5384 20.3661 75.884 20.1109 76.0454 19.9717C76.2297 19.8325 76.2988 19.6701 76.2988 19.4381V19.0902C76.2988 18.9278 76.2297 18.8118 76.1145 18.7422C75.9993 18.6726 75.861 18.6726 75.7227 18.7422L75.6536 18.7654C75.331 18.9742 75.1466 19.1134 74.824 19.2758C74.6858 19.3453 74.6166 19.3453 74.5936 19.3221C74.5936 19.3221 74.4092 19.2062 74.4092 18.371V17.6055C74.4092 16.6543 74.6397 16.028 75.1236 15.796C75.4462 15.6336 75.6306 15.5408 75.9532 15.4248L76.0223 15.4016C76.1836 15.3088 76.2988 15.1232 76.2988 14.9144V14.5665C76.2988 14.4737 76.2988 14.2881 76.1606 14.1721Z" fill="white"/>
<path d="M80.4028 12.156C80.0571 11.9472 79.5962 11.9704 79.0432 12.272C78.9279 12.3416 78.8127 12.4112 78.6975 12.4808V11.2513C78.6975 11.0889 78.6284 10.9497 78.4901 10.8569C78.3749 10.7873 78.2366 10.7873 78.0984 10.8569L77.7527 11.0425C77.5453 11.1585 77.4531 11.3904 77.4531 11.576V18.5588C77.4531 18.7211 77.5223 18.8603 77.6605 18.9531C77.7297 18.9995 77.7988 18.9995 77.8679 18.9995C77.937 18.9995 78.0062 18.9763 78.0523 18.9531L78.3979 18.7675C78.5823 18.6748 78.6975 18.4428 78.6975 18.234V13.9887C78.8819 13.8263 79.1353 13.6639 79.3427 13.5479C79.5501 13.4319 79.6654 13.4319 79.6884 13.4551C79.6884 13.4551 79.8036 13.5247 79.8036 14.0351V17.3292C79.8036 17.4916 79.8728 17.6308 80.011 17.7236C80.1262 17.7932 80.2645 17.7932 80.4028 17.7236L80.7484 17.538C80.9328 17.4452 81.048 17.2133 81.048 17.0045V13.7103C81.0019 12.9215 80.7945 12.388 80.4028 12.156Z" fill="white"/>
<path d="M54.7076 37.2536L54.2697 37.1144C53.6475 36.9056 53.5093 36.7664 53.5093 36.3489C53.5093 35.6297 53.8549 35.1194 54.6845 34.6786C54.8919 34.5626 55.1454 34.4698 55.3758 34.377C55.5372 34.3074 55.6524 34.261 55.7215 34.2378C55.8828 34.145 55.975 34.0058 55.975 33.8202V33.7043C55.975 33.5419 55.8828 33.4491 55.8367 33.4259C55.7906 33.3795 55.6754 33.3331 55.5141 33.4027L55.3758 33.4491C55.0993 33.5651 54.7767 33.6811 54.4541 33.8666C53.2788 34.493 52.7027 35.3977 52.6797 36.5345C52.6797 37.5784 53.2788 37.8568 53.9471 38.0888L54.408 38.2511C55.1684 38.5063 55.2837 38.5527 55.2837 39.0863C55.2837 39.6894 55.1454 40.4782 54.1084 41.0118C53.8549 41.1509 53.6475 41.2205 53.4171 41.3133C53.3019 41.3597 53.1867 41.4061 53.0714 41.4525L53.0484 41.4757L53.1636 41.6845L53.0253 41.4757C52.864 41.5685 52.7719 41.7077 52.7719 41.8933V42.0093C52.7719 42.1717 52.864 42.2645 52.9101 42.2877C52.9562 42.3341 53.0253 42.3341 53.0945 42.3341C53.1406 42.3341 53.1867 42.3341 53.2327 42.3109C53.2788 42.2877 53.3249 42.2645 53.3941 42.2413C53.6475 42.1485 53.9471 42.0325 54.3389 41.8237C55.4911 41.1973 56.0902 40.223 56.0902 38.8775C56.0902 37.7872 55.468 37.5088 54.7076 37.2536Z" fill="white"/>
<path d="M60.0786 33.0556C59.9173 33.102 59.3642 33.2412 58.8572 33.5195C57.8894 34.0299 57.3594 35.213 57.3594 36.8369V37.4401C57.3594 38.484 57.5668 39.1336 57.9816 39.3887C58.1198 39.4583 58.2581 39.5047 58.4194 39.5047C58.6268 39.5047 58.8342 39.4351 59.0646 39.3191C59.5716 39.0408 60.1247 38.6 60.286 38.484C60.4242 38.368 60.4703 38.252 60.4703 38.0664V33.4268C60.4703 33.3572 60.4703 33.218 60.3551 33.1252C60.286 33.0556 60.1938 33.0324 60.0786 33.0556ZM59.6868 37.9504C59.5025 38.0896 59.1568 38.3448 58.8572 38.5072C58.719 38.5768 58.5346 38.6464 58.4425 38.5768C58.3272 38.5072 58.1659 38.252 58.1659 37.2777V36.6745C58.1659 35.3986 58.4655 34.6795 59.0877 34.3315C59.2951 34.2155 59.5255 34.1227 59.7099 34.0763L59.6868 37.9504Z" fill="white"/>
<path d="M64.8946 30.5283C64.8024 30.4819 64.6872 30.4587 64.595 30.5283L64.5259 30.5747C64.3645 30.6675 64.2724 30.8763 64.2724 31.0387V34.2168C64.2724 35.1448 63.9958 35.7943 63.4428 36.0727L63.3045 36.1423C63.2123 36.1887 63.028 36.2815 62.9358 36.2119C62.8897 36.1887 62.7054 36.0263 62.7054 35.3072V32.129C62.7054 31.9898 62.6362 31.8506 62.5441 31.8042C62.4519 31.7578 62.3367 31.7346 62.2445 31.8042L62.1754 31.8506C62.014 31.9434 61.9219 32.1522 61.9219 32.3146V35.4928C61.9219 36.3047 62.1062 36.8151 62.498 37.0471C62.6362 37.1166 62.7745 37.163 62.9358 37.163C63.1202 37.163 63.3276 37.1166 63.535 37.0007L63.6732 36.9311C64.3415 36.5831 65.0559 35.6319 65.0559 34.0777V30.8995C65.0559 30.7139 64.9867 30.5747 64.8946 30.5283Z" fill="white"/>
<path d="M69.3403 26.1207C69.2481 26.0743 69.1329 26.0743 69.0407 26.1207L68.9716 26.1671C68.8103 26.2599 68.7181 26.4687 68.7181 26.6311V28.371C68.4185 28.4638 68.0959 28.603 67.8885 28.719C66.8976 29.2525 66.3906 30.3428 66.3906 32.0131V32.6627C66.3906 33.7066 66.598 34.3562 67.0128 34.6114C67.1511 34.681 67.2893 34.7273 67.4507 34.7273C67.6581 34.7273 67.8654 34.6578 68.0959 34.5418C68.6029 34.2634 69.1559 33.8226 69.3172 33.7066C69.4555 33.5906 69.5016 33.4746 69.5016 33.289V26.4919C69.5016 26.3063 69.4555 26.1903 69.3403 26.1207ZM68.7181 33.1499C68.5337 33.289 68.1881 33.5442 67.8885 33.7066C67.7502 33.7762 67.5659 33.8458 67.4737 33.7762C67.3585 33.7066 67.1972 33.4514 67.1972 32.4771V31.8275C67.1972 30.5748 67.4967 29.8557 68.1189 29.5077C68.2802 29.4149 68.5107 29.3221 68.7411 29.2293L68.7181 33.1499Z" fill="white"/>
<path d="M71.6691 26.9116C71.5769 26.842 71.4617 26.842 71.3465 26.9116L71.3004 26.9348C71.1391 27.0276 71.0469 27.2363 71.0469 27.3987V32.3632C71.0469 32.5024 71.116 32.6184 71.2082 32.688C71.2543 32.7112 71.3234 32.7344 71.3695 32.7344C71.4156 32.7344 71.4847 32.7112 71.5308 32.688L71.5769 32.6648C71.7382 32.572 71.8304 32.3632 71.8304 32.2008V27.2363C71.8304 27.1204 71.7843 26.9812 71.6691 26.9116Z" fill="white"/>
<path d="M71.6691 24.8491C71.5769 24.7795 71.4617 24.7795 71.3465 24.8491L71.3004 24.8723C71.1391 24.9651 71.0469 25.1738 71.0469 25.3362V26.0554C71.0469 26.1946 71.116 26.3106 71.2082 26.3802C71.2543 26.4034 71.3234 26.4266 71.3695 26.4266C71.4156 26.4266 71.4847 26.4034 71.5308 26.3802L71.5769 26.357C71.7382 26.2642 71.8304 26.0786 71.8304 25.893V25.1738C71.8304 25.0347 71.7843 24.9187 71.6691 24.8491Z" fill="white"/>
</g>
<defs>
<clipPath id="clip0_8867_27992">
<rect width="81" height="47" fill="white"/>
</clipPath>
</defs>
</svg>
