<svg width="390" height="141" viewBox="0 0 390 141" fill="none" xmlns="http://www.w3.org/2000/svg">
<path d="M28.4766 32.7779C28.4766 44.5819 37.8839 54.1496 49.49 54.1496C61.0961 54.1496 70.5034 44.5801 70.5034 32.7779C70.5034 20.974 61.0961 11.4062 49.49 11.4062C37.8857 11.4062 28.4766 20.974 28.4766 32.7779Z" fill="#EBB542"/>
<path d="M43.1754 40.7288C43.0218 36.9652 38.8855 33.9375 33.821 33.9375C28.6611 33.9375 24.463 37.0819 24.463 40.9441C24.463 41.0249 24.4648 41.1039 24.4683 41.1864C23.4025 40.8813 22.2819 40.727 21.1314 40.727C15.9715 40.727 11.7734 43.8714 11.7734 47.7354C11.7734 51.5995 15.9715 54.7421 21.1314 54.7421H42.983C48.1429 54.7421 52.341 51.5977 52.341 47.7354C52.3445 43.918 48.2487 40.8042 43.1754 40.7288Z" fill="#2C2C2C"/>
<path d="M19.7261 41.51C21.0178 41.51 22.2477 41.711 23.3595 42.0718C23.3348 41.869 23.3206 41.6644 23.3206 41.458C23.3206 37.7375 27.3917 34.7188 32.4139 34.7188C37.4361 34.7188 41.5071 37.7357 41.5071 41.458C41.5071 41.4759 41.5054 41.4939 41.5054 41.5118C41.5301 41.5118 41.553 41.51 41.5777 41.51C46.5999 41.51 50.6709 44.527 50.6709 48.2493C50.6709 51.9697 46.5999 54.9867 41.5777 54.9867H19.7261C14.7039 54.9867 10.6328 51.9697 10.6328 48.2493C10.6328 44.527 14.7039 41.51 19.7261 41.51Z" fill="white"/>
<path d="M41.569 55.2577H19.7173C14.5575 55.2577 10.3594 52.1133 10.3594 48.251C10.3594 44.387 14.5575 41.2426 19.7173 41.2426C20.8679 41.2426 21.9884 41.397 23.0543 41.7021C23.0507 41.6213 23.049 41.5405 23.049 41.4598C23.049 37.5957 27.2471 34.4531 32.4069 34.4531C37.4714 34.4531 41.6078 37.4808 41.7613 41.2444C46.8347 41.3198 50.9287 44.4336 50.9287 48.251C50.9269 52.1133 46.7288 55.2577 41.569 55.2577ZM19.7173 41.781C14.8486 41.781 10.8888 44.6831 10.8888 48.251C10.8888 51.819 14.8486 54.7193 19.7173 54.7193H41.569C46.4376 54.7193 50.3975 51.8172 50.3975 48.251C50.3975 44.6831 46.4376 41.781 41.569 41.781L41.4984 41.7828C41.4313 41.7828 41.359 41.7541 41.3096 41.7039C41.2602 41.6536 41.2319 41.5836 41.2319 41.5118L41.2337 41.4759C41.2337 37.8954 37.2738 34.9933 32.4051 34.9933C27.5365 34.9933 23.5766 37.8954 23.5766 41.4616C23.5766 41.6464 23.589 41.8367 23.6137 42.0413C23.6242 42.1328 23.589 42.2225 23.5201 42.2818C23.4513 42.341 23.356 42.3589 23.2713 42.332C22.1455 41.9641 20.949 41.781 19.7173 41.781Z" fill="white"/>
<path d="M89.6036 28.7452C89.443 25.52 85.949 22.853 81.6486 22.6736C80.6957 22.6341 79.7533 22.7131 78.8428 22.9087V22.8853C78.8428 19.3982 75.0594 16.5625 70.4078 16.5625C65.8144 16.5625 62.0645 19.33 61.9745 22.7579C61.7592 22.8064 61.2175 22.8225 60.6916 22.8387C59.6734 22.8692 58.2793 22.9123 56.7617 23.1689C53.1248 23.7827 50.529 26.1159 50.4478 28.8421C50.446 28.9157 50.4443 28.9892 50.446 29.0646C50.5007 32.5087 54.3353 35.3103 58.9922 35.3103H81.1774C83.9285 35.3103 86.5137 34.3035 88.0913 32.6146C89.1501 31.4803 89.6742 30.1433 89.6036 28.7452Z" fill="#2C2C2C"/>
<path d="M49.4478 29.3162C49.5255 26.6941 52.0895 24.483 55.5411 23.8997C58.4563 23.4062 60.9745 23.7113 60.9745 23.3505C60.9745 20.0069 64.6326 17.2969 69.1448 17.2969C73.657 17.2969 77.3151 20.0069 77.3151 23.3505C77.3151 23.4726 77.3081 23.5946 77.2993 23.7166C78.2575 23.4761 79.2951 23.3631 80.3751 23.4079C84.5573 23.582 87.9225 26.1216 88.076 29.2229C88.2471 32.6706 84.5255 35.5063 79.9109 35.5063H67.1614H57.7275C53.2347 35.5063 49.5007 32.8536 49.446 29.5244C49.4443 29.4562 49.446 29.3862 49.4478 29.3162Z" fill="white"/>
<path d="M79.9178 35.779H57.7344C53.0775 35.779 49.2447 32.9775 49.1882 29.5334C49.1865 29.4598 49.1882 29.3844 49.19 29.3108C49.2712 26.5846 51.867 24.2515 55.5039 23.6377C57.0215 23.381 58.4156 23.3379 59.4338 23.3074C59.9597 23.2913 60.5032 23.2751 60.7167 23.2267C60.8085 19.7987 64.5566 17.0312 69.1499 17.0312C73.8016 17.0312 77.585 19.8687 77.585 23.3559V23.3792C78.4955 23.1836 79.4379 23.1028 80.3908 23.1423C84.6912 23.3218 88.1852 25.987 88.3458 29.2139C88.4146 30.612 87.8905 31.9491 86.83 33.0851C85.2541 34.7722 82.6689 35.779 79.9178 35.779ZM49.7194 29.327C49.7176 29.3934 49.7176 29.458 49.7176 29.5244C49.767 32.676 53.3634 35.2406 57.7344 35.2406H79.9196C82.5295 35.2406 84.97 34.2948 86.4488 32.7136C87.407 31.6871 87.8817 30.4864 87.8199 29.2408C87.6735 26.2903 84.4018 23.8477 80.3714 23.6807C79.3479 23.6377 78.3385 23.74 77.3697 23.9823C77.2867 24.002 77.2003 23.9823 77.135 23.9266C77.0697 23.871 77.0362 23.7866 77.0432 23.7005C77.0538 23.5731 77.0591 23.46 77.0591 23.3577C77.0591 20.1684 73.5122 17.5715 69.1535 17.5715C64.7948 17.5715 61.2479 20.1667 61.2479 23.3577C61.2479 23.7938 60.722 23.81 59.4532 23.8494C58.4509 23.88 57.0762 23.9212 55.5939 24.1725C52.2075 24.7396 49.7917 26.861 49.7194 29.327Z" fill="#2C2C2C"/>
<path d="M69.9262 55.1953C69.8609 55.1953 69.7973 55.1702 69.7479 55.1253L67.8756 53.3934C67.768 53.2929 67.7592 53.1224 67.858 53.0129C67.9568 52.9035 68.1244 52.8945 68.2321 52.995L69.9032 54.5403L71.6502 52.4907C71.7455 52.3794 71.9131 52.3668 72.0243 52.4637C72.1355 52.5607 72.1461 52.7312 72.0508 52.8442L70.1256 55.102C70.0779 55.1576 70.0126 55.19 69.942 55.1953C69.9367 55.1953 69.9314 55.1953 69.9262 55.1953Z" fill="white"/>
<path d="M62.9496 57.9844C62.8843 57.9844 62.8208 57.9593 62.7714 57.9144L60.8991 56.1825C60.7914 56.082 60.7826 55.9115 60.8814 55.802C60.9802 55.6925 61.1479 55.6835 61.2555 55.7841L62.9266 57.3293L64.6737 55.2797C64.7689 55.1685 64.9366 55.1559 65.0478 55.2528C65.1589 55.3497 65.1695 55.5202 65.0742 55.6333L63.149 57.8911C63.1013 57.9467 63.0361 57.979 62.9655 57.9844C62.9602 57.9844 62.9549 57.9844 62.9496 57.9844Z" fill="white"/>
<path d="M70.4808 62.1875C70.4155 62.1875 70.352 62.1624 70.3026 62.1175L68.4303 60.3856C68.3227 60.2851 68.3139 60.1146 68.4127 60.0051C68.5115 59.8956 68.6791 59.8867 68.7868 59.9872L70.4579 61.5324L72.2049 59.4829C72.3002 59.3716 72.4678 59.359 72.579 59.4559C72.6902 59.5529 72.7008 59.7234 72.6055 59.8364L70.6802 62.0942C70.6326 62.1498 70.5673 62.1821 70.4967 62.1875C70.4914 62.1875 70.4861 62.1875 70.4808 62.1875Z" fill="white"/>
<path d="M166.263 42.1314C166.263 44.0589 164.726 45.6221 162.831 45.6221C160.935 45.6221 159.398 44.0589 159.398 42.1314C159.398 40.2038 160.935 38.6406 162.831 38.6406C164.728 38.6424 166.263 40.2038 166.263 42.1314Z" fill="#2C2C2C"/>
<path d="M166.919 42.0533C166.919 43.9808 165.382 45.544 163.487 45.544C161.592 45.544 160.055 43.9808 160.055 42.0533C160.055 40.1257 161.592 38.5625 163.487 38.5625C165.382 38.5625 166.919 40.1257 166.919 42.0533Z" fill="#EBB542"/>
<path d="M164.371 43.5664C164.228 43.6023 163.998 43.6435 163.691 43.6435C162.971 43.6435 162.5 43.1751 162.5 42.328V41.8919C162.5 41.0448 162.969 40.5781 163.691 40.5781C163.998 40.5781 164.228 40.6194 164.371 40.6571C164.446 40.6786 164.478 40.6984 164.478 40.7755V41.2386C164.478 41.2906 164.432 41.3265 164.381 41.3265H164.371C164.182 41.305 164.039 41.2906 163.748 41.2906C163.518 41.2906 163.329 41.4306 163.329 41.8937V42.3298C163.329 42.7928 163.518 42.9328 163.748 42.9328C164.039 42.9328 164.182 42.9167 164.371 42.8969H164.381C164.432 42.8969 164.478 42.9328 164.478 42.9849V43.4479C164.478 43.5251 164.448 43.5466 164.371 43.5664Z" fill="#171B21"/>
<path d="M159.044 46.3542C159.215 46.1819 159.409 46.0078 159.628 45.8373C159.744 45.7457 159.91 45.7691 159.999 45.8875C160.089 46.006 160.066 46.1747 159.949 46.2644C157.565 48.1291 158.366 50.1841 158.402 50.2721C158.458 50.4085 158.394 50.5664 158.259 50.6238C158.124 50.6813 157.969 50.6166 157.913 50.4802C157.902 50.4533 157.648 49.8306 157.738 48.944C157.81 48.262 158.102 47.3018 159.044 46.3542Z" fill="#2C2C2C"/>
<path d="M157.286 44.7604C157.457 44.5881 157.651 44.414 157.87 44.2435C157.987 44.152 158.152 44.1753 158.241 44.2938C158.331 44.4122 158.308 44.5809 158.191 44.6707C155.807 46.5354 156.608 48.5904 156.644 48.6783C156.7 48.8147 156.637 48.9726 156.501 49.0301C156.367 49.0875 156.211 49.0229 156.155 48.8865C156.144 48.8596 155.89 48.2368 155.98 47.3502C156.053 46.6682 156.344 45.708 157.286 44.7604Z" fill="#2C2C2C"/>
<path d="M157.78 44.3237C157.974 44.1765 158.189 44.033 158.429 43.8948C158.556 43.8212 158.718 43.866 158.789 43.9953C158.861 44.1245 158.815 44.2896 158.69 44.3632C158.286 44.5965 157.956 44.846 157.688 45.099L157.562 44.4888L157.78 44.3237Z" fill="#2C2C2C"/>
<path d="M56.9642 125.224C56.9642 123.914 56.2778 122.702 55.1643 122.044C54.049 121.385 52.6744 121.382 51.5556 122.031C50.4368 122.683 49.7433 123.889 49.7345 125.199C49.7256 126.509 50.4033 127.726 51.515 128.392C51.8185 128.566 52.0056 128.898 51.9985 129.253V129.702C51.9985 130 52.235 129.747 52.5279 129.747H54.1743C54.4655 129.747 54.7037 129.998 54.7037 129.702V129.253C54.6966 128.898 54.8819 128.568 55.1872 128.392C56.2884 127.731 56.966 126.525 56.9642 125.224Z" fill="#EBB542"/>
<path d="M57.2781 121.36C57.317 121.399 57.3381 121.453 57.3381 121.509C57.3381 121.566 57.3152 121.618 57.2764 121.659L56.6993 122.246C56.6182 122.329 56.4858 122.329 56.4046 122.246C56.3235 122.164 56.3235 122.029 56.4046 121.947L56.9817 121.36C57.0205 121.32 57.0734 121.297 57.1281 121.297C57.1864 121.299 57.2393 121.32 57.2781 121.36Z" fill="#2C2C2C"/>
<path d="M57.2781 121.36C57.317 121.399 57.3381 121.453 57.3381 121.509C57.3381 121.566 57.3152 121.618 57.2764 121.659L56.6993 122.246C56.6182 122.329 56.4858 122.329 56.4046 122.246C56.3235 122.164 56.3235 122.029 56.4046 121.947L56.9817 121.36C57.0205 121.32 57.0734 121.297 57.1281 121.297C57.1864 121.299 57.2393 121.32 57.2781 121.36Z" stroke="#2C2C2C" stroke-miterlimit="10"/>
<path d="M53.1406 120.728V119.227C53.1406 119.111 53.2342 119.016 53.3489 119.016C53.4636 119.016 53.5571 119.111 53.5571 119.227V120.728C53.5571 120.844 53.4636 120.94 53.3489 120.94C53.2342 120.94 53.1406 120.846 53.1406 120.728Z" fill="#2C2C2C"/>
<path d="M53.1406 120.728V119.227C53.1406 119.111 53.2342 119.016 53.3489 119.016C53.4636 119.016 53.5571 119.111 53.5571 119.227V120.728C53.5571 120.844 53.4636 120.94 53.3489 120.94C53.2342 120.94 53.1406 120.846 53.1406 120.728Z" stroke="#2C2C2C" stroke-miterlimit="10"/>
<path d="M49.4203 121.659C49.3391 121.576 49.3391 121.441 49.4203 121.359C49.5014 121.276 49.6338 121.276 49.7149 121.359L50.292 121.946C50.3732 122.028 50.3732 122.163 50.292 122.245C50.2108 122.328 50.0785 122.328 49.9973 122.245L49.4203 121.659Z" fill="#2C2C2C"/>
<path d="M49.4203 121.659C49.3391 121.576 49.3391 121.441 49.4203 121.359C49.5014 121.276 49.6338 121.276 49.7149 121.359L50.292 121.946C50.3732 122.028 50.3732 122.163 50.292 122.245C50.2108 122.328 50.0785 122.328 49.9973 122.245L49.4203 121.659Z" stroke="#2C2C2C" stroke-miterlimit="10"/>
<path d="M47.3489 125.125H48.8241C48.9388 125.125 49.0323 125.22 49.0323 125.337C49.0323 125.453 48.9388 125.549 48.8241 125.549H47.3489C47.2342 125.549 47.1406 125.453 47.1406 125.337C47.1406 125.22 47.2342 125.125 47.3489 125.125Z" fill="#2C2C2C"/>
<path d="M47.3489 125.125H48.8241C48.9388 125.125 49.0323 125.22 49.0323 125.337C49.0323 125.453 48.9388 125.549 48.8241 125.549H47.3489C47.2342 125.549 47.1406 125.453 47.1406 125.337C47.1406 125.22 47.2342 125.125 47.3489 125.125Z" stroke="#2C2C2C" stroke-miterlimit="10"/>
<path d="M57.8723 125.125H59.3475C59.4622 125.125 59.5558 125.22 59.5558 125.337C59.5558 125.453 59.4622 125.549 59.3475 125.549H57.8723C57.7576 125.549 57.6641 125.453 57.6641 125.337C57.6641 125.22 57.7576 125.125 57.8723 125.125Z" fill="#2C2C2C"/>
<path d="M57.8723 125.125H59.3475C59.4622 125.125 59.5558 125.22 59.5558 125.337C59.5558 125.453 59.4622 125.549 59.3475 125.549H57.8723C57.7576 125.549 57.6641 125.453 57.6641 125.337C57.6641 125.22 57.7576 125.125 57.8723 125.125Z" stroke="#2C2C2C" stroke-miterlimit="10"/>
<path d="M53.191 127.495V126.988C52.9051 126.983 52.6104 126.893 52.4375 126.768L52.5557 126.432C52.734 126.552 52.9898 126.647 53.2651 126.647C53.6145 126.647 53.851 126.443 53.851 126.157C53.851 125.883 53.6586 125.712 53.2951 125.562C52.7922 125.361 52.4834 125.131 52.4834 124.695C52.4834 124.278 52.7746 123.964 53.2263 123.889V123.383H53.5316V123.869C53.8263 123.88 54.0292 123.959 54.1722 124.045L54.0486 124.375C53.9445 124.316 53.7433 124.205 53.4275 124.205C53.0481 124.205 52.9051 124.435 52.9051 124.636C52.9051 124.896 53.0869 125.027 53.5157 125.206C54.0222 125.416 54.2798 125.676 54.2798 126.123C54.2798 126.518 54.008 126.89 53.5016 126.974V127.495H53.191Z" fill="#2C2C2C"/>
<path d="M53.191 127.495V126.988C52.9051 126.983 52.6104 126.893 52.4375 126.768L52.5557 126.432C52.734 126.552 52.9898 126.647 53.2651 126.647C53.6145 126.647 53.851 126.443 53.851 126.157C53.851 125.883 53.6586 125.712 53.2951 125.562C52.7922 125.361 52.4834 125.131 52.4834 124.695C52.4834 124.278 52.7746 123.964 53.2263 123.889V123.383H53.5316V123.869C53.8263 123.88 54.0292 123.959 54.1722 124.045L54.0486 124.375C53.9445 124.316 53.7433 124.205 53.4275 124.205C53.0481 124.205 52.9051 124.435 52.9051 124.636C52.9051 124.896 53.0869 125.027 53.5157 125.206C54.0222 125.416 54.2798 125.676 54.2798 126.123C54.2798 126.518 54.008 126.89 53.5016 126.974V127.495H53.191V127.495Z" stroke="#171B21" stroke-miterlimit="10"/>
<path d="M40.8216 111.704L46.0556 113.007C45.4926 112.056 44.8415 111.223 44.1215 110.496L51.5207 112.337C48.3514 106.984 42.438 105.381 36.8123 105.442L43.8198 103.759C42.9551 103.211 42.0675 102.798 41.1657 102.506L48.0814 100.844C43.2568 97.7876 37.7264 98.9613 33.1013 101.399C32.9548 101.409 32.8084 101.422 32.6619 101.438L37.8129 97.3748C36.9323 97.2581 36.0818 97.2581 35.263 97.3568L40.1581 93.4946C34.82 92.7892 30.5955 96.35 27.7703 100.401C27.7491 100.293 27.7297 100.185 27.7138 100.078C27.5497 98.9524 27.1438 96.7054 26.9074 95.5926C26.5809 94.0976 26.2633 92.6026 25.845 91.1094L25.3315 91.113C24.5974 94.0007 24.0169 97.1576 23.6075 100.112C23.5934 100.219 23.5757 100.327 23.5563 100.435C20.6658 96.4326 16.3865 92.9418 11.0591 93.7369L16.016 97.5184C15.1954 97.434 14.3448 97.4484 13.466 97.5794L18.6823 101.558C18.5376 101.544 18.3894 101.535 18.2429 101.526C13.579 99.1659 8.03091 98.0855 3.25577 101.221L10.1961 102.768C9.2997 103.077 8.41914 103.502 7.56328 104.064L14.5954 105.631C8.96971 105.663 3.08284 107.364 0 112.77L7.36917 110.807C6.66155 111.544 6.02451 112.39 5.47571 113.35L10.6885 111.961C6.40038 114.493 2.85344 118.296 2.27287 123.734L8.48796 118.687C8.11915 119.696 7.86327 120.776 7.73975 121.929L11.8743 118.571C8.84971 122.858 7.07271 128.027 8.78266 133.483L12.6667 125.902C12.7355 127.038 12.9419 128.192 13.3072 129.361L15.7654 124.561C14.7913 129.186 15.1601 134.032 18.3118 138.051L19.2541 129.797C19.7041 130.804 20.2846 131.78 21.0152 132.711L23.5334 123.729L28.3367 123.689L30.8284 132.631C31.5431 131.687 32.1096 130.701 32.5419 129.687L33.6166 137.925C36.7029 133.856 36.9941 129.005 35.9459 124.396L38.4817 129.154C38.8293 127.98 39.0164 126.823 39.0658 125.685L43.0716 133.199C44.6933 127.717 42.8333 122.578 39.7399 118.341L43.9274 121.629C43.7862 120.478 43.5127 119.403 43.128 118.4L49.4225 123.343C48.7573 117.908 45.1503 114.165 40.8216 111.704Z" fill="#00763C"/>
<path d="M30.7825 149.261C29.6443 138.283 28.4655 126.929 28.3543 125.366C28.3173 124.844 28.2749 124.252 28.2943 123.672L24.8127 123.701C24.8197 123.765 24.8233 123.83 24.8197 123.891C24.7562 125.319 24.6891 126.748 24.6185 128.177L24.6027 128.496C24.525 130.097 23.4486 143.443 22.4974 155.218C21.8004 163.849 21.1987 171.302 21.1722 171.886C21.1687 171.959 21.1951 172.029 21.2445 172.083C21.2939 172.137 21.3628 172.166 21.4351 172.166L32.8189 172.207H32.8224C32.8948 172.207 32.9636 172.176 33.013 172.123C33.0642 172.069 33.0889 171.995 33.0836 171.92C33.0024 170.662 31.9242 160.267 30.7825 149.261Z" fill="#2C2C2C"/>
<path d="M26.6215 125.406C26.5809 124.837 26.5421 124.264 26.5597 123.695L23.6075 123.72C23.6145 123.789 23.618 123.859 23.6145 123.925C23.5475 125.46 23.4733 126.996 23.3992 128.532C23.2651 131.332 20.0287 170.563 19.9688 171.92L31.3525 171.961C31.1849 169.416 26.8421 128.502 26.6215 125.406Z" fill="#DC6837"/>
<path d="M267.923 91.2729L266.605 100.16H249.883L251.201 91.2729C251.406 89.8891 252.676 88.7656 254.037 88.7656H265.83C267.19 88.7656 268.129 89.8891 267.923 91.2729Z" fill="#2C2C2C"/>
<path d="M266.604 100.447H249.883C249.805 100.447 249.733 100.413 249.681 100.354C249.632 100.294 249.609 100.216 249.62 100.138L250.936 91.2508C251.16 89.7432 252.549 88.5156 254.035 88.5156H265.828C266.559 88.5156 267.208 88.8064 267.654 89.334C268.108 89.8689 268.295 90.5778 268.184 91.3316L266.867 100.219C266.846 100.35 266.735 100.447 266.604 100.447ZM250.19 99.9086H266.377L267.66 91.2508C267.748 90.6549 267.603 90.0986 267.252 89.684C266.908 89.2766 266.402 89.054 265.828 89.054H254.035C252.801 89.054 251.646 90.0752 251.46 91.3316L250.19 99.9086Z" fill="#2C2C2C"/>
<path d="M266.193 89.334C265.747 88.8064 265.099 88.5156 264.367 88.5156H255.856C254.37 88.5156 252.98 89.7432 252.757 91.2508L251.441 100.138C251.428 100.216 251.451 100.294 251.503 100.354C251.554 100.413 251.626 100.447 251.704 100.447H265.147C265.277 100.447 265.389 100.35 265.408 100.217L266.726 91.3298C266.834 90.5778 266.647 89.8689 266.193 89.334Z" fill="#171B21"/>
<path d="M257.723 87.8684C257.723 87.8684 257.815 87.8953 257.97 87.9402L254.079 90.0921L253.5 88.3996C253.765 88.3045 253.927 88.2489 253.927 88.2489L254.319 86.8669L258.088 83.2344L257.723 87.8684Z" fill="#2C2C2C"/>
<path d="M254.071 90.357C254.039 90.357 254.005 90.3516 253.975 90.3391C253.903 90.3103 253.846 90.2511 253.82 90.1757L253.241 88.4833C253.194 88.3433 253.266 88.1908 253.404 88.1405C253.527 88.0956 253.628 88.0597 253.702 88.0346L254.055 86.7873C254.067 86.7406 254.094 86.6993 254.127 86.667L257.896 83.0345C257.976 82.9573 258.094 82.9394 258.193 82.9878C258.292 83.0363 258.352 83.1404 258.343 83.2516L257.995 87.6649C258.008 87.6685 258.022 87.6721 258.036 87.6775C258.138 87.708 258.214 87.7995 258.225 87.9072C258.237 88.0149 258.182 88.1208 258.089 88.1728L254.196 90.3247C254.157 90.3462 254.113 90.357 254.071 90.357ZM253.827 88.5605L254.217 89.6983L257.453 87.909C257.45 87.8874 257.448 87.8641 257.45 87.8408L257.759 83.9067L254.542 87.0062L254.169 88.3182C254.145 88.4025 254.081 88.4707 254 88.4995C254.002 88.5012 253.938 88.5228 253.827 88.5605Z" fill="#2C2C2C"/>
<path d="M261.419 100.383L246.234 100.45V97.0291C246.234 97.0291 248.753 90.6901 249.522 90.105C250.129 89.6438 252.515 88.7661 253.498 88.4126L254.076 90.105L257.969 87.9531C258.857 88.2241 261.867 89.2148 262.64 90.4747C264.056 92.7792 261.419 100.383 261.419 100.383Z" fill="#2C2C2C"/>
<path d="M246.233 100.705C246.163 100.705 246.096 100.677 246.046 100.626C245.997 100.576 245.969 100.508 245.969 100.436V97.0154C245.969 96.9813 245.976 96.9472 245.988 96.9148C246.413 95.8452 248.573 90.4753 249.362 89.8759C249.967 89.4164 252.157 88.5945 253.409 88.1458C253.476 88.1224 253.548 88.126 253.611 88.1565C253.675 88.1871 253.723 88.2427 253.747 88.3109L254.224 89.7036L257.841 87.7043C257.903 87.6702 257.977 87.663 258.044 87.6827C259.228 88.0435 262.068 89.0234 262.865 90.3192C264.332 92.7044 261.778 100.144 261.669 100.459C261.632 100.567 261.531 100.639 261.42 100.639L246.233 100.705ZM261.418 100.37H261.42H261.418ZM246.498 97.0674V100.165L261.229 100.101C261.402 99.5782 261.914 97.9827 262.302 96.2149C262.916 93.4241 262.955 91.484 262.415 90.6028C261.854 89.6892 259.786 88.7829 257.997 88.2283L254.203 90.3264C254.134 90.3641 254.053 90.3695 253.98 90.3407C253.908 90.312 253.851 90.2528 253.825 90.1774L253.333 88.7416C251.388 89.447 250.063 90.0123 249.678 90.3048C249.165 90.6979 247.463 94.6391 246.498 97.0674Z" fill="#2C2C2C"/>
<path d="M257.59 78.6298L257.504 78.2368C257.382 77.6775 256.975 77.4427 256.484 77.3464C256.238 77.2982 255.994 77.2924 255.809 77.3C255.717 77.3038 255.642 77.3107 255.592 77.3164C255.567 77.3192 255.548 77.3217 255.536 77.3234L255.524 77.3252L255.524 77.3252L255.523 77.3254L255.523 77.3254L255.523 77.3254L255.304 77.3625L255.129 77.2228C254.859 77.0069 254.641 76.9183 254.474 76.892C254.313 76.8668 254.167 76.8939 254.022 76.9679C253.704 77.1295 253.389 77.5161 253.105 78.0595C252.831 78.5859 252.625 79.1821 252.488 79.6561C252.44 79.8199 252.401 79.967 252.37 80.089L258.372 83.2239C258.507 83.0134 258.686 82.7228 258.875 82.3817C259.276 81.6559 259.703 80.737 259.87 79.8871L257.59 78.6298ZM257.59 78.6298L257.992 78.6298M257.59 78.6298L257.992 78.6298M257.992 78.6298L257.992 78.6298L257.992 78.6298M257.992 78.6298H257.992M257.992 78.6298H257.993M257.992 78.6298H257.993M257.993 78.6298L257.995 78.6298L258.012 78.6301C258.028 78.6304 258.052 78.6312 258.085 78.6328C258.15 78.636 258.244 78.6424 258.356 78.6554C258.585 78.6819 258.873 78.7336 259.142 78.8314C259.416 78.9311 259.627 79.0628 259.751 79.2209C259.859 79.3586 259.935 79.5556 259.87 79.887L257.993 78.6298Z" fill="#171B21" stroke="#2C2C2C"/>
<path d="M255.324 86.2417C254.196 87.0403 252.721 87.769 251.703 87.1103C249.837 85.9043 252.041 80.3855 252.041 80.3855C252.481 78.9335 253.631 78.8564 254.759 79.1166C254.877 79.1435 254.994 79.183 255.108 79.2279C255.576 79.4091 256.845 79.9063 256.965 79.9799C257.988 80.608 256.965 82.1802 256.965 82.1802L257.637 82.4548C257.637 82.4548 259.333 81.5933 258.825 83.4904C258.316 85.3874 256.959 84.8705 256.959 84.8705C256.959 84.8705 255.687 85.9832 255.324 86.2417Z" fill="#D8D8D8"/>
<path d="M252.623 87.6176C252.226 87.6176 251.873 87.5189 251.568 87.3233C250.693 86.7562 250.474 85.3778 250.92 83.2259C251.227 81.7435 251.743 80.4243 251.799 80.2808C252.205 78.9545 253.223 78.4681 254.824 78.8396C254.946 78.8683 255.071 78.9078 255.208 78.9616C256.955 79.6418 257.07 79.7118 257.107 79.7352C257.4 79.9146 257.584 80.1713 257.656 80.4979C257.778 81.0525 257.529 81.6771 257.351 82.0324L257.635 82.1491C257.894 82.0378 258.517 81.826 258.907 82.1509C259.211 82.4039 259.267 82.8598 259.084 83.5472C258.888 84.2776 258.547 84.7748 258.072 85.0207C257.474 85.3312 256.895 85.1158 256.871 85.1068C256.733 85.0548 256.664 84.9004 256.715 84.7604C256.767 84.6204 256.92 84.5504 257.056 84.6025C257.058 84.6025 257.45 84.7425 257.838 84.5379C258.171 84.3602 258.42 83.9797 258.574 83.4054C258.745 82.7701 258.616 82.6032 258.574 82.5673C258.431 82.447 258.009 82.5565 257.762 82.6821C257.693 82.7162 257.615 82.7198 257.545 82.6911L256.873 82.4165C256.798 82.386 256.742 82.3232 256.719 82.2478C256.694 82.1706 256.707 82.0863 256.751 82.0199C256.895 81.7955 257.25 81.1063 257.141 80.6164C257.1 80.4369 257 80.2987 256.834 80.1964C256.744 80.1462 256.029 79.859 255.02 79.466C254.905 79.4211 254.803 79.3888 254.706 79.3655C253.363 79.055 252.621 79.3888 252.3 80.4513C252.299 80.4584 252.295 80.4656 252.293 80.4728C251.704 81.9499 250.476 85.979 251.85 86.8692C252.759 87.4579 254.162 86.7257 255.178 86.006C255.298 85.9216 255.463 85.9503 255.547 86.0742C255.63 86.1962 255.602 86.3631 255.48 86.4493C254.384 87.2246 253.417 87.6176 252.623 87.6176Z" fill="#2C2C2C"/>
<path d="M255.45 86.1016C255.45 87.584 253.992 88.1404 253.992 88.1404L254.174 87.0294L255.45 86.1016Z" fill="#2C2C2C"/>
<path d="M254.019 87.9057L254.075 90.0899L257.901 87.125L259.359 88.2359L255.349 92.4984L254.019 90.8939L250.977 91.9421L252.889 88.2862L254.019 87.9057Z" fill="#2C2C2C"/>
<path d="M255.35 92.7692C255.346 92.7692 255.344 92.7692 255.341 92.7692C255.265 92.7674 255.194 92.7315 255.147 92.6741L253.931 91.2096L251.06 92.2003C250.957 92.2362 250.843 92.2039 250.774 92.1195C250.703 92.0352 250.691 91.9167 250.742 91.8198L252.655 88.1621C252.687 88.1011 252.742 88.0545 252.805 88.0329L253.934 87.6524C254.014 87.6255 254.1 87.6381 254.169 87.6883C254.238 87.7368 254.279 87.8157 254.282 87.9019L254.324 89.5602L257.739 86.9148C257.833 86.8412 257.963 86.8412 258.058 86.913L259.516 88.0257C259.576 88.0724 259.615 88.1424 259.62 88.2196C259.627 88.2967 259.601 88.3721 259.548 88.4278L255.539 92.6902C255.491 92.7387 255.42 92.7692 255.35 92.7692ZM254.017 90.6263C254.093 90.6263 254.169 90.6604 254.22 90.7214L255.362 92.098L258.96 88.2716L257.901 87.464L254.234 90.305C254.155 90.3661 254.049 90.3768 253.959 90.3338C253.869 90.2907 253.811 90.1992 253.809 90.0986L253.762 88.277L253.072 88.5103L251.522 91.4734L253.931 90.6425C253.959 90.6299 253.989 90.6263 254.017 90.6263Z" fill="#2C2C2C"/>
<path d="M252.449 92.7236C250.764 95.0765 250.367 98.7162 250.367 98.7162L252.347 98.3196C253.837 96.4692 253.538 94.6152 253.614 93.2441C253.685 92.0075 254.196 90.9899 254.196 90.9899C252.52 90.8355 252.924 92.0596 252.449 92.7236Z" fill="#EBB542"/>
<path d="M249.155 99.9556C249.009 99.9556 248.891 99.8354 248.891 99.6864V99.1193C248.891 98.99 248.981 98.8788 249.106 98.8554L256.412 97.4501L257.278 94.2753C257.317 94.1317 257.463 94.0473 257.604 94.0886C257.746 94.1281 257.829 94.2771 257.788 94.4206L256.877 97.7571C256.851 97.8558 256.77 97.9311 256.671 97.9491L249.42 99.3436V99.6882C249.42 99.8354 249.302 99.9556 249.155 99.9556Z" fill="#2C2C2C"/>
<path d="M255.351 92.768C255.275 92.768 255.201 92.7357 255.148 92.6729L253.932 91.2084L251.061 92.1991C250.923 92.2476 250.771 92.1704 250.725 92.0304C250.678 91.8904 250.752 91.7361 250.891 91.6894L253.932 90.6395C254.034 90.6036 254.149 90.6359 254.219 90.7202L255.552 92.3247C255.645 92.4378 255.631 92.6083 255.52 92.7034C255.471 92.7465 255.411 92.768 255.351 92.768Z" fill="#2C2C2C"/>
<path d="M274.105 100.953H207.023V128.84H274.105V100.953Z" fill="#EBB542"/>
<path d="M209.671 129.155C209.524 129.155 209.406 129.035 209.406 128.886V100.972C209.406 100.823 209.524 100.703 209.671 100.703C209.817 100.703 209.936 100.823 209.936 100.972V128.886C209.936 129.035 209.817 129.155 209.671 129.155Z" fill="#2C2C2C"/>
<path d="M212.249 129.155C212.103 129.155 211.984 129.035 211.984 128.886V100.972C211.984 100.823 212.103 100.703 212.249 100.703C212.396 100.703 212.514 100.823 212.514 100.972V128.886C212.514 129.035 212.396 129.155 212.249 129.155Z" fill="#2C2C2C"/>
<path d="M214.819 129.155C214.673 129.155 214.555 129.035 214.555 128.886V100.972C214.555 100.823 214.673 100.703 214.819 100.703C214.966 100.703 215.084 100.823 215.084 100.972V128.886C215.084 129.035 214.966 129.155 214.819 129.155Z" fill="#2C2C2C"/>
<path d="M217.405 129.155C217.259 129.155 217.141 129.035 217.141 128.886V100.972C217.141 100.823 217.259 100.703 217.405 100.703C217.552 100.703 217.67 100.823 217.67 100.972V128.886C217.67 129.035 217.552 129.155 217.405 129.155Z" fill="#2C2C2C"/>
<path d="M219.983 129.155C219.837 129.155 219.719 129.035 219.719 128.886V100.972C219.719 100.823 219.837 100.703 219.983 100.703C220.13 100.703 220.248 100.823 220.248 100.972V128.886C220.248 129.035 220.13 129.155 219.983 129.155Z" fill="#2C2C2C"/>
<path d="M222.554 129.155C222.407 129.155 222.289 129.035 222.289 128.886V100.972C222.289 100.823 222.407 100.703 222.554 100.703C222.7 100.703 222.818 100.823 222.818 100.972V128.886C222.818 129.035 222.7 129.155 222.554 129.155Z" fill="#2C2C2C"/>
<path d="M225.14 129.155C224.993 129.155 224.875 129.035 224.875 128.886V100.972C224.875 100.823 224.993 100.703 225.14 100.703C225.286 100.703 225.404 100.823 225.404 100.972V128.886C225.404 129.035 225.284 129.155 225.14 129.155Z" fill="#2C2C2C"/>
<path d="M225.14 129.155C224.993 129.155 224.875 129.035 224.875 128.886V100.972C224.875 100.823 224.993 100.703 225.14 100.703C225.286 100.703 225.404 100.823 225.404 100.972V128.886C225.404 129.035 225.284 129.155 225.14 129.155Z" fill="#2C2C2C"/>
<path d="M227.71 129.155C227.564 129.155 227.445 129.035 227.445 128.886V100.972C227.445 100.823 227.564 100.703 227.71 100.703C227.856 100.703 227.975 100.823 227.975 100.972V128.886C227.975 129.035 227.856 129.155 227.71 129.155Z" fill="#2C2C2C"/>
<path d="M248.335 129.155C248.189 129.155 248.07 129.035 248.07 128.886V100.972C248.07 100.823 248.189 100.703 248.335 100.703C248.481 100.703 248.6 100.823 248.6 100.972V128.886C248.6 129.035 248.48 129.155 248.335 129.155Z" fill="#2C2C2C"/>
<path d="M230.288 129.155C230.142 129.155 230.023 129.035 230.023 128.886V100.972C230.023 100.823 230.142 100.703 230.288 100.703C230.435 100.703 230.553 100.823 230.553 100.972V128.886C230.553 129.035 230.433 129.155 230.288 129.155Z" fill="#2C2C2C"/>
<path d="M232.874 129.155C232.728 129.155 232.609 129.035 232.609 128.886V100.972C232.609 100.823 232.728 100.703 232.874 100.703C233.021 100.703 233.139 100.823 233.139 100.972V128.886C233.139 129.035 233.021 129.155 232.874 129.155Z" fill="#2C2C2C"/>
<path d="M235.444 129.155C235.298 129.155 235.18 129.035 235.18 128.886V100.972C235.18 100.823 235.298 100.703 235.444 100.703C235.591 100.703 235.709 100.823 235.709 100.972V128.886C235.709 129.035 235.591 129.155 235.444 129.155Z" fill="#2C2C2C"/>
<path d="M238.023 129.155C237.876 129.155 237.758 129.035 237.758 128.886V100.972C237.758 100.823 237.876 100.703 238.023 100.703C238.169 100.703 238.287 100.823 238.287 100.972V128.886C238.287 129.035 238.169 129.155 238.023 129.155Z" fill="#2C2C2C"/>
<path d="M240.608 129.155C240.462 129.155 240.344 129.035 240.344 128.886V100.972C240.344 100.823 240.462 100.703 240.608 100.703C240.755 100.703 240.873 100.823 240.873 100.972V128.886C240.873 129.035 240.755 129.155 240.608 129.155Z" fill="#2C2C2C"/>
<path d="M243.187 129.155C243.04 129.155 242.922 129.035 242.922 128.886V100.972C242.922 100.823 243.04 100.703 243.187 100.703C243.333 100.703 243.451 100.823 243.451 100.972V128.886C243.451 129.035 243.333 129.155 243.187 129.155Z" fill="#2C2C2C"/>
<path d="M245.757 129.155C245.61 129.155 245.492 129.035 245.492 128.886V100.972C245.492 100.823 245.61 100.703 245.757 100.703C245.903 100.703 246.022 100.823 246.022 100.972V128.886C246.022 129.035 245.903 129.155 245.757 129.155Z" fill="#2C2C2C"/>
<path d="M245.757 129.155C245.61 129.155 245.492 129.035 245.492 128.886V100.972C245.492 100.823 245.61 100.703 245.757 100.703C245.903 100.703 246.022 100.823 246.022 100.972V128.886C246.022 129.035 245.903 129.155 245.757 129.155Z" fill="#2C2C2C"/>
<path d="M248.335 129.155C248.189 129.155 248.07 129.035 248.07 128.886V100.972C248.07 100.823 248.189 100.703 248.335 100.703C248.481 100.703 248.6 100.823 248.6 100.972V128.886C248.6 129.035 248.48 129.155 248.335 129.155Z" fill="#2C2C2C"/>
<path d="M266.374 129.155C266.228 129.155 266.109 129.035 266.109 128.886V100.972C266.109 100.823 266.228 100.703 266.374 100.703C266.521 100.703 266.639 100.823 266.639 100.972V128.886C266.639 129.035 266.519 129.155 266.374 129.155Z" fill="#2C2C2C"/>
<path d="M248.335 129.155C248.189 129.155 248.07 129.035 248.07 128.886V100.972C248.07 100.823 248.189 100.703 248.335 100.703C248.481 100.703 248.6 100.823 248.6 100.972V128.886C248.6 129.035 248.48 129.155 248.335 129.155Z" fill="#2C2C2C"/>
<path d="M250.921 129.155C250.774 129.155 250.656 129.035 250.656 128.886V100.972C250.656 100.823 250.774 100.703 250.921 100.703C251.067 100.703 251.186 100.823 251.186 100.972V128.886C251.186 129.035 251.067 129.155 250.921 129.155Z" fill="#2C2C2C"/>
<path d="M253.491 129.155C253.345 129.155 253.227 129.035 253.227 128.886V100.972C253.227 100.823 253.345 100.703 253.491 100.703C253.638 100.703 253.756 100.823 253.756 100.972V128.886C253.756 129.035 253.638 129.155 253.491 129.155Z" fill="#2C2C2C"/>
<path d="M256.062 129.155C255.915 129.155 255.797 129.035 255.797 128.886V100.972C255.797 100.823 255.915 100.703 256.062 100.703C256.208 100.703 256.326 100.823 256.326 100.972V128.886C256.326 129.035 256.208 129.155 256.062 129.155Z" fill="#2C2C2C"/>
<path d="M258.632 129.155C258.485 129.155 258.367 129.035 258.367 128.886V100.972C258.367 100.823 258.485 100.703 258.632 100.703C258.778 100.703 258.897 100.823 258.897 100.972V128.886C258.897 129.035 258.778 129.155 258.632 129.155Z" fill="#2C2C2C"/>
<path d="M261.218 129.155C261.071 129.155 260.953 129.035 260.953 128.886V100.972C260.953 100.823 261.071 100.703 261.218 100.703C261.364 100.703 261.483 100.823 261.483 100.972V128.886C261.483 129.035 261.364 129.155 261.218 129.155Z" fill="#2C2C2C"/>
<path d="M263.788 129.155C263.642 129.155 263.523 129.035 263.523 128.886V100.972C263.523 100.823 263.642 100.703 263.788 100.703C263.935 100.703 264.053 100.823 264.053 100.972V128.886C264.053 129.035 263.935 129.155 263.788 129.155Z" fill="#2C2C2C"/>
<path d="M263.788 129.155C263.642 129.155 263.523 129.035 263.523 128.886V100.972C263.523 100.823 263.642 100.703 263.788 100.703C263.935 100.703 264.053 100.823 264.053 100.972V128.886C264.053 129.035 263.935 129.155 263.788 129.155Z" fill="#2C2C2C"/>
<path d="M266.374 129.155C266.228 129.155 266.109 129.035 266.109 128.886V100.972C266.109 100.823 266.228 100.703 266.374 100.703C266.521 100.703 266.639 100.823 266.639 100.972V128.886C266.639 129.035 266.519 129.155 266.374 129.155Z" fill="#2C2C2C"/>
<path d="M268.944 129.155C268.798 129.155 268.68 129.035 268.68 128.886V100.972C268.68 100.823 268.798 100.703 268.944 100.703C269.091 100.703 269.209 100.823 269.209 100.972V128.886C269.209 129.035 269.091 129.155 268.944 129.155Z" fill="#2C2C2C"/>
<path d="M271.523 129.155C271.376 129.155 271.258 129.035 271.258 128.886V100.972C271.258 100.823 271.376 100.703 271.523 100.703C271.669 100.703 271.787 100.823 271.787 100.972V128.886C271.787 129.035 271.667 129.155 271.523 129.155Z" fill="#2C2C2C"/>
<path d="M275.924 101.084H205.328C204.841 101.084 204.445 100.682 204.445 100.186C204.445 99.6911 204.841 99.2891 205.328 99.2891H275.924C276.411 99.2891 276.807 99.6911 276.807 100.186C276.807 100.682 276.411 101.084 275.924 101.084Z" fill="#2C2C2C"/>
<path d="M225.401 63.4219H213.71H202.019H190.328V80.0842V96.7447H202.019H213.71H225.401H237.091V80.0842V63.4219H225.401Z" fill="#2C2C2C"/>
<path d="M237.096 97.0097H190.335C190.189 97.0097 190.07 96.8894 190.07 96.7405V63.4176C190.07 63.2687 190.189 63.1484 190.335 63.1484H237.096C237.243 63.1484 237.361 63.2687 237.361 63.4176V96.7423C237.361 96.8894 237.243 97.0097 237.096 97.0097ZM190.598 96.4713H236.83V63.6869H190.598V96.4713Z" fill="#2C2C2C"/>
<path d="M208.846 95.2084H202.758V83.3183C202.758 82.6327 203.305 82.0781 203.979 82.0781H207.626C208.301 82.0781 208.848 82.6345 208.848 83.3183V95.2084H208.846Z" fill="#00763C"/>
<path d="M216.76 95.1964H210.672V77.2185C210.672 76.5329 211.219 75.9766 211.891 75.9766H215.539C216.213 75.9766 216.76 76.5329 216.76 77.2185V95.1964Z" fill="#00763C"/>
<path d="M224.666 95.2058H218.578V80.8982C218.578 80.2126 219.125 79.6562 219.797 79.6562H223.445C224.119 79.6562 224.666 80.2126 224.666 80.8982V95.2058Z" fill="#00763C"/>
<path d="M203.442 76.6318C203.274 76.6318 203.114 76.5349 203.04 76.368C202.939 76.1418 203.036 75.8762 203.258 75.7739L214.967 70.3664C215.115 70.2982 215.29 70.3179 215.419 70.4202L218.637 72.9472L224.521 69.7939C224.736 69.679 225.003 69.7616 225.117 69.9823C225.23 70.2013 225.149 70.4723 224.932 70.5889L218.798 73.8769C218.644 73.9595 218.459 73.9415 218.323 73.8356L215.089 71.2961L203.622 76.5923C203.564 76.6192 203.502 76.6318 203.442 76.6318Z" fill="#EBB542"/>
<path d="M237.589 63.3887L237.22 63.1823C237.139 63.1357 237.038 63.1375 236.959 63.1859C236.878 63.2344 236.828 63.3223 236.828 63.4174V96.7403C236.828 96.8892 236.946 97.0095 237.093 97.0095H238.6C238.746 97.0095 238.865 96.8892 238.865 96.7403V65.5819C238.865 64.6684 238.376 63.8284 237.589 63.3887Z" fill="#2C2C2C"/>
<path d="M225.713 69.1094C226.043 69.1076 226.253 69.4701 226.089 69.7627L225.694 70.4698L225.298 71.1769C225.134 71.4695 224.721 71.4713 224.556 71.1823L224.151 70.4806L223.747 69.7788C223.58 69.4881 223.784 69.1237 224.114 69.1219L224.914 69.1166L225.713 69.1094Z" fill="#EBB542"/>
<path d="M200.755 76.6783C200.755 78.6058 199.218 80.169 197.323 80.169C195.428 80.169 193.891 78.6058 193.891 76.6783C193.891 74.7507 195.428 73.1875 197.323 73.1875C199.218 73.1875 200.755 74.7507 200.755 76.6783Z" fill="#2C2C2C"/>
<path d="M201.404 76.5845C201.404 78.5121 199.867 80.0753 197.971 80.0753C196.076 80.0753 194.539 78.5121 194.539 76.5845C194.539 74.657 196.076 73.0938 197.971 73.0938C199.867 73.0938 201.404 74.657 201.404 76.5845Z" fill="#EBB542"/>
<path d="M198.855 78.1132C198.712 78.1491 198.483 78.1904 198.176 78.1904C197.456 78.1904 196.984 77.722 196.984 76.8749V76.4387C196.984 75.5916 197.454 75.125 198.176 75.125C198.483 75.125 198.712 75.1663 198.855 75.204C198.931 75.2255 198.963 75.2452 198.963 75.3224V75.7855C198.963 75.8375 198.917 75.8734 198.865 75.8734H198.855C198.666 75.8519 198.523 75.8375 198.232 75.8375C198.003 75.8375 197.814 75.9775 197.814 76.4405V76.8767C197.814 77.3397 198.003 77.4797 198.232 77.4797C198.523 77.4797 198.666 77.4635 198.855 77.4438H198.865C198.917 77.4438 198.963 77.4797 198.963 77.5317V77.9948C198.963 78.072 198.931 78.0917 198.855 78.1132Z" fill="#171B21"/>
<path d="M229.982 125.25C229.982 125.25 226.497 126.388 227.092 127.614C227.688 128.839 233.932 128.157 233.932 128.157L234.076 125.25H229.982Z" fill="#2C2C2C"/>
<path d="M230.537 128.634C228.873 128.634 227.19 128.449 226.846 127.744C226.724 127.494 226.719 127.223 226.828 126.959C227.275 125.886 229.625 125.091 229.892 125.005C229.918 124.996 229.944 124.992 229.973 124.992H234.068C234.141 124.992 234.21 125.023 234.261 125.077C234.31 125.13 234.337 125.202 234.333 125.276L234.188 128.183C234.181 128.316 234.083 128.424 233.952 128.438C233.447 128.492 232 128.634 230.537 128.634ZM230.015 125.531C229.327 125.76 227.61 126.466 227.315 127.171C227.266 127.291 227.266 127.397 227.319 127.507C227.529 127.937 229.634 128.343 233.668 127.927L233.788 125.531H230.015Z" fill="#2C2C2C"/>
<path d="M234.748 125.25C234.748 125.25 231.263 126.388 231.857 127.614C232.454 128.839 238.697 128.157 238.697 128.157L238.842 125.25H234.748Z" fill="#2C2C2C"/>
<path d="M235.303 128.634C233.639 128.634 231.955 128.449 231.611 127.744C231.49 127.494 231.484 127.223 231.594 126.959C232.04 125.886 234.391 125.091 234.657 125.005C234.684 124.996 234.71 124.992 234.738 124.992H238.834C238.906 124.992 238.975 125.023 239.026 125.077C239.076 125.13 239.102 125.202 239.099 125.276L238.954 128.183C238.947 128.316 238.848 128.424 238.718 128.438C238.213 128.492 236.766 128.634 235.303 128.634ZM234.781 125.531C234.092 125.76 232.375 126.466 232.081 127.171C232.031 127.291 232.031 127.397 232.084 127.507C232.294 127.937 234.399 128.343 238.433 127.927L238.553 125.531H234.781Z" fill="#2C2C2C"/>
<path d="M244.469 89.3281C244.469 89.3281 247.903 89.6817 247.854 92.4869L229.099 105.881C228.57 106.958 230.334 95.1126 230.334 95.1126L244.469 89.3281Z" fill="#2C2C2C"/>
<path d="M229.045 106.208C229.008 106.208 228.977 106.201 228.961 106.196C228.677 106.104 228.558 106.066 229.312 100.447C229.67 97.7782 230.071 95.0879 230.074 95.061C230.088 94.9659 230.15 94.8869 230.237 94.851L244.371 89.0666C244.41 89.0504 244.454 89.0433 244.497 89.0486C244.534 89.0522 248.172 89.4632 248.12 92.4802C248.118 92.5663 248.075 92.6453 248.007 92.6955L229.298 106.056C229.217 106.181 229.118 106.208 229.045 106.208ZM230.575 95.2943C230.071 98.6953 229.356 103.875 229.271 105.42L247.59 92.3384C247.528 90.1237 244.941 89.6571 244.506 89.5942L230.575 95.2943Z" fill="#2C2C2C"/>
<path d="M231.31 103.516C231.31 103.516 228.651 103.982 227.186 106.836C225.125 110.854 226.451 125.085 226.451 125.085C228.565 125.392 230.996 125.611 233.686 125.623C236.731 125.638 239.456 125.384 241.784 125.031C242.525 120.435 240.533 116.043 241.274 111.445L231.31 103.516Z" fill="#171B21"/>
<path d="M233.925 125.887C233.842 125.887 233.761 125.887 233.68 125.887C231.255 125.874 228.809 125.693 226.41 125.345C226.288 125.327 226.194 125.228 226.184 125.104C226.129 124.519 224.874 110.75 226.948 106.706C228.455 103.768 231.148 103.266 231.261 103.246C231.404 103.221 231.541 103.32 231.566 103.465C231.591 103.612 231.494 103.75 231.351 103.776C231.326 103.779 228.799 104.26 227.417 106.954C225.55 110.594 226.538 123.06 226.692 124.84C229.002 125.165 231.352 125.336 233.683 125.346C236.306 125.357 238.951 125.171 241.548 124.785C241.864 122.592 241.559 120.395 241.263 118.266C240.952 116.037 240.631 113.731 241.009 111.392C241.033 111.245 241.167 111.147 241.312 111.17C241.457 111.193 241.554 111.331 241.531 111.479C241.166 113.736 241.481 116.001 241.787 118.191C242.097 120.42 242.418 122.726 242.041 125.065C242.023 125.18 241.933 125.271 241.818 125.287C239.212 125.686 236.558 125.887 233.925 125.887Z" fill="#2C2C2C"/>
<path d="M235.277 86.9598C235.077 86.9598 234.779 86.9114 234.486 86.6799C233.907 86.2222 233.618 85.271 233.625 83.8549C233.637 81.6546 235.317 78.5946 235.39 78.4654C235.462 78.3361 235.623 78.2895 235.75 78.3631C235.877 78.4366 235.923 78.6 235.85 78.7292C235.834 78.7597 234.165 81.7982 234.155 83.8567C234.146 85.3894 234.5 86.0032 234.8 86.2455C235.084 86.4771 235.369 86.4142 235.381 86.4107C235.522 86.3784 235.665 86.4663 235.699 86.6081C235.734 86.7517 235.649 86.8952 235.51 86.9329C235.503 86.9365 235.414 86.9598 235.277 86.9598Z" fill="#2C2C2C"/>
<path d="M239.132 125.632C238.985 125.632 238.867 125.512 238.867 125.363V111.379C238.867 111.23 238.985 111.109 239.132 111.109C239.278 111.109 239.397 111.23 239.397 111.379V125.363C239.397 125.512 239.278 125.632 239.132 125.632Z" fill="#2C2C2C"/>
<path d="M246.461 125.702H231.819C231.673 125.702 231.555 125.582 231.555 125.433C231.555 125.284 231.673 125.164 231.819 125.164H246.461C246.607 125.164 246.725 125.284 246.725 125.433C246.725 125.582 246.607 125.702 246.461 125.702Z" fill="#2C2C2C"/>
<path d="M232.219 126C231.513 126 230.938 126.585 230.938 127.303C230.938 128.021 231.513 128.606 232.219 128.606C232.924 128.606 233.5 128.021 233.5 127.303C233.5 126.585 232.924 126 232.219 126Z" fill="#2C2C2C"/>
<path d="M238.391 126C237.685 126 237.109 126.585 237.109 127.303C237.109 128.021 237.685 128.606 238.391 128.606C239.096 128.606 239.672 128.021 239.672 127.303C239.672 126.585 239.098 126 238.391 126Z" fill="#2C2C2C"/>
<path d="M245.641 126C244.935 126 244.359 126.585 244.359 127.303C244.359 128.021 244.935 128.606 245.641 128.606C246.346 128.606 246.922 128.021 246.922 127.303C246.922 126.585 246.346 126 245.641 126Z" fill="#2C2C2C"/>
<path d="M245.148 89.3541C245.148 89.3541 246.237 82.8913 241.862 77.7009C241.319 76.8376 239.769 76.0156 238.684 76.0156C238.178 76.0156 237.69 76.1107 237.24 76.2866C235.61 76.9238 234.623 78.6216 234.751 80.393L235.617 88.096C235.617 88.096 229.617 89.8907 229.617 95.2749C229.619 95.2767 242.677 91.8667 245.148 89.3541Z" fill="#DC6837"/>
<path d="M240.264 80.6377C239.694 80.6377 239.032 80.5516 238.285 80.3506C236.438 79.8534 235.289 78.6689 235.425 77.4054C235.43 77.3426 235.443 77.2672 235.464 77.1847C235.616 76.6014 236.103 76.194 236.87 76.0073C237.011 75.9732 237.156 76.0612 237.19 76.2065C237.223 76.3519 237.137 76.4973 236.994 76.5314C236.598 76.6283 236.101 76.8437 235.975 77.3211C235.963 77.3731 235.954 77.418 235.951 77.4593C235.845 78.4392 236.86 79.4119 238.42 79.8319C240.202 80.3129 241.869 80.1047 242.214 79.3599C242.24 79.3025 242.259 79.2504 242.274 79.1948C242.374 78.8071 242.252 78.353 241.938 77.9456C241.848 77.829 241.868 77.6603 241.984 77.567C242.099 77.4754 242.266 77.4952 242.356 77.6136C242.773 78.1538 242.93 78.7802 242.787 79.3312C242.764 79.4209 242.732 79.5071 242.692 79.5914C242.424 80.1711 241.589 80.6377 240.264 80.6377Z" fill="#2C2C2C"/>
<path d="M240.114 80.9698C239.595 80.9698 239.041 80.9052 238.482 80.7706C236.399 80.2698 234.942 78.9794 235.088 77.768C235.094 77.7052 235.108 77.6316 235.132 77.5472C235.214 77.2672 235.381 77.0303 235.63 76.8365C235.746 76.7468 235.912 76.7683 236.001 76.8868C236.089 77.0052 236.068 77.1739 235.951 77.2637C235.794 77.3857 235.688 77.5311 235.641 77.6962C235.626 77.7464 235.618 77.7877 235.614 77.8236C235.503 78.7389 236.844 79.8212 238.603 80.2429C240.373 80.6701 242.101 80.3434 242.537 79.4999C242.567 79.446 242.586 79.394 242.602 79.342C242.687 79.0494 242.62 78.7551 242.404 78.4643C242.316 78.3459 242.339 78.1772 242.456 78.0874C242.572 77.9977 242.738 78.021 242.826 78.1395C243.144 78.5666 243.243 79.0351 243.109 79.4927C243.082 79.5825 243.049 79.6668 243.003 79.753C242.604 80.5283 241.476 80.9698 240.114 80.9698Z" fill="#2C2C2C"/>
<path d="M243.252 111.542H243.252L231.851 111.497C230.829 111.493 230.179 110.721 230.336 109.764L230.336 109.764L232.932 93.8919C232.932 93.8918 232.932 93.8918 232.932 93.8918C233.099 92.869 234.118 92.0112 235.196 92.0156L235.196 92.0156L246.598 92.0605C246.598 92.0605 246.598 92.0605 246.598 92.0605C247.619 92.0647 248.269 92.8366 248.113 93.7932L248.113 93.7932L245.517 109.666L245.517 109.666C245.351 110.688 244.331 111.546 243.252 111.542Z" fill="#171B21" stroke="#2C2C2C"/>
<path d="M238.79 90.1719C236.116 90.1719 235.405 88.2731 235.375 88.1888C235.326 88.0488 235.396 87.8944 235.534 87.8442C235.672 87.7939 235.823 87.8657 235.873 88.0039C235.901 88.0793 236.563 89.7861 239.137 89.6227C239.287 89.6156 239.409 89.7268 239.418 89.874C239.427 90.023 239.316 90.1504 239.171 90.1594C239.039 90.1683 238.911 90.1719 238.79 90.1719Z" fill="#2C2C2C"/>
<path d="M196.29 83.0753L196.873 83.6513L196.874 83.6522L196.874 83.6521L196.875 83.6512L196.879 83.6471L196.898 83.6298C196.916 83.6145 196.941 83.5918 196.975 83.5627C197.041 83.5046 197.137 83.4214 197.255 83.3226C197.492 83.1243 197.812 82.8657 198.152 82.6198C198.496 82.3711 198.842 82.1484 199.133 82.0111C199.258 81.9523 199.358 81.9161 199.433 81.8975C199.432 81.9285 199.427 81.9681 199.418 82.0183C199.372 82.2771 199.216 82.6683 198.898 83.1544C198.316 84.0427 197.243 85.1676 195.558 86.2527L194.596 84.5149C194.633 84.4813 194.673 84.4451 194.715 84.4068C194.961 84.1837 195.292 83.8895 195.635 83.6019C195.859 83.4132 196.084 83.2312 196.29 83.0753ZM199.425 81.8011C199.426 81.8005 199.428 81.8043 199.43 81.8141C199.426 81.8066 199.425 81.8017 199.425 81.8011ZM196.163 82.9503C196.163 82.9504 196.163 82.9504 196.163 82.9503L196.163 82.9503Z" fill="#2C2C2C" stroke="#171B21"/>
<path d="M195.365 87.2118C195.342 87.2118 195.319 87.2082 195.296 87.2028C195.227 87.1849 195.169 87.1382 195.134 87.0754L193.729 84.534C193.669 84.4264 193.69 84.29 193.78 84.2038C196.496 81.6481 196.907 81.833 197.061 81.9048C197.197 81.9658 197.289 82.0806 197.319 82.226C197.32 82.2368 197.322 82.2458 197.324 82.2565C198.174 81.5961 199.283 80.8925 199.833 81.1725C199.96 81.2371 200.174 81.4058 200.188 81.8186C200.23 83.0247 198.6 85.313 195.499 87.1759C195.459 87.1992 195.413 87.2118 195.365 87.2118ZM194.292 84.4551L195.46 86.5693C198.37 84.7566 199.687 82.6891 199.657 81.8366C199.655 81.8007 199.648 81.6804 199.595 81.6535C199.263 81.4848 197.804 82.4755 196.704 83.4716C196.599 83.5667 196.44 83.5613 196.341 83.4608C196.242 83.3603 196.239 83.197 196.332 83.0911C196.521 82.8775 196.692 82.6209 196.764 82.4593C196.325 82.6765 195.233 83.581 194.292 84.4551Z" fill="#2C2C2C"/>
<path d="M165.748 99.1953C164.38 102.702 164.91 105.028 165.63 104.946C166.434 104.854 167.308 101.624 167.308 101.624C167.308 101.624 167.114 102.869 167.553 102.797C167.992 102.727 168.859 99.2509 168.859 99.2509L165.748 99.1953Z" fill="#2C2C2C"/>
<path d="M165.59 105.23C165.386 105.23 165.193 105.122 165.042 104.919C164.451 104.132 164.417 101.883 165.5 99.1081C165.541 99.004 165.643 98.934 165.751 98.9376L168.86 98.9951C168.942 98.9969 169.017 99.0346 169.067 99.101C169.116 99.1656 169.132 99.2499 169.113 99.3307C168.204 102.978 167.759 103.049 167.592 103.076C167.443 103.1 167.306 103.055 167.203 102.951C167.196 102.943 167.189 102.936 167.182 102.927C166.82 103.952 166.27 105.156 165.658 105.226C165.635 105.228 165.613 105.23 165.59 105.23ZM165.926 99.4796C164.936 102.111 165.052 104.047 165.463 104.593C165.486 104.623 165.552 104.697 165.599 104.69C165.968 104.648 166.662 103.008 167.052 101.563C167.089 101.425 167.225 101.343 167.362 101.371C167.5 101.402 167.59 101.535 167.569 101.676C167.525 101.96 167.517 102.27 167.544 102.446C167.787 102.034 168.199 100.743 168.516 99.5263L165.926 99.4796Z" fill="#2C2C2C"/>
<path d="M181.201 75.6627L181.127 80.0006L182.163 79.5788L183.341 84.7728L179.722 89.4157L177.488 86.9408L176.133 79.5591V75.0938L181.201 75.6627Z" fill="#2C2C2C"/>
<path d="M161.231 125.096C161.231 125.096 156.415 126.704 156.777 128.202C156.985 129.065 161.761 128.78 164.439 128.631C165.299 128.583 166.019 127.951 166.192 127.093L166.596 125.094H161.231V125.096Z" fill="#2C2C2C"/>
<path d="M159.97 129.069C157.805 129.069 156.66 128.856 156.52 128.27C156.335 127.499 157.064 126.707 158.751 125.849C159.914 125.259 161.1 124.86 161.149 124.842C161.175 124.834 161.204 124.828 161.232 124.828H166.596C166.676 124.828 166.752 124.864 166.801 124.927C166.852 124.99 166.872 125.072 166.856 125.151L166.452 127.151C166.254 128.127 165.434 128.848 164.454 128.902L164.29 128.911C162.561 129.008 161.121 129.069 159.97 129.069ZM161.274 125.367C159.376 126.007 156.827 127.28 157.034 128.141C157.039 128.154 157.228 128.5 159.679 128.529C161.163 128.547 162.954 128.446 164.26 128.373L164.424 128.364C165.164 128.322 165.783 127.779 165.931 127.041L166.27 125.367H161.274Z" fill="#2C2C2C"/>
<path d="M181.951 125.193C181.951 125.193 187.294 126.366 186.932 127.865C186.724 128.728 181.949 128.597 179.27 128.448C179.223 128.445 179.175 128.441 179.129 128.436C178.122 128.303 177.758 127.296 177.933 126.278L178.153 124.984L181.951 125.193Z" fill="#2C2C2C"/>
<path d="M182.83 128.827C181.87 128.827 180.698 128.793 179.264 128.714C179.209 128.71 179.156 128.705 179.101 128.699C178.646 128.638 178.268 128.417 178.011 128.06C177.679 127.603 177.557 126.933 177.679 126.228L177.9 124.934C177.923 124.799 178.043 124.704 178.175 124.711L181.972 124.92C181.987 124.92 182.001 124.923 182.013 124.925C182.055 124.934 183.07 125.158 184.196 125.539C185.749 126.065 186.712 126.617 187.062 127.184C187.212 127.427 187.256 127.676 187.198 127.924C187.134 128.195 186.98 128.827 182.83 128.827ZM178.381 125.262L178.2 126.319C178.104 126.881 178.189 127.4 178.436 127.741C178.609 127.981 178.856 128.123 179.168 128.164C179.209 128.17 179.25 128.173 179.29 128.175C184.879 128.486 186.569 128.062 186.682 127.795C186.698 127.73 186.707 127.626 186.612 127.472C186.04 126.544 183.052 125.707 181.921 125.456L178.381 125.262Z" fill="#2C2C2C"/>
<path d="M177.331 66.4147L177.688 66.5612L177.92 66.2526C178.091 66.0258 178.558 65.5547 179.588 65.5547C179.828 65.5547 180.011 65.6381 180.164 65.8101C180.415 66.0936 180.546 66.6021 180.593 67.1416C180.629 67.5648 180.608 67.9292 180.598 68.0685L176.785 75.5944C176.343 75.4648 175.011 74.9236 173.401 72.8314L173.401 72.8313C172.513 71.6793 172.559 70.6055 172.857 69.7582C173.165 68.883 173.748 68.2488 173.913 68.082L173.99 68.0032L174.028 67.8989C174.335 67.039 174.795 66.5414 175.354 66.315L175.354 66.315C176.109 66.0092 176.932 66.2511 177.331 66.4147Z" fill="#171B21" stroke="#2C2C2C"/>
<path d="M183.455 97.8125C183.309 97.8125 183.19 97.9327 183.19 98.0817V98.0925L172.204 98.5304C172.2 98.4281 172.138 98.333 172.04 98.2917C171.906 98.2361 171.75 98.3007 171.694 98.4389L160.942 125.073C160.887 125.209 160.949 125.363 161.083 125.423C161.873 125.769 162.705 126.01 163.553 126.141C164.049 126.218 164.55 126.255 165.052 126.255C165.553 126.255 166.054 126.218 166.553 126.141C166.64 126.128 166.714 126.071 166.753 125.992L176.497 105.471H177.102L177.771 125.536C177.775 125.654 177.856 125.757 177.969 125.787C178.772 126.001 179.598 126.121 180.423 126.146C181.465 126.176 182.508 126.056 183.522 125.789C183.639 125.758 183.72 125.651 183.72 125.529V98.0817C183.72 97.9327 183.602 97.8125 183.455 97.8125Z" fill="#171B21"/>
<path d="M176.311 75.8971C176.311 75.8971 175.108 76.0712 174.593 75.1989C173.751 73.7703 175.314 73.1673 175.314 73.1673C175.314 73.1673 175.791 74.4254 176.361 73.6519C176.933 72.8783 175.98 70.9418 175.98 70.9418C175.98 70.9418 177.723 66.9736 180.644 67.941C180.644 67.941 185.641 74.813 182.048 76.9434C180.751 77.7115 179.643 77.7905 178.755 77.5751C178.335 77.471 176.311 75.8971 176.311 75.8971Z" fill="#D8D8D8"/>
<path d="M179.62 77.9546C179.304 77.9546 178.994 77.9169 178.687 77.8433C178.544 77.8092 178.457 77.6638 178.491 77.5185C178.524 77.3749 178.667 77.2851 178.81 77.3192C179.791 77.5562 180.833 77.3533 181.907 76.7162C182.511 76.3591 182.871 75.8494 183.012 75.1584C183.52 72.6511 180.875 68.7476 180.474 68.1769C178.12 67.4715 176.566 70.3413 176.267 70.9461C176.488 71.4271 177.148 73.028 176.566 73.8177C176.317 74.1533 176.063 74.1964 175.892 74.1713C175.558 74.1246 175.318 73.7908 175.182 73.5359C174.995 73.6508 174.741 73.8536 174.642 74.1444C174.552 74.4118 174.609 74.7205 174.812 75.0633C175.228 75.7704 176.255 75.6358 176.266 75.634C176.41 75.6143 176.544 75.7166 176.564 75.8637C176.583 76.0109 176.484 76.1473 176.34 76.167C176.283 76.176 174.956 76.3555 174.358 75.3397C174.07 74.8515 173.998 74.3902 174.143 73.9649C174.388 73.2434 175.179 72.9311 175.212 72.9186C175.348 72.8665 175.502 72.9347 175.553 73.0729C175.65 73.3242 175.846 73.6185 175.964 73.6365C176.006 73.6418 176.073 73.5844 176.14 73.4929C176.484 73.0262 176.073 71.7556 175.734 71.0646C175.699 70.9928 175.697 70.9085 175.729 70.8349C175.747 70.7936 177.605 66.6567 180.716 67.6887C180.769 67.7066 180.815 67.739 180.847 67.7856C180.981 67.9705 184.122 72.3335 183.527 75.2661C183.358 76.1042 182.901 76.7485 182.17 77.1811C181.305 77.6961 180.45 77.9546 179.62 77.9546Z" fill="#2C2C2C"/>
<path d="M195.806 87.0199C195.72 86.4905 195.555 85.979 195.317 85.5016C195.014 84.8932 194.599 84.3583 194.087 83.9115C194.017 83.8486 193.92 83.8307 193.83 83.8594L188.008 85.8498C187.592 85.1749 186.1 82.7628 185.158 81.3252C183.995 79.5502 182.269 79.3367 182.197 79.3277C182.19 79.3277 182.183 79.3259 182.176 79.3259L181.355 79.299C181.223 79.2954 181.112 79.3869 181.087 79.5161L179.072 89.9077L176.141 79.7602C176.25 79.7279 176.33 79.6256 176.331 79.5054C176.331 79.3564 176.215 79.2362 176.068 79.2344H176.063C175.851 79.2344 172.414 79.29 170.416 82.7862C168.457 86.2141 165.061 98.7198 164.916 99.251C164.896 99.321 164.907 99.3946 164.942 99.4574C164.978 99.5203 165.036 99.5651 165.105 99.5831C165.773 99.7625 166.463 99.8541 167.153 99.8595C167.873 99.8595 168.6 99.7715 169.303 99.5831C169.382 99.5615 169.447 99.5041 169.479 99.4251L171.884 93.5294L170.277 99.8989C170.257 99.9743 170.272 100.053 170.314 100.118C170.356 100.183 170.425 100.224 170.501 100.233L183.757 101.875C183.768 101.877 183.778 101.877 183.789 101.877C183.856 101.877 183.919 101.852 183.969 101.805C184.025 101.751 184.057 101.674 184.053 101.595L183.561 90.4209C184.166 91.7544 185.248 93.42 186.872 93.42C186.93 93.42 186.988 93.4182 187.046 93.4128C189.699 93.2207 195.487 87.4973 195.73 87.2532C195.792 87.194 195.82 87.1061 195.806 87.0199Z" fill="#E7F1FF"/>
<path d="M178.802 81.2152C177.699 81.2152 176.889 80.6948 176.518 80.3986C176.315 80.2371 175.862 79.8441 175.867 79.5677L176.038 75.8975C176.045 75.7485 176.165 75.6354 176.315 75.6408C176.462 75.648 176.575 75.7736 176.568 75.9226L176.4 79.5228C176.584 79.7561 177.995 81.375 180.231 80.343C180.457 80.2389 180.669 80.0935 180.863 79.9069V77.4427C180.863 77.2938 180.981 77.1735 181.128 77.1735C181.274 77.1735 181.392 77.2938 181.392 77.4427V80.02C181.392 80.0918 181.366 80.1582 181.316 80.2102C181.055 80.4776 180.764 80.6876 180.45 80.833C179.85 81.1112 179.298 81.2152 178.802 81.2152Z" fill="#2C2C2C"/>
<path d="M177.221 90.1851C177.143 90.1851 177.069 90.1438 177.029 90.072L174.24 85.1024C174.2 85.0306 174.202 84.9426 174.244 84.8726L175.102 83.4602L174.246 82.1034C174.21 82.0477 174.202 81.9795 174.221 81.9167L174.922 79.5656C174.957 79.4472 175.079 79.379 175.197 79.4166C175.313 79.4525 175.379 79.5782 175.343 79.6966L174.673 81.949L175.548 83.3363C175.594 83.4081 175.596 83.5015 175.55 83.575L174.687 84.9947L177.41 89.8476C177.47 89.9553 177.433 90.0917 177.327 90.1545C177.295 90.1743 177.258 90.1851 177.221 90.1851Z" fill="#2C2C2C"/>
<path d="M183.86 102.058C183.849 102.058 183.838 102.058 183.828 102.056L176.658 100.994C176.538 100.976 176.453 100.863 176.471 100.739C176.489 100.617 176.602 100.533 176.722 100.549L183.891 101.611C184.011 101.629 184.096 101.742 184.078 101.866C184.063 101.977 183.967 102.058 183.86 102.058Z" fill="#2C2C2C"/>
<path d="M176.761 101.023C176.75 101.023 176.741 101.023 176.731 101.021L170.505 100.188C170.385 100.172 170.299 100.059 170.314 99.9372C170.33 99.8152 170.441 99.7272 170.561 99.7434L176.572 100.547L177.924 91.3315C177.941 91.2094 178.054 91.1251 178.174 91.143C178.294 91.161 178.377 91.2758 178.359 91.3979L176.976 100.831C176.962 100.944 176.867 101.023 176.761 101.023Z" fill="#2C2C2C"/>
<path d="M181.129 78.8413C181.129 78.8413 179.484 79.2972 178.625 77.725C178.625 77.725 179.94 78.179 181.201 77.375L181.129 78.8413Z" fill="#2C2C2C"/>
<path d="M179.229 90.6754C179.19 90.6754 179.151 90.6646 179.114 90.6431C179.01 90.5785 178.976 90.4403 179.04 90.3344L181.883 85.5496L181.198 83.8105C181.165 83.728 181.184 83.631 181.248 83.5682L182.589 82.215L181.151 79.6647C181.091 79.557 181.126 79.4206 181.232 79.3578C181.338 79.2968 181.472 79.3327 181.533 79.4403L183.055 82.1414C183.104 82.2294 183.09 82.3406 183.019 82.4124L181.662 83.7818L182.333 85.4868C182.359 85.5514 182.352 85.6268 182.317 85.686L179.418 90.5659C179.377 90.6359 179.305 90.6754 179.229 90.6754Z" fill="#2C2C2C"/>
<path d="M179.135 83.6659L179.825 88.1581C180.032 89.5006 179.912 90.8753 179.47 92.1586C178.999 93.5297 178.396 95.0894 178.091 95.0894C177.798 95.0894 177.344 93.5638 176.991 92.1622C176.626 90.7192 176.651 89.2026 177.064 87.7722L178.295 83.5008C178.295 83.5008 177.411 81.9788 178.295 81.4368C179.179 80.8948 180.173 81.6324 180.129 82.3701C180.083 83.1077 179.135 83.6659 179.135 83.6659Z" fill="#EBB542"/>
<path d="M156.823 51.5008C156.774 51.4506 156.707 51.4219 156.636 51.4219L145.242 51.4344C145.095 51.4344 144.977 51.5547 144.977 51.7036V60.5266H138.118C137.971 60.5266 137.853 60.6468 137.853 60.7958V70.0889H130.997C130.851 70.0889 130.733 70.2092 130.733 70.3581V79.6513H123.873C123.727 79.6513 123.609 79.7715 123.609 79.9205V89.2118H116.923C116.917 89.2118 116.912 89.2118 116.907 89.2118H116.753C116.607 89.2118 116.488 89.3321 116.488 89.481V98.7741H109.802C109.656 98.7741 109.537 98.8944 109.537 99.0434V108.336H102.68C102.534 108.336 102.415 108.457 102.415 108.606V117.897H95.5579C95.4115 117.897 95.2932 118.017 95.2932 118.166V127.459H89.3411C89.2705 127.459 89.2034 127.488 89.154 127.538C89.1046 127.589 89.0764 127.657 89.0764 127.729L89.0905 134.895V137.018L82.1801 137.038C82.0337 137.038 81.9154 137.158 81.9154 137.307V146.58H75.0562C74.9098 146.58 74.7915 146.701 74.7915 146.85V156.143H67.9341C67.7877 156.143 67.6694 156.263 67.6694 156.412V165.705H60.8102C60.6638 165.705 60.5455 165.825 60.5455 165.974V175.266H53.6881C53.5416 175.266 53.4234 175.386 53.4234 175.535V184.828H46.5642C46.4178 184.828 46.2995 184.948 46.2995 185.097V192.621C46.2995 192.7 46.333 192.772 46.3878 192.82V194.688H39.5303C39.3839 194.688 39.2656 194.809 39.2656 194.958V200.191C39.2656 200.263 39.2939 200.333 39.345 200.383C39.3944 200.433 39.4615 200.46 39.5303 200.46H39.5339L50.9264 200.297C51.0711 200.295 51.1876 200.175 51.1876 200.028V195.227H57.2421C57.8297 195.227 58.3097 194.74 58.3097 194.141V185.397C58.3097 185.386 58.3097 185.375 58.308 185.365H64.2778C64.8654 185.365 65.3454 184.878 65.3454 184.279V175.802H71.3999C71.9875 175.802 72.4675 175.316 72.4675 174.717V166.242H78.5238C79.1114 166.242 79.5914 165.755 79.5914 165.156V156.679H85.6459C86.2335 156.679 86.7135 156.193 86.7135 155.594V147.117H92.7698C93.3574 147.117 93.8374 146.631 93.8374 146.031V137.562L99.9431 137.573H99.9449C100.229 137.573 100.497 137.46 100.698 137.255C100.901 137.05 101.012 136.778 101.012 136.487V127.994H106.148C106.735 127.994 107.215 127.508 107.215 126.908V118.432H113.27C113.857 118.432 114.337 117.946 114.337 117.346V108.871H120.392C120.979 108.871 121.459 108.385 121.459 107.786V99.309H127.345C127.35 99.309 127.353 99.309 127.359 99.309H127.514C128.102 99.309 128.582 98.8226 128.582 98.2232V89.7466H134.467C134.472 89.7466 134.477 89.7466 134.483 89.7466H134.638C135.225 89.7466 135.705 89.2603 135.705 88.6608V80.1861H141.591C142.178 80.1861 142.658 79.6997 142.658 79.1003V70.6237H148.713C149.3 70.6237 149.78 70.1374 149.78 69.5379V61.0614H155.837C156.424 61.0614 156.904 60.575 156.904 59.9756V51.6875C156.901 51.6193 156.872 51.5511 156.823 51.5008Z" fill="#2C2C2C"/>
<path d="M89.3505 127.688H65.4219V137.131H89.3505V127.688Z" fill="#2C2C2C"/>
<path d="M89.3574 137.389H65.4288C65.2823 137.389 65.1641 137.268 65.1641 137.119V127.675C65.1641 127.526 65.2823 127.406 65.4288 127.406H89.3574C89.5039 127.406 89.6221 127.526 89.6221 127.675V137.119C89.6221 137.268 89.5039 137.389 89.3574 137.389ZM65.6935 136.85H89.0927V127.945H65.6935V136.85Z" fill="#2C2C2C"/>
<path d="M117.04 89.4104V98.953H93.1094V89.3906L117.04 89.4104Z" fill="#2C2C2C"/>
<path d="M117.039 99.2101H93.1084C92.962 99.2101 92.8438 99.0899 92.8438 98.9409V89.3786C92.8438 89.3068 92.872 89.2386 92.9214 89.1883C92.9708 89.1381 93.0379 89.1094 93.1084 89.1094L117.039 89.1291C117.185 89.1291 117.304 89.2494 117.304 89.3983V98.9409C117.304 99.0899 117.185 99.2101 117.039 99.2101ZM93.3731 98.6717H116.774V89.6675L93.3731 89.6478V98.6717Z" fill="#2C2C2C"/>
<path d="M109.915 98.9375H85.9844V108.5H109.915V98.9375Z" fill="#2C2C2C"/>
<path d="M109.914 108.773H85.9834C85.837 108.773 85.7188 108.652 85.7188 108.503V98.9411C85.7188 98.7921 85.837 98.6719 85.9834 98.6719H109.914C110.06 98.6719 110.179 98.7921 110.179 98.9411V108.503C110.179 108.652 110.06 108.773 109.914 108.773ZM86.2481 108.234H109.649V99.2103H86.2481V108.234Z" fill="#2C2C2C"/>
<path d="M102.782 108.516H78.8516V118.078H102.782V108.516Z" fill="#2C2C2C"/>
<path d="M102.797 118.343H78.8663C78.7198 118.343 78.6016 118.223 78.6016 118.074V108.511C78.6016 108.362 78.7198 108.242 78.8663 108.242H102.797C102.943 108.242 103.061 108.362 103.061 108.511V118.074C103.061 118.221 102.943 118.343 102.797 118.343ZM79.131 117.805H102.532V108.781H79.131V117.805Z" fill="#2C2C2C"/>
<path d="M95.6726 118.062H71.7422V127.623H95.6726V118.062Z" fill="#2C2C2C"/>
<path d="M95.6639 127.896H71.7334C71.587 127.896 71.4688 127.776 71.4688 127.627V118.066C71.4688 117.917 71.587 117.797 71.7334 117.797H95.6639C95.8103 117.797 95.9285 117.917 95.9285 118.066V127.627C95.9285 127.774 95.8103 127.896 95.6639 127.896ZM71.9981 127.357H95.3992V118.335H71.9981V127.357Z" fill="#2C2C2C"/>
<path d="M145.063 51.7072V60.6289H121.133V51.6875L145.063 51.7072Z" fill="#2C2C2C"/>
<path d="M145.062 60.9017H121.132C120.985 60.9017 120.867 60.7814 120.867 60.6325V51.6911C120.867 51.6193 120.895 51.5511 120.945 51.5008C120.994 51.4506 121.061 51.4219 121.132 51.4219L145.062 51.4416C145.209 51.4416 145.327 51.5619 145.327 51.7108V60.6325C145.327 60.7814 145.209 60.9017 145.062 60.9017ZM121.397 60.3632H144.798V51.98L121.397 51.9603V60.3632Z" fill="#2C2C2C"/>
<path d="M137.938 60.6406H114.008V70.203H137.938V60.6406Z" fill="#2C2C2C"/>
<path d="M137.953 70.4914H114.023C113.876 70.4914 113.758 70.3711 113.758 70.2222V60.6598C113.758 60.5109 113.876 60.3906 114.023 60.3906H137.953C138.099 60.3906 138.218 60.5109 138.218 60.6598V70.2222C138.218 70.3711 138.099 70.4914 137.953 70.4914ZM114.287 69.953H137.688V60.929H114.287V69.953Z" fill="#2C2C2C"/>
<path d="M130.821 70.2031H106.891V79.7655H130.821V70.2031Z" fill="#2C2C2C"/>
<path d="M130.814 80.0226H106.882C106.735 80.0226 106.617 79.9024 106.617 79.7534V70.1911C106.617 70.0421 106.735 69.9219 106.882 69.9219H130.812C130.959 69.9219 131.077 70.0421 131.077 70.1911V79.7534C131.079 79.9024 130.961 80.0226 130.814 80.0226ZM107.147 79.4842H130.548V70.4603H107.147V79.4842Z" fill="#2C2C2C"/>
<path d="M123.704 79.7656H99.7734V89.3262H123.704V79.7656Z" fill="#2C2C2C"/>
<path d="M123.695 89.599H99.7647C99.6182 89.599 99.5 89.4787 99.5 89.3298V79.7692C99.5 79.6202 99.6182 79.5 99.7647 79.5H123.695C123.842 79.5 123.96 79.6202 123.96 79.7692V89.3298C123.96 89.4787 123.842 89.599 123.695 89.599ZM100.029 89.0605H123.43V80.0384H100.029V89.0605Z" fill="#2C2C2C"/>
<path d="M386.505 65.8125H336.758V128.359H386.505V65.8125Z" fill="#2C2C2C"/>
<path d="M386.512 128.624H336.765C336.618 128.624 336.5 128.504 336.5 128.355V65.8083C336.5 65.6593 336.618 65.5391 336.765 65.5391H386.512C386.658 65.5391 386.777 65.6593 386.777 65.8083V128.355C386.777 128.504 386.658 128.624 386.512 128.624ZM337.029 128.086H386.247V66.0775H337.029V128.086Z" fill="#2C2C2C"/>
<path d="M365.843 99.8C365.799 97.7666 364.372 96.0239 362.372 95.559C361.545 95.367 360.789 95.3347 360.237 95.3114C360.027 95.3024 359.794 95.2934 359.663 95.2737C359.588 92.7359 357.535 90.6953 355.022 90.6953C352.494 90.6953 350.429 92.7628 350.38 95.3239C349.926 95.2091 349.458 95.1624 348.989 95.1893C346.623 95.3239 344.699 97.3161 344.613 99.7246C344.565 101.02 345.026 102.248 345.908 103.179C346.792 104.111 347.978 104.624 349.252 104.624H361.139C363.701 104.624 365.81 102.532 365.841 99.9597C365.845 99.9095 365.845 99.8556 365.843 99.8Z" fill="#2C2C2C"/>
<path d="M366.265 100.138C366.223 98.2102 364.85 96.5824 363 96.1534C361.439 95.7909 360.089 96.0152 360.089 95.7496C360.089 93.2908 358.128 91.2969 355.711 91.2969C353.293 91.2969 351.332 93.2908 351.332 95.7496C351.332 95.8393 351.336 95.9291 351.341 96.0188C350.828 95.8429 350.272 95.7586 349.693 95.7909C347.452 95.9183 345.648 97.7866 345.566 100.068C345.474 102.604 347.468 104.689 349.94 104.689H356.773H361.829C364.236 104.689 366.237 102.738 366.267 100.29C366.267 100.24 366.265 100.19 366.265 100.138Z" fill="#2C2C2C"/>
<path d="M361.836 104.962H349.949C348.677 104.962 347.489 104.449 346.605 103.515C345.722 102.584 345.262 101.356 345.308 100.061C345.396 97.652 347.318 95.6599 349.684 95.5253C350.155 95.4983 350.621 95.5432 351.075 95.6599C351.124 93.0988 353.187 91.0312 355.717 91.0312C358.23 91.0312 360.283 93.0719 360.359 95.6096C360.489 95.6294 360.72 95.6383 360.93 95.6473C361.483 95.6706 362.238 95.7029 363.065 95.895C365.065 96.358 366.492 98.1025 366.537 100.134C366.538 100.188 366.538 100.244 366.537 100.297C366.507 102.869 364.398 104.962 361.836 104.962ZM349.949 96.0565C349.871 96.0565 349.794 96.0583 349.714 96.0637C347.618 96.1839 345.915 97.9482 345.837 100.082C345.795 101.231 346.202 102.318 346.986 103.144C347.77 103.969 348.821 104.425 349.949 104.425H361.836C364.11 104.425 365.981 102.571 366.009 100.292C366.009 100.244 366.009 100.195 366.009 100.147C365.97 98.3609 364.712 96.8282 362.949 96.419C362.169 96.2378 361.442 96.2073 360.911 96.1857C360.261 96.1588 359.833 96.1409 359.833 95.7532C359.833 93.447 357.987 91.5697 355.719 91.5697C353.452 91.5697 351.606 93.447 351.606 95.7532C351.606 95.8375 351.609 95.9219 351.615 96.0062C351.62 96.096 351.581 96.1821 351.511 96.236C351.44 96.2898 351.348 96.306 351.265 96.2773C350.836 96.1301 350.395 96.0565 349.949 96.0565Z" fill="#171B21"/>
<path d="M356.815 99.6877V96.5469H354.982V99.6877H353.979C353.565 99.6877 353.328 100.172 353.58 100.508L354.431 101.637L355.5 103.056C355.702 103.322 356.095 103.322 356.296 103.056L357.366 101.637L358.216 100.508C358.468 100.172 358.234 99.6877 357.817 99.6877H356.815Z" fill="#DC6837"/>
<path d="M388.24 63.7969H334.265C334.118 63.7969 334 63.9171 334 64.0661V128.684C334 128.833 334.118 128.953 334.265 128.953H388.24C388.387 128.953 388.505 128.833 388.505 128.684V64.0661C388.505 63.9171 388.387 63.7969 388.24 63.7969ZM385.424 128.379H337.079V66.9287H385.424V128.379Z" fill="#2C2C2C"/>
<path d="M330.101 100.436H326.734C326.247 100.436 325.852 100.034 325.852 99.5383V94.0536C325.852 93.5583 326.247 93.1562 326.734 93.1562H330.101C330.588 93.1562 330.983 93.5583 330.983 94.0536V99.5383C330.983 100.034 330.588 100.436 330.101 100.436Z" fill="#2C2C2C"/>
<path d="M330.1 100.716H326.733C326.101 100.716 325.586 100.192 325.586 99.5497V94.065C325.586 93.4225 326.101 92.8984 326.733 92.8984H330.1C330.732 92.8984 331.247 93.4225 331.247 94.065V99.5497C331.247 100.194 330.732 100.716 330.1 100.716ZM326.733 93.4369C326.392 93.4369 326.115 93.7186 326.115 94.065V99.5497C326.115 99.8961 326.392 100.178 326.733 100.178H330.1C330.441 100.178 330.718 99.8961 330.718 99.5497V94.065C330.718 93.7186 330.441 93.4369 330.1 93.4369H326.733Z" fill="#2C2C2C"/>
<path d="M328.405 96.7094C328.926 96.7094 329.349 96.2787 329.349 95.7492C329.349 95.2198 328.926 94.7891 328.405 94.7891C327.884 94.7891 327.461 95.2198 327.461 95.7492C327.459 96.2787 327.884 96.7094 328.405 96.7094Z" fill="#2C2C2C"/>
<path d="M328.405 97.125C327.884 97.125 327.461 97.5557 327.461 98.0852C327.461 98.6146 327.884 99.0454 328.405 99.0454C328.926 99.0454 329.349 98.6146 329.349 98.0852C329.349 97.5557 328.926 97.125 328.405 97.125Z" fill="#2C2C2C"/>
<path d="M318.173 78.6406L316.08 80.0244L313.989 78.6406L311.896 80.0244L309.803 78.6406L307.71 80.0244L305.617 78.6406V78.7842V96.0154L305.787 96.0585L307.708 94.8435L309.799 96.2272L311.892 94.8435L313.985 96.2272L316.078 94.8435L318.173 96.2272V78.6406Z" fill="#2C2C2C"/>
<path d="M318.169 96.5024C318.12 96.5024 318.07 96.4881 318.025 96.4593L316.075 95.1707L314.125 96.4593C314.036 96.5168 313.923 96.5168 313.835 96.4593L311.887 95.1707L309.939 96.4593C309.851 96.5168 309.738 96.5168 309.649 96.4593L307.698 95.1689L305.919 96.2924C305.859 96.3301 305.785 96.3427 305.716 96.3247L305.545 96.2817C305.427 96.2529 305.344 96.1435 305.344 96.0196V78.6448C305.344 78.5461 305.397 78.4546 305.481 78.4079C305.566 78.3612 305.67 78.3648 305.751 78.4187L307.701 79.7073L309.651 78.4187C309.739 78.3612 309.852 78.3612 309.939 78.4187L311.887 79.7073L313.835 78.4187C313.923 78.3612 314.036 78.3612 314.123 78.4187L316.071 79.7073L318.017 78.4187C318.139 78.3379 318.303 78.372 318.385 78.4976C318.464 78.6233 318.43 78.7884 318.307 78.8709L316.216 80.2547C316.128 80.3121 316.015 80.3121 315.926 80.2547L313.978 78.9661L312.03 80.2547C311.942 80.3121 311.829 80.3121 311.741 80.2547L309.792 78.9661L307.842 80.2547C307.754 80.3121 307.641 80.3121 307.553 80.2547L305.868 79.1419V95.6858L307.555 94.6197C307.641 94.5641 307.752 94.5659 307.839 94.6233L309.787 95.9119L311.735 94.6233C311.824 94.5659 311.936 94.5659 312.023 94.6233L313.971 95.9119L315.921 94.6233C316.009 94.5659 316.122 94.5659 316.209 94.6233L318.302 96.0071C318.425 96.0878 318.459 96.2547 318.379 96.3786C318.34 96.4593 318.256 96.5024 318.169 96.5024Z" fill="#2C2C2C"/>
<path d="M318.171 96.2931C318.024 96.2931 317.906 96.1729 317.906 96.0239V78.7926C317.906 78.6437 318.024 78.5234 318.171 78.5234C318.317 78.5234 318.436 78.6437 318.436 78.7926V96.0239C318.436 96.1729 318.316 96.2931 318.171 96.2931Z" fill="#2C2C2C"/>
<path d="M314.943 83.89H308.765C308.618 83.89 308.5 83.7697 308.5 83.6208C308.5 83.4718 308.618 83.3516 308.765 83.3516H314.943C315.089 83.3516 315.207 83.4718 315.207 83.6208C315.207 83.7697 315.089 83.89 314.943 83.89Z" fill="#171B21"/>
<path d="M314.943 85.6478H308.765C308.618 85.6478 308.5 85.5275 308.5 85.3786C308.5 85.2296 308.618 85.1094 308.765 85.1094H314.943C315.089 85.1094 315.207 85.2296 315.207 85.3786C315.207 85.5275 315.089 85.6478 314.943 85.6478Z" fill="#2C2C2C"/>
<path d="M314.941 87.4447H312.366C312.22 87.4447 312.102 87.3244 312.102 87.1755C312.102 87.0265 312.22 86.9062 312.366 86.9062H314.941C315.087 86.9062 315.206 87.0265 315.206 87.1755C315.206 87.3226 315.087 87.4447 314.941 87.4447Z" fill="#2C2C2C"/>
<path d="M314.954 89.2181H313.069C312.923 89.2181 312.805 89.0979 312.805 88.9489C312.805 88.7999 312.923 88.6797 313.069 88.6797H314.954C315.101 88.6797 315.219 88.7999 315.219 88.9489C315.219 89.0979 315.101 89.2181 314.954 89.2181Z" fill="#2C2C2C"/>
<path d="M310.008 92.5276C308.173 92.5276 306.68 91.0092 306.68 89.1427C306.68 87.2762 308.173 85.7578 310.008 85.7578C311.843 85.7578 313.336 87.2762 313.336 89.1427C313.336 91.0092 311.843 92.5276 310.008 92.5276ZM310.008 86.2944C308.464 86.2944 307.209 87.5723 307.209 89.1409C307.209 90.7113 308.466 91.9873 310.008 91.9873C311.552 91.9873 312.807 90.7095 312.807 89.1409C312.807 87.5723 311.55 86.2944 310.008 86.2944Z" fill="#171B21"/>
<path d="M310.078 90.99L311.967 89.6153L311.375 88.7717L310.187 89.6332L308.581 88L307.859 88.7323L310.078 90.99Z" fill="#3B55A5"/>
<path d="M305.795 78.6805C305.793 78.5889 305.747 78.5028 305.669 78.4543C305.592 78.4059 305.496 78.4005 305.415 78.4418L305.112 78.5907C304.535 78.8761 304.554 79.8327 304.567 80.4052L304.57 95.5079C304.575 95.7681 304.699 96.0158 304.909 96.1881C305.094 96.3389 305.327 96.4214 305.562 96.4214C305.625 96.4214 305.689 96.416 305.752 96.4035C305.876 96.3783 305.966 96.2671 305.966 96.1397L305.795 78.6805Z" fill="#2C2C2C"/>
<path d="M488.489 57.8996H429.22C429.198 57.8942 429.175 57.8906 429.152 57.8906H294.28C294.134 57.8906 294.016 58.0109 294.016 58.1598V131.193C294.016 131.342 294.134 131.462 294.28 131.462H488.489C488.635 131.462 488.754 131.342 488.754 131.193V58.1688C488.754 58.0198 488.635 57.8996 488.489 57.8996ZM297.114 61.0242H485.681V128.372H297.114V61.0242Z" fill="#2C2C2C"/>
<path d="M296.489 57.8996H237.221C237.2 57.8942 237.177 57.8906 237.152 57.8906H153.808C153.662 57.8906 153.543 58.0109 153.543 58.1598V60.755C153.543 60.904 153.662 61.0242 153.808 61.0242H293.681V128.372H105.114V120.591C105.114 120.45 105.007 120.331 104.867 120.322L102.298 120.152C102.227 120.146 102.153 120.173 102.1 120.224C102.047 120.274 102.016 120.346 102.016 120.419V131.191C102.016 131.34 102.134 131.46 102.28 131.46H296.489C296.635 131.46 296.754 131.34 296.754 131.191V58.1688C296.754 58.0198 296.635 57.8996 296.489 57.8996Z" fill="#2C2C2C"/>
<path d="M168.922 2.43231C161.198 3.6958 153.546 1.42188 153.546 1.42188L153.469 18.6406C153.469 18.6406 160.213 21.3775 167.54 20.2092C171.676 19.5505 180.168 20.2092 180.168 20.2092V2.43231C180.17 2.43231 176.646 1.16882 168.922 2.43231Z" fill="#00763C"/>
<path d="M158.946 6.36142C159.064 6.02581 159.071 5.73506 158.939 5.84274C158.826 5.93427 158.757 5.84095 158.844 5.73326C158.958 5.59148 159.112 5.54302 159.138 5.80146C159.158 5.99888 159.02 6.24117 158.946 6.36142Z" fill="white"/>
<path d="M159.93 8.19765C159.967 8.61762 160.077 9.40371 160.082 9.67292C160.087 9.94393 160.126 9.86855 160.197 9.71779C160.267 9.56703 160.248 9.40012 160.236 9.18117C160.222 8.94964 160.206 8.56019 160.163 8.0433C160.246 7.96613 160.334 7.85665 160.37 7.78127C160.456 7.60539 160.476 7.62334 160.514 7.76512C160.589 8.0433 160.86 8.22637 161.227 7.95895C161.564 7.71307 161.425 7.19978 161.268 6.64341C161.399 6.66854 161.437 6.56265 161.367 6.42445C161.324 6.34369 161.263 6.26652 161.206 6.19832C161.15 6.13012 161.086 6.07089 161.032 6.14268C160.979 6.21447 160.926 6.2719 160.892 6.31497C160.859 6.35805 160.86 6.40651 160.906 6.52137C161.037 6.84801 161.134 7.19978 161.159 7.39361C161.183 7.58744 161.116 7.62513 160.991 7.62872C160.867 7.63231 160.691 7.59821 160.622 7.32003C160.555 7.04184 160.529 6.90544 160.537 6.72417C160.548 6.54291 160.566 6.41548 160.439 6.22883C160.312 6.04218 160.296 6.0673 160.266 6.1696C160.234 6.27549 160.195 6.41907 160.236 6.59316C160.296 6.84981 160.333 7.07953 160.364 7.2249C160.387 7.329 160.289 7.55155 160.132 7.66641C160.103 7.32361 160.043 6.85339 160.015 6.4765C160.22 6.41548 160.107 6.14627 159.957 5.85552C159.84 5.63118 159.789 5.71912 159.71 5.86091C159.63 6.00269 159.689 6.06551 159.752 6.17678C159.706 6.27549 159.779 6.41369 159.81 6.66495C159.832 6.83365 159.863 7.30028 159.893 7.70589C159.734 7.70589 159.644 7.60001 159.586 7.46002C159.463 7.16927 159.495 6.89467 159.553 6.72597C159.611 6.55726 159.664 6.28267 159.567 6.21447C159.47 6.14627 159.348 6.22703 159.269 6.35625C159.136 6.56983 159 6.86416 158.99 7.18542C158.985 7.30387 158.944 7.55693 158.891 7.64846C158.838 7.73999 158.764 7.75256 158.679 7.61436C158.543 7.39361 158.506 6.83006 158.513 6.54291C158.517 6.40112 158.476 6.37061 158.432 6.53932C158.284 7.09927 158.457 7.69871 158.579 7.95536C158.7 8.21201 158.872 8.15099 158.985 7.94639C159.157 7.6359 159.087 7.35054 159.242 6.89288C159.341 6.60034 159.366 6.81929 159.336 6.99338C159.256 7.45463 159.283 8.20663 159.93 8.19765Z" fill="white"/>
<path d="M160.414 5.74675C160.381 5.84187 160.402 5.96032 160.459 6.03391C160.515 6.10749 160.628 6.11288 160.686 6.04827C160.748 5.98186 160.75 5.9675 160.801 6.05903C160.84 6.12903 160.951 6.11647 160.984 6.04468C161.014 5.97827 161.048 5.92084 161.014 5.84187C160.981 5.7629 160.974 5.78982 160.954 5.88136C160.924 6.02852 160.789 5.98725 160.785 5.81136C160.782 5.63368 160.75 5.72342 160.695 5.84726C160.621 6.01955 160.512 5.97827 160.512 5.82751C160.513 5.70547 160.469 5.5924 160.414 5.74675Z" fill="white"/>
<path d="M158.554 9.24578C158.883 8.84556 159.313 8.63198 159.523 8.56737C159.666 8.5225 159.735 8.46507 159.737 8.59788C159.74 8.73069 159.735 8.73428 159.615 8.76838C159.349 8.84376 158.805 9.12194 158.621 9.26732C158.531 9.33911 158.42 9.4109 158.554 9.24578Z" fill="white"/>
<path d="M158.799 9.99963C158.818 10.1109 158.809 10.1881 158.811 10.2437C158.813 10.3209 158.769 10.407 158.74 10.5111C158.606 11.0029 158.811 11.2506 158.924 11.0657C159.037 10.8808 159.086 10.9078 159.081 11.0478C159.063 11.5521 158.597 11.5826 158.56 11.1716C158.502 10.5093 158.649 10.407 158.698 10.1755C158.73 10.0301 158.783 9.90989 158.799 9.99963Z" fill="white"/>
<path d="M161.216 8.99169C161.168 9.00784 161.122 9.024 161.083 9.03656C160.887 9.10296 160.845 9.01682 160.856 8.88939C160.866 8.76376 160.887 8.72069 161.018 8.78171C161.073 8.80683 161.149 8.8858 161.216 8.99169L161.523 8.87144C161.47 8.74402 161.389 8.64172 161.255 8.5125C161.048 8.31149 160.888 8.30072 160.715 8.55198C160.545 8.79786 160.556 8.8535 160.57 9.07784C160.584 9.30218 160.54 9.37756 160.706 9.43858C160.872 9.4996 160.944 9.47447 161.045 9.44037C161.122 9.41345 161.232 9.37576 161.353 9.3309C161.376 9.45294 161.364 9.57318 161.29 9.66472C160.875 10.1852 160.213 10.5549 159.926 10.2121C159.77 10.0273 159.702 9.73471 159.751 9.38474C159.79 9.09938 159.7 9.22501 159.668 9.3309C159.566 9.66831 159.534 10.1583 159.672 10.4024C159.866 10.7451 160.176 10.8941 160.667 10.6698C161.157 10.4454 161.634 10.0524 161.615 9.50319C161.611 9.40268 161.606 9.31474 161.599 9.23757C161.653 9.21603 161.731 9.15322 161.782 9.12988C161.793 9.31654 161.777 9.54806 161.784 9.74189C161.805 10.3288 161.583 10.5082 161.375 10.6752C161.087 10.9085 160.699 11.0592 160.362 11.1095C159.582 11.2261 159.393 10.7164 159.407 10.0344C159.409 9.92136 159.449 9.86034 159.446 9.69702C159.44 9.40807 159.403 9.45832 159.319 9.74907C159.236 10.0308 159.13 10.6841 159.398 11.219C159.666 11.7538 160.595 11.6012 161.311 11.2513C162.027 10.8995 162.105 10.2354 162.073 9.57498C162.065 9.40089 162.054 9.21424 162.043 9.01502C162.066 8.99887 162.084 8.98272 162.098 8.96836C162.197 9.30218 162.675 9.21603 162.825 9.0222C162.901 8.92528 162.903 8.91093 162.979 9.01682C163.083 9.16398 163.432 9.21962 163.519 9.00246C163.605 8.7853 163.591 8.57711 163.57 8.4102C163.549 8.24329 163.513 8.25585 163.404 8.342C163.296 8.42814 163.383 8.44968 163.395 8.56634C163.444 9.00066 163.067 8.97015 163.023 8.51429C162.996 8.2379 162.952 8.342 162.913 8.47122C162.751 9.01323 162.287 9.11732 162.335 8.48737C162.347 8.31149 162.236 8.36353 162.169 8.43532C162.121 8.48737 162.068 8.53403 162.015 8.57711C161.982 8.0674 161.939 7.47873 161.89 6.78417C162.024 6.95646 162.158 6.75725 162.065 6.56341C161.992 6.41445 161.89 6.07166 161.823 5.88321C161.757 5.69656 161.724 5.7522 161.583 5.91013C161.442 6.06627 161.47 6.10935 161.528 6.26728C161.514 6.47368 161.546 6.66751 161.592 7.07671C161.623 7.36746 161.715 7.97228 161.763 8.73325C161.692 8.77273 161.592 8.83914 161.523 8.86965L161.216 8.99169Z" fill="white"/>
<path d="M162.844 9.79627C162.869 9.88422 162.859 10.0673 162.825 10.1516C162.781 10.2575 162.825 10.3042 162.894 10.1696C162.964 10.0332 163.002 9.87345 162.975 9.71013C162.956 9.58629 162.957 9.55578 162.852 9.50732C162.746 9.45886 162.71 9.53424 162.67 9.62757C162.626 9.73884 162.691 9.87345 162.844 9.79627Z" fill="white"/>
<path d="M163.16 7.24833C163.028 7.42781 162.92 7.67548 163.111 7.83701C163.215 7.92495 163.434 7.81547 163.513 7.63959C163.593 7.4637 163.559 7.4314 163.423 7.59292C163.236 7.81368 163.039 7.61446 163.238 7.30936C163.376 7.09758 163.302 7.0563 163.16 7.24833Z" fill="white"/>
<path d="M163.457 6.21275C163.482 6.16249 163.501 6.11045 163.517 6.0584C163.538 5.9902 163.473 5.92738 163.427 6.03148C163.397 6.10506 163.383 6.16249 163.457 6.21275L163.328 6.4335C163.184 6.31146 163.178 6.11942 163.24 5.95251C163.371 5.60074 163.831 5.64202 163.711 6.10327C163.692 6.18044 163.664 6.26659 163.621 6.35991C163.681 6.45683 163.65 6.57169 163.519 6.54477C163.36 6.79065 163.083 7.05807 162.58 7.28779C162.356 7.39009 162.319 7.30753 162.488 7.19806C162.822 6.98448 163.129 6.71707 163.328 6.4317L163.457 6.21275Z" fill="white"/>
<path d="M163.984 6.2542C163.801 6.77288 163.809 7.2772 164.183 7.70255C164.402 7.95202 164.566 7.83357 164.663 7.57333C164.76 7.3131 164.824 7.05286 164.896 6.88236C164.969 6.71365 165.023 6.74775 165.008 6.90749C164.972 7.23054 164.96 7.7546 165.279 7.95202C165.6 8.14765 166.091 7.80844 166.257 7.46206C166.779 8.1656 167.235 7.83357 167.286 7.16413C167.302 6.95415 167.206 6.49649 167.148 6.36548C167.09 6.23446 167.132 6.22549 167.208 6.30087C167.286 6.37625 167.43 6.42829 167.358 6.20036C167.284 5.97064 167.185 5.8468 167.067 5.7445C166.949 5.6422 166.922 5.69784 166.875 5.7768C166.829 5.85577 166.839 5.8791 166.772 5.94371C166.705 6.00833 166.719 6.04243 166.77 6.17524C166.966 6.68135 167.159 7.42796 166.839 7.49795C166.559 7.56077 166.375 6.93441 166.363 6.64905C166.349 6.27933 166.308 5.96525 166.234 5.76424C166.162 5.56323 166.13 5.52913 166.073 5.6422C166.033 5.71937 166.02 5.7768 165.975 5.86116C165.929 5.94551 165.971 5.96884 166.005 6.12498C166.179 6.94697 166.163 7.3113 165.796 7.52846C165.429 7.74563 165.235 7.53385 165.23 7.27541C165.225 7.01697 165.221 6.70827 165.249 6.47675C165.279 6.24523 165.327 6.20216 165.249 6.0855C165.172 5.96884 165.108 6.00653 164.999 6.15908C164.769 6.48034 164.542 7.02773 164.466 7.28977C164.388 7.5518 164.219 7.46027 164.111 7.23772C163.986 6.97928 164 6.49829 164.042 6.31163C164.081 6.12319 164.06 6.04063 163.984 6.2542Z" fill="white"/>
<path d="M165.535 5.79447C165.463 5.88062 165.454 5.89139 165.528 5.9883C165.592 6.07086 165.696 6.33469 165.668 6.59492C165.653 6.72055 165.68 6.83362 165.731 6.62364C165.782 6.41365 165.768 6.11932 165.71 5.94523C165.652 5.77114 165.588 5.72986 165.535 5.79447Z" fill="white"/>
<path d="M167.194 8.82105C167.277 8.79951 167.36 8.77797 167.445 8.75823C167.689 8.7026 167.553 8.68106 167.387 8.57337C167.219 8.46569 167.156 8.46749 167.168 8.58773C167.171 8.65773 167.17 8.72772 167.194 8.82105L166.894 8.90899C166.7 8.62004 166.827 8.40826 166.974 8.1911C167.161 7.9165 167.456 8.00265 167.8 8.24673C168.144 8.49082 168.006 8.87669 167.68 9.07052C167.593 9.12256 167.487 9.16743 167.371 9.21051C167.397 9.29845 167.355 9.32178 167.249 9.25358C166.956 9.35408 166.559 9.50843 166.293 9.65201C166.623 9.68252 167.996 9.65022 168.269 9.62509C168.544 9.59996 168.499 9.64842 168.421 9.88353C168.343 10.1186 168.253 10.0953 168.013 10.1384C167.648 10.2012 167.119 10.3627 166.729 10.5296C166.337 10.6965 166.473 10.9801 166.87 11.1309C167.184 11.217 167.143 11.2511 167.092 11.4342C167.041 11.6172 167.044 11.6585 166.669 11.5975C165.746 11.4485 165.409 10.9281 165.264 10.5225C164.682 11.3498 164.131 11.8003 163.603 11.6639C163.34 11.5957 163.21 11.3588 163.185 11.0483C162.822 11.2278 162.396 11.3768 161.855 11.5473C161.728 11.5867 161.623 11.5293 161.788 11.4467C162.155 11.2619 162.732 10.9442 163.199 10.6176C163.243 10.3986 163.342 10.1151 163.45 9.90148C163.512 9.77943 163.54 9.8243 163.542 9.9266C163.543 10.011 163.519 10.2191 163.524 10.3717C163.614 10.3017 163.725 10.2227 163.782 10.1707C164.101 9.87456 164.459 9.69508 164.214 9.22307C164.108 9.02026 164.032 8.87309 163.993 8.77079C163.79 8.69183 163.852 8.57876 163.939 8.37954C164.027 8.18212 164.064 8.13366 164.249 8.35442C164.512 8.66491 164.542 8.8049 164.359 8.78156C164.65 9.52997 164.579 9.90866 164.135 10.3627C163.923 10.5781 163.706 10.7486 163.464 10.8958C163.439 11.0968 163.515 11.2924 163.887 11.235C164.36 11.1632 164.902 10.5207 165.132 10.0307C165.029 9.6215 164.8 8.89643 164.66 8.52312C164.588 8.32929 164.659 8.25212 164.72 8.10315C164.782 7.9524 164.825 7.85907 164.904 8.06188C164.982 8.26468 165.23 8.76362 165.352 9.35767C165.474 9.95173 165.449 10.465 165.747 10.7468C165.882 10.8724 166.056 10.946 166.236 10.9963C166.104 10.596 166.386 10.3017 166.771 10.1563C166.538 9.93917 166.176 9.96968 165.783 9.95353C165.477 9.94096 165.52 9.90866 165.597 9.63765C165.673 9.36485 165.772 9.33075 165.991 9.24281C166.282 9.12436 166.58 9.0095 166.889 8.91437L167.194 8.82105Z" fill="white"/>
<path d="M165.867 8.33198C165.842 8.49171 165.881 8.5976 165.938 8.67477C165.994 8.75374 166.11 8.74297 166.142 8.65503C166.181 8.54735 166.202 8.53478 166.275 8.61555C166.354 8.70349 166.619 8.6317 166.486 8.22429C166.432 8.05738 166.405 8.09148 166.407 8.28532C166.41 8.57427 166.319 8.57247 166.218 8.29608C166.179 8.19019 166.133 8.1884 166.126 8.32659C166.116 8.5958 166.006 8.6299 165.943 8.36608C165.916 8.24404 165.893 8.15789 165.867 8.33198Z" fill="white"/>
<path d="M169.258 5.80824C169.209 5.89439 169.177 5.96977 169.272 6.04156C169.362 6.10976 169.5 6.29103 169.442 6.50819C169.4 6.67151 169.438 6.79355 169.541 6.55665C169.645 6.31615 169.562 6.02361 169.456 5.83875C169.366 5.67543 169.311 5.71312 169.258 5.80824Z" fill="white"/>
<path d="M170.116 10.0387C170.019 9.51642 169.551 8.67828 168.852 7.58169C168.829 7.29633 168.815 7.02174 168.815 6.78124C168.914 6.89072 168.988 6.82611 168.951 6.68074C168.881 6.40614 168.777 6.1836 168.66 5.88208C168.609 5.75106 168.487 5.72055 168.42 5.909C168.342 6.12796 168.337 6.17642 168.436 6.32179C168.431 6.49408 168.482 6.77227 168.501 7.02353C168.381 6.84047 168.219 6.60356 168.09 6.40973C168.284 6.4887 168.402 6.43127 168.233 6.23923C168.064 6.0472 167.822 5.84798 167.672 5.70979C167.522 5.57339 167.451 5.65953 167.472 5.78875C167.494 5.91797 167.495 6.0113 167.488 6.11539C167.481 6.21769 167.508 6.2841 167.659 6.34512C167.954 6.74535 168.258 7.15814 168.531 7.56913C168.568 7.92269 168.635 8.30677 168.671 8.61905C168.755 9.35848 168.895 10.3294 168.78 10.7512C168.695 11.0635 168.787 11.2017 168.928 10.7225C169.069 10.2433 169.054 9.7946 168.969 9.08389C168.935 8.80032 168.919 8.45214 168.884 8.12729C169.364 8.89005 169.796 9.60795 169.992 10.1051C170.093 10.3707 170.188 10.4281 170.116 10.0387Z" fill="white"/>
<path d="M169.349 7.11337C169.388 7.24977 169.455 7.32335 169.483 7.15285C169.508 7.00389 169.552 6.95543 169.579 7.11875C169.605 7.28207 169.697 7.25695 169.725 7.10619C169.753 6.95723 169.808 6.86749 169.829 7.03799C169.85 7.21028 169.835 7.26592 169.817 7.31797C169.799 7.37002 169.718 7.43283 169.644 7.35925C169.57 7.28566 169.542 7.28746 169.483 7.34489C169.362 7.46334 169.312 7.37899 169.293 7.21926C169.275 7.07747 169.325 7.02543 169.349 7.11337Z" fill="white"/>
<path d="M167.502 11.0702C167.622 11.0002 167.678 10.9482 167.767 10.9033C167.855 10.8602 167.924 10.871 167.86 11.0756C167.79 11.3017 167.82 11.3753 167.968 11.3179C168.104 11.2658 168.187 11.2156 168.308 11.1635C168.409 11.1222 168.522 11.1151 168.365 11.2461C168.236 11.3538 168.054 11.4866 167.95 11.5135C167.717 11.5745 167.606 11.4794 167.65 11.2963C167.694 11.1133 167.731 11.0523 167.592 11.1079C167.43 11.1779 167.442 11.1061 167.502 11.0702Z" fill="white"/>
<path d="M170.383 6.62809C170.468 6.71065 170.577 6.71783 170.519 6.54195C170.461 6.36606 170.418 6.15249 170.36 5.95866C170.302 5.76483 170.263 5.71816 170.192 5.81328C170.122 5.90841 170.058 5.9461 170.004 6.0125C169.951 6.07891 169.938 6.20633 170.005 6.31581C170.251 8.08003 170.267 8.85715 170.302 9.50685C170.335 10.1565 170.424 10.4616 170.028 10.8996C169.591 11.3841 169.322 11.4954 169.134 11.5457C168.89 11.6103 168.804 11.7162 169.164 11.6964C169.711 11.6659 169.78 11.6462 170.224 11.1293C170.471 10.8439 170.595 10.4778 170.577 9.61094C170.547 8.10337 170.35 7.4447 170.383 6.62809Z" fill="white"/>
<path d="M171.171 6.67545C171.328 6.76518 171.494 6.80826 171.371 6.61443C171.247 6.4206 171.148 6.10652 171.071 5.875C170.993 5.64348 170.977 5.65604 170.85 5.85166C170.654 6.15498 170.824 6.44213 170.87 6.79569C171.034 8.04124 171.191 9.31191 171.233 9.64573C171.283 10.0226 171.339 10.2649 171.244 10.6777C171.215 10.8015 171.263 10.841 171.341 10.6903C171.658 10.0675 171.44 9.53087 171.406 9.1791C171.353 8.64966 171.173 7.22643 171.133 6.65391L171.171 6.67545Z" fill="white"/>
<path d="M171.964 7.63177C171.94 7.73945 171.793 7.73945 171.805 7.621C171.816 7.50434 171.807 7.52049 171.805 7.42717C171.804 7.33384 171.913 7.28 171.973 7.36256C172.035 7.44511 172.153 7.69458 172.192 7.7915C172.231 7.88841 172.254 7.86508 172.25 7.73048C172.247 7.57613 172.222 7.43973 172.234 7.34281C172.243 7.28179 172.273 7.2118 172.349 7.15437C172.427 7.09693 172.467 7.08258 172.501 7.18308C172.534 7.28538 172.601 7.29436 172.57 7.37691C172.524 7.49357 172.411 7.25487 172.351 7.41819C172.308 7.53485 172.342 7.86688 172.338 7.97456C172.337 8.08224 172.291 8.24018 172.208 8.05712C172.157 7.94225 172.067 7.74125 171.964 7.63177Z" fill="white"/>
<path d="M171.914 9.04642C171.911 8.97643 171.944 8.94592 172.087 8.82926C172.197 8.74132 172.514 8.50262 172.622 8.39852C172.73 8.29263 172.811 8.19931 172.827 8.32853C172.842 8.45954 172.865 8.508 172.738 8.57261C172.611 8.63543 172.28 8.84003 172.172 8.92617C172.064 9.01232 171.92 9.13795 171.914 9.04642Z" fill="white"/>
<path d="M175.061 9.96618C175.049 9.79389 174.999 9.64133 174.791 9.32366C174.592 9.02035 174.399 8.73679 174.218 8.47296C174.158 7.77122 174.082 7.02281 174.076 6.62977C174.175 6.71771 174.242 6.63336 174.196 6.4808C174.152 6.32825 174.06 5.91726 173.995 5.75035C173.93 5.58344 173.861 5.62113 173.776 5.76829C173.69 5.91726 173.637 5.98725 173.686 6.1057C173.713 6.77694 173.812 7.43201 173.91 8.03145C173.727 7.77122 173.556 7.53072 173.397 7.30459C173.381 7.04615 173.365 6.7877 173.351 6.53106C173.455 6.61182 173.498 6.59746 173.445 6.43773C173.393 6.278 173.27 5.94597 173.212 5.79342C173.153 5.64087 173.115 5.63728 173.037 5.75932C172.913 5.95495 172.878 6.08955 172.984 6.27262C172.998 6.44491 173.012 6.61002 173.025 6.76976C172.928 6.62797 172.838 6.49157 172.756 6.36056C172.859 6.4144 172.938 6.31928 172.827 6.21877C172.714 6.11827 172.5 5.937 172.405 5.80778C172.312 5.67856 172.209 5.68215 172.213 5.80239C172.215 5.91367 172.227 6.02494 172.209 6.12006C172.193 6.21339 172.195 6.30851 172.328 6.47183C172.594 6.80027 172.848 7.13588 173.083 7.45714C173.18 8.61295 173.236 9.35956 173.213 9.83157C173.201 10.1062 173.104 10.2677 172.958 10.3179C172.811 10.3682 172.663 10.2677 172.522 10.0577C172.275 9.68979 172.183 9.75799 171.991 10.0792C171.805 10.3915 171.673 10.6446 171.576 10.8618C171.479 11.0789 171.318 11.2584 171.175 10.982C171.032 10.7056 171.016 10.3879 171.02 10.1654C171.025 9.94105 170.992 9.76517 170.909 10.1205C170.706 10.982 170.824 11.1633 171.053 11.3571C171.343 11.603 171.433 11.6281 171.586 11.4109C171.881 10.9946 171.964 10.6195 172.133 10.4113C172.266 10.248 172.276 10.3754 172.336 10.4543C172.506 10.6751 172.663 10.7541 172.903 10.7953C173.141 10.8366 173.577 10.632 173.542 9.82081C173.52 9.32905 173.478 8.665 173.434 7.95069C173.667 8.27913 173.87 8.57346 174.034 8.7996C174.108 9.26982 174.158 9.6862 174.136 10.0236C174.112 10.4149 174.191 10.4149 174.269 10.011C174.299 9.85311 174.29 9.5175 174.263 9.11009C174.57 9.52467 174.752 9.79927 174.879 10.0075C175.026 10.2462 175.098 10.4561 175.061 9.96618Z" fill="white"/>
<path d="M174.389 6.11997C174.322 6.22586 174.329 6.25458 174.409 6.38559C174.488 6.51661 174.562 6.77326 174.559 6.97606C174.555 7.17887 174.624 7.15015 174.661 6.96709C174.698 6.78403 174.684 6.44123 174.584 6.19176C174.481 5.94409 174.442 6.03562 174.389 6.11997Z" fill="white"/>
<path d="M175.317 6.48201C175.444 6.60584 175.511 6.56097 175.424 6.36714C175.338 6.17331 175.251 5.96512 175.165 5.77129C175.079 5.57746 175.052 5.62053 174.944 5.76232C174.837 5.9041 174.826 6.00281 174.869 6.08537C175.086 7.94112 175.184 8.9031 175.214 9.46306C175.258 10.2725 175.068 10.7355 174.29 11.2596C174.032 11.4337 173.748 11.6347 174.35 11.4821C174.951 11.3296 175.592 10.9258 175.527 9.23333C175.467 7.72396 175.274 7.05632 175.317 6.48201Z" fill="white"/>
<path d="M173.723 10.9284C173.677 11.0486 173.442 10.9553 173.534 10.8207C173.606 10.7184 173.772 10.704 173.843 10.7938C174.019 11.0163 173.758 11.3124 173.636 11.4004C173.515 11.4865 173.419 11.4829 173.601 11.325C173.714 11.2227 173.794 11.0325 173.723 10.9284Z" fill="white"/>
<path d="M160.547 16.1953C164.35 16.242 168.888 16.2922 172.751 16.2079C173.171 16.1989 173.349 16.2617 173.385 16.6314C173.415 16.9455 173.323 17.2022 173.108 17.2165C172.929 17.2291 172.73 17.0065 172.843 16.6332C167.973 16.7822 164.36 16.7965 163.226 16.7786C162.093 16.7607 160.917 16.8073 160.547 16.1953Z" fill="white"/>
<path d="M172.275 16.9658C172.273 16.9012 172.183 16.8617 172.144 16.8617C172.106 16.8635 172.017 16.9065 172.019 16.9712L171.495 16.9819C171.479 16.9478 171.449 16.9083 171.4 16.8509L171.384 16.0935C171.523 15.9159 171.506 15.8979 171.401 15.7436C171.35 15.67 171.315 15.5892 171.216 15.7471C171.119 15.9051 171.101 15.9248 171.248 16.0953L171.264 16.8527C171.124 17.0304 171.142 17.0483 171.246 17.2027C171.35 17.357 171.384 17.2745 171.431 17.1991C171.451 17.1686 171.467 17.1435 171.479 17.1201L172.023 17.1076C172.024 17.1722 172.113 17.2134 172.153 17.2134C172.192 17.2117 172.28 17.1668 172.278 17.1022L173.064 17.0842L173.06 16.946L172.275 16.9658Z" fill="white"/>
<path d="M152.664 53.2771C152.177 53.2771 151.781 52.8751 151.781 52.3797V1.38955C151.781 0.894208 152.177 0.492188 152.664 0.492188C153.151 0.492188 153.546 0.894208 153.546 1.38955V52.3797C153.546 52.8751 153.151 53.2771 152.664 53.2771Z" fill="#2C2C2C"/>
<path d="M167.935 51.4688H155.663C155.517 51.4688 155.398 51.589 155.398 51.738V59.3656C155.398 59.5145 155.517 59.6348 155.663 59.6348H167.935C168.081 59.6348 168.199 59.5145 168.199 59.3656V51.738C168.199 51.589 168.079 51.4688 167.935 51.4688Z" fill="#2C2C2C"/>
<path d="M194.52 51.4688H182.249C182.103 51.4688 181.984 51.589 181.984 51.738V59.3656C181.984 59.5145 182.103 59.6348 182.249 59.6348H194.52C194.667 59.6348 194.785 59.5145 194.785 59.3656V51.738C194.785 51.589 194.667 51.4688 194.52 51.4688Z" fill="#2C2C2C"/>
<path d="M221.106 51.4688H208.835C208.689 51.4688 208.57 51.589 208.57 51.738V59.3656C208.57 59.5145 208.689 59.6348 208.835 59.6348H221.106C221.253 59.6348 221.371 59.5145 221.371 59.3656V51.738C221.371 51.589 221.253 51.4688 221.106 51.4688Z" fill="#2C2C2C"/>
<path d="M247.7 51.4688H235.429C235.282 51.4688 235.164 51.589 235.164 51.738V59.3656C235.164 59.5145 235.282 59.6348 235.429 59.6348H247.7C247.847 59.6348 247.965 59.5145 247.965 59.3656V51.738C247.965 51.589 247.847 51.4688 247.7 51.4688Z" fill="#2C2C2C"/>
<path d="M274.286 51.4688H262.015C261.868 51.4688 261.75 51.589 261.75 51.738V59.3656C261.75 59.5145 261.868 59.6348 262.015 59.6348H274.286C274.433 59.6348 274.551 59.5145 274.551 59.3656V51.738C274.551 51.589 274.433 51.4688 274.286 51.4688Z" fill="#2C2C2C"/>
<path d="M300.872 51.4688H288.601C288.454 51.4688 288.336 51.589 288.336 51.738V59.3656C288.336 59.5145 288.454 59.6348 288.601 59.6348H300.872C301.018 59.6348 301.137 59.5145 301.137 59.3656V51.738C301.137 51.589 301.018 51.4688 300.872 51.4688Z" fill="#2C2C2C"/>
<path d="M327.458 51.4688H315.187C315.04 51.4688 314.922 51.589 314.922 51.738V59.3656C314.922 59.5145 315.04 59.6348 315.187 59.6348H327.458C327.604 59.6348 327.723 59.5145 327.723 59.3656V51.738C327.723 51.589 327.604 51.4688 327.458 51.4688Z" fill="#2C2C2C"/>
<path d="M354.052 51.4688H341.78C341.634 51.4688 341.516 51.589 341.516 51.738V59.3656C341.516 59.5145 341.634 59.6348 341.78 59.6348H354.052C354.198 59.6348 354.316 59.5145 354.316 59.3656V51.738C354.316 51.589 354.198 51.4688 354.052 51.4688Z" fill="#2C2C2C"/>
<path d="M108.114 85.522C108.114 87.4496 106.577 89.0128 104.682 89.0128C102.787 89.0128 101.25 87.4496 101.25 85.522C101.25 83.5945 102.787 82.0312 104.682 82.0312C106.577 82.0312 108.114 83.5945 108.114 85.522Z" fill="#2C2C2C"/>
<path d="M108.755 85.4361C108.755 87.3636 107.218 88.9268 105.323 88.9268C103.428 88.9268 101.891 87.3636 101.891 85.4361C101.891 83.5085 103.428 81.9453 105.323 81.9453C107.218 81.9453 108.755 83.5085 108.755 85.4361Z" fill="#EBB542"/>
<path d="M106.214 86.957C106.071 86.9929 105.842 87.0342 105.535 87.0342C104.815 87.0342 104.344 86.5657 104.344 85.7186V85.2825C104.344 84.4354 104.813 83.9688 105.535 83.9688C105.842 83.9688 106.071 84.01 106.214 84.0477C106.29 84.0693 106.322 84.089 106.322 84.1662V84.6292C106.322 84.6813 106.276 84.7172 106.225 84.7172H106.214C106.025 84.6956 105.883 84.6813 105.591 84.6813C105.362 84.6813 105.173 84.8213 105.173 85.2843V85.7204C105.173 86.1835 105.362 86.3234 105.591 86.3234C105.883 86.3234 106.025 86.3073 106.214 86.2876H106.225C106.276 86.2876 106.322 86.3234 106.322 86.3755V86.8385C106.322 86.9157 106.292 86.9372 106.214 86.957Z" fill="#171B21"/>
<path d="M129.099 66.7486C129.099 68.6761 127.562 70.2393 125.667 70.2393C123.771 70.2393 122.234 68.6761 122.234 66.7486C122.234 64.821 123.771 63.2578 125.667 63.2578C127.562 63.2578 129.099 64.821 129.099 66.7486Z" fill="#2C2C2C"/>
<path d="M129.747 66.6548C129.747 68.5824 128.21 70.1456 126.315 70.1456C124.42 70.1456 122.883 68.5824 122.883 66.6548C122.883 64.7273 124.42 63.1641 126.315 63.1641C128.21 63.1641 129.747 64.7273 129.747 66.6548Z" fill="#EBB542"/>
<path d="M127.199 68.1757C127.056 68.2116 126.826 68.2529 126.519 68.2529C125.799 68.2529 125.328 67.7845 125.328 66.9374V66.5012C125.328 65.6541 125.798 65.1875 126.519 65.1875C126.826 65.1875 127.056 65.2288 127.199 65.2665C127.275 65.288 127.306 65.3077 127.306 65.3849V65.848C127.306 65.9 127.26 65.9359 127.209 65.9359H127.199C127.01 65.9144 126.867 65.9 126.576 65.9C126.346 65.9 126.158 66.04 126.158 66.503V66.9392C126.158 67.4022 126.346 67.5422 126.576 67.5422C126.867 67.5422 127.01 67.526 127.199 67.5063H127.209C127.26 67.5063 127.306 67.5422 127.306 67.5942V68.0573C127.306 68.1345 127.276 68.156 127.199 68.1757Z" fill="#171B21"/>
<path d="M121.712 125.477L126.946 126.78C126.383 125.829 125.732 124.996 125.012 124.27L132.411 126.111C129.242 120.757 123.329 119.155 117.703 119.216L124.71 117.532C123.846 116.985 122.958 116.572 122.056 116.279L128.972 114.617C124.147 111.561 118.617 112.735 113.992 115.172C113.845 115.183 113.699 115.195 113.553 115.212L118.704 111.148C117.823 111.032 116.972 111.032 116.154 111.13L121.049 107.268C115.711 106.563 111.486 110.123 108.661 114.174C108.64 114.066 108.62 113.959 108.604 113.851C108.44 112.726 108.034 110.479 107.798 109.366C107.472 107.871 107.152 106.376 106.736 104.883L106.222 104.886C105.488 107.774 104.908 110.931 104.498 113.885C104.484 113.993 104.466 114.101 104.447 114.208C101.556 110.206 97.2772 106.715 91.9497 107.51L96.9066 111.292C96.086 111.207 95.2355 111.222 94.3567 111.353L99.573 115.332C99.4283 115.317 99.28 115.308 99.1336 115.299C94.4696 112.939 88.9215 111.859 84.1464 114.994L91.0868 116.541C90.1903 116.85 89.3098 117.275 88.4539 117.837L95.486 119.404C89.8603 119.436 83.9735 121.138 80.8906 126.543L88.2598 124.58C87.5522 125.318 86.9151 126.163 86.3663 127.123L91.5791 125.734C87.291 128.266 83.7441 132.069 83.1635 137.508L89.3786 132.461C89.0098 133.469 88.7539 134.55 88.6304 135.702L92.7649 132.344C89.7403 136.632 87.9633 141.801 89.6733 147.257L93.5573 139.676C93.6261 140.812 93.8326 141.966 94.1979 143.134L96.656 138.335C95.6819 142.96 96.0507 147.806 99.2024 151.824L100.145 143.57C100.595 144.577 101.175 145.553 101.906 146.485L104.424 137.502L109.227 137.463L111.719 146.404C112.434 145.46 113 144.475 113.433 143.461L114.507 151.698C117.594 147.63 117.885 142.779 116.837 138.17L119.372 142.928C119.72 141.754 119.907 140.596 119.956 139.458L123.962 146.973C125.584 141.49 123.724 136.352 120.631 132.114L124.818 135.402C124.677 134.252 124.403 133.177 124.019 132.174L130.313 137.116C129.648 131.68 126.041 127.938 121.712 125.477Z" fill="#00763C"/>
</svg>
