<svg width="147" height="170" viewBox="0 0 147 170" fill="none" xmlns="http://www.w3.org/2000/svg">
<path fill-rule="evenodd" clip-rule="evenodd" d="M15.7389 91.374V163.347C15.7833 165.248 16.1427 166.958 17.7271 168.156L4.04483 160.259C2.4623 159.057 2.07779 157.328 2.04688 155.436V83.4517L15.7389 91.374Z" fill="white"/>
<path fill-rule="evenodd" clip-rule="evenodd" d="M17.7272 169.406C17.5263 169.406 17.3137 169.354 17.1089 169.25L3.42468 161.349C1.15041 159.637 0.827666 157.306 0.785156 155.457V83.4535C0.785156 83.0148 1.03254 82.5975 1.41706 82.3714C1.80158 82.1492 2.2788 82.1492 2.67685 82.3714L16.3727 90.2841C16.7572 90.5082 17.0026 90.9217 17.0026 91.3738V163.347C17.0432 165.304 17.4605 166.373 18.4982 167.151C19.0218 167.561 19.1494 168.297 18.7862 168.854C18.5408 169.217 18.1465 169.406 17.7272 169.406ZM3.29518 85.635V155.438C3.34156 157.361 3.77638 158.473 4.81207 159.254L14.6066 164.898C14.5332 164.375 14.5004 163.861 14.4888 163.382V92.1004L3.29518 85.635Z" fill="#18265A"/>
<path fill-rule="evenodd" clip-rule="evenodd" d="M106.613 37.9076V109.884C106.613 112.34 105.747 115.078 104.345 117.495C102.946 119.92 101.019 122.036 98.8955 123.267L22.6119 167.311C18.3686 169.755 14.8828 167.744 14.8828 162.84V90.867L106.613 37.9076Z" fill="white"/>
<path fill-rule="evenodd" clip-rule="evenodd" d="M19.1823 169.609C18.2297 169.609 17.3331 169.389 16.5293 168.925C14.6608 167.849 13.6367 165.687 13.6367 162.844V90.8717C13.6367 90.4195 13.8821 90.0041 14.2666 89.7877L105.993 36.8205C106.377 36.6003 106.859 36.6003 107.245 36.8205C107.63 37.0466 107.875 37.462 107.875 37.9122V109.889C107.875 112.484 107.007 115.413 105.437 118.126C103.868 120.847 101.759 123.071 99.5141 124.36L23.244 168.39C21.8335 169.204 20.4537 169.609 19.1823 169.609ZM16.1449 91.5963V162.844C16.1449 164.754 16.7322 166.137 17.793 166.746C18.8403 167.356 20.3359 167.163 21.9938 166.222L98.2639 122.18C100.134 121.102 101.908 119.22 103.257 116.866C104.594 114.569 105.351 112.028 105.351 109.889V40.0977L16.1449 91.5963Z" fill="#18265A"/>
<path fill-rule="evenodd" clip-rule="evenodd" d="M23.4673 54.7065C60.6034 33.2623 88.4203 17.1956 99.7395 10.6665C101.865 9.43562 103.799 9.32162 105.202 10.1332C106.601 10.9428 107.468 12.676 107.468 15.1261V38.4157L15.7383 91.375V68.0797C15.7383 65.6219 16.6059 62.8935 18.0068 60.4685C19.4057 58.0435 21.338 55.9258 23.4673 54.7065Z" fill="white"/>
<path fill-rule="evenodd" clip-rule="evenodd" d="M15.7384 92.625C15.5259 92.625 15.3133 92.569 15.1201 92.453C14.7239 92.2366 14.4883 91.8076 14.4883 91.3729V68.0776C14.4883 65.4922 15.35 62.561 16.9152 59.8365C18.4977 57.1217 20.5923 54.9072 22.8375 53.6146L99.1173 9.57451C101.567 8.15043 103.96 7.96309 105.83 9.03743C107.702 10.1214 108.728 12.2778 108.728 15.124V38.4136C108.728 38.8619 108.483 39.2792 108.099 39.4936L16.3722 92.453C16.177 92.569 15.9625 92.625 15.7384 92.625ZM24.0897 55.7846C22.2502 56.855 20.4339 58.7892 19.0967 61.1002C17.748 63.4401 17.0021 65.9193 17.0021 68.0776V89.1914L106.205 37.689V15.124C106.205 13.2168 105.631 11.8276 104.57 11.2209C103.509 10.6084 102.016 10.8035 100.368 11.7561L24.0897 55.7846Z" fill="#18265A"/>
<path fill-rule="evenodd" clip-rule="evenodd" d="M8.98495 46.33C34.4154 31.6545 59.8459 16.979 85.2648 2.29961C86.9323 1.37985 88.6094 0.844612 90.4509 1.62525L104.933 9.98418C103.096 9.20355 101.418 9.73878 99.7393 10.6585L98.6263 11.2884L97.4283 11.9918C72.7669 26.221 48.1209 40.4598 23.4672 54.6986C19.1486 57.3187 15.8039 62.932 15.7382 68.0718V91.3672L1.25391 83.0062V59.7129C1.32154 54.5731 4.67601 48.9482 8.98495 46.33Z" fill="white"/>
<path fill-rule="evenodd" clip-rule="evenodd" d="M15.7382 92.625C15.5256 92.625 15.3131 92.569 15.1198 92.453L0.633787 84.0902C0.247335 83.8777 0 83.4507 0 83.0121V59.7187C0.0579678 54.2253 3.56299 48.1521 8.33181 45.2653C8.33954 45.2556 8.33959 45.2556 8.36471 45.2556L84.6348 1.21557C86.2831 0.305473 88.4588 -0.571808 90.9301 0.477409L105.553 8.90215C106.133 9.23257 106.344 9.95719 106.058 10.5465C105.758 11.1436 105.051 11.4024 104.429 11.1435C103.235 10.6411 102.058 10.8247 100.348 11.7637L24.0894 55.7846C20.1109 58.2018 17.0424 63.5019 17.0019 68.0911V91.3729C17.0019 91.8076 16.7565 92.2366 16.372 92.453C16.1768 92.569 15.9623 92.625 15.7382 92.625ZM2.51581 82.2855L14.4881 89.1914V68.0776C14.5402 62.5842 18.0453 56.5208 22.818 53.6262L99.1171 9.5745C99.5461 9.33683 100.014 9.10117 100.532 8.90215L89.8192 2.71111C88.77 2.28215 87.5835 2.46573 85.8619 3.40481L9.62262 47.414C5.6267 49.8525 2.56991 55.1469 2.51581 59.7321V82.2855ZM2.51581 83.0121H2.55638H2.51581Z" fill="#18265A"/>
<path fill-rule="evenodd" clip-rule="evenodd" d="M34.1988 140.93C33.8027 140.93 33.4182 140.831 33.0782 140.632C32.342 140.201 31.9245 139.399 31.9245 138.425V121.794C31.9245 120.359 32.8212 118.792 34.0694 118.085L56.7425 104.999C57.042 104.829 57.3859 104.242 57.3859 103.9V88.1751L34.1872 101.57C33.4626 101.987 32.5429 101.742 32.1255 101.011C31.7081 100.298 31.9535 99.3764 32.6685 98.9591L56.7425 85.0622C57.5888 84.5733 58.497 84.5386 59.2331 84.9598C59.9713 85.3849 60.3984 86.1965 60.3984 87.1703V103.9C60.3984 105.332 59.5017 106.891 58.2516 107.619L35.5689 120.693C35.2694 120.861 34.9273 121.441 34.9273 121.794V137.413L58.1319 124.026C58.8603 123.609 59.7781 123.856 60.1974 124.571C60.6148 125.3 60.3693 126.219 59.6409 126.637L35.5765 140.534C35.1186 140.8 34.649 140.93 34.1988 140.93Z" fill="#18265A"/>
<path fill-rule="evenodd" clip-rule="evenodd" d="M65.0732 123.102C64.6771 123.102 64.3041 123.007 63.9582 122.804C63.224 122.375 62.8047 121.573 62.8047 120.599V102.351V102.301V84.0526C62.8047 82.6092 63.7031 81.0498 64.9456 80.331L87.6168 67.2361C88.4593 66.7569 89.3713 66.7124 90.1191 67.1414C90.8553 67.5684 91.2726 68.3683 91.2726 69.3422V87.6002V87.6542V105.903C91.2726 107.336 90.3742 108.905 89.1221 109.62L66.4489 122.705C66.0006 122.976 65.5311 123.102 65.0732 123.102ZM64.9456 120.099C64.9456 120.108 64.9301 120.108 64.9301 120.108L65.7031 121.401L64.9456 120.099ZM65.8093 103.197L88.2699 90.2319V105.903C88.2699 106.243 87.9279 106.832 87.6168 107.002L65.8093 119.598V103.197ZM88.2699 70.3586L66.4489 82.9396C66.1494 83.1135 65.8093 83.7009 65.8093 84.0526V99.7135L88.2699 86.7558V70.3586Z" fill="#18265A"/>
<path fill-rule="evenodd" clip-rule="evenodd" d="M74.9154 51.5625C74.6584 51.5625 74.3995 51.4987 74.1792 51.3595C73.6962 51.089 73.4102 50.5693 73.4102 49.9799V35.2928C73.4102 34.5624 73.8566 33.7857 74.4981 33.4243L83.0502 28.4932C83.6357 28.1415 84.4086 28.3444 84.7603 28.955C85.1023 29.5521 84.8995 30.3212 84.2908 30.6651L75.9299 35.5054V48.3318L83.1159 44.1735C83.713 43.8334 84.4821 44.0363 84.8338 44.6353C85.1738 45.2362 84.9729 46.0053 84.3758 46.3569L75.7501 51.3267C75.4912 51.4891 75.2013 51.5625 74.9154 51.5625ZM75.7598 35.5923H75.7501H75.7598Z" fill="#18265A"/>
<path fill-rule="evenodd" clip-rule="evenodd" d="M74.6709 43.4922C74.2284 43.4922 73.8149 43.2719 73.5792 42.8623C73.2391 42.2652 73.4401 41.4962 74.0371 41.1522L82.5276 36.2462C83.1246 35.9003 83.8936 36.1072 84.2472 36.7062C84.5911 37.3071 84.3883 38.0857 83.7758 38.4258L75.3009 43.3202C75.1 43.4439 74.8835 43.4922 74.6709 43.4922Z" fill="#18265A"/>
<path fill-rule="evenodd" clip-rule="evenodd" d="M61.502 59.3672C60.7948 59.3672 60.2383 58.8107 60.2383 58.1151V42.3691C60.2383 41.8571 60.5494 41.3953 61.0306 41.204C61.5098 41.0243 62.0546 41.1287 62.4063 41.5151L69.8069 49.3832L69.7315 36.8873C69.7315 36.2033 70.2899 35.6333 70.9816 35.6255C71.6773 35.6255 72.2415 36.1821 72.2415 36.8719L72.34 52.5676C72.34 53.0932 72.029 53.5511 71.5479 53.7559C71.0687 53.9433 70.5198 53.8177 70.172 53.4448L62.7522 45.5438V58.1151C62.7522 58.8107 62.186 59.3672 61.502 59.3672Z" fill="#18265A"/>
<path fill-rule="evenodd" clip-rule="evenodd" d="M49.9348 65.3594C49.3126 65.3594 48.7445 65.2124 48.244 64.9207C46.8992 64.14 46.2461 62.5054 46.2461 59.9123V50.1371C46.2461 49.455 46.8104 48.8868 47.4963 48.8868C48.19 48.8868 48.7581 49.455 48.7581 50.1371V59.9123C48.7581 62.144 49.3222 62.6445 49.5019 62.7431C49.9676 63.0078 50.9821 62.7334 52.2535 61.9934C55.3219 60.2273 56.8581 57.4834 56.8581 53.8295V43.9983C56.8581 43.3084 57.4242 42.7519 58.1218 42.7519C58.8174 42.7519 59.3835 43.3084 59.3835 43.9983V53.8295C59.3835 58.3819 57.3527 61.9605 53.5017 64.1748C52.1356 64.9671 50.9608 65.3594 49.9348 65.3594Z" fill="#18265A"/>
<path fill-rule="evenodd" clip-rule="evenodd" d="M37.9206 72.7812C37.451 72.7812 36.9931 72.6865 36.5525 72.4257C35.0743 71.5832 34.9023 69.6181 34.9023 68.2173C34.9023 67.5216 35.4704 66.9555 36.1582 66.9555C36.85 66.9555 37.4181 67.5216 37.4181 68.2173C37.4181 69.9582 37.8026 70.248 37.8026 70.248C37.8876 70.2905 38.3475 70.3234 39.4586 69.6838C41.6188 68.4336 42.6738 66.5477 42.6738 63.9315V52.4384C42.6738 51.7428 43.2342 51.1902 43.9375 51.1902C44.6235 51.1902 45.1896 51.7428 45.1896 52.4384V63.9315C45.1896 67.4269 43.6381 70.1649 40.7107 71.8595C40.2489 72.13 39.107 72.7812 37.9206 72.7812Z" fill="#18265A"/>
<path fill-rule="evenodd" clip-rule="evenodd" d="M18.6828 59.3805L4.20631 51.0235C2.51558 53.5354 1.28675 56.6464 1.25391 59.7129V83.0081L15.7401 91.3672V68.0718C15.7729 65.0053 16.9901 61.8963 18.6828 59.3805Z" fill="white"/>
<path fill-rule="evenodd" clip-rule="evenodd" d="M15.7382 92.625C15.5256 92.625 15.3131 92.569 15.1198 92.453L0.633787 84.0902C0.247335 83.8777 0 83.4507 0 83.0121V59.7187C0.0347807 56.6522 1.15733 53.3132 3.16882 50.322C3.52049 49.7752 4.25867 49.6032 4.82676 49.9355L19.309 58.2984C19.6105 58.4703 19.8347 58.766 19.9061 59.0964C19.9834 59.4404 19.9177 59.8056 19.7245 60.0935C17.9952 62.6672 17.0212 65.5115 17.0019 68.0911V91.3729C17.0019 91.8076 16.7565 92.2366 16.372 92.453C16.1768 92.569 15.9623 92.625 15.7382 92.625ZM2.51581 82.2855L14.4881 89.1914V68.0776C14.5074 65.3956 15.3653 62.5088 16.9246 59.8249L4.6219 52.718C3.28478 55.0271 2.53513 57.4849 2.51581 59.7321V82.2855Z" fill="#18265A"/>
<path fill-rule="evenodd" clip-rule="evenodd" d="M94.4356 145.731L85.4062 140.516C95.9892 146.467 109.158 136.497 115.891 128.81C125.28 118.086 133.572 99.7761 130.013 85.516C128.958 81.3153 126.826 77.617 123.022 75.3601L132.503 80.8536C142.018 86.8977 140.52 102.182 137.569 111.555C133.187 125.473 121.387 142.288 107.032 146.618C102.775 147.901 98.3929 147.953 94.4356 145.731Z" fill="white"/>
<path fill-rule="evenodd" clip-rule="evenodd" d="M101.373 148.766C98.6464 148.766 96.1132 148.122 93.8157 146.828L93.8041 146.818L84.7728 141.601C84.1834 141.261 83.9709 140.501 84.3109 139.902C84.6549 139.294 85.4238 139.091 86.0248 139.423C96.0281 145.042 108.91 134.879 114.937 127.98C124.367 117.206 132.146 99.2708 128.792 85.8222C127.7 81.4727 125.543 78.3174 122.378 76.4489C121.781 76.0973 121.586 75.3244 121.938 74.7273C122.28 74.1264 123.053 73.9331 123.65 74.277L133.131 79.7744C142.837 85.9286 142.23 100.938 138.768 111.937C134.202 126.442 121.961 143.429 107.394 147.825C105.295 148.455 103.288 148.766 101.373 148.766ZM95.0543 144.636C98.3391 146.474 102.237 146.741 106.661 145.405C120.4 141.268 132.011 125.053 136.374 111.179C139.556 101.033 140.285 87.2888 131.827 81.9114L129.508 80.5762C130.223 81.9655 130.803 83.5017 131.23 85.2137C134.959 100.167 126.386 118.723 116.829 129.642C110.756 136.577 101.8 143.195 93.2051 143.568L95.0543 144.636Z" fill="#18265A"/>
<path fill-rule="evenodd" clip-rule="evenodd" d="M110.408 81.183C95.9042 89.5671 84.1328 109.929 84.1328 126.682C84.1328 143.417 95.9042 150.207 110.408 141.839C124.904 133.468 136.663 113.096 136.663 96.3531C136.663 79.6042 124.904 72.8144 110.408 81.183Z" fill="#FF3B4D"/>
<path fill-rule="evenodd" clip-rule="evenodd" d="M98.6654 146.695C95.9506 146.695 93.4291 146.062 91.2051 144.769C85.8276 141.668 82.8789 135.243 82.8789 126.685C82.8789 109.555 94.9478 88.6735 109.774 80.1058C117.182 75.8181 124.227 75.167 129.591 78.2683C134.957 81.3579 137.921 87.7943 137.921 96.3542C137.921 113.48 125.85 134.368 111.024 142.929C106.694 145.432 102.482 146.695 98.6654 146.695ZM122.119 78.8576C118.745 78.8576 114.968 79.9976 111.024 82.2757C96.8916 90.4453 85.3928 110.357 85.3928 126.685C85.3928 134.304 87.9009 139.96 92.4572 142.585C97.0096 145.227 103.156 144.564 109.774 140.761C123.907 132.596 135.407 112.68 135.407 96.3542C135.407 88.7218 132.894 83.068 128.341 80.4363C126.504 79.3813 124.407 78.8576 122.119 78.8576ZM110.404 81.186H110.439H110.404Z" fill="#18265A"/>
<path fill-rule="evenodd" clip-rule="evenodd" d="M104.218 70.4075C110.834 66.686 119.452 63.9614 126.634 67.8298L135.668 73.0354C122.389 66.427 106.647 78.6891 98.4446 88.2673C87.4694 101.109 78.04 122.09 81.406 139.099C82.4957 144.635 84.9342 149.458 89.7108 152.633C87.564 151.39 81.2996 147.941 79.6417 146.691C69.2945 138.871 70.9834 121.481 74.2682 110.62C79.0197 94.9085 89.9253 78.8611 104.218 70.4075Z" fill="white"/>
<path fill-rule="evenodd" clip-rule="evenodd" d="M89.7099 153.883C89.4974 153.883 89.2849 153.831 89.0801 153.713L87.0492 152.561C84.1605 150.936 80.2167 148.7 78.8816 147.7C68.5981 139.924 69.1352 123.258 73.0654 110.262C78.2593 93.0804 89.9476 77.4002 103.574 69.3291L103.597 69.3213C109.937 65.7486 119.181 62.402 127.231 66.7225L136.297 71.9493C136.886 72.2913 137.099 73.039 136.768 73.638C136.446 74.237 135.707 74.4612 135.11 74.1733C123.258 68.2606 108.449 78.5112 99.3983 89.0845C88.995 101.252 79.3125 122.008 82.634 138.858C83.7915 144.714 86.3323 148.884 90.4055 151.578C90.9736 151.962 91.1455 152.72 90.7803 153.295C90.5446 153.672 90.1273 153.883 89.7099 153.883ZM104.838 71.499C91.7426 79.2609 80.4834 94.3847 75.4692 110.989C71.9564 122.629 71.1332 138.695 80.4022 145.688C80.893 146.071 81.8978 146.693 83.0745 147.385C81.7393 145.099 80.7732 142.426 80.1646 139.348C76.6788 121.676 86.6956 100.062 97.4796 87.4595C105.104 78.5576 116.65 69.9281 127.65 69.9281H127.766L126.011 68.9117C118.976 65.1496 110.621 68.2393 104.838 71.499Z" fill="#18265A"/>
<path fill-rule="evenodd" clip-rule="evenodd" d="M93.9747 145.454L84.9531 140.249L94.4327 145.734L93.9747 145.454Z" fill="white"/>
<path fill-rule="evenodd" clip-rule="evenodd" d="M94.435 146.992C94.2225 146.992 94.0003 146.927 93.8051 146.82L84.312 141.336C83.7265 140.985 83.5236 140.212 83.8656 139.615C84.2096 139.018 84.9748 138.813 85.5757 139.155H85.5854L94.6071 144.36L94.6186 144.374L95.0785 144.662C95.6775 145.014 95.8708 145.783 95.5191 146.372C95.2814 146.768 94.864 146.992 94.435 146.992Z" fill="#18265A"/>
<path fill-rule="evenodd" clip-rule="evenodd" d="M90.2587 99.8901C96.1366 89.6916 104.271 80.7955 113.241 75.6209C122.222 70.4405 130.343 69.9575 136.225 73.3447C142.105 76.7455 145.745 84.0263 145.745 94.3813C145.745 104.754 142.105 116.233 136.225 126.42C130.343 136.609 122.222 145.503 113.241 150.685C104.271 155.86 96.1366 156.351 90.2587 152.952C84.3788 149.565 80.7422 142.282 80.7422 131.917C80.7422 121.558 84.3788 110.067 90.2587 99.8901ZM132.053 80.5752C129.596 79.1589 126.666 78.5638 123.418 78.8845C120.284 79.2053 116.843 80.3588 113.241 82.4437C109.641 84.517 106.206 87.3305 103.064 90.6327C99.8136 94.0624 96.8844 98.0389 94.4362 102.296C91.9803 106.549 90.0016 111.068 88.6645 115.592C87.3602 119.964 86.6433 124.347 86.6433 128.505C86.6433 132.675 87.3602 136.224 88.6645 139.1C90.0016 142.069 91.9803 144.303 94.4362 145.727C96.8844 147.149 99.8136 147.739 103.064 147.416C106.206 147.109 109.641 145.951 113.241 143.868C116.843 141.783 120.284 138.974 123.418 135.666C126.666 132.236 129.596 128.261 132.053 124.016C134.502 119.76 136.478 115.24 137.825 110.705C139.12 106.336 139.848 101.963 139.848 97.7936C139.848 93.6373 139.12 90.0762 137.825 87.2107C136.478 84.2292 134.502 81.9935 132.053 80.5752Z" fill="white"/>
<path fill-rule="evenodd" clip-rule="evenodd" d="M98.7258 156.383C95.4101 156.383 92.3436 155.618 89.6384 154.043C83.0958 150.267 79.4844 142.413 79.4844 131.917C79.4844 121.672 82.9276 110.076 89.1688 99.2594C95.4216 88.4291 103.75 79.6528 112.621 74.5304C121.698 69.2824 130.312 68.4844 136.855 72.2523C143.396 76.0376 147.001 83.8942 147.001 94.3806C147.001 104.622 143.558 116.221 137.315 127.049C131.072 137.868 122.746 146.644 113.871 151.765C108.559 154.845 103.408 156.383 98.7258 156.383ZM127.756 72.4242C130.624 72.4242 133.273 73.0889 135.593 74.4357C141.334 77.7399 144.488 84.8275 144.488 94.3806C144.488 104.196 141.162 115.345 135.133 125.789C129.107 136.231 121.109 144.689 112.621 149.597C104.337 154.373 96.6292 155.175 90.8904 151.859C85.1593 148.557 81.9943 141.47 81.9943 131.917C81.9943 122.103 85.3197 110.95 91.3484 100.508C97.3809 90.0657 105.375 81.618 113.871 76.7139C118.8 73.8696 123.522 72.4242 127.756 72.4242ZM90.2605 99.8893H90.2934H90.2605ZM101.344 148.75C98.5751 148.75 96.0438 148.109 93.8081 146.816C91.0798 145.245 88.964 142.816 87.5206 139.609C86.114 136.498 85.3854 132.759 85.3854 128.502C85.3854 124.313 86.0888 119.857 87.4549 115.239C88.8172 110.642 90.8035 106.078 93.3483 101.661C95.8796 97.2672 98.8533 93.2598 102.154 89.7624C105.471 86.2805 108.988 83.4477 112.621 81.3512C116.288 79.2354 119.882 77.9737 123.289 77.6317C126.786 77.2877 129.949 77.9118 132.676 79.4808C132.676 79.4808 132.676 79.4905 132.685 79.4905C135.402 81.0652 137.518 83.4884 138.971 86.6979C140.385 89.8088 141.1 93.54 141.1 97.7929C141.1 101.996 140.403 106.461 139.035 111.068C137.669 115.664 135.678 120.228 133.145 124.636C130.602 129.039 127.629 133.047 124.328 136.531C121.036 140.019 117.519 142.849 113.871 144.955C110.186 147.083 106.592 148.333 103.193 148.665C102.563 148.729 101.941 148.75 101.344 148.75ZM125.13 80.0585C124.614 80.0585 124.081 80.0799 123.544 80.132C120.489 80.4431 117.241 81.587 113.871 83.5211C110.451 85.4998 107.127 88.1819 103.974 91.4976C100.809 94.8424 97.9663 98.6914 95.5201 102.925C93.0816 107.157 91.1803 111.551 89.8722 115.954C88.5717 120.338 87.9051 124.559 87.9051 128.502C87.9051 132.396 88.5467 135.783 89.8104 138.571C91.0412 141.29 92.8015 143.33 95.0699 144.635C97.3365 145.951 99.9992 146.461 102.948 146.163C105.995 145.864 109.241 144.72 112.621 142.776C116.054 140.797 119.38 138.104 122.51 134.8C125.675 131.453 128.517 127.617 130.964 123.382C133.4 119.152 135.303 114.756 136.619 110.343C137.927 105.97 138.586 101.748 138.586 97.7929C138.586 93.9013 137.945 90.514 136.685 87.7219C135.454 85.009 133.682 82.9782 131.425 81.6624C129.576 80.5919 127.458 80.0585 125.13 80.0585Z" fill="#18265A"/>
<path fill-rule="evenodd" clip-rule="evenodd" d="M115.899 112.253L113.548 117.25L96.8047 112.468L99.1581 107.479L115.899 112.253Z" fill="#FF3B4D"/>
<path fill-rule="evenodd" clip-rule="evenodd" d="M113.548 118.5C113.442 118.5 113.324 118.488 113.204 118.459L96.4651 113.679C96.1134 113.573 95.8235 113.325 95.6651 112.995C95.5163 112.653 95.5163 112.27 95.6748 111.938L98.0282 106.943C98.2852 106.389 98.9035 106.101 99.5006 106.271L116.251 111.049C116.595 111.146 116.893 111.403 117.042 111.743C117.192 112.075 117.192 112.46 117.034 112.792L114.69 117.785C114.48 118.233 114.031 118.5 113.548 118.5ZM98.5732 111.671L112.864 115.743L114.126 113.061L99.8445 108.988L98.5732 111.671Z" fill="#18265A"/>
<path fill-rule="evenodd" clip-rule="evenodd" d="M109.673 121.734C109.457 121.734 109.24 121.678 109.053 121.562C108.438 121.218 108.237 120.451 108.581 119.849L128.014 86.2233C128.344 85.6147 129.113 85.4099 129.722 85.7616C130.323 86.1055 130.526 86.8745 130.184 87.4716L110.759 121.103C110.525 121.506 110.108 121.734 109.673 121.734Z" fill="#18265A"/>
<path fill-rule="evenodd" clip-rule="evenodd" d="M8.05271 163.82C7.78413 163.82 7.51742 163.735 7.29521 163.563C5.1562 161.942 4.82582 159.608 4.79297 157.77V85.7647C4.79297 85.0672 5.36107 84.503 6.04509 84.503C6.73684 84.503 7.30488 85.0672 7.30488 85.7647V157.739C7.34932 159.674 7.77443 160.787 8.81399 161.554C9.36662 161.985 9.47289 162.761 9.05552 163.318C8.81399 163.648 8.4353 163.82 8.05271 163.82Z" fill="#18265A"/>
<path fill-rule="evenodd" clip-rule="evenodd" d="M12.2519 166.258C11.9853 166.258 11.7167 166.173 11.4925 166.001C9.3535 164.376 9.02302 162.046 8.98438 160.206V88.2022C8.98438 87.5047 9.54864 86.9405 10.2404 86.9405C10.9379 86.9405 11.4925 87.5047 11.4925 88.2022V160.177C11.5447 162.1 11.9736 163.224 13.0093 163.991C13.5658 164.418 13.6624 165.199 13.2489 165.755C13.0016 166.086 12.6287 166.258 12.2519 166.258Z" fill="#18265A"/>
</svg>
