<svg width="33" height="41" viewBox="0 0 33 41" fill="none" xmlns="http://www.w3.org/2000/svg">
<path d="M30.3299 4.00686L25.7324 1.58704C24.659 0.970986 23.3375 0.970986 22.2614 1.58704L2.66439 12.812C1.58542 13.4308 0.921875 14.5742 0.921875 15.8118V33.6191C0.921875 34.8568 1.58542 35.9973 2.6616 36.6162L7.25904 39.0859C8.33521 39.7048 9.66231 39.7048 10.7385 39.0859L30.3382 27.8082C31.4144 27.1894 32.078 26.0461 32.078 24.8112V7.00666C32.078 5.769 31.4144 4.62292 30.3354 4.00686" fill="black"/>
<path d="M30.6125 7.44526C30.6125 6.7515 30.0688 6.49897 29.3997 6.88193L10.6084 17.6102C9.93932 17.9931 9.39566 18.8645 9.39845 19.5582L9.41518 36.5525C9.41518 37.2462 9.96163 37.4988 10.628 37.1158L29.4192 26.3848C30.0883 26.0018 30.6292 25.1305 30.6292 24.4367L30.6097 7.44248L30.6125 7.44526Z" fill="white"/>
<path d="M24.7981 22.0154C25.0212 22.8368 24.5082 23.8802 23.708 24.3408C23.63 24.3852 23.5519 24.4241 23.471 24.4574C22.4395 24.8681 21.4023 25.2982 20.3708 25.72C20.3094 25.7478 20.2509 25.7783 20.1812 25.8116C20.0808 26.6191 19.7407 27.3545 19.1468 28.0233C19.2249 28.3424 19.3169 28.6255 19.3671 28.9474C19.4535 29.5329 19.0855 30.3543 18.5446 30.8344C18.4443 30.9232 18.3467 30.9953 18.2463 31.0508C17.8142 31.3006 17.4099 31.2423 17.2315 30.8566C16.9415 30.2294 16.6683 29.5829 16.3867 28.9418C16.2808 28.7032 16.1776 28.4617 16.0661 28.2148C15.9211 28.3396 15.7789 28.4451 15.6395 28.5256C15.4806 28.6171 15.3217 28.6754 15.1655 28.6948C14.7585 28.7448 14.4713 28.5783 14.3487 28.1648C14.1674 27.5654 13.9974 26.9577 13.8468 26.3333C13.6656 25.5868 14.0838 24.5545 14.817 23.8968C15.3022 23.4639 15.7901 23.0393 16.2724 22.6037C16.3588 22.526 16.4452 22.4261 16.5149 22.3234C18.0316 20.0867 19.5455 17.8473 21.0566 15.6078C21.2964 15.2526 21.5501 14.9724 21.8317 14.8086C21.9293 14.7531 22.0269 14.7115 22.13 14.6865C22.5622 14.5755 22.8159 14.7753 22.9302 15.1944C23.2647 16.4265 23.6021 17.6558 23.9394 18.8879C24.221 19.9285 24.5082 20.9692 24.7898 22.0098L24.7981 22.0154ZM23.708 23.4917C23.9952 23.3279 24.1597 22.9922 24.1039 22.7285C24.0816 22.6148 24.0454 22.5121 24.0147 22.4011C23.4153 20.2144 22.8214 18.0277 22.222 15.8409C22.1607 15.6162 22.0185 15.5551 21.854 15.6495C21.7676 15.6994 21.6728 15.7938 21.5808 15.9297C20.0864 18.1387 18.5948 20.3476 17.1004 22.5537C17.0307 22.6564 17.0112 22.7258 17.0363 22.8146C17.3067 23.7886 17.5744 24.7682 17.8337 25.7478C17.8616 25.8477 17.9117 25.8643 18.0093 25.8255C18.6645 25.5535 19.3197 25.2871 19.9749 25.0179C20.8085 24.6766 21.6449 24.3381 22.4785 23.994C22.8967 23.8219 23.3149 23.6499 23.7052 23.4861M15.7873 27.5626C16.2222 27.1908 16.6571 26.7967 17.1144 26.3916C16.8439 25.4037 16.5791 24.4352 16.3114 23.4584C15.8542 23.8608 15.4137 24.2409 14.9815 24.6322C14.6609 24.9208 14.4797 25.3981 14.5661 25.7228C14.7223 26.3139 14.8812 26.8994 15.0485 27.4794C15.1293 27.7597 15.3579 27.8318 15.6284 27.6764C15.6813 27.6459 15.7343 27.607 15.7901 27.5626M18.3021 30.1573C18.4833 30.0213 18.6283 29.7577 18.6338 29.5412C18.6338 29.458 18.6199 29.3858 18.6004 29.3165C18.3857 28.5311 18.171 27.7458 17.9536 26.9605C17.8978 26.7579 17.8588 26.7246 17.6831 26.8245C17.658 26.8384 17.6329 26.855 17.6023 26.8717C17.5632 26.8966 17.5214 26.9299 17.4824 26.966C17.2593 27.1603 17.0391 27.3573 16.7938 27.571C16.8161 27.632 16.8328 27.6847 16.8551 27.7319C17.0084 28.0871 17.1646 28.4423 17.3207 28.7947C17.5131 29.2332 17.7026 29.6717 17.8978 30.1073C17.9647 30.2544 18.093 30.2822 18.2407 30.1961C18.2602 30.185 18.2798 30.1712 18.2993 30.1573M18.9405 27.2879C19.2361 26.9022 19.3922 26.5248 19.434 26.1058C19.1831 26.2084 18.9489 26.3083 18.698 26.411C18.7816 26.7163 18.8597 26.9938 18.9405 27.2879Z" fill="#0129FA"/>
<path d="M26.8877 15.6837C27.094 15.5644 27.2501 15.6615 27.2473 15.9057C27.2473 16.0889 27.1553 16.2998 26.988 16.4468C26.5029 16.8825 26.0178 17.3126 25.5327 17.7344C25.502 17.7594 25.4713 17.7816 25.4435 17.7983C25.2845 17.8899 25.1424 17.8482 25.095 17.6984C25.0364 17.5124 25.134 17.2211 25.3347 17.0379C25.8171 16.6022 26.3022 16.1693 26.7901 15.7503C26.8235 15.7198 26.857 15.6976 26.8904 15.6782L26.8877 15.6837Z" fill="#0129FA"/>
<path d="M25.5617 13.2822C25.6704 13.2184 25.7736 13.2184 25.846 13.2822C25.9743 13.3988 25.9436 13.6763 25.7596 13.9399C25.3749 14.4922 24.9873 15.0472 24.597 15.5966C24.5357 15.6854 24.452 15.7576 24.4186 15.7936C24.4158 15.7936 24.4102 15.7992 24.4074 15.7992C24.2039 15.9157 24.0729 15.8852 24.0171 15.7437C23.9586 15.5966 24.0032 15.394 24.1509 15.1804C24.4074 14.8085 24.6667 14.4422 24.926 14.0704C25.0543 13.89 25.1797 13.704 25.3107 13.5264C25.3916 13.4127 25.4808 13.3294 25.5617 13.2822Z" fill="#0129FA"/>
<path d="M25.599 19.7162C25.599 19.7162 25.6241 19.7023 25.6381 19.6967C26.1427 19.4747 26.6473 19.2583 27.1492 19.0557C27.3583 18.9725 27.4754 19.1084 27.4475 19.361C27.4252 19.583 27.2718 19.8161 27.0237 19.9604C27.0209 19.9604 27.0181 19.9631 27.0125 19.9659C26.5553 20.1574 26.0451 20.3822 25.5377 20.5848C25.337 20.6652 25.2226 20.5265 25.2449 20.2823C25.2645 20.0686 25.415 19.8188 25.5934 19.7162H25.599Z" fill="#0129FA"/>
</svg>
