<svg width="55" height="55" viewBox="0 0 55 55" fill="none" xmlns="http://www.w3.org/2000/svg">
<path d="M51.5638 18.5625L45.8346 21.7135L40.1055 27.1562V45.8333H48.1263C50.0249 45.8333 51.5638 44.2945 51.5638 42.3958V18.5625Z" fill="#4CAF50"/>
<path d="M3.4375 18.5625L7.57854 20.5219L14.8958 27.1562V45.8333H6.875C4.97635 45.8333 3.4375 44.2945 3.4375 42.3958V18.5625Z" fill="#1E88E5"/>
<path d="M40.1042 12.8281L27.5 22.2812L14.8958 12.8281L13.75 19.474L14.8958 27.151L27.5 36.6042L40.1042 27.151L41.25 19.474L40.1042 12.8281Z" fill="#E53935"/>
<path d="M3.4375 14.0967V18.5677L14.8958 27.1615V12.8385L11.3162 10.1561C10.4637 9.51677 9.42792 9.17188 8.36229 9.17188C5.64208 9.17188 3.4375 11.3765 3.4375 14.0967Z" fill="#C62828"/>
<path d="M51.5599 14.0967V18.5677L40.1016 27.1615V12.8385L43.6811 10.1561C44.5336 9.51677 45.5695 9.17188 46.6351 9.17188C49.3553 9.17188 51.5599 11.3765 51.5599 14.0967Z" fill="#FBC02D"/>
</svg>
