<svg width="31" height="40" viewBox="0 0 31 40" fill="none" xmlns="http://www.w3.org/2000/svg">
<path d="M28.4248 3.81025L24.1276 1.4112C23.1243 0.800433 21.8891 0.800433 20.8832 1.4112L2.5662 12.5398C1.55771 13.1533 0.9375 14.2868 0.9375 15.5139V33.1684C0.9375 34.3954 1.55771 35.5261 2.5636 36.1396L6.86077 38.5882C7.86665 39.2017 9.10707 39.2017 10.113 38.5882L28.4326 27.4073C29.4385 26.7938 30.0587 25.6603 30.0587 24.436V6.7843C30.0587 5.55727 29.4385 4.42102 28.43 3.81025" fill="black"/>
<path d="M28.6879 7.22014C28.6879 6.53233 28.1797 6.28197 27.5543 6.66164L9.99036 17.2978C9.36493 17.6775 8.85678 18.5413 8.85938 19.2291L8.87502 36.0775C8.87502 36.7653 9.38578 37.0157 10.0086 36.636L27.5725 25.9971C28.198 25.6174 28.7035 24.7536 28.7035 24.0658L28.6853 7.21738L28.6879 7.22014Z" fill="white"/>
<path d="M15.3384 25.8468C15.3723 25.8276 15.4062 25.8083 15.4401 25.7891L15.1013 28.1964L14.8772 28.3312L14.6896 26.9666H14.6817L14.8616 26.4549L14.1345 26.8978L14.3169 27.1922L14.1293 28.7851L13.9078 28.9199L13.5586 26.9308C13.5925 26.9088 13.6263 26.8868 13.6602 26.8648L15.3384 25.8413V25.8468Z" fill="white"/>
<path d="M15.4229 25.6003C15.7747 25.3857 16.0952 25.3362 16.3506 25.4242C15.7095 26.2991 15.2795 27.4188 15.2665 28.4065L12.0742 30.3516V29.4657C12.069 28.4588 12.7414 27.2318 13.57 26.7283L15.4229 25.6003ZM15.0997 28.1974L15.4385 25.7901C15.4046 25.8094 15.3707 25.8286 15.3369 25.8479L13.6587 26.8713C13.6248 26.8934 13.5909 26.9154 13.557 26.9374L13.9062 28.9265L14.1277 28.7917L14.3101 27.2015L14.1329 26.9044L14.86 26.4614L14.6802 26.9786H14.688L14.8756 28.3405L15.0997 28.2057" fill="black"/>
<path d="M11.6227 27.7891C11.6227 27.7891 11.8312 27.8331 11.8364 27.9019C11.8364 27.9074 11.8364 27.9101 11.8364 27.9156C11.8207 27.9541 11.4976 28.5126 11.4794 28.5401L11.7113 28.6694L11.1797 29.6956L11.6253 27.7891H11.6227Z" fill="white"/>
<path d="M10.7254 28.3438L11.1788 29.7028L10.642 29.3287L10.8713 28.916C10.8531 28.9077 10.5274 28.7482 10.5117 28.7262C10.5117 28.7262 10.5117 28.7207 10.5117 28.7152C10.5169 28.6436 10.715 28.3575 10.7254 28.3438Z" fill="white"/>
<path d="M11.8832 27.4008C12.1491 27.2385 12.3966 27.2 12.5921 27.2632C12.0995 27.9345 11.7686 28.7929 11.7608 29.5522L9.32423 31.0379V30.3584C9.32162 29.588 9.83238 28.6499 10.4682 28.2619L11.8859 27.3981L11.8832 27.4008ZM11.8363 27.9208C11.8363 27.9208 11.8363 27.9125 11.8363 27.907C11.8337 27.8382 11.6331 27.797 11.6227 27.7942L11.177 29.7008L10.7236 28.3417C10.7132 28.3555 10.5151 28.6416 10.5099 28.7131C10.5099 28.7186 10.5099 28.7214 10.5099 28.7241C10.5256 28.7461 10.8513 28.9057 10.8695 28.914L10.6402 29.3266L11.177 29.7008L11.7086 28.6746L11.4767 28.5453C11.495 28.515 11.8181 27.9593 11.8337 27.9208" fill="black"/>
<path d="M11.1039 24.7622C11.13 24.7456 11.156 24.7319 11.1821 24.7181C11.7919 24.3907 12.2896 24.6906 12.3313 25.4059C12.3756 26.2423 11.8153 27.307 11.1117 27.7335L11.044 27.772L9.58204 28.6634L9.57422 28.6303C9.75403 28.4295 9.88432 28.1049 9.88432 27.816V27.0209V26.9934C9.88432 26.1735 10.4264 25.1748 11.1039 24.7622Z" fill="black"/>
<path d="M23.7126 20.8594C23.7257 20.8621 23.9967 20.9172 23.9915 21.0079C23.9915 21.0134 23.9915 21.0162 23.9889 21.0217C23.968 21.0767 23.5459 21.803 23.5224 21.8416L23.8247 22.0094L23.1289 23.352L23.71 20.8594H23.7126Z" fill="white"/>
<path d="M27.1902 18.0733C27.8261 17.6854 28.3421 17.9962 28.3447 18.7666V19.4461L25.9081 20.9318C25.8951 20.189 25.5615 19.735 25.0664 19.6635C25.2619 19.3608 25.5068 19.0995 25.7726 18.9372L27.1902 18.0733ZM26.9244 19.9964L27.1746 18.2218C27.1485 18.2356 27.1251 18.2494 27.099 18.2631L25.8638 19.0169C25.8378 19.0334 25.8117 19.05 25.7882 19.0665L26.0462 20.5301L26.2104 20.4311L26.3433 19.259H26.3485L26.213 19.039L26.7498 18.7116L26.6169 19.0912L26.7603 20.0927L26.9244 19.9936" fill="black"/>
<path d="M27.1024 18.2678C27.1285 18.2513 27.1546 18.2376 27.178 18.2266L26.9279 20.0011L26.7637 20.1001L26.623 19.0959L26.7506 18.719L26.2138 19.0464L26.3493 19.2638H26.3441L26.2112 20.4385L26.047 20.5376L25.7891 19.0739C25.8151 19.0574 25.8386 19.0382 25.8646 19.0244L27.0998 18.2706L27.1024 18.2678Z" fill="white"/>
<path d="M26.4735 15.395C27.1432 14.9851 27.6905 15.3152 27.6931 16.1268C27.6957 16.9384 27.1536 17.9316 26.4813 18.3415C25.809 18.7515 25.2643 18.4213 25.2617 17.6097C25.2591 16.7981 25.8012 15.8049 26.4735 15.395Z" fill="black"/>
<path d="M22.5379 21.5703L23.1321 23.3448L22.4337 22.8524L22.7334 22.3186C22.7099 22.3076 22.2852 22.0985 22.2643 22.0683C22.2643 22.0655 22.2617 22.06 22.2617 22.0545C22.2643 21.9637 22.5249 21.5923 22.5379 21.5731V21.5703Z" fill="white"/>
<path d="M24.0487 20.351C24.88 19.8448 25.555 20.2492 25.5576 21.2561V22.142L22.3757 24.0844C22.3575 23.1132 21.9223 22.5217 21.2734 22.4309C21.5288 22.032 21.8493 21.6936 22.1985 21.479L24.0487 20.351ZM23.9888 21.0278C23.9888 21.0278 23.9888 21.0195 23.9914 21.014C23.994 20.926 23.7256 20.8682 23.7126 20.8655L23.1315 23.3581L22.5373 21.5835C22.5243 21.6028 22.2637 21.9742 22.2611 22.065C22.2611 22.0705 22.2611 22.076 22.2637 22.0788C22.2845 22.109 22.7093 22.3181 22.7328 22.3291L22.4331 22.8628L23.1315 23.3553L23.8272 22.0127L23.525 21.8449C23.5484 21.8064 23.9706 21.0801 23.9914 21.025" fill="black"/>
<path d="M23.026 16.8738C23.9173 16.3318 24.6417 16.7665 24.6443 17.8477V17.8835L24.6469 18.9289C24.6469 19.3114 24.8189 19.5315 25.0587 19.504L25.0508 19.5562L23.1251 20.7282C23.0964 20.7475 23.0651 20.7668 23.0365 20.786C22.114 21.35 21.3661 20.8603 21.4208 19.6855C21.4677 18.6813 22.1192 17.4901 22.9244 16.9371C22.9583 16.9123 22.9922 16.8903 23.026 16.871V16.8738Z" fill="black"/>
<path d="M19.3093 24.2188L19.0643 24.9176L19.0747 24.9121L19.3275 26.7581L18.3164 27.3744L18.564 25.2229L18.5718 25.2174L18.3242 24.8185L19.3093 24.2188Z" fill="#F7B718"/>
<path d="M18.7944 18.3291C19.9905 17.6001 20.9626 18.1861 20.9678 19.636C20.973 21.0858 20.0036 22.8521 18.8075 23.5812C17.6113 24.3103 16.6393 23.7242 16.6367 22.2744C16.6341 20.8245 17.6009 19.0555 18.7944 18.3264V18.3291Z" fill="black"/>
<path d="M19.9469 23.3973C19.9912 23.3698 20.0381 23.3451 20.0851 23.3203L19.6264 26.5777L19.3241 26.7621L19.0687 24.916L19.0583 24.9215L19.3033 24.2227L18.3182 24.8225L18.5658 25.2214L18.558 25.2269L18.313 27.3783L18.0133 27.5599L17.5391 24.872C17.586 24.839 17.6303 24.8087 17.6772 24.7785L19.9495 23.3946L19.9469 23.3973Z" fill="white"/>
<path d="M20.063 23.0686C21.1888 22.3836 22.1034 22.9311 22.106 24.2956V25.4924L15.5313 29.5009V28.3042C15.5235 26.9396 16.4303 25.2806 17.5561 24.5955L20.063 23.0686ZM19.6252 26.5819L20.0839 23.3245C20.0369 23.3492 19.99 23.374 19.9457 23.4015L17.6734 24.7854C17.6265 24.8129 17.5822 24.8459 17.5353 24.8789L18.0095 27.5668L18.3092 27.3853L19.3203 26.769L19.6226 26.5847" fill="black"/>
<path d="M14.4894 22.0982C15.3702 21.5617 16.0894 21.9909 16.0946 23.0638C16.0998 24.1368 15.3832 25.4409 14.4998 25.9773C13.6164 26.5138 12.8998 26.0846 12.8946 25.0117C12.8893 23.9387 13.606 22.6346 14.4894 22.0982Z" fill="black"/>
</svg>
