<svg width="31" height="39" viewBox="0 0 31 39" fill="none" xmlns="http://www.w3.org/2000/svg">
<path d="M28.2085 3.92147L23.9848 1.61271C22.9987 1.02493 21.7846 1.02493 20.796 1.61271L2.79225 12.3225C1.80101 12.9129 1.19141 14.0037 1.19141 15.1846V32.1746C1.19141 33.3555 1.80101 34.4437 2.78969 35.0341L7.01335 37.3905C8.00203 37.9809 9.22123 37.9809 10.2099 37.3905L28.2162 26.6304C29.2049 26.04 29.8145 24.9492 29.8145 23.771V6.78359C29.8145 5.60273 29.2049 4.50925 28.2136 3.92147" fill="#CACACA"/>
<path d="M28.4659 7.19244C28.4659 6.53053 27.9664 6.28959 27.3517 6.65497L10.0882 16.8908C9.47347 17.2562 8.97401 18.0876 8.97657 18.7495L8.99194 34.9637C8.99194 35.6256 9.49396 35.8666 10.1061 35.5012L27.3696 25.2627C27.9843 24.8973 28.4812 24.066 28.4812 23.4041L28.4633 7.1898L28.4659 7.19244Z" fill="white"/>
<path d="M25.6393 25.0229C25.6495 25.2241 25.6085 25.4095 25.4523 25.608C21.4335 28.0068 17.4174 30.403 13.3986 32.8017C13.2424 32.7911 13.1963 32.6588 13.2091 32.4416C13.3218 30.5062 14.0236 28.6581 15.4554 26.9663C15.9036 26.4394 16.4005 25.992 16.8769 25.5207C17.005 25.3936 17.0895 25.2691 17.1433 25.0838C17.256 24.7131 17.3892 24.3451 17.4942 24.0274C17.3098 23.797 17.1433 23.5826 16.9666 23.3761C16.9435 23.3496 16.882 23.3681 16.8334 23.3867C16.6822 23.4423 16.5132 23.5508 16.3723 23.5667C16.0624 23.5985 15.9087 23.3814 15.8882 22.9975C15.8805 22.873 15.8882 22.7433 15.8857 22.6135C15.4835 22.6453 15.3299 22.3647 15.3401 21.8563C15.3555 21.0832 15.3222 20.3339 15.3657 19.5449C15.4323 18.3032 15.8575 17.0243 16.5926 15.7588C17.3764 14.4085 18.2985 13.4156 19.3384 12.796C19.4869 12.706 19.638 12.6266 19.7943 12.5524C20.9136 12.0176 21.8331 12.0759 22.5426 12.6928C23.165 13.2302 23.4468 14.1146 23.4468 15.2795C23.4468 15.8805 23.4493 16.4789 23.4493 17.0799C23.4493 17.7551 23.1215 18.3455 22.558 18.6844L22.1456 18.9307C22.0713 19.8441 21.8152 20.7681 21.2978 21.708C21.4464 21.9728 21.5898 22.2323 21.7409 22.4838C21.7614 22.5182 21.8203 22.5129 21.869 22.505C22.2557 22.4309 22.6476 22.3435 23.0318 22.2773C24.1665 22.0787 24.9119 22.5871 25.3575 23.6276C25.5291 24.0247 25.6085 24.504 25.6342 25.0256L25.6393 25.0229ZM17.2842 22.4759C17.4353 22.3858 17.5736 22.3011 17.7068 22.2217C17.8067 22.1634 17.9014 22.1052 17.9988 22.0496C18.0756 22.0046 18.1089 21.9543 18.1397 21.859C18.2857 21.4274 18.529 21.1044 18.8517 20.8952C18.9439 20.837 19.0361 20.7787 19.1283 20.7231C19.2205 20.6675 19.3128 20.6146 19.405 20.5643C19.8634 20.3074 20.2143 20.5219 20.2118 21.0488C20.2118 21.5757 19.8634 22.2005 19.4024 22.4918C19.3256 22.5394 19.2487 22.5871 19.1719 22.6347C19.0771 22.6903 18.9849 22.7459 18.8901 22.7989C18.5495 22.9975 18.2985 22.9683 18.1371 22.7036C18.1217 22.6771 18.0961 22.6374 18.0731 22.6506C17.9911 22.6956 17.9066 22.7459 17.822 22.7962C17.7375 22.8465 17.6479 22.8995 17.5557 22.9551C17.7273 23.1934 17.9296 23.339 18.1781 23.3999C18.5597 23.4952 18.9875 23.392 19.4101 23.1404C20.3245 22.595 21.2081 21.348 21.5001 19.8865C21.6205 19.2801 21.6589 18.695 21.7179 18.1072C21.7614 17.6651 21.7819 17.2309 21.8101 16.786C21.7716 16.7993 21.7486 16.8046 21.7281 16.8125C21.472 16.9105 21.2107 17.0296 20.9571 17.1064C20.1503 17.3553 19.4357 17.3341 18.8184 17.0376C18.7826 17.0217 18.7236 17.0217 18.6775 17.0508C18.3855 17.252 18.1243 17.5168 17.8784 17.8319C17.4891 18.3296 17.2585 18.9068 17.0024 19.4708C16.9794 19.5211 16.9794 19.5846 16.9845 19.6349C17.0127 20.0612 17.0332 20.4928 17.0793 20.9085C17.1356 21.4327 17.2124 21.9384 17.2816 22.4679M16.4261 18.8406C16.5491 17.3765 17.1535 16.0579 18.2524 14.9009C18.5853 14.5514 18.9285 14.3025 19.2743 14.096C19.4587 13.9875 19.6432 13.8895 19.8276 13.7942C20.9853 13.1958 21.9561 13.5771 22.2583 14.7315C22.3172 14.9565 22.3428 15.2133 22.3838 15.4569L22.8833 15.1604C22.7603 13.1588 21.2696 12.2797 19.3845 13.4023C19.3128 13.4447 19.241 13.4897 19.1668 13.54C17.151 14.8903 15.9318 17.6412 15.9062 19.3252L16.4133 19.0233C16.4159 18.9518 16.4184 18.8962 16.4236 18.8406M13.7597 31.928L18.9465 28.8329C18.2114 27.9989 17.4916 27.1887 17.0869 25.9761C16.7463 26.315 16.4287 26.638 16.1085 26.9478C15.0788 27.9433 14.4001 29.1691 13.9954 30.5751C13.8596 31.041 13.7777 31.4938 13.7623 31.928M19.9095 28.2584C21.6461 27.2231 23.3546 26.2011 25.0783 25.1738C25.0732 25.0997 25.0707 25.0362 25.0655 24.9753C25.0604 24.9197 25.0527 24.8667 25.0425 24.8137C24.8068 23.5985 24.2126 22.9074 23.1394 22.9524C22.7245 22.971 22.2737 23.1034 21.8408 23.1854C21.8101 23.1907 21.7742 23.204 21.7435 23.2146C21.7332 23.2463 21.723 23.2649 21.7179 23.2834C21.3618 24.6655 20.8598 26.0396 20.2502 27.4111C20.1273 27.6838 20.0274 27.9645 19.9095 28.261M17.0562 17.9272C17.0178 18.0887 16.9999 18.2476 16.9742 18.4091L17.0152 18.4038C17.0357 18.3641 17.0511 18.3217 17.0716 18.282C17.5224 17.44 18.0807 16.8099 18.739 16.3624C18.7518 16.3518 18.7672 16.3439 18.78 16.3359C18.9029 16.2645 19.0028 16.2512 19.095 16.2989C19.8532 16.7119 20.765 16.6245 21.8101 16.1215C21.9381 14.9459 21.3285 14.1331 20.4372 14.2443C20.094 14.2867 19.7431 14.472 19.387 14.6838C19.3025 14.7341 19.218 14.7871 19.1309 14.84C18.1601 15.4357 17.3431 16.651 17.0536 17.9245M19.3563 28.1895C19.3742 28.2107 19.3973 28.2266 19.4178 28.2451C19.6995 27.57 19.9761 26.9133 20.2476 26.2567C20.4064 25.8755 20.4013 25.8755 20.1964 25.7537C19.93 25.5948 19.6611 25.4386 19.3947 25.2824C19.3742 25.3089 19.3614 25.3221 19.3512 25.338C19.0617 25.8781 18.7723 26.4156 18.4803 26.9531C18.4163 27.0696 18.4521 27.0987 18.488 27.141C18.7774 27.4905 19.0669 27.8427 19.3563 28.1895ZM20.9059 22.4467C20.514 23.1748 20.1375 23.8765 19.7712 24.5596C20.0812 24.7396 20.3808 24.917 20.7036 25.1103C20.8931 24.4484 21.0801 23.797 21.2645 23.1431C21.2747 23.1113 21.2619 23.0716 21.2491 23.0478C21.1416 22.8492 21.0289 22.6533 20.9085 22.4441M18.99 25.0706C18.6033 24.8455 18.2293 24.6258 17.8477 24.406C17.7555 24.6787 17.6607 24.9541 17.5736 25.2294C17.5531 25.2903 17.5531 25.3671 17.571 25.4068C17.6812 25.6742 17.7964 25.9416 17.9143 26.1985C17.9834 26.3467 18.0628 26.4818 18.1473 26.6353C18.4393 26.0926 18.7185 25.5736 18.9875 25.0706M22.9038 16.1744V15.8064C22.7142 15.9203 22.54 16.0235 22.3659 16.1268C22.3223 16.8231 22.2814 17.5115 22.2378 18.2211C22.3172 18.1734 22.3915 18.1311 22.4632 18.086C22.4991 18.0649 22.5349 18.0437 22.5708 18.0225C22.809 17.8769 22.9063 17.7048 22.9089 17.4215V16.1744M16.2699 21.7769C16.3646 21.7213 16.4594 21.6577 16.5542 21.6021C16.5081 20.9561 16.4594 20.3207 16.4133 19.6799L15.8805 19.9977C15.8805 20.5775 15.8805 21.1494 15.8857 21.716C15.8857 21.8616 15.9676 21.9304 16.0906 21.8748C16.1495 21.8484 16.2084 21.814 16.2673 21.7795M18.5905 22.0152C18.5905 22.1899 18.7083 22.2508 18.8748 22.1608C18.9106 22.1423 18.949 22.1211 18.9849 22.0973C19.0336 22.0681 19.0822 22.0364 19.1309 22.0072C19.1847 21.9755 19.2385 21.9437 19.2923 21.9119C19.3204 21.896 19.346 21.8801 19.3742 21.8616C19.5484 21.7478 19.6688 21.5412 19.6637 21.3639C19.6637 21.1891 19.5458 21.1256 19.3793 21.2182C19.2923 21.2659 19.2077 21.3135 19.1232 21.3665C19.0387 21.4194 18.9516 21.4698 18.8671 21.5254C18.7032 21.6286 18.5853 21.8404 18.5905 22.0125M18.9132 24.0433C19.0566 24.128 19.218 24.226 19.387 24.3292C19.5279 24.0698 19.6739 23.797 19.8378 23.4926L18.9132 24.0433ZM16.6925 22.8068C16.7079 22.7989 16.7232 22.7883 16.7386 22.7751C16.7053 22.5897 16.6746 22.4017 16.6413 22.2111L16.4415 22.3302C16.3749 22.738 16.4645 22.9392 16.6899 22.8068" fill="#CACACA"/>
<path d="M23.3343 23.766C23.3932 23.7316 23.4649 23.7184 23.5084 23.7316C23.8337 23.8296 24.0847 24.0467 24.2691 24.3697C24.2871 24.3988 24.2922 24.4465 24.2999 24.473C24.2948 24.6371 24.2435 24.7721 24.1308 24.8913C24.0924 24.931 24.0566 24.9601 24.0233 24.9813C23.949 25.0263 23.8824 25.0237 23.8286 24.9734C23.762 24.9125 23.7236 24.8092 23.6519 24.7563C23.5007 24.6371 23.3394 24.5339 23.178 24.4279C23.1037 24.3776 23.0371 24.3062 23.0884 24.1526C23.1293 24.0361 23.2062 23.8931 23.2882 23.8057C23.3035 23.7899 23.3189 23.7766 23.3368 23.766H23.3343Z" fill="#CACACA"/>
<path d="M22.3875 23.7054C22.3875 23.7054 22.3875 23.7054 22.39 23.7054C22.5335 23.6233 22.659 23.6975 22.6564 23.8669C22.6564 24.0337 22.5309 24.2588 22.3875 24.3435C22.2466 24.4256 22.1211 24.3488 22.1211 24.182C22.1211 24.0125 22.2466 23.7901 22.3875 23.7054Z" fill="#CACACA"/>
</svg>
