<svg width="173" height="156" viewBox="0 0 173 156" fill="none" xmlns="http://www.w3.org/2000/svg">
<path fill-rule="evenodd" clip-rule="evenodd" d="M171.443 100.014V104.747C171.36 105.211 170.885 105.88 170.526 106.225C170.216 106.535 169.859 106.797 169.467 107.024L89.5923 153.132C86.8266 154.706 82.5202 154.706 79.7053 153.132L5.85516 110.435C5.06791 109.958 4.28061 109.289 3.95967 108.359L3.92188 108.168V103.424C4.19751 104.485 4.94898 105.14 5.85516 105.7L79.7053 148.387C82.5202 149.958 86.8266 149.971 89.5923 148.387L169.467 102.291C170.407 101.73 171.124 101.075 171.443 100.014Z" fill="white"/>
<path fill-rule="evenodd" clip-rule="evenodd" d="M84.6549 155.703C82.6782 155.703 80.662 155.25 79.0403 154.342L5.1521 111.647C3.84002 110.858 3.00567 109.907 2.6111 108.797C2.57523 108.653 2.49219 108.31 2.49219 108.164V103.42C2.49219 102.716 3.00569 102.131 3.7212 102.025C4.40084 101.953 5.06904 102.357 5.25972 103.039C5.42585 103.597 5.81866 104.028 6.57193 104.492L80.4221 147.166C82.7952 148.512 86.5503 148.512 88.9233 147.166L168.753 101.072C169.538 100.617 169.931 100.19 170.097 99.6158C170.287 98.9475 170.969 98.5303 171.637 98.6266C172.315 98.721 172.828 99.3044 172.828 100.01V104.743C172.66 106.08 171.637 107.103 171.518 107.222C171.16 107.581 170.731 107.904 170.17 108.225L90.3091 154.342C88.6874 155.25 86.6711 155.703 84.6549 155.703ZM5.30696 107.924C5.49764 108.44 5.93949 108.846 6.57193 109.227L80.4221 151.912C82.7952 153.249 86.5503 153.249 88.9233 151.899L168.753 105.804C169.109 105.614 169.347 105.421 169.538 105.221C169.776 104.995 170.016 104.636 170.063 104.506V103.562L90.3091 149.6C87.0997 151.412 82.2478 151.423 79.0403 149.6L5.30696 106.984V107.924Z" fill="#18265A"/>
<path fill-rule="evenodd" clip-rule="evenodd" d="M5.85576 99.9847L85.719 53.8787C88.4489 52.3061 92.8834 52.3156 95.6133 53.8787L169.467 96.5638C172.184 98.1364 172.184 100.713 169.467 102.277L89.5929 148.384C86.9102 149.955 82.4377 149.955 79.7078 148.384L5.85576 105.696C3.17308 104.123 3.17308 101.561 5.85576 99.9847Z" fill="white"/>
<path fill-rule="evenodd" clip-rule="evenodd" d="M84.6922 150.969C82.6268 150.969 80.6143 150.516 79.0398 149.598L5.15161 106.913C3.44496 105.901 2.42188 104.421 2.42188 102.847C2.42188 101.263 3.44504 99.7712 5.18756 98.7725L85.0111 52.6628C88.1733 50.8391 93.1573 50.8391 96.329 52.6628L170.17 95.3479C171.911 96.3617 172.9 97.838 172.9 99.4257C172.9 101.012 171.911 102.488 170.17 103.492L90.3086 149.598C88.7209 150.516 86.7065 150.969 84.6922 150.969ZM90.6653 54.1033C89.1267 54.1033 87.5787 54.4261 86.4328 55.0963L6.57144 101.204C5.737 101.691 5.22328 102.288 5.22328 102.847C5.22328 103.396 5.737 103.993 6.57144 104.482L80.4216 147.165C82.7135 148.499 86.6347 148.499 88.9229 147.178L168.752 101.07C169.621 100.583 170.096 99.9751 170.096 99.4257C170.096 98.8763 169.621 98.2684 168.752 97.7794L94.8979 55.0963C93.7538 54.4261 92.2153 54.1033 90.6653 54.1033ZM5.85588 99.9845H5.90313H5.85588Z" fill="#18265A"/>
<path fill-rule="evenodd" clip-rule="evenodd" d="M74.8398 131.603V135.179C76.5805 143.539 97.3869 143.716 99.1653 135.179V131.592C97.3869 140.057 76.9013 139.865 74.9228 131.936L74.8398 131.603Z" fill="white"/>
<path fill-rule="evenodd" clip-rule="evenodd" d="M87.0651 142.922C81.0919 142.922 74.52 140.621 73.4609 135.47V131.608C73.4609 130.881 73.9726 130.284 74.6881 130.199C75.3923 130.139 76.0718 130.617 76.2266 131.309L76.2626 131.642C77.097 134.945 82.5228 136.59 87.471 136.509C92.085 136.412 97.069 134.779 97.7845 131.309C97.9393 130.605 98.5378 130.139 99.2873 130.199C100.003 130.284 100.563 130.881 100.563 131.596V135.181C99.4533 140.62 93.0044 142.922 87.0651 142.922ZM77.0971 136.852C78.9585 139.035 83.2271 140.122 87.0651 140.122C90.7031 140.122 94.779 139.106 96.7235 136.949C94.1126 138.548 90.5821 139.25 87.5426 139.31C83.9425 139.369 79.8628 138.619 77.0971 136.852Z" fill="#18265A"/>
<path fill-rule="evenodd" clip-rule="evenodd" d="M95.6473 125.942C90.8653 123.19 83.1514 123.19 78.3599 125.942C73.5779 128.685 73.5779 133.158 78.3599 135.912C83.1042 138.665 90.8653 138.665 95.6473 135.912C100.393 133.158 100.393 128.685 95.6473 125.942Z" fill="white"/>
<path fill-rule="evenodd" clip-rule="evenodd" d="M86.9903 139.398C83.6279 139.398 80.2657 138.636 77.6548 137.122C74.9249 135.536 73.375 133.329 73.375 130.933C73.375 128.524 74.9249 126.329 77.6548 124.73C82.9144 121.705 91.1041 121.705 96.3278 124.73C99.0936 126.329 100.596 128.524 100.596 130.933C100.596 133.329 99.0936 135.536 96.3278 137.122C93.7037 138.636 90.3413 139.398 86.9903 139.398ZM86.9903 125.29C84.1056 125.29 81.2077 125.911 79.0744 127.154C77.2129 128.228 76.1898 129.561 76.1898 130.933C76.1898 132.291 77.2129 133.625 79.0744 134.699C83.3429 137.18 90.6283 137.18 94.944 134.699C96.7903 133.625 97.8288 132.291 97.8288 130.933C97.7816 129.561 96.7903 128.228 94.944 127.154C92.7616 125.911 89.875 125.29 86.9903 125.29Z" fill="#18265A"/>
<path fill-rule="evenodd" clip-rule="evenodd" d="M95.5317 88.1465V129.89L95.4958 130.129C94.0647 135.759 79.83 135.759 78.4103 130.129L78.3633 129.89V88.1465C78.4105 88.3146 78.4461 88.4467 78.4801 88.6129C78.684 89.2076 79.0788 89.7588 79.5054 90.1855C80.6155 91.2578 82.2485 91.9411 83.7041 92.2734C86.5529 92.9417 90.1191 92.7265 92.7301 91.3673C93.5513 90.9274 94.3856 90.3176 94.9464 89.5285C95.1748 89.1981 95.3768 88.7921 95.4958 88.3749L95.5317 88.1465Z" fill="white"/>
<path fill-rule="evenodd" clip-rule="evenodd" d="M86.9454 135.758C82.9998 135.758 78.0156 134.374 77.0603 130.474C77.0131 130.357 76.9414 130.009 76.9414 129.89V88.1453C76.9414 87.4203 77.489 86.8238 78.2045 86.7388C78.9918 86.6689 79.5882 87.1561 79.7449 87.8622C79.911 88.504 80.1868 88.874 80.5059 89.1968C81.2459 89.9369 82.558 90.5674 84.0249 90.9129C86.7548 91.5567 89.915 91.2471 92.0841 90.1144C92.8487 89.7198 93.4322 89.2309 93.789 88.7325C93.9457 88.5172 94.0646 88.2529 94.1458 88.0282C94.3025 87.3467 94.8989 86.7388 95.6843 86.871C96.4017 86.954 96.9606 87.4316 96.9606 88.1453V129.89C96.9606 129.985 96.8776 130.307 96.8776 130.402C95.8883 134.374 90.9043 135.758 86.9454 135.758ZM79.7449 92.1646V129.89C80.2187 131.62 83.2263 132.941 86.9454 132.941C90.6665 132.941 93.6719 131.62 94.1458 129.794V92.1646C93.872 92.344 93.5983 92.4874 93.3604 92.6063C90.6305 94.0486 86.7905 94.4413 83.3923 93.6428C82.522 93.4408 81.091 93.0104 79.7449 92.1646Z" fill="#18265A"/>
<path fill-rule="evenodd" clip-rule="evenodd" d="M91.3808 130.25C90.5803 130.25 89.9609 129.619 89.9609 128.844V96.6042C89.9609 95.8283 90.5803 95.1977 91.3808 95.1977C92.1321 95.1977 92.7626 95.8283 92.7626 96.6042V128.844C92.7626 129.619 92.1321 130.25 91.3808 130.25Z" fill="#18265A"/>
<path fill-rule="evenodd" clip-rule="evenodd" d="M86.9947 131.477C86.232 131.477 85.6016 130.846 85.6016 130.07V98.7143C85.6016 97.9365 86.232 97.3059 86.9947 97.3059C87.7819 97.3059 88.4145 97.9365 88.4145 98.7143V130.07C88.4145 130.846 87.7819 131.477 86.9947 131.477Z" fill="#18265A"/>
<path fill-rule="evenodd" clip-rule="evenodd" d="M82.6279 130.523C81.8897 130.523 81.2461 129.889 81.2461 129.115V101.62C81.2461 100.846 81.8897 100.225 82.6279 100.225C83.4284 100.225 84.0609 100.846 84.0609 101.62V129.115C84.0609 129.889 83.4284 130.523 82.6279 130.523Z" fill="#18265A"/>
<path fill-rule="evenodd" clip-rule="evenodd" d="M131.727 97.5105V101.098C133.467 109.457 154.274 109.623 156.05 101.098V97.5105C154.31 105.964 133.777 105.783 131.798 97.8429L131.727 97.5105Z" fill="white"/>
<path fill-rule="evenodd" clip-rule="evenodd" d="M143.984 108.82C137.975 108.82 131.452 106.521 130.378 101.371L130.344 97.5082C130.344 96.7908 130.891 96.1828 131.607 96.1111C132.311 96.0507 132.942 96.5152 133.11 97.2193L133.181 97.5535C134.016 100.857 139.512 102.562 144.377 102.409C148.968 102.324 153.952 100.68 154.667 97.2193C154.822 96.5152 155.419 96.0054 156.204 96.1111C156.92 96.1828 157.433 96.7908 157.433 97.5082V101.095C156.359 106.521 149.923 108.82 143.984 108.82ZM133.98 102.753C135.839 104.933 140.144 106.021 143.984 106.021C147.62 106.021 151.662 105.016 153.642 102.847C150.982 104.458 147.501 105.162 144.424 105.222C140.586 105.269 136.781 104.518 133.98 102.753Z" fill="#18265A"/>
<path fill-rule="evenodd" clip-rule="evenodd" d="M152.536 91.8412C147.741 89.0887 140.029 89.0887 135.281 91.8412C130.501 94.5956 130.501 99.0548 135.247 101.809C140.029 104.564 147.741 104.564 152.536 101.809C157.316 99.0548 157.316 94.5956 152.536 91.8412Z" fill="white"/>
<path fill-rule="evenodd" clip-rule="evenodd" d="M143.912 105.289C140.55 105.289 137.176 104.54 134.564 103.025C131.798 101.426 130.297 99.2327 130.297 96.8256C130.297 94.4261 131.798 92.2211 134.564 90.624C139.785 87.6071 147.979 87.5958 153.237 90.624C155.966 92.2211 157.515 94.4261 157.515 96.8256C157.515 99.2327 155.966 101.426 153.237 103.025C150.637 104.54 147.274 105.289 143.912 105.289ZM143.912 91.1959C141.014 91.1959 138.13 91.8171 135.961 93.0574C134.101 94.1298 133.11 95.4644 133.074 96.8256C133.074 98.183 134.101 99.531 135.961 100.605C140.263 103.071 147.55 103.071 151.819 100.605C153.676 99.531 154.702 98.183 154.702 96.8256C154.702 95.4644 153.676 94.1298 151.819 93.0574C149.683 91.8171 146.797 91.1959 143.912 91.1959Z" fill="#18265A"/>
<path fill-rule="evenodd" clip-rule="evenodd" d="M152.45 54.0463V95.8007L152.369 96.0405C150.985 101.67 136.713 101.657 135.329 96.0405L135.246 95.8007V54.0463C135.28 54.2144 135.329 54.3559 135.365 54.524C135.569 55.1186 135.963 55.6567 136.437 56.0984C137.498 57.1707 139.12 57.8391 140.587 58.1827C143.438 58.8529 147.038 58.6264 149.638 57.2652C150.472 56.8253 151.306 56.2174 151.854 55.4396C152.094 55.1073 152.295 54.6901 152.369 54.2861L152.45 54.0463Z" fill="white"/>
<path fill-rule="evenodd" clip-rule="evenodd" d="M143.869 101.656H143.831C139.874 101.656 134.924 100.274 133.95 96.3739C133.95 96.2682 133.863 95.9095 133.863 95.8V54.0457C133.863 53.3188 134.413 52.7109 135.128 52.6523C135.88 52.5693 136.512 53.0828 136.633 53.7964C136.835 54.4043 137.073 54.7744 137.382 55.0972C138.17 55.8467 139.444 56.4792 140.9 56.8133C143.678 57.4571 146.839 57.1474 148.972 56.0241C149.722 55.6333 150.356 55.1425 150.713 54.6309C150.832 54.4176 150.986 54.1665 151.034 53.9286C151.188 53.2471 151.893 52.6524 152.57 52.7694C153.288 52.8657 153.835 53.3302 153.835 54.0457V95.8C153.835 95.8963 153.801 96.2324 153.754 96.3268C152.774 100.274 147.828 101.656 143.869 101.656ZM136.678 58.0631V95.8C137.142 97.518 140.148 98.8546 143.831 98.8546H143.869C147.554 98.8546 150.558 97.518 151.034 95.6943V58.0631C150.748 58.2443 150.511 58.3859 150.284 58.5067C147.505 59.9472 143.678 60.355 140.267 59.5432C139.397 59.3412 137.979 58.9088 136.678 58.0631Z" fill="#18265A"/>
<path fill-rule="evenodd" clip-rule="evenodd" d="M148.255 96.1484C147.505 96.1484 146.871 95.5293 146.871 94.7534V62.5026C146.871 61.7267 147.505 61.0942 148.255 61.0942C149.054 61.0942 149.686 61.7267 149.686 62.5026V94.7534C149.686 95.5293 149.054 96.1484 148.255 96.1484Z" fill="#18265A"/>
<path fill-rule="evenodd" clip-rule="evenodd" d="M143.913 97.375C143.115 97.375 142.48 96.7425 142.48 95.9798V64.6108C142.48 63.833 143.115 63.2136 143.913 63.2136C144.653 63.2136 145.297 63.833 145.297 64.6108V95.9798C145.297 96.7425 144.653 97.375 143.913 97.375Z" fill="#18265A"/>
<path fill-rule="evenodd" clip-rule="evenodd" d="M139.567 96.4219C138.768 96.4219 138.172 95.7894 138.172 95.0154V67.5316C138.172 66.7576 138.768 66.1232 139.567 66.1232C140.317 66.1232 140.947 66.7576 140.947 67.5316V95.0154C140.947 95.7894 140.317 96.4219 139.567 96.4219Z" fill="#18265A"/>
<path fill-rule="evenodd" clip-rule="evenodd" d="M103.961 81.5167V85.0961C105.703 93.45 126.51 93.6313 128.249 85.0961V81.5034C126.51 89.9706 106.013 89.7912 104.034 81.8394L103.961 81.5167Z" fill="white"/>
<path fill-rule="evenodd" clip-rule="evenodd" d="M116.179 92.8359C110.158 92.8359 103.635 90.5327 102.574 85.3826L102.527 81.5199C102.527 80.7912 103.086 80.1966 103.79 80.1249C104.542 80.0531 105.174 80.5288 105.34 81.233L105.376 81.5672C106.21 84.8691 111.67 86.5851 116.571 86.4209C121.198 86.3378 126.184 84.6916 126.9 81.233C127.017 80.5288 127.615 80.0172 128.401 80.1249C129.116 80.1966 129.664 80.7913 129.664 81.5068V85.0975C128.555 90.5327 122.105 92.8359 116.179 92.8359ZM106.246 86.8023C108.106 88.8752 112.305 90.0325 116.179 90.0325C119.815 90.0325 123.892 89.0187 125.837 86.8608C123.213 88.4693 119.696 89.1621 116.654 89.2225C112.935 89.3169 109.061 88.5448 106.246 86.8023Z" fill="#18265A"/>
<path fill-rule="evenodd" clip-rule="evenodd" d="M124.73 75.8573C119.984 73.1009 112.269 73.1009 107.477 75.8573C102.695 78.6117 102.695 83.069 107.477 85.8234C112.223 88.5797 119.984 88.5797 124.766 85.8234C129.511 83.069 129.51 78.6117 124.73 75.8573Z" fill="white"/>
<path fill-rule="evenodd" clip-rule="evenodd" d="M116.098 89.3047C112.734 89.3047 109.372 88.5534 106.761 87.0393C103.995 85.4403 102.492 83.2464 102.492 80.8394C102.492 78.4286 103.995 76.2236 106.761 74.6377C111.983 71.6228 120.21 71.6228 125.434 74.6377C128.199 76.2368 129.714 78.4286 129.714 80.8394C129.714 83.2464 128.199 85.4403 125.434 87.0393C122.823 88.5534 119.46 89.3047 116.098 89.3047ZM116.098 75.2003C113.211 75.2003 110.327 75.8196 108.192 77.0712C106.332 78.1322 105.307 79.4801 105.307 80.8394C105.307 82.1987 106.332 83.5335 108.192 84.6077C112.46 87.0865 119.745 87.0865 124.05 84.6077C125.909 83.5335 126.901 82.1987 126.901 80.8394C126.901 79.4801 125.909 78.1322 124.05 77.0712C121.867 75.8196 118.983 75.2003 116.098 75.2003Z" fill="#18265A"/>
<path fill-rule="evenodd" clip-rule="evenodd" d="M46.4062 81.02V84.6089C48.1469 92.9666 68.9514 93.1478 70.7298 84.6089V81.02C68.9873 89.474 48.4564 89.2966 46.4779 81.3562L46.4062 81.02Z" fill="white"/>
<path fill-rule="evenodd" clip-rule="evenodd" d="M58.6652 92.3438C52.6542 92.3438 46.1336 90.0425 45.0612 84.8923L45.0234 81.0164C45.0234 80.3009 45.5729 79.693 46.2884 79.6345C47.0738 79.5269 47.6362 80.0386 47.7891 80.7428L47.8629 81.0769C48.6614 84.2844 53.8003 85.9288 58.6276 85.9288H59.0694C63.6476 85.8344 68.6315 84.2014 69.347 80.7428C69.5037 80.0386 70.1342 79.5514 70.8855 79.6345C71.601 79.693 72.1146 80.3009 72.1146 81.0164V84.6053C71.0536 90.0424 64.5554 92.3438 58.6652 92.3438ZM48.6614 86.2743C50.5229 88.4548 54.8253 89.5422 58.6652 89.5422C62.3032 89.5422 66.3453 88.5284 68.286 86.3592C65.6656 87.9677 62.1937 88.6719 59.107 88.7323C55.386 88.804 51.463 88.0394 48.6614 86.2743Z" fill="#18265A"/>
<path fill-rule="evenodd" clip-rule="evenodd" d="M67.2095 75.3538C62.4293 72.6107 54.7021 72.6107 49.9201 75.3538C45.1777 78.1195 45.1777 82.5768 49.9201 85.3312C54.7021 88.0875 62.4293 88.0875 67.2095 85.3312C71.9556 82.5768 71.9556 78.1063 67.2095 75.3538Z" fill="white"/>
<path fill-rule="evenodd" clip-rule="evenodd" d="M58.5921 88.8047C55.2297 88.8047 51.8674 88.0534 49.2432 86.5506C46.4775 84.9535 44.9766 82.7579 44.9766 80.349C44.9766 77.94 46.4775 75.7349 49.2432 74.149C54.4764 71.1227 62.6585 71.1227 67.9144 74.149C70.6462 75.7349 72.1944 77.94 72.1944 80.349C72.1944 82.7579 70.6462 84.9535 67.9144 86.5506C65.3148 88.0534 61.9544 88.8047 58.5921 88.8047ZM58.5921 74.7117C55.6923 74.7117 52.7698 75.3309 50.6384 76.5712C48.7769 77.6435 47.7538 78.9897 47.7538 80.349C47.7538 81.7101 48.7769 83.0448 50.6384 84.119C54.9446 86.5978 62.1904 86.5978 66.4948 84.119C68.3563 83.0448 69.3813 81.7101 69.3813 80.349C69.3813 78.9897 68.3563 77.6435 66.4948 76.5712C64.3615 75.3309 61.4768 74.7117 58.5921 74.7117Z" fill="#18265A"/>
<path fill-rule="evenodd" clip-rule="evenodd" d="M46.957 114.247V117.835C48.6618 126.193 69.4663 126.374 71.2428 117.835V114.247C69.5041 122.702 48.9694 122.536 46.9928 114.594L46.957 114.247Z" fill="white"/>
<path fill-rule="evenodd" clip-rule="evenodd" d="M59.179 125.578C53.1699 125.578 46.6473 123.275 45.575 118.127L45.5391 114.251C45.5391 113.533 46.0867 112.941 46.8022 112.871C47.5177 112.773 48.186 113.273 48.305 113.977L48.3879 114.311C49.2111 117.613 54.5992 119.271 59.5738 119.165C64.1632 119.069 69.1472 117.436 69.8608 113.977C70.0175 113.273 70.6479 112.795 71.4012 112.871C72.1148 112.941 72.6756 113.533 72.6756 114.251V117.84C71.5674 123.275 65.1164 125.578 59.179 125.578ZM49.1752 119.51C51.0366 121.691 55.339 122.776 59.179 122.776C62.8283 122.776 66.8931 121.774 68.8376 119.605C66.1794 121.215 62.7094 121.906 59.6208 121.967C56.0206 122.037 51.9787 121.276 49.1752 119.51Z" fill="#18265A"/>
<path fill-rule="evenodd" clip-rule="evenodd" d="M67.7257 108.6C62.9796 105.846 55.2299 105.846 50.4856 108.6C45.6923 111.355 45.6923 115.814 50.4856 118.568C55.2299 121.321 62.9796 121.321 67.7257 118.568C72.5059 115.814 72.5059 111.355 67.7257 108.6Z" fill="white"/>
<path fill-rule="evenodd" clip-rule="evenodd" d="M59.1021 122.047C55.7398 122.047 52.3757 121.284 49.7685 119.781C46.9895 118.184 45.4961 115.977 45.4961 113.582C45.4961 111.173 46.9895 108.968 49.7685 107.38C54.9885 104.354 63.2179 104.354 68.4379 107.38C71.2055 108.968 72.7064 111.173 72.7064 113.582C72.7064 115.977 71.2055 118.184 68.4379 119.781C65.8269 121.284 62.4645 122.047 59.1021 122.047ZM59.1021 107.954C56.2042 107.954 53.3195 108.573 51.1503 109.802C49.287 110.874 48.3017 112.222 48.3017 113.582C48.3017 114.941 49.287 116.276 51.1503 117.35C55.4679 119.829 62.7382 119.829 67.0067 117.35C68.8682 116.276 69.9047 114.941 69.9047 113.582C69.9047 112.222 68.8682 110.874 67.0067 109.802C64.8753 108.573 61.9868 107.954 59.1021 107.954Z" fill="#18265A"/>
<path fill-rule="evenodd" clip-rule="evenodd" d="M67.6416 70.7974V112.54L67.5718 112.776C66.1767 118.408 51.9043 118.408 50.5205 112.776L50.4375 112.54V70.7974C50.4847 70.9654 50.5206 71.0956 50.5546 71.2617C50.7943 71.8583 51.1529 72.4077 51.6306 72.8476C52.6916 73.9067 54.3114 74.5882 55.7764 74.9224C58.6272 75.602 62.2274 75.3755 64.8421 74.003C65.6633 73.5763 66.4977 72.9646 67.0452 72.1906C67.285 71.847 67.4869 71.4278 67.5718 71.0219L67.6416 70.7974Z" fill="white"/>
<path fill-rule="evenodd" clip-rule="evenodd" d="M59.0661 118.414C55.06 118.414 50.1251 117.019 49.1358 113.132C49.1358 113.026 49.0508 112.667 49.0508 112.548V70.8035C49.0508 70.0766 49.6116 69.4801 50.3157 69.397C51.0652 69.3253 51.6616 69.8142 51.8183 70.5184C52.0203 71.1622 52.2582 71.519 52.615 71.8532C53.3664 72.6027 54.6294 73.2238 56.134 73.5693C58.862 74.2149 62.0224 73.9053 64.1576 72.782C64.9203 72.378 65.5527 71.8872 65.8982 71.3869C66.019 71.1735 66.1739 70.9111 66.2192 70.6846C66.4118 70.0049 67.0423 69.4197 67.805 69.5273C68.4733 69.6104 69.0227 70.088 69.0227 70.8035V112.548C69.0227 112.643 68.985 112.975 68.9492 113.06C67.9618 117.019 63.0137 118.414 59.0661 118.414ZM51.8656 74.821V112.548C52.3281 114.276 55.3338 115.601 59.0661 115.601C62.7381 115.601 65.7793 114.276 66.2192 112.452V74.821C65.9341 74.9871 65.7076 75.1438 65.4698 75.2646C62.704 76.6938 58.8998 77.0977 55.4657 76.2991C54.5935 76.0971 53.1644 75.6668 51.8656 74.821Z" fill="#18265A"/>
<path fill-rule="evenodd" clip-rule="evenodd" d="M63.4464 112.906C62.7063 112.906 62.0625 112.272 62.0625 111.5V79.2585C62.0625 78.4844 62.7063 77.852 63.4464 77.852C64.2431 77.852 64.8773 78.4844 64.8773 79.2585V111.5C64.8773 112.272 64.2431 112.906 63.4464 112.906Z" fill="#18265A"/>
<path fill-rule="evenodd" clip-rule="evenodd" d="M59.1028 114.133C58.3042 114.133 57.6719 113.499 57.6719 112.725V81.3666C57.6719 80.5907 58.3042 79.9602 59.1028 79.9602C59.8523 79.9602 60.4848 80.5907 60.4848 81.3666V112.725C60.4848 113.499 59.8523 114.133 59.1028 114.133Z" fill="#18265A"/>
<path fill-rule="evenodd" clip-rule="evenodd" d="M54.755 113.164C53.9545 113.164 53.3711 112.545 53.3711 111.769V84.2738C53.3711 83.4979 53.9545 82.8786 54.755 82.8786C55.5403 82.8786 56.1368 83.4979 56.1368 84.2738V111.769C56.1368 112.545 55.5403 113.164 54.755 113.164Z" fill="#18265A"/>
<path fill-rule="evenodd" clip-rule="evenodd" d="M18.207 98.0927V101.678C19.9363 110.039 40.7541 110.217 42.5306 101.678V98.0927C40.7541 106.545 20.2572 106.367 18.2787 98.4382L18.207 98.0927Z" fill="white"/>
<path fill-rule="evenodd" clip-rule="evenodd" d="M30.4298 109.422C24.4547 109.422 17.8848 107.119 16.8125 101.969V98.0946C16.8125 97.3791 17.3373 96.7692 18.0415 96.6994C18.8401 96.6031 19.4236 97.1148 19.5897 97.8189L19.6614 98.1531C20.46 101.442 25.7555 103.077 30.8225 103.005C35.4479 102.911 40.4301 101.278 41.1342 97.8189C41.3023 97.1148 41.9347 96.6276 42.6502 96.6994C43.3544 96.7692 43.9151 97.3791 43.9151 98.0946V101.68C42.8051 107.119 36.3559 109.422 30.4298 109.422ZM20.4599 103.35C22.31 105.533 26.5899 106.618 30.4298 106.618C34.064 106.618 38.1325 105.606 40.0732 103.435C37.4642 105.046 33.945 105.748 30.8564 105.808C27.2203 105.926 23.2275 105.117 20.4599 103.35Z" fill="#18265A"/>
<path fill-rule="evenodd" clip-rule="evenodd" d="M39.0014 92.423C34.2194 89.6818 26.5053 89.6818 21.712 92.423C16.9658 95.1906 16.9658 99.6499 21.712 102.404C26.5053 105.157 34.2194 105.157 39.0014 102.404C43.7588 99.6499 43.7588 95.1774 39.0014 92.423Z" fill="white"/>
<path fill-rule="evenodd" clip-rule="evenodd" d="M30.3462 105.891C26.9838 105.891 23.6216 105.128 21.0107 103.614C18.2808 102.028 16.7422 99.8211 16.7422 97.4235C16.7422 95.0164 18.2808 92.8095 21.0107 91.2237C26.2684 88.1955 34.46 88.1955 39.6819 91.2237C42.4495 92.8095 43.9504 95.0164 43.9504 97.4235C43.9504 99.8211 42.4495 102.028 39.6819 103.614C37.0728 105.128 33.7085 105.891 30.3462 105.891ZM30.3462 91.7844C27.4615 91.7844 24.5749 92.4036 22.4303 93.6459C20.5688 94.7182 19.5438 96.0661 19.5438 97.4235C19.5438 98.7828 20.5688 100.118 22.4303 101.192C26.7101 103.672 33.9842 103.672 38.298 101.192C40.1595 100.118 41.1847 98.7828 41.1847 97.4235C41.1847 96.0529 40.1595 94.7182 38.298 93.6459C36.1534 92.4036 33.2309 91.7844 30.3462 91.7844Z" fill="#18265A"/>
<path fill-rule="evenodd" clip-rule="evenodd" d="M38.8853 54.6331V96.3893L38.8475 96.6272C37.4297 102.255 23.1931 102.244 21.7639 96.6272L21.7148 96.3893V54.6331C21.7639 54.8125 21.798 54.9446 21.8471 55.1107C22.0359 55.7054 22.4304 56.2529 22.8722 56.6852C23.9804 57.7556 25.6021 58.4239 27.069 58.7694C29.9178 59.4377 33.4709 59.2244 36.0819 57.8519C36.9182 57.4252 37.7393 56.8022 38.3 56.0263C38.5397 55.694 38.7305 55.2768 38.8475 54.8728L38.8853 54.6331Z" fill="white"/>
<path fill-rule="evenodd" clip-rule="evenodd" d="M30.3001 102.242C26.3544 102.242 21.3703 100.86 20.4132 96.9598C20.3792 96.8541 20.332 96.5068 20.332 96.3878V54.6316C20.332 53.9161 20.8569 53.3213 21.5592 53.2383C22.3125 53.1401 22.9542 53.6536 23.109 54.3578C23.2657 55.0035 23.5396 55.3603 23.8587 55.6812C24.6119 56.4326 25.9106 57.0651 27.3775 57.4105C30.1093 58.043 33.2677 57.7446 35.4501 56.6119C36.2015 56.2192 36.7982 55.7284 37.155 55.23C37.3098 55.0034 37.4305 54.7524 37.4663 54.5353C37.6665 53.8443 38.2991 53.261 39.0523 53.3686C39.7546 53.4517 40.3152 53.9293 40.3152 54.6316V96.3878C40.3152 96.4822 40.2323 96.8296 40.2323 96.924C39.243 100.86 34.259 102.242 30.3001 102.242ZM23.109 58.6621V96.3878C23.5866 98.1171 26.5923 99.4405 30.3001 99.4405C34.0325 99.4405 37.0265 98.1172 37.4663 96.2935L37.5005 58.6621C37.2267 58.8283 36.9511 58.985 36.751 59.1021C33.9853 60.5331 30.1433 60.9276 26.747 60.1404C25.8767 59.9384 24.457 59.4966 23.109 58.6621Z" fill="#18265A"/>
<path fill-rule="evenodd" clip-rule="evenodd" d="M34.7305 96.7422C33.9432 96.7422 33.3125 96.1079 33.3125 95.3339V63.0831C33.3125 62.3185 33.9432 61.6879 34.7305 61.6879C35.4819 61.6879 36.1141 62.3185 36.1141 63.0831V95.3339C36.1141 96.1079 35.4819 96.7422 34.7305 96.7422Z" fill="#18265A"/>
<path fill-rule="evenodd" clip-rule="evenodd" d="M30.3467 97.9609C29.5953 97.9609 28.9648 97.3398 28.9648 96.5639V65.2042C28.9648 64.4302 29.5953 63.7996 30.3467 63.7996C31.1339 63.7996 31.7646 64.4302 31.7646 65.2042V96.5639C31.7646 97.3398 31.1339 97.9609 30.3467 97.9609Z" fill="#18265A"/>
<path fill-rule="evenodd" clip-rule="evenodd" d="M26.0331 97.0078C25.2459 97.0078 24.6133 96.3886 24.6133 95.6126V68.1174C24.6133 67.3434 25.2459 66.7091 26.0331 66.7091C26.7826 66.7091 27.4131 67.3434 27.4131 68.1174V95.6126C27.4131 96.3886 26.7826 97.0078 26.0331 97.0078Z" fill="#18265A"/>
<path fill-rule="evenodd" clip-rule="evenodd" d="M103.09 114.185V117.762C104.83 126.131 125.637 126.297 127.377 117.762V114.185C125.637 122.641 105.14 122.459 103.126 114.519L103.09 114.185Z" fill="white"/>
<path fill-rule="evenodd" clip-rule="evenodd" d="M115.307 125.5C109.296 125.513 102.764 123.199 101.703 118.048L101.656 114.186C101.656 113.459 102.215 112.864 102.919 112.791C103.635 112.744 104.303 113.195 104.433 113.899L104.507 114.233C105.34 117.535 110.716 119.193 115.7 119.098C120.327 119.004 125.276 117.357 126.027 113.899C126.146 113.195 126.742 112.708 127.528 112.791C128.243 112.864 128.793 113.459 128.793 114.186V117.762C127.685 123.199 121.234 125.5 115.307 125.5ZM105.34 119.43C107.165 121.613 111.469 122.7 115.307 122.7C118.945 122.7 123.022 121.698 124.955 119.527C122.344 121.135 118.827 121.83 115.738 121.888C112.1 121.947 108.105 121.197 105.34 119.43Z" fill="#18265A"/>
<path fill-rule="evenodd" clip-rule="evenodd" d="M123.862 108.521C119.104 105.766 111.354 105.766 106.608 108.521C101.813 111.275 101.813 115.734 106.608 118.489C111.354 121.243 119.104 121.243 123.862 118.489C128.642 115.734 128.642 111.275 123.862 108.521Z" fill="white"/>
<path fill-rule="evenodd" clip-rule="evenodd" d="M115.229 121.977C111.867 121.977 108.505 121.216 105.894 119.713C103.126 118.114 101.625 115.92 101.625 113.513C101.625 111.102 103.126 108.909 105.894 107.309C111.114 104.296 119.343 104.296 124.565 107.309C127.332 108.909 128.835 111.102 128.835 113.513C128.835 115.92 127.332 118.114 124.565 119.713C121.956 121.216 118.593 121.977 115.229 121.977ZM115.229 107.883C112.345 107.883 109.46 108.503 107.325 109.745C105.465 110.817 104.44 112.154 104.44 113.513C104.44 114.869 105.465 116.217 107.277 117.279C111.593 119.758 118.877 119.758 123.183 117.279C125.007 116.217 126.034 114.869 126.034 113.513C126.034 112.154 125.007 110.817 123.183 109.745H123.145C121 108.503 118.114 107.883 115.229 107.883Z" fill="#18265A"/>
<path fill-rule="evenodd" clip-rule="evenodd" d="M123.774 70.7236V112.478L123.691 112.716C122.309 118.334 108.037 118.334 106.653 112.716L106.605 112.478V70.7236C106.605 70.8916 106.653 71.0201 106.724 71.2013C106.928 71.796 107.274 72.3358 107.752 72.7738C108.822 73.8348 110.479 74.5145 111.946 74.8619C114.761 75.5283 118.348 75.3018 120.961 73.9425C121.795 73.5139 122.632 72.8928 123.179 72.1169C123.417 71.7733 123.619 71.3674 123.691 70.9634L123.774 70.7236Z" fill="white"/>
<path fill-rule="evenodd" clip-rule="evenodd" d="M115.191 118.336C111.232 118.336 106.248 116.954 105.259 113.054C105.259 112.946 105.176 112.587 105.176 112.48V70.7253C105.176 70.0098 105.737 69.4019 106.452 69.3302C107.239 69.2717 107.834 69.7361 107.955 70.4403C108.145 71.0973 108.383 71.4541 108.704 71.7751C109.49 72.5265 110.756 73.157 112.268 73.4912C115 74.1481 118.159 73.8272 120.294 72.7039C121.045 72.2999 121.678 71.8109 122.034 71.3106C122.191 71.0973 122.31 70.8462 122.346 70.6177C122.51 69.9381 123.179 69.368 123.894 69.4492C124.598 69.5342 125.157 70.0098 125.157 70.7253V112.48C125.157 112.576 125.123 112.91 125.076 113.005C124.085 116.954 119.15 118.336 115.191 118.336ZM107.991 74.7447V112.48C108.464 114.207 111.472 115.534 115.191 115.534C118.874 115.534 121.916 114.207 122.346 112.374V74.7447C122.106 74.9222 121.833 75.0656 121.595 75.1845C118.829 76.6288 115.036 77.0328 111.638 76.221C110.756 76.019 109.299 75.5905 107.991 74.7447Z" fill="#18265A"/>
<path fill-rule="evenodd" clip-rule="evenodd" d="M119.579 112.828C118.83 112.828 118.195 112.209 118.195 111.435V79.1803C118.195 78.4063 118.83 77.7739 119.579 77.7739C120.376 77.7739 120.997 78.4063 120.997 79.1803V111.435C120.997 112.209 120.376 112.828 119.579 112.828Z" fill="#18265A"/>
<path fill-rule="evenodd" clip-rule="evenodd" d="M115.23 114.055C114.443 114.055 113.812 113.422 113.812 112.646V81.2905C113.812 80.5127 114.443 79.882 115.23 79.882C115.98 79.882 116.614 80.5127 116.614 81.2905V112.646C116.614 113.422 115.98 114.055 115.23 114.055Z" fill="#18265A"/>
<path fill-rule="evenodd" clip-rule="evenodd" d="M110.876 113.109C110.124 113.109 109.492 112.477 109.492 111.703V84.2171C109.492 83.4431 110.124 82.8107 110.876 82.8107C111.673 82.8107 112.307 83.4431 112.307 84.2171V111.703C112.307 112.477 111.673 113.109 110.876 113.109Z" fill="#18265A"/>
<path fill-rule="evenodd" clip-rule="evenodd" d="M166.02 47.2679L87.0286 1.6603C86.6 1.43375 86.515 1.42239 86.0392 1.41106L45.9652 4.30708C45.4517 4.37881 45.2138 4.46197 44.7362 4.70173C44.2227 5.03589 43.949 5.28696 43.5563 5.72495L3.13657 50.1299C2.10012 51.3797 1.51496 52.5011 1.38281 54.1473V56.1863C1.43001 56.4959 1.42997 56.6147 1.66973 56.8186L80.6985 102.438C80.4228 102.232 80.4228 102.101 80.3756 101.803L80.4228 99.7642C80.5059 98.0972 81.0911 97.0118 82.1653 95.7337L122.549 51.3324C123.061 50.8095 123.419 50.5094 124.05 50.1639C124.407 50.0204 124.6 49.9751 124.958 49.9128L165.03 47.0148C165.508 47.0413 165.627 47.0413 166.02 47.2679Z" fill="#FF0092"/>
<path fill-rule="evenodd" clip-rule="evenodd" d="M80.6617 103.828C80.4239 103.828 80.1881 103.768 79.9842 103.635L0.991186 58.0298C0.0868888 57.3408 0.049085 56.6838 0 56.3025V54.1446C0.120825 52.2246 0.715498 50.8294 2.06534 49.2209L42.4832 4.7707C42.9608 4.28173 43.3552 3.93439 43.9858 3.53039C44.6654 3.16036 45.06 3.00555 45.7755 2.91116L85.9196 0.00189209C86.7068 0.0245514 87.0297 0.0604477 87.6961 0.428581L166.734 46.0588C167.405 46.442 167.643 47.2878 167.25 47.9561C166.891 48.6244 166.021 48.8642 165.352 48.5055L165.186 48.4206L125.04 51.3184C124.921 51.3411 124.836 51.3543 124.565 51.4638C124.206 51.6526 124.015 51.8433 123.538 52.3096L83.1898 96.673C82.2478 97.7963 81.889 98.6176 81.8078 99.856V101.587C82.1287 102.063 82.1646 102.718 81.8078 103.22C81.568 103.615 81.1394 103.828 80.6617 103.828ZM2.76776 55.8625L78.993 99.8466V99.7522C79.161 97.5452 79.9464 96.1972 81.0565 94.838L121.523 50.3896C122.156 49.7345 122.584 49.338 123.419 48.9095C124.015 48.6716 124.289 48.5866 124.767 48.5281L160.882 45.9171L86.3141 2.87336L46.0493 5.69955C45.8114 5.73541 45.7378 5.75991 45.4169 5.93738C45.145 6.11672 44.9052 6.30749 44.5465 6.69073L4.16271 51.056C3.24519 52.1661 2.89992 53.0118 2.81685 54.239L2.76776 55.8625Z" fill="#18265A"/>
<path fill-rule="evenodd" clip-rule="evenodd" d="M165.03 47.0142L124.956 49.9122C124.17 49.9726 123.347 50.4597 122.549 51.3319L82.1629 95.733C81.0905 96.9148 80.4222 98.4402 80.4222 99.7617L80.375 101.803C80.375 102.424 80.8528 102.673 81.4116 102.352L165.698 52.8082C166.259 52.4872 166.687 51.7 166.687 51.0675L166.733 49.0418C166.733 47.7071 166.091 46.9443 165.03 47.0142Z" fill="white"/>
<path fill-rule="evenodd" clip-rule="evenodd" d="M80.9347 103.891C80.5779 103.891 80.2684 103.806 79.9834 103.638C79.349 103.27 78.9922 102.579 78.9922 101.778V99.7543C79.0413 98.0835 79.7906 96.2221 81.0914 94.793L121.522 50.3917C122.548 49.2344 123.69 48.602 124.834 48.5171L164.91 45.621C165.78 45.5493 166.568 45.823 167.13 46.3592C167.606 46.7896 168.153 47.6109 168.119 49.0419V51.0809C168.119 52.2023 167.366 53.4426 166.415 54.0127L82.128 103.555C81.7221 103.781 81.3293 103.891 80.9347 103.891ZM165.186 48.3981L165.15 48.4227L125.04 51.3187C124.645 51.3432 124.133 51.6906 123.573 52.2739L83.189 96.6752C82.3546 97.6078 81.807 98.7858 81.807 99.775V100.477L164.995 51.5962C165.112 51.5225 165.304 51.213 165.304 51.0582V49.0192C165.304 48.6265 165.221 48.434 165.186 48.3981ZM165.031 47.0143H165.065H165.031Z" fill="#18265A"/>
<path fill-rule="evenodd" clip-rule="evenodd" d="M154.79 53.7483L92.3711 90.4375L123.695 56.0025L154.79 53.7483Z" fill="white"/>
<path fill-rule="evenodd" clip-rule="evenodd" d="M92.3683 91.8438C91.9756 91.8438 91.5716 91.6663 91.296 91.3208C90.8674 90.7828 90.8674 90.0087 91.3451 89.4952L122.667 55.0489C122.905 54.7883 123.264 54.6203 123.621 54.5958L154.704 52.3549C155.337 52.3171 155.931 52.7117 156.135 53.3328C156.326 53.952 156.052 54.6316 155.492 54.9658L93.0839 91.6436C92.8479 91.7739 92.6062 91.8438 92.3683 91.8438ZM124.36 57.3502L99.6064 84.5489L148.933 55.5869L124.36 57.3502Z" fill="#18265A"/>
<path fill-rule="evenodd" clip-rule="evenodd" d="M166.022 47.2681L87.0307 1.66047C86.6021 1.43392 86.5171 1.42256 86.0413 1.41123L45.9673 4.30724C45.4538 4.37898 45.2159 4.46213 44.7383 4.70189L124.052 50.1641C124.409 50.0206 124.602 49.9753 124.96 49.913L165.032 47.015C165.51 47.0414 165.629 47.0415 166.022 47.2681Z" fill="white"/>
<path fill-rule="evenodd" clip-rule="evenodd" d="M124.051 51.5547C123.815 51.5547 123.574 51.4961 123.383 51.3734L44.071 5.91311C43.5934 5.66013 43.3555 5.18442 43.3555 4.6728C43.3555 4.1593 43.6426 3.69484 44.1051 3.45508C44.6658 3.15679 45.0602 3.00203 45.7757 2.90763L85.9198 -0.00162888C86.707 0.0210266 87.0299 0.0587654 87.6964 0.426903L166.735 46.0571C167.405 46.4384 167.643 47.2842 167.25 47.9544C166.891 48.6208 166.021 48.8606 165.353 48.5038L165.188 48.4189L125.041 51.3149C124.922 51.3394 124.838 51.3526 124.565 51.4602C124.408 51.5301 124.253 51.5547 124.051 51.5547ZM48.9343 5.49403L124.208 48.6322C124.363 48.585 124.565 48.5492 124.767 48.5265L160.882 45.9156L86.3143 2.87168L48.9343 5.49403Z" fill="#18265A"/>
</svg>
