<svg width="14" height="14" viewBox="0 0 14 14" fill="none" xmlns="http://www.w3.org/2000/svg">
<path d="M6.3 10.5H7.7V6.3H6.3V10.5ZM7 4.9C7.19833 4.9 7.3647 4.8328 7.4991 4.6984C7.63303 4.56447 7.7 4.39833 7.7 4.2C7.7 4.00167 7.63303 3.8353 7.4991 3.7009C7.3647 3.56697 7.19833 3.5 7 3.5C6.80167 3.5 6.63553 3.56697 6.5016 3.7009C6.3672 3.8353 6.3 4.00167 6.3 4.2C6.3 4.39833 6.3672 4.56447 6.5016 4.6984C6.63553 4.8328 6.80167 4.9 7 4.9ZM7 14C6.03167 14 5.12167 13.8161 4.27 13.4484C3.41833 13.0811 2.6775 12.5825 2.0475 11.9525C1.4175 11.3225 0.918867 10.5817 0.5516 9.73C0.183867 8.87833 0 7.96833 0 7C0 6.03167 0.183867 5.12167 0.5516 4.27C0.918867 3.41833 1.4175 2.6775 2.0475 2.0475C2.6775 1.4175 3.41833 0.918633 4.27 0.5509C5.12167 0.183633 6.03167 0 7 0C7.96833 0 8.87833 0.183633 9.73 0.5509C10.5817 0.918633 11.3225 1.4175 11.9525 2.0475C12.5825 2.6775 13.0811 3.41833 13.4484 4.27C13.8161 5.12167 14 6.03167 14 7C14 7.96833 13.8161 8.87833 13.4484 9.73C13.0811 10.5817 12.5825 11.3225 11.9525 11.9525C11.3225 12.5825 10.5817 13.0811 9.73 13.4484C8.87833 13.8161 7.96833 14 7 14Z" fill="#888888"/>
</svg>
