<svg width="15" height="15" viewBox="0 0 15 15" fill="none" xmlns="http://www.w3.org/2000/svg">
<path d="M6.68316 11.0391H8.1683V6.78906H6.68316V11.0391ZM7.42573 5.3724C7.63613 5.3724 7.81261 5.3044 7.95518 5.1684C8.09726 5.03287 8.1683 4.86476 8.1683 4.66406C8.1683 4.46337 8.09726 4.29502 7.95518 4.15902C7.81261 4.02349 7.63613 3.95573 7.42573 3.95573C7.21533 3.95573 7.0391 4.02349 6.89702 4.15902C6.75444 4.29502 6.68316 4.46337 6.68316 4.66406C6.68316 4.86476 6.75444 5.03287 6.89702 5.1684C7.0391 5.3044 7.21533 5.3724 7.42573 5.3724ZM7.42573 14.5807C6.3985 14.5807 5.43316 14.3947 4.5297 14.0226C3.62623 13.6509 2.84034 13.1464 2.17203 12.5089C1.50371 11.8714 0.974751 11.1217 0.585148 10.2599C0.195049 9.39809 0 8.47726 0 7.4974C0 6.51754 0.195049 5.5967 0.585148 4.7349C0.974751 3.87309 1.50371 3.12344 2.17203 2.48594C2.84034 1.84844 3.62623 1.34363 4.5297 0.971521C5.43316 0.599882 6.3985 0.414062 7.42573 0.414062C8.45296 0.414062 9.4183 0.599882 10.3218 0.971521C11.2252 1.34363 12.0111 1.84844 12.6794 2.48594C13.3478 3.12344 13.8767 3.87309 14.2663 4.7349C14.6564 5.5967 14.8515 6.51754 14.8515 7.4974C14.8515 8.47726 14.6564 9.39809 14.2663 10.2599C13.8767 11.1217 13.3478 11.8714 12.6794 12.5089C12.0111 13.1464 11.2252 13.6509 10.3218 14.0226C9.4183 14.3947 8.45296 14.5807 7.42573 14.5807ZM7.42573 13.1641C9.08414 13.1641 10.4888 12.6151 11.6398 11.5172C12.7908 10.4193 13.3663 9.07934 13.3663 7.4974C13.3663 5.91545 12.7908 4.57552 11.6398 3.4776C10.4888 2.37969 9.08414 1.83073 7.42573 1.83073C5.76732 1.83073 4.36262 2.37969 3.21163 3.4776C2.06064 4.57552 1.48515 5.91545 1.48515 7.4974C1.48515 9.07934 2.06064 10.4193 3.21163 11.5172C4.36262 12.6151 5.76732 13.1641 7.42573 13.1641Z" fill="#EF4050"/>
</svg>
