<svg width="85" height="85" viewBox="0 0 85 85" fill="none" xmlns="http://www.w3.org/2000/svg">
<path d="M79.2703 21.2408L69.412 15.5488L63.7215 5.69195H52.3393L42.481 0L32.6227 5.69195H21.2405L15.5486 15.5503L5.69195 21.2408V32.6229L0 42.4813L5.69195 52.3396V63.7218L15.5503 69.4137L21.2422 79.272H32.6244L42.4813 84.9625L52.3396 79.2706H63.7218L69.4137 69.4122L79.272 63.7203V52.3381L84.964 42.4798L79.272 32.6215V21.2408H79.2703ZM38.6469 59.8684C37.8548 60.6605 36.8112 61.0455 35.7723 61.031C34.7332 61.0457 33.6899 60.6605 32.8978 59.8684L20.4735 47.4442C18.9172 45.8878 18.9172 43.363 20.4735 41.8066L23.7626 38.5176C25.319 36.9612 27.8438 36.9612 29.4001 38.5176L35.7723 44.8898L55.5609 25.0998C57.1173 23.5434 59.6421 23.5434 61.1984 25.0998L64.4875 28.3888C66.0439 29.9452 66.0439 32.47 64.4875 34.0263L38.6469 59.8684Z" fill="#35D7A1"/>
</svg>
