<svg width="31" height="40" viewBox="0 0 31 40" fill="none" xmlns="http://www.w3.org/2000/svg">
<path d="M28.2085 4.01541L23.9848 1.64745C22.9987 1.0446 21.7846 1.0446 20.796 1.64745L2.79225 12.6318C1.80101 13.2374 1.19141 14.3562 1.19141 15.5673V32.993C1.19141 34.2041 1.80101 35.3202 2.78969 35.9258L7.01335 38.3426C8.00203 38.9482 9.22123 38.9482 10.2099 38.3426L28.2162 27.3066C29.2049 26.7011 29.8145 25.5823 29.8145 24.3739V6.95091C29.8145 5.73978 29.2049 4.61826 28.2136 4.01541" fill="#CACACA"/>
<path d="M28.4659 7.38247C28.4659 6.70359 27.9664 6.45647 27.3517 6.83122L10.0882 17.3295C9.47347 17.7043 8.97401 18.5569 8.97657 19.2358L8.99194 35.8658C8.99194 36.5447 9.49396 36.7918 10.1061 36.4171L27.3696 25.9161C27.9843 25.5413 28.4812 24.6887 28.4812 24.0098L28.4633 7.37976L28.4659 7.38247Z" fill="white"/>
<path d="M24.4825 17.8617C25.0409 17.8264 25.32 18.2038 25.3482 18.8311C25.3482 19.4122 25.2048 19.9119 24.9307 20.4251C24.7617 20.7401 24.5901 21.0497 24.4185 21.3647C23.4682 23.1108 22.5103 24.8515 21.5702 26.603C21.2398 27.2167 20.8659 27.6784 20.4023 28.0178C19.9899 28.3219 19.5826 28.6505 19.1728 28.971C19.1523 28.9872 19.1293 29.0035 19.1088 29.0144C18.909 29.1366 18.7784 29.0524 18.804 28.789C18.868 28.1264 18.9372 27.4611 19.0089 26.7931C19.0499 26.4156 19.1831 26.0273 19.388 25.6526C20.5611 23.4964 21.7316 21.3403 22.9098 19.1868C23.189 18.6763 23.545 18.2826 23.9062 18.0599C24.0983 17.9404 24.2929 17.8725 24.4799 17.8617H24.4825ZM24.5209 20.1834C24.8667 19.548 24.8641 18.9044 24.526 18.698C24.357 18.5921 24.1393 18.6193 23.9216 18.7551C23.7038 18.8908 23.4784 19.1325 23.3017 19.4557C22.1363 21.5928 20.9734 23.7272 19.8157 25.8671C19.7107 26.0626 19.6159 26.307 19.5903 26.4998C19.5135 27.0212 19.4725 27.5317 19.4161 28.0775C19.8106 27.7707 20.1769 27.4828 20.5457 27.195C20.7378 27.0456 20.8992 26.842 21.0324 26.5948C22.1952 24.4577 23.3606 22.3206 24.5209 20.1834Z" fill="#CACACA"/>
<path d="M18.0574 23.4813C18.4006 23.2722 18.7464 23.074 19.0896 22.8649C19.2997 22.7399 19.4098 22.816 19.4021 23.0332C19.397 23.2396 19.2843 23.4324 19.0922 23.5492C19.0794 23.5573 19.0666 23.5655 19.0538 23.5709C18.7925 23.7094 18.5287 23.8587 18.2675 24.019C17.9165 24.2335 17.5631 24.4697 17.2122 24.7304C15.9238 25.6863 14.7046 26.8866 13.5597 28.3204C13.4521 28.4535 13.406 28.5838 13.406 28.7277C13.4086 29.5505 13.4111 30.3706 13.4137 31.1934C13.4137 31.4568 13.5264 31.5193 13.7441 31.3862C14.7405 30.778 15.7368 30.167 16.7306 29.5587C16.7537 29.5451 16.7767 29.5288 16.7998 29.5152C16.8229 29.5017 16.8459 29.4881 16.869 29.4772C17.0201 29.4066 17.1251 29.4826 17.1277 29.6619C17.1277 29.8411 17.0329 30.0475 16.8766 30.1588C16.7998 30.2131 16.723 30.262 16.6436 30.3109C16.577 30.3516 16.5104 30.3924 16.4438 30.4331C16.3106 30.5146 16.1774 30.596 16.0442 30.6802C15.7778 30.8431 15.5114 31.0061 15.2451 31.169C14.9172 31.3699 14.5868 31.5709 14.2589 31.7718C14.095 31.8723 13.9311 31.9728 13.7672 32.0733C13.2037 32.4154 12.8502 32.2036 12.8476 31.522C12.8451 30.7182 12.8476 29.909 12.84 29.1079C12.8348 28.6463 13.0039 28.2281 13.3394 27.8099C14.5689 26.2783 15.8726 24.9911 17.2532 24.0081C17.5221 23.818 17.791 23.6442 18.06 23.4786L18.0574 23.4813Z" fill="#CACACA"/>
<path d="M18.3325 14.9765C19.9128 14.0125 21.1935 14.7891 21.1961 16.7144C21.1986 18.6343 19.9179 20.986 18.3427 21.9446C16.7624 22.9086 15.4791 22.1292 15.4766 20.2066C15.474 18.284 16.7496 15.9432 18.3299 14.9765H18.3325ZM18.3453 21.244C19.6106 20.47 20.6274 18.5963 20.6198 17.0566C20.6146 15.5196 19.5875 14.9004 18.3299 15.6717C17.0595 16.4564 16.0401 18.3356 16.0503 19.8726C16.0631 21.4069 17.0825 22.0179 18.3427 21.2467" fill="#CACACA"/>
</svg>
