<svg width="188" height="135" viewBox="0 0 188 135" fill="none" xmlns="http://www.w3.org/2000/svg">
<g clip-path="url(#clip0_3518_7315)">
<path d="M16.5415 107.896C15.0381 107.75 11.6675 107.68 9.55481 107.68C4.53616 107.68 1.92383 109.592 1.92383 114.396V134.032C1.92383 134.43 2.24818 134.752 2.64266 134.752H4.47041C4.86489 134.752 5.18486 134.425 5.18486 134.032V122.229H16.1864C16.5809 122.229 16.9053 121.903 16.9053 121.505V120.132C16.9053 119.734 16.5809 119.412 16.1864 119.412H5.18047V114.396C5.18047 111.654 5.78972 110.643 9.58549 110.643H16.502C16.7519 110.643 16.8965 110.462 16.8965 110.21V108.404C16.8965 108.187 16.7519 107.936 16.5371 107.9" fill="white"/>
<path d="M23.4899 107.688H21.6622C21.2677 107.688 20.9434 108.014 20.9434 108.412V111.3C20.9434 111.697 21.2677 112.024 21.6622 112.024H23.4899C23.8844 112.024 24.2044 111.697 24.2044 111.3V108.412C24.2044 108.014 23.8844 107.688 23.4899 107.688Z" fill="white"/>
<path d="M23.4194 114.891H21.7013C21.3068 114.891 20.9824 115.217 20.9824 115.615V134.024C20.9824 134.421 21.3068 134.743 21.7013 134.743H23.4194C23.8139 134.743 24.1383 134.421 24.1383 134.024V115.615C24.1383 115.217 23.8139 114.891 23.4194 114.891Z" fill="white"/>
<path d="M37.5371 114.641H34.9949C32.5579 114.641 28.7227 115.581 28.7227 121.136V134.025C28.7227 134.423 28.9725 134.745 29.367 134.745H31.2298C31.6243 134.745 31.8741 134.418 31.8741 134.025V121.136C31.8741 118.429 32.5535 117.383 34.9905 117.383H37.5327C39.9697 117.383 40.6491 118.429 40.6491 121.136V134.025C40.6491 134.423 40.8989 134.745 41.2934 134.745H43.1562C43.5507 134.745 43.8005 134.418 43.8005 134.025V121.136C43.8005 115.577 39.9653 114.641 37.5283 114.641" fill="white"/>
<path d="M56.6682 132.439H53.7666C51.7986 132.439 51.1148 132.077 51.1148 129.984V117.421H56.7033C57.0978 117.421 57.3827 117.134 57.3827 116.772V115.545C57.3827 115.147 57.0978 114.896 56.7033 114.896H51.1148V111.067C51.1148 110.705 50.865 110.383 50.5056 110.383H50.4354L48.6778 110.67C48.2833 110.74 47.959 110.997 47.959 111.354V129.98C47.959 133.879 49.8919 134.996 53.2625 134.996C54.5512 134.996 56.0195 134.89 56.7033 134.779C57.2424 134.709 57.4221 134.492 57.4221 134.166V132.938C57.4221 132.576 57.1723 132.43 56.6682 132.43" fill="white"/>
<path d="M90.2746 115.038C89.0911 114.822 87.4431 114.641 85.795 114.641C80.886 114.641 78.1641 118.107 78.1641 123.415V126.232C78.1641 131.539 80.921 135.006 85.795 135.006C87.4782 135.006 89.0911 134.825 90.2746 134.608C90.8488 134.498 90.9934 134.281 90.9934 133.813V132.515C90.9934 132.153 90.7085 131.972 90.3842 131.972H90.2395C88.6616 132.153 87.5527 132.224 85.795 132.224C82.8934 132.224 81.3155 130.276 81.3155 126.232V123.415C81.3155 119.334 82.9285 117.422 85.795 117.422C87.5527 117.422 88.6616 117.493 90.2395 117.674H90.3842C90.7041 117.674 90.9934 117.493 90.9934 117.131V115.833C90.9934 115.325 90.8488 115.148 90.2746 115.038Z" fill="white"/>
<path d="M101.561 114.644C100.162 114.644 98.659 114.86 97.4405 115.151V108.294C97.4405 107.896 97.1162 107.609 96.7611 107.609H94.9334C94.5389 107.609 94.2891 107.936 94.2891 108.294V134.033C94.2891 134.43 94.6134 134.752 95.0035 134.752H96.7217C97.1162 134.752 97.4405 134.426 97.4405 134.033V117.898C98.5494 117.571 100.127 117.355 101.561 117.355C104.787 117.355 106.22 118.909 106.22 121.903V134.033C106.22 134.43 106.544 134.752 106.939 134.752H108.657C109.051 134.752 109.376 134.426 109.376 134.033V121.903C109.376 117.606 106.939 114.648 101.565 114.648" fill="white"/>
<path d="M121.807 120.564L119.514 119.156C116.328 117.204 114.675 115.87 114.675 113.632C114.675 110.633 116.683 109.265 121.412 109.265C123.24 109.265 125.927 109.627 126.716 109.627C127.11 109.627 127.395 109.481 127.395 109.123V108.655C127.395 108.328 127.145 108.152 126.786 108.112C125.243 107.966 123.345 107.75 121.447 107.75C117.253 107.75 113.062 108.867 113.062 113.596C113.062 116.811 115.425 118.542 118.686 120.564L120.943 121.973C124.919 124.463 126.462 125.404 126.462 128.075C126.462 131.034 125.208 133.454 119.795 133.454C117.823 133.454 116.284 133.202 114.421 133.056H114.277C113.917 133.056 113.597 133.162 113.597 133.524V133.992C113.597 134.354 113.922 134.535 114.242 134.571C115.675 134.716 117.468 134.968 119.795 134.968C126.711 134.968 128.11 131.361 128.11 128.075C128.11 124.79 125.782 122.984 121.802 120.569" fill="white"/>
<path d="M143.335 133.089C142.046 133.305 140.074 133.557 138.356 133.557C134.341 133.557 132.908 130.85 132.908 126.191V123.953C132.908 119.294 134.341 116.587 138.356 116.587C140.074 116.587 142.046 116.839 143.335 117.055V133.084V133.089ZM144.374 115.872C142.796 115.545 140.398 115.188 138.356 115.188C133.412 115.188 131.334 118.76 131.334 123.957V126.196C131.334 131.393 133.412 134.97 138.356 134.97C140.398 134.97 142.8 134.608 144.374 134.285C144.803 134.179 144.913 134.034 144.913 133.601V116.561C144.913 116.128 144.803 115.982 144.374 115.876" fill="white"/>
<path d="M162.079 115.359H161.72C161.36 115.359 161.111 115.686 161.111 116.044V127.701C161.111 132.32 158.639 133.477 156.202 133.477H155.522C153.085 133.477 150.613 132.32 150.613 127.701V116.044C150.613 115.682 150.363 115.359 150.004 115.359H149.644C149.285 115.359 149.035 115.686 149.035 116.044V127.701C149.035 133.658 153.085 134.956 155.522 134.956H156.202C158.639 134.956 162.689 133.658 162.689 127.701V116.044C162.689 115.682 162.439 115.359 162.079 115.359Z" fill="white"/>
<path d="M178.27 133.09C176.982 133.306 175.009 133.558 173.291 133.558C169.276 133.558 167.843 130.851 167.843 126.193V123.813C167.843 119.048 169.346 116.593 173.291 116.593C174.689 116.593 176.912 116.774 178.27 117.061V133.09ZM179.239 107.93H178.88C178.52 107.93 178.27 108.252 178.27 108.614V115.728C176.837 115.401 174.689 115.185 173.291 115.185C168.632 115.185 166.27 118.108 166.27 123.813V126.193C166.27 131.39 168.347 134.962 173.291 134.962C175.334 134.962 177.736 134.6 179.309 134.278C179.739 134.168 179.848 134.026 179.848 133.594V108.614C179.848 108.252 179.599 107.93 179.239 107.93Z" fill="white"/>
<path d="M185.4 115.359H185.185C184.826 115.359 184.506 115.686 184.506 116.044V134.272C184.506 134.634 184.826 134.956 185.185 134.956H185.4C185.759 134.956 186.079 134.629 186.079 134.272V116.044C186.079 115.682 185.755 115.359 185.4 115.359Z" fill="white"/>
<path d="M185.402 107.75H185.187C184.828 107.75 184.508 108.077 184.508 108.434V111.106C184.508 111.503 184.828 111.79 185.187 111.79H185.402C185.761 111.79 186.081 111.503 186.081 111.106V108.434C186.081 108.072 185.757 107.75 185.402 107.75Z" fill="white"/>
<path d="M67.2767 114.637C62.1528 114.637 59.3477 118.426 59.3477 123.552V126.078C59.3477 133.011 63.6694 134.993 67.7895 134.993C70.1915 134.993 71.8614 134.777 73.9039 134.38C74.4781 134.269 74.5702 134.018 74.5702 133.55V132.322C74.5702 131.96 74.4387 131.598 74.1538 131.598H73.9741C72.326 132.167 69.9811 132.212 67.9035 132.212C64.6074 132.212 62.727 130.41 62.727 126.259V123.226C62.727 119.508 64.4934 117.415 67.5747 117.415C70.6561 117.415 72.3129 119.366 72.3129 123.226V123.645H64.8178C64.4452 123.645 64.1428 123.95 64.1428 124.325V125.235C64.1428 125.61 64.4452 125.915 64.8178 125.915H74.6184C75.0479 125.915 75.1312 125.5 75.1312 125.027V123.513C75.1312 118.386 72.5057 114.633 67.2723 114.633" fill="white"/>
<path d="M67.4609 34.5077L71.6687 32.0526C71.8659 31.9378 71.9843 31.7258 71.9843 31.5006V25.8442C71.9843 25.6145 71.8659 25.407 71.6687 25.2922L67.4609 22.8371C67.0357 22.5898 66.5098 22.8989 66.5098 23.389V33.9557C66.5098 34.4459 67.0401 34.755 67.4609 34.5077Z" fill="white"/>
<path d="M67.464 16.4218L71.6893 18.8813C71.8866 18.9961 72.1276 18.9961 72.3249 18.8813L77.1594 16.0686C77.3567 15.9537 77.475 15.7462 77.475 15.5166L77.4969 10.5887C77.4969 10.0942 76.971 9.78507 76.5458 10.0323L67.464 15.3135C67.0432 15.5607 67.0432 16.1745 67.464 16.4218Z" fill="white"/>
<path d="M77.1603 41.2613L72.3214 38.422C72.1241 38.3072 71.8831 38.3072 71.6858 38.422L67.4254 40.8992C67.0047 41.1421 67.0047 41.7559 67.4254 42.0031L76.5423 47.3858C76.9675 47.6375 77.4978 47.3284 77.4978 46.8339L77.4803 41.8177C77.4803 41.5925 77.3576 41.3805 77.1647 41.2701" fill="white"/>
<path d="M83.3141 51.2061L93.6845 57.2423C93.8817 57.3571 94.1228 57.3571 94.32 57.2423L104.682 51.2061C104.875 51.0913 104.997 50.8838 104.997 50.6542L105.019 45.7528C105.019 45.2582 104.493 44.9491 104.068 45.1964L94.3156 50.8529C94.1184 50.9677 93.8773 50.9677 93.6845 50.8529L83.9277 45.1964C83.5025 44.9491 82.9766 45.2626 82.9766 45.7528L82.9941 50.6542C82.9941 50.8838 83.1168 51.0913 83.3097 51.2061" fill="white"/>
<path d="M105.01 31.4773C105.01 31.7069 104.892 31.9145 104.694 32.0293L94.3195 38.1008C94.1222 38.2156 93.8812 38.2156 93.6839 38.1008L83.3091 32.0293C83.1119 31.9145 82.9936 31.7069 82.9936 31.4773V25.8253C82.9936 25.5957 83.1163 25.3837 83.3135 25.2689L93.6883 19.2724C93.8856 19.1576 94.1222 19.1576 94.3195 19.2724L104.694 25.2689C104.892 25.3837 105.014 25.5957 105.014 25.8253V31.4773H105.01ZM110.169 22.072L94.3195 12.883C94.1222 12.7682 93.8812 12.7682 93.6883 12.883L77.839 22.072C77.6418 22.1868 77.5234 22.3987 77.5234 22.6239V34.6698C77.5234 34.8995 77.6418 35.107 77.839 35.2218L93.6883 44.4461C93.8856 44.5609 94.1266 44.5609 94.3239 44.4461L110.173 35.2218C110.37 35.107 110.489 34.895 110.489 34.6698V22.6239C110.489 22.3943 110.366 22.1824 110.169 22.072Z" fill="white"/>
<path d="M116.331 25.2844C116.134 25.3992 116.016 25.6111 116.016 25.8363V31.4928C116.016 31.7224 116.134 31.93 116.331 32.0448L120.539 34.4999C120.96 34.7471 121.49 34.438 121.49 33.9479V23.3812C121.49 22.8911 120.96 22.582 120.539 22.8293L116.331 25.2844Z" fill="white"/>
<path d="M110.826 16.0686L115.66 18.8813C115.858 18.9961 116.099 18.9961 116.296 18.8813L120.521 16.4218C120.942 16.1745 120.942 15.5607 120.521 15.3135L111.439 10.0323C111.014 9.78507 110.488 10.0942 110.488 10.5887L110.506 15.5166C110.506 15.7418 110.629 15.9537 110.821 16.0686" fill="white"/>
<path d="M120.556 40.8992L116.3 38.422C116.103 38.3072 115.862 38.3072 115.665 38.422L110.826 41.2613C110.633 41.3761 110.51 41.5837 110.51 41.8089L110.488 46.825C110.488 47.3196 111.019 47.6287 111.444 47.377L120.561 41.9943C120.981 41.747 120.977 41.1333 120.561 40.8904" fill="white"/>
<path d="M83.9238 12.1364L93.6762 6.47115C93.8734 6.35634 94.1145 6.35634 94.3117 6.47115L104.064 12.1364C104.489 12.3837 105.015 12.0746 105.015 11.5801L104.993 6.65219C104.993 6.42258 104.871 6.21504 104.678 6.10024L94.3117 0.0861054C94.1145 -0.0287018 93.8734 -0.0287018 93.6806 0.0861054L83.3145 6.10024C83.1173 6.21504 82.999 6.42258 82.9946 6.65219L82.9727 11.5801C82.9727 12.0746 83.4986 12.3837 83.9238 12.1364Z" fill="white"/>
<path d="M11.1462 85.8775C11.1462 90.5758 9.58584 92.9426 6.46507 92.9426C3.34431 92.9426 1.74447 90.5758 1.74447 85.8775C1.74447 81.1793 3.30486 78.8522 6.46507 78.8522H11.1462V85.8775ZM24.5278 77.4966H24.0238C23.6819 77.4966 23.4014 77.7748 23.4014 78.1236V87.9441C23.4014 91.2867 21.8761 92.9426 18.7947 92.9426H17.4973C14.416 92.9426 12.8907 91.2911 12.8907 87.9441V78.1148C12.8907 77.7748 12.6146 77.4966 12.2771 77.4966H6.20647C4.49706 77.4966 3.16022 77.9867 2.15649 78.9979C0.705679 80.4639 0 82.7557 0 85.8731C0 91.6223 2.08197 94.519 6.20647 94.519C8.99412 94.519 10.8131 93.4283 11.7423 91.2867C12.7461 93.4283 14.565 94.519 17.2387 94.519H19.0183C22.7702 94.519 25.1502 91.9623 25.1502 88.2443V78.1192C25.1502 77.7748 24.8741 77.4922 24.5278 77.4922" fill="white"/>
<path d="M29.9989 94.5251H41.0487V84.9785C41.0487 81.0706 38.524 78.6641 34.6976 78.6641C33.0232 78.6641 31.6119 79.2204 30.4591 80.3597C30.2049 80.6114 30.2093 81.0264 30.4679 81.2693L30.6563 81.4459C30.893 81.6667 31.2612 81.6667 31.4979 81.4459C32.3482 80.6423 33.4133 80.2449 34.6976 80.2449C37.7438 80.2449 39.2691 81.9007 39.2691 85.2434V92.9487H30.0033C29.6614 92.9487 29.3852 93.2269 29.3809 93.5713V93.8981C29.3809 94.2469 29.657 94.5251 29.9989 94.5251Z" fill="white"/>
<path d="M62.9011 88.4306C61.8974 86.9293 61.4153 85.3882 61.4153 83.8074C61.4153 80.765 63.4578 78.7736 66.4295 78.9237C68.8972 79.0783 71.4876 79.8687 72.4826 82.337C73.3987 84.6067 72.9691 87.2914 71.7725 89.3668C70.9923 90.7179 68.8797 91.6232 67.5428 92.1089C65.6099 91.3935 64.0495 90.1527 62.8967 88.4262L62.9011 88.4306ZM54.4943 92.9346H50.4093C48.8095 92.9346 47.5866 92.3341 46.7319 91.0933C45.9517 89.9673 45.5791 88.5366 45.5791 86.8101C45.5791 82.262 47.1395 80.01 50.2603 80.01C53.1969 80.01 54.6083 82.2664 54.5688 86.8101C54.5338 88.2761 54.5338 90.3426 54.4943 92.9346ZM101.727 94.511H102.84C106.592 94.511 108.972 91.9543 108.972 88.2363V70.896C108.972 70.5516 108.696 70.2734 108.354 70.2734H107.85C107.508 70.2734 107.227 70.5516 107.227 70.896V87.9361C107.227 91.2787 105.702 92.9346 102.621 92.9346H98.0054V78.1157C98.0054 77.7712 97.7292 77.4886 97.383 77.4886H96.8789C96.537 77.4886 96.2565 77.7668 96.2565 78.1157V92.9346H89.695V79.9437C89.695 79.6037 89.4277 79.3255 89.0858 79.3167L88.5817 79.3079C88.2355 79.2991 87.9462 79.5817 87.9462 79.9349V92.939H81.4592V81.6879C81.4592 81.3435 81.183 81.0609 80.8368 81.0609H80.3327C79.9908 81.0609 79.7103 81.3391 79.7103 81.6879V92.939H76.1907C72.693 93.045 70.7951 92.9302 70.4664 92.599C71.7681 91.8837 72.7719 90.7577 73.5126 89.2917C75.0029 86.3509 75.1475 82.0765 72.6097 79.6479C71.0449 78.151 68.7964 77.5284 66.6794 77.493C64.5974 77.4577 62.9625 77.9434 61.7396 79.0341C60.6614 80.01 60.0302 81.3656 59.9206 83.0568C59.662 86.9646 61.481 90.1572 65.417 92.6034C65.0094 92.9434 64.2467 93.0538 59.342 92.9434H56.0854C56.1599 91.1772 56.195 89.1106 56.195 86.8189C56.195 81.2949 54.227 78.5131 50.2515 78.5131C48.0599 78.5131 46.425 79.3388 45.3468 80.9947C44.3825 82.4607 43.896 84.3771 43.896 86.8189C43.896 89.0356 44.4176 90.8018 45.4914 92.1928C46.6793 93.6941 48.3142 94.4845 50.3961 94.5243H54.2226C54.0736 96.1006 53.5914 97.3812 52.7718 98.357C51.882 99.4477 50.6547 99.9732 49.0944 99.9732C48.244 99.9732 47.4638 99.8893 46.745 99.7215C46.4119 99.642 46.0832 99.8539 46.0087 100.185L45.9911 100.265C45.921 100.569 46.0832 100.892 46.3768 100.993C47.2929 101.316 48.2309 101.474 49.1382 101.474C51.1807 101.474 52.7805 100.799 53.9684 99.483C55.1211 98.282 55.7873 96.6261 55.9758 94.5243H64.2687C65.4565 94.5243 66.5347 94.299 67.4639 93.8089C68.8402 94.299 70.9485 94.5243 71.7287 94.5243H101.722L101.727 94.511Z" fill="white"/>
<path d="M114.399 70.9083C114.399 70.5639 114.123 70.2812 113.776 70.2812H113.272C112.93 70.2812 112.654 70.5594 112.654 70.9083V94.5232H114.399V70.9083Z" fill="white"/>
<path d="M123.942 83.2447H134.628C134.97 83.2447 135.246 82.9665 135.246 82.6177V81.686C135.246 81.3416 134.97 81.059 134.628 81.059H129.193V79.9683C129.193 78.2771 129.899 77.4116 131.35 77.4116C131.884 77.4116 132.38 77.6059 132.831 78.0166C133.081 78.2418 133.458 78.255 133.699 78.0166L134.418 77.3057C134.681 77.0451 134.663 76.6124 134.383 76.374C133.515 75.6365 132.577 75.2656 131.613 75.2656C128.676 75.2656 126.932 77.4823 126.932 80.2995V81.0501H123.947C123.605 81.0501 123.324 81.3283 123.324 81.6772V82.6089C123.324 82.9533 123.6 83.2359 123.947 83.2359" fill="white"/>
<path d="M5.08529 73.9391H5.28253C5.61126 73.9391 5.90493 73.6742 5.90493 73.3121V70.8614C5.90493 70.5302 5.60688 70.2344 5.28253 70.2344H5.08529C4.75656 70.2344 4.46289 70.5302 4.46289 70.8614V73.3121C4.46289 73.6742 4.75656 73.9391 5.08529 73.9391Z" fill="white"/>
<path d="M9.35873 73.9391H9.55597C9.8847 73.9391 10.1828 73.6742 10.1828 73.3121V70.8614C10.1828 70.5302 9.8847 70.2344 9.55597 70.2344H9.35873C9.03 70.2344 8.73633 70.5302 8.73633 70.8614V73.3121C8.73633 73.6742 9.03 73.9391 9.35873 73.9391Z" fill="white"/>
<path d="M19.0892 97.8203H18.8919C18.5632 97.8203 18.2695 98.1162 18.2695 98.4473V100.898C18.2695 101.265 18.5632 101.529 18.8919 101.529H19.0892C19.4179 101.529 19.7116 101.265 19.7116 100.898V98.4473C19.7116 98.1162 19.4179 97.8203 19.0892 97.8203Z" fill="white"/>
<path d="M23.3587 101.529C23.6874 101.529 23.9811 101.265 23.9811 100.902V98.4517C23.9811 98.1206 23.6874 97.8203 23.3587 97.8203H23.1615C22.8327 97.8203 22.5391 98.1206 22.5391 98.4517V100.902C22.5391 101.265 22.8327 101.529 23.1615 101.529H23.3587Z" fill="white"/>
<path d="M186.26 78.7804C184.958 77.5043 183.03 76.864 180.54 76.864C176.083 76.864 173.334 79.2308 173.334 82.8781C173.334 84.9093 173.742 86.3665 174.522 87.2673C175.451 88.3579 177.086 88.8746 179.466 88.8746H182.179C182.535 88.8746 182.824 88.5831 182.824 88.2255V86.5431C182.824 86.1854 182.535 85.894 182.179 85.894H180.172C178.686 85.894 177.757 85.7395 177.384 85.4392C177.012 85.0992 176.828 84.3088 176.828 82.9929C176.828 81.0015 178.042 80.0212 180.531 80.0212C183.17 80.0212 184.459 80.997 184.459 82.9885V88.8878C184.459 90.0536 184.06 90.8086 183.28 91.1486C182.872 91.2988 181.991 91.3783 180.689 91.3783L173.111 91.4445H171.984C169.534 91.4445 168.307 90.2037 168.307 87.7221V79.7651C168.307 79.4604 168.092 79.1999 167.794 79.1513L165.541 78.7583C165.16 78.6921 164.814 78.9879 164.814 79.3721V87.6117C164.814 90.1684 163.586 91.4445 161.097 91.4445H158.809C156.359 91.4445 155.131 90.2037 155.131 87.7221V79.7827C155.131 79.4825 154.917 79.2219 154.619 79.169L152.366 78.7627C151.984 78.6921 151.634 78.9879 151.634 79.3765V87.6117C151.634 90.1684 150.406 91.4445 147.917 91.4445H146.996V91.3694H146.299C143.253 91.3694 141.728 89.7533 141.728 86.5608V70.9161C141.728 70.5717 141.452 70.2891 141.105 70.2891H138.892C138.55 70.2891 138.27 70.5672 138.27 70.9161V87.6912C138.27 90.133 137.042 91.3738 134.553 91.3738H125.221C122.771 91.3738 121.544 90.133 121.544 87.6912V85.1169C121.544 84.6355 121.154 84.2514 120.68 84.2514L118.905 84.2646C118.432 84.2646 118.055 84.6532 118.055 85.1301V88.0665C118.055 91.939 120.728 94.531 124.743 94.531H134.741C137.415 94.531 139.387 93.6656 140.61 91.8993C141.763 93.6656 143.582 94.531 146.071 94.531H148.136C150.402 94.531 152.151 93.8554 153.413 92.5396C154.676 93.8554 156.385 94.531 158.576 94.531H161.312C163.578 94.531 165.326 93.8554 166.589 92.5396C167.851 93.8554 169.561 94.531 171.752 94.531H173.343V94.5222H181.128C183.359 94.5222 184.985 94.1513 186.028 93.3609C187.33 92.4204 187.991 90.8484 187.991 88.6273V82.8781C187.991 81.2267 187.4 79.871 186.251 78.7804" fill="white"/>
<path d="M165.725 74.6409H167.552C167.947 74.6409 168.271 74.3141 168.271 73.9167V71.0289C168.271 70.6314 167.947 70.3047 167.552 70.3047H165.725C165.33 70.3047 165.006 70.6314 165.006 71.0289V73.9167C165.006 74.3141 165.33 74.6409 165.725 74.6409Z" fill="white"/>
<path d="M181.93 74.6018H183.758C184.152 74.6018 184.476 74.275 184.476 73.8776V70.9898C184.476 70.5924 184.152 70.2656 183.758 70.2656H181.93C181.535 70.2656 181.211 70.5924 181.211 70.9898V73.8776C181.211 74.275 181.535 74.6018 181.93 74.6018Z" fill="white"/>
<path d="M154.832 74.6409H156.66C157.054 74.6409 157.374 74.3141 157.374 73.9167V71.0289C157.374 70.6314 157.05 70.3047 156.66 70.3047H154.832C154.438 70.3047 154.113 70.6314 154.113 71.0289V73.9167C154.113 74.3141 154.438 74.6409 154.832 74.6409Z" fill="white"/>
<path d="M149.941 74.6409H151.769C152.164 74.6409 152.488 74.3141 152.488 73.9167V71.0289C152.488 70.6314 152.164 70.3047 151.769 70.3047H149.941C149.547 70.3047 149.223 70.6314 149.223 71.0289V73.9167C149.223 74.3141 149.547 74.6409 149.941 74.6409Z" fill="white"/>
</g>
<defs>
<clipPath id="clip0_3518_7315">
<rect width="188" height="135" fill="white"/>
</clipPath>
</defs>
</svg>
