<svg width="55" height="55" viewBox="0 0 55 55" fill="none" xmlns="http://www.w3.org/2000/svg">
<path d="M38.9583 48.125H16.0417C10.9874 48.125 6.875 44.0126 6.875 38.9583V16.0417C6.875 10.9874 10.9874 6.875 16.0417 6.875H38.9583C44.0126 6.875 48.125 10.9874 48.125 16.0417V38.9583C48.125 44.0126 44.0126 48.125 38.9583 48.125Z" fill="url(#paint0_linear_7755_112200)"/>
<path opacity="0.05" d="M38.9635 18.3333C39.1675 18.3333 39.3611 18.3689 39.5502 18.4181L30.5852 27.3843C29.735 28.2333 28.6201 28.6573 27.5052 28.6573C26.3903 28.6573 25.2754 28.2333 24.4252 27.3843L15.4602 18.4181C15.6493 18.3689 15.8429 18.3333 16.0469 18.3333H38.9635ZM41.1704 20.0383C41.2197 20.2274 41.2552 20.421 41.2552 20.625V34.375C41.2552 34.579 41.2197 34.7726 41.1704 34.9617L33.7087 27.5L41.1704 20.0383ZM13.84 20.0383L21.3017 27.5L13.8411 34.9605C13.7907 34.7726 13.7552 34.579 13.7552 34.375V20.625C13.7552 20.421 13.7907 20.2274 13.84 20.0383ZM32.0771 29.1087L39.5502 36.5819C39.3611 36.6311 39.1675 36.6667 38.9635 36.6667H16.0469C15.8429 36.6667 15.6493 36.6311 15.4602 36.5819L22.9333 29.1087C24.2132 30.3268 25.8552 30.9478 27.5052 30.9478C29.1552 30.9478 30.7972 30.3268 32.0771 29.1087ZM38.9635 17.1875H16.0469C15.7673 17.1875 15.4797 17.2276 15.1669 17.3112C14.7704 17.4167 14.461 17.7249 14.3545 18.1214C14.2491 18.5121 14.3579 18.928 14.6386 19.2168C14.4221 19.0071 14.1345 18.8925 13.84 18.8925C13.7403 18.8925 13.6406 18.9051 13.5421 18.9315C13.1468 19.038 12.8374 19.3474 12.732 19.7439C12.6495 20.0578 12.6094 20.3454 12.6094 20.625V34.375C12.6094 34.6546 12.6495 34.9422 12.7331 35.255C12.8385 35.6515 13.1468 35.9608 13.5432 36.0674C13.6418 36.0938 13.7415 36.1064 13.8411 36.1064C14.1356 36.1064 14.4232 35.9929 14.6386 35.7832C14.3579 36.0731 14.2491 36.4891 14.3545 36.8786C14.461 37.274 14.7704 37.5833 15.1669 37.6887C15.4797 37.7724 15.7673 37.8125 16.0469 37.8125H38.9635C39.2431 37.8125 39.5307 37.7724 39.8435 37.6887C40.24 37.5833 40.5494 37.2751 40.6559 36.8786C40.7614 36.4879 40.6525 36.072 40.3718 35.7832C40.5883 35.9929 40.8759 36.1064 41.1693 36.1064C41.269 36.1064 41.3686 36.0938 41.4672 36.0674C41.8625 35.9608 42.1719 35.6515 42.2773 35.255C42.3609 34.9422 42.401 34.6546 42.401 34.375V20.625C42.401 20.3454 42.3609 20.0578 42.2773 19.745C42.1719 19.3485 41.8636 19.0392 41.4672 18.9326C41.3686 18.9063 41.269 18.8936 41.1693 18.8936C40.8748 18.8936 40.5872 19.0071 40.3706 19.2168C40.6514 18.9269 40.7602 18.5109 40.6548 18.1214C40.5482 17.726 40.2388 17.4167 39.8424 17.3112C39.5307 17.2276 39.2431 17.1875 38.9635 17.1875Z" fill="black"/>
<path opacity="0.07" d="M38.9531 17.7656H16.0365C15.8039 17.7656 15.5712 17.7989 15.3031 17.8699C15.1049 17.9226 14.9502 18.0773 14.8975 18.2744C14.8448 18.4726 14.9009 18.6834 15.0453 18.8278L24.0103 27.794C24.9396 28.7232 26.1771 29.2354 27.4948 29.2354C28.8125 29.2354 30.05 28.7232 30.9793 27.7951L39.9443 18.829C40.0886 18.6846 40.1459 18.4726 40.0921 18.2755C40.0394 18.0773 39.8835 17.9237 39.6865 17.871C39.4183 17.7989 39.1857 17.7656 38.9531 17.7656ZM41.16 19.4706C41.0099 19.4706 40.8632 19.5291 40.7544 19.6379L33.2939 27.0996C33.0704 27.323 33.0704 27.6862 33.2939 27.9097L40.7544 35.3702C40.8632 35.4791 41.0099 35.5375 41.16 35.5375C41.2093 35.5375 41.2597 35.5306 41.309 35.518C41.5072 35.4653 41.6607 35.3095 41.7134 35.1124C41.7845 34.8454 41.8177 34.6128 41.8177 34.3802V20.6302C41.8177 20.3976 41.7845 20.165 41.7134 19.8969C41.6607 19.6986 41.506 19.544 41.309 19.4913C41.2597 19.4775 41.2093 19.4706 41.16 19.4706ZM13.8296 19.4706C13.7803 19.4706 13.7299 19.4775 13.6806 19.4901C13.4824 19.5428 13.3289 19.6986 13.2761 19.8957C13.2051 20.165 13.1719 20.3976 13.1719 20.6302V34.3802C13.1719 34.6128 13.2051 34.8454 13.2761 35.1135C13.3289 35.3118 13.4835 35.4665 13.6806 35.5192C13.7299 35.5329 13.7803 35.5386 13.8296 35.5386C13.9797 35.5386 14.1264 35.4802 14.2352 35.3714L21.6957 27.9108C21.9192 27.6874 21.9192 27.3242 21.6957 27.1007L14.2352 19.6391C14.1264 19.5302 13.9797 19.4706 13.8296 19.4706ZM32.0667 28.541C31.9246 28.541 31.7825 28.5937 31.6714 28.6992C30.5313 29.7831 29.0485 30.3801 27.4948 30.3801C25.941 30.3801 24.4572 29.7831 23.3182 28.6992C23.2071 28.5937 23.065 28.541 22.9229 28.541C22.7763 28.541 22.6296 28.5972 22.5173 28.7083L15.0442 36.1815C14.8998 36.3258 14.8425 36.5378 14.8964 36.7349C14.9502 36.932 15.1049 37.0867 15.302 37.1394C15.5713 37.2116 15.8039 37.2448 16.0365 37.2448H38.9531C39.1857 37.2448 39.4183 37.2116 39.6865 37.1405C39.8847 37.0878 40.0394 36.9331 40.0921 36.736C40.1448 36.539 40.0886 36.327 39.9443 36.1826L32.4711 28.7095C32.36 28.5972 32.2133 28.541 32.0667 28.541Z" fill="black"/>
<path d="M41.1652 20.0331L33.7035 27.4948L41.1641 34.9553C41.2145 34.7674 41.25 34.5738 41.25 34.3698V20.6198C41.25 20.4158 41.2145 20.2222 41.1652 20.0331ZM30.58 27.3791L39.545 18.4129C39.3559 18.3636 39.1623 18.3281 38.9583 18.3281H16.0417C15.8377 18.3281 15.6441 18.3636 15.455 18.4129L24.42 27.3791C26.1193 29.076 28.8807 29.076 30.58 27.3791ZM13.8348 20.0331C13.7855 20.2222 13.75 20.4158 13.75 20.6198V34.3698C13.75 34.5738 13.7855 34.7674 13.8348 34.9565L21.2965 27.4948L13.8348 20.0331ZM27.5 30.9426C25.85 30.9426 24.208 30.3216 22.9281 29.1035L15.455 36.5767C15.6441 36.6259 15.8377 36.6615 16.0417 36.6615H38.9583C39.1623 36.6615 39.3559 36.6259 39.545 36.5767L32.0719 29.1035C30.792 30.3216 29.15 30.9426 27.5 30.9426Z" fill="#F9F9F9"/>
<defs>
<linearGradient id="paint0_linear_7755_112200" x1="27.5" y1="48.125" x2="27.5" y2="7.11219" gradientUnits="userSpaceOnUse">
<stop stop-color="#1AC8FC"/>
<stop offset="0.258" stop-color="#1BB6FA"/>
<stop offset="0.775" stop-color="#1C86F5"/>
<stop offset="1" stop-color="#1D70F2"/>
</linearGradient>
</defs>
</svg>
