<svg width="39" height="45" viewBox="0 0 39 45" fill="none" xmlns="http://www.w3.org/2000/svg">
<path d="M19.3727 23.7219C25.9233 23.7219 31.2336 18.4115 31.2336 11.8609C31.2336 5.31032 25.9233 0 19.3727 0C12.822 0 7.51172 5.31032 7.51172 11.8609C7.51172 18.4115 12.822 23.7219 19.3727 23.7219Z" fill="white"/>
<path d="M17.4694 27.6433C18.5548 28.1654 20.3169 28.1654 21.4023 27.6433L32.219 22.4416C33.3054 21.9195 34.4758 22.4283 34.8338 23.5796L38.0655 33.9611C38.4235 35.1124 38.1033 36.8086 37.3504 37.7492L37.1669 37.979C36.5527 38.7468 35.383 39.3962 34.3177 41.9795C33.8579 43.0948 32.6434 44.0478 31.4386 44.0478H7.25114C6.04553 44.0478 4.83282 43.0958 4.3677 41.9839C3.29018 39.4112 2.08279 38.7934 1.42199 38.065L0.895572 37.4823C0.0865052 36.589 -0.232927 34.9464 0.181367 33.8145L3.93695 23.5464C4.35109 22.4145 5.56735 21.9203 6.65358 22.4425L17.4694 27.6433Z" fill="white"/>
</svg>
