<svg width="31" height="40" viewBox="0 0 31 40" fill="none" xmlns="http://www.w3.org/2000/svg">
<path d="M27.8999 4.01541L23.6763 1.64745C22.6901 1.0446 21.4761 1.0446 20.4874 1.64745L2.48366 12.6318C1.49241 13.2374 0.882812 14.3562 0.882812 15.5673V32.993C0.882812 34.2041 1.49241 35.3202 2.48109 35.9258L6.70476 38.3426C7.69344 38.9482 8.91264 38.9482 9.90132 38.3426L27.9076 27.3066C28.8963 26.7011 29.5059 25.5823 29.5059 24.3739V6.95091C29.5059 5.73978 28.8963 4.61826 27.905 4.01541" fill="#CACACA"/>
<path d="M28.1612 7.38247C28.1612 6.70359 27.6617 6.45647 27.047 6.83122L9.78351 17.3295C9.16879 17.7043 8.66932 18.5569 8.67188 19.2358L8.68725 35.8658C8.68725 36.5447 9.18928 36.7918 9.80144 36.4171L27.0649 25.9161C27.6797 25.5413 28.1766 24.6887 28.1766 24.0098L28.1586 7.37976L28.1612 7.38247Z" fill="white"/>
<path d="M15.0424 25.7602C15.0757 25.7411 15.109 25.7221 15.1423 25.7031L14.8093 28.0792L14.589 28.2123L14.4046 26.8654H14.3969L14.5736 26.3603L13.859 26.7975L14.0383 27.0881L13.8539 28.6604L13.6362 28.7934L13.293 26.8301C13.3263 26.8084 13.3596 26.7866 13.3929 26.7649L15.0424 25.7547V25.7602Z" fill="white"/>
<path d="M15.1273 25.5193C15.4731 25.3075 15.7881 25.2587 16.0391 25.3455C15.409 26.2091 14.9864 27.3143 14.9736 28.2892L11.836 30.2091V29.3347C11.8308 28.3408 12.4917 27.1297 13.3062 26.6327L15.1273 25.5193ZM14.8097 28.0828L15.1427 25.7067C15.1094 25.7257 15.0761 25.7447 15.0428 25.7637L13.3933 26.7739C13.36 26.7957 13.3267 26.8174 13.2934 26.8391L13.6366 28.8024L13.8543 28.6694L14.0336 27.0998L13.8594 26.8065L14.574 26.3693L14.3973 26.8798H14.405L14.5894 28.224L14.8097 28.091" fill="#CACACA"/>
<path d="M11.3964 27.6875C11.3964 27.6875 11.6013 27.7309 11.6064 27.7988C11.6064 27.8043 11.6064 27.807 11.6064 27.8124C11.591 27.8504 11.2734 28.4017 11.2555 28.4288L11.4835 28.5565L10.9609 29.5694L11.3989 27.6875H11.3964Z" fill="white"/>
<path d="M10.5108 28.2266L10.9565 29.568L10.4288 29.1987L10.6542 28.7914C10.6363 28.7833 10.3161 28.6257 10.3008 28.604C10.3008 28.604 10.3008 28.5986 10.3008 28.5932C10.3059 28.5226 10.5006 28.2401 10.5108 28.2266Z" fill="white"/>
<path d="M23.273 20.8438C23.2858 20.8465 23.5521 20.9008 23.547 20.9904C23.547 20.9958 23.547 20.9985 23.5445 21.004C23.524 21.0583 23.109 21.7752 23.086 21.8132L23.3831 21.9788L22.6992 23.304L23.2704 20.8438H23.273Z" fill="white"/>
<path d="M26.6034 18.2751C26.629 18.2588 26.6546 18.2452 26.6777 18.2344L26.4318 19.9859L26.2704 20.0837L26.1321 19.0925L26.2576 18.7205L25.73 19.0436L25.8632 19.2581H25.8581L25.7274 20.4177L25.5661 20.5154L25.3125 19.0708C25.3381 19.0545 25.3612 19.0355 25.3868 19.0219L26.6009 18.2778L26.6034 18.2751Z" fill="white"/>
<path d="M22.1153 21.5469L22.6992 23.2984L22.0128 22.8123L22.3074 22.2855C22.2843 22.2746 21.8668 22.0683 21.8463 22.0384C21.8463 22.0357 21.8438 22.0302 21.8438 22.0248C21.8463 21.9352 22.1024 21.5686 22.1153 21.5496V21.5469Z" fill="white"/>
<path d="M23.6028 20.3247C24.4199 19.8251 25.0833 20.2243 25.0859 21.2181V22.0926L21.9585 24.0097C21.9405 23.0511 21.5128 22.4673 20.875 22.3777C21.126 21.9839 21.4411 21.6499 21.7843 21.4381L23.6028 20.3247ZM23.5439 20.9928C23.5439 20.9928 23.5439 20.9846 23.5465 20.9792C23.549 20.8923 23.2852 20.8353 23.2724 20.8325L22.7012 23.2928L22.1173 21.5413C22.1044 21.5603 21.8483 21.9269 21.8458 22.0165C21.8458 22.0219 21.8458 22.0274 21.8483 22.0301C21.8688 22.06 22.2863 22.2663 22.3094 22.2772L22.0148 22.804L22.7012 23.2901L23.3851 21.9649L23.088 21.7993C23.1111 21.7613 23.526 21.0444 23.5465 20.99" fill="#CACACA"/>
<path d="M18.9446 24.1641L18.7039 24.8538L18.7141 24.8484L18.9626 26.6705L17.9688 27.2788L18.2121 25.1552L18.2198 25.1498L17.9764 24.7561L18.9446 24.1641Z" fill="#CACACA"/>
<path d="M18.4411 18.3407C19.6168 17.6211 20.5722 18.1995 20.5773 19.6306C20.5824 21.0617 19.6296 22.8051 18.4539 23.5247C17.2783 24.2443 16.3229 23.6659 16.3203 22.2348C16.3178 20.8037 17.268 19.0576 18.4411 18.338V18.3407Z" fill="#CACACA"/>
<path d="M19.5737 23.3495C19.6173 23.3223 19.6634 23.2979 19.7095 23.2734L19.2587 26.4886L18.9616 26.6706L18.7105 24.8485L18.7003 24.8539L18.9411 24.1641L17.9729 24.7561L18.2162 25.1499L18.2085 25.1553L17.9678 27.2789L17.6732 27.4581L17.207 24.805C17.2531 24.7724 17.2967 24.7425 17.3428 24.7127L19.5763 23.3468L19.5737 23.3495Z" fill="white"/>
<path d="M19.6886 23.0179C20.7951 22.3417 21.6941 22.8821 21.6967 24.229V25.4103L15.2344 29.3669V28.1856C15.2267 26.8387 16.1181 25.2012 17.2246 24.525L19.6886 23.0179ZM19.2583 26.4857L19.7091 23.2705C19.663 23.2949 19.6169 23.3193 19.5733 23.3465L17.3399 24.7124C17.2937 24.7396 17.2502 24.7722 17.2041 24.8047L17.6703 27.4578L17.9648 27.2786L18.9586 26.6703L19.2557 26.4884" fill="#CACACA"/>
<path d="M14.2043 22.0639C15.07 21.5344 15.777 21.958 15.7821 23.0171C15.7872 24.0761 15.0828 25.3633 14.2145 25.8928C13.3462 26.4224 12.6419 25.9987 12.6367 24.9397C12.6316 23.8806 13.336 22.5934 14.2043 22.0639Z" fill="#CACACA"/>
<path d="M22.8293 16.7905C23.695 16.2609 24.402 16.6846 24.4071 17.7436C24.4122 18.8027 23.7078 20.0899 22.8395 20.6194C21.9712 21.1489 21.2669 20.7253 21.2617 19.6662C21.2566 18.6072 21.961 17.32 22.8293 16.7905Z" fill="#CACACA"/>
</svg>
