<svg width="74" height="95" viewBox="0 0 74 95" fill="none" xmlns="http://www.w3.org/2000/svg">
<path d="M67.3362 9.54148L57.2539 3.91758C54.8999 2.48581 52.0018 2.48581 49.6417 3.91758L6.66512 30.0055C4.29893 31.4437 2.84375 34.1009 2.84375 36.9773V78.3633C2.84375 81.2397 4.29893 83.8904 6.659 85.3286L16.7413 91.0686C19.1014 92.5069 22.0117 92.5069 24.3718 91.0686L67.3545 64.8582C69.7146 63.42 71.1698 60.7628 71.1698 57.8928V16.5133C71.1698 13.6369 69.7146 10.9732 67.3484 9.54148" fill="black"/>
<path d="M67.9526 17.7248C67.9526 16.1124 66.7603 15.5255 65.2929 16.4155L24.0833 41.349C22.6159 42.239 21.4236 44.2642 21.4297 45.8765L21.4664 85.3728C21.4664 86.9851 22.6648 87.572 24.1261 86.682L65.3357 61.7421C66.8031 60.8521 67.9892 58.827 67.9892 57.2146L67.9464 17.7183L67.9526 17.7248Z" fill="white"/>
<g clip-path="url(#clip0_12213_49182)">
<path d="M46.9611 63.8984C46.1704 64.4094 45.4405 64.5039 44.7715 64.1816C44.1024 63.8594 43.6824 63.2299 43.5116 62.2931C43.3364 61.3326 43.4613 60.3443 43.8862 59.3281C44.3112 58.312 44.919 57.5484 45.7097 57.0373C46.5004 56.5262 47.2292 56.4258 47.8961 56.7362C48.563 57.0465 48.984 57.682 49.1592 58.6425C49.3302 59.5802 49.2043 60.563 48.7815 61.5911C48.3587 62.6191 47.7519 63.3882 46.9611 63.8984ZM54.1729 42.5162C52.5525 42.0551 50.8319 41.9974 49.011 42.343C47.1901 42.6886 45.3388 43.4701 43.4572 44.6874C43.0619 44.943 42.684 45.2066 42.3236 45.4784C41.9633 45.7503 41.6006 46.0419 41.2357 46.3535L37.7172 44.7162C38.4955 43.9063 39.3006 43.1558 40.1325 42.4647C40.9644 41.7735 41.8224 41.1422 42.7064 40.5708C45.0596 39.0497 47.3735 38.0909 49.6481 37.6944C51.9227 37.2978 54.0423 37.4106 56.0068 38.0326C56.4312 38.1673 56.6984 38.506 56.8083 39.0485C56.9182 39.5911 56.843 40.1894 56.5826 40.8435C56.3335 41.4391 55.9806 41.8973 55.5239 42.2181C55.0673 42.5389 54.6169 42.6382 54.1729 42.5162ZM51.6877 51.2173L50.9111 50.8572L50.1354 50.4949L45.1681 48.1834C46.4357 47.5175 47.6797 47.0969 48.9003 46.9215C50.1209 46.7461 51.2504 46.7957 52.2888 47.0705C52.7279 47.1702 52.9974 47.4944 53.0976 48.0433C53.1977 48.5922 53.1158 49.182 52.8521 49.8127C52.7202 50.128 52.5507 50.4104 52.3437 50.6598C52.1366 50.9092 51.918 51.095 51.6877 51.2173ZM55.1495 59.986L43.1327 54.3312C42.5595 54.8807 42.0309 55.4719 41.547 56.1048C41.0631 56.7377 40.6114 57.4065 40.1919 58.1113C39.8403 58.722 39.4365 59.162 38.9805 59.4312C38.5245 59.7004 38.1011 59.744 37.7101 59.5621C37.2962 59.3695 37.0465 58.9812 36.961 58.3973C36.8756 57.8133 36.9825 57.2457 37.2818 56.6943C37.6397 56.0028 38.0332 55.3332 38.4622 54.6857C38.8913 54.0381 39.3443 53.4063 39.8212 52.7902L36.7166 51.3455C36.2667 51.9943 35.8398 52.6537 35.4359 53.3238C35.032 53.994 34.6511 54.6748 34.2932 55.3664C33.9835 55.9757 33.5968 56.424 33.1332 56.7114C32.6696 56.9988 32.2405 57.0394 31.846 56.8332C31.4509 56.6284 31.2012 56.2402 31.0969 55.6684C30.9926 55.0967 31.088 54.5236 31.3831 53.9494C31.7369 53.235 32.1018 52.5517 32.4778 51.8996C32.8538 51.2474 33.2549 50.5919 33.681 49.9329L31.7493 49.034C31.4964 48.9163 31.3344 48.663 31.2635 48.2743C31.1926 47.8855 31.2377 47.4984 31.3989 47.1129C31.5601 46.7275 31.8008 46.4313 32.1208 46.2245C32.4408 46.0176 32.7273 45.973 32.9803 46.0907L56.4024 56.9901C56.6554 57.1078 56.8184 57.367 56.8915 57.7677C56.9646 58.1684 56.9204 58.561 56.7591 58.9455C56.5832 59.366 56.3343 59.6742 56.0122 59.8701C55.6902 60.066 55.4026 60.1046 55.1495 59.986Z" fill="#F05F23"/>
</g>
<defs>
<clipPath id="clip0_12213_49182">
<rect width="32.279" height="33.4763" fill="white" transform="matrix(0.839822 -0.542861 0.179428 0.983771 28.1523 43.8438)"/>
</clipPath>
</defs>
</svg>
