<svg width="62" height="62" viewBox="0 0 62 62" fill="none" xmlns="http://www.w3.org/2000/svg">
<g filter="url(#filter0_d_3197_5485)">
<circle cx="31" cy="27" r="21" fill="white"/>
</g>
<path fill-rule="evenodd" clip-rule="evenodd" d="M32.3572 19.8608C32.3572 19.3854 31.9734 19 31.5 19C31.0266 19 30.6428 19.3854 30.6428 19.8608V20.5063H30.165C28.2578 20.5063 26.6793 21.9955 26.5602 23.907L26.3708 26.9484C26.2985 28.108 25.9109 29.2255 25.2499 30.1792C24.6528 31.0408 25.1844 32.2309 26.2224 32.356L29.1428 32.7079V33.6329C29.1428 34.9402 30.1982 36 31.5 36C32.8018 36 33.8572 34.9402 33.8572 33.6329V32.7079L36.7776 32.356C37.8156 32.2309 38.3472 31.0408 37.7501 30.1792C37.0891 29.2255 36.7015 28.108 36.6292 26.9484L36.4398 23.907C36.3207 21.9955 34.7422 20.5063 32.835 20.5063H32.3572V19.8608ZM30.4286 33.6329C30.4286 34.2271 30.9083 34.7089 31.5 34.7089C32.0917 34.7089 32.5715 34.2271 32.5715 33.6329V32.9873H30.4286V33.6329Z" fill="#333333"/>
<defs>
<filter id="filter0_d_3197_5485" x="0" y="0" width="62" height="62" filterUnits="userSpaceOnUse" color-interpolation-filters="sRGB">
<feFlood flood-opacity="0" result="BackgroundImageFix"/>
<feColorMatrix in="SourceAlpha" type="matrix" values="0 0 0 0 0 0 0 0 0 0 0 0 0 0 0 0 0 0 127 0" result="hardAlpha"/>
<feOffset dy="4"/>
<feGaussianBlur stdDeviation="5"/>
<feComposite in2="hardAlpha" operator="out"/>
<feColorMatrix type="matrix" values="0 0 0 0 0 0 0 0 0 0 0 0 0 0 0 0 0 0 0.1 0"/>
<feBlend mode="normal" in2="BackgroundImageFix" result="effect1_dropShadow_3197_5485"/>
<feBlend mode="normal" in="SourceGraphic" in2="effect1_dropShadow_3197_5485" result="shape"/>
</filter>
</defs>
</svg>
