<svg width="55" height="55" viewBox="0 0 55 55" fill="none" xmlns="http://www.w3.org/2000/svg">
<path d="M24.0625 35.526C24.0625 36.791 25.0892 37.8177 26.3542 37.8177H45.8333C47.0983 37.8177 48.125 36.791 48.125 35.526V18.3385C48.125 17.0735 47.0983 16.0469 45.8333 16.0469H26.3542C25.0892 16.0469 24.0625 17.0735 24.0625 18.3385V35.526Z" fill="#03A9F4"/>
<path d="M48.125 19.4482V18.331C48.125 17.8406 47.968 17.388 47.7045 17.0156L34.7978 24.9585L26.1559 19.6235L25.3516 21.7685L35.0442 27.4977L48.125 19.4482Z" fill="#B3E5FC"/>
<path d="M30.9375 47.5078L6.875 42.9245V10.8411L30.9375 6.25781V47.5078Z" fill="#0277BD"/>
<path d="M24.311 20.981C23.0529 19.5201 21.3938 18.7891 19.3519 18.7891C17.184 18.7891 15.4469 19.5556 14.1337 21.0842C12.8229 22.6161 12.1641 24.6225 12.1641 27.0952C12.1641 29.4384 12.8103 31.3508 14.1005 32.8083C15.3907 34.267 17.0705 34.9969 19.117 34.9969C21.2253 34.9969 22.9338 34.2498 24.2434 32.7339C25.5531 31.2294 26.2051 29.2471 26.2051 26.7767C26.2051 24.3842 25.5738 22.4523 24.311 20.981ZM21.828 30.6335C21.1772 31.5147 20.2938 31.9535 19.1777 31.9535C18.1018 31.9535 17.2309 31.5021 16.5595 30.5934C15.8938 29.694 15.5626 28.461 15.5626 26.9142C15.5626 25.3833 15.8938 24.1481 16.5595 23.2189C17.2309 22.2907 18.127 21.8312 19.2579 21.8312C20.3602 21.8312 21.2265 22.2816 21.8555 23.181C22.4915 24.092 22.81 25.3524 22.81 26.9737C22.8111 28.5378 22.48 29.7547 21.828 30.6335Z" fill="white"/>
</svg>
