<svg width="42" height="42" viewBox="0 0 42 42" fill="none" xmlns="http://www.w3.org/2000/svg">
<rect width="41" height="41" rx="20.5" transform="matrix(-1 0 0 1 41.5 0.5)" fill="#333333" fill-opacity="0.1"/>
<!-- <mask id="mask0_6565_941" style="mask-type:alpha" maskUnits="userSpaceOnUse" x="10" y="10" width="22" height="22">
<rect x="10.5" y="10.5" width="21" height="21" fill="#D9D9D9"/>
</mask> -->
<!-- <g mask="url(#mask0_6565_941)"> -->
<path d="M13.9971 28C13.5158 28 13.104 27.8288 12.7616 27.4864C12.4186 27.1434 12.2471 26.7312 12.2471 26.25V15.75C12.2471 15.2687 12.4186 14.8569 12.7616 14.5145C13.104 14.1715 13.5158 14 13.9971 14H27.9971C28.4783 14 28.8904 14.1715 29.2334 14.5145C29.5759 14.8569 29.7471 15.2687 29.7471 15.75V26.25C29.7471 26.7312 29.5759 27.1434 29.2334 27.4864C28.8904 27.8288 28.4783 28 27.9971 28H13.9971ZM13.9971 17.5V21H27.9971V17.5H13.9971Z" fill="#333333"/>
<!-- </g> -->
</svg>
