<svg width="18" height="18" viewBox="0 0 18 18" fill="none" xmlns="http://www.w3.org/2000/svg">
<path d="M13.1641 1.50286C13.3829 1.28399 13.6428 1.11037 13.9287 0.991918C14.2147 0.873466 14.5212 0.8125 14.8307 0.8125C15.1403 0.8125 15.4468 0.873466 15.7327 0.991918C16.0187 1.11037 16.2785 1.28399 16.4974 1.50286C16.7163 1.72173 16.8899 1.98156 17.0083 2.26753C17.1268 2.5535 17.1877 2.85999 17.1877 3.16952C17.1877 3.47905 17.1268 3.78555 17.0083 4.07152C16.8899 4.35748 16.7163 4.61732 16.4974 4.83619L5.2474 16.0862L0.664062 17.3362L1.91406 12.7529L13.1641 1.50286Z" fill="#4D4D4D"/>
</svg>
