<svg width="31" height="40" viewBox="0 0 31 40" fill="none" xmlns="http://www.w3.org/2000/svg">
<path d="M28.2046 4.01541L23.9809 1.64745C22.9948 1.0446 21.7807 1.0446 20.7921 1.64745L2.78834 12.6318C1.7971 13.2374 1.1875 14.3562 1.1875 15.5673V32.993C1.1875 34.2041 1.7971 35.3202 2.78578 35.9258L7.00944 38.3426C7.99813 38.9482 9.21733 38.9482 10.206 38.3426L28.2123 27.3067C29.201 26.7011 29.8106 25.5823 29.8106 24.3739V6.95091C29.8106 5.73978 29.201 4.61826 28.2097 4.01541" fill="black"/>
<path d="M28.4659 7.38247C28.4659 6.70359 27.9664 6.45647 27.3517 6.83122L10.0882 17.3295C9.47347 17.7043 8.97401 18.5569 8.97657 19.2358L8.99194 35.8658C8.99194 36.5447 9.49396 36.7918 10.1061 36.4171L27.3696 25.9161C27.9843 25.5413 28.4812 24.6887 28.4812 24.0098L28.4633 7.37976L28.4659 7.38247Z" fill="white"/>
<path d="M25.0149 12.1116C25.8575 12.5515 25.9267 14.2378 25.1634 15.7477C25.1019 15.8726 25.0353 15.9948 24.9713 16.1143C23.7111 18.4306 22.4484 20.7443 21.1908 23.0606C20.5581 24.2256 19.7999 25.0837 18.9009 25.6323C18.8318 25.673 18.7857 25.7029 18.737 25.7327C18.6397 25.7925 18.5449 25.8522 18.4476 25.912C18.322 25.988 18.1965 26.064 18.0736 26.1428C17.9507 26.2215 17.8251 26.2949 17.6996 26.3682C17.3359 26.5881 17.0849 26.4632 17.0772 26.026C17.067 25.4367 17.067 24.842 17.0849 24.2365C17.1131 23.2562 17.4281 22.2487 17.9814 21.2304C19.2749 18.8488 20.5709 16.4673 21.8695 14.0912C22.3178 13.2711 22.8864 12.652 23.4576 12.3016C24.0287 11.9513 24.5641 11.878 25.0149 12.1116ZM22.7993 18.0858C22.8275 18.0314 22.8556 17.9799 22.8736 17.9446C22.369 17.6377 21.8695 17.3363 21.3675 17.0321C21.3547 17.0539 21.3342 17.0864 21.3163 17.1217C20.4787 18.6587 19.6386 20.193 18.8087 21.73C18.6576 22.0097 18.5346 22.3139 18.4296 22.6071C18.1684 23.3594 18.2478 23.9595 18.2426 24.6112C18.3963 24.5162 18.5449 24.4266 18.6883 24.3369C18.76 24.2935 18.8318 24.2501 18.9035 24.2066C18.9137 24.2012 18.9265 24.193 18.9368 24.1876C19.4926 23.8482 19.9588 23.3105 20.3506 22.5881C21.1651 21.0864 21.9848 19.5875 22.7993 18.0858ZM24.4898 14.7131C24.623 14.1238 24.4257 13.6431 24.0492 13.5725C23.8725 13.5399 23.665 13.5942 23.4601 13.7192C23.2245 13.8631 22.9914 14.0993 22.8121 14.3953C22.5995 14.7456 22.4074 15.115 22.2127 15.4571C22.725 15.7694 23.2245 16.0708 23.7214 16.3695C23.8879 16.0708 24.0774 15.7613 24.2311 15.4354C24.3438 15.2019 24.4334 14.9466 24.4872 14.7103" fill="black"/>
<path d="M16.8714 17.209C17.5143 16.8153 18.1572 16.427 18.8001 16.0359C19.1561 15.8187 19.4148 15.9735 19.4148 16.3781C19.4148 16.7854 19.1535 17.2416 18.7924 17.4616C18.4773 17.6571 18.1623 17.8499 17.8473 18.0427C17.5322 18.2355 17.2172 18.4283 16.9021 18.6211L15.4883 19.4874C15.1783 19.6775 14.9504 20.0223 14.8838 20.4025C14.8684 20.4894 14.8684 20.5709 14.8684 20.6524C14.8761 23.6775 14.8838 26.7026 14.8915 29.7277C14.8915 30.2301 15.1297 30.3713 15.542 30.1188C17.6347 28.8397 19.7273 27.558 21.8199 26.2763C22.2297 26.0237 22.4654 25.5919 22.4654 25.0896C22.4654 24.3862 22.4602 23.6829 22.4602 22.9769C22.4602 22.594 22.6421 22.2029 22.9264 21.9558C22.9648 21.9232 23.0033 21.8934 23.0417 21.8716C23.3081 21.7087 23.5514 21.7875 23.6052 22.0807C23.618 22.1459 23.6231 22.2219 23.6231 22.298C23.6257 23.0067 23.6308 23.7128 23.6282 24.4243C23.6257 25.505 23.0366 26.7297 22.1836 27.4385C22.053 27.5471 21.9198 27.6367 21.7866 27.7182C21.5561 27.8594 21.3281 28.0006 21.0976 28.1418C20.6391 28.4215 20.1806 28.704 19.7196 28.9837C19.0818 29.372 18.4466 29.7603 17.8088 30.1513C17.0686 30.6048 16.3284 31.0583 15.5881 31.52C14.5149 32.1771 13.8311 31.6856 13.7389 30.8004L13.7209 30.7786L13.6953 21.0434C13.7465 20.8044 13.7773 20.5655 13.8516 20.3265C14.164 19.3245 14.6994 18.5614 15.4319 18.0997C15.9083 17.7983 16.3847 17.505 16.8637 17.2118L16.8714 17.209Z" fill="black"/>
</svg>
