<svg width="18" height="18" viewBox="0 0 18 18" fill="none" xmlns="http://www.w3.org/2000/svg">
<path d="M8.16797 9.83073V12.3307C8.16797 12.5668 8.24797 12.7649 8.40797 12.9249C8.56797 13.0849 8.76575 13.1646 9.0013 13.1641C9.23741 13.1641 9.43547 13.0841 9.59547 12.9241C9.75547 12.7641 9.83519 12.5663 9.83463 12.3307V9.83073H12.3346C12.5707 9.83073 12.7688 9.75073 12.9288 9.59073C13.0888 9.43073 13.1685 9.23295 13.168 8.99739C13.168 8.76128 13.088 8.56323 12.928 8.40323C12.768 8.24323 12.5702 8.16351 12.3346 8.16406H9.83463V5.66406C9.83463 5.42795 9.75463 5.2299 9.59463 5.0699C9.43463 4.9099 9.23686 4.83017 9.0013 4.83073C8.76519 4.83073 8.56713 4.91073 8.40713 5.07073C8.24713 5.23073 8.16741 5.42851 8.16797 5.66406V8.16406H5.66797C5.43186 8.16406 5.2338 8.24406 5.0738 8.40406C4.9138 8.56406 4.83408 8.76184 4.83463 8.99739C4.83463 9.23351 4.91463 9.43156 5.07463 9.59156C5.23463 9.75156 5.43241 9.83128 5.66797 9.83073H8.16797ZM9.0013 17.3307C7.84852 17.3307 6.76519 17.1118 5.7513 16.6741C4.73741 16.2363 3.85547 15.6427 3.10547 14.8932C2.35547 14.1432 1.76186 13.2613 1.32464 12.2474C0.887413 11.2335 0.668524 10.1502 0.667969 8.99739C0.667969 7.84462 0.886858 6.76128 1.32464 5.7474C1.76241 4.73351 2.35602 3.85156 3.10547 3.10156C3.85547 2.35156 4.73741 1.75795 5.7513 1.32073C6.76519 0.883507 7.84852 0.664618 9.0013 0.664062C10.1541 0.664062 11.2374 0.882951 12.2513 1.32073C13.2652 1.75851 14.1471 2.35212 14.8971 3.10156C15.6471 3.85156 16.241 4.73351 16.6788 5.7474C17.1166 6.76128 17.3352 7.84462 17.3346 8.99739C17.3346 10.1502 17.1157 11.2335 16.678 12.2474C16.2402 13.2613 15.6466 14.1432 14.8971 14.8932C14.1471 15.6432 13.2652 16.2371 12.2513 16.6749C11.2374 17.1127 10.1541 17.3313 9.0013 17.3307Z" fill="#828282"/>
</svg>
