<svg width="55" height="77" viewBox="0 0 55 77" fill="none" xmlns="http://www.w3.org/2000/svg">
<path d="M40.0333 1.33975C43.1273 -0.446582 46.9393 -0.446582 50.0333 1.33975L63.0332 9.45312C63.0332 12.4531 63.0332 48.3805 63.0332 51.9531V74.4531C63.0332 78.0258 63.0332 78.4531 63.0332 80.4531V87.4531H46.5332C39.0332 87.4531 25.0332 87.4531 21.5332 87.4531L5 79.3397C1.90599 77.5534 0 74.2521 0 70.6795V30.2265C0 26.6538 1.90599 23.3526 5 21.5662L40.0333 1.33975Z" fill="#999999"/>
<path d="M32.2585 58.8168H26.9858C26.6362 58.8168 26.3009 58.6779 26.0537 58.4307C25.8065 58.1835 25.6676 57.8482 25.6676 57.4986V52.2259C25.6676 51.8762 25.5287 51.541 25.2815 51.2938C25.0343 51.0466 24.699 50.9077 24.3494 50.9077C23.9998 50.9077 23.6645 51.0466 23.4173 51.2938C23.1701 51.541 23.0312 51.8762 23.0312 52.2259V57.4986C23.0312 58.5474 23.4479 59.5532 24.1895 60.2949C24.9311 61.0365 25.937 61.4531 26.9858 61.4531H32.2585C32.6081 61.4531 32.9434 61.3142 33.1906 61.067C33.4378 60.8198 33.5767 60.4845 33.5767 60.1349C33.5767 59.7853 33.4378 59.4501 33.1906 59.2029C32.9434 58.9556 32.6081 58.8168 32.2585 58.8168ZM50.7131 50.9077C50.3635 50.9077 50.0282 51.0466 49.781 51.2938C49.5338 51.541 49.3949 51.8762 49.3949 52.2259V57.4986C49.3949 57.8482 49.256 58.1835 49.0088 58.4307C48.7616 58.6779 48.4263 58.8168 48.0767 58.8168H42.804C42.4544 58.8168 42.1191 58.9556 41.8719 59.2029C41.6247 59.4501 41.4858 59.7853 41.4858 60.1349C41.4858 60.4845 41.6247 60.8198 41.8719 61.067C42.1191 61.3142 42.4544 61.4531 42.804 61.4531H48.0767C49.1255 61.4531 50.1314 61.0365 50.873 60.2949C51.6146 59.5532 52.0313 58.5474 52.0313 57.4986V52.2259C52.0313 51.8762 51.8924 51.541 51.6452 51.2938C51.398 51.0466 51.0627 50.9077 50.7131 50.9077ZM48.0767 32.4531H42.804C42.4544 32.4531 42.1191 32.592 41.8719 32.8392C41.6247 33.0864 41.4858 33.4217 41.4858 33.7713C41.4858 34.1209 41.6247 34.4562 41.8719 34.7034C42.1191 34.9506 42.4544 35.0895 42.804 35.0895H48.0767C48.4263 35.0895 48.7616 35.2284 49.0088 35.4756C49.256 35.7228 49.3949 36.0581 49.3949 36.4077V41.6804C49.3949 42.03 49.5338 42.3653 49.781 42.6125C50.0282 42.8597 50.3635 42.9986 50.7131 42.9986C51.0627 42.9986 51.398 42.8597 51.6452 42.6125C51.8924 42.3653 52.0313 42.03 52.0313 41.6804V36.4077C52.0313 35.3589 51.6146 34.353 50.873 33.6114C50.1314 32.8698 49.1255 32.4531 48.0767 32.4531ZM24.3494 42.9986C24.699 42.9986 25.0343 42.8597 25.2815 42.6125C25.5287 42.3653 25.6676 42.03 25.6676 41.6804V36.4077C25.6676 36.0581 25.8065 35.7228 26.0537 35.4756C26.3009 35.2284 26.6362 35.0895 26.9858 35.0895H32.2585C32.6081 35.0895 32.9434 34.9506 33.1906 34.7034C33.4378 34.4562 33.5767 34.1209 33.5767 33.7713C33.5767 33.4217 33.4378 33.0864 33.1906 32.8392C32.9434 32.592 32.6081 32.4531 32.2585 32.4531H26.9858C25.937 32.4531 24.9311 32.8698 24.1895 33.6114C23.4479 34.353 23.0312 35.3589 23.0312 36.4077V41.6804C23.0312 42.03 23.1701 42.3653 23.4173 42.6125C23.6645 42.8597 23.9998 42.9986 24.3494 42.9986ZM34.8949 37.7259H29.6222C29.2726 37.7259 28.9373 37.8647 28.6901 38.1119C28.4429 38.3591 28.304 38.6944 28.304 39.044V44.3168C28.304 44.6664 28.4429 45.0017 28.6901 45.2489C28.9373 45.4961 29.2726 45.6349 29.6222 45.6349H34.8949C35.2445 45.6349 35.5798 45.4961 35.827 45.2489C36.0742 45.0017 36.2131 44.6664 36.2131 44.3168V39.044C36.2131 38.6944 36.0742 38.3591 35.827 38.1119C35.5798 37.8647 35.2445 37.7259 34.8949 37.7259ZM33.5767 42.9986H30.9403V40.3622H33.5767V42.9986ZM40.1676 45.6349H45.4403C45.7899 45.6349 46.1252 45.4961 46.3724 45.2489C46.6196 45.0017 46.7585 44.6664 46.7585 44.3168V39.044C46.7585 38.6944 46.6196 38.3591 46.3724 38.1119C46.1252 37.8647 45.7899 37.7259 45.4403 37.7259H40.1676C39.818 37.7259 39.4827 37.8647 39.2355 38.1119C38.9883 38.3591 38.8494 38.6944 38.8494 39.044V44.3168C38.8494 44.6664 38.9883 45.0017 39.2355 45.2489C39.4827 45.4961 39.818 45.6349 40.1676 45.6349ZM41.4858 40.3622H44.1222V42.9986H41.4858V40.3622ZM34.8949 48.2713H29.6222C29.2726 48.2713 28.9373 48.4102 28.6901 48.6574C28.4429 48.9046 28.304 49.2399 28.304 49.5895V54.8622C28.304 55.2118 28.4429 55.5471 28.6901 55.7943C28.9373 56.0415 29.2726 56.1804 29.6222 56.1804H34.8949C35.2445 56.1804 35.5798 56.0415 35.827 55.7943C36.0742 55.5471 36.2131 55.2118 36.2131 54.8622V49.5895C36.2131 49.2399 36.0742 48.9046 35.827 48.6574C35.5798 48.4102 35.2445 48.2713 34.8949 48.2713ZM33.5767 53.544H30.9403V50.9077H33.5767V53.544ZM40.1676 52.2259C40.5172 52.2259 40.8525 52.087 41.0997 51.8398C41.3469 51.5926 41.4858 51.2573 41.4858 50.9077C41.8354 50.9077 42.1707 50.7688 42.4179 50.5216C42.6651 50.2744 42.804 49.9391 42.804 49.5895C42.804 49.2399 42.6651 48.9046 42.4179 48.6574C42.1707 48.4102 41.8354 48.2713 41.4858 48.2713H40.1676C39.818 48.2713 39.4827 48.4102 39.2355 48.6574C38.9883 48.9046 38.8494 49.2399 38.8494 49.5895V50.9077C38.8494 51.2573 38.9883 51.5926 39.2355 51.8398C39.4827 52.087 39.818 52.2259 40.1676 52.2259ZM45.4403 48.2713C45.0907 48.2713 44.7555 48.4102 44.5082 48.6574C44.261 48.9046 44.1222 49.2399 44.1222 49.5895V53.544C43.7726 53.544 43.4373 53.6829 43.1901 53.9301C42.9429 54.1773 42.804 54.5126 42.804 54.8622C42.804 55.2118 42.9429 55.5471 43.1901 55.7943C43.4373 56.0415 43.7726 56.1804 44.1222 56.1804H45.4403C45.7899 56.1804 46.1252 56.0415 46.3724 55.7943C46.6196 55.5471 46.7585 55.2118 46.7585 54.8622V49.5895C46.7585 49.2399 46.6196 48.9046 46.3724 48.6574C46.1252 48.4102 45.7899 48.2713 45.4403 48.2713ZM40.1676 53.544C39.9069 53.544 39.652 53.6213 39.4353 53.7662C39.2185 53.911 39.0495 54.1169 38.9498 54.3578C38.85 54.5986 38.8239 54.8637 38.8748 55.1194C38.9256 55.3751 39.0512 55.61 39.2355 55.7943C39.4199 55.9787 39.6547 56.1042 39.9104 56.1551C40.1662 56.2059 40.4312 56.1798 40.6721 56.0801C40.9129 55.9803 41.1188 55.8113 41.2636 55.5946C41.4085 55.3778 41.4858 55.1229 41.4858 54.8622C41.4858 54.5126 41.3469 54.1773 41.0997 53.9301C40.8525 53.6829 40.5172 53.544 40.1676 53.544Z" fill="white"/>
</svg>
