<svg width="280" height="104" viewBox="0 0 280 104" fill="none" xmlns="http://www.w3.org/2000/svg">
<mask id="mask0_9579_35331" style="mask-type:alpha" maskUnits="userSpaceOnUse" x="0" y="0" width="280" height="104">
<rect width="280" height="103.88" rx="8" fill="#202020"/>
</mask>
<g mask="url(#mask0_9579_35331)">
<path d="M280.951 81.574V102.205V102.224V102.243V102.262V102.281V102.3V102.319V102.337V102.356V102.375V102.393V102.412V102.43V102.449V102.467V102.485V102.503V102.521V102.54V102.558V102.575V102.593V102.611V102.629V102.647V102.664V102.682V102.699V102.717V102.734V102.752V102.769V102.786V102.803V102.82V102.837V102.854V102.871V102.888V102.905V102.922V102.938V102.955V102.971V102.988V103.004V103.021V103.037V103.053V103.07V103.086V103.102V103.118V103.134V103.15V103.166V103.182V103.197V103.213V103.229V103.244V103.26V103.275V103.291V103.306V103.322V103.337V103.352V103.367V103.382V103.397V103.412V103.427V103.442V103.457V103.472V103.487V103.502V103.516V103.531V103.545V103.56V103.574V103.589V103.603V103.617V103.632V103.646V103.66V103.674V103.688V103.702V103.716V103.73V103.744V103.758V103.772V103.785V103.799V103.813V103.826V103.84V103.853V103.867V103.88V103.893V103.907V103.92V103.933V103.946V103.959V103.973V103.986V103.999V104.012V104.024V104.037V104.05V104.063V104.076V104.088V104.101V104.114V104.126V104.139V104.151V104.164V104.176V104.188V104.201V104.213V104.225V104.237V104.249V104.261V104.274V104.286V104.298V104.31V104.321V104.333V104.345V104.357V104.369V104.38V104.392V104.404V104.415V104.427V104.438V104.45V104.461V104.473V104.484V104.495V104.507V104.518V104.529V104.54V104.552V104.563V104.574V104.585V104.596V104.607V104.618V104.629V104.64V104.65V104.661V104.672V104.683V104.694V104.704V104.715V104.726V104.736V104.747V104.757V104.768V104.778V104.789V104.799V104.809V104.82V104.83V104.84V104.85V104.861V104.871V104.881V104.891V104.901V104.911V104.921V104.931V104.941V104.951V104.961V104.971V104.981V104.991V105.001V105.011V105.02V105.03V105.04V105.049V105.059V105.069V105.078V105.088V105.097V105.107V105.117V105.126V105.135V105.145V105.154V105.164V105.173V105.182V105.192V105.201V105.21V105.22V105.229V105.238V105.247V105.256V105.265V105.275V105.284V105.293V105.302V105.311V105.32V105.329V105.338V105.347V105.356V105.365V105.373V105.382V105.391V105.4V105.409V105.418V105.426V105.435V105.444V105.453V105.461V105.47V105.479V105.487V105.496V105.505V105.513V105.522V105.53V105.539V105.548V105.556V105.565V105.573V105.582V105.59V105.598V105.607V105.615V105.624V105.632V105.641V105.649V105.657V105.666V105.674V105.682V105.691V105.699V105.707V105.715V105.724V105.732V105.74V105.748V105.757V105.765V105.773V105.781V105.789V105.798V105.806V105.814V105.822V105.83V105.838V105.846V105.855V105.863V105.871V105.879V105.887V105.895V105.903V105.911V105.919V105.927V105.935V105.943V105.951V105.959V105.967V105.975V105.983V105.991V105.999V106.007V106.015V106.023V106.031V106.039V106.047V106.055V106.063V106.071V106.079V106.087V106.095V106.103V106.111V106.119V106.127V106.134V106.142V106.15V106.158V106.166V106.174V106.182V106.19V106.198V106.206V106.214V106.222V106.23V106.238V106.245V106.253V106.261V106.269V106.277V106.285V106.293V106.301V106.309V106.317V106.325V106.333V106.341V106.349V106.357V106.365V106.373V106.381V106.389V106.397V106.405V106.413V106.421V106.429V106.437V106.445V106.453V106.461V106.469V106.477V106.485V106.493V106.501V106.509V106.517V106.525V106.533V106.542V106.55V106.558V106.566V106.574V106.582V106.59V106.599V106.607V106.615V106.623V106.631V106.64V106.648V106.656V106.664V106.673V106.681V106.689V106.697V106.706V106.714V106.722V106.731V106.739V106.748V106.756V106.764V106.773V106.781V106.79V106.798V106.807V106.815V106.824V106.832V106.841V106.849V106.858V106.866V106.875V106.883V106.892V106.901V106.909V106.918V106.927V106.936V106.944V106.953V106.962V106.971V106.979V106.988V106.997V107.006V107.015V107.024V107.033V107.042V107.05V107.059V107.068V107.077V107.087V107.096V107.105V107.114V107.123V107.132V107.141V107.15V107.16V107.169V107.178V107.187V107.197V107.206V107.215V107.225V107.234V107.244V107.253V107.262V107.272V107.281V107.291V107.301V107.31V107.32V107.329V107.339V107.349V107.358V107.368V107.378V107.388V107.398V107.408V107.417V107.427V107.437V107.447V107.457V107.467V107.477V107.487V107.497V107.508V107.518V107.528V107.538V107.548V107.559V107.569V107.579V107.59V107.6V107.611V107.621V107.632V107.642V107.653V107.663V107.674V107.685V107.695V107.706V113.669H266.379H266.339H266.299H266.259H266.218H266.178H266.137H266.096H266.055H266.014H265.973H265.931H265.89H265.848H265.806H265.764H265.722H265.68H265.638H265.595H265.553H265.51H265.467H265.424H265.381H265.338H265.295H265.252H265.208H265.165H265.121H265.077H265.033H264.989H264.945H264.901H264.856H264.812H264.767H264.722H264.678H264.633H264.588H264.542H264.497H264.452H264.406H264.361H264.315H264.269H264.223H264.177H264.131H264.085H264.039H263.992H263.946H263.899H263.853H263.806H263.759H263.712H263.665H263.618H263.571H263.523H263.476H263.428H263.381H263.333H263.285H263.238H263.19H263.142H263.094H263.045H262.997H262.949H262.9H262.852H262.803H262.754H262.706H262.657H262.608H262.559H262.51H262.461H262.411H262.362H262.313H262.263H262.214H262.164H262.115H262.065H262.015H261.965H261.915H261.865H261.815H261.765H261.715H261.664H261.614H261.564H261.513H261.463H261.412H261.361H261.311H261.26H261.209H261.158H261.107H261.056H261.005H260.954H260.903H260.852H260.8H260.749H260.698H260.646H260.595H260.543H260.492H260.44H260.388H260.337H260.285H260.233H260.181H260.129H260.077H260.026H259.973H259.921H259.869H259.817H259.765H259.713H259.66H259.608H259.556H259.503H259.451H259.399H259.346H259.294H259.241H259.188H259.136H259.083H259.031H258.978H258.925H258.872H258.82H258.767H258.714H258.661H258.608H258.555H258.502H258.449H258.397H258.344H258.291H258.237H258.184H258.131H258.078H258.025H257.972H257.919H257.866H257.813H257.759H257.706H257.653H257.6H257.547H257.493H257.44H257.387H257.334H257.28H257.227H257.174H257.121H257.067H257.014H256.961H256.908H256.854H256.801H256.748H256.694H256.641H256.588H256.535H256.481H256.428H256.375H256.322H256.268H256.215H256.162H256.109H256.055H256.002H255.949H255.896H255.843H255.789H255.736H255.683H255.63H255.577H255.524H255.471H255.418H255.365H255.312H255.259H255.206H255.153H255.1H255.047H254.994H254.941H254.888H254.835H254.783H254.73H254.677H254.624H254.572H254.519H254.466H254.414H254.361H254.309H254.256H254.204H254.151H254.099H254.047H253.994H253.942H253.89H253.838H253.785H253.733H253.681H253.629H253.577H253.525H253.473H253.421H253.37H253.318H253.266H253.214H253.163H253.111H253.059H253.008H252.957H252.905H252.854H252.802H252.751H252.7H252.649H252.598H252.547H252.496H252.445H252.394H252.343H252.292H252.242H252.191H252.141H252.09H252.04H251.989H251.939H251.889H251.839H251.788H251.738H251.688H251.639H251.589H251.539H251.489H251.44H251.39H251.341H251.291H251.242H251.193H251.143H251.094H251.045H250.996H250.947H250.898H250.85H250.801H250.753H250.704H250.656H250.607H250.559H250.511H250.463H250.415H250.367H250.319H250.271H250.224H250.176H250.129H250.081H250.034H249.987H249.94H249.893H249.846H249.799H249.752H249.706H249.659H249.613H249.566H249.52H249.474H249.428H249.382H249.336H249.291H249.245H249.199H249.154H249.109H249.063H249.018H248.973H248.928H248.884H248.839H248.794H248.75H248.706H248.661H248.617H248.573H248.529H248.486H248.442H248.398H248.355H248.312H248.268H248.225H248.182H248.14H248.097H248.054H248.012H247.969H247.927H247.885H247.843H247.801H247.76H247.718H247.676H247.635H247.594H247.553H247.512H247.471H247.43H247.39H247.349H247.309H247.269H247.229H247.189H247.149H247.11H247.07H247.031H246.992H246.953H246.914H246.875H246.836H246.798H246.759H246.721H246.683H246.645H246.607H246.57H246.532H246.495H246.458H246.421H246.384H246.347H246.311H246.274H246.238H246.202H246.166H246.13H246.094H246.059H246.024H245.988H245.953H245.918H245.884H245.849H245.815H245.781H245.747H245.713H245.679H245.645H245.612H245.579H245.546H245.513H245.48H245.448H245.415H245.383H245.351H245.319H245.287H245.256H245.224H245.193H245.162H245.131H245.101H245.07H245.04H245.01H244.98H244.95H244.921H244.891H244.862H244.833H244.804H244.775H244.747H244.719H244.691H244.663H244.635H244.607H244.58H244.553H244.526H244.499H244.472H244.446H244.42H244.394H244.368H244.342H244.317H244.292H244.267H244.242H244.217H244.193H244.169H244.145H244.121H244.097H244.074H244.05H244.027H244.005H243.982H243.96H243.937H243.915H243.894H243.872H243.851H243.83H243.809H243.788H243.767H243.747H243.727H243.717L228.77 106.284C226.101 104.726 224.456 101.854 224.456 98.7444V61.6526C224.456 58.538 226.106 55.6616 228.783 54.1058L260.689 35.5598C263.363 34.0055 266.656 34.0042 269.331 35.5559L280.951 42.857V42.8721V42.8973V42.9232V42.9497V42.9769V43.0047V43.0331V43.0622V43.0919V43.1223V43.1532V43.1849V43.2171V43.25V43.2835V43.3176V43.3523V43.3876V43.4236V43.4601V43.4973V43.5351V43.5734V43.6124V43.652V43.6921V43.7329V43.7742V43.8161V43.8586V43.9016V43.9453V43.9895V44.0343V44.0797V44.1256V44.1721V44.2191V44.2667V44.3149V44.3636V44.4128V44.4626V44.513V44.5639V44.6153V44.6673V44.7198V44.7728V44.8264V44.8804V44.935V44.9902V45.0458V45.102V45.1586V45.2158V45.2735V45.3317V45.3903V45.4495V45.5092V45.5694V45.6301V45.6912V45.7528V45.815V45.8776V45.9406V46.0042V46.0682V46.1327V46.1976V46.2631V46.3289V46.3953V46.4621V46.5293V46.597V46.6652V46.7338V46.8028V46.8723V46.9422V47.0125V47.0833V47.1545V47.2261V47.2982V47.3706V47.4435V47.5168V47.5906V47.6647V47.7392V47.8142V47.8895V47.9653V48.0414V48.1179V48.1949V48.2722V48.3499V48.428V48.5064V48.5853V48.6645V48.7441V48.824V48.9044V48.985V49.0661V49.1475V49.2293V49.3114V49.3939V49.4767V49.5599V49.6434V49.7272V49.8114V49.8959V49.9808V50.066V50.1515V50.2373V50.3235V50.41V50.4968V50.5839V50.6713V50.759V50.8471V50.9354V51.024V51.113V51.2022V51.2917V51.3816V51.4717V51.562V51.6527V51.7436V51.8349V51.9264V52.0181V52.1102V52.2025V52.295V52.3878V52.4809V52.5743V52.6678V52.7617V52.8558V52.9501V53.0447V53.1395V53.2345V53.3298V53.4253V53.521V53.617V53.7132V53.8096V53.9062V54.003V54.1001V54.1974V54.2948V54.3925V54.4904V54.5884V54.6867V54.7852V54.8838V54.9826V55.0817V55.1809V55.2802V55.3798V55.4795V55.5795V55.6795V55.7798V55.8802V55.9808V56.0815V56.1824V56.2834V56.3846V56.4859V56.5874V56.689V56.7908V56.8927V56.9947V57.0969V57.1992V57.3016V57.4042V57.5068V57.6096V57.7125V57.8155V57.9186V58.0219V58.1252V58.2286V58.3322V58.4358V58.5396V58.6434V58.7473V58.8513V58.9554V59.0595V59.1638V59.2681V59.3725V59.4769V59.5814V59.686V59.7907V59.8954V60.0002V60.105V60.2099V60.3148V60.4198V60.5248V60.6298V60.7349V60.8401V60.9452V61.0504V61.1556V61.2609V61.3661V61.4714V61.5767V61.682V61.7874V61.8927V61.998V62.1034V62.2087V62.3141V62.4194V62.5247V62.6301V62.7354V62.8407V62.9459V63.0512V63.1564V63.2616V63.3668V63.4719V63.577V63.6821V63.7872V63.8921V63.9971V64.102V64.2068V64.3116V64.4164V64.5211V64.6257V64.7302V64.8347V64.9392V65.0435V65.1478V65.252V65.3561V65.4601V65.5641V65.668V65.7717V65.8754V65.979V66.0825V66.1859V66.2892V66.3923V66.4954V66.5984V66.7012V66.8039V66.9065V67.009V67.1114V67.2136V67.3157V67.4177V67.5195V67.6212V67.7227V67.8242V67.9254V68.0265V68.1275V68.2283V68.3289V68.4294V68.5298V68.6299V68.7299V68.8297V68.9294V69.0288V69.1281V69.2272V69.3262V69.4249V69.5235V69.6218V69.72V69.818V69.9157V70.0133V70.1107V70.2078V70.3048V70.4015V70.498V70.5943V70.6904V70.7862V70.8818V70.9772V71.0724V71.1673V71.262V71.3564V71.4506V71.5446V71.6383V71.7318V71.825V71.9179V72.0106V72.103V72.1952V72.2871V72.3787V72.4701V72.5612V72.652V72.7425V72.8327V72.9227V73.0123V73.1017V73.1908V73.2796V73.3681V73.4563V73.5441V73.6317V73.719V73.8059V73.8926V73.9789V74.0649V74.1505V74.2359V74.3209V74.4056V74.49V74.574V74.6577V74.741V74.824V74.9066V74.9889V75.0709V75.1525V75.2337V75.3146V75.3951V75.4752V75.555V75.6344V75.7134V75.7921V75.8703V75.9482V76.0257V76.1028V76.1796V76.2559V76.3318V76.4074V76.4825V76.5572V76.6316V76.7055V76.779V76.8521V76.9248V76.997V77.0689V77.1403V77.2113V77.2818V77.352V77.4216V77.4909V77.5597V77.6281V77.696V77.7634V77.8305V77.897V77.9631V78.0288V78.094V78.1587V78.2229V78.2867V78.35V78.4129V78.4752V78.5371V78.5985V78.6594V78.7198V78.7797V78.8391V78.8981V78.9565V79.0144V79.0719V79.1288V79.1852V79.2411V79.2965V79.3513V79.4057V79.4595V79.5128V79.5655V79.6177V79.6694V79.7206V79.7712V79.8213V79.8708V79.9198V79.9682V80.0161V80.0634V80.1102V80.1564V80.202V80.2471V80.2916V80.3355V80.3788V80.4216V80.4638V80.5054V80.5465V80.5869V80.6267V80.666V80.7047V80.7427V80.7802V80.817V80.8533V80.8889V80.9239V80.9584V80.9922V81.0253V81.0579V81.0898V81.1211V81.1518V81.1818V81.2112V81.24V81.2681V81.2955V81.3224V81.3485V81.3741V81.3989V81.4232V81.4467V81.4696V81.4918V81.5134V81.5343V81.5545V81.574Z" fill="#202020" stroke="#4D4D4D" stroke-width="0.911215"/>
<path d="M297.356 69.9671V92.4731V92.494V92.5149V92.5356V92.5563V92.5769V92.5975V92.618V92.6384V92.6587V92.679V92.6992V92.7193V92.7393V92.7593V92.7792V92.7991V92.8189V92.8386V92.8582V92.8778V92.8973V92.9167V92.9361V92.9554V92.9747V92.9938V93.0129V93.032V93.0509V93.0699V93.0887V93.1075V93.1262V93.1448V93.1634V93.1819V93.2004V93.2188V93.2371V93.2553V93.2735V93.2917V93.3097V93.3278V93.3457V93.3636V93.3814V93.3992V93.4168V93.4345V93.452V93.4696V93.487V93.5044V93.5217V93.539V93.5562V93.5733V93.5904V93.6075V93.6244V93.6413V93.6582V93.675V93.6917V93.7084V93.725V93.7416V93.7581V93.7745V93.7909V93.8072V93.8235V93.8397V93.8559V93.872V93.888V93.904V93.92V93.9358V93.9517V93.9674V93.9832V93.9988V94.0144V94.03V94.0455V94.0609V94.0763V94.0917V94.1069V94.1222V94.1374V94.1525V94.1676V94.1826V94.1976V94.2125V94.2273V94.2422V94.2569V94.2717V94.2863V94.3009V94.3155V94.33V94.3445V94.3589V94.3733V94.3876V94.4019V94.4161V94.4303V94.4444V94.4585V94.4725V94.4865V94.5004V94.5143V94.5281V94.5419V94.5557V94.5694V94.583V94.5966V94.6102V94.6237V94.6372V94.6506V94.664V94.6773V94.6906V94.7039V94.7171V94.7302V94.7434V94.7564V94.7695V94.7825V94.7954V94.8083V94.8212V94.834V94.8468V94.8595V94.8722V94.8849V94.8975V94.91V94.9226V94.9351V94.9475V94.9599V94.9723V94.9846V94.9969V95.0092V95.0214V95.0336V95.0457V95.0578V95.0699V95.0819V95.0939V95.1058V95.1177V95.1296V95.1414V95.1532V95.165V95.1767V95.1884V95.2001V95.2117V95.2233V95.2348V95.2463V95.2578V95.2693V95.2807V95.2921V95.3034V95.3147V95.326V95.3372V95.3484V95.3596V95.3708V95.3819V95.393V95.404V95.415V95.426V95.437V95.4479V95.4588V95.4697V95.4805V95.4913V95.5021V95.5128V95.5235V95.5342V95.5449V95.5555V95.5661V95.5766V95.5872V95.5977V95.6082V95.6186V95.6291V95.6395V95.6498V95.6602V95.6705V95.6808V95.6911V95.7013V95.7115V95.7217V95.7319V95.742V95.7521V95.7622V95.7723V95.7823V95.7923V95.8023V95.8123V95.8222V95.8322V95.8421V95.8519V95.8618V95.8716V95.8814V95.8912V95.901V95.9107V95.9204V95.9301V95.9398V95.9495V95.9591V95.9687V95.9783V95.9879V95.9975V96.007V96.0165V96.026V96.0355V96.045V96.0544V96.0639V96.0733V96.0826V96.092V96.1014V96.1107V96.12V96.1293V96.1386V96.1479V96.1572V96.1664V96.1756V96.1848V96.194V96.2032V96.2124V96.2215V96.2307V96.2398V96.2489V96.258V96.2671V96.2761V96.2852V96.2942V96.3032V96.3123V96.3213V96.3302V96.3392V96.3482V96.3571V96.3661V96.375V96.3839V96.3929V96.4018V96.4107V96.4195V96.4284V96.4373V96.4461V96.455V96.4638V96.4726V96.4814V96.4902V96.499V96.5078V96.5166V96.5254V96.5342V96.5429V96.5517V96.5604V96.5692V96.5779V96.5866V96.5954V96.6041V96.6128V96.6215V96.6302V96.6389V96.6476V96.6563V96.665V96.6737V96.6824V96.691V96.6997V96.7084V96.717V96.7257V96.7344V96.743V96.7517V96.7603V96.769V96.7776V96.7863V96.795V96.8036V96.8123V96.8209V96.8296V96.8382V96.8469V96.8555V96.8642V96.8728V96.8815V96.8901V96.8988V96.9074V96.9161V96.9248V96.9334V96.9421V96.9508V96.9594V96.9681V96.9768V96.9855V96.9942V97.0029V97.0116V97.0202V97.029V97.0377V97.0464V97.0551V97.0638V97.0726V97.0813V97.09V97.0988V97.1076V97.1163V97.1251V97.1339V97.1427V97.1515V97.1603V97.1691V97.1779V97.1867V97.1956V97.2044V97.2133V97.2221V97.231V97.2399V97.2488V97.2577V97.2666V97.2755V97.2845V97.2934V97.3024V97.3113V97.3203V97.3293V97.3383V97.3473V97.3564V97.3654V97.3745V97.3835V97.3926V97.4017V97.4108V97.42V97.4291V97.4383V97.4474V97.4566V97.4658V97.475V97.4843V97.4935V97.5028V97.512V97.5213V97.5306V97.54V97.5493V97.5587V97.5681V97.5775V97.5869V97.5963V97.6058V97.6152V97.6247V97.6342V97.6437V97.6533V97.6628V97.6724V97.682V97.6917V97.7013V97.711V97.7207V97.7304V97.7401V97.7498V97.7596V97.7694V97.7792V97.7891V97.7989V97.8088V97.8187V97.8287V97.8386V97.8486V97.8586V97.8686V97.8787V97.8887V97.8988V97.909V97.9191V97.9293V97.9395V97.9497V97.9599V97.9702V97.9805V97.9908V98.0012V98.0116V98.022V98.0324V98.0429V98.0534V98.0639V98.0745V98.085V98.0956V98.1063V98.1169V98.1276V98.1384V98.1491V98.1599V98.1707V98.1815V98.1924V98.2033V98.2142V98.2252V98.2362V98.2472V98.2583V98.2694V98.2805V98.2917V98.3029V98.3141V98.3253V98.3366V98.3479V98.3593V98.3707V98.3821V98.3936V98.4051V98.4166V98.4282V98.4398V98.4514V98.4631V98.4748V105.021H281.353H281.309H281.265H281.221H281.177H281.132H281.087H281.043H280.998H280.953H280.907H280.862H280.817H280.771H280.725H280.679H280.633H280.587H280.541H280.494H280.448H280.401H280.354H280.307H280.26H280.213H280.165H280.118H280.07H280.023H279.975H279.927H279.879H279.83H279.782H279.733H279.685H279.636H279.587H279.538H279.489H279.44H279.39H279.341H279.291H279.242H279.192H279.142H279.092H279.042H278.992H278.941H278.891H278.84H278.79H278.739H278.688H278.637H278.586H278.534H278.483H278.432H278.38H278.329H278.277H278.225H278.173H278.121H278.069H278.017H277.964H277.912H277.859H277.807H277.754H277.701H277.649H277.596H277.543H277.489H277.436H277.383H277.329H277.276H277.222H277.169H277.115H277.061H277.007H276.953H276.899H276.845H276.791H276.736H276.682H276.627H276.573H276.518H276.464H276.409H276.354H276.299H276.244H276.189H276.134H276.079H276.023H275.968H275.913H275.857H275.802H275.746H275.69H275.635H275.579H275.523H275.467H275.411H275.355H275.299H275.243H275.187H275.13H275.074H275.018H274.961H274.905H274.848H274.792H274.735H274.678H274.621H274.565H274.508H274.451H274.394H274.337H274.28H274.223H274.166H274.109H274.051H273.994H273.937H273.88H273.822H273.765H273.707H273.65H273.592H273.535H273.477H273.42H273.362H273.304H273.247H273.189H273.131H273.073H273.015H272.958H272.9H272.842H272.784H272.726H272.668H272.61H272.552H272.494H272.436H272.378H272.319H272.261H272.203H272.145H272.087H272.029H271.97H271.912H271.854H271.796H271.737H271.679H271.621H271.563H271.504H271.446H271.388H271.329H271.271H271.213H271.154H271.096H271.037H270.979H270.921H270.862H270.804H270.746H270.687H270.629H270.571H270.512H270.454H270.396H270.337H270.279H270.221H270.162H270.104H270.046H269.987H269.929H269.871H269.813H269.754H269.696H269.638H269.58H269.522H269.464H269.405H269.347H269.289H269.231H269.173H269.115H269.057H268.999H268.941H268.883H268.825H268.767H268.71H268.652H268.594H268.536H268.479H268.421H268.363H268.306H268.248H268.19H268.133H268.075H268.018H267.96H267.903H267.846H267.788H267.731H267.674H267.617H267.56H267.503H267.445H267.388H267.331H267.275H267.218H267.161H267.104H267.047H266.991H266.934H266.878H266.821H266.765H266.708H266.652H266.595H266.539H266.483H266.427H266.371H266.315H266.259H266.203H266.147H266.091H266.036H265.98H265.925H265.869H265.814H265.758H265.703H265.648H265.592H265.537H265.482H265.427H265.372H265.318H265.263H265.208H265.154H265.099H265.045H264.99H264.936H264.882H264.828H264.774H264.72H264.666H264.612H264.558H264.505H264.451H264.398H264.344H264.291H264.238H264.185H264.132H264.079H264.026H263.973H263.921H263.868H263.816H263.763H263.711H263.659H263.607H263.555H263.503H263.451H263.399H263.348H263.296H263.245H263.194H263.143H263.091H263.04H262.99H262.939H262.888H262.838H262.787H262.737H262.687H262.637H262.587H262.537H262.487H262.437H262.388H262.339H262.289H262.24H262.191H262.142H262.093H262.045H261.996H261.948H261.899H261.851H261.803H261.755H261.707H261.66H261.612H261.565H261.517H261.47H261.423H261.376H261.329H261.283H261.236H261.19H261.143H261.097H261.051H261.006H260.96H260.914H260.869H260.824H260.778H260.733H260.689H260.644H260.599H260.555H260.511H260.466H260.422H260.379H260.335H260.291H260.248H260.205H260.162H260.119H260.076H260.033H259.991H259.949H259.906H259.864H259.823H259.781H259.739H259.698H259.657H259.616H259.575H259.534H259.494H259.453H259.413H259.373H259.333H259.293H259.254H259.214H259.175H259.136H259.097H259.058H259.02H258.982H258.943H258.905H258.868H258.83H258.792H258.755H258.718H258.681H258.644H258.608H258.571H258.535H258.499H258.463H258.428H258.392H258.357H258.322H258.287H258.252H258.218H258.183H258.149H258.115H258.081H258.048H258.014H257.981H257.948H257.915H257.883H257.85H257.818H257.786H257.755H257.723H257.692H257.66H257.629H257.599H257.568H257.538H257.507H257.477H257.448H257.418H257.389H257.36H257.331H257.302H257.274H257.245H257.217H257.189H257.162H257.134H257.107H257.08H257.053H257.027H257.001H256.974H256.949H256.923H256.898H256.872H256.847H256.823H256.798H256.774H256.75H256.726H256.702H256.679H256.656H256.633H256.61H256.588H256.565H256.543H256.522L240.14 96.9592C237.203 95.2523 235.393 92.1049 235.393 88.6985V48.2346C235.393 44.8232 237.208 41.6715 240.153 39.9663L275.098 19.7344C278.041 18.0306 281.666 18.0293 284.609 19.7305L297.356 27.708V27.7201V27.7469V27.7744V27.8026V27.8315V27.8611V27.8914V27.9225V27.9542V27.9866V28.0197V28.0535V28.088V28.1232V28.1591V28.1956V28.2328V28.2707V28.3092V28.3485V28.3883V28.4289V28.4701V28.5119V28.5544V28.5976V28.6414V28.6858V28.7309V28.7766V28.823V28.87V28.9176V28.9658V29.0147V29.0642V29.1143V29.165V29.2163V29.2682V29.3208V29.3739V29.4276V29.482V29.5369V29.5924V29.6485V29.7052V29.7625V29.8203V29.8788V29.9377V29.9973V30.0574V30.1181V30.1794V30.2412V30.3036V30.3665V30.43V30.494V30.5586V30.6237V30.6893V30.7555V30.8222V30.8895V30.9572V31.0255V31.0943V31.1637V31.2335V31.3038V31.3747V31.4461V31.5179V31.5903V31.6632V31.7365V31.8104V31.8847V31.9596V32.0349V32.1107V32.1869V32.2637V32.3409V32.4185V32.4967V32.5753V32.6543V32.7339V32.8138V32.8943V32.9751V33.0564V33.1382V33.2204V33.303V33.3861V33.4696V33.5535V33.6378V33.7226V33.8078V33.8934V33.9794V34.0658V34.1526V34.2398V34.3275V34.4155V34.5039V34.5927V34.6819V34.7715V34.8615V34.9519V35.0426V35.1337V35.2252V35.317V35.4092V35.5018V35.5947V35.688V35.7816V35.8756V35.97V36.0647V36.1597V36.2551V36.3508V36.4468V36.5432V36.6399V36.7369V36.8342V36.9319V37.0299V37.1282V37.2268V37.3257V37.4249V37.5244V37.6242V37.7243V37.8247V37.9254V38.0264V38.1277V38.2292V38.331V38.4331V38.5355V38.6381V38.741V38.8442V38.9476V39.0513V39.1552V39.2594V39.3639V39.4685V39.5735V39.6786V39.784V39.8897V39.9956V40.1017V40.208V40.3145V40.4213V40.5283V40.6355V40.7429V40.8505V40.9583V41.0664V41.1746V41.283V41.3916V41.5004V41.6094V41.7186V41.8279V41.9375V42.0472V42.1571V42.2671V42.3773V42.4877V42.5983V42.709V42.8198V42.9309V43.042V43.1533V43.2648V43.3764V43.4881V43.6V43.712V43.8241V43.9364V44.0487V44.1612V44.2739V44.3866V44.4994V44.6124V44.7254V44.8386V44.9519V45.0652V45.1787V45.2922V45.4058V45.5196V45.6334V45.7472V45.8612V45.9752V46.0893V46.2035V46.3177V46.432V46.5464V46.6608V46.7752V46.8897V47.0043V47.1189V47.2336V47.3482V47.463V47.5777V47.6925V47.8073V47.9221V48.037V48.1519V48.2668V48.3817V48.4966V48.6115V48.7264V48.8413V48.9563V49.0712V49.1861V49.301V49.4159V49.5307V49.6456V49.7604V49.8752V49.99V50.1047V50.2194V50.3341V50.4487V50.5633V50.6778V50.7923V50.9067V51.0211V51.1354V51.2497V51.3639V51.478V51.5921V51.7061V51.82V51.9338V52.0476V52.1613V52.2748V52.3883V52.5017V52.6151V52.7283V52.8414V52.9544V53.0673V53.1801V53.2927V53.4053V53.5177V53.63V53.7422V53.8543V53.9662V54.078V54.1897V54.3012V54.4126V54.5238V54.6349V54.7459V54.8566V54.9673V55.0777V55.188V55.2982V55.4081V55.5179V55.6276V55.737V55.8463V55.9553V56.0642V56.173V56.2815V56.3898V56.4979V56.6058V56.7136V56.8211V56.9284V57.0355V57.1423V57.249V57.3554V57.4616V57.5676V57.6734V57.7789V57.8842V57.9892V58.094V58.1986V58.3029V58.407V58.5108V58.6143V58.7176V58.8207V58.9234V59.0259V59.1282V59.2301V59.3318V59.4332V59.5343V59.6351V59.7357V59.8359V59.9359V60.0355V60.1349V60.234V60.3327V60.4312V60.5293V60.6271V60.7246V60.8218V60.9186V61.0152V61.1114V61.2072V61.3028V61.398V61.4928V61.5873V61.6815V61.7753V61.8688V61.9619V62.0546V62.147V62.239V62.3307V62.422V62.5129V62.6034V62.6936V62.7834V62.8728V62.9618V63.0504V63.1386V63.2264V63.3139V63.4009V63.4875V63.5737V63.6595V63.7449V63.8299V63.9144V63.9985V64.0822V64.1655V64.2484V64.3308V64.4127V64.4943V64.5754V64.656V64.7362V64.8159V64.8952V64.974V65.0524V65.1303V65.2078V65.2847V65.3612V65.4372V65.5128V65.5879V65.6624V65.7365V65.8101V65.8832V65.9559V66.028V66.0996V66.1707V66.2413V66.3114V66.381V66.45V66.5186V66.5866V66.6541V66.7211V66.7875V66.8534V66.9188V66.9836V67.0479V67.1116V67.1748V67.2375V67.2996V67.3611V67.4221V67.4825V67.5423V67.6016V67.6603V67.7185V67.776V67.833V67.8894V67.9452V68.0004V68.055V68.1091V68.1625V68.2153V68.2675V68.3192V68.3702V68.4206V68.4704V68.5195V68.5681V68.616V68.6633V68.7099V68.756V68.8014V68.8461V68.8903V68.9337V68.9765V69.0187V69.0602V69.1011V69.1413V69.1809V69.2197V69.2579V69.2955V69.3324V69.3685V69.4041V69.4389V69.473V69.5065V69.5392V69.5713V69.6027V69.6334V69.6633V69.6926V69.7211V69.749V69.7761V69.8025V69.8282V69.8532V69.8774V69.901V69.9237V69.9458V69.9671Z" fill="#202020" stroke="#4D4D4D" stroke-width="0.911215"/>
</g>
</svg>
