<svg width="32" height="40" viewBox="0 0 32 40" fill="none" xmlns="http://www.w3.org/2000/svg">
<path d="M29.0996 4.03483L24.7396 1.72928C23.7217 1.14232 22.4685 1.14232 21.4479 1.72928L2.86342 12.4242C1.8402 13.0138 1.21094 14.1031 1.21094 15.2823V32.2487C1.21094 33.4279 1.8402 34.5145 2.86078 35.1041L7.22069 37.4573C8.24126 38.0469 9.49979 38.0469 10.5204 37.4573L29.1075 26.7122C30.1281 26.1226 30.7573 25.0333 30.7573 23.8567V6.89296C30.7573 5.71375 30.1281 4.62179 29.1048 4.03483" fill="black"/>
<path d="M29.3602 7.30865C29.3602 6.64765 28.8446 6.40705 28.2101 6.77192L10.3897 16.9935C9.75513 17.3584 9.23955 18.1886 9.2422 18.8496L9.25806 35.0413C9.25806 35.7023 9.77628 35.9429 10.4082 35.578L28.2286 25.3538C28.8631 24.9889 29.376 24.1587 29.376 23.4977L29.3575 7.306L29.3602 7.30865Z" fill="white"/>
<path d="M15.1254 24.5352C15.2365 24.4718 15.3264 24.522 15.3264 24.6489C15.3264 24.7758 15.2365 24.9345 15.1254 24.9979L14.9509 25.0984C14.8399 25.1619 14.75 25.109 14.75 24.9821C14.75 24.8552 14.8399 24.6992 14.9509 24.6357L15.1254 24.5352Z" fill="#0129FA"/>
<path d="M17.0574 25.236C17.1473 25.1857 17.2372 25.1434 17.3245 25.1143L17.3589 25.1064L20.4232 24.5036C20.8436 24.4216 21.0816 24.805 20.952 25.3629C20.8886 25.6378 20.7484 25.9155 20.5554 26.1402C20.4391 26.2777 20.3095 26.3861 20.18 26.4601C20.1007 26.5077 20.0187 26.5394 19.9394 26.558L18.4402 26.9466C18.39 26.9598 18.3477 26.9466 18.3239 26.9175C18.2922 26.8805 18.2816 26.8197 18.2975 26.743C18.3213 26.6267 18.4032 26.513 18.4905 26.4628C18.509 26.4522 18.5275 26.4443 18.546 26.439L20.0451 26.0477C20.0927 26.0371 20.135 26.0186 20.1773 25.9948C20.2434 25.9578 20.3069 25.9022 20.3651 25.8335C20.4602 25.7198 20.5316 25.585 20.5634 25.4475C20.6268 25.1699 20.5052 24.9769 20.2937 25.0192L17.224 25.6193C17.1658 25.6405 17.1103 25.6669 17.0522 25.6987C16.8829 25.7965 16.7164 25.9472 16.5736 26.1402L15.2463 27.9117L16.333 29.1966L16.5049 28.9666C16.6371 28.7895 16.7904 28.6493 16.9464 28.5594C16.9993 28.5277 17.0522 28.5039 17.105 28.4854L19.9764 27.8059C19.9949 27.798 20.0134 27.79 20.0319 27.7768C20.0716 27.753 20.1112 27.7239 20.1509 27.6869C20.1879 27.6526 20.2223 27.6129 20.2567 27.5706L23.2364 23.6046C23.4268 23.3535 23.477 23.0309 23.3554 22.8828C23.2761 22.7903 23.1439 22.7903 23.009 22.867C22.9324 22.9119 22.853 22.9807 22.7843 23.0732L21.7954 24.3899C21.7611 24.4348 21.7241 24.4719 21.6844 24.493C21.6183 24.53 21.5522 24.53 21.5152 24.4851C21.4544 24.411 21.4808 24.2524 21.5734 24.1281L22.5622 22.8088C22.6997 22.6264 22.853 22.4889 23.0064 22.4016C23.2734 22.2483 23.5352 22.2456 23.6912 22.4307C23.9397 22.7215 23.8339 23.364 23.4585 23.8637L20.4787 27.8271C20.4153 27.9143 20.3439 27.9936 20.2699 28.0597C20.1958 28.1311 20.1165 28.1893 20.0372 28.2342C19.9923 28.2607 19.9473 28.2818 19.9024 28.3003L17.0204 28.9825C16.9966 28.9904 16.9728 29.0036 16.949 29.0168C16.8697 29.0618 16.793 29.1332 16.7243 29.2231L16.5551 29.4505L16.6741 29.5906C16.7349 29.6646 16.7084 29.8233 16.6159 29.9475L15.2595 31.7507C15.2252 31.7957 15.1855 31.83 15.1485 31.8538C15.0824 31.8908 15.0189 31.8935 14.9793 31.8459L14.8206 31.6582C14.7598 31.5868 14.7863 31.4281 14.8788 31.3039C14.9132 31.2589 14.9502 31.2246 14.9899 31.2034C15.056 31.1664 15.1221 31.1637 15.1591 31.2113L15.2067 31.2669L16.2246 29.9132L14.6805 28.0915L13.6626 29.4478L14.6435 30.6032C14.7043 30.6746 14.6779 30.8333 14.5853 30.9575C14.551 31.0025 14.5139 31.0368 14.4743 31.0606C14.4082 31.0977 14.3447 31.1003 14.3051 31.0553L13.2131 29.7677C13.1523 29.6963 13.1761 29.5377 13.2713 29.4134L14.6276 27.6076C14.662 27.5627 14.699 27.5283 14.736 27.5071C14.8021 27.4675 14.8682 27.4675 14.9079 27.5151L15.0242 27.6526L16.3515 25.8811C16.563 25.6008 16.8036 25.3787 17.0495 25.236H17.0574Z" fill="#0129FA"/>
<path d="M16.9018 18.4727C17.0128 18.4093 17.1054 18.4595 17.1054 18.5864C17.1054 18.7133 17.0155 18.8693 16.9044 18.9354L15.8416 19.5488C15.7305 19.6123 15.6406 19.5621 15.6406 19.4351C15.6406 19.3082 15.7305 19.1522 15.8416 19.0888L16.9044 18.4754L16.9018 18.4727Z" fill="#0129FA"/>
<path d="M26.0906 14.5236C26.2017 14.4602 26.2916 14.5104 26.2916 14.6373C26.2916 14.7642 26.2017 14.9202 26.0906 14.9837L25.0992 15.5574C25.0146 15.8906 24.7819 16.2316 24.5043 16.3929C24.1579 16.5939 23.8776 16.4299 23.875 16.0333C23.875 15.7161 24.0495 15.3459 24.298 15.1053L24.2927 13.5639C24.2927 13.437 24.3826 13.2783 24.4937 13.2149C24.6047 13.1514 24.6973 13.2016 24.6973 13.3312L24.7026 14.8726C24.8876 14.8383 25.0331 14.9202 25.0965 15.0974L26.088 14.5236H26.0906ZM24.5043 15.9302C24.6285 15.8588 24.729 15.6843 24.729 15.5416C24.729 15.3988 24.6259 15.3433 24.5016 15.4146C24.3774 15.486 24.2769 15.6579 24.2769 15.8033C24.2769 15.9487 24.38 16.0016 24.5016 15.9329" fill="#0129FA"/>
<path d="M24.4961 12.0855C24.9191 11.8422 25.3263 11.7021 25.7123 11.6651C26.0851 11.6307 26.4183 11.6968 26.7065 11.8607C26.9947 12.0247 27.2194 12.2785 27.378 12.6143C27.542 12.9633 27.6266 13.3837 27.6292 13.8675C27.6292 14.7691 27.341 15.8029 26.8096 16.7732C26.2834 17.7383 25.5696 18.5553 24.7949 19.0841C24.4749 19.3035 24.3269 19.3881 24.3216 19.3908C24.2105 19.4542 24.1207 19.4013 24.1207 19.2771C24.1207 19.1528 24.2105 18.9915 24.3216 18.9281C24.3216 18.9281 24.4591 18.8488 24.7605 18.6425C26.1486 17.6986 27.2326 15.7051 27.2273 14.1002C27.222 12.379 25.9979 11.6809 24.4987 12.5455C23.8007 12.9474 23.19 13.574 22.6797 14.4069C22.299 15.0256 22.1271 15.5253 22.1245 15.5306C22.0874 15.6337 22.0187 15.7209 21.9447 15.7632C21.9156 15.7817 21.8839 15.7897 21.8548 15.7897C21.7543 15.7897 21.7146 15.676 21.7622 15.5332C21.7702 15.5094 21.9711 14.933 22.4074 14.2218C22.6638 13.8014 22.9494 13.4233 23.2561 13.0902C23.6395 12.6751 24.0598 12.334 24.4987 12.0828L24.4961 12.0855Z" fill="#0129FA"/>
<path d="M20.211 18.3359V18.8145C20.5573 18.6162 20.8376 18.7775 20.8402 19.1741V19.4147L20.4251 19.6553V19.4147C20.4251 19.2825 20.3299 19.227 20.2162 19.2931L19.7985 19.5337C19.6848 19.5998 19.5923 19.761 19.5923 19.8932V20.2687C19.5923 20.3718 19.6504 20.43 19.735 20.4141L20.4172 20.2793C20.6737 20.2317 20.8455 20.4062 20.8455 20.7155V21.0883C20.8455 21.4849 20.5679 21.9688 20.2242 22.1697V22.6483L19.8064 22.8889V22.4103C19.4601 22.6086 19.1798 22.4473 19.1772 22.0507V21.8128L19.5923 21.5722V21.8101C19.5923 21.9423 19.6874 21.9978 19.8011 21.9317L20.2189 21.6911C20.3326 21.625 20.4251 21.4638 20.4251 21.3316V20.9588C20.4251 20.853 20.3669 20.7948 20.2823 20.8107L19.6002 20.9455C19.3437 20.9958 19.1719 20.8186 19.1719 20.5119V20.1365C19.1719 19.7399 19.4495 19.256 19.7932 19.0551V18.5765L20.211 18.3359Z" fill="#0129FA"/>
<path d="M20.1195 14.1497C20.3204 14.0334 20.4976 14.0175 20.6562 14.0016C20.7673 13.9937 20.8704 13.9831 20.9682 13.9435C21.1903 13.8509 21.3965 13.7557 21.5975 13.6473C21.6636 13.613 21.7244 13.6183 21.7588 13.6632C21.7931 13.7082 21.7984 13.7822 21.772 13.8694C21.7535 13.9329 21.3304 15.3263 20.9576 16.1856C21.2115 16.6139 21.6081 16.8598 22.0285 17.1162C22.4118 17.3542 22.8084 17.6001 23.1125 17.9993C23.4588 18.462 23.6281 19.0675 23.6307 19.8527C23.6307 20.5296 23.4641 21.1959 23.1178 21.8833C23.0781 21.9626 23.0199 22.0261 22.9618 22.0578C22.9168 22.0843 22.8719 22.0922 22.8322 22.079C22.745 22.0472 22.7344 21.9098 22.8031 21.7696C23.086 21.2038 23.2262 20.6512 23.2235 20.0854C23.2209 18.5202 22.4991 18.076 21.7376 17.6027C21.3146 17.3463 20.881 17.0766 20.5981 16.6033L20.5293 16.643C20.4183 16.7064 20.3284 16.6562 20.3284 16.5293C20.3284 16.4024 20.4183 16.2464 20.5293 16.1829L20.6192 16.13C20.8572 15.5774 21.1348 14.7446 21.2855 14.2713C21.1639 14.3295 21.0396 14.3824 20.9101 14.4379C20.7593 14.4987 20.6271 14.5119 20.4976 14.5251C20.3654 14.5384 20.2385 14.5489 20.1195 14.6177C20.1116 14.623 20.1036 14.6283 20.0931 14.6335C20.0217 14.6811 19.9556 14.7737 19.8604 14.9164C19.8022 15.0011 19.7388 15.0936 19.6674 15.1808C19.5061 15.3765 19.329 15.5087 19.165 15.6039C19.0619 15.6647 18.9614 15.7096 18.8715 15.7467C18.861 15.7493 18.8425 15.7599 18.8213 15.7678C18.7288 15.8101 18.6468 15.8418 18.5754 15.8683C18.6389 16.0216 18.7393 16.1961 18.8689 16.3812C19.0434 16.6324 19.2179 16.8201 19.2972 16.8941L19.8789 16.5584C19.9899 16.4949 20.0798 16.5451 20.0798 16.672C20.0798 16.799 19.9899 16.955 19.8789 17.0184L19.321 17.341C18.8715 18.4144 18.3983 19.324 17.9805 20.1277C17.2587 21.5211 16.7352 22.5258 16.7379 23.5384C16.7379 24.0461 16.7564 24.1466 16.9097 24.485C16.952 24.5802 16.9044 24.7441 16.8013 24.8499C16.7749 24.8763 16.7511 24.8974 16.7246 24.9107C16.6453 24.9556 16.5686 24.945 16.5396 24.8736C16.3651 24.4929 16.3386 24.3369 16.336 23.7711C16.3333 23.2053 16.4602 22.6448 16.7352 21.9547C16.9758 21.3466 17.301 20.7253 17.6738 20.0035C18.0784 19.2288 18.5305 18.3563 18.9588 17.3383C18.935 17.3145 18.9086 17.2907 18.8795 17.259C18.7764 17.1506 18.6627 17.0105 18.5596 16.8677C18.2502 16.442 18.0916 16.0798 18.0916 15.7942C18.0916 15.6885 18.1524 15.5616 18.2423 15.4823C18.2581 15.4664 18.2767 15.4558 18.2925 15.4452C18.348 15.4135 18.4009 15.4082 18.4379 15.432C18.4776 15.4294 18.5807 15.4003 18.8689 15.276C18.8927 15.2655 18.9112 15.2575 18.9244 15.2522C18.9958 15.2231 19.0778 15.1861 19.1571 15.1385C19.2655 15.0751 19.3765 14.9931 19.4691 14.8821C19.514 14.8292 19.559 14.7631 19.6066 14.6891C19.7203 14.5225 19.8604 14.3163 20.0613 14.1841C20.0772 14.1735 20.0931 14.1629 20.1116 14.155L20.1195 14.1497Z" fill="#0129FA"/>
<path d="M12.6209 23.3321C12.7319 23.2687 12.8245 23.3189 12.8245 23.4458C12.8245 23.5727 12.7346 23.7287 12.6235 23.7948L12.4041 23.9217C12.293 23.9852 12.2031 23.9349 12.2031 23.808C12.2031 23.6811 12.293 23.5251 12.4041 23.4617L12.6235 23.3348L12.6209 23.3321Z" fill="#0129FA"/>
<path d="M14.7677 22.0899C14.8787 22.0265 14.9686 22.0767 14.9686 22.2036C14.9686 22.3305 14.8787 22.4865 14.7677 22.55L13.9666 23.0127C13.8555 23.0761 13.7656 23.0259 13.7656 22.899C13.7656 22.7721 13.8555 22.6161 13.9666 22.5526L14.7677 22.0899Z" fill="#0129FA"/>
<path d="M13.9297 25.2227C14.0407 25.1593 14.1306 25.2095 14.1306 25.3364C14.1306 25.4633 14.0407 25.622 13.9297 25.6854L12.7478 26.3676C12.6368 26.431 12.5469 26.3782 12.5469 26.2512C12.5469 26.1243 12.6368 25.9683 12.7478 25.9049L13.9297 25.2227Z" fill="#0129FA"/>
<path d="M14.9961 19.5743C15.1072 19.5108 15.1971 19.5611 15.1971 19.688C15.1971 19.8149 15.1072 19.9709 14.9961 20.0344L14.7661 20.1666C14.655 20.23 14.5625 20.1798 14.5625 20.0529C14.5625 19.926 14.6524 19.77 14.7634 19.7039L14.9935 19.5717L14.9961 19.5743Z" fill="#0129FA"/>
</svg>
