<svg width="704" height="1279" viewBox="0 0 704 1279" fill="none" xmlns="http://www.w3.org/2000/svg">
<path d="M447.085 19.5885C481.638 -6.52951 524.209 -6.52952 558.763 19.5885L703.943 138.215C703.943 182.078 703.943 707.375 703.943 759.611V1088.59C703.943 1140.82 703.943 1147.07 703.943 1176.31V1278.66H519.674C435.915 1278.66 279.566 1278.66 240.479 1278.66L55.8391 1160.03C21.2857 1133.92 0 1085.65 0 1033.41V441.944C0 389.708 21.2857 341.44 55.839 315.322L447.085 19.5885Z" fill="black"/>
<path d="M153.809 870.182H120.173C117.942 870.182 115.803 869.296 114.226 867.719C112.649 866.142 111.763 864.003 111.763 861.773V828.136C111.763 825.906 110.878 823.767 109.301 822.19C107.724 820.613 105.585 819.727 103.354 819.727C101.124 819.727 98.9853 820.613 97.4083 822.19C95.8313 823.767 94.9453 825.906 94.9453 828.136V861.773C94.9453 868.463 97.6032 874.88 102.334 879.611C107.065 884.342 113.482 887 120.173 887H153.809C156.039 887 158.178 886.114 159.755 884.537C161.332 882.96 162.218 880.821 162.218 878.591C162.218 876.361 161.332 874.222 159.755 872.645C158.178 871.068 156.039 870.182 153.809 870.182ZM271.536 819.727C269.306 819.727 267.167 820.613 265.59 822.19C264.013 823.767 263.127 825.906 263.127 828.136V861.773C263.127 864.003 262.241 866.142 260.664 867.719C259.087 869.296 256.948 870.182 254.718 870.182H221.082C218.851 870.182 216.713 871.068 215.136 872.645C213.559 874.222 212.673 876.361 212.673 878.591C212.673 880.821 213.559 882.96 215.136 884.537C216.713 886.114 218.851 887 221.082 887H254.718C261.409 887 267.825 884.342 272.556 879.611C277.287 874.88 279.945 868.463 279.945 861.773V828.136C279.945 825.906 279.059 823.767 277.482 822.19C275.905 820.613 273.766 819.727 271.536 819.727ZM254.718 702H221.082C218.851 702 216.713 702.886 215.136 704.463C213.559 706.04 212.673 708.179 212.673 710.409C212.673 712.639 213.559 714.778 215.136 716.355C216.713 717.932 218.851 718.818 221.082 718.818H254.718C256.948 718.818 259.087 719.704 260.664 721.281C262.241 722.858 263.127 724.997 263.127 727.227V760.864C263.127 763.094 264.013 765.233 265.59 766.81C267.167 768.387 269.306 769.273 271.536 769.273C273.766 769.273 275.905 768.387 277.482 766.81C279.059 765.233 279.945 763.094 279.945 760.864V727.227C279.945 720.537 277.287 714.12 272.556 709.389C267.825 704.658 261.409 702 254.718 702ZM103.354 769.273C105.585 769.273 107.724 768.387 109.301 766.81C110.878 765.233 111.763 763.094 111.763 760.864V727.227C111.763 724.997 112.649 722.858 114.226 721.281C115.803 719.704 117.942 718.818 120.173 718.818H153.809C156.039 718.818 158.178 717.932 159.755 716.355C161.332 714.778 162.218 712.639 162.218 710.409C162.218 708.179 161.332 706.04 159.755 704.463C158.178 702.886 156.039 702 153.809 702H120.173C113.482 702 107.065 704.658 102.334 709.389C97.6032 714.12 94.9453 720.537 94.9453 727.227V760.864C94.9453 763.094 95.8313 765.233 97.4083 766.81C98.9853 768.387 101.124 769.273 103.354 769.273ZM170.627 735.636H136.991C134.761 735.636 132.622 736.522 131.045 738.099C129.468 739.676 128.582 741.815 128.582 744.045V777.682C128.582 779.912 129.468 782.051 131.045 783.628C132.622 785.205 134.761 786.091 136.991 786.091H170.627C172.857 786.091 174.996 785.205 176.573 783.628C178.15 782.051 179.036 779.912 179.036 777.682V744.045C179.036 741.815 178.15 739.676 176.573 738.099C174.996 736.522 172.857 735.636 170.627 735.636ZM162.218 769.273H145.4V752.455H162.218V769.273ZM204.264 786.091H237.9C240.13 786.091 242.269 785.205 243.846 783.628C245.423 782.051 246.309 779.912 246.309 777.682V744.045C246.309 741.815 245.423 739.676 243.846 738.099C242.269 736.522 240.13 735.636 237.9 735.636H204.264C202.033 735.636 199.894 736.522 198.317 738.099C196.74 739.676 195.854 741.815 195.854 744.045V777.682C195.854 779.912 196.74 782.051 198.317 783.628C199.894 785.205 202.033 786.091 204.264 786.091ZM212.673 752.455H229.491V769.273H212.673V752.455ZM170.627 802.909H136.991C134.761 802.909 132.622 803.795 131.045 805.372C129.468 806.949 128.582 809.088 128.582 811.318V844.955C128.582 847.185 129.468 849.324 131.045 850.901C132.622 852.478 134.761 853.364 136.991 853.364H170.627C172.857 853.364 174.996 852.478 176.573 850.901C178.15 849.324 179.036 847.185 179.036 844.955V811.318C179.036 809.088 178.15 806.949 176.573 805.372C174.996 803.795 172.857 802.909 170.627 802.909ZM162.218 836.545H145.4V819.727H162.218V836.545ZM204.264 828.136C206.494 828.136 208.633 827.25 210.21 825.673C211.787 824.096 212.673 821.958 212.673 819.727C214.903 819.727 217.042 818.841 218.619 817.264C220.196 815.687 221.082 813.548 221.082 811.318C221.082 809.088 220.196 806.949 218.619 805.372C217.042 803.795 214.903 802.909 212.673 802.909H204.264C202.033 802.909 199.894 803.795 198.317 805.372C196.74 806.949 195.854 809.088 195.854 811.318V819.727C195.854 821.958 196.74 824.096 198.317 825.673C199.894 827.25 202.033 828.136 204.264 828.136ZM237.9 802.909C235.67 802.909 233.531 803.795 231.954 805.372C230.377 806.949 229.491 809.088 229.491 811.318V836.545C227.261 836.545 225.122 837.431 223.545 839.008C221.968 840.585 221.082 842.724 221.082 844.955C221.082 847.185 221.968 849.324 223.545 850.901C225.122 852.478 227.261 853.364 229.491 853.364H237.9C240.13 853.364 242.269 852.478 243.846 850.901C245.423 849.324 246.309 847.185 246.309 844.955V811.318C246.309 809.088 245.423 806.949 243.846 805.372C242.269 803.795 240.13 802.909 237.9 802.909ZM204.264 836.545C202.6 836.545 200.975 837.039 199.592 837.963C198.209 838.887 197.131 840.2 196.495 841.737C195.858 843.273 195.692 844.964 196.016 846.595C196.34 848.226 197.141 849.725 198.317 850.901C199.493 852.077 200.992 852.878 202.623 853.202C204.254 853.527 205.945 853.36 207.482 852.724C209.018 852.087 210.331 851.009 211.255 849.626C212.179 848.244 212.673 846.618 212.673 844.955C212.673 842.724 211.787 840.585 210.21 839.008C208.633 837.431 206.494 836.545 204.264 836.545Z" fill="white"/>
</svg>
