<svg width="14" height="14" viewBox="0 0 14 14" fill="none" xmlns="http://www.w3.org/2000/svg">
<path d="M6.99967 13.6693C6.07745 13.6693 5.21079 13.4942 4.39967 13.1439C3.58856 12.7942 2.88301 12.3193 2.28301 11.7193C1.68301 11.1193 1.20812 10.4137 0.858341 9.6026C0.508119 8.79149 0.333008 7.92483 0.333008 7.0026C0.333008 6.08038 0.508119 5.21372 0.858341 4.4026C1.20812 3.59149 1.68301 2.88594 2.28301 2.28594C2.88301 1.68594 3.58856 1.21083 4.39967 0.860604C5.21079 0.510826 6.07745 0.335938 6.99967 0.335938C7.9219 0.335938 8.78856 0.510826 9.59967 0.860604C10.4108 1.21083 11.1163 1.68594 11.7163 2.28594C12.3163 2.88594 12.7912 3.59149 13.141 4.4026C13.4912 5.21372 13.6663 6.08038 13.6663 7.0026C13.6663 7.92483 13.4912 8.79149 13.141 9.6026C12.7912 10.4137 12.3163 11.1193 11.7163 11.7193C11.1163 12.3193 10.4108 12.7942 9.59967 13.1439C8.78856 13.4942 7.9219 13.6693 6.99967 13.6693ZM9.19967 10.1359L10.133 9.2026L7.66634 6.73594V3.66927H6.33301V7.26927L9.19967 10.1359Z" fill="#172659"/>
</svg>
