<svg width="16" height="14" viewBox="0 0 16 14" fill="none" xmlns="http://www.w3.org/2000/svg">
<path fill-rule="evenodd" clip-rule="evenodd" d="M1.59473 1.71196L2.38388 6.24955H7.25306C7.66727 6.24955 8.00306 6.58533 8.00306 6.99955C8.00306 7.41376 7.66727 7.74955 7.25306 7.74955H2.38388L1.59473 12.2871L13.9325 6.99955L1.59473 1.71196ZM0.991799 6.99955L0.0667265 1.68038C-0.00805805 1.25037 0.131084 0.810863 0.439713 0.502233C0.827498 0.114453 1.41231 0.0018234 1.91638 0.217853L15.3188 5.96171C15.7339 6.13964 16.0031 6.54786 16.0031 6.99955C16.0031 7.45123 15.7339 7.85946 15.3188 8.03739L1.91638 13.7812C1.41231 13.9973 0.827498 13.8846 0.439713 13.4969C0.131084 13.1882 -0.00805825 12.7487 0.0667265 12.3187L0.991799 6.99955Z" fill="#007AFF"/>
</svg>
