<svg width="32" height="32" viewBox="0 0 32 32" fill="none" xmlns="http://www.w3.org/2000/svg">
<path fill-rule="evenodd" clip-rule="evenodd" d="M14.9318 3.44873C15.5962 3.07959 16.4042 3.07959 17.0686 3.44873L26.6686 8.78206C27.367 9.17008 27.8002 9.90624 27.8002 10.7052V21.293C27.8002 22.092 27.367 22.8282 26.6686 23.2162L17.0686 28.5495C16.4042 28.9187 15.5962 28.9187 14.9318 28.5495L5.33178 23.2162C4.63335 22.8282 4.2002 22.092 4.2002 21.293V10.7052C4.2002 9.90624 4.63336 9.17008 5.33178 8.78206L14.9318 3.44873ZM16.0973 5.19704C16.0369 5.16349 15.9635 5.16349 15.9031 5.19704L6.30307 10.5304C6.23957 10.5657 6.2002 10.6326 6.2002 10.7052V21.293C6.2002 21.3657 6.23957 21.4326 6.30307 21.4679L15.9031 26.8012C15.9635 26.8348 16.0369 26.8348 16.0973 26.8012L25.6973 21.4679C25.7608 21.4326 25.8002 21.3657 25.8002 21.293V10.7052C25.8002 10.6326 25.7608 10.5657 25.6973 10.5304L16.0973 5.19704Z" fill="#172659"/>
<path fill-rule="evenodd" clip-rule="evenodd" d="M9.66686 15.9991C9.66686 12.5013 12.5024 9.66579 16.0002 9.66579C19.498 9.66579 22.3335 12.5013 22.3335 15.9991C22.3335 19.4969 19.498 22.3325 16.0002 22.3325C12.5024 22.3325 9.66686 19.4969 9.66686 15.9991ZM16.0002 11.6658C13.607 11.6658 11.6669 13.6059 11.6669 15.9991C11.6669 18.3924 13.607 20.3325 16.0002 20.3325C18.3934 20.3325 20.3335 18.3924 20.3335 15.9991C20.3335 13.6059 18.3934 11.6658 16.0002 11.6658Z" fill="#172659"/>
</svg>
