<svg width="31" height="40" viewBox="0 0 31 40" fill="none" xmlns="http://www.w3.org/2000/svg">
<path d="M28.1734 4.01541L23.9497 1.64745C22.9636 1.0446 21.7495 1.0446 20.7608 1.64745L2.75709 12.6318C1.76585 13.2374 1.15625 14.3562 1.15625 15.5673V32.993C1.15625 34.2041 1.76585 35.3202 2.75453 35.9258L6.97819 38.3426C7.96688 38.9482 9.18608 38.9482 10.1748 38.3426L28.181 27.3067C29.1697 26.7011 29.7793 25.5823 29.7793 24.3739V6.95091C29.7793 5.73978 29.1697 4.61826 28.1785 4.01541" fill="#CACACA"/>
<path d="M28.4815 7.38247C28.4815 6.70359 27.982 6.45647 27.3673 6.83122L10.1038 17.3295C9.4891 17.7043 8.98964 18.5569 8.9922 19.2358L9.00757 35.8658C9.00757 36.5447 9.50959 36.7918 10.1218 36.4171L27.3852 25.9161C28 25.5413 28.4969 24.6887 28.4969 24.0098L28.4789 7.37976L28.4815 7.38247Z" fill="white"/>
<path d="M26.5997 20.9922L25.9875 21.5707C25.9594 21.7879 25.9209 22.0079 25.8697 22.2305L26.3384 22.4722C26.2386 22.8307 26.113 23.1918 25.9594 23.553L25.3446 23.7322C25.2422 23.9495 25.1269 24.1694 25.0014 24.384L25.191 25.0058C25.0859 25.1688 24.9784 25.3263 24.8657 25.4783C24.7504 25.6331 24.6352 25.7825 24.5173 25.921L24.064 25.6548C23.9077 25.8259 23.7489 25.9807 23.5876 26.1192L23.4518 26.9583C23.293 27.0805 23.1316 27.1918 22.9728 27.2896C22.8678 27.3548 22.7628 27.4118 22.6604 27.4661L22.4887 26.8225C22.3223 26.8904 22.1635 26.942 22.0046 26.9746L21.5743 27.8056C21.331 27.83 21.0979 27.8191 20.8777 27.7675L21.0365 26.923C20.911 26.8714 20.788 26.8062 20.6753 26.722L20.0708 27.3222C19.9914 27.2434 19.9146 27.1565 19.8429 27.0588C19.7737 26.961 19.7122 26.8578 19.6559 26.7465L20.099 25.9264C20.0401 25.7689 19.9914 25.606 19.9581 25.4267L19.3383 25.6331C19.3024 25.3344 19.2947 25.014 19.3178 24.6772L19.93 24.0988C19.9581 23.8816 19.994 23.6616 20.0452 23.439L19.579 23.1973C19.6789 22.8388 19.8044 22.4776 19.9581 22.1165L20.5729 21.9373C20.6753 21.72 20.7906 21.5028 20.9161 21.2882L20.7265 20.6637C20.829 20.5062 20.9391 20.3459 21.0518 20.1912C21.1671 20.0364 21.2823 19.8897 21.4027 19.7485L21.8535 20.0174C22.0098 19.8463 22.1711 19.6915 22.3299 19.553L22.4708 18.7139C22.6296 18.589 22.791 18.4776 22.9523 18.3799C23.0548 18.3174 23.1598 18.2577 23.2623 18.2061L23.4339 18.8497C23.5978 18.7818 23.7592 18.7302 23.918 18.6976L24.3457 17.8639C24.589 17.8395 24.8247 17.8504 25.0424 17.9047L24.8836 18.7492C25.0142 18.7981 25.1321 18.866 25.2473 18.9502L25.8518 18.35C25.9312 18.4288 26.008 18.5157 26.0772 18.6134C26.1489 18.7112 26.2104 18.8144 26.2667 18.9257L25.8211 19.7485C25.8825 19.9033 25.9312 20.069 25.9645 20.2455L26.5818 20.0364C26.6176 20.3378 26.6253 20.6555 26.6023 20.9922H26.5997ZM23.0241 25.6738C24.2894 24.8619 25.3113 22.9773 25.3165 21.4159C25.3242 19.8191 24.2714 19.162 22.9703 19.9413C22.9626 19.9468 22.9549 19.9495 22.9498 19.9549C22.9088 19.9793 22.8704 20.0065 22.8294 20.0337C21.5923 20.8673 20.6036 22.7166 20.5959 24.2509C20.5882 25.8449 21.6409 26.5048 22.9421 25.7254C22.9498 25.72 22.9575 25.7173 22.9626 25.7119C22.9831 25.6983 23.0036 25.6874 23.0241 25.6738Z" fill="#CACACA"/>
<path d="M22.9724 20.0653C24.2223 19.3158 25.2315 19.9485 25.2213 21.4773C25.2136 22.9709 24.2351 24.7767 23.0236 25.5588C23.0031 25.5724 22.9852 25.5832 22.9647 25.5941C22.957 25.5995 22.9519 25.6023 22.9442 25.6077C21.6968 26.3572 20.6877 25.7245 20.6954 24.1956C20.6954 24.1712 20.6954 24.1494 20.6954 24.125C20.7338 22.645 21.6994 20.8826 22.8904 20.1169C22.9109 20.1033 22.9289 20.0924 22.9493 20.0815C22.957 20.0761 22.9621 20.0734 22.9698 20.068L22.9724 20.0653ZM23.6844 23.7856C24.335 22.9057 24.5399 21.7407 24.1404 21.1922C23.8791 20.831 23.4232 20.8202 22.9545 21.1053C22.7009 21.2601 22.4473 21.5018 22.2168 21.8195C21.6021 22.6722 21.3997 23.8181 21.7686 24.3613C22.0273 24.7441 22.4909 24.7604 22.9673 24.4672C23.2106 24.3178 23.459 24.087 23.6819 23.7856" fill="#CACACA"/>
<path d="M22.976 19.9462C24.2771 19.1641 25.3299 19.824 25.3222 21.4207C25.3145 22.9795 24.2925 24.864 23.0298 25.6787C23.0093 25.6923 22.9888 25.7031 22.9683 25.7167C22.9606 25.7222 22.9529 25.7249 22.9478 25.7303C21.6466 26.5124 20.5939 25.8498 20.6016 24.2558C20.6093 22.7215 21.598 20.8722 22.8351 20.0385C22.8761 20.0114 22.9145 19.9869 22.9555 19.9598C22.9632 19.9543 22.9709 19.9516 22.976 19.9462ZM23.0272 25.5592C24.2413 24.7799 25.2172 22.974 25.2248 21.4778C25.2351 19.9489 24.2259 19.3162 22.976 20.0657C22.9683 20.0711 22.9632 20.0738 22.9555 20.0792C22.935 20.0901 22.9171 20.1037 22.8966 20.1146C21.7055 20.8803 20.7374 22.6427 20.7015 24.1227C20.7015 24.1471 20.7015 24.1716 20.7015 24.1933C20.6913 25.7222 21.7004 26.3549 22.9504 25.6054C22.958 25.6 22.9632 25.5972 22.9709 25.5918C22.9913 25.5809 23.0093 25.5674 23.0298 25.5565" fill="#EBB542"/>
<path d="M18.2463 21.0955C18.2463 21.1091 18.2463 21.1226 18.2463 21.1362C18.2489 22.8932 17.0886 25.0412 15.644 25.9454C15.6338 25.9536 15.621 25.959 15.6107 25.9672C15.5723 25.9916 15.5313 26.0133 15.4929 26.0351C14.1072 26.809 12.9853 26.1057 12.9648 24.403C12.9648 24.3894 12.9648 24.3759 12.9648 24.3623C12.9623 22.6053 14.12 20.4546 15.5672 19.5503C15.5774 19.5449 15.5877 19.5368 15.5979 19.5313C15.621 19.5177 15.644 19.5042 15.6645 19.4906C17.0758 18.6705 18.2259 19.3711 18.2463 21.0955ZM15.8079 25.0493C16.9042 24.2455 17.7008 22.5673 17.5906 21.2964C17.4856 20.1043 16.6148 19.697 15.6005 20.3188C15.5339 20.3596 15.4698 20.403 15.4033 20.4519C14.307 21.253 13.5104 22.9339 13.6206 24.2048C13.7256 25.3969 14.5964 25.8015 15.6107 25.1824C15.6748 25.1416 15.7414 25.0982 15.8079 25.0493Z" fill="#CACACA"/>
<path d="M20.2108 21.7615L19.3399 22.3481C19.2733 22.5816 19.1965 22.8179 19.112 23.0514L19.6114 23.6189C19.3937 24.1458 19.1401 24.659 18.8507 25.1532L18.0746 25.1451C17.9389 25.3569 17.7929 25.5606 17.6443 25.7588L17.7212 26.7744C17.3754 27.1899 17.0091 27.5674 16.6223 27.9041L16.1459 27.2985C16.1024 27.3338 16.0588 27.3664 16.0153 27.399C15.8872 27.494 15.7592 27.5809 15.6337 27.657L15.2623 28.8464C14.8704 29.05 14.4887 29.1912 14.1225 29.27L14.0764 28.2381C13.915 28.2544 13.7613 28.2571 13.6102 28.2408L12.8956 29.2863C12.5754 29.2157 12.2783 29.0826 12.017 28.8898L12.4115 27.7031C12.3065 27.6027 12.2091 27.4859 12.1221 27.3555L11.2512 27.9774C11.0847 27.6597 10.9566 27.2877 10.8747 26.8667L11.6047 25.8403C11.597 25.7914 11.5919 25.7425 11.5867 25.6882C11.5739 25.5416 11.5688 25.3895 11.5662 25.2347L10.7773 25.2646C10.803 24.7676 10.8798 24.2571 10.9976 23.7384L11.8685 23.1519C11.9325 22.9156 12.0119 22.6821 12.0964 22.4485L11.5944 21.881C11.8121 21.3542 12.0683 20.8409 12.3551 20.3467L13.1338 20.3521C13.2695 20.1403 13.413 19.9367 13.5641 19.7384L13.4872 18.7228C13.8305 18.3101 14.1993 17.9299 14.5861 17.5932L15.0625 18.196C15.106 18.1634 15.1496 18.1281 15.1957 18.0955C15.3237 18.0032 15.4518 17.9163 15.5773 17.8403L15.9461 16.6509C16.338 16.4472 16.7222 16.3033 17.0859 16.2272L17.132 17.2591C17.2934 17.2428 17.4471 17.2401 17.5982 17.2537L18.3128 16.2109C18.633 16.2815 18.9301 16.4146 19.1888 16.6074L18.7944 17.7941C18.8994 17.8973 18.9967 18.0141 19.0838 18.1417L19.9547 17.5225C20.1237 17.8375 20.2492 18.2096 20.3337 18.6305L19.6038 19.6597C19.6114 19.7086 19.6166 19.7574 19.6217 19.809C19.6345 19.9584 19.6396 20.1105 19.6422 20.2652L20.4311 20.2354C20.4055 20.7296 20.3286 21.2428 20.2108 21.7615ZM15.649 26.196C17.2038 25.2238 18.4537 22.9075 18.4486 21.0175C18.4486 21.0039 18.4486 20.9876 18.4486 20.974C18.4486 20.9604 18.4486 20.9441 18.4486 20.9306C18.4076 19.1193 17.1961 18.3807 15.7054 19.2252C15.6695 19.2469 15.6337 19.2659 15.5978 19.2904C15.5876 19.2958 15.5747 19.3039 15.5645 19.3121C14.0098 20.287 12.7598 22.6006 12.7649 24.4906C12.7649 24.5042 12.7649 24.5205 12.7649 24.5341C12.788 26.3915 14.0251 27.1464 15.544 26.2612C15.5671 26.2476 15.5927 26.234 15.6157 26.2177C15.626 26.2123 15.6388 26.2041 15.649 26.196Z" fill="#CACACA"/>
<path d="M18.4493 20.9721C18.4493 20.9856 18.4493 21.0019 18.4493 21.0155C18.4518 22.9083 17.2044 25.2219 15.6497 26.1941C15.6395 26.2022 15.6267 26.2076 15.6164 26.2158C15.5934 26.2294 15.5677 26.2457 15.5447 26.2592C14.0233 27.1418 12.7861 26.3869 12.7656 24.5322C12.7656 24.5186 12.7656 24.5023 12.7656 24.4887C12.7631 22.596 14.0104 20.2823 15.5652 19.3102C15.5754 19.302 15.5882 19.2966 15.5985 19.2884C15.6343 19.2667 15.6702 19.245 15.7061 19.2233C17.1968 18.3787 18.4083 19.1174 18.4493 20.9286C18.4493 20.9422 18.4493 20.9585 18.4493 20.9721ZM15.6446 25.9497C17.0892 25.0454 18.2495 22.8947 18.2469 21.1404C18.2469 21.1269 18.2469 21.1133 18.2469 21.0997C18.2264 19.3753 17.0764 18.6747 15.6651 19.4948C15.642 19.5084 15.619 19.522 15.5985 19.5355C15.5882 19.541 15.578 19.5491 15.5677 19.5546C14.1231 20.4588 12.9629 22.6095 12.9654 24.3665C12.9654 24.3801 12.9654 24.3937 12.9654 24.4072C12.9859 26.1099 14.1078 26.8132 15.4935 26.0393C15.5319 26.0176 15.5729 25.9958 15.6113 25.9714C15.6215 25.966 15.6343 25.9578 15.6446 25.9497Z" fill="#EBB542"/>
</svg>
