<svg width="32" height="39" viewBox="0 0 32 39" fill="none" xmlns="http://www.w3.org/2000/svg">
<path d="M29.0996 3.90983L24.7396 1.60428C23.7217 1.01732 22.4685 1.01732 21.4479 1.60428L2.86342 12.2992C1.8402 12.8888 1.21094 13.9781 1.21094 15.1573V32.1237C1.21094 33.3029 1.8402 34.3895 2.86078 34.9791L7.22069 37.3323C8.24126 37.9219 9.49979 37.9219 10.5204 37.3323L29.1075 26.5872C30.1281 25.9976 30.7573 24.9083 30.7573 23.7317V6.76796C30.7573 5.58875 30.1281 4.49679 29.1048 3.90983" fill="black"/>
<path d="M29.3602 7.18365C29.3602 6.52265 28.8446 6.28205 28.2101 6.64692L10.3897 16.8685C9.75513 17.2334 9.23955 18.0636 9.2422 18.7246L9.25806 34.9163C9.25806 35.5773 9.77628 35.8179 10.4082 35.453L28.2286 25.2288C28.8631 24.8639 29.376 24.0337 29.376 23.3727L29.3575 7.181L29.3602 7.18365Z" fill="white"/>
<path d="M15.1254 24.4102C15.2365 24.3468 15.3264 24.397 15.3264 24.5239C15.3264 24.6508 15.2365 24.8095 15.1254 24.8729L14.9509 24.9734C14.8399 25.0369 14.75 24.984 14.75 24.8571C14.75 24.7302 14.8399 24.5742 14.9509 24.5107L15.1254 24.4102Z" fill="#F05F23"/>
<path d="M17.0574 25.111C17.1473 25.0607 17.2372 25.0184 17.3245 24.9893L17.3589 24.9814L20.4232 24.3786C20.8436 24.2966 21.0816 24.68 20.952 25.2379C20.8886 25.5128 20.7484 25.7905 20.5554 26.0152C20.4391 26.1527 20.3095 26.2611 20.18 26.3351C20.1007 26.3827 20.0187 26.4144 19.9394 26.433L18.4402 26.8216C18.39 26.8348 18.3477 26.8216 18.3239 26.7925C18.2922 26.7555 18.2816 26.6947 18.2975 26.618C18.3213 26.5017 18.4032 26.388 18.4905 26.3378C18.509 26.3272 18.5275 26.3193 18.546 26.314L20.0451 25.9227C20.0927 25.9121 20.135 25.8936 20.1773 25.8698C20.2434 25.8328 20.3069 25.7772 20.3651 25.7085C20.4602 25.5948 20.5316 25.46 20.5634 25.3225C20.6268 25.0449 20.5052 24.8519 20.2937 24.8942L17.224 25.4943C17.1658 25.5155 17.1103 25.5419 17.0522 25.5737C16.8829 25.6715 16.7164 25.8222 16.5736 26.0152L15.2463 27.7867L16.333 29.0716L16.5049 28.8416C16.6371 28.6645 16.7904 28.5243 16.9464 28.4344C16.9993 28.4027 17.0522 28.3789 17.105 28.3604L19.9764 27.6809C19.9949 27.673 20.0134 27.665 20.0319 27.6518C20.0716 27.628 20.1112 27.5989 20.1509 27.5619C20.1879 27.5276 20.2223 27.4879 20.2567 27.4456L23.2364 23.4796C23.4268 23.2285 23.477 22.9059 23.3554 22.7578C23.2761 22.6653 23.1439 22.6653 23.009 22.742C22.9324 22.7869 22.853 22.8557 22.7843 22.9482L21.7954 24.2649C21.7611 24.3098 21.7241 24.3469 21.6844 24.368C21.6183 24.405 21.5522 24.405 21.5152 24.3601C21.4544 24.286 21.4808 24.1274 21.5734 24.0031L22.5622 22.6838C22.6997 22.5014 22.853 22.3639 23.0064 22.2766C23.2734 22.1233 23.5352 22.1206 23.6912 22.3057C23.9397 22.5965 23.8339 23.239 23.4585 23.7387L20.4787 27.7021C20.4153 27.7893 20.3439 27.8686 20.2699 27.9347C20.1958 28.0061 20.1165 28.0643 20.0372 28.1092C19.9923 28.1357 19.9473 28.1568 19.9024 28.1753L17.0204 28.8575C16.9966 28.8654 16.9728 28.8786 16.949 28.8918C16.8697 28.9368 16.793 29.0082 16.7243 29.0981L16.5551 29.3255L16.6741 29.4656C16.7349 29.5396 16.7084 29.6983 16.6159 29.8225L15.2595 31.6257C15.2252 31.6707 15.1855 31.705 15.1485 31.7288C15.0824 31.7658 15.0189 31.7685 14.9793 31.7209L14.8206 31.5332C14.7598 31.4618 14.7863 31.3031 14.8788 31.1789C14.9132 31.1339 14.9502 31.0996 14.9899 31.0784C15.056 31.0414 15.1221 31.0387 15.1591 31.0863L15.2067 31.1419L16.2246 29.7882L14.6805 27.9665L13.6626 29.3228L14.6435 30.4782C14.7043 30.5496 14.6779 30.7083 14.5853 30.8325C14.551 30.8775 14.5139 30.9118 14.4743 30.9356C14.4082 30.9727 14.3447 30.9753 14.3051 30.9303L13.2131 29.6427C13.1523 29.5713 13.1761 29.4127 13.2713 29.2884L14.6276 27.4826C14.662 27.4377 14.699 27.4033 14.736 27.3821C14.8021 27.3425 14.8682 27.3425 14.9079 27.3901L15.0242 27.5276L16.3515 25.7561C16.563 25.4758 16.8036 25.2537 17.0495 25.111H17.0574Z" fill="#F05F23"/>
<path d="M16.9018 18.3477C17.0128 18.2843 17.1054 18.3345 17.1054 18.4614C17.1054 18.5883 17.0155 18.7443 16.9044 18.8104L15.8416 19.4238C15.7305 19.4873 15.6406 19.4371 15.6406 19.3101C15.6406 19.1832 15.7305 19.0272 15.8416 18.9638L16.9044 18.3504L16.9018 18.3477Z" fill="#F05F23"/>
<path d="M26.0906 14.3986C26.2017 14.3352 26.2916 14.3854 26.2916 14.5123C26.2916 14.6392 26.2017 14.7952 26.0906 14.8587L25.0992 15.4324C25.0146 15.7656 24.7819 16.1066 24.5043 16.2679C24.1579 16.4689 23.8776 16.3049 23.875 15.9083C23.875 15.5911 24.0495 15.2209 24.298 14.9803L24.2927 13.4389C24.2927 13.312 24.3826 13.1533 24.4937 13.0899C24.6047 13.0264 24.6973 13.0766 24.6973 13.2062L24.7026 14.7476C24.8876 14.7133 25.0331 14.7952 25.0965 14.9724L26.088 14.3986H26.0906ZM24.5043 15.8052C24.6285 15.7338 24.729 15.5593 24.729 15.4166C24.729 15.2738 24.6259 15.2183 24.5016 15.2896C24.3774 15.361 24.2769 15.5329 24.2769 15.6783C24.2769 15.8237 24.38 15.8766 24.5016 15.8079" fill="#F05F23"/>
<path d="M24.4961 11.9605C24.9191 11.7172 25.3263 11.5771 25.7123 11.5401C26.0851 11.5057 26.4183 11.5718 26.7065 11.7357C26.9947 11.8997 27.2194 12.1535 27.378 12.4893C27.542 12.8383 27.6266 13.2587 27.6292 13.7425C27.6292 14.6441 27.341 15.6779 26.8096 16.6482C26.2834 17.6133 25.5696 18.4303 24.7949 18.9591C24.4749 19.1785 24.3269 19.2631 24.3216 19.2658C24.2105 19.3292 24.1207 19.2763 24.1207 19.1521C24.1207 19.0278 24.2105 18.8665 24.3216 18.8031C24.3216 18.8031 24.4591 18.7238 24.7605 18.5175C26.1486 17.5736 27.2326 15.5801 27.2273 13.9752C27.222 12.254 25.9979 11.5559 24.4987 12.4205C23.8007 12.8224 23.19 13.449 22.6797 14.2819C22.299 14.9006 22.1271 15.4003 22.1245 15.4056C22.0874 15.5087 22.0187 15.5959 21.9447 15.6382C21.9156 15.6567 21.8839 15.6647 21.8548 15.6647C21.7543 15.6647 21.7146 15.551 21.7622 15.4082C21.7702 15.3844 21.9711 14.808 22.4074 14.0968C22.6638 13.6764 22.9494 13.2983 23.2561 12.9652C23.6395 12.5501 24.0598 12.209 24.4987 11.9578L24.4961 11.9605Z" fill="#F05F23"/>
<path d="M20.211 18.2109V18.6895C20.5573 18.4912 20.8376 18.6525 20.8402 19.0491V19.2897L20.4251 19.5303V19.2897C20.4251 19.1575 20.3299 19.102 20.2162 19.1681L19.7985 19.4087C19.6848 19.4748 19.5923 19.636 19.5923 19.7682V20.1437C19.5923 20.2468 19.6504 20.305 19.735 20.2891L20.4172 20.1543C20.6737 20.1067 20.8455 20.2812 20.8455 20.5905V20.9633C20.8455 21.3599 20.5679 21.8438 20.2242 22.0447V22.5233L19.8064 22.7639V22.2853C19.4601 22.4836 19.1798 22.3223 19.1772 21.9257V21.6878L19.5923 21.4472V21.6851C19.5923 21.8173 19.6874 21.8728 19.8011 21.8067L20.2189 21.5661C20.3326 21.5 20.4251 21.3388 20.4251 21.2066V20.8338C20.4251 20.728 20.3669 20.6698 20.2823 20.6857L19.6002 20.8205C19.3437 20.8708 19.1719 20.6936 19.1719 20.3869V20.0115C19.1719 19.6149 19.4495 19.131 19.7932 18.9301V18.4515L20.211 18.2109Z" fill="#F05F23"/>
<path d="M20.1195 14.0247C20.3204 13.9084 20.4976 13.8925 20.6562 13.8766C20.7673 13.8687 20.8704 13.8581 20.9682 13.8185C21.1903 13.7259 21.3965 13.6307 21.5975 13.5223C21.6636 13.488 21.7244 13.4933 21.7588 13.5382C21.7931 13.5832 21.7984 13.6572 21.772 13.7444C21.7535 13.8079 21.3304 15.2013 20.9576 16.0606C21.2115 16.4889 21.6081 16.7348 22.0285 16.9912C22.4118 17.2292 22.8084 17.4751 23.1125 17.8743C23.4588 18.337 23.6281 18.9425 23.6307 19.7277C23.6307 20.4046 23.4641 21.0709 23.1178 21.7583C23.0781 21.8376 23.0199 21.9011 22.9618 21.9328C22.9168 21.9593 22.8719 21.9672 22.8322 21.954C22.745 21.9222 22.7344 21.7848 22.8031 21.6446C23.086 21.0788 23.2262 20.5262 23.2235 19.9604C23.2209 18.3952 22.4991 17.951 21.7376 17.4777C21.3146 17.2213 20.881 16.9516 20.5981 16.4783L20.5293 16.518C20.4183 16.5814 20.3284 16.5312 20.3284 16.4043C20.3284 16.2774 20.4183 16.1214 20.5293 16.0579L20.6192 16.005C20.8572 15.4524 21.1348 14.6196 21.2855 14.1463C21.1639 14.2045 21.0396 14.2574 20.9101 14.3129C20.7593 14.3737 20.6271 14.3869 20.4976 14.4001C20.3654 14.4134 20.2385 14.4239 20.1195 14.4927C20.1116 14.498 20.1036 14.5033 20.0931 14.5085C20.0217 14.5561 19.9556 14.6487 19.8604 14.7914C19.8022 14.8761 19.7388 14.9686 19.6674 15.0558C19.5061 15.2515 19.329 15.3837 19.165 15.4789C19.0619 15.5397 18.9614 15.5846 18.8715 15.6217C18.861 15.6243 18.8425 15.6349 18.8213 15.6428C18.7288 15.6851 18.6468 15.7168 18.5754 15.7433C18.6389 15.8966 18.7393 16.0711 18.8689 16.2562C19.0434 16.5074 19.2179 16.6951 19.2972 16.7691L19.8789 16.4334C19.9899 16.3699 20.0798 16.4201 20.0798 16.547C20.0798 16.674 19.9899 16.83 19.8789 16.8934L19.321 17.216C18.8715 18.2894 18.3983 19.199 17.9805 20.0027C17.2587 21.3961 16.7352 22.4008 16.7379 23.4134C16.7379 23.9211 16.7564 24.0216 16.9097 24.36C16.952 24.4552 16.9044 24.6191 16.8013 24.7249C16.7749 24.7513 16.7511 24.7724 16.7246 24.7857C16.6453 24.8306 16.5686 24.82 16.5396 24.7486C16.3651 24.3679 16.3386 24.2119 16.336 23.6461C16.3333 23.0803 16.4602 22.5198 16.7352 21.8297C16.9758 21.2216 17.301 20.6003 17.6738 19.8785C18.0784 19.1038 18.5305 18.2313 18.9588 17.2133C18.935 17.1895 18.9086 17.1657 18.8795 17.134C18.7764 17.0256 18.6627 16.8855 18.5596 16.7427C18.2502 16.317 18.0916 15.9548 18.0916 15.6692C18.0916 15.5635 18.1524 15.4366 18.2423 15.3573C18.2581 15.3414 18.2767 15.3308 18.2925 15.3202C18.348 15.2885 18.4009 15.2832 18.4379 15.307C18.4776 15.3044 18.5807 15.2753 18.8689 15.151C18.8927 15.1405 18.9112 15.1325 18.9244 15.1272C18.9958 15.0981 19.0778 15.0611 19.1571 15.0135C19.2655 14.9501 19.3765 14.8681 19.4691 14.7571C19.514 14.7042 19.559 14.6381 19.6066 14.5641C19.7203 14.3975 19.8604 14.1913 20.0613 14.0591C20.0772 14.0485 20.0931 14.0379 20.1116 14.03L20.1195 14.0247Z" fill="#F05F23"/>
<path d="M12.6209 23.2071C12.7319 23.1437 12.8245 23.1939 12.8245 23.3208C12.8245 23.4477 12.7346 23.6037 12.6235 23.6698L12.4041 23.7967C12.293 23.8602 12.2031 23.8099 12.2031 23.683C12.2031 23.5561 12.293 23.4001 12.4041 23.3367L12.6235 23.2098L12.6209 23.2071Z" fill="#F05F23"/>
<path d="M14.7677 21.9649C14.8787 21.9015 14.9686 21.9517 14.9686 22.0786C14.9686 22.2055 14.8787 22.3615 14.7677 22.425L13.9666 22.8877C13.8555 22.9511 13.7656 22.9009 13.7656 22.774C13.7656 22.6471 13.8555 22.4911 13.9666 22.4276L14.7677 21.9649Z" fill="#F05F23"/>
<path d="M13.9297 25.0977C14.0407 25.0343 14.1306 25.0845 14.1306 25.2114C14.1306 25.3383 14.0407 25.497 13.9297 25.5604L12.7478 26.2426C12.6368 26.306 12.5469 26.2532 12.5469 26.1262C12.5469 25.9993 12.6368 25.8433 12.7478 25.7799L13.9297 25.0977Z" fill="#F05F23"/>
<path d="M14.9961 19.4493C15.1072 19.3858 15.1971 19.4361 15.1971 19.563C15.1971 19.6899 15.1072 19.8459 14.9961 19.9094L14.7661 20.0416C14.655 20.105 14.5625 20.0548 14.5625 19.9279C14.5625 19.801 14.6524 19.645 14.7634 19.5789L14.9935 19.4467L14.9961 19.4493Z" fill="#F05F23"/>
</svg>
