<svg width="31" height="40" viewBox="0 0 31 40" fill="none" xmlns="http://www.w3.org/2000/svg">
<path d="M28.189 4.01541L23.9653 1.64745C22.9792 1.0446 21.7651 1.0446 20.7764 1.64745L2.77272 12.6318C1.78148 13.2374 1.17188 14.3562 1.17188 15.5673V32.993C1.17188 34.2041 1.78148 35.3202 2.77016 35.9258L6.99382 38.3426C7.9825 38.9482 9.2017 38.9482 10.1904 38.3426L28.1967 27.3067C29.1853 26.7011 29.7949 25.5823 29.7949 24.3739V6.95091C29.7949 5.73978 29.1853 4.61826 28.1941 4.01541" fill="#CACACA"/>
<path d="M28.4463 7.38247C28.4463 6.70359 27.9469 6.45647 27.3322 6.83122L10.0687 17.3295C9.45394 17.7043 8.95448 18.5569 8.95704 19.2358L8.97241 35.8658C8.97241 36.5447 9.47443 36.7918 10.0866 36.4171L27.3501 25.9161C27.9648 25.5413 28.4617 24.6887 28.4617 24.0098L28.4438 7.37976L28.4463 7.38247Z" fill="white"/>
<path d="M14.645 25.0672C14.7525 25.0021 14.8396 25.0537 14.8396 25.184C14.8396 25.3143 14.7525 25.4773 14.645 25.5425L14.4759 25.6456C14.3683 25.7108 14.2812 25.6565 14.2812 25.5262C14.2812 25.3958 14.3683 25.2356 14.4759 25.1704L14.645 25.0672Z" fill="#CACACA"/>
<path d="M16.5183 25.7923C16.6054 25.7407 16.6925 25.6973 16.777 25.6674L16.8103 25.6592L19.7789 25.0401C20.1861 24.9559 20.4167 25.3497 20.2912 25.9226C20.2297 26.2051 20.0939 26.4902 19.907 26.721C19.7943 26.8622 19.6688 26.9736 19.5432 27.0496C19.4664 27.0985 19.387 27.1311 19.3102 27.1501L17.8579 27.5493C17.8092 27.5628 17.7682 27.5493 17.7452 27.5194C17.7144 27.4814 17.7042 27.4189 17.7196 27.3402C17.7426 27.2207 17.822 27.1039 17.9065 27.0523C17.9245 27.0415 17.9424 27.0333 17.9603 27.0279L19.4126 26.626C19.4587 26.6151 19.4997 26.5961 19.5407 26.5717C19.6047 26.5336 19.6662 26.4766 19.7225 26.406C19.8148 26.2892 19.8839 26.1508 19.9146 26.0095C19.9761 25.7244 19.8583 25.5262 19.6534 25.5696L16.6797 26.1861C16.6233 26.2078 16.5695 26.2349 16.5132 26.2675C16.3492 26.368 16.1879 26.5228 16.0496 26.721L14.7638 28.5404L15.8165 29.8602L15.983 29.6239C16.111 29.442 16.2596 29.2981 16.4107 29.2057C16.4619 29.1732 16.5132 29.1487 16.5644 29.1297L19.346 28.4318C19.364 28.4237 19.3819 28.4155 19.3998 28.4019C19.4382 28.3775 19.4767 28.3476 19.5151 28.3096C19.5509 28.2743 19.5842 28.2336 19.6175 28.1901L22.5042 24.1168C22.6886 23.8588 22.7373 23.5275 22.6194 23.3755C22.5426 23.2804 22.4145 23.2804 22.2839 23.3592C22.2096 23.4053 22.1328 23.4759 22.0662 23.571L21.1082 24.9233C21.0749 24.9695 21.0391 25.0075 21.0007 25.0292C20.9366 25.0673 20.8726 25.0672 20.8367 25.0211C20.7778 24.945 20.8034 24.7821 20.8931 24.6545L21.851 23.2994C21.9842 23.1121 22.1328 22.9708 22.2813 22.8812C22.54 22.7237 22.7936 22.721 22.9447 22.9111C23.1855 23.2098 23.083 23.8697 22.7193 24.3829L19.8327 28.4535C19.7712 28.5431 19.7021 28.6246 19.6303 28.6925C19.5586 28.7658 19.4818 28.8256 19.4049 28.8717C19.3614 28.8989 19.3179 28.9206 19.2743 28.9396L16.4824 29.6402C16.4594 29.6484 16.4363 29.662 16.4133 29.6755C16.3364 29.7217 16.2622 29.795 16.1956 29.8873L16.0316 30.1209L16.1469 30.2648C16.2058 30.3408 16.1802 30.5038 16.0906 30.6314L14.7766 32.4834C14.7433 32.5296 14.7049 32.5649 14.669 32.5893C14.605 32.6273 14.5435 32.63 14.5051 32.5812L14.3514 32.3884C14.2925 32.315 14.3181 32.1521 14.4077 32.0245C14.441 31.9783 14.4769 31.943 14.5153 31.9213C14.5794 31.8833 14.6434 31.8806 14.6792 31.9294L14.7254 31.9865L15.7115 30.5961L14.2156 28.7251L13.2295 30.1182L14.1798 31.3049C14.2387 31.3782 14.2131 31.5411 14.1234 31.6687C14.0901 31.7149 14.0543 31.7502 14.0159 31.7746C13.9518 31.8127 13.8904 31.8154 13.8519 31.7692L12.7941 30.4467C12.7352 30.3734 12.7582 30.2105 12.8504 30.0829L14.1644 28.2281C14.1977 28.182 14.2336 28.1467 14.2694 28.125C14.3335 28.0842 14.3975 28.0842 14.4359 28.1331L14.5486 28.2743L15.8344 26.4549C16.0393 26.167 16.2724 25.9389 16.5106 25.7923H16.5183Z" fill="#CACACA"/>
<path d="M16.3663 18.8407C16.4739 18.7755 16.5635 18.8271 16.5635 18.9574C16.5635 19.0878 16.4764 19.248 16.3689 19.3159L15.3392 19.9459C15.2316 20.0111 15.1445 19.9595 15.1445 19.8291C15.1445 19.6988 15.2316 19.5386 15.3392 19.4734L16.3689 18.8434L16.3663 18.8407Z" fill="#CACACA"/>
<path d="M25.2714 14.7864C25.379 14.7212 25.4661 14.7728 25.4661 14.9031C25.4661 15.0335 25.379 15.1937 25.2714 15.2589L24.3109 15.8481C24.2289 16.1903 24.0035 16.5406 23.7346 16.7063C23.3991 16.9126 23.1276 16.7443 23.125 16.3369C23.125 16.0111 23.294 15.6309 23.5348 15.3838L23.5297 13.8006C23.5297 13.6703 23.6168 13.5073 23.7244 13.4422C23.8319 13.377 23.9216 13.4286 23.9216 13.5616L23.9267 15.1448C24.106 15.1095 24.2469 15.1937 24.3083 15.3756L25.2688 14.7864H25.2714ZM23.7346 16.231C23.855 16.1577 23.9523 15.9785 23.9523 15.8318C23.9523 15.6852 23.8524 15.6282 23.732 15.7015C23.6117 15.7748 23.5143 15.9513 23.5143 16.1007C23.5143 16.25 23.6142 16.3044 23.732 16.2337" fill="#CACACA"/>
<path d="M23.7225 12.2846C24.1324 12.0348 24.5268 11.8908 24.9008 11.8528C25.2619 11.8175 25.5846 11.8854 25.8638 12.0538C26.143 12.2221 26.3607 12.4828 26.5144 12.8277C26.6732 13.1862 26.7552 13.6179 26.7577 14.1149C26.7577 15.0409 26.4785 16.1027 25.9637 17.0993C25.454 18.0904 24.7624 18.9295 24.012 19.4726C23.702 19.698 23.5586 19.7849 23.5535 19.7876C23.4459 19.8528 23.3588 19.7985 23.3588 19.6709C23.3588 19.5432 23.4459 19.3776 23.5535 19.3124C23.5535 19.3124 23.6867 19.231 23.9787 19.0191C25.3234 18.0497 26.3735 16.0022 26.3684 14.3538C26.3633 12.586 25.1774 11.8691 23.7251 12.7571C23.0489 13.1699 22.4572 13.8134 21.9629 14.6688C21.5941 15.3043 21.4276 15.8175 21.425 15.823C21.3891 15.9289 21.3226 16.0185 21.2508 16.0619C21.2227 16.0809 21.1919 16.0891 21.1637 16.0891C21.0664 16.0891 21.028 15.9723 21.0741 15.8257C21.0818 15.8012 21.2765 15.2092 21.6991 14.4788C21.9475 14.047 22.2241 13.6587 22.5213 13.3165C22.8927 12.8902 23.2999 12.5399 23.7251 12.2819L23.7225 12.2846Z" fill="#CACACA"/>
<path d="M19.5769 18.7031V19.1946C19.9125 18.991 20.184 19.1566 20.1865 19.564V19.8111L19.7844 20.0582V19.8111C19.7844 19.6753 19.6922 19.6183 19.582 19.6862L19.1774 19.9333C19.0672 20.0012 18.9776 20.1668 18.9776 20.3026V20.6882C18.9776 20.7941 19.0339 20.8538 19.1159 20.8375L19.7767 20.6991C20.0252 20.6502 20.1916 20.8294 20.1916 21.1471V21.53C20.1916 21.9373 19.9227 22.4343 19.5897 22.6407V23.1322L19.185 23.3793V22.8878C18.8495 23.0914 18.578 22.9258 18.5754 22.5185V22.2741L18.9776 22.027V22.2714C18.9776 22.4071 19.0698 22.4642 19.1799 22.3963L19.5846 22.1492C19.6947 22.0813 19.7844 21.9156 19.7844 21.7798V21.3969C19.7844 21.2883 19.728 21.2286 19.6461 21.2449L18.9852 21.3834C18.7368 21.435 18.5703 21.253 18.5703 20.938V20.5524C18.5703 20.1451 18.8393 19.6481 19.1722 19.4418V18.9502L19.5769 18.7031Z" fill="#CACACA"/>
<path d="M19.4817 14.4061C19.6764 14.2866 19.848 14.2703 20.0017 14.254C20.1093 14.2459 20.2092 14.235 20.3039 14.1943C20.5191 14.0992 20.7189 14.0015 20.9135 13.8901C20.9776 13.8548 21.0365 13.8603 21.0698 13.9064C21.1031 13.9526 21.1082 14.0286 21.0826 14.1182C21.0646 14.1834 20.6548 15.6145 20.2937 16.4971C20.5396 16.937 20.9238 17.1895 21.331 17.4529C21.7024 17.6973 22.0866 17.9499 22.3812 18.3599C22.7167 18.8351 22.8806 19.457 22.8832 20.2635C22.8832 20.9587 22.7218 21.643 22.3863 22.3491C22.3479 22.4305 22.2915 22.4957 22.2352 22.5283C22.1916 22.5554 22.1481 22.5636 22.1097 22.55C22.0252 22.5174 22.0149 22.3762 22.0815 22.2323C22.3556 21.6512 22.4913 21.0836 22.4888 20.5025C22.4862 18.8949 21.7869 18.4387 21.0493 17.9526C20.6395 17.6892 20.2194 17.4122 19.9453 16.9261L19.8787 16.9668C19.7712 17.032 19.6841 16.9804 19.6841 16.8501C19.6841 16.7197 19.7712 16.5595 19.8787 16.4943L19.9658 16.44C20.1964 15.8725 20.4653 15.0171 20.6113 14.531C20.4935 14.5907 20.3731 14.6451 20.2476 14.7021C20.1016 14.7645 19.9735 14.7781 19.848 14.7917C19.7199 14.8053 19.597 14.8161 19.4817 14.8867C19.4741 14.8922 19.4664 14.8976 19.4561 14.903C19.387 14.9519 19.3229 15.047 19.2307 15.1936C19.1744 15.2805 19.1129 15.3755 19.0437 15.4652C18.8875 15.6661 18.7159 15.8019 18.5571 15.8996C18.4572 15.9621 18.3599 16.0083 18.2728 16.0463C18.2625 16.049 18.2446 16.0599 18.2241 16.068C18.1345 16.1115 18.0551 16.144 17.9859 16.1712C18.0474 16.3287 18.1447 16.5079 18.2702 16.698C18.4393 16.956 18.6083 17.1488 18.6852 17.2248L19.2487 16.8799C19.3562 16.8148 19.4433 16.8664 19.4433 16.9967C19.4433 17.1271 19.3562 17.2873 19.2487 17.3525L18.7082 17.6838C18.2728 18.7863 17.8143 19.7204 17.4096 20.5459C16.7104 21.977 16.2032 23.0089 16.2058 24.049C16.2058 24.5704 16.2237 24.6736 16.3723 25.0212C16.4132 25.1189 16.3671 25.2873 16.2672 25.3959C16.2416 25.4231 16.2186 25.4448 16.193 25.4584C16.1161 25.5045 16.0418 25.4937 16.0137 25.4203C15.8446 25.0293 15.819 24.8691 15.8164 24.288C15.8139 23.7068 15.9368 23.1311 16.2032 22.4224C16.4363 21.7978 16.7513 21.1597 17.1125 20.4183C17.5044 19.6227 17.9424 18.7265 18.3573 17.681C18.3343 17.6566 18.3086 17.6322 18.2805 17.5996C18.1806 17.4882 18.0704 17.3443 17.9705 17.1977C17.6709 16.7605 17.5172 16.3884 17.5172 16.0952C17.5172 15.9865 17.5761 15.8562 17.6632 15.7747C17.6785 15.7584 17.6965 15.7476 17.7118 15.7367C17.7656 15.7041 17.8169 15.6987 17.8527 15.7231C17.8911 15.7204 17.991 15.6905 18.2702 15.5629C18.2933 15.552 18.3112 15.5439 18.324 15.5385C18.3932 15.5086 18.4726 15.4706 18.5494 15.4217C18.6544 15.3565 18.762 15.2723 18.8516 15.1583C18.8952 15.104 18.9387 15.0361 18.9848 14.9601C19.095 14.789 19.2307 14.5772 19.4254 14.4414C19.4408 14.4305 19.4561 14.4197 19.4741 14.4115L19.4817 14.4061Z" fill="#CACACA"/>
<path d="M12.2211 23.8329C12.3287 23.7677 12.4183 23.8193 12.4183 23.9496C12.4183 24.08 12.3312 24.2402 12.2237 24.3081L12.0111 24.4384C11.9035 24.5036 11.8164 24.452 11.8164 24.3217C11.8164 24.1913 11.9035 24.0311 12.0111 23.9659L12.2237 23.8356L12.2211 23.8329Z" fill="#CACACA"/>
<path d="M14.3028 22.5594C14.4104 22.4942 14.4974 22.5458 14.4974 22.6762C14.4974 22.8065 14.4104 22.9668 14.3028 23.0319L13.5267 23.5071C13.4191 23.5723 13.332 23.5207 13.332 23.3904C13.332 23.26 13.4191 23.0998 13.5267 23.0346L14.3028 22.5594Z" fill="#CACACA"/>
<path d="M13.4919 25.7782C13.5995 25.713 13.6866 25.7646 13.6866 25.8949C13.6866 26.0253 13.5995 26.1882 13.4919 26.2534L12.347 26.954C12.2394 27.0192 12.1523 26.9649 12.1523 26.8345C12.1523 26.7042 12.2394 26.544 12.347 26.4788L13.4919 25.7782Z" fill="#CACACA"/>
<path d="M14.5177 19.9735C14.6253 19.9083 14.7124 19.9599 14.7124 20.0903C14.7124 20.2206 14.6253 20.3808 14.5177 20.446L14.2949 20.5818C14.1873 20.6469 14.0977 20.5953 14.0977 20.465C14.0977 20.3347 14.1847 20.1744 14.2923 20.1065L14.5152 19.9708L14.5177 19.9735Z" fill="#CACACA"/>
</svg>
