<svg width="39" height="51" viewBox="0 0 39 51" fill="none" xmlns="http://www.w3.org/2000/svg">
<path d="M19.9492 10.7344L18.9531 10.1021L18.9802 5.69832L19.9813 6.29609L19.9492 10.7344Z" fill="#1E2959"/>
<path d="M15.418 12.2331L16.4809 12.8984L19.9489 10.7462L18.9528 10.1144L15.418 12.2331Z" fill="#1E2959"/>
<path d="M16.4782 15.0078L15.418 14.3415V12.2242L16.4782 12.8842V15.0078Z" fill="#1E2959"/>
<path d="M16.4805 12.8799V15.0078L21.9688 11.482V9.36475L21.9381 5.06606L19.9805 6.30489L19.9485 10.7334L16.4805 12.8799Z" fill="#1E2959"/>
<path d="M14.2578 13.8776C14.2578 14.4549 14.6742 14.9219 15.1881 14.9219C15.7024 14.9219 16.1188 14.4549 16.1188 13.8776C16.1188 13.3003 15.7024 12.8333 15.1881 12.8333C14.6742 12.8333 14.2578 13.3003 14.2578 13.8776Z" fill="white"/>
<path d="M14.2578 13.8776C14.2578 14.4549 14.6742 14.9219 15.1881 14.9219C15.7024 14.9219 16.1188 14.4549 16.1188 13.8776C16.1188 13.3003 15.7024 12.8333 15.1881 12.8333C14.6742 12.8333 14.2578 13.3003 14.2578 13.8776Z" stroke="#1E2959" stroke-width="0.846" stroke-miterlimit="10"/>
<path d="M22.6875 28.7324V29.2237L23.6782 29.8594L25.6227 28.6916V28.1998L23.6782 29.3676L22.6875 28.7324Z" fill="#1E2959"/>
<path d="M23.6787 29.3672L22.6875 28.732L24.6694 27.5651L25.6222 28.1999L23.6787 29.3672Z" fill="#1E2959"/>
<path d="M19.625 26.9623V27.4541L20.6121 28.0703L22.5489 26.8646V26.3728L20.6121 27.5786L19.625 26.9623Z" fill="#1E2959"/>
<path d="M20.6126 27.5781L19.625 26.9619L21.5997 25.7566L22.5498 26.3724L20.6126 27.5781Z" fill="#1E2959"/>
<path d="M27.6095 7.91862L26.7767 28.0142L24.4911 29.2734L19.9737 26.4616L18.9844 5.61314L21.3606 4.09318L27.6095 7.91862Z" fill="#1E2959"/>
<path d="M27.6095 7.91617L25.2067 9.46094L18.9844 5.6107L21.3606 4.09074L27.6095 7.91617Z" fill="#1E2959"/>
<path d="M25.3165 13.8125L24.3203 13.1797L24.3474 8.77645L25.3485 9.37471L25.3165 13.8125Z" fill="#1E2959"/>
<path d="M20.7812 15.3102L21.8441 15.9766L25.3122 13.8233L24.316 13.1915L20.7812 15.3102Z" fill="#1E2959"/>
<path d="M21.8454 18.0938L20.7852 17.4274V15.3092L21.8454 15.9692V18.0938Z" fill="#1E2959"/>
<path d="M21.8438 15.9731V18.1016L27.332 14.5753V12.4585L27.3018 8.15981L25.3438 9.39913L25.3118 13.8272L21.8438 15.9731Z" fill="#1E2959"/>
<path d="M19.625 16.9631C19.625 17.5404 20.0414 18.0078 20.5553 18.0078C21.0696 18.0078 21.4856 17.5404 21.4856 16.9631C21.4856 16.3857 21.0696 15.9188 20.5553 15.9188C20.0414 15.9188 19.625 16.3857 19.625 16.9631Z" fill="white"/>
<path d="M19.625 16.9631C19.625 17.5404 20.0414 18.0078 20.5553 18.0078C21.0696 18.0078 21.4856 17.5404 21.4856 16.9631C21.4856 16.3857 21.0696 15.9188 20.5553 15.9188C20.0414 15.9188 19.625 16.3857 19.625 16.9631Z" stroke="#1E2959" stroke-width="0.846" stroke-miterlimit="10"/>
<path d="M20.3281 1.39792V6.88145L24.2446 9.28906L25.8069 8.25792L25.8011 2.91107C25.7654 3.04872 25.6797 3.16934 25.5525 3.25154L24.4887 3.92568C24.3159 4.0356 24.102 4.04143 23.9292 3.93151L20.6078 1.88577C20.4296 1.77585 20.3385 1.59004 20.3331 1.39792H20.3281Z" fill="#1E2959"/>
<path d="M23.9308 3.9445L20.6085 1.89779C20.234 1.66675 20.2349 1.08503 20.6098 0.855457L21.7115 0.181324C21.883 0.0767503 22.0932 0.077239 22.2642 0.183758L25.5468 2.22755C25.9149 2.45616 25.9181 3.02863 25.5522 3.2621L24.4897 3.93964C24.3179 4.04956 24.104 4.05151 23.9308 3.9445Z" fill="#1E2959"/>
<path d="M21.2759 6.72899L23.0254 7.80245C23.2578 7.9435 23.5442 7.76402 23.5442 7.47705V5.20174C23.5442 4.82868 23.3588 4.4848 23.0579 4.29997L21.3074 3.22651C21.076 3.08449 20.7891 3.26494 20.7891 3.55191V5.82723C20.7891 6.1998 20.975 6.54416 21.2759 6.72899Z" fill="white"/>
<path d="M22.4914 7.1875V6.87507L21.5859 6.31193V6.62435L22.4914 7.1875Z" fill="#1E2959"/>
<path d="M22.8936 5.46767C22.8936 5.46767 22.4506 5.54236 22.3613 5.15629L22.2656 5.28385C22.2656 5.28385 22.3189 5.70339 22.9532 5.63257L22.8936 5.46767Z" fill="#1E2959"/>
<path d="M21.691 4.81884C21.691 4.81884 21.2484 4.89353 21.1582 4.50746L21.0625 4.6355C21.0625 4.6355 21.1166 5.05456 21.751 4.98423L21.691 4.81884Z" fill="#1E2959"/>
<path d="M21.955 4.46432C21.955 4.46432 21.4763 3.63928 21.1172 3.96191C21.1172 3.96191 21.1804 3.88125 21.4163 4.01682C21.6523 4.15189 21.7876 4.45168 21.8354 4.55469L21.955 4.46432Z" fill="#1E2959"/>
<path d="M22.1797 4.646C22.1797 4.646 23.0617 4.43647 23.1001 4.9375C23.1001 4.9375 23.1091 4.83322 22.8537 4.74591C22.5988 4.6591 22.306 4.7658 22.2041 4.80072L22.1797 4.646Z" fill="#1E2959"/>
<path d="M12.8836 15.8438L13.8797 15.2115L13.8522 10.8077L12.8516 11.406L12.8836 15.8438Z" fill="#1E2959"/>
<path d="M17.4138 17.3424L16.3504 18.0078L12.8828 15.8555L13.8785 15.2237L17.4138 17.3424Z" fill="#1E2959"/>
<path d="M16.3477 20.125L17.4083 19.4587V17.3414L16.3477 18.0014V20.125Z" fill="#1E2959"/>
<path d="M16.3476 17.9971V20.125L10.8594 16.5992V14.4824L10.8905 10.1832L12.8481 11.4226L12.8801 15.8506L16.3476 17.9971Z" fill="#1E2959"/>
<path d="M18.5719 18.9875C18.5719 19.5643 18.1555 20.0312 17.6412 20.0312C17.1274 20.0312 16.7109 19.5643 16.7109 18.9875C16.7109 18.4101 17.1274 17.9432 17.6412 17.9432C18.1555 17.9432 18.5719 18.4101 18.5719 18.9875Z" fill="white"/>
<path d="M18.5719 18.9875C18.5719 19.5643 18.1555 20.0312 17.6412 20.0312C17.1274 20.0312 16.7109 19.5643 16.7109 18.9875C16.7109 18.4101 17.1274 17.9432 17.6412 17.9432C18.1555 17.9432 18.5719 18.4101 18.5719 18.9875Z" stroke="#1E2959" stroke-width="0.846" stroke-miterlimit="10"/>
<path d="M10.1418 33.8413V34.333L9.15103 34.9688L7.20703 33.8004V33.3087L9.15103 34.4765L10.1418 33.8413Z" fill="#1E2959"/>
<path d="M9.15106 34.4766L10.1422 33.8413L8.16031 32.6745L7.20703 33.3092L9.15106 34.4766Z" fill="#1E2959"/>
<path d="M13.2052 32.0561V32.5483L12.218 33.1641L10.2812 31.9588V31.4666L12.218 32.6728L13.2052 32.0561Z" fill="#1E2959"/>
<path d="M12.2142 32.6875L13.2026 32.0708L11.227 30.8655L10.2773 31.4817L12.2142 32.6875Z" fill="#1E2959"/>
<path d="M5.21875 13.0202L6.05158 33.1153L8.33758 34.375L12.8541 31.5627L13.8439 10.7147L11.4677 9.19425L5.21875 13.0202Z" fill="#1E2959"/>
<path d="M5.21875 13.0104L7.62161 14.5547L13.8439 10.7049L11.4677 9.18449L5.21875 13.0104Z" fill="#1E2959"/>
<path d="M7.5164 18.9219L8.51255 18.2896L8.48548 13.8858L7.48438 14.4846L7.5164 18.9219Z" fill="#1E2959"/>
<path d="M12.0465 20.4201L10.9832 21.0859L7.51562 18.9332L8.51177 18.3014L12.0465 20.4201Z" fill="#1E2959"/>
<path d="M10.9805 23.1953L12.0411 22.529V20.4112L10.9805 21.0713V23.1953Z" fill="#1E2959"/>
<path d="M10.9805 21.0674V23.1953L5.49219 19.6695V17.5532L5.52333 13.2536L7.48088 14.4929L7.5129 18.9209L10.9805 21.0674Z" fill="#1E2959"/>
<path d="M13.2048 22.0651C13.2048 22.642 12.7883 23.1094 12.274 23.1094C11.7601 23.1094 11.3438 22.642 11.3438 22.0651C11.3438 21.4878 11.7601 21.0203 12.274 21.0203C12.7883 21.0203 13.2048 21.4878 13.2048 22.0651Z" fill="white"/>
<path d="M13.2048 22.0651C13.2048 22.642 12.7883 23.1094 12.274 23.1094C11.7602 23.1094 11.3438 22.642 11.3438 22.0651C11.3438 21.4878 11.7602 21.0203 12.274 21.0203C12.7883 21.0203 13.2048 21.4878 13.2048 22.0651Z" stroke="#1E2959" stroke-width="0.846" stroke-miterlimit="10"/>
<path d="M12.4983 6.50729V11.9903L8.58188 14.3984L7.01953 13.3673L7.02496 8.02045C7.06105 8.1581 7.14677 8.27775 7.27399 8.36092L8.33689 9.03456C8.51013 9.14497 8.72353 9.14984 8.89722 9.0404L12.2177 6.99514C12.3964 6.88473 12.4875 6.69942 12.4925 6.50729H12.4983Z" fill="#1E2959"/>
<path d="M8.89797 9.03038L12.2207 6.98366C12.5947 6.75312 12.5938 6.17091 12.2189 5.94182L11.1172 5.26817C10.9458 5.16263 10.735 5.16312 10.565 5.27012L7.28148 7.31295C6.91379 7.54252 6.91064 8.11451 7.27653 8.34847L8.33851 9.02601C8.51085 9.13544 8.72382 9.13738 8.89797 9.03038Z" fill="#1E2959"/>
<path d="M11.5536 11.838L9.80352 12.9114C9.57163 13.0534 9.28516 12.873 9.28516 12.586V10.3107C9.28516 9.93765 9.47056 9.59328 9.77103 9.40894L11.522 8.33598C11.7534 8.19395 12.0403 8.37391 12.0403 8.66088V10.9362C12.0403 11.3093 11.8545 11.6531 11.5536 11.838Z" fill="white"/>
<path d="M10.3359 12.2891V11.9766L11.2414 11.414V11.7264L10.3359 12.2891Z" fill="#1E2959"/>
<path d="M9.935 10.5767C9.935 10.5767 10.3776 10.6518 10.4678 10.2658L10.5635 10.3928C10.5635 10.3928 10.5093 10.8124 9.875 10.7421L9.935 10.5767Z" fill="#1E2959"/>
<path d="M11.1377 9.92089C11.1377 9.92089 11.5807 9.99558 11.671 9.60951L11.7661 9.73707C11.7661 9.73707 11.7124 10.1561 11.0781 10.0858L11.1377 9.92089Z" fill="#1E2959"/>
<path d="M10.875 9.56636C10.875 9.56636 11.3537 8.74133 11.7119 9.06347C11.7119 9.06347 11.6496 8.9833 11.4137 9.11838C11.1768 9.25297 11.0424 9.55373 10.9946 9.65625L10.875 9.56636Z" fill="#1E2959"/>
<path d="M10.6469 9.73975C10.6469 9.73975 9.7654 9.53022 9.7266 10.0312C9.7266 10.0312 9.71759 9.92697 9.97294 9.84015C10.2283 9.75236 10.5211 9.85955 10.623 9.89496L10.6469 9.73975Z" fill="#1E2959"/>
<path d="M33.5859 34.2217V34.8895L34.9268 35.7266L37.5575 34.0889V33.4211L34.9268 35.0578L33.5859 34.2217Z" fill="#1E2959"/>
<path d="M34.9242 35.0547L33.582 34.2181L36.265 32.5804L37.5544 33.418L34.9242 35.0547Z" fill="#1E2959"/>
<path d="M25.9844 31.9326V32.6009L27.3257 33.4375L29.9559 31.8008V31.132L27.3257 32.7697L25.9844 31.9326Z" fill="#1E2959"/>
<path d="M27.3226 32.7656L25.9805 31.9286L28.6639 30.2914L29.9533 31.1284L27.3226 32.7656Z" fill="#1E2959"/>
<path d="M29.0973 17.2188L28.1016 16.5864L28.1458 12.1637L29.1297 12.781L29.0973 17.2188Z" fill="white"/>
<path d="M29.0973 17.2188L28.1016 16.5864L28.1458 12.1637L29.1297 12.781L29.0973 17.2188Z" stroke="#1E2959" stroke-width="0.846" stroke-linejoin="round"/>
<path d="M24.5664 14.2007L25.6298 14.8671L29.0973 17.2188L28.1021 16.5864L24.5664 14.2007Z" fill="white"/>
<path d="M24.5664 14.2007L25.6298 14.8671L29.0973 17.2188L28.1021 16.5864L24.5664 14.2007Z" stroke="#1E2959" stroke-width="0.846" stroke-linejoin="round"/>
<path d="M25.6308 14.8579L24.8164 16.6517L29.8382 19.6172L31.0888 11.5485L28.1468 12.1609L27.1439 15.8501L25.6308 14.8579Z" fill="white"/>
<path d="M25.6307 14.8579L24.8164 16.6517L29.8382 19.6172L31.0888 11.5485L28.1468 12.1609L27.1439 15.8501L25.6307 14.8579Z" stroke="#1E2959" stroke-width="0.846" stroke-linejoin="round"/>
<path d="M23.3359 15.5838C23.3359 16.4613 23.9694 17.1719 24.7503 17.1719C25.5317 17.1719 26.1651 16.4613 26.1651 15.5838C26.1651 14.7059 25.5317 13.9953 24.7503 13.9953C23.9694 13.9953 23.3359 14.7059 23.3359 15.5838Z" fill="white"/>
<path d="M23.3359 15.5838C23.3359 16.4613 23.9694 17.1719 24.7503 17.1719C25.5317 17.1719 26.1651 16.4613 26.1651 15.5838C26.1651 14.7059 25.5317 13.9953 24.7503 13.9953C23.9694 13.9953 23.3359 14.7059 23.3359 15.5838Z" stroke="#1E2959" stroke-width="0.846" stroke-miterlimit="10"/>
<path d="M30.1303 10.95L28.1484 12.1655L29.1387 12.7812L31.089 11.5536L30.1303 10.95Z" fill="white"/>
<path d="M30.1304 10.95L28.1484 12.1655L29.1387 12.7812L31.089 11.5536L30.1304 10.95Z" stroke="#1E2959" stroke-width="0.846" stroke-linejoin="round"/>
<path d="M36.7824 14.4738L37.6184 33.3592L33.664 35.8281L26.3008 31.2439L28.1573 12.1678L30.5335 10.6479L36.7824 14.4738Z" fill="white"/>
<path d="M36.7824 14.4738L37.6184 33.3592L33.664 35.8281L26.3008 31.2439L28.1573 12.1678L30.5335 10.6479L36.7824 14.4738Z" stroke="#1E2959" stroke-width="0.846" stroke-miterlimit="10"/>
<path d="M36.7814 14.4713L34.3785 16.0156L28.1562 12.1654L30.5325 10.6454L36.7814 14.4713Z" fill="white"/>
<path d="M36.7814 14.4713L34.3785 16.0156L28.1562 12.1654L30.5325 10.6454L36.7814 14.4713Z" stroke="#1E2959" stroke-width="0.846" stroke-linejoin="round"/>
<path d="M34.3672 20.4219L33.3711 19.7896L33.4148 15.3673L34.3993 15.9846L34.3672 20.4219Z" fill="white"/>
<path d="M34.3672 20.4219L33.3711 19.7896L33.4149 15.3673L34.3993 15.9846L34.3672 20.4219Z" stroke="#1E2959" stroke-width="0.846" stroke-linejoin="round"/>
<path d="M29.8359 21.9118L30.8993 22.5781L34.3673 20.4249L33.3712 19.7931L29.8359 21.9118Z" fill="white"/>
<path d="M29.8359 21.9118L30.8993 22.5781L34.3673 20.4249L33.3712 19.7931L29.8359 21.9118Z" stroke="#1E2959" stroke-width="0.846" stroke-linejoin="round"/>
<path d="M30.9001 24.4922L29.8398 23.8258V21.9163L30.9001 22.5768V24.4922Z" fill="#1E2959"/>
<path d="M30.8984 22.5763V24.4844L36.3867 21.0675L36.356 14.7625L34.3976 16.0018L34.3664 20.4299L30.8984 22.5763Z" fill="white"/>
<path d="M30.8984 22.5763V24.4844L36.3867 21.0675L36.356 14.7625L34.3976 16.0018L34.3664 20.4299L30.8984 22.5763Z" stroke="#1E2959" stroke-width="0.846" stroke-linejoin="round"/>
<path d="M28.4219 23.5052C28.4219 24.3827 29.0553 25.0938 29.8362 25.0938C30.6176 25.0938 31.2511 24.3827 31.2511 23.5052C31.2511 22.6278 30.6176 21.9172 29.8362 21.9172C29.0553 21.9172 28.4219 22.6278 28.4219 23.5052Z" fill="white"/>
<path d="M28.4219 23.5052C28.4219 24.3827 29.0553 25.0938 29.8362 25.0938C30.6176 25.0938 31.2511 24.3827 31.2511 23.5052C31.2511 22.6278 30.6176 21.9172 29.8362 21.9172C29.0553 21.9172 28.4219 22.6278 28.4219 23.5052Z" stroke="#1E2959" stroke-width="0.846" stroke-miterlimit="10"/>
<path d="M30.5312 12.9069L34.0778 15.0821L35.8341 13.888L36.7824 14.4678L36.8691 16.4688L37.9983 13.5845L35.9992 6.34606L30.5312 5.06881V12.9069Z" fill="white"/>
<path d="M30.5312 12.9069L34.0778 15.0821L35.8341 13.888L36.7824 14.4678L36.869 16.4688L37.9983 13.5845L35.9992 6.34606L30.5312 5.06881V12.9069Z" stroke="#1E2959" stroke-width="0.846" stroke-miterlimit="10"/>
<path d="M34.1692 7.60875L30.8469 5.56252C30.4725 5.33148 30.4729 4.74976 30.8483 4.52019L31.95 3.84606C32.1214 3.74149 32.3316 3.74197 32.5026 3.84849L35.7852 5.89131C36.1534 6.1204 36.1561 6.69239 35.7906 6.92635L34.7282 7.60389C34.5563 7.71381 34.3424 7.71527 34.1692 7.60875Z" fill="white"/>
<path d="M34.1692 7.60875L30.8469 5.56252C30.4725 5.33148 30.4729 4.74977 30.8483 4.52019L31.95 3.84606C32.1214 3.74149 32.3317 3.74197 32.5026 3.84849L35.7852 5.89132C36.1534 6.1204 36.1561 6.6924 35.7906 6.92635L34.7282 7.60388C34.5563 7.71381 34.3424 7.71527 34.1692 7.60875Z" stroke="#1E2959" stroke-width="0.846" stroke-miterlimit="10"/>
<path d="M31.3594 6.14792V11.9388L34.055 13.5391V7.88821L31.3594 6.14792Z" fill="white"/>
<path d="M31.3594 6.14792V11.9388L34.055 13.5391V7.88822L31.3594 6.14792Z" stroke="#1E2959" stroke-width="0.846" stroke-miterlimit="10"/>
<path d="M31.7852 12.3906L33.2839 13.2734L31.7852 12.3906Z" fill="white"/>
<path d="M32.9992 13.8359L33.4869 12.8739L31.9882 11.9901L31.5 12.9522L32.9992 13.8359Z" fill="#1E2959"/>
<path d="M32.1719 10.4931V11.0792L32.3799 11.2004V10.9314L32.863 11.2329V11.4966L33.0769 11.6172V11.052L32.1719 10.4931Z" fill="#1E2959"/>
<path d="M33.7023 8.95312V8.66548L32.8672 8.14607V8.4342L33.7023 8.95312Z" fill="#1E2959"/>
<path d="M32.546 8.23438V7.94576L31.7109 7.42683V7.71496L32.546 8.23438Z" fill="#1E2959"/>
<path d="M33.4836 9.29688V9.10433L32.9219 8.75559V8.94863L33.4836 9.29688Z" fill="#1E2959"/>
<path d="M32.4211 8.64062V8.4471L31.8594 8.09934V8.29189L32.4211 8.64062Z" fill="#1E2959"/>
<path d="M28.1238 47.292V47.9608L26.7826 48.7969L24.1523 47.1597V46.4914L26.7826 48.1286L28.1238 47.292Z" fill="#1E2959"/>
<path d="M26.7825 48.1328L28.1247 47.2967L25.4417 45.659L24.1523 46.4961L26.7825 48.1328Z" fill="#1E2959"/>
<path d="M36.4173 45.4878V46.1556L35.076 46.9922L32.4453 45.3555V44.6867L35.076 46.3244L36.4173 45.4878Z" fill="#1E2959"/>
<path d="M35.0764 46.3281L36.4186 45.492L33.7352 43.8539L32.4453 44.6909L35.0764 46.3281Z" fill="#1E2959"/>
<path d="M26.3551 28.4494L25.5195 47.3348L29.4734 49.8047L36.8371 45.22L34.9806 26.1444L32.604 24.6244L26.3551 28.4494Z" fill="white"/>
<path d="M26.3551 28.4494L25.5195 47.3348L29.4734 49.8047L36.8371 45.22L34.9807 26.1444L32.604 24.6244L26.3551 28.4494Z" stroke="#1E2959" stroke-width="0.846" stroke-miterlimit="10"/>
<path d="M24.3175 31.099C24.3175 31.9764 23.684 32.6875 22.9026 32.6875C22.1222 32.6875 21.4883 31.9764 21.4883 31.099C21.4883 30.2215 22.1222 29.5109 22.9026 29.5109C23.684 29.5109 24.3175 30.2215 24.3175 31.099Z" fill="white"/>
<path d="M24.3175 31.099C24.3175 31.9764 23.684 32.6875 22.9026 32.6875C22.1222 32.6875 21.4883 31.9764 21.4883 31.099C21.4883 30.2215 22.1222 29.5109 22.9026 29.5109C23.684 29.5109 24.3175 30.2215 24.3175 31.099Z" stroke="#1E2959" stroke-width="0.846" stroke-miterlimit="10"/>
<path d="M28.759 29.9766L28.7626 36.3828L23.2734 32.9903V30.9941L26.7703 33.0365L26.8019 28.7373L28.759 29.9766Z" fill="white"/>
<path d="M28.759 29.9766L28.7626 36.3828L23.2734 32.9903V30.9941L26.7703 33.0365L26.8019 28.7373L28.759 29.9766Z" stroke="#1E2959" stroke-width="0.846" stroke-linejoin="round"/>
<path d="M28.7614 36.3828L29.8216 35.7889L29.7598 29.3793L28.7578 29.9766L28.7614 36.3828Z" fill="white"/>
<path d="M28.7614 36.3828L29.8216 35.7889L29.7598 29.3793L28.7578 29.9766L28.7614 36.3828Z" stroke="#1E2959" stroke-width="0.846" stroke-linejoin="round"/>
<path d="M23.2734 30.9894L24.418 30.3449L26.7803 31.7092L26.7703 33.0312L23.2734 30.9894Z" fill="white"/>
<path d="M23.2734 30.9894L24.418 30.3449L26.7802 31.7092L26.7703 33.0312L23.2734 30.9894Z" stroke="#1E2959" stroke-width="0.846" stroke-linejoin="round"/>
<path d="M26.3555 28.4469L28.7583 29.9922L34.981 26.1419L32.6044 24.622L26.3555 28.4469Z" fill="white"/>
<path d="M26.3555 28.4469L28.7583 29.9922L34.9811 26.1419L32.6044 24.622L26.3555 28.4469Z" stroke="#1E2959" stroke-width="0.846" stroke-linejoin="round"/>
<path d="M32.5693 19.0481L34.5692 26.2875L33.107 30.0234L28.6564 27.2131V23.34L27.0742 22.3118L27.099 20.2213L32.5693 19.0481Z" fill="white"/>
<path d="M32.5693 19.0481L34.5692 26.2875L33.107 30.0234L28.6564 27.2131V23.34L27.0742 22.3118L27.099 20.2213L32.5693 19.0481Z" stroke="#1E2959" stroke-width="0.846" stroke-miterlimit="10"/>
<path d="M28.9678 21.5929L32.2901 19.5462C32.6646 19.3156 32.6641 18.7334 32.2888 18.5043L31.1871 17.8307C31.0156 17.7251 30.8054 17.7256 30.6344 17.8326L27.3518 19.8759C26.9841 20.105 26.981 20.677 27.3468 20.911L28.4089 21.5885C28.5807 21.6979 28.7941 21.6999 28.9678 21.5929Z" fill="white"/>
<path d="M28.9678 21.5929L32.2901 19.5462C32.6646 19.3156 32.6641 18.7334 32.2888 18.5043L31.187 17.8307C31.0156 17.7251 30.8054 17.7256 30.6344 17.8326L27.3518 19.8759C26.9841 20.105 26.981 20.677 27.3468 20.911L28.4088 21.5885C28.5807 21.6979 28.7941 21.6999 28.9678 21.5929Z" stroke="#1E2959" stroke-width="0.846" stroke-miterlimit="10"/>
<path d="M27.3164 22.4735V25.9142L28.6563 26.7031V23.3441L27.3164 22.4735Z" fill="white"/>
<path d="M27.3164 22.4735V25.9142L28.6563 26.7031V23.3441L27.3164 22.4735Z" stroke="#1E2959" stroke-width="0.846" stroke-miterlimit="10"/>
<path d="M27.1562 25.8208L28.655 26.7031L27.1562 25.8208Z" fill="white"/>
<path d="M27.1562 25.8208L28.655 26.7031" stroke="#1E2959" stroke-width="0.846" stroke-miterlimit="10"/>
<path d="M34.9805 26.1383L36.4873 31.5221L35.5561 32.0547L34.9805 26.1383Z" fill="white"/>
<path d="M34.9805 26.1383L36.4873 31.5221L35.5561 32.0547L34.9805 26.1383Z" stroke="#1E2959" stroke-width="0.846" stroke-miterlimit="10"/>
<path d="M9.71094 43.8701V44.5384L11.0522 45.375L13.6825 43.7383V43.0695L11.0522 44.7067L9.71094 43.8701Z" fill="#1E2959"/>
<path d="M11.0531 44.7109L9.71094 43.8739L12.3944 42.2367L13.6842 43.0738L11.0531 44.7109Z" fill="#1E2959"/>
<path d="M1.42188 42.0737V42.742L2.76272 43.5781L5.39339 41.9414V41.2731L2.76272 42.9103L1.42188 42.0737Z" fill="#1E2959"/>
<path d="M2.76404 42.9062L1.42188 42.0697L4.10489 40.4315L5.39427 41.2691L2.76404 42.9062Z" fill="#1E2959"/>
<path d="M11.4816 25.028L12.3176 43.9129L8.36325 46.3828L1 41.7986L2.85649 22.7225L5.23269 21.2026L11.4816 25.028Z" fill="white"/>
<path d="M11.4816 25.028L12.3176 43.9129L8.36326 46.3828L1 41.7986L2.85649 22.7225L5.23271 21.2026L11.4816 25.028Z" stroke="#1E2959" stroke-width="0.846" stroke-miterlimit="10"/>
<path d="M13.5195 27.6854C13.5195 28.5628 14.153 29.2734 14.9339 29.2734C15.7153 29.2734 16.3487 28.5628 16.3487 27.6854C16.3487 26.8075 15.7153 26.0968 14.9339 26.0968C14.153 26.0968 13.5195 26.8075 13.5195 27.6854Z" fill="white"/>
<path d="M13.5195 27.6854C13.5195 28.5628 14.1529 29.2734 14.9339 29.2734C15.7153 29.2734 16.3487 28.5628 16.3487 27.6854C16.3487 26.8075 15.7153 26.0968 14.9339 26.0968C14.1529 26.0968 13.5195 26.8075 13.5195 27.6854Z" stroke="#1E2959" stroke-width="0.846" stroke-miterlimit="10"/>
<path d="M9.07692 26.5625L9.07422 32.9688L14.5629 29.5762V27.5806L11.066 29.6224L11.034 25.3232L9.07692 26.5625Z" fill="white"/>
<path d="M9.07693 26.5625L9.07422 32.9688L14.5629 29.5762V27.5806L11.0661 29.6224L11.034 25.3232L9.07693 26.5625Z" stroke="#1E2959" stroke-width="0.846" stroke-linejoin="round"/>
<path d="M9.07626 32.9688L8.01562 32.3749L8.07788 25.9653L9.07943 26.563L9.07626 32.9688Z" fill="white"/>
<path d="M9.07628 32.9688L8.01562 32.3749L8.07788 25.9653L9.07944 26.563L9.07628 32.9688Z" stroke="#1E2959" stroke-width="0.846" stroke-linejoin="round"/>
<path d="M14.561 27.5748L13.4165 26.9309L11.0547 28.2947L11.0642 29.6172L14.561 27.5748Z" fill="white"/>
<path d="M14.561 27.5748L13.4165 26.9309L11.0547 28.2947L11.0642 29.6172L14.561 27.5748Z" stroke="#1E2959" stroke-width="0.846" stroke-linejoin="round"/>
<path d="M11.4806 25.0334L9.07776 26.5781L2.85547 22.7279L5.23167 21.2079L11.4806 25.0334Z" fill="white"/>
<path d="M11.4806 25.0334L9.07776 26.5781L2.85547 22.7279L5.23169 21.2079L11.4806 25.0334Z" stroke="#1E2959" stroke-width="0.846" stroke-linejoin="round"/>
<path d="M5.2656 15.634L3.26562 22.8739L4.72782 26.6094L9.17844 23.7995V19.9259L10.7606 18.8982L10.7363 16.8077L5.2656 15.634Z" fill="white"/>
<path d="M5.26558 15.634L3.26562 22.8739L4.72781 26.6094L9.17843 23.7995V19.9259L10.7606 18.8982L10.7363 16.8077L5.26558 15.634Z" stroke="#1E2959" stroke-width="0.846" stroke-miterlimit="10"/>
<path d="M8.86826 18.1786L5.54596 16.1324C5.17151 15.9019 5.1724 15.3197 5.54731 15.0901L6.64903 14.4164C6.82047 14.3114 7.0307 14.3119 7.20168 14.4189L10.4843 16.4622C10.8524 16.6908 10.8556 17.2628 10.4897 17.4967L9.42721 18.1743C9.25532 18.2842 9.04195 18.2856 8.86826 18.1786Z" fill="white"/>
<path d="M8.86825 18.1786L5.54596 16.1324C5.1715 15.9019 5.17241 15.3197 5.54731 15.0901L6.64903 14.4164C6.82047 14.3114 7.0307 14.3119 7.20169 14.4189L10.4843 16.4622C10.8524 16.6908 10.8556 17.2628 10.4897 17.4967L9.42723 18.1743C9.25534 18.2842 9.04194 18.2856 8.86825 18.1786Z" stroke="#1E2959" stroke-width="0.846" stroke-miterlimit="10"/>
<path d="M10.5201 19.0516V22.4928L9.17969 23.2812V19.9227L10.5201 19.0516Z" fill="white"/>
<path d="M10.5201 19.0516V22.4928L9.17969 23.2812V19.9227L10.5201 19.0516Z" stroke="#1E2959" stroke-width="0.846" stroke-miterlimit="10"/>
<path d="M10.6789 22.3989L9.17969 23.2812L10.6789 22.3989Z" fill="white"/>
<path d="M10.6789 22.3989L9.17969 23.2812" stroke="#1E2959" stroke-width="0.846" stroke-miterlimit="10"/>
<path d="M2.85452 22.7242L1.34766 28.108L2.27838 28.6406L2.85452 22.7242Z" fill="white"/>
<path d="M2.85451 22.7242L1.34766 28.108L2.27838 28.6406L2.85451 22.7242Z" stroke="#1E2959" stroke-width="0.846" stroke-miterlimit="10"/>
</svg>
