<svg width="21" height="16" viewBox="0 0 21 16" fill="none" xmlns="http://www.w3.org/2000/svg">
<path d="M13.3636 16C11.2318 16 9.42614 15.225 7.94659 13.675C6.46705 12.125 5.72727 10.2333 5.72727 8C5.72727 5.76667 6.46705 3.875 7.94659 2.325C9.42614 0.775 11.2318 0 13.3636 0C15.4955 0 17.3011 0.775 18.7807 2.325C20.2602 3.875 21 5.76667 21 8C21 10.2333 20.2602 12.125 18.7807 13.675C17.3011 15.225 15.4955 16 13.3636 16ZM5.72727 15.75C4.04091 15.2833 2.66477 14.3333 1.59886 12.9C0.532954 11.4667 0 9.83333 0 8C0 6.16667 0.532954 4.53333 1.59886 3.1C2.66477 1.66667 4.04091 0.716667 5.72727 0.25V2.35C4.58182 2.76667 3.65909 3.49167 2.95909 4.525C2.25909 5.55833 1.90909 6.71667 1.90909 8C1.90909 9.28333 2.25909 10.4417 2.95909 11.475C3.65909 12.5083 4.58182 13.2333 5.72727 13.65V15.75Z" fill="#35D7A1"/>
</svg>
