<svg width="18" height="26" viewBox="0 0 18 26" fill="none" xmlns="http://www.w3.org/2000/svg">
<path fill-rule="evenodd" clip-rule="evenodd" d="M10.4998 12.9107C12.1052 12.0299 13.7816 11.5042 15.5006 12.4134C14.2504 11.6889 12.4319 10.3819 11.1533 10.2256C9.83208 10.0693 8.61029 10.5381 7.48796 11.1632C3.5811 13.5358 0.782369 18.295 0.441406 22.8412L3.46745 24.5886C3.80841 20.0567 6.60714 15.2832 10.514 12.9249L10.4998 12.9107Z" fill="#38D59F"/>
<path fill-rule="evenodd" clip-rule="evenodd" d="M0.895028 22.6115L3.08287 23.8759C3.65114 19.3439 6.47829 14.8546 10.2715 12.5531H10.2857C11.1097 12.0842 12.1042 11.6438 13.1697 11.5444C12.4167 11.1182 11.6638 10.763 11.0813 10.692C9.80267 10.5357 8.58088 11.0756 7.68586 11.5728C4.07734 13.7606 1.30703 18.2784 0.880823 22.6257L0.895028 22.6115ZM3.45224 25.0266C3.367 25.0266 3.29597 25.0124 3.23915 24.9698L0.227308 23.2224C0.0852404 23.1371 0 22.9808 0 22.8104C0.355169 18.0369 3.28176 13.2208 7.25966 10.8056C8.29675 10.2374 9.67481 9.61227 11.2091 9.81117C12.3031 9.95323 13.6527 10.7772 14.8461 11.516C15.1586 11.7149 15.457 11.8996 15.7269 12.0416C15.9258 12.1553 16.011 12.4252 15.8974 12.6383C15.7837 12.8372 15.5138 12.9224 15.3149 12.8088C13.9937 12.1127 12.6298 12.2547 10.7403 13.2918C7.04656 15.5365 4.24782 20.1963 3.90686 24.6146C3.90686 24.7709 3.80741 24.8987 3.67955 24.9698C3.60852 24.9982 3.53748 25.0266 3.48066 25.0266H3.45224Z" fill="#17275A"/>
<path fill-rule="evenodd" clip-rule="evenodd" d="M10.4988 12.9167L7.48695 11.1693L10.4988 12.9167ZM13.4396 2.44632C12.5303 1.92067 10.4704 0.542617 9.64637 0.44317C5.54062 -0.0682736 1.0797 8.78254 4.54615 10.8851L7.55798 12.6326C3.76477 10.2174 9.46169 0.357929 13.4396 2.44632Z" fill="white"/>
<path fill-rule="evenodd" clip-rule="evenodd" d="M9.2923 0.876998C7.23232 0.876998 5.05868 3.49104 4.16365 6.06247C3.4249 8.17927 3.65221 9.85567 4.77455 10.5376L6.03895 11.2763C5.57012 9.64257 6.16681 7.45473 7.2039 5.66468C8.241 3.86042 9.86057 2.22664 11.537 1.84306C10.784 1.38844 9.97422 0.962239 9.57643 0.905412C9.47699 0.891206 9.37754 0.891205 9.27809 0.891205L9.2923 0.876998ZM7.55907 13.0806C7.48804 13.0806 7.4028 13.0664 7.34597 13.0238L4.33414 11.2763C2.82822 10.3671 2.45885 8.30714 3.33967 5.76413C4.40517 2.68126 7.07604 -0.302164 9.70429 0.0245917C10.4004 0.109832 11.5796 0.805963 12.9434 1.64416C13.2276 1.81464 13.4691 1.97092 13.668 2.08457C13.8811 2.19823 13.9521 2.46816 13.8385 2.68126C13.7248 2.89436 13.4549 2.96539 13.256 2.85174C11.537 1.95671 9.30651 3.80359 7.98528 6.09088C6.66405 8.37817 6.18101 11.2337 7.81479 12.2708C8.01369 12.3987 8.08472 12.6686 7.95686 12.8675C7.87162 13.0096 7.72955 13.0806 7.58748 13.0806H7.55907ZM10.4999 13.3647C10.4288 13.3647 10.3436 13.3505 10.2868 13.3079L7.27494 11.5605C7.13287 11.4895 7.04763 11.3332 7.04763 11.1769C7.04763 11.0206 7.14708 10.8644 7.28914 10.7933C7.41701 10.7223 7.57328 10.7223 7.70114 10.7933L10.713 12.5408C10.8408 12.6118 10.9261 12.7539 10.9403 12.9101C10.9403 13.0522 10.8692 13.2085 10.7414 13.2795C10.7414 13.2795 10.5851 13.3647 10.4999 13.3647Z" fill="#17275A"/>
<path fill-rule="evenodd" clip-rule="evenodd" d="M15.5005 12.4327C14.165 11.6655 12.375 11.836 10.4997 12.9299C8.55336 14.0522 6.77751 15.9844 5.4989 18.2006C4.31974 20.2322 3.56678 22.5053 3.45312 24.5937L17.5462 16.4532C17.4326 14.4927 16.6654 13.1004 15.5005 12.4185V12.4327Z" fill="#38D59F"/>
<path fill-rule="evenodd" clip-rule="evenodd" d="M13.6526 12.4124C12.7576 12.4124 11.7631 12.7249 10.7118 13.3216C8.89332 14.3729 7.1743 16.1914 5.88149 18.4361C4.87281 20.1835 4.20508 22.073 3.96357 23.8062L17.0906 16.234C16.9343 14.6286 16.295 13.4211 15.2722 12.8244C14.7891 12.5545 14.2493 12.4124 13.6526 12.4124ZM3.45212 25.0564C3.36688 25.0564 3.29585 25.028 3.22482 24.9854C3.08275 24.9001 3.01172 24.7439 3.01172 24.5876C3.13958 22.485 3.87833 20.1551 5.12852 17.9956C6.50658 15.6231 8.33925 13.691 10.2856 12.5545C12.3171 11.3753 14.2493 11.2048 15.7268 12.0572C17.0764 12.8386 17.872 14.3871 17.9999 16.4329C17.9999 16.6034 17.9288 16.7597 17.7867 16.8449L3.67943 24.9854C3.67943 24.9854 3.53737 25.0422 3.46633 25.0422L3.45212 25.0564Z" fill="#17275A"/>
<path fill-rule="evenodd" clip-rule="evenodd" d="M10.5 12.3402C11.6507 11.6725 12.6878 10.5359 13.4408 9.24313C14.1937 7.9361 14.6626 6.47281 14.6626 5.15158C14.6626 3.83035 14.1937 2.89271 13.4408 2.4665C12.6878 2.02609 11.6507 2.09712 10.5 2.75064C9.34924 3.41835 8.31214 4.5549 7.55918 5.86192C6.80622 7.16894 6.3374 8.63224 6.3374 9.95346C6.3374 11.2747 6.80622 12.2123 7.55918 12.6385C8.31214 13.0647 9.34924 13.0079 10.5 12.3402Z" fill="white"/>
<path fill-rule="evenodd" clip-rule="evenodd" d="M12.3595 2.60159C11.8623 2.60159 11.3082 2.77207 10.7257 3.11304C9.67441 3.70972 8.69415 4.76102 7.9554 6.05384C7.20244 7.34665 6.79044 8.72471 6.79044 9.93228C6.79044 11.0546 7.14561 11.8644 7.78492 12.248C8.43843 12.6174 9.31924 12.5179 10.2853 11.9496C10.2853 11.9496 10.2995 11.9496 10.3137 11.9496C11.3366 11.353 12.3169 10.3159 13.0698 9.02305C13.8228 7.73023 14.2348 6.35218 14.2348 5.1446C14.2348 4.02227 13.8796 3.19828 13.2261 2.8289C12.9704 2.68683 12.6862 2.6158 12.3595 2.6158V2.60159ZM8.65152 13.3419C8.1827 13.3419 7.74229 13.2283 7.35871 13.0009C6.43527 12.4753 5.92383 11.3814 5.92383 9.93228C5.92383 8.56843 6.37844 7.0341 7.20243 5.61343C8.02643 4.19275 9.12035 3.0278 10.2995 2.34587C11.5497 1.62133 12.7573 1.52188 13.6807 2.06174C14.6042 2.58739 15.1156 3.69551 15.1156 5.1304C15.1156 6.49425 14.661 8.01437 13.837 9.44925C13.013 10.8841 11.9191 12.0349 10.7399 12.7168C10.0154 13.1288 9.30504 13.3419 8.66573 13.3419H8.65152Z" fill="#17275A"/>
</svg>
