<svg width="14" height="14" viewBox="0 0 14 14" fill="none" xmlns="http://www.w3.org/2000/svg">
<g opacity="0.9">
<path d="M9.91146 12.25V11.0833C9.91146 10.4645 9.66563 9.871 9.22804 9.43342C8.79046 8.99583 8.19696 8.75 7.57812 8.75H2.91146C2.29262 8.75 1.69913 8.99583 1.26154 9.43342C0.823958 9.871 0.578125 10.4645 0.578125 11.0833V12.25" stroke="#0129FA" stroke-linecap="round" stroke-linejoin="round"/>
<path d="M5.25521 6.41667C6.54387 6.41667 7.58854 5.372 7.58854 4.08333C7.58854 2.79467 6.54387 1.75 5.25521 1.75C3.96654 1.75 2.92188 2.79467 2.92188 4.08333C2.92188 5.372 3.96654 6.41667 5.25521 6.41667Z" stroke="#0129FA" stroke-linecap="round" stroke-linejoin="round"/>
<path d="M13.4219 12.2523V11.0856C13.4215 10.5686 13.2494 10.0664 12.9327 9.65781C12.6159 9.24921 12.1725 8.95737 11.6719 8.82812" stroke="#0129FA" stroke-linecap="round" stroke-linejoin="round"/>
<path d="M9.32812 1.82812C9.83003 1.95663 10.2749 2.24853 10.5926 2.65781C10.9103 3.06708 11.0827 3.57044 11.0827 4.08854C11.0827 4.60664 10.9103 5.11001 10.5926 5.51928C10.2749 5.92855 9.83003 6.22045 9.32812 6.34896" stroke="#0129FA" stroke-linecap="round" stroke-linejoin="round"/>
</g>
</svg>
