<svg width="12" height="16" viewBox="0 0 12 16" fill="none" xmlns="http://www.w3.org/2000/svg">
<path d="M10.0719 2.21632C9.95709 1.67777 9.66096 1.19491 9.23298 0.848413C8.80501 0.501912 8.27111 0.312742 7.72045 0.3125H2.4027C1.76568 0.313214 1.15496 0.566583 0.704522 1.01702C0.254084 1.46746 0.000713744 2.07818 0 2.7152V11.4253C0.000784971 11.9798 0.193129 12.517 0.544479 12.946C0.89583 13.375 1.38461 13.6694 1.92809 13.7795C2.04282 14.3176 2.33855 14.8001 2.76597 15.1465C3.19339 15.493 3.72666 15.6824 4.27685 15.6833H9.5973C10.2343 15.6826 10.845 15.4292 11.2955 14.9788C11.7459 14.5283 11.9993 13.9176 12 13.2806V4.57048C11.9992 4.01597 11.8069 3.47876 11.4555 3.04977C11.1042 2.62078 10.6154 2.32635 10.0719 2.21632ZM1.87955 13.0028C1.54714 12.8921 1.25793 12.6797 1.05276 12.3956C0.847603 12.1116 0.73686 11.7703 0.73618 11.4199V2.7152C0.73618 2.27249 0.912043 1.84792 1.22508 1.53488C1.53812 1.22185 1.96269 1.04598 2.40539 1.04598H7.72045C8.16315 1.04598 8.58772 1.22185 8.90076 1.53488C9.2138 1.84792 9.38966 2.27249 9.38966 2.7152V11.2716L7.56944 13.0918H2.4027C2.22406 13.0925 2.04649 13.0642 1.87685 13.0082L1.87955 13.0028ZM11.2665 13.1215L9.44629 14.9417H4.27955C3.9324 14.9413 3.594 14.8327 3.31132 14.6312C3.02864 14.4297 2.81569 14.1452 2.70202 13.8172H7.72045C8.35747 13.8165 8.96819 13.5631 9.41862 13.1127C9.86906 12.6623 10.1224 12.0515 10.1231 11.4145V2.98756C10.4556 3.09832 10.7448 3.31072 10.9499 3.59475C11.1551 3.87879 11.2658 4.2201 11.2665 4.57048V13.1215Z" fill="#0129FA" fill-opacity="0.25"/>
<path d="M8.18721 10.3828H1.92294C1.77997 10.3828 1.66406 10.4987 1.66406 10.6417C1.66406 10.7847 1.77997 10.9006 1.92294 10.9006H8.18721C8.33018 10.9006 8.44609 10.7847 8.44609 10.6417C8.44609 10.4987 8.33018 10.3828 8.18721 10.3828Z" fill="#0129FA"/>
<path d="M8.18721 7.52344H1.92294C1.77997 7.52344 1.66406 7.63934 1.66406 7.78231C1.66406 7.92529 1.77997 8.04119 1.92294 8.04119H8.18721C8.33018 8.04119 8.44609 7.92529 8.44609 7.78231C8.44609 7.63934 8.33018 7.52344 8.18721 7.52344Z" fill="#0129FA"/>
<path d="M8.19429 6.10156H4.30575C4.16278 6.10156 4.04688 6.21747 4.04688 6.36044C4.04688 6.50341 4.16278 6.61932 4.30575 6.61932H8.19429C8.33726 6.61932 8.45317 6.50341 8.45317 6.36044C8.45317 6.21747 8.33726 6.10156 8.19429 6.10156Z" fill="#0129FA"/>
<path d="M8.19429 4.66406H4.30575C4.16278 4.66406 4.04688 4.77997 4.04688 4.92294C4.04688 5.06591 4.16278 5.18182 4.30575 5.18182H8.19429C8.33726 5.18182 8.45317 5.06591 8.45317 4.92294C8.45317 4.77997 8.33726 4.66406 8.19429 4.66406Z" fill="#0129FA"/>
<path d="M8.19429 3.24219H4.30575C4.16278 3.24219 4.04688 3.35809 4.04688 3.50106C4.04688 3.64404 4.16278 3.75994 4.30575 3.75994H8.19429C8.33726 3.75994 8.45317 3.64404 8.45317 3.50106C8.45317 3.35809 8.33726 3.24219 8.19429 3.24219Z" fill="#0129FA"/>
<path d="M8.18721 8.96094H1.92294C1.77997 8.96094 1.66406 9.07684 1.66406 9.21981C1.66406 9.36279 1.77997 9.47869 1.92294 9.47869H8.18721C8.33018 9.47869 8.44609 9.36279 8.44609 9.21981C8.44609 9.07684 8.33018 8.96094 8.18721 8.96094Z" fill="#0129FA"/>
</svg>
