<svg width="126" height="152" viewBox="0 0 126 152" fill="none" xmlns="http://www.w3.org/2000/svg">
<path fill-rule="evenodd" clip-rule="evenodd" d="M39.1273 134.487L24.0273 125.773C41.7171 135.72 63.7273 119.051 74.9753 106.206C90.6694 88.2758 104.529 57.6753 98.5649 33.8554C96.8132 26.8348 93.2516 20.6505 86.8969 16.8896L102.746 26.0625C118.624 36.1549 116.129 61.7015 111.197 77.3783C103.89 100.612 84.1637 128.729 60.1657 135.96C53.0677 138.097 45.7336 138.192 39.1273 134.487Z" fill="white"/>
<path fill-rule="evenodd" clip-rule="evenodd" d="M50.7279 138.594C46.3263 138.594 42.2556 137.554 38.5662 135.477H38.5586L23.4605 126.761C22.9301 126.455 22.7385 125.759 23.0463 125.22C23.3521 124.682 24.0567 124.498 24.5871 124.797C40.7342 133.867 61.3603 120.037 74.1181 105.463C90.0329 87.2818 103.17 56.931 97.4658 34.1273C95.5882 26.6015 91.837 21.1411 86.3165 17.8777C85.7765 17.5583 85.6081 16.8634 85.9139 16.3253C86.2313 15.7891 86.934 15.6032 87.4624 15.9206L103.313 25.086C119.029 35.0642 117.957 59.6758 112.279 77.7198C104.736 101.724 84.5184 129.804 60.4913 137.043C57.0729 138.075 53.823 138.594 50.7279 138.594ZM39.6832 133.501C45.4126 136.726 52.1931 137.188 59.8389 134.877C83.1111 127.868 102.754 100.473 110.121 77.0462C115.55 59.7629 116.727 36.2875 102.127 27.0235L94.9553 22.8735C97.0535 25.8602 98.6311 29.4314 99.6647 33.5814C105.837 58.2415 91.624 88.9 75.8234 106.952C64.9296 119.404 48.4554 131.248 33.309 129.831L39.6832 133.501Z" fill="#18265A"/>
<path fill-rule="evenodd" clip-rule="evenodd" d="M65.8105 26.626C41.5666 40.6187 21.9121 74.6549 21.9121 102.648C21.9121 130.628 41.5666 141.98 65.8105 127.98C90.0466 113.989 109.701 79.9489 109.701 51.9576C109.701 23.978 90.0466 12.6352 65.8105 26.626Z" fill="#35D7A1"/>
<path fill-rule="evenodd" clip-rule="evenodd" d="M46.2044 135.125C41.8241 135.125 37.7767 134.105 34.2055 132.034C25.5493 127.038 20.7837 116.601 20.7837 102.651C20.7837 74.3402 40.7247 39.7987 65.2396 25.6434C77.3257 18.6673 88.744 17.5756 97.4002 22.5735C106.058 27.5713 110.824 38.0082 110.824 51.9583C110.824 80.2709 90.881 114.809 66.3681 128.964C59.2798 133.056 52.414 135.125 46.2044 135.125ZM85.4011 21.7546C79.5884 21.7546 73.1041 23.7097 66.3681 27.6081C42.4765 41.3976 23.0465 75.0622 23.0465 102.651C23.0465 115.763 27.4094 125.505 35.3319 130.083C43.2681 134.657 53.8774 133.555 65.2396 127.001C89.1292 113.212 108.559 79.5451 108.559 51.9583C108.559 38.8483 104.198 29.1101 96.2736 24.5362C93.0488 22.6702 89.3808 21.7546 85.4011 21.7546Z" fill="#18265A"/>
<path fill-rule="evenodd" clip-rule="evenodd" d="M55.4623 8.6142C66.5245 2.38531 80.9199 -2.15172 92.9364 4.29008L108.025 13.0063C85.8287 1.96149 59.5253 22.4503 45.8229 38.4657C27.4711 59.9107 11.7265 94.9669 17.3399 123.401C19.1691 132.654 23.2417 140.714 31.2359 146.008C27.6414 143.941 17.1677 138.174 14.3939 136.084C-2.89909 123.026 -0.0692286 93.9662 5.41831 75.8157C13.3544 49.5472 31.5998 22.7405 55.4623 8.6142Z" fill="white"/>
<path fill-rule="evenodd" clip-rule="evenodd" d="M31.2321 147.148C31.0385 147.148 30.8469 147.102 30.663 146.994C29.8558 146.523 28.6809 145.857 27.3202 145.097C22.5062 142.373 15.9114 138.645 13.7048 136.988C-3.07916 124.308 -2.14418 96.907 4.33634 75.4911C12.9422 47.0004 32.3179 20.9893 54.8913 7.63335C54.8913 7.63335 54.899 7.63341 54.9068 7.62567C65.2876 1.77811 80.4069 -3.71719 93.4725 3.30144L108.592 12.0273C109.12 12.3351 109.312 13.0067 109.023 13.5487C108.725 14.0868 108.061 14.2862 107.521 14.019C87.1855 3.88597 62.0338 21.2603 46.6861 39.1959C29.1395 59.6866 12.828 94.7178 18.4433 123.183C20.439 133.245 24.8192 140.409 31.8553 145.072C32.3663 145.404 32.523 146.088 32.194 146.608C31.9849 146.957 31.6153 147.148 31.2321 147.148ZM56.0256 9.59038C33.9361 22.6734 14.9455 48.1812 6.50613 76.1434C0.534686 95.8869 -0.806617 123.191 15.0714 135.178C16.438 136.22 19.8505 138.233 23.3056 140.215C19.8872 135.817 17.5509 130.318 16.2289 123.625C10.4626 94.4119 27.0782 58.62 44.9596 37.7267C58.5381 21.8564 79.6443 6.4875 98.9136 9.05803L92.3749 5.27583C80.252 -1.22211 65.9128 4.03316 56.0256 9.59038Z" fill="#18265A"/>
<path fill-rule="evenodd" clip-rule="evenodd" d="M38.3612 134.02L23.2729 125.307L23.6562 125.548L24.0318 125.77L39.1316 134.484L38.7445 134.252L38.3612 134.02Z" fill="white"/>
<path fill-rule="evenodd" clip-rule="evenodd" d="M39.1289 135.609C38.9257 135.609 38.732 135.561 38.5617 135.466L22.6701 126.27C22.1513 125.939 21.9888 125.258 22.3082 124.727C22.6218 124.197 23.3069 124.017 23.8373 124.325L38.9256 133.039C38.9372 133.047 38.9449 133.047 38.9449 133.047L39.696 133.509C40.2263 133.819 40.418 134.512 40.0986 135.05C39.8876 135.408 39.5121 135.609 39.1289 135.609Z" fill="#18265A"/>
<path fill-rule="evenodd" clip-rule="evenodd" d="M101.984 25.5938L86.8973 16.8834L86.5101 16.6705L86.1172 16.4576L101.204 25.1622L101.589 25.3731L101.984 25.5938Z" fill="white"/>
<path fill-rule="evenodd" clip-rule="evenodd" d="M101.988 26.7422C101.797 26.7422 101.605 26.6958 101.429 26.5874L100.67 26.1751L85.5528 17.4511C85.0224 17.1414 84.8307 16.4582 85.1308 15.9181C85.4366 15.3723 86.1219 15.1768 86.66 15.4652L87.4593 15.9105L102.548 24.6227C103.097 24.9286 103.279 25.6254 102.972 26.1635C102.759 26.5294 102.383 26.7422 101.988 26.7422Z" fill="#18265A"/>
<path fill-rule="evenodd" clip-rule="evenodd" d="M32.1483 57.8735C41.9814 40.8534 55.5559 25.9839 70.5571 17.3297C85.5506 8.67154 99.1272 7.85275 108.956 13.5242C118.789 19.2053 124.875 31.3766 124.875 48.6889C124.875 66.0109 118.789 85.2008 108.956 102.229C99.1272 119.249 85.5506 134.107 70.5571 142.763C55.5559 151.433 41.9678 152.249 32.1483 146.568C22.3153 140.897 16.2412 128.726 16.2412 111.409C16.2412 94.0874 22.3153 74.8974 32.1483 57.8735ZM101.986 25.6064C97.8845 23.2392 92.9855 22.2577 87.556 22.788C82.324 23.3165 76.577 25.2425 70.5571 28.7189C64.5276 32.203 58.7943 36.9047 53.5526 42.4212C48.1192 48.1585 43.2318 54.7939 39.1302 61.8997C35.0189 69.0073 31.7148 76.5659 29.4713 84.1323C27.3054 91.4316 26.1034 98.758 26.1034 105.711C26.1034 112.673 27.3054 118.616 29.4713 123.401C31.7148 128.377 35.0189 132.125 39.1302 134.494C43.2318 136.851 48.1192 137.843 53.5526 137.304C58.7943 136.786 64.5276 134.848 70.5571 131.374C76.577 127.899 82.324 123.209 87.556 117.669C92.9855 111.942 97.8845 105.299 101.986 98.1909C106.078 91.0929 109.382 83.5401 111.633 75.9698C113.811 68.6608 115.007 61.3519 115.007 54.3894C115.007 47.4288 113.811 41.4844 111.633 36.6995C109.382 31.721 106.078 27.9757 101.986 25.6064Z" fill="#F6F6F6"/>
<path fill-rule="evenodd" clip-rule="evenodd" d="M46.3003 151.344C40.9269 151.344 35.9562 150.084 31.5759 147.55C20.955 141.426 15.1016 128.59 15.1016 111.41C15.1016 94.465 20.8137 75.2461 31.1636 57.3066C41.525 39.3652 55.3145 24.8208 69.9886 16.3446C84.8562 7.75621 98.8915 6.40901 109.524 12.5431C120.145 18.6771 126 31.5219 126 48.6891C126 65.6375 120.3 84.8469 109.936 102.794C99.5748 120.724 85.7892 135.274 71.1132 143.746C62.3815 148.795 53.9286 151.344 46.3003 151.344ZM33.1263 58.4448C43.2864 40.8401 56.774 26.59 71.1132 18.3093C85.2588 10.1526 98.4987 8.79558 108.386 14.5076C118.285 20.2178 123.737 32.3581 123.737 48.6891C123.737 65.2485 118.134 84.0552 107.974 101.656C97.8134 119.261 84.3258 133.511 69.9886 141.791C55.8429 149.956 42.6012 151.305 32.7139 145.597C22.8151 139.887 17.3663 127.743 17.3663 111.41C17.3663 94.8483 22.9583 76.0455 33.1263 58.4448ZM50.6806 138.586C46.2132 138.586 42.1483 137.547 38.5596 135.477C34.1793 132.942 30.7687 129.034 28.4363 123.873C26.127 118.779 24.9637 112.672 24.9637 105.711C24.9637 98.8087 26.1154 91.4435 28.382 83.8152C30.6429 76.1907 33.9257 68.632 38.1454 61.3404C42.3612 54.0353 47.272 47.4078 52.7324 41.6395C58.2025 35.8713 64.0074 31.1929 69.9886 27.7456C76.0162 24.2692 81.8908 22.2212 87.4461 21.6598C93.1059 21.1043 98.1812 22.1032 102.544 24.6253C106.924 27.1571 110.333 31.0574 112.664 36.2295C114.963 41.3144 116.13 47.4174 116.13 54.3896C116.13 61.3037 114.984 68.6688 112.722 76.2836C110.459 83.91 107.162 91.4686 102.956 98.7583C98.7483 106.058 93.8454 112.683 88.3753 118.45C82.9187 124.216 77.1117 128.898 71.1132 132.355C65.0856 135.837 59.209 137.883 53.6576 138.431C52.6472 138.538 51.6562 138.586 50.6806 138.586ZM90.4192 23.7794C89.525 23.7794 88.5997 23.8162 87.6667 23.9149C82.4289 24.4356 76.862 26.3886 71.1132 29.6986C65.3275 33.0414 59.6948 37.5863 54.368 43.2016C49.0372 48.8343 44.231 55.3245 40.0965 62.4689C35.9775 69.6134 32.7623 77.0095 30.5557 84.4617C28.353 91.8752 27.2342 99.0293 27.2342 105.711C27.2342 112.347 28.3336 118.144 30.4957 122.94C32.6365 127.665 35.7278 131.219 39.6842 133.511C43.6523 135.795 48.2824 136.697 53.4331 136.18C58.6632 135.667 64.23 133.714 69.9886 130.391C75.7839 127.04 81.4263 122.495 86.7319 116.891C92.0762 111.247 96.8785 104.768 101.003 97.6318C105.126 90.4893 108.339 83.0932 110.552 75.643C112.749 68.2333 113.868 61.083 113.868 54.3896C113.868 47.7464 112.77 41.9473 110.604 37.1643C108.463 32.4356 105.374 28.874 101.416 26.5899C98.1715 24.722 94.4841 23.7794 90.4192 23.7794Z" fill="#18265A"/>
<path fill-rule="evenodd" clip-rule="evenodd" d="M59.6152 127.82C59.5223 127.82 59.4235 127.809 59.3364 127.78C58.7305 127.625 58.3648 127.011 58.5177 126.403L72.942 71.0092C73.0968 70.4014 73.7241 70.0356 74.3202 70.1982C74.9261 70.355 75.2842 70.9705 75.1313 71.5744L60.7146 126.971C60.5791 127.482 60.1165 127.82 59.6152 127.82Z" fill="#18265A"/>
<path fill-rule="evenodd" clip-rule="evenodd" d="M77.0847 77.1555L73.1573 85.4922L45.1738 77.5097L49.1012 69.1826L77.0847 77.1555Z" fill="#F6F6F6"/>
<path fill-rule="evenodd" clip-rule="evenodd" d="M73.158 86.625C73.0515 86.625 72.945 86.6135 72.8386 86.5864L44.8685 78.6115C44.5492 78.5167 44.2898 78.2824 44.1427 77.9882C44.0111 77.6901 44.0111 77.3398 44.1544 77.034L48.0837 68.6933C48.3237 68.1958 48.8715 67.9345 49.4213 68.0893L77.3932 76.07C77.7125 76.1687 77.9699 76.3875 78.1054 76.6856C78.2409 76.9934 78.2409 77.3397 78.1054 77.6378L74.1762 85.9785C73.9865 86.3811 73.5819 86.625 73.158 86.625ZM46.7732 76.792L72.5424 84.1513L75.4943 77.8798L49.7212 70.5341L46.7732 76.792Z" fill="#18265A"/>
<path fill-rule="evenodd" clip-rule="evenodd" d="M67.2469 93.8047L63.8364 91.8478L96.2951 35.6446L98.6179 36.9839L99.6961 37.5996L67.2469 93.8047Z" fill="white"/>
<path fill-rule="evenodd" clip-rule="evenodd" d="M67.2475 94.9375C67.0559 94.9375 66.8605 94.891 66.6805 94.7865L63.2795 92.8276C63.0221 92.6747 62.8266 92.4366 62.7531 92.1463C62.6756 91.8463 62.7124 91.5384 62.8556 91.281L95.324 35.0759C95.6356 34.5378 96.3286 34.354 96.8667 34.6598L100.256 36.6244C100.525 36.7676 100.717 37.0212 100.783 37.3096C100.86 37.598 100.823 37.9058 100.67 38.1652L68.2193 94.3703C68.018 94.7361 67.6424 94.9375 67.2475 94.9375ZM65.3874 91.434L66.8314 92.2605L98.1482 38.0123L96.7119 37.1838L65.3874 91.434Z" fill="#18265A"/>
</svg>
