<svg width="33" height="40" viewBox="0 0 33 40" fill="none" xmlns="http://www.w3.org/2000/svg">
<path d="M29.6886 4.01541L25.2102 1.64745C24.1646 1.0446 22.8773 1.0446 21.8289 1.64745L2.73647 12.6318C1.68544 13.2374 1.03906 14.3562 1.03906 15.5673V32.993C1.03906 34.2041 1.68544 35.3202 2.73376 35.9258L7.2122 38.3426C8.26052 38.9482 9.55327 38.9482 10.6016 38.3426L29.694 27.3066C30.7424 26.7011 31.3887 25.5823 31.3887 24.3739V6.95091C31.3887 5.73978 30.7424 4.61826 29.6913 4.01541" fill="black"/>
<path d="M29.9618 7.38247C29.9618 6.70359 29.4322 6.45647 28.7804 6.83122L10.4756 17.3295C9.82376 17.7043 9.29417 18.5569 9.29689 19.2358L9.31318 35.8658C9.31318 36.5447 9.84549 36.7918 10.4946 36.4171L28.7994 25.9161C29.4513 25.5413 29.9781 24.6887 29.9781 24.0098L29.9591 7.37976L29.9618 7.38247Z" fill="white"/>
<path d="M19.8627 26.2156C20.2918 25.9685 20.6394 26.1668 20.6421 26.661C20.6449 27.1552 20.2972 27.7554 19.8681 28.0025C19.439 28.2496 19.0887 28.0514 19.086 27.5598C19.0832 27.0683 19.4309 26.4655 19.8627 26.2156ZM19.8654 27.5055C20.0555 27.3969 20.2103 27.1281 20.2103 26.9108C20.2103 26.6936 20.0528 26.604 19.8654 26.7126C19.678 26.8212 19.5205 27.0901 19.5205 27.3073C19.5205 27.5245 19.6753 27.6142 19.8654 27.5055Z" fill="#EF4050"/>
<path d="M20.6967 18.0519C20.9167 18.2012 21.0253 18.5081 20.9981 18.8964L20.6179 24.2569C20.5853 24.7321 20.2594 25.2643 19.8629 25.4925C19.4664 25.7206 19.1378 25.5685 19.1025 25.1313L18.6924 20.227C18.6625 19.8713 18.7711 19.4368 18.9884 19.0376C19.2084 18.6357 19.518 18.299 19.8439 18.1116C20.1698 17.9242 20.4794 17.9025 20.6994 18.0491L20.6967 18.0519ZM20.5663 19.1028C20.5826 18.8557 20.5174 18.6683 20.3762 18.5732C20.2377 18.4782 20.0449 18.4918 19.8412 18.6113C19.6375 18.7307 19.4447 18.9371 19.3062 19.1924C19.1649 19.4476 19.0997 19.7111 19.1215 19.9392L19.5316 24.8434C19.5452 25.0335 19.6891 25.0987 19.8602 24.9982C20.0313 24.8977 20.1725 24.6696 20.1861 24.466L20.569 19.1055" fill="#EF4050"/>
<path d="M27.0255 24.3879C27.0663 24.4395 27.0663 24.5372 27.0255 24.635C26.9875 24.7354 26.9169 24.8223 26.8381 24.8685L12.8976 32.9147C12.8189 32.9608 12.7483 32.9527 12.7102 32.8984C12.6695 32.8468 12.6695 32.749 12.7102 32.6513L19.6411 14.7558C19.6818 14.6581 19.7525 14.5684 19.8285 14.5223C19.9045 14.4761 19.9752 14.4843 20.0159 14.5386L27.0228 24.3879H27.0255ZM13.2724 32.2005L26.4633 24.5861L19.8312 15.2691L13.2724 32.2005Z" fill="#EF4050"/>
<path d="M28.2299 23.6095C28.4092 23.8621 28.4119 24.2857 28.2327 24.7446C28.0561 25.2035 27.7357 25.5973 27.3799 25.8037L12.3585 34.4744C12 34.6808 11.6822 34.6536 11.503 34.4011C11.3237 34.1486 11.321 33.7249 11.5003 33.266L18.9689 13.9856C19.1454 13.5267 19.4659 13.1329 19.8244 12.9266C20.1829 12.7202 20.5006 12.7473 20.6799 12.9999L28.2327 23.6095H28.2299ZM27.8579 24.712C27.9556 24.4568 27.9556 24.2178 27.8579 24.0739L20.3051 13.4642C20.2046 13.323 20.0253 13.3067 19.8244 13.4208C19.6234 13.5348 19.4441 13.7602 19.3437 14.0155L11.8751 33.2986C11.7773 33.5539 11.7773 33.7928 11.8751 33.9367C11.9755 34.078 12.1575 34.0942 12.3558 33.9775L27.3772 25.3067C27.5754 25.1927 27.7574 24.9673 27.8579 24.7093" fill="#EF4050"/>
</svg>
