<svg width="24" height="25" viewBox="0 0 24 25" fill="none" xmlns="http://www.w3.org/2000/svg">
<circle cx="12" cy="12.9512" r="12" fill="#EA4335" fill-opacity="0.15"/>
<mask id="mask0_9037_25498" style="mask-type:alpha" maskUnits="userSpaceOnUse" x="0" y="0" width="24" height="25">
<rect y="0.951172" width="24" height="24" fill="#D9D9D9"/>
</mask>
<g mask="url(#mask0_9037_25498)">
<path d="M7.23101 19.9335C7.22125 19.9433 7.20542 19.9433 7.19566 19.9335L6.01768 18.7555C6.00791 18.7458 6.00791 18.7299 6.01768 18.7202L16.0107 8.72718C16.0264 8.71143 16.0153 8.68451 15.993 8.68451H10.3583C10.3445 8.68451 10.3333 8.67331 10.3333 8.65951V6.97617C10.3333 6.96236 10.3445 6.95117 10.3583 6.95117H18.975C18.9888 6.95117 19 6.96236 19 6.97617V15.5928C19 15.6066 18.9888 15.6178 18.975 15.6178H17.2917C17.2779 15.6178 17.2667 15.6066 17.2667 15.5928V9.95819C17.2667 9.93592 17.2397 9.92477 17.224 9.94052L7.23101 19.9335Z" fill="#EA4335"/>
</g>
</svg>
